<svg xmlns="http://www.w3.org/2000/svg" width="215" height="49" viewBox="0 0 215 49" fill="none">
<g clip-path="url(#clip0_441_266)">
<path d="M5.48552 14.74C5.08086 17.3304 3.47668 19.1719 0.675599 20.266L0.675806 20.1165C2.17775 19.2214 3.07949 18.2738 3.38101 17.2791C1.97847 17.3758 1.12948 17.6244 0.828781 18.0232C1.02966 16.8272 1.38012 15.9795 1.8828 15.4826C2.0823 15.2822 3.2832 15.036 5.48552 14.74ZM78.1084 22.766C78.1063 24.2613 77.8044 25.5551 77.2026 26.6518C76.6005 27.9459 75.6992 28.594 74.4986 28.5924C73.6969 28.5913 73.0967 28.5385 72.698 28.4407C72.6973 28.9383 72.6966 29.4359 72.6959 29.936C72.6931 31.9289 72.4404 33.1738 71.9404 33.6733C67.9313 38.2517 64.1763 40.5411 60.6756 40.5362C59.1749 40.5341 58.0244 39.8338 57.2269 38.4376C56.5272 37.3383 56.1796 36.0922 56.1816 34.6978C56.1848 32.4032 56.7372 29.5632 57.8442 26.1767C56.6424 27.0719 54.6371 28.9129 51.8337 31.7011C48.7272 34.6875 46.4733 36.7782 45.0718 37.9721C42.4661 39.9618 40.3637 40.9562 38.7647 40.954C37.5642 40.9524 36.5145 40.3763 35.6157 39.23C34.7168 38.0819 34.2684 36.7605 34.2705 35.2652C34.273 33.4704 34.8765 31.177 36.0809 28.3895C35.8789 28.4872 35.6305 28.5381 35.3304 28.5377C34.6292 28.5367 34.0289 28.4839 33.5297 28.386C33.529 28.8836 33.5283 29.3811 33.5276 29.8813C33.5249 31.8742 33.3214 33.0698 32.9224 33.4693C28.2121 38.047 24.408 40.336 21.5075 40.3319C20.0068 40.3299 18.8562 39.7298 18.0584 38.532C17.2583 37.3354 16.8615 35.8885 16.8639 34.1939C16.8647 33.5958 17.1149 32.2739 17.6197 30.2323C18.1219 28.1882 18.3754 26.4203 18.3774 24.925C18.3791 23.7287 18.2306 22.5808 17.932 21.4851C16.7318 21.1844 15.5325 20.3345 14.3338 18.938C13.1352 17.5394 12.3344 16.8414 11.9356 16.8409C11.434 16.8402 10.633 17.6854 9.53097 19.38C8.72705 20.6731 8.02668 21.9689 7.4246 23.2645C9.72314 24.464 10.871 27.0566 10.8654 31.0446L10.1151 31.0436C9.01387 30.5437 7.96376 29.9957 6.96588 29.3962C5.96588 28.6965 5.4676 27.6487 5.46954 26.2543C3.16557 27.3472 2.01433 28.8409 2.0117 30.7355C2.01143 30.934 2.9837 33.2273 4.92852 37.6177C6.87335 42.0055 7.84396 45.4958 7.84036 48.0891L7.54022 48.0886C7.34059 46.4921 6.19589 43.5492 4.10085 39.2607C2.20463 35.2704 1.25907 32.379 1.26156 30.5846C1.26516 27.9909 2.81833 25.6006 5.92369 23.4135C6.3243 22.1172 7.32769 20.3735 8.93235 18.184C10.7368 15.5929 12.1879 14.3007 13.2898 14.3022C13.6886 14.3027 14.6392 15.2013 16.1374 16.9977C15.9362 16.4973 15.8386 15.9996 15.8393 15.502C15.8411 14.2052 16.2928 13.1101 17.1945 12.2141C18.0962 11.3182 19.1964 10.8708 20.4979 10.8726C21.497 10.874 23.4473 11.3492 26.3487 12.3016C29.2478 13.2514 31.7984 13.7297 34.0003 13.7328L32.1953 16.721C30.793 16.9175 28.5407 17.8116 25.4384 19.4032C22.7352 20.7938 20.4832 21.4898 18.6823 21.4873C18.5814 21.4871 18.3822 21.4868 18.0821 21.4864C18.5799 22.8819 18.8284 24.3775 18.8262 25.9734C18.8244 27.268 18.6464 28.7141 18.2949 30.3092C17.9408 31.9031 17.7662 32.7993 17.7659 33.0004C17.7615 36.1895 19.0582 37.7869 21.6611 37.7905C23.5606 37.7931 25.7635 36.7988 28.2683 34.809C29.8691 33.5144 31.3717 32.1714 32.776 30.7782C32.777 30.0795 32.3775 28.9829 31.5801 27.4865C31.1802 26.5887 30.7313 25.6909 30.2332 24.7934L31.2872 22.2528C32.1857 23.6488 32.8338 24.5959 33.2341 25.0962C33.9321 25.7937 34.682 26.1457 35.4837 26.1468C36.4828 26.1482 37.2851 25.7501 37.8865 24.9539C37.8886 23.4586 37.7897 22.0121 37.5924 20.6167L35.0632 4.76305C34.9637 3.7674 34.7655 3.01946 34.466 2.51923L35.2193 0.426441L37.9137 5.36439L37.9125 6.26159L36.5637 4.91392C36.4625 5.1149 36.4622 5.3134 36.5629 5.51242L38.793 20.618C38.8907 21.0155 38.9415 21.7146 38.9401 22.712C38.936 25.7027 38.1313 27.5449 36.5313 28.2414C35.5269 30.4318 35.0249 32.375 35.0225 34.0711C35.0213 34.9683 35.3694 35.8147 36.0695 36.6153C36.8677 37.5132 37.8171 37.9635 38.919 37.9651C40.7198 37.9676 43.0219 36.625 45.8278 33.9373C48.3308 31.6462 50.836 29.3091 53.341 26.9197C55.2428 25.3257 57.0969 23.9832 58.8992 22.8896C58.3975 22.6885 57.6479 22.1402 56.6505 21.242C55.2496 20.1417 54.5527 18.8952 54.5547 17.5008C54.5578 15.2066 55.8091 14.0633 58.3112 14.0667C63.1134 14.0734 68.3133 14.9262 73.9149 16.6304L71.9599 19.6184C70.1582 20.2144 66.904 21.5041 62.1999 23.4927C62.6982 24.2904 63.2467 26.1857 63.8428 29.1772C61.1416 29.1735 59.792 28.372 59.7942 26.7791C59.7945 26.5783 59.8442 26.23 59.9458 25.7326C60.0451 25.2329 60.097 24.8842 60.0973 24.686C59.6958 24.9845 59.0954 25.3803 58.2948 25.8791C57.289 29.0668 56.7863 31.4594 56.7841 33.0549C56.7797 36.2441 58.1281 37.8414 60.8294 37.8452C63.7299 37.8492 67.4357 35.5112 71.9443 30.8329C71.8444 30.1341 71.4452 29.0375 70.7483 27.5412C70.2478 26.7416 69.7988 25.895 69.4012 24.9973L70.3054 22.3069C71.2037 23.8035 71.901 24.7506 72.4024 25.1506C73.0017 25.8479 73.7516 26.1999 74.652 26.2012C75.6507 26.2026 76.4534 25.8044 77.0548 25.0083C76.9559 23.5128 76.8079 22.0662 76.6106 20.6708L74.2313 4.96657C74.0309 3.87059 73.8328 3.0733 73.6343 2.57359L74.3876 0.480797L76.9319 5.41891L76.9307 6.31611L75.732 4.96827C75.6306 5.26757 75.6303 5.51767 75.7309 5.71594L77.9612 20.6723C78.0593 21.0695 78.1098 21.7682 78.1084 22.766ZM11.0456 9.36449C11.0432 11.0583 10.4909 11.9062 9.39128 11.9046C8.38994 11.9032 7.89134 11.353 7.89286 10.2577C7.89383 9.559 8.04507 8.7136 8.3466 7.71626C8.94854 6.52083 9.24964 5.8248 9.24992 5.62368C9.44803 6.42358 9.4968 6.97019 9.39771 7.26874C10.4965 7.8684 11.0467 8.56786 11.0456 9.36449ZM10.5945 9.962C10.1942 9.46163 9.59475 9.11201 8.79515 8.91277C8.39354 9.3096 8.19397 9.55866 8.19383 9.6596C8.193 10.2577 8.54187 10.5573 9.24308 10.5583C9.74243 10.5589 10.1929 10.3584 10.5945 9.962ZM14.6122 34.6405L13.5594 36.2831C12.9589 36.4808 12.307 36.6302 11.6079 36.7294C10.5051 37.1253 9.95594 37.5731 9.95524 38.0733C10.4522 40.0669 10.7009 41.4624 10.6998 42.2609C10.6973 44.0556 10.6444 45.1023 10.5454 45.4005C10.5469 44.3022 10.347 42.8581 9.95109 41.0632C9.5529 39.2675 9.3549 38.1207 9.35559 37.6231C9.35683 36.7263 9.68106 36.1282 10.3335 35.8301C10.9834 35.5312 11.6099 35.2823 12.2104 35.085C11.8102 34.7846 11.4607 34.6354 11.1606 34.635L10.2591 35.3814L10.2602 34.6337C10.5609 34.2345 10.8097 33.861 11.0121 33.5133C11.2118 33.1629 11.463 32.9909 11.7631 32.9913C12.3634 32.9925 13.3122 33.5404 14.6122 34.6405ZM15.8231 27.1655L14.6192 29.5556L12.0697 28.3566L12.973 26.2644L10.7236 25.0646L11.7775 22.6743L14.4771 23.8743L13.4237 25.9659L15.8231 27.1655ZM28.595 15.6692C27.9949 15.5675 26.5934 15.2178 24.3945 14.6163C22.5945 14.016 21.1925 13.715 20.1938 13.7136C17.891 13.7104 16.741 14.5548 16.7387 16.2509C16.7377 16.947 16.9855 17.646 17.4861 18.3454C17.8844 18.7433 18.3857 18.9452 18.986 18.946C20.3858 18.9479 21.988 18.5505 23.7899 17.7564C26.6922 16.4632 28.2948 15.7668 28.595 15.6692ZM29.9299 27.0356C28.4239 30.8208 26.5196 32.7131 24.2194 32.7099C22.5172 32.7075 21.6693 31.9075 21.6715 30.3138C21.6733 29.017 22.7748 27.6735 24.9786 26.2814C24.5784 25.9814 24.1775 25.8313 23.7787 25.8308C23.2771 25.8301 22.777 26.0772 22.277 26.5764L22.2778 25.9782C22.7787 24.8806 23.4806 24.335 24.3811 24.3363C25.8818 24.3384 27.082 24.5385 27.9819 24.9402L26.1788 26.5814C25.4773 26.7789 24.7004 27.2268 23.8508 27.9247C22.9986 28.6196 22.5734 29.2171 22.5727 29.7173C22.5715 30.6145 23.3704 31.0642 24.972 31.0665C26.072 31.068 27.1725 30.4714 28.276 29.277C28.7765 28.4777 29.3287 27.7308 29.9299 27.0356ZM32.6594 6.70289C32.6577 7.89878 32.2558 8.49673 31.4563 8.49562C31.0553 8.49506 30.6545 8.296 30.2566 7.89545C29.9554 8.69466 29.5046 9.09067 28.9043 9.08984C28.2031 9.08886 27.8545 8.63978 27.8557 7.74258C27.8565 7.14408 27.8574 6.54632 27.8582 5.94819C27.6561 6.14903 27.4073 6.44738 27.1066 6.84397L27.1074 6.24584C27.3073 5.74855 27.808 5.10177 28.6108 4.304C28.3078 6.39704 28.5055 7.44405 29.2067 7.44502C29.7061 7.44571 29.9576 7.09765 29.9585 6.39896C29.959 6.09989 29.8589 5.502 29.6609 4.60415L30.1123 3.7087C30.4118 4.20893 30.6104 4.95687 30.7095 5.95252C30.7085 6.65122 30.9568 6.9996 31.4584 7.00029C31.7586 7.00071 31.909 6.75307 31.9097 6.25326L31.4621 4.30871L32.0639 3.26281C32.4609 4.56019 32.6608 5.70776 32.6594 6.70289ZM41.1777 32.4344C41.0748 33.8286 40.5745 34.5274 39.6741 34.5261C38.7737 34.5249 38.3241 34.0753 38.3253 33.1781C38.3271 31.8813 39.0281 30.3869 40.4325 28.695C39.7291 30.2877 39.3782 31.4341 39.3773 32.1328C39.3763 32.8285 39.6242 33.1799 40.1262 33.1806C40.6255 33.1813 40.926 32.9316 41.0276 32.4342L41.1777 32.4344ZM44.1911 23.7656C44.1882 25.8587 43.935 27.4524 43.4341 28.5496L43.134 28.5492C43.2353 26.3553 43.1402 24.0633 42.8434 21.6707L40.1656 4.76976C40.066 3.7741 39.8679 3.02617 39.5684 2.52594L40.3217 0.433148L42.866 5.37126L42.8648 6.26846L41.6661 4.92063C41.5649 5.12161 41.5646 5.32011 41.6652 5.51913L44.0442 21.5224C44.1418 22.0202 44.1925 22.7679 44.1911 23.7656ZM50.9702 5.08344C50.9697 5.4827 50.819 5.93183 50.5181 6.42861C50.2184 6.12913 49.9676 5.97962 49.7684 5.97935C49.2668 5.97865 48.867 6.67679 48.5649 8.07114C48.3618 8.96805 48.2104 9.96336 48.1106 11.0612C47.8115 10.2615 47.3114 9.21407 46.6142 7.9189C46.5126 8.41932 46.2121 8.666 45.7128 8.66531C44.9107 8.6642 44.5128 8.21542 44.5141 7.31785C44.5156 6.22178 44.866 5.67348 45.5669 5.67445C46.4673 5.6757 47.2653 6.72391 47.9636 8.81797C48.5689 5.23002 49.3217 3.43667 50.2221 3.43792C50.7215 3.43824 50.9717 3.98774 50.9702 5.08344ZM51.1087 13.4575C50.7039 16.1481 49.1515 17.9897 46.4488 18.9837L46.2989 18.834C47.8009 17.9392 48.7026 16.9913 49.0041 15.9966C47.602 16.093 46.7526 16.3415 46.4519 16.7407C46.6528 15.5448 47.0033 14.697 47.5059 14.2001C47.7054 13.9997 48.9063 13.7535 51.1087 13.4575ZM50.9457 22.7283L49.7418 25.1184L47.1923 23.9193L48.3962 21.5285L50.9457 22.7283ZM53.6248 38.732C53.6228 40.1268 53.1199 40.8252 52.1212 40.8238C51.2207 40.8225 50.7712 40.3737 50.7724 39.4757C50.7742 38.1789 51.4749 36.6845 52.8796 34.9927L53.0297 34.9929C52.2254 36.5854 51.8253 37.7321 51.8243 38.4305C51.8234 39.1265 52.0716 39.4775 52.5732 39.4782C53.073 39.4789 53.3731 39.2296 53.4747 38.7318L53.6248 38.732ZM56.3704 6.7358C56.3688 7.93169 56.1163 9.27751 55.6145 10.7721C55.7143 9.9734 55.7669 9.07852 55.7683 8.08076C55.7708 6.28637 55.2216 4.89084 54.1233 3.89156L54.2759 2.09737C54.9743 2.4976 55.4986 3.19739 55.8487 4.19302C56.1966 5.19126 56.3714 6.03935 56.3704 6.7358ZM68.8099 18.5662C66.0093 17.366 62.7578 16.7634 59.0578 16.7582C57.257 16.7557 56.0561 16.9526 55.4553 17.3514C55.455 17.5499 56.1036 18.1235 57.4038 19.0741C58.7014 20.0217 59.8023 20.9466 60.7015 21.8446C62.8039 20.8498 65.5067 19.7578 68.8099 18.5662ZM72.1348 1.67356C72.134 2.27206 71.9571 2.97051 71.6067 3.76666C71.2537 4.56505 70.8285 5.16222 70.3286 5.55928C70.9306 4.36385 71.2319 3.51866 71.2326 3.01848C66.128 4.60728 61.4721 7.29241 57.2648 11.0739C57.3642 10.5738 57.4654 10.0764 57.5671 9.57896C59.2693 7.88749 61.5485 6.29476 64.4019 4.80339C67.2553 3.31165 69.8316 2.26849 72.1348 1.67356ZM68.3466 27.9861C68.5447 28.7834 68.3448 29.2313 67.7444 29.3314C67.4442 29.4293 66.9942 29.2294 66.3946 28.731C65.9926 29.4266 65.3419 30.3737 64.4398 31.5698C63.3357 32.8625 61.8857 33.6601 60.0844 33.9559L58.7334 34.2531C60.1341 33.5564 61.6857 32.5611 63.3897 31.2689C64.791 30.1726 65.7421 29.0782 66.2456 27.9832C66.6455 27.1845 66.9977 26.7367 67.298 26.6381C67.7975 26.5393 68.1461 26.9881 68.3466 27.9861ZM69.5718 10.1934C69.5702 11.3896 69.1683 11.9876 68.3688 11.9865C67.9677 11.9859 67.5674 11.7353 67.1693 11.2371C66.868 12.0334 66.4172 12.432 65.817 12.4312C65.2167 12.4303 64.8653 12.031 64.7681 11.2338C64.7691 10.5351 64.77 9.88765 64.7708 9.28989C64.5689 9.58868 64.3693 9.88746 64.1693 10.1859L64.1699 9.73728C64.2689 9.23761 64.72 8.593 65.5233 7.79523C65.2204 9.78808 65.4182 10.7857 66.1194 10.7867C66.6191 10.7874 66.8702 10.4887 66.871 9.89056C66.8714 9.5915 66.7714 8.94463 66.5735 7.94622L67.1749 7.19939C67.3735 7.59929 67.5226 8.29819 67.6222 9.29385C67.6212 9.99029 67.8695 10.3409 68.3711 10.3416C68.6712 10.342 68.8216 10.1411 68.8221 9.74411C68.8222 9.64318 68.6731 8.99624 68.3746 7.79956L68.9765 6.60414C69.3735 7.90114 69.5734 9.09768 69.5718 10.1934ZM68.0458 28.4343C67.6456 27.8352 67.1956 27.6854 66.6958 27.9838C67.2955 28.3816 67.7455 28.5318 68.0458 28.4343ZM81.6937 34.5841C81.6923 35.5792 81.3915 36.079 80.7912 36.0781C80.3901 36.0776 79.9401 35.9278 79.4412 35.6273C77.7343 38.7146 74.5808 40.2056 69.9805 40.1001L69.8305 40.0999L69.8307 39.9508C74.3343 38.8587 77.387 37.3186 78.9914 35.3283C78.49 35.1265 78.2417 34.8271 78.2423 34.4305C78.2427 34.1307 78.3932 33.781 78.6939 33.3836C78.9946 32.9852 79.2433 32.7863 79.4451 32.7865L79.2959 32.1882L79.4461 32.0389C79.6454 32.0392 79.9944 32.2381 80.4958 32.6385L80.4956 32.788C81.2939 33.6863 81.6941 34.285 81.6937 34.5841ZM83.3594 23.82C83.3565 25.9131 83.1036 27.5068 82.6024 28.604L82.3023 28.6036C82.4036 26.4097 82.2567 24.1175 81.8616 21.7248L79.3338 4.82411C79.1334 3.82832 78.9352 3.08038 78.7367 2.58029L79.4899 0.487504L82.0343 5.42562L82.033 6.32281L80.8343 4.97498C80.7331 5.17596 80.6837 5.3744 80.6834 5.57328L83.2124 21.5768C83.3104 22.0745 83.3608 22.8222 83.3594 23.82ZM80.0439 33.8341C80.0442 33.633 79.9434 33.5345 79.7442 33.5342C79.3435 33.5337 79.0428 33.6828 78.8432 33.9816C79.042 34.2809 79.3422 34.4799 79.7428 34.5813C79.7429 34.4804 79.7922 34.3567 79.8934 34.2077C79.9919 34.0583 80.0438 33.932 80.0439 33.8341ZM214.664 28.4882C214.662 29.883 214.335 31.0302 213.683 31.9261C213.031 32.8216 212.305 33.27 211.506 33.2689C210.005 33.2668 208.956 32.3165 208.358 30.423C207.955 32.3152 207.102 33.2628 205.803 33.261C204.603 33.2593 203.802 32.4586 203.406 30.8655C202.601 32.7571 201.2 33.7035 199.2 33.7008C198.499 33.6998 197.925 33.4235 197.475 32.8763C197.026 32.3265 196.801 31.7019 196.802 31.0062C196.803 30.7068 196.803 30.4571 196.803 30.2586C182.691 34.624 168.281 36.7988 153.574 36.7784C146.469 36.7685 139.517 36.1604 132.717 34.9543C126.213 33.9479 121.363 32.5954 118.165 30.8971C118.164 32.2915 118.109 33.6866 118.01 35.0834L117.71 35.083C116.51 34.2825 115.761 33.3353 115.463 32.2388C115.363 31.439 115.289 30.6912 115.241 29.9955C115.19 29.2967 114.566 28.9471 113.366 28.9454C112.264 28.9439 110.386 30.5356 107.732 33.7234C105.076 36.9085 103.047 38.5019 101.648 38.5C100.845 38.4989 100.147 38.1241 99.5482 37.3756C98.9489 36.6271 98.6502 35.6035 98.652 34.3089C98.653 33.6102 98.8042 32.7626 99.1057 31.7675C98.6038 31.9653 98.1043 32.0651 97.6046 32.0644C95.6023 32.0617 94.3049 30.7141 93.7084 28.0217C93.502 31.3111 91.999 32.9539 89.1994 32.95C87.9989 32.9483 87.0994 32.2973 86.5009 31.0023C86.1016 30.004 85.9527 28.8569 86.0555 27.5624C86.0557 27.3617 86.155 26.6654 86.3585 25.4694C86.4585 24.4718 86.5112 23.5747 86.5123 22.778C85.8097 23.7726 85.3086 25.0687 85.0062 26.663C84.8032 27.7592 84.6025 28.8543 84.4014 29.9527C83.9978 31.7465 83.3471 32.642 82.4467 32.6408C81.7455 32.6398 81.146 32.0648 80.6483 30.9187C80.1479 29.7711 79.9012 28.5483 79.903 27.2541C79.9049 25.8571 80.0054 24.3129 80.2096 22.619L80.5095 22.7689C80.4075 23.5654 80.3572 24.3624 80.3561 25.1605C80.3514 28.5485 81.048 30.2463 82.45 30.2483C82.9494 30.249 83.4006 29.5019 83.8038 28.0072C84.5058 25.5151 84.9089 24.0693 85.0104 23.672C85.7117 21.9773 86.6137 20.8331 87.7164 20.2369L87.7137 22.1804C87.309 24.7713 87.1076 26.3669 87.1068 26.965C87.1037 29.156 87.9017 30.2558 89.5033 30.2581C90.5024 30.2595 91.3798 29.861 92.1312 29.0654C92.8827 28.2676 93.2592 27.322 93.2607 26.2259L92.2183 20.393L92.9715 18.3006C93.4695 19.2968 93.7685 20.0961 93.8686 20.694C94.1664 22.3883 94.4124 24.134 94.6117 25.9287C95.2085 28.4204 96.3065 29.6694 97.9081 29.6716C98.9068 29.673 99.6085 29.2751 100.011 28.479C99.5106 27.38 99.0128 26.2836 98.5146 25.1865C97.8159 23.3915 97.4167 21.9939 97.3198 20.9986L96.8711 19.9509L97.4743 17.8583L99.5707 21.1509L99.5696 21.8986C99.2698 21.697 98.97 21.4491 98.6703 21.1497C98.5691 21.348 98.5689 21.4486 98.6698 21.4487C100.065 24.6398 100.763 26.8348 100.762 28.0314C100.759 29.8258 100.357 31.0215 99.5561 31.6189C99.2546 32.6137 99.1035 33.3611 99.1028 33.8613C99.1009 35.2557 99.7989 35.9561 101.201 35.958C102.5 35.9598 104.453 34.3409 107.06 31.1064C109.665 27.8692 111.719 26.253 113.22 26.2551C113.719 26.2558 114.42 26.5558 115.32 27.1548L116.073 25.3611C117.47 27.3559 121.62 29.2047 128.521 30.9107C136.421 32.7157 145.475 33.6255 155.68 33.6396C162.582 33.6492 170.185 33.0616 178.493 31.8769C185.698 30.7886 192.202 29.4518 198.007 27.8666C197.806 28.1654 197.706 28.5125 197.706 28.9129C197.705 29.5114 197.903 30.0582 198.304 30.5578C198.702 31.0563 199.152 31.3067 199.654 31.3074C200.653 31.3088 201.704 30.8104 202.807 29.8164L204.761 27.8763L204.91 28.0261C204.91 28.2246 204.91 28.4235 204.91 28.6246C204.908 30.0186 205.406 30.7187 206.407 30.7201C206.907 30.7208 207.459 30.2733 208.059 29.3766C208.76 28.1813 209.262 27.4837 209.563 27.2849L209.713 27.2851C209.713 27.4836 209.712 27.6825 209.712 27.8836C209.711 28.6802 209.984 29.4028 210.535 30.0529C211.083 30.7004 211.607 31.0264 212.109 31.0271C213.108 31.0285 213.61 30.6299 213.611 29.8325C213.613 28.9361 212.865 27.1407 211.368 24.447C209.77 21.5524 208.922 19.8081 208.824 19.2098C208.723 19.0085 208.573 18.7347 208.375 18.3868C208.174 18.0358 208.075 17.8114 208.075 17.7134L208.529 15.4711L211.526 18.6151L211.525 19.2128L210.175 18.6124L210.175 18.9119C210.973 20.1089 211.771 21.3062 212.57 22.504C213.968 24.9964 214.666 26.9929 214.664 28.4882ZM81.2428 35.032C81.0416 34.831 80.742 34.4822 80.3439 33.984L80.0427 34.7313C80.3426 34.9302 80.6426 35.0312 80.9427 35.0316C81.0414 35.0317 81.1419 35.0319 81.2428 35.032ZM99.1495 0.215721C99.1488 0.715534 98.9461 1.36273 98.5465 2.15881C98.1447 2.95713 97.7428 3.60405 97.3433 4.10107C97.9452 2.90564 98.2466 2.00849 98.2474 1.41073C92.04 3.39726 86.7835 6.32941 82.4778 10.2113C82.4785 9.71147 82.578 9.16469 82.7803 8.56722C84.4824 6.97631 87.0855 5.28347 90.591 3.49357C93.8949 1.80432 96.7477 0.712202 99.1495 0.215721ZM92.798 35.1976C92.7973 35.6952 92.5948 36.1925 92.1957 36.6921C91.9942 36.392 91.7461 36.2429 91.4459 36.2424C90.9443 36.2418 90.5446 36.8879 90.2427 38.1847C90.1404 39.1797 89.9893 40.1773 89.7883 41.1747C89.5875 40.4758 89.0895 39.4283 88.292 38.0325C88.1902 38.6305 87.9388 38.9292 87.5404 38.9286C86.64 38.9274 86.1904 38.4266 86.1918 37.4314C86.1932 36.4337 86.5927 35.9366 87.3945 35.9378C88.194 35.9389 88.992 36.9867 89.7912 39.0809C90.2956 35.4924 91.0484 33.6998 92.0498 33.7012C92.5491 33.7019 92.7994 34.1998 92.798 35.1976ZM93.1289 13.0672C93.1272 14.2635 92.6762 14.861 91.7757 14.8597C91.4756 14.8593 91.0749 14.6086 90.5762 14.1104C90.3733 14.9067 89.9225 15.3057 89.2239 15.3048C88.6237 15.3039 88.2723 14.9038 88.1751 14.107C88.1761 13.4084 88.177 12.7613 88.1778 12.1631C87.9755 12.4619 87.7759 12.7611 87.5763 13.0595L87.5771 12.4614C87.7769 12.0628 88.2279 11.4649 88.9302 10.6688C88.7256 12.6615 88.9261 13.6595 89.5264 13.6603C90.0261 13.661 90.2772 13.3107 90.2782 12.6146C90.2784 12.4135 90.1783 11.8152 89.9805 10.8198L90.5818 10.073C90.8814 10.4708 91.0305 11.1693 91.0291 12.1671C91.1268 12.8633 91.4265 13.2144 91.9281 13.2151C92.2282 13.2155 92.3786 13.0153 92.3791 12.6176C92.3793 12.517 92.2301 11.8697 91.9316 10.673L92.3835 9.47737C92.8811 10.7726 93.1304 11.9689 93.1289 13.0672ZM96.8829 11.4275C96.8812 12.6238 96.6288 13.9692 96.127 15.4639C96.2267 14.6651 96.2794 13.7684 96.2808 12.7729C96.2832 10.9781 95.7341 9.58034 94.6358 8.58367L94.7886 6.63996C95.3882 7.1406 95.8868 7.88896 96.2862 8.88503C96.6832 9.88035 96.8839 10.7288 96.8829 11.4275ZM104.969 23.85C104.967 25.9431 104.762 27.5368 104.363 28.6342L104.062 28.6338C104.164 26.4399 104.017 24.1477 103.622 21.755L101.094 4.85431C100.894 3.85852 100.695 3.11058 100.497 2.61049L101.25 0.517702L103.794 5.45582L103.793 6.35301L102.594 5.00518C102.493 5.20616 102.444 5.4046 102.444 5.60348L104.973 21.607C104.972 22.1046 104.971 22.8522 104.969 23.85ZM114.56 34.1807C114.657 35.078 114.457 35.5757 113.957 35.6752C113.657 35.6748 113.155 35.4737 112.457 35.075C112.056 35.7709 111.454 36.6672 110.653 37.7641C109.45 39.0566 107.949 39.9024 106.147 40.2999L104.946 40.4477C106.246 39.851 107.749 38.9043 109.452 37.6125C110.955 36.4179 111.955 35.272 112.459 34.177C112.859 33.3787 113.159 32.9305 113.361 32.8325C113.86 32.8343 114.261 33.2835 114.56 34.1807ZM113.696 7.41349C113.696 7.81274 113.545 8.26187 113.244 8.75865C112.945 8.45917 112.694 8.30967 112.495 8.30939C111.993 8.30869 111.594 8.95711 111.291 10.2513C111.088 11.3474 110.936 12.3446 110.837 13.2413C110.637 12.5427 110.138 11.5446 109.341 10.2486C109.239 10.7464 108.939 10.9957 108.44 10.995C107.638 10.9939 107.24 10.5451 107.241 9.64752C107.242 8.55145 107.593 8.00315 108.294 8.00412C109.194 8.00537 109.992 9.05358 110.691 11.1476C111.296 7.55969 112.049 5.76634 112.949 5.76759C113.448 5.76828 113.698 6.31779 113.696 7.41349ZM114.135 15.6384L113.082 17.2818C112.481 17.4791 111.829 17.6774 111.13 17.8772C110.028 18.1748 109.479 18.6226 109.478 19.2207C109.975 21.1141 110.224 22.4603 110.223 23.2595C110.22 25.0539 110.167 26.1006 110.069 26.3991C110.07 25.3008 109.871 23.8803 109.474 22.137C109.076 20.391 108.877 19.2692 108.878 18.7717C108.879 17.7739 109.204 17.1273 109.856 16.8291C110.506 16.5309 111.132 16.2817 111.733 16.084C111.232 15.8822 110.834 15.7837 110.533 15.7833C110.632 15.7834 110.332 15.9812 109.633 16.3802L109.783 15.6327C109.983 15.3339 110.209 14.9604 110.46 14.5122C110.709 14.0639 110.986 13.84 111.286 13.8404C111.886 13.8409 112.836 14.4403 114.135 15.6384ZM114.259 34.6292C113.859 34.0302 113.409 33.8804 112.909 34.1784C113.408 34.5765 113.858 34.7266 114.259 34.6292ZM117.416 30.5962C117.116 30.3951 116.666 29.9459 116.066 29.2486C116.066 29.7461 116.189 30.3183 116.439 30.9687C116.687 31.6162 116.963 31.9414 117.263 31.9418C117.363 31.9416 117.415 31.4934 117.416 30.5962ZM194.543 36.9837C194.042 36.983 193.692 36.683 193.494 36.0854C192.791 36.9812 192.141 37.4293 191.541 37.4285C191.34 37.4282 191.017 37.2782 190.566 36.9789C190.117 36.6784 189.84 36.5285 189.742 36.5284C189.24 36.5277 188.29 36.8262 186.889 37.4216C185.086 38.2158 183.634 38.8119 182.534 39.2104C180.331 39.903 177.929 40.2503 175.329 40.2467L175.18 39.9474C177.379 39.9505 179.581 39.5046 181.785 38.6104C182.986 38.2125 184.687 37.4182 186.891 36.2254C188.492 35.3308 189.644 34.883 190.344 34.884C190.543 34.8843 190.844 35.0832 191.244 35.4837C191.642 35.8817 191.993 36.0833 192.293 36.0837C192.692 36.0843 193.143 35.5847 193.647 34.5903L194.097 34.2911C193.995 35.0883 194.245 35.4879 194.845 35.4887C195.146 35.4892 195.447 34.9894 195.748 33.9947L196.048 33.8459C196.045 35.939 195.542 36.985 194.543 36.9837ZM206.436 9.78518C206.436 10.1826 206.233 10.6821 205.833 11.2797C205.534 10.8796 205.283 10.6808 205.084 10.6805C204.582 10.6798 204.183 11.375 203.88 12.7723C203.778 13.6693 203.627 14.6153 203.427 15.6128C203.127 14.9141 202.627 13.916 201.93 12.6201C201.828 13.1179 201.528 13.3672 201.029 13.3665C200.227 13.3654 199.829 12.9166 199.83 12.019C199.832 10.9207 200.183 10.3746 200.883 10.3756C201.783 10.3769 202.582 11.4251 203.28 13.5191C203.885 9.93117 204.638 8.13782 205.538 8.13907C206.139 8.1399 206.438 8.68948 206.436 9.78518ZM205.22 21.2975C205.217 23.0919 204.665 23.9883 203.565 23.9868C202.564 23.9854 202.065 23.4356 202.067 22.3399C202.068 21.6416 202.268 20.7936 202.672 19.7987C203.274 18.6032 203.574 17.9053 203.574 17.7064C203.772 18.5034 203.821 19.0526 203.722 19.3511C204.72 19.951 205.221 20.5988 205.22 21.2975ZM204.769 22.0446C204.369 21.5442 203.769 21.1463 202.97 20.8458C202.669 21.3433 202.518 21.6422 202.518 21.7424C202.517 22.2399 202.867 22.4905 203.567 22.4915C204.067 22.4922 204.468 22.3432 204.769 22.0446ZM212.252 36.2606L211.199 38.6513L208.649 37.3012L209.703 34.9109L212.252 36.2606Z" fill="white"/>
</g>
<defs>
<clipPath id="clip0_441_266">
<rect width="214" height="48" fill="white" transform="translate(0.703613 0.0791016) rotate(0.0795129)"/>
</clipPath>
</defs>
</svg>