<svg width="174" height="174" viewBox="0 0 174 174" fill="none" xmlns="http://www.w3.org/2000/svg">
<path d="M43.5 0C19.4756 0 0 19.4756 0 43.5C0 67.5247 19.4756 87 43.5 87C19.4756 87 0 106.475 0 130.5C0 154.525 19.4756 174 43.5 174C67.5247 174 87 154.525 87 130.5C87 154.525 106.475 174 130.5 174C154.525 174 174 154.525 174 130.5C174 106.475 154.525 87 130.5 87C154.525 87 174 67.5247 174 43.5C174 19.4756 154.525 0 130.5 0C106.475 0 87 19.4756 87 43.5C87 19.4756 67.5247 0 43.5 0Z" fill="white"/>
<path d="M102.95 46.2355C99.6137 47.1727 97.252 49.853 96.7084 53.2643C96.1648 56.8069 98.0954 60.5181 101.301 62.0738C106.268 64.4918 111.966 61.8677 113.353 56.5257C114.515 52.1022 111.778 47.4163 107.355 46.273C106.043 45.9168 104.131 45.9168 102.95 46.2355Z" fill="#239371"/>
<path d="M76.0154 62.1666C74.8533 62.5415 73.7287 63.2725 72.8478 64.1909C71.7794 65.2968 44.3387 104.452 43.6265 105.839C43.1391 106.795 43.0454 107.226 43.0079 108.707C42.8767 112.156 44.3762 114.686 47.4502 116.148L48.6872 116.729L77.7399 116.786C99.52 116.823 107.055 116.786 107.823 116.617C110.148 116.13 112.078 114.574 113.128 112.362C113.69 111.181 113.728 110.975 113.728 109.044C113.709 107.32 113.653 106.833 113.315 106.083C112.753 104.883 84.9374 65.2406 83.8503 64.0972C83.3629 63.5911 82.4445 62.9351 81.7885 62.5977C80.7014 62.0729 80.3827 61.9979 78.6958 61.9604C77.4775 61.9229 76.5215 61.9979 76.0154 62.1666Z" fill="#239371"/>
<path d="M112.059 81.4912C111.666 81.6225 111.047 81.9786 110.672 82.2785C110.054 82.7846 105.387 89.1761 105.387 89.5135C105.387 89.5885 107.561 92.7562 110.204 96.5236C112.847 100.31 115.246 103.815 115.527 104.358C116.614 106.327 116.952 109.363 116.352 111.631C116.014 112.924 115.133 114.705 114.421 115.548C113.222 116.973 112.209 116.842 123.306 116.786C133.127 116.729 133.221 116.729 133.989 116.317C135.002 115.773 136.182 114.424 136.464 113.487C136.82 112.287 136.745 110.656 136.257 109.663C136.033 109.194 131.722 102.915 126.661 95.7364C119.707 85.821 117.308 82.5409 116.727 82.1473C115.377 81.2288 113.54 80.9664 112.059 81.4912Z" fill="#239371"/>
</svg>
