<svg width="26" height="53" viewBox="0 0 26 53" fill="none" xmlns="http://www.w3.org/2000/svg">
<path d="M0.245147 0.178438L0.0371435 0.356727L0.0148574 3.50649L0 6.64883L2.97891 9.4346C4.61322 10.9649 5.98753 12.2352 6.02467 12.2426C6.06925 12.2649 6.09153 10.9426 6.07668 8.71401L6.05439 5.16309L5.85382 4.74709C5.68295 4.40537 5.29666 4.00422 3.44692 2.25847C2.22861 1.12188 1.16631 0.148724 1.08459 0.0967226C0.832014 -0.0518513 0.475437 -0.0147085 0.245147 0.178438Z" fill="#239371"/>
<path d="M22.6792 2.31767C20.1683 4.83599 20.0568 4.97714 19.9083 5.92059C19.8637 6.18059 19.834 11.1504 19.834 18.4899V30.6359L20.8443 32.2182C21.4014 33.0873 21.8843 33.8228 21.9214 33.8451C21.9586 33.8673 21.9883 28.593 21.9883 21.246V8.6172L22.902 8.02291L23.8083 7.43604L23.8455 22.1597L23.8826 36.8834L24.8855 38.4211C25.4352 39.268 25.9107 39.9663 25.9478 39.9663C25.9775 39.9663 25.9998 31.0742 25.9998 20.1985V0.430775L25.7844 0.215343C25.6209 0.0519142 25.4947 -8.7738e-05 25.2792 -8.7738e-05C25.0044 -8.7738e-05 24.9152 0.0816269 22.6792 2.31767ZM24.1723 2.57024C24.3358 2.99368 24.1203 3.5434 23.6821 3.84798C23.5112 3.96684 23.1843 4.25656 22.9763 4.47942C22.5826 4.89542 22.5826 4.89542 22.5826 5.37829C22.5826 5.64572 22.6049 5.86858 22.642 5.86858C22.6717 5.86858 22.9986 5.60115 23.3626 5.27429C23.7341 4.94743 24.0535 4.67999 24.0758 4.67999C24.1798 4.67999 24.2169 5.20743 24.1426 5.48972C24.0832 5.72001 23.9421 5.89087 23.5706 6.21773C23.2958 6.45545 22.7906 6.9086 22.4489 7.22061C22.0997 7.54004 21.7877 7.77776 21.7506 7.75547C21.7209 7.73319 21.6912 7.51775 21.6912 7.26518C21.6912 6.83432 21.6986 6.8046 22.0255 6.48516L22.3597 6.1583L22.3449 5.252C22.3226 4.3977 22.3375 4.32341 22.5232 3.93712C22.746 3.4914 23.11 3.09768 23.6672 2.71139C24.0906 2.42167 24.1129 2.41424 24.1723 2.57024Z" fill="#239371"/>
<path d="M0 11.5891V14.9394L2.5109 17.4057C3.88521 18.7652 5.25952 20.1023 5.55667 20.3846L6.09153 20.8972V17.3983V13.8994L3.11262 11.0913C1.47831 9.54617 0.11143 8.26843 0.0668583 8.261C0.0297148 8.24615 0 9.50902 0 11.5891Z" fill="#239371"/>
<path d="M0 27.6647V38.4809H1.48574H2.97891L2.95662 37.4186L2.93434 36.3637L2.54804 36.3414L2.15432 36.3191V28.467V20.6149L3.04577 21.5063L3.93721 22.3978V30.4505V38.5032L7.57727 38.466C10.1476 38.4363 11.247 38.3992 11.3213 38.3397C11.3808 38.2877 12.3391 36.8317 13.4534 35.086C14.5751 33.3477 15.5334 31.9065 15.578 31.8916C15.8751 31.7802 16.0237 31.9585 17.2197 33.8305C17.9106 34.9151 18.4232 35.7991 18.4232 35.8957C18.4232 35.9923 18.386 36.1111 18.334 36.1631C18.2152 36.282 17.1529 36.282 16.9969 36.1557C16.9374 36.1111 16.6923 35.7917 16.4546 35.45C16.0386 34.8483 15.8603 34.722 15.5483 34.7814C15.3848 34.8111 14.7088 35.7768 14.7088 35.9848C14.7088 36.1928 15.9568 38.2432 16.1648 38.3843C16.306 38.4735 16.7666 38.4883 19.1438 38.466C20.6889 38.4512 22.0112 38.414 22.0855 38.3769C22.2489 38.2952 22.3307 37.9832 22.2341 37.7454C22.1969 37.6414 20.7929 35.4203 19.1289 32.8128C16.9671 29.4327 16.0386 28.0436 15.9123 27.999C15.7934 27.9544 15.6746 27.9619 15.5483 28.0213C15.422 28.0881 14.4934 29.4476 12.7699 32.0848C11.351 34.2614 10.1327 36.1037 10.0659 36.1706C9.96931 36.2746 9.70188 36.2894 8.18642 36.2969C7.22069 36.3043 6.36639 36.2969 6.29954 36.2746C6.17325 36.2448 6.16582 35.97 6.16582 31.9139C6.16582 29.5293 6.14353 26.4761 6.11382 25.1315L6.06925 22.6726L3.09777 19.7829C1.46345 18.2005 0.0965731 16.8857 0.0594296 16.8782C0.0297148 16.8634 0 21.7143 0 27.6647Z" fill="#239371"/>
<path d="M0.0445722 40.6129C0.274862 42.6187 1.1143 44.8696 2.22861 46.5039C4.13778 49.2822 7.14641 51.2731 10.4373 51.9268C11.4773 52.1348 13.5574 52.2091 14.6123 52.0754C18.4157 51.6074 21.7364 49.5422 23.8907 46.3182C24.6261 45.2187 25.4804 43.3392 25.4804 42.8415C25.4804 42.6632 24.0021 40.3306 23.861 40.2786C23.809 40.2638 23.7718 40.3306 23.7718 40.4643C23.7718 40.5758 23.6901 41.0289 23.5935 41.4598C22.6501 45.605 19.3815 48.7919 15.1323 49.7131C14.1145 49.9285 11.9676 49.9508 10.9722 49.7502C6.50754 48.8439 3.16463 45.5159 2.29547 41.0958L2.13204 40.2638H1.0623H0L0.0445722 40.6129Z" fill="#239371"/>
</svg>
