<svg width="182" height="186" viewBox="0 0 182 186" fill="none" xmlns="http://www.w3.org/2000/svg">
<path d="M143.576 28.6512C116.994 30.017 109.702 6.76743 87.3065 1.32419C63.4565 -4.47526 52.692 9.95356 50.1431 21.7508C48.1783 30.8449 44.0484 34.7924 33.1639 37.3211C25.4059 38.7409 18.5316 42.7628 20.3322 53.7946C22.1328 64.8264 18.4831 71.4134 13.0501 75.3597C7.61713 79.3067 2.54834 84.9099 0.765592 92.2095C-2.25397 104.566 3.8844 117.508 15.1977 123.246C27.9107 129.557 34.7384 136.466 33.8455 150.795C33.6223 154.376 35.1204 173.429 53.2971 167.67C57.8878 166.215 76.8789 156.406 88.4036 174.612C91.2731 179.145 98.3789 183.606 104.872 185.186C122.285 189.419 140.087 176.614 141.855 158.982C143.772 145.936 146.151 139.819 160.289 144.375C174.277 148.884 182.648 129.461 174.821 119.497C163.958 108.267 176.921 88.0712 181.037 71.2191C186.664 48.1844 166.779 26.1425 143.576 28.6512Z" fill="white"/>
<path d="M89.5692 34.8984L88.2944 36.1732L86.7902 34.9749C85.3114 33.8021 85.2859 33.8021 84.878 34.2865C84.6485 34.567 84.1131 35.2298 83.6797 35.7653L82.8639 36.7341L81.2831 35.6633C80.4163 35.0769 79.6769 34.6434 79.6514 34.6944C79.6004 34.7199 79.1925 35.3318 78.7081 36.0457C78.2236 36.7341 77.7647 37.397 77.6882 37.5245C77.6117 37.6519 76.8214 37.397 75.98 36.9635C75.1132 36.5301 74.3228 36.1732 74.2208 36.1732C74.1188 36.1732 73.6344 36.8616 73.1755 37.7029C72.7166 38.5443 72.2322 39.2327 72.1302 39.2327C72.0027 39.2327 71.2633 38.9522 70.473 38.5953C69.6826 38.2383 68.9687 37.9579 68.8922 37.9579C68.8157 37.9579 68.4333 38.6973 68.0254 39.6151C67.6174 40.5329 67.1075 41.2723 66.9291 41.2723C66.7251 41.2723 66.0622 41.0938 65.4758 40.8899C63.6656 40.2525 63.5381 40.329 63.0027 42.0882C62.4673 43.8729 62.4163 43.8984 59.8158 43.4904L58.643 43.2865L58.4645 44.1278C58.3625 44.5868 58.184 45.4026 58.0311 45.9635L57.8016 46.9579L55.9149 46.7794L54.0538 46.6009L53.8243 48.4621L53.6203 50.3233L51.6572 50.3998L49.6685 50.4763V52.3374V54.2241L47.7563 54.4026L45.8441 54.5811L46.0226 56.4422C46.1756 58.4819 46.2776 58.3799 44.3144 58.7368C42.2748 59.1193 42.3767 58.8643 42.9376 62.0768C43.0906 62.8671 43.0906 62.8926 41.2804 63.4281C40.2861 63.734 39.4702 64.0399 39.4702 64.0909C39.4702 64.1674 39.6742 65.0088 39.9546 65.9521L40.4391 67.6858L38.9858 68.2467C36.7677 69.1136 36.8187 69.0116 37.5326 70.8983C38.2464 72.8105 38.2974 72.7085 36.2323 73.7538C35.4929 74.1107 34.881 74.4677 34.881 74.4932C34.881 74.5442 35.2379 75.2835 35.6459 76.1504C36.0793 77.0172 36.4107 77.8076 36.4107 77.8586C36.4107 77.9351 35.7479 78.4195 34.932 78.9294C34.1416 79.4393 33.4278 79.8728 33.4023 79.9238C33.3513 79.9492 33.7082 80.5866 34.1671 81.3515C34.6515 82.0909 35.1105 82.8303 35.187 82.9832C35.2889 83.1107 34.728 83.7481 33.9632 84.36C33.1983 84.9464 32.5864 85.5583 32.5864 85.6858C32.5864 85.8132 33.0708 86.5526 33.6572 87.343L34.7535 88.7707L33.3768 89.969L32 91.1928L32.5354 91.9067C32.8159 92.3146 33.4023 92.9775 33.8357 93.3855L34.6006 94.1248L33.4787 95.4506C32.8414 96.19 32.3314 96.9039 32.3314 97.0568C32.3314 97.1843 32.9178 97.8217 33.6317 98.4591L34.9575 99.5809L33.8867 101.162C33.2748 102.028 32.8414 102.793 32.8923 102.819C32.9178 102.87 33.6062 103.354 34.4221 103.941L35.8498 104.986L34.9575 106.669C34.4731 107.612 34.1161 108.402 34.1416 108.428C34.1926 108.479 34.9065 108.861 35.7224 109.32C36.5127 109.779 37.1756 110.264 37.1756 110.366C37.1756 110.493 36.8952 111.258 36.5382 112.048C36.1813 112.839 35.9008 113.578 35.9008 113.68C35.9008 113.782 36.6147 114.19 37.5071 114.572C38.3739 114.955 39.1388 115.312 39.1898 115.363C39.2153 115.388 39.0113 116.179 38.7054 117.096C38.1954 118.677 38.1954 119.289 38.7054 119.289C38.8328 119.289 39.5722 119.519 40.3116 119.799L41.6884 120.309L41.3569 121.788C40.8215 124.082 40.796 124.031 42.7847 124.516L44.5949 124.949L44.4419 126.147C44.3399 126.785 44.2124 127.626 44.1614 128.009C44.0085 128.748 44.0849 128.773 46.66 129.13L47.8838 129.283V131.145V133.006L49.796 133.184L51.7081 133.363V134.943C51.7081 137.136 51.8101 137.213 53.9263 137.009L55.6855 136.83L55.9659 138.666C56.1189 139.66 56.2974 140.527 56.3484 140.603C56.3994 140.654 57.2407 140.578 58.184 140.425C60.1982 140.094 60.1472 140.068 60.6316 142.133C60.8356 142.898 61.0651 143.586 61.167 143.663C61.2945 143.739 62.0594 143.612 62.9007 143.382C63.7166 143.178 64.507 143 64.6345 143C64.7619 143 65.1444 143.739 65.4503 144.657C65.7818 145.601 66.1897 146.314 66.3937 146.314C66.5976 146.314 67.337 146.085 68.0764 145.805C68.8157 145.524 69.5041 145.295 69.6061 145.295C69.7081 145.295 70.167 146.009 70.6004 146.901C71.0339 147.768 71.4418 148.507 71.4673 148.558C71.5183 148.609 72.2577 148.278 73.099 147.844C73.9659 147.411 74.7817 147.13 74.9092 147.207C75.0367 147.283 75.4956 147.972 75.929 148.737C76.3625 149.501 76.8469 150.139 76.9744 150.139C77.1018 150.139 77.6372 149.858 78.1726 149.552C80.2633 148.227 80.1103 148.201 81.3596 149.884L82.4814 151.388L84.0112 150.266L85.5664 149.144L86.8922 150.547L88.1924 151.924L89.6202 150.674L91.048 149.399L92.4757 150.7L93.878 152L95.1783 150.547L96.453 149.093L97.0904 149.552C97.4474 149.833 98.1358 150.343 98.6457 150.725L99.5635 151.414L100.66 149.96C101.272 149.144 101.782 148.456 101.807 148.405C101.833 148.38 102.572 148.762 103.413 149.272C104.28 149.756 105.071 150.113 105.198 150.037C105.326 149.96 105.81 149.272 106.294 148.482C106.753 147.717 107.263 147.13 107.416 147.181C107.544 147.232 108.334 147.589 109.124 147.946L110.603 148.609L111.394 147.003C111.827 146.136 112.235 145.371 112.286 145.32C112.311 145.295 113.102 145.499 114.02 145.805C114.937 146.111 115.779 146.289 115.906 146.212C116.034 146.136 116.34 145.422 116.62 144.632C116.875 143.841 117.232 143.153 117.385 143.077C117.538 143.026 118.379 143.153 119.221 143.357C120.062 143.586 120.801 143.765 120.878 143.765C120.929 143.765 121.209 142.949 121.464 141.955L121.923 140.17L123.351 140.323C124.116 140.399 124.983 140.501 125.263 140.527C125.671 140.578 125.773 140.348 125.952 139.303C126.385 136.601 126.181 136.805 128.323 137.009L130.235 137.187V136.193C130.235 135.657 130.311 134.79 130.388 134.281L130.541 133.337L132.453 133.159L134.365 132.98L134.263 131.145L134.187 129.283L135.92 129.028C136.889 128.875 137.731 128.697 137.807 128.62C137.883 128.569 137.833 127.703 137.705 126.708L137.476 124.924L139.26 124.49C140.255 124.261 141.096 124.031 141.147 124.006C141.172 123.98 141.019 123.164 140.815 122.221C140.586 121.278 140.51 120.411 140.612 120.309C140.714 120.207 141.529 119.875 142.396 119.57L143.951 118.983L143.467 117.581C142.753 115.465 142.779 115.388 144.614 114.521L146.246 113.782L145.507 112.023C145.099 111.079 144.793 110.264 144.818 110.238C144.869 110.213 145.558 109.805 146.374 109.32C147.164 108.861 147.827 108.351 147.827 108.224C147.827 108.096 147.495 107.383 147.062 106.618C146.654 105.878 146.297 105.164 146.297 105.062C146.297 104.935 146.934 104.4 147.699 103.864C148.464 103.354 149.102 102.819 149.102 102.691C149.102 102.589 148.643 101.85 148.107 101.06L147.113 99.6319L148.413 98.4336C149.153 97.7707 149.79 97.2098 149.841 97.1843C149.892 97.1588 149.612 96.6999 149.204 96.19C148.796 95.7056 148.235 94.9917 147.954 94.6602L147.47 94.0483L148.668 92.8246C149.331 92.1617 149.866 91.4988 149.866 91.3458C149.866 91.2183 149.306 90.5299 148.617 89.8671L147.342 88.6178L148.515 87.1135L149.688 85.6348L148.949 85.0739C148.541 84.7424 147.878 84.1815 147.47 83.8246L146.73 83.1617L147.699 81.581C148.311 80.6121 148.592 79.9238 148.439 79.8218C148.286 79.7198 147.572 79.2609 146.858 78.7764C146.119 78.3175 145.532 77.8841 145.532 77.8331C145.532 77.7566 145.889 77.0427 146.297 76.2014C146.73 75.36 147.062 74.6207 147.062 74.5697C147.062 74.4932 146.374 74.0597 145.532 73.6008C144.691 73.1419 144.002 72.632 144.002 72.4535C144.002 72.275 144.232 71.5357 144.512 70.8218C144.818 70.0824 144.997 69.3685 144.92 69.1901C144.869 69.0116 144.104 68.6292 143.263 68.2977C142.396 67.9918 141.708 67.6858 141.708 67.6093C141.708 67.5583 141.886 66.768 142.116 65.8501C142.371 64.9068 142.447 64.0909 142.32 63.989C142.192 63.887 141.402 63.581 140.535 63.3516L138.98 62.8926L139.184 61.6944C139.311 61.057 139.464 60.2156 139.515 59.8332C139.643 59.1703 139.592 59.1448 138.189 58.8643C135.691 58.3544 135.869 58.5584 136.022 56.4677L136.175 54.5811L134.212 54.4026L132.274 54.2241V52.3374V50.4508H130.388H128.476L128.323 48.972C128.042 46.4734 128.144 46.5754 126.054 46.7794L124.192 46.9324L123.835 45.1987C123.402 43.2355 123.529 43.2865 120.903 43.6944L119.629 43.8729L119.144 42.2921C118.889 41.4253 118.532 40.6604 118.354 40.5839C118.175 40.5074 117.41 40.6349 116.62 40.8644C115.855 41.0938 115.141 41.2723 114.988 41.2723C114.861 41.2723 114.453 40.5329 114.045 39.6151C113.663 38.6973 113.306 37.9579 113.255 37.9579C113.204 37.9579 112.413 38.2638 111.495 38.6208C110.578 39.0032 109.787 39.2582 109.736 39.2072C109.685 39.1562 109.277 38.4423 108.818 37.6264C108.385 36.8361 107.875 36.1732 107.722 36.1732C107.544 36.1732 106.855 36.5301 106.141 36.9381C105.453 37.346 104.79 37.7029 104.688 37.7029C104.586 37.7029 104.025 37.0145 103.464 36.1477L102.394 34.618L101.731 35.0514C101.348 35.2808 100.634 35.7653 100.15 36.0967L99.2576 36.7086L97.9828 35.2553L96.6825 33.8276L95.2038 35.0259L93.725 36.2497L92.3992 34.9239C91.6854 34.21 91.0225 33.6236 90.9715 33.6236C90.895 33.6236 90.2576 34.1845 89.5692 34.8984ZM97.5239 41.9097C120.929 44.9692 139.031 63.3006 141.963 86.9096C142.498 91.3968 142.243 97.7452 141.3 102.589C137.399 122.654 121.515 138.717 101.476 142.873C91.8128 144.887 81.7675 144.071 72.6401 140.552C48.2407 131.119 34.8045 104.782 41.5354 79.5413C45.9461 62.9436 58.592 49.5074 74.8582 44.1278C77.7902 43.1335 82.2775 42.1392 84.98 41.8332C88.2944 41.4508 94.2604 41.5018 97.5239 41.9097Z" fill="#239371"/>
<path d="M87.657 45.8877C75.3425 47.2645 64.4049 52.2871 57.2916 59.8084C51.0707 66.4117 46.6089 75.0803 44.8242 84.0037C44.0339 87.9301 43.8554 94.6354 44.4163 98.6383C45.2322 104.171 46.456 108.199 48.7761 113.094C56.2718 128.8 70.6768 138.641 87.7334 139.661C98.1612 140.273 107.748 137.927 116.085 132.726C122.306 128.851 128.17 122.757 131.866 116.307C138.342 105.012 139.847 90.5306 135.818 78.2672C132.555 68.3239 125.416 58.9925 116.595 53.1795C107.799 47.392 97.4983 44.7914 87.657 45.8877ZM100.022 48.9217C105.58 50.0945 111.572 52.7206 116.212 55.984C119.374 58.2276 125.263 64.1171 127.507 67.2786C129.572 70.2361 132.529 76.0236 133.524 79.1596C136.762 89.2559 136.073 101.086 131.611 111.208C128.628 117.989 123.223 124.567 116.977 129.055C114.223 130.992 108.997 133.695 105.733 134.817C98.6966 137.239 90.2575 137.978 83.1952 136.754C65.4247 133.72 51.3511 119.698 47.3738 101.06C46.9659 99.1482 46.7874 97.236 46.6854 93.5391C46.5579 89.1794 46.6344 88.1595 47.1188 85.253C48.5211 76.9669 51.9885 69.9046 58.0055 63.0973C65.3992 54.7602 74.5012 50.1965 87.2745 48.4373C90.2065 48.0294 97.0904 48.2843 100.022 48.9217Z" fill="#239371"/>
<path d="M86.3823 51.7238C79.3455 52.6927 72.8696 55.0638 67.49 58.6332C64.4815 60.6473 59.6118 65.4915 57.2662 68.8059C54.0283 73.3442 51.6317 78.9022 50.3824 84.6897C49.898 86.9079 49.8215 88.0807 49.8215 92.6444C49.796 97.2081 49.898 98.4064 50.3569 100.676C53.5184 115.641 63.6147 127.268 77.4588 131.882C82.6344 133.616 84.7761 133.922 91.3539 133.922C96.5296 133.922 97.5239 133.871 99.895 133.361C108.564 131.449 116.187 127.064 121.898 120.613C127.991 113.755 131.484 105.418 132.325 95.7803C133.345 83.7974 129.164 72.3753 120.546 63.7068C114.759 57.8683 108.105 54.1459 100.277 52.3357C97.6514 51.7493 96.5551 51.6473 92.6287 51.5709C90.1047 51.5454 87.3001 51.5964 86.3823 51.7238ZM88.9573 58.4802C88.1925 60.1119 88.269 62.33 89.0593 61.2337C89.6967 60.3414 90.6146 61.4632 90.1811 62.636C90.0282 63.0184 89.7477 63.1969 89.3398 63.1969C87.5041 63.1969 87.3001 59.2706 89.0083 57.1034C89.5437 56.466 89.4928 57.3074 88.9573 58.4802ZM101.119 59.806C102.725 64.0127 103.898 71.33 103.668 75.6898C103.541 77.6274 103.413 78.1373 102.572 79.7436C102.037 80.7379 101.654 81.6303 101.731 81.6812C101.858 81.8087 106.371 82.2931 107.518 82.3186H108.13L107.952 79.6926C107.875 78.2648 107.544 75.6643 107.263 73.9306C106.983 72.1714 106.804 70.4122 106.881 70.0042C107.008 69.3923 109.226 66.0014 109.507 66.0014C109.736 66.0014 110.17 67.6841 110.858 71.075C111.266 73.1147 111.776 75.3073 111.98 75.9192C112.26 76.6841 112.388 77.9589 112.388 79.9475C112.388 83.262 112.235 83.058 115.243 83.5934C117.105 83.9249 118.507 84.3838 118.507 84.6642C118.507 85.2251 117.334 87.1628 116.85 87.3668C116.518 87.5198 115.549 87.7747 114.657 87.9532C112.107 88.4121 111.878 88.6416 111.878 90.6302C111.878 92.2365 111.903 92.2874 112.464 92.109C112.77 92.007 114.275 91.5481 115.779 91.0891C118.303 90.3243 118.507 90.2988 118.073 90.7832C117.436 91.4971 116.161 92.0835 113.841 92.7719L111.852 93.3583L111.929 95.6784L112.005 97.9985L114.045 99.0948C117.818 101.109 118.762 102.613 118.762 106.514C118.736 110.032 117.512 112.964 114.504 116.636C111.776 119.925 107.391 123.035 104.229 123.877C101.042 124.743 96.963 124.616 94.1585 123.571C93.0622 123.163 92.2208 122.602 91.1755 121.556C90.3596 120.741 89.6967 119.899 89.6967 119.67C89.6967 119.338 89.5437 119.262 89.1358 119.364C88.8044 119.44 87.1217 119.797 85.3625 120.154C74.8073 122.296 68.6883 121.149 66.3682 116.61C65.0424 114.035 65.3739 110.389 67.1076 108.197C67.4645 107.712 67.49 107.84 67.5155 109.981C67.541 113.423 68.4333 115.132 70.9064 116.381C72.6911 117.299 75.5721 117.605 78.9121 117.248C81.3086 116.993 86.2803 116.177 87.4021 115.845C87.7081 115.743 87.7845 115.03 87.81 111.588C87.8355 107.126 87.8865 106.794 89.7732 101.874L90.4361 100.166L89.0338 99.0948C87.7845 98.1514 87.4276 97.6925 86.1018 95.041C85.286 93.3838 84.4956 91.9815 84.3681 91.905C84.2407 91.8285 84.0877 92.007 83.9857 92.3384C83.3228 95.0665 77.4588 100.727 72.2067 103.735C64.8129 107.967 60.3512 107.763 58.9744 103.174C57.9546 99.7322 59.3059 94.5056 62.2634 90.4008C63.4617 88.7181 65.6543 86.4744 64.9149 87.6727C61.8809 92.6444 60.8101 95.2194 60.7846 97.7435C60.7081 102.945 64.8639 103.582 71.9772 99.4772C77.3058 96.3922 82.0735 92.4404 83.1953 90.1203C84.7506 86.9334 84.2661 83.7719 80.6458 73.6501C79.7024 71.0495 79.6769 68.4235 80.5693 66.4858L81.1812 65.1346L82.5579 68.4235C85.6684 75.9957 86.5863 79.9475 86.8922 87.1628C87.0962 92.16 87.3511 94.0211 88.0395 95.3214C88.5239 96.2393 90.6656 98.126 91.252 98.126C91.5069 98.126 92.3483 97.3356 93.2151 96.2648C96.1471 92.6954 98.5182 90.9617 104.127 88.2846C105.988 87.4178 107.544 86.6019 107.646 86.4489C107.85 86.1175 106.855 85.9645 102.776 85.6331C99.4361 85.3781 96.0451 85.5311 92.3738 86.143C89.6712 86.6019 89.5437 86.5509 89.0848 85.1996C88.8554 84.5368 88.6769 83.8229 88.6769 83.5679C88.6769 83.0325 90.0537 82.5481 93.2661 81.9362C97.7024 81.0948 99.0281 80.3555 99.793 78.3413C100.354 76.8371 100.15 73.3442 99.2576 69.4688C98.3652 65.568 98.2633 64.5227 98.6202 62.789C99.0026 60.8003 99.946 57.8428 100.175 57.8428C100.277 57.8428 100.711 58.7351 101.119 59.806ZM91.4304 64.2677C91.5069 65.0836 91.4559 65.1855 91.0225 65.0581C90.4361 64.9306 90.2066 65.5425 90.2066 67.1997C90.2066 68.296 89.8752 68.653 89.5947 67.8881C89.5183 67.6586 89.4418 67.2252 89.4418 66.8938C89.4418 66.5878 89.2123 66.0524 88.9319 65.721L88.4474 65.1091L88.4219 65.67C88.4219 66.0014 88.32 66.2564 88.218 66.2564C87.81 66.2564 87.4021 65.619 87.4021 64.9816C87.4021 63.8088 88.4984 63.2734 89.1868 64.0892C89.5692 64.5482 89.9517 64.5737 89.9517 64.1402C89.9517 63.6558 90.5126 63.1714 90.9715 63.2479C91.201 63.2989 91.3794 63.6813 91.4304 64.2677ZM99.64 72.8597C99.64 73.1912 99.2831 73.5226 98.5692 73.8541C96.861 74.6699 86.8667 78.0099 86.6117 77.8314C86.2038 77.6019 86.3823 77.1175 87.0452 76.6331C87.7845 76.0977 98.2123 72.4008 99.0791 72.4008C99.4616 72.3753 99.64 72.5283 99.64 72.8597ZM57.4957 79.9475C57.4192 80.2025 57.1133 80.9674 56.8073 81.6812C56.3229 82.7776 56.2974 83.058 56.5778 83.7209C56.8328 84.3328 56.9093 84.3838 56.9858 84.0268C57.1897 83.262 58.1841 83.5679 58.2861 84.4348C58.4645 85.888 57.1642 86.3979 56.3739 85.1996C55.711 84.2053 55.7875 81.9617 56.5014 80.5849C57.0623 79.5396 57.7506 79.0807 57.4957 79.9475ZM72.6401 81.9107C72.0282 82.6501 71.5948 84.3583 71.8752 85.0467C72.1047 85.6586 72.1557 85.6586 72.4362 85.2761C72.9971 84.5368 73.6854 85.0212 73.5835 86.1175C73.5325 86.8569 73.405 87.0608 72.9206 87.1118C71.0339 87.3923 70.575 84.0523 72.1557 81.5538C72.5891 80.8399 72.7421 80.7634 72.8186 81.1203C72.8696 81.3753 72.7931 81.7322 72.6401 81.9107ZM59.5608 86.8314C59.6373 87.4943 59.5353 87.6472 59.0509 87.7237C58.5155 87.8002 58.4645 87.9532 58.388 89.2535C58.337 90.3498 58.2096 90.7322 57.9546 90.7322C57.6997 90.7322 57.5722 90.4518 57.5722 89.8654C57.5722 89.3809 57.3427 88.7435 57.0623 88.4121L56.5778 87.8002L56.5523 88.3611C56.5523 88.6926 56.4504 88.9475 56.3229 88.9475C55.864 88.9475 55.507 88.1826 55.5835 87.3668C55.6345 86.7039 55.7875 86.4999 56.2464 86.4489C56.5778 86.3979 57.0623 86.5509 57.3427 86.8059C57.8016 87.2138 57.8271 87.1883 58.0821 86.5509C58.4645 85.5311 59.4589 85.7096 59.5608 86.8314ZM124.116 94.1486C124.116 94.1996 123.835 94.888 123.478 95.6784C122.739 97.3356 122.688 97.8455 123.224 98.5339C123.555 98.9928 123.58 98.9928 123.606 98.5594C123.606 98.2279 123.759 98.126 124.192 98.1769C125.289 98.3299 124.983 100.421 123.861 100.421C123.147 100.421 122.586 99.5537 122.408 98.2024C122.306 97.1571 122.382 96.6472 122.918 95.4744C123.275 94.684 123.708 94.0466 123.835 94.0466C123.988 94.0466 124.116 94.0976 124.116 94.1486ZM85.5664 96.6217C85.5919 96.8512 85.388 97.3101 85.1075 97.6925C84.4956 98.4574 69.6826 108.834 69.1982 108.834C69.0197 108.834 68.8158 108.758 68.7138 108.681C68.4843 108.452 69.1472 107.279 69.8611 106.642C71.0339 105.545 84.9545 96.0863 85.2095 96.1628C85.3625 96.2138 85.5154 96.4177 85.5664 96.6217ZM126.003 100.828C126.334 101.67 126.181 102.282 125.671 102.129C125.059 101.976 124.881 102.384 124.881 104.015C124.881 105.622 124.243 105.775 124.039 104.219C123.886 102.996 123.096 101.925 123.096 102.919C123.096 103.225 122.994 103.48 122.867 103.48C122.408 103.48 122.051 102.715 122.127 101.899C122.178 101.236 122.331 101.032 122.79 100.981C123.122 100.93 123.606 101.083 123.835 101.287C124.243 101.67 124.32 101.644 124.575 101.058C124.906 100.344 125.773 100.191 126.003 100.828ZM79.3965 105.29C79.8554 105.571 80.3908 106.055 80.6203 106.387C80.9772 106.973 80.9772 107.1 80.3143 108.528L79.6259 110.032L78.4786 109.701C77.8412 109.523 76.9489 109.038 76.4645 108.63L75.5976 107.916L76.5919 106.208C77.6883 104.372 77.7902 104.321 79.3965 105.29ZM83.1443 109.344C85.1075 110.593 85.133 110.644 84.98 111.46C84.7761 112.48 83.6797 114.188 83.2463 114.188C83.0678 114.188 82.3285 113.78 81.6146 113.296C80.8752 112.811 80.1103 112.404 79.8809 112.404C79.6259 112.404 79.2435 112.888 78.9375 113.576C78.4531 114.698 78.3766 114.749 77.6373 114.596C76.6939 114.392 75.0367 113.602 74.1444 112.939L73.507 112.429L74.1189 110.644C74.8327 108.554 75.0112 108.477 76.7704 109.599C77.4078 110.007 78.3002 110.517 78.7336 110.746L79.524 111.154L80.1868 109.625C80.5693 108.758 80.9262 108.069 81.0027 108.069C81.0792 108.069 82.048 108.656 83.1443 109.344ZM83.4248 124.386C84.3171 125.075 85.1585 125.661 85.3115 125.661C85.4389 125.661 85.9744 125.151 86.4843 124.514C87.0197 123.877 87.5296 123.367 87.6571 123.367C88.014 123.367 90.997 125.661 91.15 126.069C91.2775 126.426 90.4106 128.721 89.9262 129.307C89.7222 129.588 88.3709 128.899 87.1217 127.93C86.6117 127.522 86.0763 127.191 85.9234 127.191C85.7704 127.191 85.235 127.752 84.7251 128.466C84.2152 129.154 83.7307 129.741 83.6542 129.741C83.6033 129.741 82.6854 129.052 81.6401 128.185L79.7534 126.656L80.7222 124.896C81.2322 123.928 81.6911 123.112 81.7421 123.112C81.7676 123.112 82.5324 123.673 83.4248 124.386Z" fill="#239371"/>
<path d="M107.034 90.3271C104.893 91.1175 99.768 94.075 97.4224 95.8852C96.2496 96.7775 95.0513 98.2308 95.0513 98.7407C95.0513 98.9447 98.5952 98.9447 104.153 98.7152L108.538 98.5622L108.615 96.6755C108.666 95.5027 108.589 94.8144 108.436 94.8144C108.284 94.8144 106.907 95.3243 105.377 95.9362C103.822 96.5481 102.522 97.007 102.445 96.9305C102.139 96.6501 104.051 95.3498 105.912 94.5849C107.009 94.126 108.003 93.6671 108.105 93.5651C108.182 93.4886 108.335 92.6472 108.436 91.6784C108.64 89.7917 108.615 89.7407 107.034 90.3271Z" fill="#239371"/>
<path d="M90.9964 103.939C89.3137 107.636 88.9822 109.37 89.3902 112.2C89.5432 113.347 89.7981 114.393 89.9001 114.495C90.1805 114.775 92.2967 114.265 93.648 113.602C95.3307 112.786 96.223 111.971 97.3193 110.313C97.9567 109.345 98.3901 108.886 98.4666 109.115C98.5176 109.319 98.7726 110.084 99.002 110.823C99.2315 111.563 99.6904 112.455 99.9964 112.812C100.634 113.551 102.189 113.985 103.515 113.755C104.407 113.628 104.458 113.577 104.331 112.812C104.229 112.378 103.846 111.333 103.464 110.492L102.724 108.962L103.923 107.738L105.121 106.514L105.605 107.611C105.886 108.248 106.141 109.523 106.217 110.619C106.549 116.279 102.393 118.446 97.4468 115.209C96.9369 114.903 96.8349 114.954 96.07 115.795C95.6111 116.305 95.1267 116.738 94.9482 116.738C94.5403 116.738 92.7556 117.988 92.7556 118.268C92.7556 118.65 95.7386 120.002 97.2938 120.333C98.1352 120.486 99.8434 120.563 101.424 120.512C103.668 120.41 104.458 120.257 106.396 119.517C111.928 117.401 116.288 113.067 116.849 109.039C117.206 106.616 115.804 103.939 113.739 103.073C112.234 102.435 112.234 102.41 112.03 106.03C111.852 110.033 111.622 111.155 110.552 113.347C109.838 114.801 107.62 117.682 107.39 117.452C107.365 117.401 107.645 116.101 108.079 114.571C108.843 111.716 109.328 107.713 109.328 104.22V102.282L104.815 102.129C100.863 101.976 94.4383 101.415 92.8576 101.058C92.4242 100.956 92.1692 101.364 90.9964 103.939Z" fill="#239371"/>
</svg>
