<svg xmlns="http://www.w3.org/2000/svg" width="216" height="155" viewBox="0 0 216 155" fill="none">
<path d="M151.744 0.10269C145.666 1.18692 140.754 5.73743 139.111 11.7829C138.618 13.6228 138.569 17.8119 139.045 19.4875C139.916 22.6252 141.345 25.1058 143.448 27.1429C146.323 29.9356 149.625 31.3648 153.715 31.5948C158.414 31.8412 162.57 30.2149 165.872 26.8307C168.78 23.8409 170.143 20.6374 170.291 16.4484C170.357 14.2963 170.258 14.132 169.88 15.7912C169.782 16.2348 169.387 17.2369 169.01 18.009C167.334 21.4424 163.736 23.6437 159.843 23.6437C154.915 23.6273 150.758 20.2103 149.756 15.3313C149.428 13.7542 149.428 12.8999 149.756 11.3229C150.84 6.0167 155.802 2.41901 161.091 3.07612C162.471 3.25683 164.196 3.84823 165.133 4.45606C165.478 4.68605 165.79 4.86675 165.839 4.86675C166.48 4.86675 163.638 2.61614 161.798 1.66333C159.449 0.447674 157.888 0.0698338 154.997 0.00412369C153.65 -0.0123043 152.171 0.0205517 151.744 0.10269Z" fill="#239371" fill-opacity="0.15"/>
<path d="M83.7818 10.3865C82.1719 10.6494 81.3998 10.8958 80.1842 11.4708C78.2785 12.3743 76.57 14.0828 75.6008 16.0213C75.223 16.777 74.8615 17.6805 74.8123 18.0255C74.7465 18.4362 74.6151 18.6662 74.4673 18.6662C73.9416 18.6662 71.6581 19.5533 70.7382 20.1118C67.0748 22.3296 65.1199 26.8143 65.9412 31.1513C66.6805 35.1432 69.7032 38.3631 73.7609 39.4802C74.7301 39.743 75.7322 39.7759 85.2603 39.7759H95.692L97.0226 39.3159C100.292 38.2152 102.74 35.5868 103.594 32.2848C103.972 30.8392 103.84 28.0136 103.331 26.6008C102.247 23.5288 99.6018 21.1303 96.3984 20.3254C95.3634 20.0625 95.1992 19.9639 95.1499 19.6354C94.7885 16.1198 92.5871 12.9328 89.5151 11.4708C88.7595 11.1094 87.8067 10.748 87.396 10.6494C86.5253 10.4358 84.3732 10.288 83.7818 10.3865Z" fill="#239371" fill-opacity="0.15"/>
<path d="M47.1971 36.2437C45.9815 36.8515 44.8151 38.0672 44.2237 39.3321C43.8459 40.1535 43.7966 40.4821 43.7966 41.9934C43.7801 43.5869 43.813 43.8005 44.2894 44.7862C45.3244 46.9711 47.345 48.351 49.7599 48.5153C50.4991 48.5646 51.0905 48.5646 51.0905 48.5153C51.0905 48.466 50.6634 48.0224 50.1541 47.5132C47.2136 44.7205 46.3757 40.3999 48.0514 36.7694C48.2814 36.2766 48.4621 35.8494 48.4621 35.8166C48.4621 35.6687 48.1335 35.7837 47.1971 36.2437Z" fill="#239371" fill-opacity="0.15"/>
<path d="M145.354 38.018C144.943 38.7243 143.941 40.2193 143.152 41.3364C136.318 51.0781 127.086 59.6698 114.026 68.4094C111.808 69.9043 109.508 71.4814 108.917 71.9249C104.333 75.3912 100.259 80.2046 97.828 85.0343C96.5302 87.6299 95.3803 91.0469 94.8546 93.9875C94.4932 95.9753 94.3617 101.249 94.6082 103.45C95.561 111.877 99.2408 120.896 105.648 130.572L106.699 132.182H116.276C121.533 132.182 125.837 132.149 125.837 132.1C125.837 132.051 125.427 131.18 124.917 130.178C123.653 127.664 122.864 125.841 121.977 123.36C116.145 107.278 117.853 88.862 126.626 73.4527C128.515 70.1507 130.437 67.4237 134.413 62.5282C140.277 55.3 144.122 47.5625 145.781 39.6936C146.339 37.0487 146.372 36.7366 146.241 36.7366C146.175 36.7366 145.781 37.3116 145.354 38.018Z" fill="#239371" fill-opacity="0.15"/>
<path d="M163.687 37.3937C164.081 39.9564 165.297 44.4412 166.348 47.1354C168.664 53.0494 171.638 57.8627 177.076 64.5324C179.392 67.3909 180.92 69.5593 182.661 72.4671C187.129 79.991 189.758 87.5478 190.99 96.6159C191.401 99.6222 191.417 107.688 191.006 110.744C190.053 117.791 188.148 124.067 185.043 130.227C184.55 131.213 184.156 132.051 184.156 132.1C184.156 132.149 188.46 132.182 193.733 132.182H203.294L204.559 130.244C212.724 117.808 216.371 106.341 215.369 96.3531C214.58 88.632 211.065 81.5352 205.101 75.5883C202.818 73.3049 201.339 72.1549 196.247 68.7379C191.269 65.3702 187.129 62.3147 183.745 59.4891C175.909 52.9672 169.322 45.6733 164.919 38.6258C164.328 37.673 163.785 36.8516 163.703 36.7859C163.638 36.7037 163.621 36.983 163.687 37.3937Z" fill="#239371" fill-opacity="0.15"/>
<path d="M154.602 44.0798C154.225 47.9896 153.288 52.2773 151.99 56.1214C151.103 58.7006 150.43 60.3105 148.623 64.0232C146.191 69.0336 145.436 71.1693 144.335 76.114C142.676 83.523 141.937 91.0305 141.937 100.329C141.937 109.692 142.659 118.071 144.351 128.519L144.943 132.182H154.586H164.245L164.689 129.849C165.708 124.477 166.562 117.315 166.923 111.253C167.17 106.982 167.022 95.7124 166.677 91.6055C166.069 84.7222 165.527 81.0752 164.443 76.574C163.342 72.0564 161.978 67.8344 160.007 62.8568C157.855 57.452 156.492 51.998 155.309 44.1291C155.144 43.0941 154.98 42.1906 154.914 42.1085C154.865 42.0428 154.717 42.9299 154.602 44.0798Z" fill="#239371" fill-opacity="0.15"/>
<path d="M48.2154 52.4582C43.8949 58.7008 42.0714 63.4649 41.5458 70.0031C41.2008 74.4222 41.8907 80.0898 43.4021 85.281L43.7964 86.5952H50.3511H56.9222L57.3657 85.0674C57.6121 84.2296 57.99 82.6361 58.22 81.5355C59.9778 73.0423 59.2056 65.1569 55.9858 58.668C55.2465 57.173 50.5975 49.3862 50.4496 49.3862C50.4003 49.3862 49.3982 50.7826 48.2154 52.4582Z" fill="#239371" fill-opacity="0.15"/>
<path d="M144.121 53.2794C142.183 58.8813 138.536 64.7624 133.23 70.8243C129.632 74.9477 127.579 77.9211 125.607 81.8638C120.449 92.1969 119.299 103.45 122.24 114.769C123.357 119.056 125.706 125.907 127.792 130.917L128.334 132.182H136.368C140.787 132.182 144.401 132.133 144.401 132.084C144.401 132.018 144.072 130.819 143.662 129.406C140.787 119.352 139.555 111.894 139.127 101.889C138.7 91.9833 139.686 81.9459 142.265 69.7565C143.218 65.2224 143.711 61.5097 144.335 54.2651C144.434 53.0658 144.351 52.6551 144.121 53.2794Z" fill="#239371" fill-opacity="0.15"/>
<path d="M165.592 53.5915C165.592 54.6265 166.233 61.214 166.595 63.8425C166.775 65.1567 167.12 67.1116 167.334 68.1958C170.077 81.3874 170.849 87.8763 170.849 97.7987C170.849 108.543 169.617 117.496 166.71 127.862C166.167 129.833 165.675 131.607 165.625 131.804L165.56 132.182H173.609H181.675L183.17 128.371C185.634 122.178 187.655 115.721 188.493 111.401C189.216 107.738 189.462 102.152 189.068 98.2423C188.509 92.5911 187.031 87.4657 184.402 82.1595C182.382 78.0854 180.427 75.1612 177.256 71.5635C171.819 65.3703 168.632 60.4748 166.397 54.8893C165.675 53.0987 165.609 52.9837 165.592 53.5915Z" fill="#239371" fill-opacity="0.15"/>
<path d="M40.7409 58.7664C33.4305 62.9883 29.0936 67.2432 27.5658 71.6622C26.0873 75.9499 27.1058 80.6811 30.4899 85.2645L31.5413 86.6772H35.7304C38.0303 86.6772 39.9195 86.6444 39.9195 86.5951C39.9195 86.5458 39.5909 85.5437 39.1802 84.3445C38.7695 83.1453 38.2274 81.2396 37.981 80.1061C37.5867 78.2334 37.5539 77.7405 37.5539 74.4385C37.5539 71.3008 37.6032 70.5944 37.9153 69.1159C38.6546 65.7154 40.0345 62.282 41.8744 59.2757C42.3344 58.52 42.7122 57.8793 42.7122 57.83C42.7122 57.6657 42.3672 57.83 40.7409 58.7664Z" fill="#239371" fill-opacity="0.15"/>
<path d="M57.4976 57.8464C57.4976 57.8957 57.744 58.3229 58.0397 58.7993C60.4217 62.5448 62.0809 67.046 62.5902 71.1201C62.8859 73.4036 62.7216 77.5762 62.2616 79.8597C62.0645 80.8454 61.5388 82.7674 61.0952 84.1145C60.6517 85.4616 60.2903 86.5951 60.2903 86.628C60.2903 86.6608 62.1795 86.6772 64.4794 86.6772H68.6685L69.7198 85.2645C71.0341 83.4903 71.954 81.7653 72.644 79.7776C73.1697 78.2662 73.1861 78.1348 73.1861 75.6706C73.1861 73.2393 73.1697 73.0586 72.6768 71.6951C71.0669 67.1774 66.6971 62.9062 59.436 58.7664C57.7111 57.7807 57.4976 57.6822 57.4976 57.8464Z" fill="#239371" fill-opacity="0.15"/>
<path d="M25.7915 91.7698V96.041H50.1047H74.4178V91.7698V87.4986H50.1047H25.7915V91.7698Z" fill="#239371" fill-opacity="0.15"/>
<path d="M30.0629 122.325V143.189H15.0314H0V148.856V154.524H105.384H210.769V148.856V143.189H210.194H209.619V138.425V133.661H154.996H100.374V138.425V143.189H85.2603H70.1467V122.325V101.462H60.9472H51.7476V122.325V143.189H50.1048H48.462V122.325V101.462H39.2625H30.0629V122.325Z" fill="#239371" fill-opacity="0.15"/>
</svg>