<svg xmlns="http://www.w3.org/2000/svg" width="199" height="162" viewBox="0 0 199 162" fill="none">
  <path fill-rule="evenodd" clip-rule="evenodd" d="M99.5122 0C119.47 0 135.649 16.2221 135.649 36.233C135.649 56.244 119.47 72.4659 99.5122 72.4659C79.5542 72.4659 63.3755 56.244 63.3755 36.233C63.3755 16.2221 79.5542 0 99.5122 0ZM39.1416 186.077C22.9953 174.316 19.416 151.656 31.147 135.467C42.8778 119.278 65.4765 115.689 81.6228 127.452C97.7691 139.213 101.348 161.872 89.6178 178.062C77.8867 194.251 55.2877 197.84 39.1416 186.077ZM167.995 135.467C179.726 151.656 176.147 174.316 160 186.077C143.854 197.84 121.255 194.251 109.524 178.062C97.7933 161.872 101.372 139.213 117.519 127.452C133.665 115.689 156.264 119.278 167.995 135.467ZM1.77842 71.0203C7.94572 51.989 28.3324 41.5738 47.3134 47.7575C66.2945 53.9412 76.6821 74.3825 70.5147 93.4138C64.3474 112.445 43.9606 122.86 24.9797 116.677C5.99863 110.493 -4.38888 90.0523 1.77842 71.0203ZM151.687 47.7575C170.668 41.5738 191.054 51.989 197.222 71.0203C203.389 90.0523 193.001 110.493 174.021 116.677C155.039 122.86 134.653 112.445 128.486 93.4138C122.318 74.3825 132.706 53.9412 151.687 47.7575Z" fill="white"/>
  <path d="M84.5076 13.1838C83.8965 13.7949 83.7763 14.8568 84.2271 15.6281C84.3774 15.8785 84.6578 16.1791 84.8482 16.2993L85.1988 16.5197V17.5415V18.5632L84.6679 18.7335C83.4958 19.1042 82.6643 19.9357 82.2937 21.0977C82.1334 21.6086 82.0933 22.0093 82.0933 23.2214V24.714H81.4923C80.8311 24.714 80.3603 24.8944 80.19 25.2049C80.1399 25.3151 80.0898 25.826 80.0898 26.3469C80.0898 27.2284 80.1099 27.3186 80.3803 27.6792C80.5406 27.8896 80.8712 28.2703 81.1317 28.5207L81.5925 28.9615V32.7481V36.5348H80.1399H78.6874L78.3668 36.8253C78.0362 37.1158 78.0362 37.1258 78.0062 38.2077C77.9861 38.7987 78.0162 39.4098 78.0763 39.5601C78.1364 39.7103 78.6874 40.2413 79.3886 40.7922L80.5907 41.7639V46.6124V51.4609H83.6962H86.8016V49.5576C86.8016 48.1752 86.8417 47.5541 86.9418 47.3237C87.1021 46.923 87.603 46.4922 87.9837 46.4021L88.2742 46.342L88.3243 45.3602C88.3944 43.9277 88.7851 43.4068 89.887 43.2766L90.3779 43.2265L90.438 41.7539C90.4981 40.2813 90.7485 38.6184 91.1092 37.2961C91.2193 36.9054 91.3095 36.5748 91.3095 36.5648C91.3095 36.5448 90.999 36.5348 90.6083 36.5348H89.907V32.7081V28.8813L90.6584 28.11L91.4097 27.3386V26.4371C91.4097 25.9362 91.3596 25.4153 91.2995 25.285C91.1292 24.9044 90.6984 24.714 90.0273 24.714H89.4262L89.3861 23.0311C89.3561 21.4082 89.3461 21.3381 89.0455 20.707C88.5647 19.7153 87.7433 18.994 86.7315 18.6935L86.3007 18.5733V17.5915V16.6198L86.6013 16.5096C87.1923 16.3093 87.5028 16.0088 87.5028 15.6582C87.5028 15.0671 87.1121 14.9369 86.4109 15.2975C85.9401 15.548 85.5895 15.4879 85.299 15.1272C85.0485 14.7966 85.0485 14.426 85.299 14.0453C85.5494 13.6747 85.5494 13.3741 85.319 13.1638C85.0686 12.9334 84.738 12.9534 84.5076 13.1838ZM86.4009 33.7499C87.042 34.0805 87.2023 34.4611 87.2023 35.6031V36.5348H86.7515H86.3107L86.2807 35.6131C86.2506 34.7316 86.2406 34.6815 85.9902 34.5413C85.7498 34.411 85.6997 34.411 85.4592 34.5613C85.2088 34.7316 85.1988 34.7717 85.1988 35.6332V36.5348H84.748H84.2972V35.543C84.2972 34.6915 84.3273 34.5212 84.5276 34.2307C84.7781 33.8501 85.329 33.5295 85.6997 33.5295C85.8399 33.5295 86.1605 33.6297 86.4009 33.7499Z" fill="#239371"/>
  <path d="M104.232 15.5571C103.741 16.8394 103.431 17.9313 103.431 18.3721C103.431 18.5524 103.521 19.0933 103.641 19.5742C103.902 20.6962 103.851 21.0768 103.22 22.8099C102.95 23.5512 102.729 24.1923 102.729 24.2324C102.729 24.2824 103.631 24.3125 104.733 24.3125C105.835 24.3125 106.737 24.2724 106.737 24.2223C106.737 24.1823 106.606 23.8116 106.436 23.4109C105.965 22.2789 105.635 21.1369 105.635 20.6761C105.635 20.4457 105.735 19.8246 105.855 19.2837L106.075 18.322L105.855 17.5106C105.605 16.589 104.823 14.4953 104.713 14.4953C104.683 14.4953 104.463 14.9761 104.232 15.5571Z" fill="#239371"/>
  <path d="M101.778 25.9257C101.287 26.3164 100.065 27.1779 99.073 27.8391C97.5603 28.8609 97.0795 29.2415 96.0677 30.2633C95.3464 30.9846 94.6352 31.8261 94.3046 32.3269C92.4914 35.0718 91.5097 38.2674 91.3394 41.8637L91.2793 43.2461H104.713H118.156V42.7653C118.156 41.7835 117.936 39.8501 117.696 38.658C116.984 35.0918 115.402 32.0965 113.078 29.9127C112.236 29.1313 111.635 28.6806 109.692 27.4183C109.03 26.9876 108.089 26.3164 107.608 25.9257L106.726 25.2145H104.693H102.669L101.778 25.9257Z" fill="#239371"/>
  <path d="M89.4261 44.3685C89.346 44.4486 89.3059 44.9295 89.3059 45.8711V47.2536H88.7049C87.7131 47.2536 87.7031 47.2736 87.7031 49.5576V51.4609H95.056H102.409L102.449 50.4291C102.499 49.217 102.709 48.7061 103.331 48.2954C104.392 47.5942 105.655 47.9348 106.246 49.0768C106.396 49.3673 106.436 49.6578 106.436 50.4592V51.4609H114.049H121.663V49.5175C121.663 47.6142 121.653 47.5641 121.442 47.4138C121.302 47.3137 121.002 47.2536 120.691 47.2536H120.16V45.9413C120.16 45.22 120.11 44.5488 120.06 44.4386C119.95 44.2483 119.679 44.2483 104.753 44.2483C93.0625 44.2483 89.5163 44.2783 89.4261 44.3685Z" fill="#239371"/>
  <path d="M103.721 49.1469C103.441 49.4374 103.431 49.4674 103.431 50.4492V51.4609H104.483H105.534V50.5594C105.534 49.227 105.294 48.8564 104.432 48.8564C104.102 48.8564 103.952 48.9165 103.721 49.1469Z" fill="#239371"/>
  <path d="M167.676 56.1532C166.564 56.5536 165.607 57.4544 165.218 58.4887C164.996 59.0892 164.996 59.3116 164.996 69.2651V79.4299L165.24 79.5967C165.496 79.7858 165.852 79.8192 166.152 79.7079C166.241 79.6746 168.087 77.7172 170.234 75.3707C174.415 70.811 174.415 70.7999 174.982 71.2892C175.105 71.4004 176.851 73.291 178.853 75.493C180.866 77.695 182.578 79.5522 182.678 79.6301C182.945 79.8414 183.546 79.7969 183.79 79.5522C184.013 79.3298 184.013 79.2297 183.991 69.1206L183.957 58.9224L183.668 58.2996C183.257 57.421 182.667 56.8205 181.811 56.3979L181.066 56.0309L174.615 56.0086C169.01 55.9864 168.098 56.0086 167.676 56.1532Z" fill="#239371"/>
  <path d="M159.324 62.4811C157.344 62.7925 155.198 63.5932 153.563 64.6164C152.173 65.4949 151.594 65.962 150.382 67.2076C148.013 69.6432 146.501 72.8349 146.078 76.2491C145.912 77.6171 146.023 80.7755 146.301 82.6327C147.257 88.9941 150.338 95.5778 155.198 101.672C156.61 103.452 158.757 105.787 160.191 107.099C161.848 108.612 161.826 108.612 163.361 107.211C165.618 105.142 168.543 101.772 170.478 98.992C175.294 92.0858 177.807 84.7235 177.651 77.9841L177.618 76.2603L176.35 74.8701C175.65 74.1139 174.949 73.3465 174.782 73.1797L174.482 72.8572L172.458 75.0703L170.445 77.2723V78.2176C170.445 80.6976 169.177 83.3111 167.242 84.8347C166.386 85.5131 165.107 86.1581 164.039 86.4695C162.883 86.7921 160.858 86.8143 159.769 86.5029C154.308 84.9571 151.661 79.1184 154.219 74.214C155.098 72.5347 156.388 71.2557 158.034 70.4439C159.424 69.7544 160.136 69.5987 161.915 69.5987H163.439V65.9509V62.3143L161.859 62.3254C160.981 62.3365 159.846 62.4032 159.324 62.4811Z" fill="#239371"/>
  <path d="M32.3652 50.1713C26.5012 50.9329 21.1322 53.1795 16.4359 56.8096C14.9509 57.9646 12.4251 60.4524 11.1939 61.9755C7.69073 66.3163 5.36798 71.4442 4.37796 77.0289C4.02256 79.009 3.88295 83.7687 4.11141 85.9391C4.65719 91.0035 6.42147 95.9663 9.16307 100.18C10.4069 102.084 11.4985 103.442 13.1993 105.181C18.5175 110.639 25.2319 113.939 32.8729 114.827C34.5737 115.031 38.7115 114.992 40.5519 114.777C50.046 113.596 58.5246 108.278 63.8174 100.18C66.4829 96.1059 68.1837 91.4223 68.7929 86.5357C69.0468 84.4795 69.0468 80.4813 68.7929 78.4124C67.6252 68.9945 62.3197 60.4904 54.3234 55.2357C50.1475 52.4941 45.502 50.7933 40.5519 50.1713C38.6226 49.9429 34.1929 49.9429 32.3652 50.1713ZM40.298 54.7534C52.6733 56.3653 62.4974 66.1767 64.2236 78.6663C64.4521 80.3798 64.4901 83.9845 64.2871 85.5457C63.589 90.9019 61.4439 95.9409 58.1692 99.9645C53.4983 105.676 46.9743 109.294 39.5365 110.284C37.9626 110.487 34.396 110.449 32.6825 110.207C20.1422 108.443 10.5085 98.7967 8.75691 86.2818C8.52844 84.5683 8.49036 80.9636 8.69344 79.4024C9.12499 76.1404 10.0135 73.145 11.4224 70.3145C14.2528 64.6155 18.6318 60.2366 24.3054 57.4188C29.3443 54.9184 34.7006 54.0299 40.298 54.7534Z" fill="#239371"/>
  <path d="M22.8201 65.5803C21.5 66.0627 20.4212 67.0527 19.7611 68.3854L19.4184 69.0835L19.3804 75.836L19.3423 82.6011H25.8028C31.7683 82.6011 32.3395 82.6138 33.2153 82.8423C35.2207 83.3627 36.2742 84.1242 38.3939 86.5993C40.082 88.5793 40.7293 89.1251 41.8082 89.4551C42.5571 89.6963 42.9759 89.709 48.1164 89.709H53.625L53.5996 79.3899L53.5616 69.0835L53.1935 68.3219C52.7112 67.3446 51.6196 66.253 50.6423 65.7707L49.8807 65.4026L36.6804 65.3773C24.0639 65.3519 23.4547 65.3519 22.8201 65.5803ZM45.3367 70.2004C46.0983 70.4797 46.8218 71.1143 47.2026 71.8251C48.1037 73.4751 47.431 75.506 45.7048 76.4198C45.0194 76.7752 43.4836 76.8006 42.8744 76.4706C41.2878 75.6202 40.577 73.9575 41.0847 72.2947C41.2878 71.5966 42.1382 70.6955 42.8998 70.3401C43.6106 70.0101 44.6387 69.9466 45.3367 70.2004Z" fill="#239371"/>
  <path d="M19.3804 90.7489L19.4184 95.8641L19.7865 96.6256C20.2688 97.603 21.3604 98.6945 22.3377 99.1768L23.0993 99.5449H36.49H49.8807L50.6423 99.1768C51.6196 98.6945 52.7111 97.603 53.1808 96.6256C53.5108 95.9402 53.5616 95.7118 53.5996 94.3029L53.6504 92.7544H48.1545C42.1001 92.7544 41.5797 92.7036 40.0693 91.9928C38.8381 91.409 38.1273 90.8378 36.8454 89.3528C34.5226 86.6492 34.0276 86.205 32.8091 85.8496C32.2253 85.6719 31.1972 85.6465 25.7394 85.6465H19.3423L19.3804 90.7489Z" fill="#239371"/>
  <path d="M57.2656 128.133C55.1452 128.824 53.7163 130.484 53.3821 132.616C52.9903 135.151 54.5114 137.698 56.9545 138.608C57.8879 138.954 59.7548 138.954 60.6882 138.608C63.1313 137.698 64.6524 135.151 64.2606 132.616C63.9725 130.772 62.8547 129.262 61.1722 128.467C60.3079 128.052 60.1927 128.029 58.9942 128.006C58.176 127.983 57.5653 128.029 57.2656 128.133ZM60.3655 130.207C62.025 131.014 62.8086 132.984 62.1633 134.678C61.8521 135.508 61.1031 136.303 60.2503 136.695C58.0493 137.698 55.4218 136.107 55.272 133.676C55.2144 132.8 55.3757 132.178 55.8597 131.475C56.9084 129.93 58.7407 129.412 60.3655 130.207Z" fill="#239371"/>
  <path d="M52.7715 140.787C51.2158 141.075 49.4641 142.389 48.7151 143.829C47.9891 145.201 47.9891 145.201 47.9891 152.576V159.26L48.2657 159.836C48.7727 160.942 49.9136 161.737 51.0199 161.737H51.5615V166.405V171.06L51.0775 171.187C47.6088 172.051 44.4513 173.768 43.1606 175.474C41.7201 177.387 41.6164 179.507 42.8725 181.386C44.6702 184.094 49.1991 186.133 54.8919 186.802C56.7818 187.032 60.8612 187.032 62.7511 186.802C67.764 186.214 71.8895 184.578 73.9984 182.331C75.2545 180.982 75.7155 179.864 75.6233 178.32C75.5541 177.076 74.9895 175.935 73.9293 174.886C72.339 173.296 70.403 172.305 66.8075 171.233C66.6923 171.198 66.6577 170.15 66.6577 166.462V161.737H67.0956C67.7871 161.737 68.9049 161.127 69.3658 160.481C70.0572 159.536 70.0572 159.559 70.0572 152.288V145.662L69.7576 144.843C69.193 143.288 68.1789 142.101 66.8075 141.363C65.5053 140.672 65.2288 140.649 58.9944 140.66C55.8944 140.672 53.0942 140.718 52.7715 140.787ZM65.4131 142.815C66.289 143.172 67.2685 144.071 67.7294 144.959L68.0982 145.662L68.1328 152.196C68.1673 159.433 68.1904 159.202 67.4298 159.663C66.6923 160.113 66.6808 160.089 66.6347 158.153C66.6001 156.483 66.5886 156.402 66.3235 156.194C65.9778 155.918 65.3786 155.918 65.0329 156.194L64.7563 156.413L64.6987 167.004L64.641 177.583L64.3875 177.928C63.9611 178.528 63.5693 178.827 63.0047 178.966C61.9906 179.219 60.9534 178.77 60.4233 177.836L60.1467 177.352L60.1122 168.859L60.0776 160.366L59.778 160.124C59.3746 159.813 58.8791 159.824 58.5334 160.182L58.2453 160.458V168.825C58.2453 176.108 58.2223 177.237 58.0725 177.617C57.6806 178.528 56.9085 179.023 55.8484 179.023C54.9264 179.023 54.2696 178.666 53.8086 177.928L53.4629 177.375L53.4283 166.912L53.4053 156.448L53.0942 156.217C52.7023 155.906 52.1607 155.906 51.8265 156.229C51.573 156.471 51.5615 156.552 51.5615 158.2V159.928L51.1351 159.859C50.6165 159.767 50.098 159.283 49.9366 158.741C49.856 158.476 49.8329 156.206 49.856 152.115L49.8905 145.892L50.2478 145.132C50.4552 144.705 50.8009 144.164 51.0314 143.91C51.573 143.311 52.6447 142.746 53.486 142.619C53.8547 142.562 56.5398 142.527 59.4553 142.539C64.6871 142.562 64.7678 142.562 65.4131 142.815ZM51.5615 173.4C51.5615 173.745 51.5039 173.803 51.0083 173.999C48.7842 174.898 47.2631 176.407 46.9635 178.009C46.7215 179.242 47.0902 180.302 48.1389 181.409C51.573 185.039 61.5181 185.868 67.2454 182.999C69.5617 181.835 70.7256 180.371 70.7256 178.608C70.7256 177.548 70.3338 176.695 69.435 175.785C68.8242 175.186 67.1302 174.068 66.8075 174.068C66.7153 174.068 66.6577 173.907 66.6577 173.653C66.6577 173.25 66.6692 173.25 67.038 173.319C67.6603 173.457 69.435 174.172 70.3223 174.656C73.1917 176.2 74.298 178.067 73.4107 179.876C71.8434 183.08 65.0789 185.35 57.842 185.096C55.6063 185.016 54.4885 184.889 52.5756 184.497C47.482 183.46 43.9212 181.04 43.9212 178.62C43.9212 176.995 45.6267 175.324 48.5768 174.056C49.372 173.711 50.9968 173.146 51.5384 173.042C51.55 173.031 51.5615 173.204 51.5615 173.4ZM51.5615 176.776C51.5615 179.173 53.3938 180.982 55.8253 180.982C56.9546 180.982 58.4643 180.36 59.052 179.657C59.1903 179.496 59.2479 179.507 59.6166 179.876C59.8471 180.095 60.3426 180.418 60.7229 180.602C61.3222 180.878 61.5642 180.925 62.4515 180.925C63.3965 180.925 63.5693 180.89 64.2608 180.544C65.6667 179.853 66.4849 178.608 66.6231 176.926L66.6923 176.154L67.038 176.35C67.6488 176.707 68.3863 177.433 68.6398 177.905C69.5502 179.703 66.7845 181.743 62.3363 182.549C60.7114 182.838 56.9316 182.838 55.3067 182.549C51.5384 181.87 48.7958 180.21 48.7958 178.62C48.7958 178.216 49.1645 177.537 49.6255 177.099C49.9942 176.741 51.2849 175.912 51.4693 175.912C51.5154 175.912 51.5615 176.304 51.5615 176.776Z" fill="#239371"/>
  <path d="M128.22 128.244C127.35 128.557 126.522 129.128 125.992 129.753L125.598 130.228L126.549 130.541C127.079 130.717 128.125 131.179 128.899 131.587C130.611 132.511 132.024 132.837 133.6 132.701C135.163 132.551 135.258 132.524 135.163 132.09C134.837 130.622 133.641 129.114 132.296 128.448C131.263 127.945 129.32 127.85 128.22 128.244Z" fill="#239371"/>
  <path d="M124.905 131.832C124.823 132.158 124.782 132.933 124.81 133.571C124.85 134.481 124.946 134.876 125.244 135.473C125.761 136.506 126.821 137.552 127.826 138.014C128.56 138.34 128.818 138.395 130.013 138.395C131.263 138.395 131.44 138.354 132.269 137.96C133.763 137.226 134.932 135.704 135.177 134.155L135.258 133.598L133.709 133.666C131.562 133.775 130.679 133.585 128.736 132.593C127.119 131.778 125.815 131.261 125.34 131.261C125.136 131.261 125.027 131.411 124.905 131.832Z" fill="#239371"/>
  <path d="M125.489 139.833C124.524 140.213 123.533 141.205 123.166 142.197C122.88 142.944 122.88 143.121 122.88 154.561V166.178H128.519H134.158V153.257V140.335L133.764 139.941L133.37 139.547L129.783 139.561C126.522 139.561 126.141 139.588 125.489 139.833ZM131.685 146.232C131.753 146.341 131.875 148.841 131.97 152.373C132.147 159.085 132.147 159.153 131.196 160.118C129.402 161.993 126.359 161.246 125.666 158.773C125.448 157.985 124.823 150.036 124.959 149.697C125.068 149.425 125.503 149.398 125.72 149.656C125.802 149.751 125.951 150.824 126.033 152.034C126.128 153.229 126.223 154.276 126.264 154.343C126.304 154.411 127.405 154.493 128.696 154.507L131.033 154.561L130.965 151.776C130.924 150.24 130.856 148.42 130.829 147.713C130.747 146.395 130.842 146.069 131.304 146.069C131.44 146.069 131.603 146.151 131.685 146.232Z" fill="#239371"/>
  <path d="M126.345 156.273C126.521 158.189 126.576 158.488 126.82 158.991C127.5 160.322 129.212 160.608 130.353 159.575C130.991 159.004 131.114 158.474 131.059 156.763L131.019 155.58H130.095C129.592 155.58 128.519 155.54 127.717 155.485L126.263 155.404L126.345 156.273Z" fill="#239371"/>
</svg>