<svg width="20" height="20" viewBox="0 0 20 20" fill="none" xmlns="http://www.w3.org/2000/svg">
<path d="M9.54769 0.0762348C9.31838 0.163792 9.06405 0.322224 8.73468 0.576551C7.83411 1.28116 7.58395 1.35204 6.53746 1.23113C5.80783 1.14775 5.45344 1.14775 5.18661 1.23947C4.76968 1.3854 4.58623 1.61888 4.19015 2.4986C3.70651 3.57011 3.6398 3.64932 2.92268 3.98704C1.76778 4.52905 1.6844 4.57491 1.49261 4.78337C1.15906 5.13776 1.10903 5.47548 1.23411 6.53448C1.35085 7.51426 1.26747 7.82279 0.696273 8.57743C0.108402 9.36126 0 9.58224 0 10.0033C0 10.3744 0.145925 10.6913 0.612887 11.3167C1.29248 12.2339 1.35502 12.4507 1.23411 13.4722C1.05483 15.0232 1.18825 15.2483 2.6892 15.9029C3.56058 16.2865 3.73152 16.4574 4.10676 17.3205C4.5487 18.3419 4.78635 18.6505 5.21579 18.7755C5.49514 18.8589 5.65774 18.8589 6.55414 18.7714C7.62982 18.6671 7.75906 18.7047 8.63045 19.3509C9.29753 19.847 9.56854 19.9805 9.93127 20.0013C10.3482 20.0263 10.6025 19.9179 11.2905 19.4134C12.2536 18.713 12.4454 18.6588 13.5044 18.7755C14.2548 18.8589 14.5217 18.8589 14.7968 18.7755C15.2054 18.6546 15.4347 18.3795 15.8183 17.5206C16.1644 16.7451 16.2352 16.6158 16.4104 16.4449C16.6188 16.2364 16.7856 16.1405 17.486 15.8278C18.8244 15.2316 18.9578 14.994 18.7785 13.4722C18.6951 12.7759 18.7201 12.4215 18.8619 12.1213C18.9244 12.0004 19.1663 11.6335 19.4039 11.3042C19.9251 10.5954 20.0251 10.3619 20.0043 9.94079C19.9834 9.55305 19.8709 9.31957 19.3872 8.66916C18.7118 7.75191 18.6618 7.57263 18.7785 6.51363C18.8619 5.75899 18.8619 5.45046 18.7702 5.18363C18.6243 4.7667 18.4033 4.59159 17.5319 4.1955C16.7231 3.83277 16.6313 3.78274 16.4145 3.5576C16.2227 3.36164 16.131 3.19487 15.7141 2.26929C15.5348 1.86903 15.4473 1.72311 15.2596 1.53132C14.8886 1.15191 14.5842 1.10188 13.4752 1.23113C13.1625 1.26865 12.7872 1.2895 12.6455 1.27699C12.3203 1.25198 11.9117 1.06019 11.4447 0.705799C10.8819 0.280531 10.7485 0.192976 10.5066 0.0929127C10.2231 -0.0238285 9.8187 -0.0321655 9.54769 0.0762348ZM14.1172 6.77213C14.505 6.93473 14.776 7.35166 14.776 7.79361C14.7802 8.30643 14.8427 8.22721 12.1618 10.9039C10.5525 12.5091 9.68111 13.3513 9.56854 13.4055C9.33923 13.5139 8.83891 13.5139 8.6096 13.4055C8.5012 13.3555 7.90082 12.7884 6.93354 11.8211C5.34504 10.2368 5.28667 10.1659 5.2283 9.74067C5.14491 9.12778 5.67858 8.53157 6.31232 8.5274C6.78345 8.5274 6.80013 8.53991 7.99671 9.72399L9.08907 10.8163L11.1028 8.80675C13.1124 6.80131 13.1375 6.78047 13.4877 6.69291C13.6128 6.66373 13.963 6.70542 14.1172 6.77213Z" fill="#239371"/>
<path d="M13.2782 6.79319C13.099 6.86407 12.7988 7.14758 11.081 8.86533L9.08809 10.8583L7.99574 9.7659C6.96592 8.74442 6.8867 8.67354 6.67407 8.611C6.39056 8.52762 6.28216 8.52762 6.01949 8.60683C5.76933 8.68188 5.48999 8.90702 5.36491 9.14467C5.23983 9.38649 5.23566 9.87013 5.36491 10.1078C5.49833 10.3496 8.48355 13.3181 8.6795 13.4015C8.87963 13.4807 9.29656 13.4807 9.49669 13.4015C9.69681 13.3181 14.5165 8.51511 14.6416 8.27746C14.8542 7.8647 14.75 7.31435 14.3998 7.00582C14.0704 6.71397 13.6743 6.63892 13.2782 6.79319Z" fill="#ECECEC"/>
</svg>
