<svg width="38" height="38" viewBox="0 0 38 38" fill="none" xmlns="http://www.w3.org/2000/svg">
<path d="M18.2877 0.141016C17.9092 0.311719 17.5529 0.742188 17.449 1.15781C17.3451 1.57344 17.3451 3.17656 17.449 3.59219C17.6197 4.28242 18.2432 4.75 19.0002 4.75C19.7572 4.75 20.3807 4.28242 20.5514 3.59219C20.6553 3.17656 20.6553 1.57344 20.5514 1.15781C20.3807 0.467578 19.7572 0 19.0002 0C18.7627 0 18.4658 0.0593753 18.2877 0.141016Z" fill="black"/>
<path d="M18.5249 7.9415C17.9683 8.11963 17.4859 8.67627 17.4042 9.23291C17.382 9.39619 17.3671 13.9087 17.382 19.2599C17.4042 29.9845 17.3671 29.1458 17.857 29.6431C18.2058 29.9845 18.473 30.0884 18.9999 30.0884C19.5269 30.0884 19.7941 29.9845 20.1429 29.6431C20.6327 29.1458 20.5956 30.0216 20.5956 19.0001C20.5956 9.84893 20.5882 8.99541 20.4695 8.79502C20.3136 8.50557 19.987 8.179 19.7198 8.03799C19.4527 7.90439 18.8144 7.84502 18.5249 7.9415Z" fill="black"/>
<path d="M0.808984 9.6707C0.630859 9.76718 0.385937 9.98984 0.259766 10.1605L0.0371094 10.4797L0.0148437 18.9184L0 27.357L0.170703 27.691C0.437891 28.1957 0.860937 28.4555 1.47695 28.4852C2.24141 28.5297 2.74609 28.2328 3.05039 27.5723C3.18398 27.2902 3.19141 26.8672 3.19141 19C3.19141 11.1328 3.18398 10.7098 3.05039 10.4277C2.76836 9.81171 2.27109 9.49999 1.58086 9.49999C1.26172 9.49999 1.04648 9.54453 0.808984 9.6707Z" fill="black"/>
<path d="M35.7215 9.61875C35.3875 9.78945 35.1055 10.0789 34.9496 10.4277C34.816 10.7098 34.8086 11.1328 34.8086 19C34.8086 26.8672 34.816 27.2902 34.9496 27.5723C35.2539 28.2328 35.7586 28.5297 36.523 28.4852C37.1391 28.4555 37.5621 28.1957 37.8293 27.691L38 27.3644V19V10.6355L37.8293 10.309C37.7328 10.1309 37.5102 9.88593 37.3395 9.75976C37.0723 9.57421 36.9461 9.53711 36.4934 9.51484C36.1074 9.5 35.8922 9.52968 35.7215 9.61875Z" fill="black"/>
<path d="M12.8027 11.1995C12.4465 11.3627 12.157 11.6448 11.9937 11.9788C11.8898 12.2014 11.875 12.9584 11.875 18.9999C11.875 25.0413 11.8898 25.7983 11.9937 26.0209C12.5727 27.2456 14.3539 27.2456 14.9254 26.0135C15.059 25.7315 15.0664 25.3827 15.0664 18.9999C15.0664 12.617 15.059 12.2682 14.9254 11.9862C14.5617 11.192 13.5969 10.8358 12.8027 11.1995Z" fill="black"/>
<path d="M23.8613 11.1995C23.698 11.2737 23.4753 11.4295 23.364 11.5483C22.9113 12.0307 22.9335 11.6893 22.9335 19.0147C22.9335 25.3827 22.941 25.7315 23.0745 26.0135C23.646 27.2456 25.4273 27.2456 26.0062 26.0209C26.1101 25.7983 26.1249 25.0413 26.1249 18.9999C26.1249 11.5854 26.1472 11.9936 25.6945 11.5334C25.2343 11.0733 24.4402 10.9323 23.8613 11.1995Z" fill="black"/>
<path d="M7.22148 14.3687C6.8875 14.5394 6.60547 14.8289 6.44961 15.1777C6.32344 15.4523 6.30859 15.7344 6.30859 19C6.30859 22.2656 6.32344 22.5477 6.44961 22.8223C6.75391 23.4828 7.25859 23.7797 8.02305 23.7352C8.63906 23.7055 9.06211 23.4457 9.3293 22.941L9.5 22.6144V19V15.3855L9.3293 15.059C9.23281 14.8809 9.01016 14.6359 8.83945 14.5098C8.57227 14.3242 8.44609 14.2871 7.99336 14.2648C7.60742 14.25 7.39219 14.2797 7.22148 14.3687Z" fill="black"/>
<path d="M29.3091 14.4207C29.131 14.5172 28.886 14.7398 28.7599 14.9105L28.5372 15.2297L28.5149 18.9184L28.4927 22.607L28.6708 22.9336C28.938 23.4457 29.361 23.7055 29.9771 23.7352C30.7415 23.7797 31.2462 23.4828 31.5505 22.8223C31.6767 22.5477 31.6915 22.2656 31.6915 19C31.6915 15.7344 31.6767 15.4523 31.5505 15.1777C31.2685 14.5617 30.7712 14.25 30.081 14.25C29.7618 14.25 29.5466 14.2945 29.3091 14.4207Z" fill="black"/>
<path d="M18.2875 33.391C17.909 33.5617 17.5527 33.9922 17.4488 34.4078C17.4043 34.5785 17.3672 35.1277 17.3672 35.625C17.3672 36.6863 17.4488 37.0723 17.7605 37.4434C18.3691 38.1855 19.6309 38.1855 20.2395 37.4434C20.5512 37.0723 20.6328 36.6863 20.6328 35.625C20.6328 34.5637 20.5512 34.1777 20.2395 33.8066C19.8016 33.2723 18.948 33.0941 18.2875 33.391Z" fill="black"/>
</svg>
