<svg width="187" height="179" viewBox="0 0 187 179" fill="none" xmlns="http://www.w3.org/2000/svg">
<path d="M49.0177 0.676475C48.3015 1.03456 47.3068 1.8701 46.8294 2.54648C46.0336 3.66053 45.9541 4.33691 45.8347 9.82757L45.7153 15.915H60.0388H74.402V7.95756V8.96454e-05H62.3862C52.0813 8.96454e-05 50.1317 0.119452 49.0177 0.676475Z" fill="white"/>
<path d="M80.77 7.95756V15.915H93.502H106.234V7.95756V8.96454e-05H93.502H80.77V7.95756Z" fill="white"/>
<path d="M112.597 7.95756V15.915H126.96H141.284L141.165 9.82757C141.045 4.33691 140.966 3.66053 140.17 2.54648C138.419 0.0796642 137.822 8.96454e-05 124.573 8.96454e-05H112.597V7.95756Z" fill="white"/>
<path d="M175.663 13.4846C171.047 14.4793 169.615 15.0363 168.7 16.1901C167.347 17.9408 167.944 20.2882 169.973 21.1238C171.008 21.5216 171.684 21.4818 174.429 20.7657C176.18 20.2882 178.726 19.8108 180.039 19.6516C184.814 19.1742 185.808 18.4978 185.808 15.7525C185.808 13.4448 184.734 12.7286 181.551 12.7684C180.039 12.7684 177.413 13.0867 175.663 13.4846Z" fill="white"/>
<path d="M153.657 16.7112C151.747 17.9049 150.792 19.6953 150.792 22.2815C150.792 26.2602 153.18 28.6475 157.158 28.6475C161.137 28.6475 163.524 26.2602 163.524 22.2815C163.524 18.3027 161.137 15.9155 157.158 15.9155C155.686 15.9155 154.532 16.1542 153.657 16.7112Z" fill="white"/>
<path d="M45.7563 28.6467V35.0127H52.1223H58.4883V28.6467V22.2807H52.1223H45.7563V28.6467Z" fill="white"/>
<path d="M64.854 28.6467V35.0127H77.586H90.3179V28.6467V22.2807H77.586H64.854V28.6467Z" fill="white"/>
<path d="M96.6821 28.6467V35.0127H109.414H122.146V28.6467V22.2807H109.414H96.6821V28.6467Z" fill="white"/>
<path d="M128.513 28.6467V35.0127H134.879H141.245V28.6467V22.2807H134.879H128.513V28.6467Z" fill="white"/>
<path d="M2.30684 29.0442C1.94875 29.2432 1.43151 30.0787 1.19279 30.7949C0.834703 31.9089 0.874491 32.3864 1.35194 33.3811C2.02832 34.694 3.34131 35.2113 6.76302 35.5694C7.99643 35.6887 10.3837 36.1662 12.0945 36.6038C16.0733 37.5985 16.4314 37.5985 17.7443 36.4447C19.1369 35.2511 19.296 33.023 18.0228 31.7498C16.1926 29.9593 4.17684 27.8506 2.30684 29.0442Z" fill="white"/>
<path d="M26.3388 32.6273C24.429 33.8209 23.4741 35.6113 23.4741 38.1975C23.4741 42.1762 25.8614 44.5635 29.8401 44.5635C33.8188 44.5635 36.2061 42.1762 36.2061 38.1975C36.2061 34.2188 33.8188 31.8315 29.8401 31.8315C28.368 31.8315 27.2141 32.0702 26.3388 32.6273Z" fill="white"/>
<path d="M45.7563 47.7424V54.1084H60.0798H74.4033V47.7424V41.3764H60.0798H45.7563V47.7424Z" fill="white"/>
<path d="M80.77 47.7424V54.1084H93.502H106.234V47.7424V41.3764H93.502H80.77V47.7424Z" fill="white"/>
<path d="M112.597 47.7424V54.1084H126.921H141.244V47.7424V41.3764H126.921H112.597V47.7424Z" fill="white"/>
<path d="M45.7563 66.8401V73.2061H52.1223H58.4883V66.8401V60.4741H52.1223H45.7563V66.8401Z" fill="white"/>
<path d="M64.854 66.8401V73.2061H77.586H90.3179V66.8401V60.4741H77.586H64.854V66.8401Z" fill="white"/>
<path d="M96.6821 66.8401V73.2061H109.414H122.146V66.8401V60.4741H109.414H96.6821V66.8401Z" fill="white"/>
<path d="M128.513 66.8401V73.2061H134.879H141.245V66.8401V60.4741H134.879H128.513V66.8401Z" fill="white"/>
<path d="M154.772 76.0726C152.504 77.6243 151.788 78.9373 151.788 81.5633C151.828 84.1892 152.504 85.5022 154.772 87.0141C156.443 88.168 159.547 88.2475 161.536 87.1733C165.555 85.0646 165.714 78.4598 161.815 76.0328C159.905 74.8392 156.563 74.879 154.772 76.0726Z" fill="white"/>
<path d="M45.7563 85.9377V92.3037H60.0798H74.4033V85.9377V79.5718H60.0798H45.7563V85.9377Z" fill="white"/>
<path d="M80.77 85.9377V92.3037H93.502H106.234V85.9377V79.5718H93.502H80.77V85.9377Z" fill="white"/>
<path d="M112.597 85.9377V92.3037H126.921H141.244V85.9377V79.5718H126.921H112.597V85.9377Z" fill="white"/>
<path d="M170.368 82.0806C169.254 83.2742 169.215 85.5023 170.249 86.6164C170.727 87.1336 172.159 87.6906 174.069 88.1283C175.78 88.4864 178.644 89.3219 180.435 89.9585C183.22 90.9134 183.936 91.0328 184.97 90.6747C186.443 90.1574 187 89.2821 187 87.4121C187 85.0647 185.05 83.9108 178.286 82.1204C173.472 80.887 171.482 80.887 170.368 82.0806Z" fill="white"/>
<path d="M25.4648 91.8653C21.6453 93.8945 21.2076 100.181 24.7487 102.687C29.6425 106.189 36.2074 102.13 35.2128 96.2419C34.8945 94.4515 33.4621 92.5417 31.791 91.7062C30.2393 90.8706 27.1359 90.9502 25.4648 91.8653Z" fill="white"/>
<path d="M11.3394 97.3581C9.38982 97.7559 4.81427 99.1883 2.86469 99.9442C0.596811 100.82 0 101.536 0 103.446C0 105.196 0.557023 106.072 2.02916 106.589C3.06363 106.947 3.7798 106.827 6.56492 105.873C8.35535 105.236 11.22 104.4 12.9309 104.042C16.472 103.247 17.5064 102.371 17.5064 100.263C17.5064 97.6366 15.159 96.5225 11.3394 97.3581Z" fill="white"/>
<path d="M45.7563 105.035V111.401H52.1223H58.4883V105.035V98.6694H52.1223H45.7563V105.035Z" fill="white"/>
<path d="M64.854 105.035V111.401H77.586H90.3179V105.035V98.6694H77.586H64.854V105.035Z" fill="white"/>
<path d="M96.6821 105.035V111.401H109.414H122.146V105.035V98.6694H109.414H96.6821V105.035Z" fill="white"/>
<path d="M128.513 105.035V111.401H134.879H141.245V105.035V98.6694H134.879H128.513V105.035Z" fill="white"/>
<path d="M45.7563 124.133V130.499H60.0798H74.4033V124.133V117.767H60.0798H45.7563V124.133Z" fill="white"/>
<path d="M80.77 124.133V130.499H93.502H106.234V124.133V117.767H93.502H80.77V124.133Z" fill="white"/>
<path d="M112.597 124.133V130.499H126.921H141.244V124.133V117.767H126.921H112.597V124.133Z" fill="white"/>
<path d="M37.0025 123.618C36.4454 123.697 33.4614 124.095 30.358 124.533C21.3262 125.806 10.4643 128.273 9.42981 129.267C8.67385 130.023 10.1062 131.695 12.0956 132.45C16.0743 133.923 27.3739 136.19 35.0131 137.066C36.2067 137.185 37.6788 137.384 38.3154 137.503L39.3897 137.742V130.541C39.3897 122.623 39.5886 123.18 37.0025 123.618Z" fill="white"/>
<path d="M147.611 130.503V137.704L148.924 137.505C149.6 137.386 152.346 136.988 154.972 136.67C163.327 135.556 174.786 132.969 176.496 131.816C177.213 131.298 177.929 129.627 177.571 129.309C177.093 128.792 170.767 127.041 166.311 126.126C162.849 125.41 155.011 124.216 149.72 123.58L147.611 123.301V130.503Z" fill="white"/>
<path d="M4.37531 150.037C4.37531 169.055 4.01722 167.424 8.55299 169.572C15.8341 172.954 33.4201 175.699 59.6798 177.53C71.2579 178.325 118.088 178.206 130.183 177.331C155.448 175.5 171.602 172.835 179.161 169.294C183.1 167.424 182.822 168.896 182.941 150.116L183.06 133.604L181.708 135.037C178.047 138.896 167.424 141.363 142.358 144.148L141.244 144.307V140.567V136.867H134.878H128.512V141.045V145.222H127.04C126.204 145.222 124.851 145.342 124.056 145.461L122.544 145.74V141.283V136.867H109.613H96.682V141.641V146.416H93.698H90.7139V141.641V136.867H77.783H64.8521V141.283V145.74L63.0219 145.461C61.9874 145.342 60.6347 145.222 60.0379 145.222H58.884V141.045V136.867H52.3191H45.7542V140.448V144.029H44.481C42.3723 144.029 33.3007 142.915 26.6562 141.84C14.8792 139.931 6.36468 137.066 4.97212 134.559C4.45489 133.604 4.4151 135.275 4.37531 150.037Z" fill="white"/>
</svg>
