<svg width="20" height="19" viewBox="0 0 20 19" fill="none" xmlns="http://www.w3.org/2000/svg">
<path d="M13.0569 0.00682259C11.6599 0.134169 10.6952 0.485332 9.64169 1.2494C9.27509 1.51567 1.19831 9.56544 0.88959 9.97835C0.472824 10.5263 0.167967 11.2325 0.0483391 11.9155C-0.0365578 12.4056 -0.00568621 13.3356 0.110082 13.7987C0.418798 15.0374 1.29092 16.1411 2.41388 16.7199C3.8687 17.4724 5.6361 17.376 7.00989 16.4768C7.29545 16.2916 7.9013 15.7012 11.1197 12.4905C13.8209 9.79312 14.9439 8.64701 15.0712 8.45792C15.3452 8.04888 15.4803 7.62439 15.4996 7.08414C15.5189 6.54389 15.4533 6.19658 15.2565 5.79139C14.9941 5.24342 14.5541 4.79578 14.0216 4.53337C13.5894 4.32113 13.2884 4.25167 12.806 4.25167C12.2002 4.25167 11.7564 4.38287 11.2625 4.71088C10.8843 4.96557 6.19951 9.66964 6.09531 9.90117C5.94482 10.2292 6.00656 10.6035 6.25353 10.8813C6.42333 11.0782 6.651 11.1823 6.92499 11.1823C7.3379 11.1862 7.22985 11.2788 9.87323 8.64701C12.5629 5.9689 12.4742 6.04608 12.8832 6.09239C13.107 6.1194 13.2498 6.18886 13.4003 6.3355C13.6666 6.60177 13.7399 6.98381 13.5855 7.31568C13.5277 7.45074 12.6555 8.34216 9.83078 11.163C7.42665 13.5556 6.07602 14.8792 5.9371 14.968C4.40895 15.925 2.45632 15.1686 1.91993 13.4128C1.79258 13.0038 1.79644 12.3979 1.92765 11.9657C2.13989 11.275 1.90449 11.5296 6.51208 6.92978C11.1274 2.31833 10.8997 2.52672 11.7371 2.17941C13.9058 1.28799 16.3871 2.22186 17.4368 4.32499C18.2008 5.85699 18.0542 7.60124 17.0393 8.99432C16.9235 9.15254 15.1947 10.9199 12.8408 13.2778C10.6412 15.4851 8.80816 17.3528 8.76957 17.4261C8.67309 17.6191 8.67695 18.0165 8.78114 18.2172C8.87762 18.3986 9.02812 18.5491 9.21721 18.6456C9.41787 18.7459 9.80377 18.7382 10.0276 18.6263C10.2553 18.5105 18.0388 10.7308 18.4092 10.2485C19.3238 9.05606 19.7483 7.81348 19.7521 6.32007C19.7521 5.51355 19.6518 4.90769 19.4048 4.20922C18.6292 2.02119 16.7306 0.442884 14.4461 0.080143C14.0795 0.0222588 13.3154 -0.0163307 13.0569 0.00682259Z" fill="#239371"/>
</svg>
