<svg xmlns="http://www.w3.org/2000/svg" width="30" height="30" viewBox="0 0 30 30" fill="none">
  <path d="M12.4172 2.09799L10.3193 4.19588L7.28588 4.20721L4.25246 4.22422L4.23545 7.25765L4.22411 10.2911L2.10922 12.4003L0 14.5152L2.10922 16.6244L4.22411 18.7393L4.23545 21.7727L4.25246 24.8061L7.28588 24.8231L10.3193 24.8345L12.4285 26.9494L14.5434 29.0586L16.6583 26.9494L18.7675 24.8345L21.8009 24.8231L24.8344 24.8061L24.8514 21.7727L24.8627 18.7393L26.9776 16.6244L29.0868 14.5152L26.9776 12.4003L24.8627 10.2911L24.8514 7.25765L24.8344 4.22422L21.8009 4.20721L18.7675 4.19588L16.6696 2.09799C15.5186 0.941326 14.5604 0.000114441 14.5434 0.000114441C14.5264 0.000114441 13.5682 0.941326 12.4172 2.09799ZM16.3011 4.22422L18.0304 5.95356H20.5649H23.105V8.48803V11.0282L24.8457 12.7688L26.5921 14.5152L24.8457 16.2615L23.105 18.0022V20.5423V23.0768H20.5706H18.0304L16.2898 24.8175L14.5434 26.5638L12.7971 24.8175L11.0564 23.0768H8.51626H5.98179V20.5423V18.0022L4.24112 16.2615L2.49478 14.5152L4.24112 12.7688L5.98179 11.0282V8.48803V5.95356H8.52193H11.0564L12.7857 4.22422C13.7383 3.27167 14.5264 2.49489 14.5434 2.49489C14.5604 2.49489 15.3485 3.27167 16.3011 4.22422Z" fill="#828282"/>
  <path d="M13.0692 6.20877L11.6233 7.6546H9.65586H7.68272V9.62208V11.5952L6.22554 13.0524L4.7627 14.5152L6.22554 15.9781L7.68272 17.4353V19.4084V21.3759H9.65019H11.6233L13.0805 22.8331L14.5434 24.2959L16.0062 22.8331L17.4634 21.3759H19.4365H21.404V19.4084V17.4353L22.8612 15.9781L24.324 14.5152L22.8612 13.0524L21.404 11.5952V9.62208V7.6546H19.4308H17.4634L16.0175 6.20877C15.2237 5.41497 14.5604 4.76293 14.5434 4.76293C14.5263 4.76293 13.863 5.41497 13.0692 6.20877ZM15.5923 8.335L16.6129 9.35559H18.1551H19.703V10.8978V12.4457L20.7349 13.4776L21.7725 14.5152L20.7349 15.5528L19.703 16.5848V18.1327V19.6749H18.1608H16.6129L15.581 20.7068L14.5434 21.7444L13.5058 20.7068L12.4738 19.6749H10.9259H9.3837V18.1327V16.5848L8.35177 15.5528L7.31417 14.5152L8.35177 13.4776L9.3837 12.4457V10.8978V9.35559H10.9316H12.4738L13.4944 8.335C14.0557 7.77367 14.5263 7.31441 14.5434 7.31441C14.5604 7.31441 15.031 7.77367 15.5923 8.335Z" fill="#828282"/>
</svg>