<svg xmlns="http://www.w3.org/2000/svg" width="30" height="35" viewBox="0 0 30 35" fill="none">
<path d="M14.0067 0.113613C13.2067 0.413609 12.6267 0.940262 12.2467 1.71358C12.0401 2.14024 12.0334 2.18023 12.0001 3.28021L11.9667 4.40685L11.5334 4.55352C8.44681 5.60016 5.9202 8.3001 5.02022 11.52C4.72022 12.6 4.66689 13.16 4.66689 15.22C4.66022 18.4466 4.54689 19.7532 4.13357 21.3865C3.57358 23.6131 2.43361 25.8331 0.980303 27.553C-0.0463416 28.7597 0.000324067 28.6863 0.000324067 29.1063C0.000324067 29.533 0.126988 29.7863 0.440315 29.993C0.626977 30.113 0.840306 30.1196 5.34021 30.1196H10.0534L10.2268 30.6663C10.4734 31.4663 10.8134 31.9996 11.5001 32.6862C12.1867 33.3796 12.8534 33.7596 13.76 33.9862C14.4733 34.1662 15.5267 34.1662 16.24 33.9862C17.1466 33.7596 17.8133 33.3796 18.4999 32.6862C19.1866 31.9996 19.5266 31.4663 19.7732 30.673L19.9466 30.1196H24.6598C29.1597 30.1196 29.373 30.113 29.5597 29.993C29.873 29.7863 29.9997 29.533 29.9997 29.1063C29.9997 28.6863 30.0463 28.7663 29.013 27.5397C27.4997 25.7597 26.2931 23.3264 25.7731 21.0198C25.4531 19.6199 25.3998 18.9199 25.3598 16.0866C25.3264 13.22 25.2864 12.7133 25.0198 11.6934C24.5265 9.79341 23.6265 8.27344 22.1532 6.8468C21.0865 5.81349 19.7866 5.00018 18.4999 4.56018L18.0333 4.40019L17.9999 3.27355C17.9666 2.1669 17.9599 2.1469 17.7399 1.68691C17.4399 1.07359 16.9133 0.546936 16.3 0.253609C15.8666 0.0402832 15.7733 0.0202827 15.1 0.00695038C14.5 -0.0130501 14.3 0.00695038 14.0067 0.113613ZM15.48 2.1669C15.8267 2.37357 15.9466 2.66022 15.9866 3.36021L16.02 3.98686H15H13.98L14.0134 3.36021C14.0534 2.66689 14.16 2.41356 14.5067 2.18023C14.7533 2.02024 15.2133 2.01357 15.48 2.1669ZM16.2266 6.12682C19.1799 6.52014 21.8932 8.78676 22.8598 11.6867C23.2332 12.8133 23.2732 13.2133 23.3332 16.5199C23.3932 20.1065 23.4732 20.7332 24.1131 22.8531C24.5931 24.4331 25.6064 26.4864 26.5464 27.7664L26.8064 28.1197H15H3.19359L3.45358 27.773C4.39356 26.4864 5.40687 24.4331 5.88686 22.8531C6.52685 20.7332 6.60685 20.1065 6.66685 16.5199C6.70685 14.18 6.74685 13.3533 6.83351 12.8867C7.42016 9.66674 9.83345 7.08013 12.9934 6.28015C14 6.02015 15.0533 5.97349 16.2266 6.12682ZM17.5933 30.5196C17.32 31.0329 16.78 31.5396 16.22 31.8063C15.7933 32.0063 15.7267 32.0196 15 32.0196C14.28 32.0196 14.2067 32.0063 13.8 31.8129C13.2334 31.5463 12.6801 31.0263 12.4067 30.5263L12.1934 30.1196H15H17.8066L17.5933 30.5196Z" fill="#386641"/>
<path d="M4.65323 3.50683C4.20658 3.71349 2.87994 5.30012 2.12662 6.53343C0.799983 8.70005 0 11.4867 0 13.9066C0 14.7666 0.0599987 14.9399 0.439991 15.1932C0.699985 15.3666 1.27997 15.3666 1.55997 15.1932C1.93996 14.9533 2.00662 14.7533 2.06662 13.6266C2.23995 10.58 3.43326 7.74674 5.45322 5.58012C5.98654 5.01346 6.1332 4.75347 6.1332 4.42014C6.1332 3.66016 5.35322 3.18017 4.65323 3.50683Z" fill="#386641"/>
<path d="M24.3863 3.52683C23.933 3.76016 23.7396 4.40681 23.9729 4.87347C24.0396 4.99346 24.2929 5.30679 24.5463 5.58012C26.5662 7.74674 27.7462 10.54 27.9262 13.6066C27.9995 14.7533 28.0595 14.9599 28.4395 15.1932C28.7195 15.3666 29.2995 15.3666 29.5595 15.1932C29.9395 14.9399 29.9995 14.7666 29.9995 13.9066C29.9995 11.4867 29.1995 8.70005 27.8729 6.53343C27.1195 5.30012 25.7929 3.71349 25.3463 3.50683C25.0263 3.3535 24.6929 3.36017 24.3863 3.52683Z" fill="#386641"/>
</svg>
