<svg width="20" height="20" viewBox="0 0 20 20" fill="none" xmlns="http://www.w3.org/2000/svg">
<path d="M7.12973 0.0709248C5.30505 0.352245 3.70308 1.16495 2.40197 2.47388C1.06179 3.81796 0.268623 5.43165 0.0380956 7.29931C-0.0126985 7.7252 -0.0126985 8.82704 0.0380956 9.25293C0.186571 10.4407 0.608552 11.6481 1.22199 12.6132C1.89794 13.6876 2.92554 14.6996 3.98831 15.3404C5.04327 15.9734 6.20762 16.3719 7.42277 16.5204C7.9229 16.579 9.03255 16.5673 9.54049 16.4969C10.9979 16.2938 12.3185 15.7663 13.4477 14.9341C13.5806 14.8403 13.7017 14.766 13.7173 14.7699C13.733 14.7778 14.909 15.9226 16.3313 17.3214C17.7535 18.7163 18.9687 19.8923 19.039 19.9275C19.3047 20.076 19.7267 19.9861 19.8947 19.7517C19.9963 19.6071 20.0353 19.2672 19.965 19.0992C19.9298 19.0093 16.2844 15.3756 14.8309 13.9768L14.6785 13.8283L14.9208 13.5431C15.4756 12.8945 16.0812 11.8434 16.3664 11.0346C17.101 8.95207 16.9799 6.67415 16.0382 4.72835C15.6045 3.83359 15.1161 3.14983 14.3855 2.42308C13.0609 1.10243 11.3144 0.262379 9.41546 0.0318508C8.88017 -0.0306644 7.66893 -0.0111275 7.12973 0.0709248ZM8.99739 1.32124C12.0138 1.5713 14.5183 3.65386 15.288 6.55694C15.4443 7.15084 15.4912 7.54156 15.4912 8.27612C15.4912 9.01068 15.4443 9.4014 15.288 9.9953C14.9598 11.2261 14.362 12.2693 13.4555 13.1758C11.5488 15.0864 8.69653 15.7468 6.12166 14.8754C4.0899 14.1878 2.45277 12.6014 1.74556 10.64C1.02272 8.63559 1.24152 6.45144 2.34337 4.67365C3.63275 2.59891 5.84425 1.34859 8.34097 1.28998C8.45038 1.28607 8.74342 1.3017 8.99739 1.32124Z" fill="#346652"/>
</svg>
