<svg xmlns="http://www.w3.org/2000/svg" width="20" height="20" viewBox="0 0 20 20" fill="none">
  <path d="M15.5527 0.265543C14.3022 0.781361 13.298 1.27764 11.7661 2.14125C10.7462 2.71568 10.6681 2.7782 10.6681 2.99704C10.6681 3.12599 10.6915 3.17288 10.7931 3.25885C10.969 3.40735 11.0588 3.37999 11.7036 3.00094C12.9541 2.26629 14.3452 1.55509 15.4238 1.09007L15.963 0.859516L15.9747 7.29162C15.9787 10.832 15.9787 13.7315 15.9708 13.7393C15.963 13.7472 15.6582 13.8644 15.2948 14.0051C14.9353 14.1458 14.3726 14.3763 14.0482 14.517C13.3683 14.814 11.6176 15.6854 10.8869 16.0918C10.6134 16.2442 10.3789 16.3692 10.3711 16.3692C10.3633 16.3692 10.3554 13.4932 10.3554 9.98013C10.3554 5.29477 10.3437 3.56756 10.3125 3.49722C10.203 3.25885 8.94476 2.84464 7.92485 2.71177C6.58841 2.53592 3.82565 2.77039 1.99294 3.21978C1.59826 3.31747 1.44976 3.37218 1.39896 3.4347C1.33253 3.51676 1.32862 3.8919 1.32862 11.0039V18.4833L1.42632 18.5771C1.53182 18.6826 1.68032 18.7021 1.9226 18.6357C2.18051 18.5615 3.1887 18.3661 3.70061 18.2879C4.5056 18.1629 5.24416 18.0925 6.16247 18.0535C7.55752 17.9909 8.29999 18.0847 9.3707 18.4677L9.65206 18.5693V18.9327V19.3H5.58022C3.00894 19.3 1.45367 19.2844 1.36379 19.261C1.19576 19.2141 0.933944 18.9991 0.812805 18.7998L0.722928 18.6553L0.703389 11.9262L0.68385 5.20099L0.590065 5.09939C0.461111 4.96262 0.207109 4.95871 0.0859698 5.08766L0 5.17754L0.00781543 11.977L0.0195386 18.7725L0.140678 19.0304C0.347787 19.4681 0.703389 19.7885 1.14887 19.937C1.32862 19.9995 2.04374 20.0034 10.0038 20.0034C17.9794 20.0034 18.6789 19.9995 18.8586 19.937C19.2338 19.8119 19.5386 19.5736 19.7535 19.2414C20.027 18.8116 20.0075 19.3977 20.0075 11.9144V5.16582L19.9176 5.08376C19.7848 4.95871 19.5425 4.96653 19.4174 5.09939L19.3237 5.20099L19.3041 11.9262L19.2846 18.6553L19.1947 18.7998C19.0736 18.9991 18.8117 19.2141 18.6437 19.261C18.5538 19.2844 16.9986 19.3 14.4273 19.3H10.3515L10.3633 18.9405L10.375 18.5849L10.5899 18.5107C10.8791 18.413 11.6294 18.2254 12.0358 18.1512C13.3839 17.9011 15.9005 18.073 17.7371 18.5419C18.3624 18.7021 18.4561 18.7061 18.5812 18.5771L18.6789 18.4833V10.9961V3.50895L18.589 3.41907C18.5226 3.35655 18.3897 3.30965 18.0693 3.24713C17.8309 3.19633 17.6004 3.17288 17.5613 3.18461C17.405 3.24322 17.3112 3.36436 17.3112 3.52067C17.3112 3.73559 17.4362 3.84501 17.7371 3.90753L17.9755 3.95443V10.9023C17.9755 14.728 17.9677 17.8542 17.956 17.8542C17.9481 17.8542 17.7918 17.819 17.616 17.7799C16.6469 17.5533 15.498 17.4048 14.2514 17.3462C12.7626 17.2719 11.8404 17.3852 10.4102 17.8229L10.0155 17.9401L9.50357 17.7643C8.85098 17.5337 8.19839 17.397 7.51063 17.3423C6.30705 17.2485 3.92335 17.4634 2.35635 17.8112L2.03201 17.8815V10.9141C2.03201 4.31394 2.03592 3.94661 2.10235 3.92707C2.45405 3.82156 3.83738 3.57929 4.57203 3.49722C6.0765 3.32138 7.495 3.31747 8.28436 3.4855C8.53055 3.54021 8.93695 3.64963 9.18313 3.73169L9.63252 3.88409L9.65206 10.5272C9.66378 14.1809 9.67551 17.1742 9.68332 17.1781C9.68723 17.182 9.73021 17.2211 9.77711 17.268C9.90997 17.3892 10.0897 17.3696 10.3867 17.1938C11.4613 16.5685 13.5793 15.4978 14.607 15.0602C14.9431 14.9156 15.5214 14.685 15.8849 14.5482C16.2952 14.3958 16.5765 14.2708 16.6195 14.2161C16.682 14.1379 16.6859 13.7433 16.6859 7.15875V0.187387L16.5883 0.0936031C16.4359 -0.062706 16.2756 -0.0353508 15.5527 0.265543Z" fill="#346652"/>
  <path d="M14.5562 3.66932C14.0404 3.79436 11.5082 4.95886 11.3949 5.12299C11.3011 5.25976 11.3128 5.47468 11.4262 5.58019C11.5786 5.72477 11.7271 5.69351 12.3288 5.40825C13.2433 4.97058 13.8685 4.68923 14.3765 4.48603C14.6461 4.38052 14.8962 4.26329 14.9353 4.22812C15.0408 4.13433 15.0291 3.86079 14.9197 3.75919C14.8063 3.65759 14.7047 3.63024 14.5562 3.66932Z" fill="#346652"/>
  <path d="M13.9505 5.89241C12.8095 6.35352 11.4379 7.02174 11.3714 7.14288C11.2346 7.40469 11.4418 7.72513 11.7153 7.67433C11.7935 7.6587 12.0904 7.52974 12.3835 7.38125C13.0205 7.06472 14.1303 6.57235 14.5367 6.42386C14.6969 6.36915 14.8688 6.28318 14.9196 6.2402C15.0329 6.13078 15.0369 5.90804 14.9235 5.76345C14.7946 5.59933 14.6109 5.62668 13.9505 5.89241Z" fill="#346652"/>
  <path d="M5.68596 5.99803C4.95522 6.05664 3.90795 6.22076 3.56798 6.33018C3.33742 6.40443 3.24755 6.67015 3.38432 6.86554C3.49373 7.02185 3.61096 7.03748 4.00955 6.95151C5.28347 6.67797 6.67852 6.62326 7.7336 6.81083C8.01496 6.86163 8.07358 6.86554 8.16736 6.81474C8.30413 6.7444 8.38619 6.54901 8.3393 6.41615C8.27678 6.2403 8.12828 6.16996 7.67499 6.09181C7.25686 6.01756 6.10018 5.96676 5.68596 5.99803Z" fill="#346652"/>
  <path d="M14.3024 7.75269C13.6499 7.98325 11.5827 8.94455 11.4264 9.08913C11.3326 9.1751 11.3013 9.36267 11.356 9.51116C11.3834 9.5815 11.5709 9.68701 11.6725 9.68701C11.7116 9.68701 12.0438 9.54633 12.4072 9.37049C13.4037 8.89375 13.8804 8.68273 14.4119 8.47562C14.6776 8.37011 14.9199 8.25288 14.9511 8.2138C15.041 8.09657 15.0176 7.86211 14.9081 7.75269C14.7909 7.63155 14.6424 7.63155 14.3024 7.75269Z" fill="#346652"/>
  <path d="M5.76362 8.01059C4.94691 8.04966 3.94653 8.20207 3.57139 8.33884C3.30567 8.44044 3.23924 8.71007 3.43462 8.90936C3.57139 9.04222 3.59484 9.04613 4.04423 8.94844C5.16965 8.70225 6.55298 8.63191 7.44394 8.7765C7.68231 8.81167 7.94022 8.84293 8.02228 8.84293C8.22548 8.84293 8.34271 8.72179 8.34271 8.51078C8.34271 8.27631 8.22157 8.18643 7.78782 8.10828C7.49865 8.05748 6.43184 7.95588 6.36932 7.97542C6.35759 7.97542 6.08796 7.99105 5.76362 8.01059Z" fill="#346652"/>
  <path d="M14.0872 9.83573C13.1142 10.2265 11.598 10.9455 11.4222 11.094C11.2112 11.2738 11.3714 11.6802 11.6449 11.6802C11.7231 11.6802 12.0865 11.5278 12.575 11.2933C13.6144 10.8009 13.9505 10.6485 14.435 10.4688C14.9196 10.2851 15.0056 10.2148 15.0056 10.0077C15.0056 9.80056 14.9079 9.68724 14.7125 9.66379C14.5913 9.65207 14.4546 9.68724 14.0872 9.83573Z" fill="#346652"/>
  <path d="M5.35342 10.0231C5.00954 10.0544 4.34913 10.156 3.94664 10.242C3.61839 10.3084 3.51679 10.3475 3.43082 10.4334C3.31359 10.5468 3.29014 10.6913 3.3683 10.832C3.4699 11.0274 3.59104 11.0509 4.00135 10.9571C4.99391 10.7265 6.46712 10.6405 7.32681 10.7617C7.58472 10.7969 7.86999 10.8359 7.95986 10.8477C8.10836 10.8672 8.13571 10.8555 8.24904 10.7461C8.35454 10.6366 8.37017 10.6015 8.35064 10.4803C8.31156 10.2576 8.21777 10.1912 7.80746 10.1091C7.5222 10.0505 7.23303 10.0309 6.48666 10.0231C5.95911 10.0153 5.45111 10.0153 5.35342 10.0231Z" fill="#346652"/>
  <path d="M14.4779 11.6876C13.6026 11.9885 11.5081 12.9732 11.3947 13.1334C11.301 13.2663 11.3166 13.4656 11.4299 13.575C11.5823 13.7313 11.7386 13.704 12.3013 13.4226C12.9696 13.0904 13.8722 12.684 14.4154 12.4769C14.9429 12.2776 15.0055 12.2268 15.0055 12.0275C15.0055 11.8282 14.9742 11.7657 14.8453 11.6993C14.7202 11.6329 14.6421 11.629 14.4779 11.6876Z" fill="#346652"/>
  <path d="M5.45101 12.0162C4.98599 12.0631 4.34512 12.1608 3.94654 12.2429C3.5753 12.321 3.48543 12.3523 3.41118 12.4383C3.2197 12.6649 3.36038 13.0088 3.64564 13.0088C3.71598 13.0088 3.93091 12.9736 4.12238 12.9345C4.86876 12.7704 5.38458 12.7196 6.27163 12.7196C6.93985 12.7157 7.23293 12.7313 7.58853 12.79C8.09653 12.872 8.18641 12.8603 8.30755 12.6766C8.40133 12.532 8.34272 12.3132 8.18641 12.2233C7.96758 12.0983 7.37751 12.028 6.46701 12.0123C5.99418 12.0045 5.53698 12.0084 5.45101 12.0162Z" fill="#346652"/>
  <path d="M5.54906 14.0089C4.80268 14.0792 3.77496 14.2512 3.5444 14.345C3.18489 14.4856 3.27868 15.0015 3.66554 15.0015C3.7476 15.0015 3.97034 14.9663 4.16182 14.9272C4.88865 14.767 5.45527 14.7123 6.3306 14.7123C6.9363 14.7162 7.27236 14.7318 7.53418 14.7787C8.00701 14.8647 8.13206 14.8647 8.23757 14.767C8.42123 14.5951 8.38606 14.3215 8.16332 14.2121C7.92495 14.0988 7.32707 14.0245 6.50645 14.0089C6.0766 14.0011 5.64675 14.0011 5.54906 14.0089Z" fill="#346652"/>
</svg>