<svg width="46" height="45" viewBox="0 0 46 45" fill="none" xmlns="http://www.w3.org/2000/svg">
<rect x="0.53125" width="44.5319" height="44.5319" rx="9" fill="#239571"/>
<path d="M15.1616 12.0366C12.6617 13.1461 11.159 13.839 11.0747 13.9185C10.7891 14.1901 10.8079 13.4223 10.8079 23.9744V33.6463L10.9062 33.8242C10.9577 33.9178 11.0934 34.0536 11.1964 34.1238C11.3696 34.2362 11.4258 34.2502 11.6973 34.2362C11.9782 34.2174 12.2685 34.0957 15.6532 32.5836C17.6616 31.6894 19.3282 30.9544 19.3562 30.9544C19.389 30.9544 21.0603 31.6894 23.078 32.5836C26.3316 34.0302 26.7811 34.2174 27.0292 34.2362L27.3148 34.2549L30.9148 32.4525C34.4119 30.7016 34.5242 30.6455 34.6506 30.4488L34.777 30.2475V20.5569V10.8709L34.6647 10.679C34.5102 10.4168 34.2527 10.2764 33.9156 10.2764C33.6675 10.2764 33.513 10.3466 30.3764 11.9149C28.5741 12.8137 27.076 13.5534 27.0479 13.5534C27.0198 13.5534 25.3345 12.8137 23.3074 11.9149C19.9461 10.4215 19.5997 10.2764 19.3703 10.2764C19.1409 10.2764 18.7664 10.4308 15.1616 12.0366ZM18.4761 20.9595L18.4621 29.3955L15.5362 30.697C13.9304 31.4132 12.5962 31.9984 12.5775 31.9984C12.5541 31.9984 12.5447 28.2017 12.5494 23.5624L12.5634 15.1264L15.4659 13.8296C17.0623 13.118 18.3965 12.5328 18.4293 12.5281C18.4761 12.5235 18.4855 14.2228 18.4761 20.9595ZM23.2606 13.8296L26.1865 15.1311L26.2006 23.5811L26.2099 32.0359L24.445 31.2541C23.4713 30.8234 22.1324 30.2288 21.4723 29.9339L20.2645 29.4002V20.9595C20.2645 16.3201 20.2785 12.5235 20.3019 12.5235C20.3206 12.5235 21.6502 13.1133 23.2606 13.8296ZM33.0449 20.9969V29.4236L30.5169 30.6876C29.1265 31.3805 27.9795 31.9516 27.9655 31.9516C27.9514 31.9516 27.9421 28.1643 27.9421 23.5343V15.1217L30.4841 13.8483C31.8792 13.1461 33.0262 12.575 33.0355 12.575C33.0402 12.5703 33.0449 16.3623 33.0449 20.9969Z" fill="white"/>
</svg>
