<svg width="25" height="25" viewBox="0 0 25 25" fill="none" xmlns="http://www.w3.org/2000/svg">
<path d="M6.18294 21.4908C5.91772 21.4904 5.66351 21.3847 5.47624 21.1969C5.28896 21.0091 5.18396 20.7546 5.18432 20.4894L5.05467 5.8292C5.04304 5.53153 5.09038 5.23449 5.19396 4.95518C5.29754 4.67587 5.45531 4.41979 5.65821 4.20168C5.86112 3.98356 6.10514 3.80771 6.37624 3.68424C6.64735 3.56077 6.94019 3.49212 7.23793 3.48223L16.828 3.44554C17.1261 3.45116 17.4202 3.51545 17.6934 3.63474C17.9667 3.75404 18.2138 3.926 18.4205 4.1408C18.6273 4.3556 18.7898 4.60903 18.8986 4.88662C19.0074 5.16421 19.0605 5.46052 19.0548 5.75863L19.1744 20.4188C19.1759 20.594 19.1313 20.7666 19.0451 20.9192C18.9589 21.0717 18.8341 21.199 18.6832 21.2881C18.5311 21.3757 18.3586 21.4217 18.183 21.4214C18.0075 21.4212 17.8351 21.3747 17.6832 21.2867L11.9876 18.1188L6.69314 21.3415C6.53637 21.4288 6.36203 21.4798 6.18294 21.4908ZM11.9506 15.9488C12.1244 15.9493 12.2956 15.9907 12.4505 16.0695L17.1568 18.686L17.0548 5.73585C17.0551 5.53585 16.9253 5.39567 16.8453 5.40556L7.24515 5.48224C7.16515 5.48213 7.05497 5.61198 7.05469 5.81198L7.15679 18.7121L11.4404 16.0881C11.596 15.9993 11.7715 15.9514 11.9506 15.9488Z" fill="#346652"/>
</svg>
