<svg width="38" height="51" viewBox="0 0 38 51" fill="none" xmlns="http://www.w3.org/2000/svg">
<path d="M2.26006 1.14346C1.39909 1.49567 0.851193 2.01422 0.391353 2.90455L0 3.66769V24.0278V44.388L0.234812 44.975C0.557678 45.7773 1.44801 46.6676 2.25028 46.9905C2.81774 47.2155 2.94493 47.2253 5.75289 47.2546L8.65869 47.284V48.9472C8.65869 49.9061 8.69782 50.6986 8.75653 50.8062C8.94242 51.1486 9.42183 51.041 10.3611 50.454C10.8307 50.1604 11.2416 49.9158 11.2808 49.9158C11.3199 49.9158 11.7406 50.1604 12.2298 50.454C13.1397 51.0116 13.5213 51.1095 13.7854 50.8355C13.9126 50.7083 13.942 50.3953 13.942 48.9766V47.2742H24.9781H36.0143L36.4448 47.0492C36.7481 46.8926 36.9437 46.7068 37.1003 46.4035L37.3253 45.973L37.3057 23.93L37.2764 1.88703L37.0709 1.61308C36.9633 1.46632 36.7187 1.24129 36.5426 1.11411L36.2197 0.898861H19.5285H2.83731L2.26006 1.14346ZM6.50625 24.0376V46.1002H4.82343C3.33629 46.1002 3.08191 46.0708 2.69055 45.8947C2.10352 45.6305 1.64368 45.1707 1.35995 44.5837L1.12514 44.0945V24.1257C1.12514 6.505 1.14471 4.09818 1.2719 3.72639C1.54585 2.95347 2.10352 2.42514 2.97428 2.11206C3.2091 2.024 3.8744 1.98487 4.92127 1.97508H6.50625V24.0376ZM35.9751 2.14141C36.1415 2.28817 36.1512 3.10022 36.1512 24.0865C36.1512 40.8952 36.1219 45.8947 36.0338 45.9827C35.9458 46.0708 32.6486 46.1002 21.7984 46.1002H7.68031V24.0376V1.97508H21.7397C34.6837 1.97508 35.8088 1.98487 35.9751 2.14141ZM12.7679 48.3504V49.4169L12.1613 49.0353C11.8189 48.8201 11.4373 48.6439 11.3101 48.6439C11.1829 48.6439 10.8307 48.8005 10.5176 48.9864C10.2045 49.1723 9.93059 49.3288 9.89145 49.3288C9.8621 49.3288 9.83275 48.869 9.83275 48.3015V47.2742H11.3003H12.7679V48.3504Z" fill="url(#paint0_linear_144_210)"/>
<path d="M19.9979 12.8938C15.194 13.7548 11.5349 17.4531 10.7522 22.2276C10.5271 23.5582 10.6152 25.5835 10.9381 26.8358C12.3567 32.2854 17.3367 35.8076 22.9428 35.3282C25.0561 35.1423 27.189 34.3107 28.8718 33.0094C31.6896 30.8374 33.2256 27.6772 33.2256 24.0572C33.2256 20.9362 32.2081 18.4315 30.0557 16.191C28.3239 14.4006 26.191 13.2754 23.7744 12.8841C22.6982 12.708 20.9958 12.708 19.9979 12.8938ZM24.6354 14.2538C26.465 14.7821 27.9032 15.6529 29.2045 17.0128C30.1633 18.0108 30.6329 18.6761 31.1808 19.8404C32.9908 23.705 32.12 28.2936 29.0088 31.3266C28.0011 32.3148 26.7879 33.0877 25.5551 33.5573C24.1364 34.0856 23.4614 34.203 21.8666 34.1932C20.6632 34.1932 20.3012 34.1541 19.4696 33.9291C17.6987 33.4692 16.055 32.5398 14.7929 31.2972C11.6718 28.2153 10.8696 23.5289 12.7872 19.6056C14.108 16.8954 16.6909 14.8213 19.5772 14.1462C21.1426 13.7842 23.1776 13.8233 24.6354 14.2538Z" fill="url(#paint1_linear_144_210)"/>
<path d="M21.73 17.1596C21.5148 17.4629 21.5343 17.9814 21.7691 18.2162C22.1801 18.6271 22.7475 18.3336 22.7475 17.7172C22.7475 17.14 22.6105 16.9443 22.2094 16.9443C21.9746 16.9443 21.8278 17.0128 21.73 17.1596Z" fill="url(#paint2_linear_144_210)"/>
<path d="M20.6147 18.7641C20.4385 18.8913 20.3994 19.0087 20.3994 19.4685C20.3994 20.5056 20.7614 20.7502 22.2779 20.7209C23.2367 20.7013 23.3443 20.6817 23.5792 20.4665C24.0977 19.9773 24.1564 18.9011 23.6672 18.6858C23.2759 18.4999 22.9139 18.7543 22.8356 19.2435C22.7769 19.6153 22.7769 19.6153 22.7573 19.312C22.7573 19.1457 22.6595 18.9109 22.5519 18.8032C22.1703 18.4217 21.6909 18.6369 21.5735 19.2533L21.4952 19.6349L21.4854 19.2729C21.4756 18.9206 21.2115 18.6076 20.9375 18.6076C20.8788 18.6076 20.7321 18.676 20.6147 18.7641Z" fill="url(#paint3_linear_144_210)"/>
<path d="M15.3509 21.0633C14.4214 21.3275 13.6191 22.2765 13.5017 23.2549C13.4235 23.8615 13.58 24.1159 14.0301 24.1159C14.4312 24.1159 14.529 24.0083 14.6366 23.4506C14.7443 22.8831 15.0182 22.4918 15.4487 22.2863C16.1238 21.9732 16.8087 22.1787 17.3076 22.844C17.5033 23.1082 17.5131 23.2745 17.562 25.7792C17.6109 28.274 17.6207 28.4697 17.8262 28.8415C18.2665 29.6536 19.2448 30.2504 20.1547 30.2504C20.6537 30.2504 21.3777 29.996 21.7788 29.6731L22.1408 29.3698L22.6496 29.7123C23.2758 30.133 23.8237 30.2895 24.4694 30.221C25.3695 30.133 26.2011 29.5361 26.5729 28.7339C26.7392 28.3719 26.7588 28.0392 26.7588 24.7519C26.7588 21.2982 26.749 21.1514 26.5729 21.0536C26.2892 20.9068 26.025 20.9362 25.8489 21.1318C25.7022 21.2982 25.6826 21.6797 25.6826 24.5757C25.6826 27.6381 25.6728 27.8631 25.4869 28.2447C24.9684 29.3209 23.4127 29.3307 22.904 28.2545C22.767 27.9707 22.7474 27.462 22.7474 24.5953V21.259L22.5322 21.1123C22.2387 20.9068 22.0039 20.9166 21.7691 21.1514C21.5832 21.3373 21.5734 21.4743 21.5734 24.6932C21.5734 27.8729 21.5636 28.0686 21.3777 28.3719C20.8102 29.3111 19.5873 29.3013 18.8926 28.3621C18.6969 28.0979 18.6872 27.9316 18.6382 25.4269C18.5795 22.4233 18.5697 22.3548 17.8066 21.6504C17.1707 21.0633 16.1727 20.8188 15.3509 21.0633Z" fill="url(#paint4_linear_144_210)"/>
<path d="M27.6395 21.1514C27.4536 21.3373 27.4438 21.4742 27.4438 25.603C27.4438 29.7318 27.4536 29.8688 27.6395 30.0547C27.9037 30.3188 28.2755 30.309 28.4614 30.0351C28.5983 29.8394 28.6179 29.2524 28.6179 25.5835C28.6179 21.4742 28.6081 21.3373 28.4222 21.1514C28.3146 21.0438 28.1385 20.9557 28.0309 20.9557C27.9233 20.9557 27.7471 21.0438 27.6395 21.1514Z" fill="url(#paint5_linear_144_210)"/>
<defs>
<linearGradient id="paint0_linear_144_210" x1="3.5711" y1="3.0513" x2="34.9772" y2="46.5404" gradientUnits="userSpaceOnUse">
<stop offset="0.47" stop-color="#386641"/>
<stop offset="1" stop-color="#6A994E"/>
</linearGradient>
<linearGradient id="paint1_linear_144_210" x1="12.7891" y1="13.7249" x2="25.2591" y2="36.8827" gradientUnits="userSpaceOnUse">
<stop offset="0.47" stop-color="#386641"/>
<stop offset="1" stop-color="#6A994E"/>
</linearGradient>
<linearGradient id="paint2_linear_144_210" x1="21.6918" y1="17.0071" x2="22.5869" y2="18.3353" gradientUnits="userSpaceOnUse">
<stop offset="0.47" stop-color="#386641"/>
<stop offset="1" stop-color="#6A994E"/>
</linearGradient>
<linearGradient id="paint3_linear_144_210" x1="20.7442" y1="18.6984" x2="21.5466" y2="21.2391" gradientUnits="userSpaceOnUse">
<stop offset="0.47" stop-color="#386641"/>
<stop offset="1" stop-color="#6A994E"/>
</linearGradient>
<linearGradient id="paint4_linear_144_210" x1="14.7526" y1="21.3602" x2="18.7977" y2="32.1059" gradientUnits="userSpaceOnUse">
<stop offset="0.47" stop-color="#386641"/>
<stop offset="1" stop-color="#6A994E"/>
</linearGradient>
<linearGradient id="paint5_linear_144_210" x1="27.5562" y1="21.3549" x2="30.2876" y2="21.9964" gradientUnits="userSpaceOnUse">
<stop offset="0.47" stop-color="#386641"/>
<stop offset="1" stop-color="#6A994E"/>
</linearGradient>
</defs>
</svg>
