<svg width="97" height="80" viewBox="0 0 97 80" fill="none" xmlns="http://www.w3.org/2000/svg">
<path d="M0.14485 51.5518C-1.99383 32.546 19.6611 0 57.7645 0C79.936 0 96.7968 10.2506 96.7968 32.2863C96.7968 57.0819 60.1028 76.0251 39.4428 78.7892C18.4097 81.6031 2.53124 72.7594 0.14485 51.5518Z" fill="black" fill-opacity="0.1"/>
<path d="M29.405 17.7891C28.9111 18.0456 28.8161 18.777 29.234 19.1474C29.4145 19.3184 29.9559 19.3279 43.263 19.3754L57.0926 19.4229L57.7194 19.6318C59.3057 20.1732 60.5499 21.408 61.1008 23.0037C61.3953 23.8586 61.4333 25.1123 61.1863 25.9767C60.7969 27.3254 59.8091 28.5412 58.6028 29.1776C57.311 29.8615 58.2039 29.8235 43.1965 29.8235C31.1811 29.8235 29.6519 29.8425 29.3955 29.966C28.8731 30.2414 28.8066 30.9728 29.2815 31.3432C29.5189 31.5332 29.6424 31.5332 43.263 31.5332C56.6841 31.5332 57.0166 31.5237 57.7954 31.3432C60.2745 30.7448 62.2216 28.8262 62.896 26.3091C63.1145 25.4828 63.1145 23.8301 62.896 22.9372C62.4401 21.0281 60.9584 19.2044 59.1822 18.3685C57.7005 17.6657 58.9542 17.7227 43.51 17.6942C32.4064 17.6752 29.5949 17.6942 29.405 17.7891Z" fill="#239371"/>
<path d="M32.1597 20.9888C32.1597 21.0458 32.2167 21.1883 32.2927 21.3023C32.5682 21.7202 32.9196 22.974 32.9766 23.7623C33.0811 25.1111 32.5872 26.8873 31.8178 27.8941C31.6943 28.0556 31.5898 28.2171 31.5898 28.2551C31.5898 28.2835 37.3268 28.293 44.3461 28.2835L57.0928 28.2551L57.7102 27.9606C59.2204 27.2387 60.0278 25.719 59.7903 24.0473C59.5719 22.5276 58.3751 21.2738 56.8649 20.9888C56.1525 20.8559 32.1597 20.8559 32.1597 20.9888Z" fill="#239371"/>
<path d="M30.7822 33.1563C29.3574 33.3652 28.0467 34.0301 26.9829 35.0939C25.6341 36.4427 25.0452 37.7914 24.9597 39.7196C24.9027 41.1064 25.0832 41.9517 25.6531 43.101C26.3655 44.5162 27.3628 45.5136 28.7875 46.2164C30.3073 46.9668 28.8635 46.9193 48.81 46.9193H66.6478L66.8758 46.6819C67.0468 46.5204 67.1132 46.3494 67.1132 46.093C67.1037 45.694 66.9898 45.4946 66.6668 45.3236C66.5148 45.2381 62.0506 45.2096 48.81 45.2096C33.2802 45.2096 31.0861 45.1906 30.6017 45.0672C28.3316 44.4783 26.6504 42.3506 26.6504 40.0615C26.6504 37.5445 28.3791 35.4264 30.8772 34.904C31.4471 34.7805 34.0211 34.7615 49.0949 34.7615H66.6478L66.8758 34.524C67.0468 34.3625 67.1132 34.1916 67.1132 33.9351C67.1037 33.5362 66.9898 33.3367 66.6668 33.1658C66.4199 33.0328 31.7035 33.0233 30.7822 33.1563Z" fill="#239371"/>
<path d="M31.1903 36.3757C30.06 36.5657 29.0151 37.3635 28.4927 38.4178C28.2458 38.9402 28.2173 39.0732 28.2173 39.9851C28.2173 40.8684 28.2458 41.0489 28.4737 41.5238C28.8252 42.2836 29.4901 42.9675 30.2499 43.338L30.8768 43.6419L47.2804 43.6704C56.3133 43.6799 63.6935 43.6704 63.6935 43.6324C63.6935 43.6039 63.5605 43.3855 63.3991 43.1575C62.6677 42.0842 62.3162 40.9349 62.3257 39.5576C62.3257 38.5698 62.5442 37.62 62.9431 36.8316C63.0381 36.6416 63.1236 36.4327 63.1236 36.3757C63.1236 36.2617 31.8931 36.2617 31.1903 36.3757Z" fill="#239371"/>
<path d="M23.8959 48.5056C23.3165 48.724 23.117 49.5409 23.5444 49.9398L23.7629 50.1488L43.1775 50.1678L62.6015 50.1963L63.2189 50.4147C65.413 51.2126 66.8948 53.2263 66.9992 55.5723C67.0942 57.7854 65.9639 59.4571 63.8078 60.3025L63.1714 60.5495L43.5384 60.5969L23.9054 60.6444L23.6394 60.8439C23.269 61.1194 23.212 61.7842 23.5444 62.0977L23.7724 62.3066L43.6144 62.2876L63.4564 62.2591L64.2922 61.9647C65.432 61.5468 66.0874 61.1478 66.9232 60.312C68.158 59.0867 68.7279 57.662 68.7279 55.8098C68.7279 52.5424 66.7048 49.7689 63.5513 48.7051L62.8865 48.4866L43.4624 48.4676C32.7768 48.4581 23.9719 48.4771 23.8959 48.5056Z" fill="#239371"/>
<path d="M26.7357 52.3509C27.657 54.4026 27.4481 56.8056 26.1753 58.6388L25.8809 59.0757H44.2506C64.52 59.0757 63.1048 59.1137 64.1021 58.4868C65.0994 57.8504 65.5458 56.9101 65.4793 55.5614C65.4413 54.83 65.3939 54.6305 65.0804 54.0036C64.672 53.1678 64.0546 52.5029 63.3042 52.0945L62.7913 51.8095L44.6305 51.781L26.4698 51.762L26.7357 52.3509Z" fill="#239371"/>
</svg>
