<svg width="106" height="29" viewBox="0 0 106 29" fill="none" xmlns="http://www.w3.org/2000/svg">
<rect width="106" height="28.5028" rx="6.01657" fill="url(#paint0_linear_3512_21669)"/>
<path d="M27.6088 15.6407C27.6088 16.0345 27.5103 16.3991 27.3134 16.7346C27.1165 17.0628 26.8248 17.329 26.4383 17.5332C26.0518 17.7301 25.5814 17.8285 25.0271 17.8285C24.4802 17.8285 23.9915 17.7374 23.5613 17.555C23.131 17.3654 22.7846 17.0956 22.522 16.7455C22.2668 16.3955 22.1209 15.9871 22.0845 15.5204H23.7253C23.7618 15.8339 23.8858 16.0965 24.0973 16.308C24.3161 16.5122 24.6041 16.6143 24.9615 16.6143C25.2824 16.6143 25.5267 16.5304 25.6944 16.3627C25.8694 16.1876 25.957 15.9652 25.957 15.6954C25.957 15.4547 25.8877 15.2578 25.7491 15.1047C25.6105 14.9442 25.4355 14.8166 25.224 14.7218C25.0125 14.627 24.7208 14.5176 24.3489 14.3936C23.8676 14.2332 23.4737 14.0764 23.1674 13.9232C22.8612 13.7628 22.5986 13.5331 22.3798 13.2341C22.1683 12.935 22.0626 12.5449 22.0626 12.0636C22.0626 11.3999 22.2996 10.8785 22.7736 10.4992C23.255 10.1127 23.8894 9.91947 24.6771 9.91947C25.4939 9.91947 26.1429 10.1164 26.6242 10.5102C27.1129 10.904 27.39 11.4291 27.4556 12.0854H25.7929C25.7491 11.8083 25.6324 11.5822 25.4428 11.4072C25.2532 11.2249 24.9943 11.1337 24.6661 11.1337C24.3817 11.1337 24.152 11.2103 23.977 11.3634C23.8019 11.5093 23.7144 11.7244 23.7144 12.0089C23.7144 12.2349 23.78 12.4245 23.9113 12.5777C24.0499 12.7236 24.2213 12.8439 24.4255 12.9387C24.637 13.0335 24.9214 13.1392 25.2787 13.2559C25.7746 13.431 26.1757 13.595 26.482 13.7482C26.7956 13.9013 27.0618 14.1311 27.2806 14.4374C27.4994 14.7437 27.6088 15.1448 27.6088 15.6407ZM34.4443 14.4921C34.4443 14.6452 34.4261 14.8202 34.3896 15.0171H29.9483C29.9702 15.5568 30.1161 15.9543 30.3859 16.2095C30.6557 16.4648 30.9912 16.5924 31.3923 16.5924C31.7496 16.5924 32.045 16.5049 32.2784 16.3299C32.519 16.1548 32.6722 15.9178 32.7378 15.6188H34.3678C34.2875 16.0418 34.1162 16.421 33.8536 16.7565C33.5911 17.092 33.252 17.3545 32.8363 17.5441C32.4279 17.7337 31.9721 17.8285 31.4689 17.8285C30.8782 17.8285 30.3531 17.7045 29.8936 17.4566C29.4342 17.2013 29.0768 16.8404 28.8216 16.3736C28.5663 15.9069 28.4387 15.3563 28.4387 14.7218C28.4387 14.0873 28.5663 13.5367 28.8216 13.07C29.0768 12.5959 29.4342 12.2349 29.8936 11.987C30.3531 11.739 30.8782 11.615 31.4689 11.615C32.0669 11.615 32.5883 11.739 33.0332 11.987C33.4853 12.2349 33.8317 12.5777 34.0724 13.0153C34.3204 13.4455 34.4443 13.9378 34.4443 14.4921ZM32.891 14.3389C32.9128 13.843 32.7816 13.4674 32.4972 13.2122C32.22 12.9569 31.8773 12.8293 31.4689 12.8293C31.0532 12.8293 30.7031 12.9569 30.4187 13.2122C30.1343 13.4674 29.9775 13.843 29.9483 14.3389H32.891ZM41.2386 14.4921C41.2386 14.6452 41.2204 14.8202 41.1839 15.0171H36.7426C36.7645 15.5568 36.9103 15.9543 37.1802 16.2095C37.45 16.4648 37.7855 16.5924 38.1866 16.5924C38.5439 16.5924 38.8393 16.5049 39.0727 16.3299C39.3133 16.1548 39.4665 15.9178 39.5321 15.6188H41.162C41.0818 16.0418 40.9104 16.421 40.6479 16.7565C40.3854 17.092 40.0462 17.3545 39.6306 17.5441C39.2222 17.7337 38.7664 17.8285 38.2632 17.8285C37.6724 17.8285 37.1474 17.7045 36.6879 17.4566C36.2285 17.2013 35.8711 16.8404 35.6159 16.3736C35.3606 15.9069 35.233 15.3563 35.233 14.7218C35.233 14.0873 35.3606 13.5367 35.6159 13.07C35.8711 12.5959 36.2285 12.2349 36.6879 11.987C37.1474 11.739 37.6724 11.615 38.2632 11.615C38.8612 11.615 39.3826 11.739 39.8275 11.987C40.2796 12.2349 40.626 12.5777 40.8667 13.0153C41.1146 13.4455 41.2386 13.9378 41.2386 14.4921ZM39.6853 14.3389C39.7071 13.843 39.5759 13.4674 39.2914 13.2122C39.0143 12.9569 38.6716 12.8293 38.2632 12.8293C37.8475 12.8293 37.4974 12.9569 37.213 13.2122C36.9286 13.4674 36.7718 13.843 36.7426 14.3389H39.6853ZM49.4197 16.1986H46.3239L45.7769 17.752H44.147L46.9912 10.1164H48.7524L51.5857 17.752H49.9557L49.4197 16.1986ZM49.004 15.0281L47.8663 11.7682L46.7287 15.0281H49.004ZM53.9606 9.65693V17.752H52.4182V9.65693H53.9606ZM56.8984 9.65693V17.752H55.3559V9.65693H56.8984ZM65.4674 10.0289V11.2541H62.2184V13.3216H64.822V14.503H62.2184V17.752H60.676V10.0289H65.4674ZM66.3338 9.95228C66.3338 9.70433 66.4213 9.50378 66.5963 9.35063C66.7714 9.19019 67.0011 9.10996 67.2855 9.10996C67.5699 9.10996 67.7997 9.19019 67.9747 9.35063C68.1497 9.50378 68.2372 9.70433 68.2372 9.95228C68.2372 10.1929 68.1497 10.3935 67.9747 10.5539C67.7997 10.7071 67.5699 10.7837 67.2855 10.7837C67.0011 10.7837 66.7714 10.7071 66.5963 10.5539C66.4213 10.3935 66.3338 10.1929 66.3338 9.95228ZM68.0513 11.6916V17.752H66.5088V11.6916H68.0513ZM70.989 9.65693V17.752H69.4466V9.65693H70.989ZM78.0837 14.4921C78.0837 14.6452 78.0655 14.8202 78.029 15.0171H73.5877C73.6096 15.5568 73.7554 15.9543 74.0253 16.2095C74.2951 16.4648 74.6306 16.5924 75.0317 16.5924C75.389 16.5924 75.6844 16.5049 75.9178 16.3299C76.1584 16.1548 76.3116 15.9178 76.3772 15.6188H78.0072C77.9269 16.0418 77.7556 16.421 77.493 16.7565C77.2305 17.092 76.8914 17.3545 76.4757 17.5441C76.0673 17.7337 75.6115 17.8285 75.1083 17.8285C74.5175 17.8285 73.9925 17.7045 73.533 17.4566C73.0736 17.2013 72.7162 16.8404 72.461 16.3736C72.2057 15.9069 72.0781 15.3563 72.0781 14.7218C72.0781 14.0873 72.2057 13.5367 72.461 13.07C72.7162 12.5959 73.0736 12.2349 73.533 11.987C73.9925 11.739 74.5175 11.615 75.1083 11.615C75.7063 11.615 76.2277 11.739 76.6726 11.987C77.1247 12.2349 77.4711 12.5777 77.7118 13.0153C77.9598 13.4455 78.0837 13.9378 78.0837 14.4921ZM76.5304 14.3389C76.5522 13.843 76.421 13.4674 76.1366 13.2122C75.8594 12.9569 75.5167 12.8293 75.1083 12.8293C74.6926 12.8293 74.3425 12.9569 74.0581 13.2122C73.7737 13.4674 73.6169 13.843 73.5877 14.3389H76.5304ZM81.2681 11.615C82.0046 11.615 82.5954 11.801 83.0402 12.1729C83.4851 12.5449 83.7622 13.0408 83.8716 13.6607H82.4276C82.3693 13.369 82.238 13.1356 82.0338 12.9606C81.8296 12.7855 81.5634 12.698 81.2353 12.698C80.9727 12.698 80.7685 12.76 80.6227 12.884C80.4768 13.008 80.4039 13.1757 80.4039 13.3872C80.4039 13.5549 80.4622 13.6899 80.5789 13.792C80.6956 13.8941 80.8414 13.9743 81.0165 14.0326C81.1915 14.091 81.4431 14.1602 81.7713 14.2405C82.2307 14.3426 82.6027 14.452 82.8871 14.5686C83.1788 14.678 83.4267 14.8567 83.6309 15.1047C83.8424 15.3453 83.9482 15.6735 83.9482 16.0892C83.9482 16.607 83.744 17.0263 83.3356 17.3472C82.9345 17.6681 82.3912 17.8285 81.7056 17.8285C80.918 17.8285 80.2872 17.6535 79.8132 17.3034C79.3391 16.9461 79.0511 16.4392 78.949 15.7829H80.4258C80.4622 16.0819 80.5935 16.3189 80.8196 16.4939C81.0456 16.6617 81.341 16.7455 81.7056 16.7455C81.9682 16.7455 82.1687 16.6836 82.3073 16.5596C82.4459 16.4283 82.5151 16.2606 82.5151 16.0564C82.5151 15.8813 82.4532 15.7391 82.3292 15.6297C82.2125 15.5204 82.063 15.4365 81.8807 15.3781C81.7056 15.3198 81.454 15.2505 81.1259 15.1703C80.6737 15.0682 80.3054 14.9661 80.021 14.864C79.7439 14.7546 79.5032 14.5832 79.299 14.3499C79.1021 14.1165 79.0037 13.7956 79.0037 13.3872C79.0037 12.8621 79.2042 12.4355 79.6053 12.1073C80.0064 11.7791 80.5607 11.615 81.2681 11.615Z" fill="white"/>
<defs>
<linearGradient id="paint0_linear_3512_21669" x1="4.93601e-07" y1="14.2514" x2="106" y2="14.2514" gradientUnits="userSpaceOnUse">
<stop stop-color="#239371"/>
<stop offset="0.261667" stop-color="#34B58D"/>
<stop offset="0.731667" stop-color="#34B58D"/>
<stop offset="1" stop-color="#239371"/>
</linearGradient>
</defs>
</svg>
