<svg width="25" height="26" viewBox="0 0 25 26" fill="none" xmlns="http://www.w3.org/2000/svg">
<path d="M5.04783 0.0401344C4.69499 0.147947 4.42056 0.388077 4.29314 0.691912C4.22944 0.834028 4.21474 1.07416 4.21474 1.78474V2.69135H3.0974C1.88696 2.69135 1.63703 2.72565 1.16167 2.96578C0.661814 3.22061 0.181557 3.84299 0.0541418 4.41145C0.0198377 4.55357 0.000235419 7.78795 0.000235419 13.7667C0.000235419 23.8276 -0.0193669 23.1464 0.299171 23.808C0.514796 24.2392 0.975451 24.6999 1.4018 24.9008L1.73994 25.0625H12.1047H22.4694L22.8075 24.9008C23.2339 24.6999 23.6945 24.2392 23.9102 23.808C24.2287 23.1464 24.2091 23.8276 24.2091 13.7667C24.2091 7.78795 24.1895 4.55357 24.1552 4.41145C24.0278 3.84299 23.5475 3.22061 23.0477 2.96578C22.5723 2.72565 22.3224 2.69135 21.1119 2.69135H19.9946V1.78474C19.9946 0.794825 19.9652 0.638006 19.7104 0.373375C19.6369 0.294966 19.4898 0.182251 19.382 0.128345C19.1958 0.0254326 19.1076 0.0205326 17.8874 0.00583076C16.4956 -0.0137711 16.3339 0.00583076 16.0741 0.226357C15.7605 0.486088 15.7311 0.618402 15.7311 1.71123V2.69135H12.1047H8.47824V1.71123C8.47824 0.647806 8.44884 0.51059 8.1744 0.25576C7.91957 0.0156326 7.78726 -0.0039711 6.4347 0.000930786C5.73882 0.000930786 5.11644 0.0205326 5.04783 0.0401344ZM7.2531 2.86287V4.50456H6.42H5.5869V2.86287V1.22117H6.42H7.2531V2.86287ZM18.7205 2.86287V4.50456H17.8138H16.9072V2.86287V1.22117H17.8138H18.7205V2.86287ZM4.21474 4.34284C4.21474 4.55357 4.23924 4.8084 4.26864 4.91621C4.33725 5.17104 4.65089 5.49938 4.96452 5.6366C5.20955 5.74931 5.26346 5.75421 6.4445 5.75421C7.60594 5.75421 7.67945 5.74931 7.86567 5.6464C8.32632 5.39647 8.47824 5.10243 8.47824 4.43106V3.9655H12.1047H15.7311V4.43106C15.7311 5.10243 15.883 5.39647 16.3437 5.6464C16.5299 5.74931 16.6034 5.75421 17.7648 5.75421C18.9459 5.75421 18.9998 5.74931 19.2448 5.6366C19.5585 5.49938 19.8721 5.17104 19.9407 4.91621C19.9701 4.8084 19.9946 4.55357 19.9946 4.34284V3.9655H21.0972C22.3126 3.9655 22.3616 3.9753 22.6801 4.27424C22.9644 4.54377 22.984 4.70549 22.984 6.67062V8.42503H12.1047H1.22538V6.67062C1.22538 4.70549 1.24498 4.54377 1.52922 4.27424C1.84775 3.9753 1.88206 3.9704 3.1023 3.9655H4.21474V4.34284ZM22.9742 16.2513C22.9595 22.2104 22.9497 22.8278 22.8761 23.019C22.7438 23.3718 22.5527 23.6021 22.2832 23.7393L22.0332 23.8619H12.1047H2.17609L1.92616 23.7393C1.65663 23.6021 1.46551 23.3718 1.33319 23.019C1.25968 22.8278 1.24988 22.2104 1.23518 16.2513L1.22538 9.69918H12.1047H22.984L22.9742 16.2513Z" fill="white"/>
<path d="M11.4185 11.3451C11.3107 11.4383 11.0754 11.8695 10.5854 12.8741C10.208 13.6435 9.8895 14.2806 9.8846 14.2904C9.8748 14.2953 9.15931 14.4129 8.28701 14.5403C6.5669 14.8001 6.5032 14.8197 6.38068 15.148C6.33168 15.2803 6.32678 15.3636 6.36598 15.5155C6.41989 15.7116 6.39048 15.6773 8.2184 17.466L8.71826 17.956L8.45363 19.4262C8.30661 20.2348 8.1841 20.9699 8.1841 21.0581C8.1841 21.2835 8.30661 21.4942 8.48793 21.5874C8.78687 21.7393 8.98779 21.6707 10.4482 20.9062L11.8007 20.1956L13.1582 20.9013C14.6578 21.6854 14.8391 21.7442 15.1331 21.558C15.2213 21.504 15.3291 21.3766 15.3732 21.2737C15.4468 21.0973 15.4419 21.0336 15.1674 19.5193L14.8881 17.9413L15.5448 17.314C15.9025 16.9661 16.4024 16.481 16.6523 16.2408C17.1669 15.7459 17.2502 15.6233 17.2502 15.3391C17.2502 15.1039 17.0345 14.8197 16.8189 14.7755C16.7454 14.7559 16.025 14.6481 15.2213 14.5256C14.4127 14.4031 13.7463 14.2953 13.7365 14.2855C13.7267 14.2806 13.4032 13.6288 13.0112 12.8447C12.4133 11.6343 12.281 11.399 12.1438 11.3157C11.9085 11.1736 11.6096 11.1834 11.4185 11.3451ZM12.3349 14.3296C12.6534 14.9667 12.8789 15.3587 12.9573 15.4077C13.0308 15.4567 13.4816 15.54 14.1726 15.6381L15.2703 15.79L14.5058 16.5251C14.0893 16.9269 13.7021 17.3386 13.6531 17.4317L13.5551 17.6081L13.7414 18.7009C13.8443 19.3037 13.9178 19.8133 13.9031 19.828C13.8884 19.8427 13.4571 19.6271 12.9426 19.3527C11.982 18.8381 11.8056 18.7842 11.5165 18.9018C11.4479 18.9312 11.0068 19.1616 10.5364 19.4213C10.0659 19.6761 9.67877 19.882 9.67387 19.8771C9.66897 19.8722 9.73758 19.436 9.83069 18.9116C9.9189 18.3873 9.99731 17.8335 9.99731 17.6865L10.0022 17.417L9.16421 16.6035L8.33111 15.79L9.43374 15.6381C10.159 15.5351 10.5756 15.4567 10.6589 15.4028C10.7422 15.3489 10.9529 14.9863 11.2862 14.3247C11.5606 13.7758 11.7958 13.325 11.8105 13.325C11.8252 13.325 12.0605 13.7758 12.3349 14.3296Z" fill="white"/>
</svg>
