<svg width="46" height="49" viewBox="0 0 46 49" fill="none" xmlns="http://www.w3.org/2000/svg">
<path d="M6.90813 0.256771C6.26488 0.65102 6.10926 0.972645 6.10926 1.95827V2.81939H4.36626C3.03826 2.81939 2.49877 2.86089 2.13564 2.98539C1.51314 3.19289 0.672771 3.95026 0.320022 4.62463L0.0398977 5.15376L0.00877276 25.6132C-0.0119772 45.9896 -0.0119772 46.0726 0.195522 46.6329C0.475647 47.3903 1.10852 48.075 1.83477 48.4381L2.42614 48.7286H22.7092H42.9923L43.5837 48.4381C44.3099 48.075 44.9428 47.3903 45.2229 46.6329C45.4304 46.0726 45.4304 45.9896 45.4097 25.6132L45.3785 5.15376L45.0984 4.62463C44.7457 3.95026 43.9053 3.19289 43.2828 2.98539C42.9197 2.86089 42.3802 2.81939 41.0522 2.81939H39.3092V1.97902C39.3092 0.972645 39.1328 0.60952 38.4792 0.236019C38.1057 0.0285225 37.9397 -0.00260544 37.2342 0.0388947C36.2693 0.0803947 35.958 0.256771 35.6053 0.951893C35.4289 1.29427 35.3667 1.58477 35.3667 2.11389V2.81939H33.7586H32.1504V1.99976C32.1504 1.08677 31.9637 0.682144 31.3308 0.256771C30.8224 -0.0856056 29.5359 -0.0856056 29.0276 0.256771C28.3947 0.682144 28.2079 1.08677 28.2079 1.99976V2.81939H22.7092H17.2105V1.99976C17.2105 1.08677 17.0237 0.682144 16.3909 0.256771C15.8825 -0.0856056 14.596 -0.0856056 14.0876 0.256771C13.4547 0.682144 13.268 1.08677 13.268 1.99976V2.81939H11.6599H10.0517V2.11389C10.0517 1.58477 9.9895 1.29427 9.8235 0.951893C9.46037 0.246395 9.14912 0.0803947 8.15313 0.0388947C7.40613 0.00777054 7.2505 0.0388947 6.90813 0.256771ZM8.6615 1.37727C8.77562 1.47064 8.80675 1.87527 8.80675 3.34851C8.80675 5.44426 8.786 5.51688 8.05975 5.51688C7.28163 5.51688 7.2505 5.42351 7.2505 3.39001C7.2505 1.58477 7.292 1.36689 7.6655 1.22164C7.88338 1.13864 8.48513 1.23202 8.6615 1.37727ZM15.7684 1.35652C16.007 1.55364 16.0174 1.60551 16.0485 3.25514C16.0796 5.37163 16.0485 5.465 15.2392 5.465C14.43 5.465 14.3989 5.37163 14.43 3.25514C14.4611 1.60551 14.4715 1.55364 14.7101 1.35652C14.845 1.25277 15.0836 1.15939 15.2392 1.15939C15.3949 1.15939 15.6335 1.25277 15.7684 1.35652ZM30.7083 1.35652C30.9469 1.55364 30.9573 1.60551 30.9884 3.25514C31.0196 5.37163 30.9884 5.465 30.1792 5.465C29.3699 5.465 29.3388 5.37163 29.3699 3.25514C29.4011 1.60551 29.4114 1.55364 29.6501 1.35652C29.7849 1.25277 30.0236 1.15939 30.1792 1.15939C30.3348 1.15939 30.5734 1.25277 30.7083 1.35652ZM38.033 1.43952C38.1264 1.56402 38.1679 2.12426 38.1679 3.37963C38.1679 5.41313 38.1264 5.51688 37.3794 5.51688C36.6221 5.51688 36.6013 5.45463 36.6324 3.30701L36.6636 1.42914L36.9229 1.28389C37.2445 1.11789 37.867 1.20089 38.033 1.43952ZM6.10926 4.78026C6.10926 5.44426 6.15076 5.65176 6.34788 5.93188C6.74213 6.52325 7.05338 6.67888 7.89375 6.73075C8.54738 6.77225 8.71338 6.74113 9.10762 6.53363C9.76125 6.18088 10.0517 5.61026 10.0517 4.66613V3.96064H11.6495H13.2472L13.2784 4.83213C13.3302 5.85925 13.4962 6.16013 14.2017 6.52325C15.1044 6.99013 16.4116 6.74113 16.9407 6.00451C17.1067 5.77626 17.169 5.51688 17.2001 4.83213L17.2312 3.96064H22.7092H28.1872L28.2183 4.83213C28.2702 5.85925 28.4362 6.16013 29.1417 6.52325C30.0443 6.99013 31.3516 6.74113 31.8807 6.00451C32.0467 5.77626 32.1089 5.51688 32.1401 4.83213L32.1712 3.96064H33.7689H35.3667V4.66613C35.3667 5.61026 35.6572 6.18088 36.3108 6.53363C36.7051 6.74113 36.871 6.77225 37.5247 6.73075C38.365 6.67888 38.6763 6.52325 39.0809 5.93188C39.2677 5.65176 39.3092 5.44426 39.3092 4.78026V3.96064H40.7928C42.5047 3.96064 42.9093 4.05401 43.4592 4.54163C44.1232 5.14338 44.2165 5.465 44.2684 7.2495L44.3099 8.83687H22.7092H1.10852L1.15002 7.2495C1.20189 5.49613 1.28489 5.18488 1.89702 4.59351C2.43652 4.06438 2.85152 3.97101 4.58414 3.96064H6.10926V4.78026ZM44.2684 27.9994C44.2373 45.2738 44.2269 45.9378 44.0402 46.2905C43.7704 46.7989 43.4695 47.1101 42.9923 47.3591L42.5773 47.5874H22.7092C3.51551 47.5874 2.83077 47.577 2.47802 47.3903C1.96964 47.1205 1.65839 46.8196 1.40939 46.3424L1.18114 45.9274L1.15002 27.9994L1.12927 10.0819H22.7092H44.2892L44.2684 27.9994Z" fill="url(#paint0_linear_144_189)"/>
<path d="M20.0118 14.0763L17.5737 16.5144H14.1395C10.9441 16.5144 10.6951 16.5248 10.5394 16.7011C10.3838 16.8775 10.3631 17.2718 10.3631 20.3116V23.7146L7.92494 26.1631C6.11969 27.9787 5.48682 28.6739 5.48682 28.8606C5.48682 29.037 6.11969 29.7425 7.92494 31.5581L10.3631 34.0066V37.3785C10.3631 40.1278 10.3942 40.7918 10.5083 40.9578C10.6536 41.1446 10.8299 41.1549 14.1188 41.1861L17.5737 41.2172L19.9599 43.5931C22.149 45.7718 22.3876 45.9793 22.7093 45.9793C23.0309 45.9793 23.2695 45.7718 25.4586 43.5931L27.8449 41.2172L31.2998 41.1861C34.5886 41.1549 34.765 41.1446 34.9102 40.9578C35.0244 40.7918 35.0555 40.1278 35.0555 37.3785V34.0066L37.4936 31.5581C39.3507 29.6906 39.9317 29.0474 39.9317 28.8502C39.9317 28.6635 39.3507 28.0202 37.4936 26.1631L35.0555 23.725V20.2805C35.0555 17.2925 35.0347 16.8153 34.8895 16.6804C34.7546 16.5351 34.2774 16.5144 31.2894 16.5144H27.8449L25.4068 14.0763C23.5185 12.188 22.9168 11.6381 22.7093 11.6381C22.5018 11.6381 21.9 12.188 20.0118 14.0763ZM24.9918 15.425L27.2328 17.6556H30.5216H33.8001L33.8312 20.9756L33.8624 24.2956L36.1449 26.5781L38.4274 28.8606L36.1137 31.1742L33.8105 33.4878V36.7248V39.9618H30.5735H27.3261L25.0229 42.2651L22.7093 44.5787L20.3957 42.2651L18.0924 39.9618H14.845H11.6081V36.7248V33.4878L9.30481 31.1742L6.99119 28.8606L9.27368 26.5781L11.5562 24.2956L11.5873 20.9756L11.6184 17.6556H14.8969H18.1858L20.4268 15.425C21.651 14.2008 22.6781 13.1944 22.7093 13.1944C22.73 13.1944 23.7675 14.2008 24.9918 15.425Z" fill="url(#paint1_linear_144_189)"/>
<path d="M20.8418 20.2597C17.2417 20.5709 14.0669 23.424 13.3303 27.0242C12.3758 31.6203 15.2186 36.1126 19.7732 37.2331C20.7795 37.4718 22.7404 37.4718 23.7468 37.2228C25.3342 36.8285 27.1394 35.791 28.1146 34.6913C28.8305 33.8924 29.3493 33.0209 29.3493 32.6266C29.3493 32.0768 29.0588 32.0042 27.9383 32.2843C25.8425 32.8134 23.8713 32.2843 22.3877 30.8007C21.1842 29.5972 20.5824 28.1239 20.5824 26.4224C20.5928 25.1878 20.8418 24.3163 21.4747 23.3618C21.9 22.7289 22.8027 21.8471 23.3422 21.5254C23.9232 21.1831 23.8713 20.5191 23.2488 20.3634C22.6782 20.2182 21.7133 20.1767 20.8418 20.2597ZM21.0078 21.9301C20.489 22.5214 19.7939 23.7768 19.6072 24.4512C19.2025 25.8829 19.2855 27.5948 19.8354 29.068C20.2504 30.1574 20.738 30.894 21.5888 31.7344C22.9168 33.0416 24.4004 33.6538 26.2783 33.6745L27.3988 33.6849L26.797 34.2348C26.0085 34.9506 25.0437 35.5213 24.0062 35.874C23.2799 36.1334 23.0205 36.1645 21.8793 36.1645C20.8314 36.1749 20.4268 36.123 19.7524 35.9363C17.1898 35.1996 15.3638 33.3633 14.6479 30.8214C14.3574 29.7735 14.3886 27.6882 14.6998 26.6818C15.1044 25.3953 15.6128 24.5445 16.5362 23.6108C17.3662 22.7808 18.3933 22.1376 19.4308 21.8056C19.7524 21.7018 21.0182 21.4424 21.3917 21.4009C21.4435 21.3906 21.2672 21.6396 21.0078 21.9301Z" fill="url(#paint2_linear_144_189)"/>
<path d="M26.776 21.982C26.7034 22.0131 26.4129 22.4903 26.1327 23.0506C25.8319 23.642 25.5414 24.0985 25.4376 24.1192C25.3339 24.1503 24.8359 24.2333 24.3275 24.306C23.1966 24.4512 22.9165 24.6587 22.9165 25.3435C22.9165 25.7377 22.9788 25.8311 23.705 26.5885L24.5039 27.3977L24.3586 28.3626C24.1823 29.5246 24.203 29.7736 24.5039 30.0745C24.9189 30.4895 25.1679 30.4687 26.2987 29.9085L27.3466 29.4001L28.2181 29.867C29.2867 30.448 29.764 30.4998 30.1375 30.0745C30.428 29.7321 30.4487 29.452 30.2309 28.2381L30.0649 27.3562L30.7807 26.6818C31.8286 25.6962 31.9635 25.3123 31.4759 24.7313C31.2476 24.4512 31.1127 24.4097 30.3035 24.2956C29.8055 24.2333 29.3179 24.1503 29.2141 24.1192C29.1104 24.0985 28.8406 23.6938 28.6124 23.227C28.0417 22.0857 27.8654 21.9094 27.3362 21.9197C27.0976 21.9197 26.8486 21.9509 26.776 21.982ZM28.4464 25.1775C28.6331 25.2501 29.0689 25.3435 29.432 25.385C29.7847 25.4265 30.0752 25.4783 30.0752 25.5198C30.0752 25.551 29.8159 25.8415 29.515 26.1631C29.2037 26.4951 28.9132 26.8686 28.8821 27.0138C28.851 27.1487 28.8821 27.6467 28.9651 28.1136L29.1104 28.954L28.3634 28.539C27.9587 28.3211 27.4919 28.1343 27.3362 28.1343C27.191 28.1343 26.7345 28.3003 26.3299 28.5078C25.9252 28.705 25.5725 28.8502 25.5517 28.8295C25.531 28.8087 25.5517 28.539 25.614 28.2381C25.8319 27.0865 25.7904 26.8997 25.0952 26.215C24.7529 25.8726 24.4727 25.5717 24.4727 25.5302C24.4727 25.4887 24.784 25.4265 25.1782 25.385C26.2469 25.2708 26.444 25.1463 26.9005 24.2126L27.2947 23.4137L27.7097 24.223C28.0314 24.8662 28.187 25.0633 28.4464 25.1775Z" fill="url(#paint3_linear_144_189)"/>
<defs>
<linearGradient id="paint0_linear_144_189" x1="3.37187" y1="7.15872" x2="40.3586" y2="45.6499" gradientUnits="userSpaceOnUse">
<stop offset="0.34" stop-color="#386641"/>
<stop offset="1" stop-color="#6A994E"/>
</linearGradient>
<linearGradient id="paint1_linear_144_189" x1="8.04401" y1="16.6832" x2="33.9645" y2="45.7114" gradientUnits="userSpaceOnUse">
<stop offset="0.34" stop-color="#386641"/>
<stop offset="1" stop-color="#6A994E"/>
</linearGradient>
<linearGradient id="paint2_linear_144_189" x1="14.3489" y1="22.7433" x2="27.3928" y2="36.4683" gradientUnits="userSpaceOnUse">
<stop offset="0.34" stop-color="#386641"/>
<stop offset="1" stop-color="#6A994E"/>
</linearGradient>
<linearGradient id="paint3_linear_144_189" x1="23.5721" y1="23.1594" x2="29.9078" y2="30.5595" gradientUnits="userSpaceOnUse">
<stop offset="0.34" stop-color="#386641"/>
<stop offset="1" stop-color="#6A994E"/>
</linearGradient>
</defs>
</svg>
