<svg width="20" height="20" viewBox="0 0 20 20" fill="none" xmlns="http://www.w3.org/2000/svg">
<path d="M0.959983 0.102025C0.60499 0.242023 0.239996 0.607017 0.104998 0.97201C0.00499991 1.24201 0 1.332 0 4.39695C0 7.4619 0.00499991 7.5519 0.104998 7.82189C0.244996 8.19189 0.60499 8.55188 0.974983 8.69188C1.24498 8.79188 1.33498 8.79688 4.39992 8.79688C7.46487 8.79688 7.55487 8.79188 7.82486 8.69188C8.19486 8.55188 8.55485 8.19189 8.69485 7.82189C8.79485 7.5519 8.79985 7.4619 8.79985 4.39695C8.79985 1.332 8.79485 1.24201 8.69485 0.97201C8.55485 0.602016 8.19486 0.242023 7.82486 0.102025C7.55487 -0.00297356 7.46987 -0.00297356 4.38492 0.00202656C1.32998 0.00202656 1.21498 0.00702667 0.959983 0.102025Z" fill="#239371"/>
<path d="M12.1597 0.102025C11.8047 0.242023 11.4397 0.607017 11.3047 0.97201C11.2047 1.24201 11.1997 1.332 11.1997 4.39695C11.1997 7.4619 11.2047 7.5519 11.3047 7.82189C11.4447 8.19189 11.8047 8.55188 12.1747 8.69188C12.4447 8.79188 12.5347 8.79688 15.5996 8.79688C18.6646 8.79688 18.7546 8.79188 19.0246 8.69188C19.3946 8.55188 19.7546 8.19189 19.8946 7.82189C19.9946 7.5519 19.9996 7.4619 19.9996 4.39695C19.9996 1.332 19.9946 1.24201 19.8946 0.97201C19.7546 0.602016 19.3946 0.242023 19.0246 0.102025C18.7546 -0.00297356 18.6696 -0.00297356 15.5846 0.00202656C12.5297 0.00202656 12.4147 0.00702667 12.1597 0.102025Z" fill="#239371"/>
<path d="M0.959983 11.3012C0.60499 11.4412 0.239996 11.8062 0.104998 12.1712C0.00499991 12.4412 0 12.5312 0 15.5962C0 18.6611 0.00499991 18.7511 0.104998 19.0211C0.244996 19.3911 0.60499 19.7511 0.974983 19.8911C1.24498 19.9911 1.33498 19.9961 4.39992 19.9961C7.46487 19.9961 7.55487 19.9911 7.82486 19.8911C8.19486 19.7511 8.55485 19.3911 8.69485 19.0211C8.79485 18.7511 8.79985 18.6611 8.79985 15.5962C8.79985 12.5312 8.79485 12.4412 8.69485 12.1712C8.55485 11.8012 8.19486 11.4412 7.82486 11.3012C7.55487 11.1962 7.46987 11.1962 4.38492 11.2012C1.32998 11.2012 1.21498 11.2062 0.959983 11.3012Z" fill="#239371"/>
<path d="M14.5746 11.2918C13.0096 11.6918 11.8796 12.7468 11.3696 14.2968C11.2396 14.6918 11.2296 14.7768 11.2246 15.5718C11.2246 16.2617 11.2446 16.4817 11.3196 16.7467C11.7696 18.2917 12.9046 19.4267 14.4496 19.8767C14.7145 19.9517 14.9345 19.9717 15.6245 19.9717C16.4195 19.9667 16.5045 19.9567 16.8995 19.8267C18.4695 19.3117 19.5645 18.1217 19.9195 16.5517C20.0345 16.0417 20.0245 15.0868 19.8995 14.5468C19.5245 12.9768 18.2195 11.6718 16.6495 11.2968C16.0895 11.1668 15.0845 11.1618 14.5746 11.2918Z" fill="#239371"/>
</svg>
