<svg width="36" height="49" viewBox="0 0 36 49" fill="none" xmlns="http://www.w3.org/2000/svg">
<path d="M9.79556 0.207184C9.62602 0.329628 9.39055 0.546261 9.28695 0.687542C9.08915 0.951271 9.08915 1.02662 9.06089 7.49734L9.03264 14.034H6.84747C4.85069 14.034 4.63405 14.0528 4.36091 14.2224C4.19137 14.3166 3.99357 14.5049 3.90881 14.6368C3.82404 14.7592 2.91041 16.756 1.87434 19.0542L0 23.255V27.8985C0.00941881 31.5624 0.0282564 32.5796 0.131863 32.7021C0.452103 33.1259 1.19619 33.0788 1.4034 32.6267C1.47875 32.4666 1.50701 31.1574 1.50701 28.3035V24.2063H17.8015H34.0961V35.5089V46.8114H17.8015H1.50701V41.0754C1.50701 35.4241 1.50701 35.3393 1.30921 35.0944C1.05491 34.7742 0.480359 34.746 0.188376 35.0568C0 35.2546 0 35.3582 0 41.2355C0 47.1223 0 47.2165 0.197795 47.565C0.602804 48.2902 -1.04549 48.2243 17.8015 48.2243C36.6486 48.2243 35.0003 48.2902 35.4053 47.565L35.6031 47.207V35.2263V23.2456L33.7288 19.0542C32.6927 16.756 31.7791 14.7592 31.6943 14.6368C31.6095 14.5049 31.4117 14.3166 31.2422 14.2224C30.969 14.0528 30.7524 14.034 28.7556 14.034H26.5705L26.5422 7.49734C26.5139 1.02662 26.5139 0.951271 26.3162 0.687542C26.2125 0.546261 25.9771 0.329628 25.8075 0.207184L25.4967 -3.05176e-05H17.8015H10.1064L9.79556 0.207184ZM25.0352 9.90855L25.054 18.3666H24.4418H23.8296V14.3731V10.3701L23.6224 10.1346C23.3116 9.79553 22.8218 9.76727 22.511 10.0781C22.332 10.257 22.3226 10.3889 22.3226 14.3166V18.3666H17.8015H13.2805V11.3496V4.33262H17.8015H22.3226V5.97149C22.3226 7.44083 22.3414 7.6292 22.5015 7.827C22.7558 8.14724 23.3963 8.13782 23.66 7.81758C23.8296 7.61037 23.839 7.45967 23.8107 5.64184C23.7825 3.45667 23.7448 3.33423 23.0667 2.98573C22.7747 2.83503 22.3603 2.82561 17.6885 2.84445C12.7436 2.87271 12.6306 2.87271 12.3669 3.0705C12.2256 3.17411 12.0278 3.40958 11.943 3.58854C11.7829 3.88052 11.7735 4.44564 11.7735 11.133V18.3666H11.1613H10.5491V9.95565C10.5491 5.32159 10.5773 1.50698 10.615 1.47872C10.6433 1.44105 13.9022 1.42221 17.8392 1.43163L25.0069 1.45988L25.0352 9.90855ZM9.04206 16.9538V18.3666H8.45809C7.98715 18.3666 7.83645 18.4043 7.65749 18.5739C7.35609 18.8564 7.36551 19.3368 7.67633 19.6382L7.90238 19.8737H17.8015H27.7007L27.9268 19.6382C28.2282 19.3462 28.2376 18.8847 27.955 18.5833C27.7855 18.4043 27.6536 18.3666 27.1544 18.3666H26.561V16.9538V15.541H28.5202H30.4793L32.0522 19.0542C32.9187 20.9851 33.6251 22.5957 33.6251 22.6334C33.6251 22.671 26.5045 22.6993 17.8015 22.6993C9.09857 22.6993 1.97795 22.671 1.97795 22.6334C1.97795 22.6051 2.68436 20.9945 3.55089 19.0542L5.12383 15.541H7.08294H9.04206V16.9538Z" fill="url(#paint0_linear_144_204)"/>
<path d="M16.6993 10.7185C14.6837 11.4344 13.7607 13.7043 14.712 15.5786C15.0039 16.1438 15.7009 16.8313 16.2849 17.1139C16.7558 17.3494 16.916 17.3776 17.8013 17.3776C18.6867 17.3776 18.8468 17.3494 19.3178 17.1139C19.9111 16.8313 20.5987 16.1438 20.9001 15.5598C21.0037 15.3432 21.145 14.8816 21.2109 14.5237C21.4653 13.0167 20.6458 11.5003 19.2142 10.8504C18.5172 10.5207 17.4057 10.4642 16.6993 10.7185ZM18.8562 12.3951C19.6003 12.9131 19.9206 13.8173 19.638 14.5991C19.0164 16.3604 16.5486 16.3416 15.9552 14.5802C15.6444 13.6289 16.1625 12.5646 17.142 12.1596C17.2739 12.1031 17.6224 12.0748 17.9238 12.0843C18.3382 12.1125 18.5548 12.1784 18.8562 12.3951Z" fill="url(#paint1_linear_144_204)"/>
<path d="M16.4074 26.3821C15.3525 26.561 13.8549 27.1732 12.9036 27.8137C10.9916 29.1041 9.67298 31.0161 9.07959 33.3426C8.93831 33.9077 8.90063 34.3598 8.91005 35.556C8.91947 37.355 9.07959 38.052 9.786 39.5119C11.0387 42.0738 13.1768 43.7786 15.9836 44.4756C17.2269 44.777 19.1106 44.7581 20.3822 44.4285C23.0571 43.7221 25.2328 41.9231 26.4196 39.4459C26.8058 38.6359 26.834 38.2592 26.5326 37.9766C26.1747 37.6375 25.7886 37.7035 25.1198 38.2121C21.9457 40.6515 17.4906 39.6155 15.7199 36.0269C14.2694 33.0882 15.3714 29.575 18.2723 27.8796C18.6208 27.6724 18.9317 27.437 18.9693 27.3522C19.0918 27.0414 19.0259 26.6835 18.8092 26.4857C18.6114 26.3067 18.489 26.2784 17.7449 26.2879C17.2834 26.2973 16.6806 26.335 16.4074 26.3821ZM15.296 28.3694C15.2489 28.4354 15.0794 28.6897 14.9098 28.9251C14.5142 29.4808 13.9962 30.5923 13.8078 31.3175C13.5818 32.1369 13.5158 33.6628 13.6571 34.5387C14.0433 36.9688 15.5315 39.0315 17.7072 40.1618C18.7527 40.7081 19.6946 40.9624 20.8625 41.0377C21.7479 41.0848 23.0383 40.9435 23.594 40.7269C23.7541 40.6704 23.7541 40.6892 23.5469 40.9153C22.8216 41.7159 21.1074 42.6766 19.8265 43.0063C18.8657 43.2511 17.1421 43.2323 16.1531 42.9592C13.9868 42.3752 12.1124 40.8399 11.1611 38.8526C10.6431 37.7788 10.4642 37.1101 10.3888 35.961C10.191 32.8151 11.9806 29.8105 14.8156 28.4824C15.3902 28.2187 15.3808 28.2187 15.296 28.3694Z" fill="url(#paint2_linear_144_204)"/>
<path d="M20.3731 28.8969C20.2695 28.9817 19.9963 29.4055 19.7891 29.8294C19.5725 30.2626 19.3653 30.6111 19.3276 30.6111C19.2899 30.6111 18.8849 30.677 18.4234 30.7524C17.4062 30.9125 17.1518 31.1103 17.0765 31.7791C17.02 32.2029 17.0294 32.2123 17.7076 32.9187L18.3951 33.6251L18.2915 34.3598C18.122 35.4712 18.1408 35.669 18.4516 35.9893C18.8661 36.4037 19.4029 36.3754 20.2977 35.8762L20.9947 35.4995L21.6917 35.8762C22.5488 36.3472 23.1328 36.4037 23.5001 36.0364C23.8298 35.7067 23.8675 35.4053 23.7168 34.4728L23.5849 33.6346L24.2254 32.9941C24.9506 32.2688 25.0825 31.9298 24.8376 31.4023C24.6586 31.035 24.329 30.8466 23.6885 30.7618C22.5488 30.6017 22.6336 30.6582 22.2286 29.8576C22.0214 29.4526 21.7482 29.0382 21.6069 28.9252C21.2961 28.6803 20.6651 28.6614 20.3731 28.8969ZM21.2679 31.3175C21.5128 31.8167 21.8142 32.0334 22.3699 32.0993C22.6053 32.1181 22.7937 32.1652 22.7937 32.1935C22.7937 32.2123 22.6148 32.4289 22.4075 32.6644L22.0119 33.0788L22.0779 33.7287L22.1344 34.3692L21.6446 34.1432C21.0324 33.8512 20.9759 33.8512 20.3637 34.1432L19.855 34.3786L19.921 33.8229C19.9963 33.1919 19.921 32.9941 19.4312 32.4855L19.111 32.1464L19.6007 32.0899C20.2224 32.0145 20.4955 31.8356 20.7404 31.3175C20.8534 31.0821 20.9759 30.8937 21.0041 30.8937C21.0324 30.8937 21.1548 31.0821 21.2679 31.3175Z" fill="url(#paint3_linear_144_204)"/>
<defs>
<linearGradient id="paint0_linear_144_204" x1="10.7845" y1="2.26049" x2="32.7304" y2="46.576" gradientUnits="userSpaceOnUse">
<stop offset="0.605" stop-color="#386641"/>
<stop offset="1" stop-color="#6A994E"/>
</linearGradient>
<linearGradient id="paint1_linear_144_204" x1="16.4324" y1="10.8794" x2="18.9195" y2="17.7851" gradientUnits="userSpaceOnUse">
<stop offset="0.605" stop-color="#386641"/>
<stop offset="1" stop-color="#6A994E"/>
</linearGradient>
<linearGradient id="paint2_linear_144_204" x1="14.309" y1="27.1489" x2="21.2653" y2="45.5817" gradientUnits="userSpaceOnUse">
<stop offset="0.605" stop-color="#386641"/>
<stop offset="1" stop-color="#6A994E"/>
</linearGradient>
<linearGradient id="paint3_linear_144_204" x1="19.4467" y1="29.0842" x2="22.1362" y2="36.7801" gradientUnits="userSpaceOnUse">
<stop offset="0.605" stop-color="#386641"/>
<stop offset="1" stop-color="#6A994E"/>
</linearGradient>
</defs>
</svg>
