<svg width="45" height="45" viewBox="0 0 45 45" fill="none" xmlns="http://www.w3.org/2000/svg">
<rect width="44.5319" height="44.5319" rx="9" fill="#239571"/>
<path d="M15.2095 10.5381C14.4573 10.8837 11.2247 14.1773 10.757 15.0922C10.5741 15.4582 10.3707 16.1901 10.3098 16.7187C10.2081 17.5523 10.3098 17.9183 11.0213 19.3618C13.8474 25.1358 19.3571 30.6659 25.2124 33.6139C26.7373 34.3661 28.3028 34.4678 29.5023 33.8578C29.9089 33.6545 31.1491 32.5567 32.247 31.4384C34.1988 29.4053 34.2191 29.385 34.2191 28.3684C34.2191 27.5959 34.1175 27.2299 33.7718 26.8639C32.7756 25.7864 28.9127 22.6554 28.4248 22.5334C27.5099 22.3098 26.6153 22.6147 25.7817 23.4687L25.0091 24.2616L24.1756 23.6923C23.2607 23.062 21.2885 21.0493 20.7193 20.1547L20.3533 19.6057L21.1666 18.7112C22.0815 17.7353 22.3458 16.9017 22.0205 16.0681C21.7155 15.2346 17.9542 10.9447 17.202 10.5787C16.4497 10.1924 16.0228 10.1721 15.2095 10.5381ZM18.1372 14.9093L19.8044 16.8407L18.8895 17.7556C18.3812 18.2842 17.9136 18.9755 17.8526 19.3008C17.507 21.0493 23.0574 26.7216 25.1108 26.7216C25.6597 26.7216 25.985 26.5387 26.6966 25.8067C27.2049 25.2985 27.7132 24.9325 27.8555 24.9935C28.2011 25.1155 31.7794 28.1855 31.7794 28.3481C31.7794 28.4294 30.9661 29.263 29.9699 30.2389C28.8314 31.3571 28.0181 32.0077 27.7335 32.0077C27.4895 32.0077 26.7576 31.7434 26.1273 31.4181C21.0852 28.8767 15.7991 23.5906 13.2578 18.5485C12.3429 16.7594 12.4039 16.5764 14.437 14.5026C15.4129 13.5064 16.2668 12.7542 16.3481 12.8355C16.4294 12.9371 17.2427 13.852 18.1372 14.9093Z" fill="white"/>
</svg>
