<svg width="185" height="181" viewBox="0 0 185 181" fill="none" xmlns="http://www.w3.org/2000/svg">
<path d="M11.8673 2.00222C11.24 4.92984 4.33915 11.8307 1.46381 12.458C0.627347 12.6148 0 12.9285 0 13.1376C0 13.3467 0.627347 13.6604 1.46381 13.8173C4.33915 14.4446 11.24 21.3454 11.8673 24.2208C12.0242 25.0572 12.3378 25.6846 12.5469 25.6846C12.7561 25.6846 13.0697 25.0572 13.2266 24.2208C13.8539 21.3454 20.7547 14.4446 23.6824 13.8173C24.4665 13.6604 25.0939 13.3467 25.0939 13.1376C25.0939 12.9285 24.4665 12.6148 23.6824 12.458C20.7547 11.8307 13.8539 4.92984 13.2266 2.00222C13.0697 1.21804 12.7561 0.590691 12.5469 0.590691C12.3378 0.590691 12.0242 1.21804 11.8673 2.00222Z" fill="white"/>
<path d="M151.087 1.58581C146.957 2.89278 143.768 4.93166 140.788 8.0684C135.769 13.3486 133.835 18.3151 133.835 25.791C133.835 33.476 136.397 39.3835 141.938 44.4022C146.748 48.846 152.028 50.7803 159.033 50.7803C167.816 50.7803 174.978 47.0162 179.945 39.854C181.932 37.0309 184.023 31.3325 184.023 28.6663V26.6274L181.409 29.0322C177.958 32.0644 174.09 33.5282 169.385 33.5282C164 33.5282 160.445 32.0121 156.524 28.0912C152.185 23.7521 150.878 20.3539 151.192 14.185C151.453 9.0617 152.812 5.8204 156.106 2.52683L158.04 0.592514L156.001 0.644791C154.903 0.644791 152.655 1.06302 151.087 1.58581Z" fill="white"/>
<path d="M68.6421 7.39169C64.1984 12.7242 60.8526 15.129 43.2869 25.4802C28.3351 34.3154 23.1072 37.8703 17.6702 42.8891C5.38464 54.2336 1.7774 66.2578 5.69832 82.412C11.2399 105.153 11.449 113.309 7.00529 142.533C5.64604 151.577 4.4959 161.144 4.33906 165.117L4.02539 172.07H10.508L16.9906 172.018L18.8203 169.352C23.2118 162.869 26.0871 160.674 31.4718 159.785L33.3539 159.471L33.563 134.534C33.7721 110.956 33.8244 109.44 34.87 106.356C35.445 104.578 36.5429 102.069 37.2748 100.866C38.5295 98.6707 43.7574 93.286 45.6394 92.2927C46.4236 91.8222 46.2668 91.5085 44.1756 89.2082C40.9866 85.8101 38.7909 81.0527 38.1635 76.2953C37.5362 71.3811 37.5362 63.6438 38.1635 58.625C39.1568 50.8355 43.8619 44.3006 50.9719 40.7979C54.4746 39.0727 54.8405 39.0204 60.6435 39.0204C66.4464 39.0204 66.8124 39.0727 70.3151 40.7979C77.6341 44.4052 82.1301 50.94 83.228 59.5138C83.9076 65.2122 83.4371 76.7658 82.3392 80.3731C81.2936 83.9803 77.791 89.1037 75.0202 91.2471L72.7199 92.9723L75.3338 95.534C78.9411 99.0889 80.8754 102.173 82.1824 106.46C82.7575 108.447 83.3325 110.172 83.3848 110.277C83.4371 110.381 87.8808 107.244 93.2655 103.376C98.598 99.5072 103.878 96.0568 104.976 95.6908C112.713 93.1291 120.764 99.0367 120.764 107.244C120.764 110.799 119.457 113.675 116.791 116.184C115.641 117.23 108.113 122.824 99.9572 128.679C91.854 134.534 85.3714 139.501 85.5805 139.71C85.8419 139.919 94.8862 144.049 105.76 148.858C121.078 155.655 126.097 158.112 127.926 159.732C130.697 162.19 133.311 167.208 133.311 170.084V172.07H135.716H138.173L137.859 165.117C137.703 161.353 136.971 154.348 136.239 149.59C133.207 129.463 132.788 126.535 132.266 119.896C131.429 108.708 132.579 98.357 136.5 82.412C139.01 72.1653 138.435 63.6438 134.88 56.4293C130.07 46.7577 121.914 39.1773 106.492 29.9762C102.728 27.7282 95.9317 23.7027 91.488 21.0365C82.6006 15.7563 76.6408 11.2603 73.5564 7.49626C72.4062 6.13701 71.3606 4.98686 71.2038 4.93459C70.9947 4.83003 69.8446 5.98016 68.6421 7.39169ZM110.831 51.8288C111.406 52.1425 112.138 53.3449 112.504 54.5996C113.393 57.5795 118.569 62.7551 121.81 63.8529C123.535 64.428 124.267 65.0031 124.633 66.0487C125.469 68.5058 124.528 70.2832 121.81 71.172C120.241 71.6948 118.412 73.0017 116.321 75.0929C114.229 77.1841 112.922 79.0138 112.4 80.5822C111.825 82.3074 111.249 83.0393 110.204 83.4053C107.747 84.2417 105.969 83.3007 105.081 80.5822C104.035 77.3932 98.8594 72.2176 95.6703 71.172C93.9451 70.5969 93.2132 70.0219 92.8473 68.924C92.0108 66.5192 92.9518 64.7417 95.6703 63.8529C98.7548 62.8074 104.244 57.4749 104.819 55.0178C105.499 51.8288 108.217 50.4173 110.831 51.8288Z" fill="white"/>
<path d="M106.648 65.68L104.87 67.5097L106.804 69.4963L108.739 71.4307L110.673 69.4963L112.607 67.5097L110.83 65.68C109.837 64.6867 108.896 63.8502 108.739 63.8502C108.582 63.8502 107.641 64.6867 106.648 65.68Z" fill="white"/>
<path d="M54.5815 47.5908C51.497 49.0023 48.8831 51.5117 47.367 54.5439C44.9099 59.4581 43.9688 59.1444 60.6458 59.1444C77.3228 59.1444 76.3818 59.4581 73.9247 54.5439C72.4086 51.5117 69.7946 49.0023 66.7102 47.5908C63.7826 46.2838 57.5091 46.2838 54.5815 47.5908Z" fill="white"/>
<path d="M46.0063 72.5804C46.0063 78.2788 46.7383 80.5791 49.6136 83.8204C52.3321 86.9048 55.9393 88.4209 60.5922 88.4209C66.8656 88.3686 71.3093 85.7547 73.9233 80.4745C75.1257 78.122 75.2825 77.0764 75.2825 72.6327V67.5093H60.6444H46.0063V72.5804Z" fill="white"/>
<path d="M158.25 89.8343C157.622 92.7619 150.721 99.6627 147.846 100.29C147.01 100.447 146.382 100.761 146.382 100.97C146.382 101.179 147.01 101.492 147.846 101.649C150.721 102.277 157.622 109.177 158.25 112.053C158.406 112.889 158.72 113.517 158.929 113.517C159.138 113.517 159.452 112.889 159.609 112.053C160.236 109.177 167.137 102.277 170.065 101.649C170.849 101.492 171.476 101.179 171.476 100.97C171.476 100.761 170.849 100.447 170.065 100.29C167.137 99.6627 160.236 92.7619 159.609 89.8343C159.452 89.0501 159.138 88.4227 158.929 88.4227C158.72 88.4227 158.406 89.0501 158.25 89.8343Z" fill="white"/>
<path d="M51.8598 97.8852C48.148 99.349 44.3317 103.165 42.9201 106.982C41.8745 109.805 41.8223 110.85 41.8223 134.69V159.522H56.199C72.0395 159.522 73.8692 159.783 74.5489 162.345C75.1239 164.645 74.3398 166.318 72.4054 167.155C70.9939 167.73 67.5435 167.887 56.199 167.887H41.8223V174.16V180.434H80.9269C118.986 180.434 120.032 180.381 121.704 179.388C124.214 177.872 125.469 175.467 125.469 172.174C125.469 169.141 124.684 167.207 122.75 165.43C122.123 164.854 112.503 160.306 101.473 155.392C90.4417 150.478 80.8746 145.982 80.195 145.354L78.9926 144.204L76.2741 145.407C71.569 147.393 66.4456 146.609 63.0998 143.42C61.0086 141.486 50.2915 126.482 49.4027 124.234C48.9845 123.24 48.6185 121.202 48.6185 119.685C48.6708 111.059 57.6105 105.204 65.5046 108.707C67.5435 109.596 69.6347 111.635 73.0851 116.078C74.5489 117.96 75.2808 117.072 75.2808 113.255C75.2808 106.302 71.203 100.185 65.0864 97.8852C61.2177 96.4214 55.6762 96.4214 51.8598 97.8852Z" fill="white"/>
<path d="M103.877 105.208C102.204 106.358 100.897 107.404 100.897 107.508C100.897 107.665 102.622 108.92 104.766 110.331L108.634 112.945L110.359 111.691C112.607 110.018 112.921 109.443 112.921 107.09C112.921 102.594 108.739 101.705 103.877 105.208Z" fill="white"/>
<path d="M83.9592 119.53C78.5744 123.398 73.7125 126.587 73.1897 126.587C71.3077 126.587 70.5235 125.908 67.5959 121.725C63.5181 115.975 63.0999 115.609 60.6428 115.609C57.872 115.609 56.4604 117.02 56.4604 119.739C56.4604 121.412 57.2446 122.875 62.002 129.515C65.0342 133.802 67.9095 137.618 68.38 137.932C68.8506 138.298 70.053 138.611 71.0985 138.611C72.7715 138.611 74.9672 137.2 87.2005 128.365C95.0423 122.719 101.42 117.961 101.42 117.752C101.42 117.491 95.931 113.674 94.3104 112.838C93.9967 112.681 89.3439 115.661 83.9592 119.53Z" fill="white"/>
<path d="M170.795 140.019C170.168 142.946 163.267 149.847 160.392 150.475C159.555 150.631 158.928 150.945 158.928 151.154C158.928 151.363 159.555 151.677 160.392 151.834C163.267 152.461 170.168 159.362 170.795 162.237C170.952 163.074 171.266 163.701 171.475 163.701C171.684 163.701 171.997 163.074 172.154 162.237C172.782 159.362 179.682 152.461 182.61 151.834C183.394 151.677 184.022 151.363 184.022 151.154C184.022 150.945 183.394 150.631 182.61 150.475C179.682 149.847 172.782 142.946 172.154 140.019C171.997 139.235 171.684 138.607 171.475 138.607C171.266 138.607 170.952 139.235 170.795 140.019Z" fill="white"/>
<path d="M29.1735 168.514C28.4939 169.089 25.3049 173.324 21.4885 178.708L20.3384 180.434H26.8732H33.4604V174.16V167.887H31.7352C30.7942 167.887 29.644 168.2 29.1735 168.514Z" fill="white"/>
</svg>
