<svg width="76" height="86" viewBox="0 0 76 86" fill="none" xmlns="http://www.w3.org/2000/svg">
<g id="Frame 1903">
<rect id="Rectangle 2462" width="76" height="86" fill="white"/>
<g id="Black">
<path id="Vector" d="M34.2643 21.1496C33.0672 21.5376 32.0435 22.586 31.6886 23.7913C31.5978 24.0968 31.5565 24.5756 31.5565 25.2525V26.2679L27.4535 26.2927L23.3423 26.3175L22.847 26.5569C22.2113 26.8706 21.5839 27.498 21.2702 28.1337L21.0308 28.629L21.006 30.6516C20.9895 32.5586 20.9977 32.6907 21.1546 32.9466C21.2454 33.0952 21.4353 33.2851 21.5839 33.3759C21.8563 33.541 22.0379 33.541 38.1609 33.541C54.2838 33.541 54.4654 33.541 54.7378 33.3759C54.8864 33.2851 55.0763 33.0952 55.1671 32.9466C55.324 32.6907 55.3322 32.5586 55.3157 30.6516L55.291 28.629L55.0515 28.1337C54.7378 27.498 54.1104 26.8706 53.4747 26.5569L52.9794 26.3175L48.8764 26.2927L44.7652 26.2679V25.2525C44.7652 24.4765 44.7239 24.105 44.6084 23.7253C44.2286 22.5117 43.1884 21.4798 41.9666 21.1248C41.5869 21.0092 40.9842 20.9927 38.1278 21.001C35.0733 21.001 34.6853 21.0175 34.2643 21.1496ZM41.0007 23.717C41.7767 23.8904 42.0492 24.3362 42.107 25.4589L42.1482 26.2762H38.1609H34.1735L34.2147 25.4589C34.2725 24.3527 34.5532 23.8904 35.2797 23.717C35.6677 23.6262 40.6045 23.6179 41.0007 23.717Z" fill="#D80000"/>
<path id="Vector_2" d="M23.1358 36.3075C23.0533 36.4066 23.1358 38.6851 23.5816 48.055C23.8871 54.4448 24.176 59.8769 24.2255 60.1245C24.498 61.5114 25.5051 62.6342 26.8756 63.0882C27.3956 63.2616 27.4122 63.2616 38.3341 63.2451L49.2726 63.2203L49.9166 62.8984C51.0723 62.337 51.8731 61.3133 52.1043 60.1245C52.1538 59.8769 52.4345 54.4448 52.7399 48.055C53.1857 38.6768 53.2683 36.4066 53.1857 36.3075C53.0949 36.2002 51.3943 36.1837 38.1608 36.1837C24.9438 36.1837 23.2266 36.2002 23.1358 36.3075ZM32.2168 38.4374C32.3737 38.5365 32.5718 38.7511 32.6626 38.908C32.836 39.1969 32.836 39.2712 32.836 48.0715C32.836 56.8719 32.836 56.9462 32.6626 57.2351C32.1425 58.1184 30.9703 58.1184 30.4502 57.2351C30.2768 56.9462 30.2768 56.8719 30.2768 48.0715C30.2768 39.2712 30.2768 39.1969 30.4502 38.908C30.6978 38.4869 31.0941 38.2475 31.5564 38.2475C31.8206 38.2475 32.0352 38.3053 32.2168 38.4374ZM38.8212 38.4374C38.9781 38.5365 39.1762 38.7511 39.267 38.908C39.4404 39.1969 39.4404 39.2712 39.4404 48.0715C39.4404 56.8719 39.4404 56.9462 39.267 57.2351C38.7469 58.1184 37.5746 58.1184 37.0545 57.2351C36.8812 56.9462 36.8812 56.8719 36.8812 48.0715C36.8812 39.2712 36.8812 39.1969 37.0545 38.908C37.3022 38.4869 37.6985 38.2475 38.1608 38.2475C38.425 38.2475 38.6396 38.3053 38.8212 38.4374ZM45.4256 38.4374C45.5824 38.5365 45.7806 38.7511 45.8714 38.908C46.0448 39.1969 46.0448 39.2712 46.0448 48.0715C46.0448 56.8719 46.0448 56.9462 45.8714 57.2351C45.3513 58.1184 44.179 58.1184 43.6589 57.2351C43.4856 56.9462 43.4856 56.8719 43.4856 48.0715C43.4856 39.2712 43.4856 39.1969 43.6589 38.908C43.9066 38.4869 44.3028 38.2475 44.7652 38.2475C45.0293 38.2475 45.244 38.3053 45.4256 38.4374Z" fill="#D80000"/>
</g>
</g>
</svg>
