<svg width="19" height="21" viewBox="0 0 19 21" fill="none" xmlns="http://www.w3.org/2000/svg">
<path d="M8.87248 0.0470133C8.16415 0.315435 7.85099 1.22509 8.2238 1.94088C8.68608 2.81325 9.93125 2.85053 10.4905 2.01544C10.7142 1.68737 10.7216 1.44131 10.5054 1.7321C10.0655 2.32114 9.20055 2.26895 8.85757 1.62772C8.69353 1.31456 8.68608 1.09833 8.84266 0.77026C9.02906 0.38254 9.40187 0.18868 9.84924 0.240873C10.0506 0.263242 10.2146 0.270698 10.2146 0.255786C10.2146 0.233417 10.1177 0.173768 9.9909 0.106663C9.78213 -0.00517964 9.10362 -0.0350044 8.87248 0.0470133Z" fill="#386641"/>
<path d="M8.44799 3.08848C6.91203 3.81173 5.83089 4.69901 5.42825 5.56392C5.22694 5.98893 5.20457 6.09331 5.23439 6.65252C5.25676 7.15208 5.3015 7.36086 5.49536 7.77095L5.73396 8.27051L9.07431 8.2556L12.4147 8.23323L12.6756 7.71875C12.9068 7.25647 12.9366 7.14463 12.9366 6.60033C12.9366 6.05603 12.9142 5.95164 12.6831 5.52664C12.2506 4.72884 11.2068 3.85647 9.76028 3.09594L9.13396 2.76787L8.44799 3.08848Z" fill="#386641"/>
<path d="M5.62228 8.59864C5.59991 8.65083 5.59246 8.8596 5.60737 9.06092L5.62974 9.42627H9.09685H12.564V8.9789V8.53153L9.11176 8.50916C6.22623 8.49425 5.65956 8.50916 5.62228 8.59864Z" fill="#386641"/>
<path d="M5.07056 9.84465C4.66047 10.031 4.28766 10.374 4.07889 10.7692C3.92231 11.0525 3.91485 11.1868 3.89249 13.021L3.87012 14.9819H5.58503H7.29995L7.32232 13.2447C7.34468 11.3508 7.3596 11.2911 7.83679 10.8139C8.23197 10.4113 8.47802 10.3218 9.14907 10.3218C9.70828 10.3218 9.78285 10.3442 10.0736 10.5455C10.4464 10.8065 10.7 11.1569 10.8118 11.5446C10.8491 11.6938 10.8864 12.5289 10.8864 13.3938V14.9819H12.6087H14.3236L14.3013 13.0582L14.2789 11.142L14.0776 10.7618C13.8539 10.3293 13.5333 10.031 13.0859 9.82973C12.81 9.70298 12.5118 9.68807 9.09688 9.68807C5.54775 9.68807 5.39117 9.69552 5.07056 9.84465Z" fill="#386641"/>
<path d="M2.17703 15.2269C1.88624 15.391 1.76694 15.6445 1.72966 16.1813L1.69238 16.6958H9.0516H16.4034V16.1664C16.4034 15.6669 16.3885 15.6221 16.1499 15.3835L15.8964 15.13H9.12617C3.8323 15.1375 2.31124 15.1524 2.17703 15.2269Z" fill="#386641"/>
<path d="M1.31248 17.0096C1.14844 17.2408 1.14844 18.2399 1.31248 18.471L1.42432 18.6351H9.06688C17.9472 18.6351 17.0002 18.7395 17.0002 17.7403C17.0002 16.7412 17.9472 16.8456 9.06688 16.8456H1.42432L1.31248 17.0096Z" fill="#386641"/>
<path d="M0.260965 18.8735C0.0223685 19.0077 0 19.0823 0 19.8056C0 20.4319 0.0149123 20.499 0.164035 20.6034C0.313158 20.7078 1.28246 20.7227 9.11142 20.7227C19.3487 20.7227 18.193 20.842 18.193 19.7608C18.193 18.6648 19.304 18.7841 9.10396 18.7841C2.76623 18.7915 0.372808 18.8139 0.260965 18.8735Z" fill="#386641"/>
</svg>
