<svg width="380" height="55" viewBox="0 0 380 55" fill="none" xmlns="http://www.w3.org/2000/svg">
<path opacity="0.2" d="M3.61475 32.6411L376.385 32.6411" stroke="black" stroke-width="6" stroke-miterlimit="3.99933" stroke-linecap="round" stroke-linejoin="round"/>
<path d="M3.61475 32.6411L166.256 32.6411" stroke="#386641" stroke-width="6" stroke-miterlimit="3.99933" stroke-linecap="round" stroke-linejoin="round"/>
<path d="M153.26 38.8773C152.96 38.5734 152.766 38.1812 152.707 37.7585C152.647 37.3359 152.725 36.9052 152.929 36.5301L157.663 27.5901L152.932 18.652C152.729 18.277 152.651 17.8464 152.711 17.4238C152.771 17.0011 152.965 16.6088 153.264 16.3047L153.291 16.2779C153.584 15.9791 153.964 15.7803 154.377 15.7097C154.789 15.6391 155.213 15.7003 155.589 15.8846L177.116 25.7632C177.123 25.7659 177.129 25.7692 177.135 25.773C177.475 25.9387 177.761 26.1965 177.962 26.517C178.162 26.8375 178.269 27.2079 178.269 27.5861C178.27 27.9642 178.164 28.3349 177.964 28.656C177.764 28.9771 177.478 29.2357 177.139 29.4024L177.12 29.4122L155.585 39.2965C155.203 39.4838 154.771 39.5441 154.353 39.4687C153.935 39.3933 153.552 39.1861 153.26 38.8773Z" fill="#386641" stroke="white" stroke-width="4.76436"/>
</svg>
