<svg width="82" height="88" viewBox="0 0 82 88" fill="none" xmlns="http://www.w3.org/2000/svg">
<path d="M76.7859 26.1181C76.7571 25.1627 75.9624 24.1444 74.7746 23.9294C74.583 23.8946 74.4641 23.8767 74.3632 23.8724C73.9707 23.8545 15.3595 21.1945 13.9155 21.1294C12.7522 21.0768 12.021 20.8688 11.3886 21.8878C11.0488 22.4349 10.976 23.082 10.9885 23.6987C11.0194 25.0346 11.0808 25.7571 11.0808 26.1274C11.0808 30.9288 9.21883 32.5253 6.38899 33.0801C4.05206 33.5388 1.60547 33.5399 1.60547 33.5399L7.61039 78.2071C7.61039 78.2071 68.1585 87.3578 69.1356 87.3855C69.7636 87.4034 71.054 87.392 71.6647 87.1667C73.2259 86.5918 74.291 85.606 74.8897 84.6609C75.9168 83.0384 76.5742 81.4772 76.9232 79.752C77.3287 77.7468 77.548 75.6286 77.5165 73.5891C77.5165 73.5891 76.7853 26.1187 76.7853 26.1181H76.7859Z" fill="#239371"/>
<path d="M77.5175 73.5916C77.5485 75.6306 77.3291 77.7487 76.9242 79.7534C76.5751 81.4786 75.9172 83.0403 74.8896 84.6629C74.2919 85.608 73.2263 86.5943 71.6646 87.1681C71.055 87.3934 69.7641 87.4053 69.1355 87.3874C69.0573 87.3847 68.604 87.3255 67.8343 87.2164C58.9181 85.9625 7.61082 78.2091 7.61082 78.2091L1.60645 33.5418C1.60645 33.5418 4.05304 33.5402 6.38889 33.0809C9.21818 32.5262 11.0801 30.9302 11.0801 26.1288C11.0801 25.758 11.0199 25.0366 10.9889 23.7001C10.9759 23.0834 11.0476 22.4369 11.3879 21.8897C12.0209 20.8708 12.751 21.0787 13.9154 21.1314C15.3594 21.196 73.9711 23.8559 74.3625 23.8738C74.4054 23.8754 74.4521 23.8798 74.5053 23.8868C74.5775 23.8955 74.6643 23.9102 74.7745 23.9308C75.9623 24.1458 76.7575 25.1641 76.7852 26.1195L77.517 73.5905L77.5175 73.5916Z" fill="#239371"/>
<path d="M68.3763 23.37C70.0038 18.8622 72.4672 13.8817 76.5537 11.0546C77.3794 10.4835 78.5123 9.76747 79.2288 9.16166C77.3989 9.07752 75.2482 9.1204 73.4155 9.1014C68.9941 9.05581 50.5163 8.86418 45.6985 8.81424C42.5707 8.78167 39.4434 8.74964 36.3155 8.71707C32.6638 8.67962 29.4578 12.4768 27.6398 15.2551C25.5895 18.3889 24.2829 21.9619 23.3231 25.5636C22.0219 30.4454 19.2285 54.4141 18.8202 56.6224C18.0983 60.5314 16.093 66.7252 11.0869 66.4071C13.0949 66.5515 50.8561 69.5474 53.7977 69.7564C57.2296 70.0007 59.446 67.4303 60.8026 64.5858C62.4648 61.0997 63.9532 45.6141 64.4315 41.6063C64.9108 37.5903 67.6413 25.403 68.3758 23.3695L68.3763 23.37Z" fill="url(#paint0_linear_3512_20971)"/>
<path d="M68.3763 23.372C70.0038 18.8642 72.4672 13.8836 76.5537 11.0565C77.3794 10.4854 78.5123 9.76942 79.2288 9.16361C77.3989 9.07947 75.2482 9.12236 73.4155 9.10336C68.9941 9.05776 50.5163 8.86614 45.6985 8.81619C42.5707 8.78362 39.4434 8.7516 36.3155 8.71902C32.6638 8.68157 29.4578 12.4788 27.6398 15.257C25.5895 18.3908 24.2829 21.9638 23.3231 25.5656C22.0219 30.4474 19.2285 54.416 18.8202 56.6243C18.0983 60.5333 16.093 66.7271 11.0869 66.409C13.0949 66.5534 50.8561 69.5494 53.7977 69.7584C57.2296 70.0027 59.446 67.4323 60.8026 64.5878C62.4648 61.1017 63.9532 45.616 64.4315 41.6082C64.9108 37.5923 67.6413 25.4049 68.3758 23.3714L68.3763 23.372Z" fill="url(#paint1_linear_3512_20971)"/>
<path d="M60.0708 70.786C61.3704 69.6596 62.4224 68.2238 63.2079 66.7185C64.3283 64.5716 65.0058 62.1331 65.4536 59.762C66.4259 54.6169 66.7309 49.3579 67.2928 44.158C67.5903 41.4036 67.9247 38.6503 68.3703 35.916C68.9495 32.3626 69.7182 28.8135 70.8023 25.3784C71.9135 21.8575 73.4872 18.0278 76.0803 15.3287C77.2284 14.1339 78.5296 13.2301 80.011 12.6954C80.9757 12.3475 81.2156 11.2938 80.9241 10.4263C80.6342 9.56322 79.7391 8.91615 78.8206 9.24565C77.1839 9.83464 75.6835 10.8872 74.3215 12.2867C71.2344 15.4585 69.2503 19.7768 67.8188 23.9105C66.5475 27.5818 65.6805 31.4425 65.0536 35.2739C64.5954 38.0749 64.2507 40.8982 63.9456 43.7199C63.5168 47.6897 63.1634 51.6699 62.6699 55.6321C62.2927 58.6628 61.771 61.9741 60.4003 64.7339C59.8526 65.837 58.8375 67.0627 57.6465 67.9888L60.0703 70.786H60.0708Z" fill="url(#paint2_linear_3512_20971)"/>
<path d="M62.0379 14.6532C63.6654 10.1455 66.1288 5.16488 70.2153 2.33775C71.041 1.76668 72.1739 1.05067 72.8904 0.444863C71.0605 0.360722 68.9098 0.403607 67.0771 0.384607C62.6562 0.339009 44.1779 0.147385 39.3602 0.0974437C36.2323 0.0648732 33.105 0.0328455 29.9771 0.000274967C26.3254 -0.0371811 23.1194 3.76 21.3014 6.53827C19.2511 9.6721 17.9445 13.2451 16.9847 16.8468C15.6835 21.7286 12.8901 45.6973 12.4819 47.9056C11.7599 51.8146 9.75463 58.0084 4.74854 57.6903C6.75651 57.8347 44.5177 60.8306 47.4594 61.0396C50.8912 61.2839 53.1076 58.7135 54.4642 55.869C56.1264 52.3829 57.6149 36.8973 58.0931 32.8895C58.5724 28.8735 61.3029 16.6862 62.0374 14.6527L62.0379 14.6532Z" fill="url(#paint3_radial_3512_20971)"/>
<path d="M62.0379 14.6532C63.6654 10.1455 66.1288 5.16488 70.2153 2.33775C71.041 1.76668 72.1739 1.05067 72.8904 0.444863C71.0605 0.360722 68.9098 0.403607 67.0771 0.384607C62.6562 0.339009 44.1779 0.147385 39.3602 0.0974437C36.2323 0.0648732 33.105 0.0328455 29.9771 0.000274967C26.3254 -0.0371811 23.1194 3.76 21.3014 6.53827C19.2511 9.6721 17.9445 13.2451 16.9847 16.8468C15.6835 21.7286 12.8901 45.6973 12.4819 47.9056C11.7599 51.8146 9.75463 58.0084 4.74854 57.6903C6.75651 57.8347 44.5177 60.8306 47.4594 61.0396C50.8912 61.2839 53.1076 58.7135 54.4642 55.869C56.1264 52.3829 57.6149 36.8973 58.0931 32.8895C58.5724 28.8735 61.3029 16.6862 62.0374 14.6527L62.0379 14.6532Z" fill="url(#paint4_linear_3512_20971)"/>
<path d="M53.7447 62.0598C55.0378 60.935 56.086 59.5036 56.8688 58.0037C57.9892 55.8567 58.6667 53.4183 59.1145 51.0472C60.0867 45.9021 60.3924 40.6431 60.9536 35.4432C61.2511 32.6888 61.5855 29.9355 62.0312 27.2012C62.6104 23.6477 63.3791 20.0986 64.4631 16.6635C65.5743 13.1427 67.148 9.31291 69.7412 6.6139C70.8893 5.4191 72.1905 4.51527 73.6719 3.98057C74.6365 3.63261 74.8765 2.57895 74.585 1.71149C74.2951 0.848373 73.3999 0.201305 72.4814 0.530811C70.8448 1.11979 69.3444 2.17237 67.9824 3.57181C64.8952 6.74364 62.9111 11.0619 61.4797 15.1957C60.2083 18.8669 59.3414 22.7276 58.7144 26.559C58.2563 29.3601 57.9116 32.1834 57.6065 35.0051C57.1776 38.9749 56.8243 42.955 56.3308 46.9172C55.9535 49.9479 55.4319 53.2592 54.0612 56.0191C53.5287 57.0912 52.5548 58.2794 51.4072 59.1952L53.7447 62.0598Z" fill="url(#paint5_linear_3512_20971)"/>
<path d="M64.2544 49.0233L30.8778 47.2916C29.5624 47.2243 28.4035 46.4893 27.8872 45.3949L23.6498 36.4098C23.1336 35.3154 21.9746 34.5804 20.6593 34.5131C20.6593 34.5131 1.58219 33.5387 1.57296 33.5382C0.93729 33.5089 0.550244 34.0935 0.332564 34.5489C0.0801424 35.0777 -0.0121408 35.6634 0.00305877 36.2366C0.00305877 36.2394 0.00305877 36.2426 0.00305877 36.2453L0.894406 72.8188C0.945433 74.8854 1.29231 76.9737 2.16466 78.8948C2.55007 79.7438 3.04189 80.5679 3.70036 81.2708C4.45274 82.0737 5.54114 82.7615 6.7419 82.8478C7.33957 82.8912 7.93778 82.9346 8.53545 82.9781C10.1537 83.0959 11.7724 83.2137 13.3906 83.3315C15.7705 83.5046 18.1497 83.6778 20.5296 83.851C23.411 84.0605 26.2924 84.27 29.1738 84.4796C32.2978 84.707 35.4213 84.9339 38.5454 85.1614C41.6521 85.3872 44.7593 85.6136 47.866 85.8394C50.6964 86.0451 53.5273 86.2514 56.3577 86.4572C58.6523 86.6238 60.9474 86.791 63.242 86.9577C64.7419 87.0668 66.2412 87.1759 67.7411 87.285C68.2063 87.3186 69.1367 87.3865 69.1367 87.3865L64.2544 49.0233Z" fill="#239371"/>
<path d="M69.0361 87.3792C69.0361 87.3792 68.1719 87.3157 67.7409 87.2864C66.241 87.1762 64.7422 87.0671 63.2424 86.958C60.9472 86.7919 58.6526 86.6236 56.3575 86.4575C53.5266 86.2512 50.6962 86.0455 47.8653 85.8392C44.7591 85.6139 41.6519 85.3875 38.5441 85.1623C35.4206 84.9359 32.2971 84.7073 29.1731 84.4804C26.2906 84.2698 23.4102 84.0608 20.5278 83.8518C18.149 83.6781 15.7687 83.506 13.3899 83.3323C11.7706 83.2145 10.153 83.0967 8.53365 82.9789C7.93598 82.9361 7.33832 82.8921 6.74065 82.8481C5.53934 82.7629 4.45148 82.0751 3.69964 81.2717C3.04009 80.5693 2.54828 79.7452 2.16286 78.8957C1.2916 76.9746 0.944177 74.8857 0.892607 72.8207L0.00180231 36.2467V36.2381C-0.014483 35.6654 0.078343 35.0796 0.331308 34.5498C0.548987 34.0949 0.934948 33.5108 1.57062 33.5401C1.5793 33.5401 16.7116 34.3131 20.0224 34.4825C20.4284 34.5031 20.6569 34.5151 20.6569 34.5151C21.9728 34.5829 23.1312 35.3174 23.648 36.4112L27.886 45.3963C28.4011 46.4902 29.5612 47.2263 30.8754 47.2925L30.9596 47.2968L64.2928 49.0269L69.035 87.3798L69.0361 87.3792Z" fill="#239371"/>
<path d="M77.5177 73.591C77.5487 75.6299 77.3294 77.7481 76.9244 79.7528C76.5754 81.4779 75.9174 83.0397 74.8898 84.6622C74.2922 85.6073 73.2266 86.5937 71.6648 87.1675C71.0552 87.3927 69.7643 87.4047 69.1357 87.3868C69.0575 87.3841 68.6857 87.4112 67.9577 87.1371C67.5674 86.9905 67.144 86.6713 66.6891 86.2501C65.345 85.0032 64.6605 83.3117 64.2176 81.65C63.8262 80.1854 63.6172 78.622 63.6172 77.1146L62.9815 51.7975C62.9685 51.0185 62.9799 48.9313 64.2946 49.0257C65.6447 49.1229 68.1646 49.7043 70.6595 47.8141C73.2059 45.8827 73.4182 36.3335 73.3916 34.4819L73.2678 26.6672C73.2559 25.8795 73.4079 23.935 74.506 23.8867C74.5782 23.8954 74.6651 23.9101 74.7753 23.9307C75.963 24.1457 76.7583 25.164 76.786 26.1194L77.5177 73.5904V73.591Z" fill="#239371"/>
<path d="M77.5177 73.591C77.5487 75.6299 77.3294 77.7481 76.9244 79.7528C76.5754 81.4779 75.9174 83.0397 74.8898 84.6622C74.2922 85.6073 73.2266 86.5937 71.6648 87.1675C71.0552 87.3927 69.7643 87.4047 69.1357 87.3868C69.0575 87.3841 68.6857 87.4112 67.9577 87.1371C67.5674 86.9905 67.144 86.6713 66.6891 86.2501C65.345 85.0032 64.6605 83.3117 64.2176 81.65C63.8262 80.1854 63.6172 78.622 63.6172 77.1146L62.9815 51.7975C62.9685 51.0185 62.9799 48.9313 64.2946 49.0257C65.6447 49.1229 68.1646 49.7043 70.6595 47.8141C73.2059 45.8827 73.4182 36.3335 73.3916 34.4819L73.2678 26.6672C73.2559 25.8795 73.4079 23.935 74.506 23.8867C74.5782 23.8954 74.6651 23.9101 74.7753 23.9307C75.963 24.1457 76.7583 25.164 76.786 26.1194L77.5177 73.5904V73.591Z" fill="#239371"/>
<path d="M29.2942 47.2337C27.8312 47.1691 25.751 46.5785 25.0649 45.1285L20.0229 34.4785C20.429 34.4991 20.6575 34.5111 20.6575 34.5111C21.9734 34.5789 23.1318 35.3134 23.6486 36.4072L27.8866 45.3924C28.4017 46.4862 29.5618 47.2223 30.876 47.2885C30.876 47.2885 30.2094 47.2738 29.2936 47.2342L29.2942 47.2337Z" fill="#239371"/>
<path opacity="0.5" d="M32.4359 11.1095C32.4294 11.1024 32.4228 11.0959 32.4163 11.0889C30.8063 9.40658 26.7518 9.83651 25.5244 12.0828C25.2074 12.6631 25.1015 13.296 25.0858 13.916C25.082 14.0598 25.1482 14.3508 25.0396 14.4773C24.9517 14.5782 24.7688 14.5359 24.6602 14.5685C24.0549 14.7492 24.0039 15.5298 24.0473 16.0108C24.0994 16.5656 24.2661 17.1388 24.5706 17.5644C24.6863 17.7262 24.9577 17.9976 25.2041 17.7989C25.2475 17.7642 25.3252 17.622 25.3957 17.6741C25.5049 17.755 25.5239 17.9525 25.5716 18.0796C25.7253 18.4845 25.9522 18.8553 26.2627 19.1452C26.3788 19.2527 26.3598 19.4551 26.222 19.5751C25.8382 19.9062 25.2937 20.3031 24.5891 20.6342C23.8839 20.9626 23.251 21.1195 22.776 21.1982C22.6327 21.2221 22.5089 21.341 22.4829 21.481C22.3129 22.4055 22.0535 23.6768 21.8314 24.9796C21.6903 25.8124 22.3211 26.3454 23.03 26.3671C25.9326 26.4551 28.8205 26.5425 31.7215 26.6304C32.4304 26.6521 33.1996 26.1609 33.2838 25.3265C33.4141 24.021 33.4988 22.7442 33.5791 21.817C33.591 21.6764 33.5004 21.5511 33.3647 21.5185C32.9152 21.4121 32.3295 21.2177 31.7182 20.8497C31.1086 20.4789 30.6754 20.0523 30.3839 19.7005C30.2792 19.5735 30.315 19.3715 30.4594 19.2717C30.8795 18.9807 31.2443 18.5822 31.4989 18.1605C31.5575 18.0633 31.6173 17.8809 31.7497 17.8505C31.8974 17.8168 31.981 18.1045 32.1737 18.06C32.4961 17.9851 32.7236 17.6686 32.8978 17.4249C33.1388 17.0873 33.3354 16.7284 33.4787 16.3522C33.6589 15.8783 33.8603 14.9506 33.23 14.8008C33.1329 14.7775 33.0059 14.8241 32.9277 14.7416C32.8169 14.6238 32.9391 14.411 32.9814 14.2764C33.3364 13.1441 33.2203 11.9645 32.437 11.1095H32.4359Z" fill="#9EC9D8"/>
<path d="M32.1263 10.7677C32.1198 10.7606 32.1133 10.7541 32.1068 10.7471C30.4967 9.06479 26.4422 9.49472 25.2148 11.741C24.8978 12.3213 24.792 12.9543 24.7762 13.5742C24.7724 13.718 24.8386 14.009 24.7301 14.1355C24.6421 14.2364 24.4592 14.1941 24.3506 14.2267C23.7454 14.4074 23.6943 15.188 23.7378 15.669C23.7899 16.2238 23.9565 16.797 24.2611 17.2226C24.3767 17.3844 24.6481 17.6558 24.8946 17.4571C24.938 17.4224 25.0156 17.2802 25.0862 17.3323C25.1953 17.4132 25.2143 17.6108 25.2621 17.7378C25.4157 18.1427 25.6426 18.5135 25.9531 18.8034C26.0693 18.9109 26.0503 19.1133 25.9124 19.2333C25.5286 19.5644 24.9841 19.9613 24.2795 20.2924C23.5744 20.6208 22.9414 20.7777 22.4664 20.8564C22.3231 20.8803 22.1993 20.9992 22.1733 21.1392C22.0034 22.0637 21.7439 23.335 21.5219 24.6378C21.3807 25.4706 22.0115 26.0036 22.7205 26.0254C25.623 26.1133 28.511 26.2007 31.4119 26.2886C32.1209 26.3103 32.8901 25.8191 32.9742 24.9847C33.1045 23.6792 33.1892 22.4024 33.2695 21.4752C33.2815 21.3346 33.1908 21.2093 33.0551 21.1767C32.6056 21.0703 32.0199 20.8759 31.4087 20.5079C30.799 20.1371 30.3659 19.7105 30.0744 19.3587C29.9696 19.2317 30.0054 19.0297 30.1498 18.9299C30.57 18.6389 30.9348 18.2404 31.1894 17.8187C31.248 17.7215 31.3077 17.5391 31.4401 17.5087C31.5878 17.475 31.6714 17.7627 31.8641 17.7182C32.1866 17.6433 32.414 17.3268 32.5883 17.0831C32.8293 16.7455 33.0258 16.3866 33.1691 16.0105C33.3493 15.5366 33.5507 14.6088 32.9205 14.459C32.8233 14.4357 32.6963 14.4824 32.6181 14.3998C32.5074 14.282 32.6295 14.0692 32.6719 13.9346C33.0269 12.8023 32.9107 11.6227 32.1274 10.7677H32.1263Z" fill="url(#paint6_linear_3512_20971)"/>
<path d="M32.1268 10.7657C32.1203 10.7587 32.1138 10.7522 32.1072 10.7451C30.4972 9.06283 26.4427 9.49276 25.2153 11.739C24.8983 12.3193 24.7924 12.9523 24.7767 13.5722C24.7729 13.7161 24.8391 14.007 24.7306 14.1335C24.6426 14.2345 24.4597 14.1921 24.3511 14.2247C23.7458 14.4055 23.6948 15.1861 23.7382 15.6671C23.7904 16.2218 23.957 16.7951 24.2615 17.2207C24.3772 17.3824 24.6486 17.6539 24.895 17.4552C24.9385 17.4204 25.0161 17.2782 25.0867 17.3303C25.1958 17.4112 25.2148 17.6088 25.2625 17.7358C25.4162 18.1408 25.6431 18.5115 25.9536 18.8014C26.0698 18.9089 26.0508 19.1114 25.9129 19.2314C25.5291 19.5625 24.9846 19.9593 24.28 20.2904C23.5748 20.6189 22.9419 20.7757 22.4669 20.8545C22.3236 20.8783 22.1998 20.9972 22.1738 21.1373C22.0039 22.0617 21.7444 23.3331 21.5224 24.6359C21.3812 25.4686 22.012 26.0017 22.721 26.0234C25.6235 26.1113 28.5115 26.1987 31.4124 26.2867C32.1214 26.3084 32.8906 25.8171 32.9747 24.9828C33.105 23.6772 33.1897 22.4005 33.27 21.4733C33.282 21.3327 33.1913 21.2073 33.0556 21.1747C32.6061 21.0683 32.0204 20.874 31.4091 20.5059C30.7995 20.1352 30.3663 19.7085 30.0748 19.3568C29.9701 19.2297 30.0059 19.0278 30.1503 18.9279C30.5705 18.6369 30.9352 18.2385 31.1898 17.8167C31.2485 17.7195 31.3082 17.5371 31.4406 17.5067C31.5883 17.4731 31.6719 17.7608 31.8646 17.7163C32.187 17.6414 32.4145 17.3249 32.5887 17.0812C32.8298 16.7435 33.0263 16.3847 33.1696 16.0085C33.3498 15.5346 33.5512 14.6069 32.921 14.4571C32.8238 14.4337 32.6968 14.4804 32.6186 14.3979C32.5079 14.2801 32.63 14.0673 32.6723 13.9327C33.0274 12.8003 32.9112 11.6207 32.1279 10.7657H32.1268Z" fill="#239371"/>
<path opacity="0.5" d="M50.9512 16.1323L42.5816 15.8788C41.8021 15.8555 41.2511 15.2453 41.3504 14.5163C41.4498 13.7872 42.1625 13.2156 42.9421 13.239L51.3116 13.4925C52.0911 13.5158 52.6421 14.126 52.5428 14.855C52.4434 15.5841 51.7307 16.1557 50.9512 16.1323Z" fill="#729EB1"/>
<path opacity="0.5" d="M55.0991 20.3504L37.3199 19.8124C36.5404 19.7891 35.9894 19.1789 36.0887 18.4499C36.1881 17.7208 36.9008 17.1492 37.6803 17.1726L55.4595 17.7105C56.239 17.7339 56.79 18.344 56.6907 19.0731C56.5913 19.8021 55.8786 20.3737 55.0991 20.3504Z" fill="#729EB1"/>
<path opacity="0.5" d="M51.973 29.6402L37.0986 29.1902C36.4884 29.1717 36.0569 28.694 36.1345 28.1235C36.2127 27.553 36.7707 27.1051 37.3809 27.1236L52.2553 27.5736C52.8655 27.5921 53.297 28.0698 53.2194 28.6403C53.1412 29.2108 52.5832 29.6587 51.973 29.6402Z" fill="#9EC9D8"/>
<path opacity="0.5" d="M51.5194 33.6637L36.645 33.2136C36.0348 33.1952 35.6033 32.7175 35.6809 32.1469C35.7591 31.5764 36.3171 31.1286 36.9273 31.147L51.8017 31.597C52.4118 31.6155 52.8434 32.0932 52.7658 32.6637C52.6876 33.2343 52.1296 33.6821 51.5194 33.6637Z" fill="#9EC9D8"/>
<path opacity="0.5" d="M51.1249 37.5972L36.2505 37.1472C35.6403 37.1288 35.2087 36.6511 35.2864 36.0805C35.3645 35.51 35.9226 35.0622 36.5327 35.0806L51.4072 35.5306C52.0173 35.5491 52.4489 36.0268 52.3712 36.5973C52.2931 37.1679 51.735 37.6157 51.1249 37.5972Z" fill="#9EC9D8"/>
<path d="M50.7192 15.8765L42.3497 15.623C41.5702 15.5996 41.0192 14.9895 41.1185 14.2604C41.2179 13.5314 41.9306 12.9598 42.7101 12.9831L51.0797 13.2366C51.8592 13.26 52.4102 13.8701 52.3108 14.5992C52.2115 15.3282 51.4987 15.8998 50.7192 15.8765Z" fill="#239371"/>
<path d="M54.8671 20.0926L37.088 19.5546C36.3084 19.5313 35.7575 18.9211 35.8568 18.1921C35.9561 17.463 36.6689 16.8914 37.4484 16.9148L55.2276 17.4527C56.0071 17.4761 56.5581 18.0862 56.4587 18.8152C56.3594 19.5443 55.6466 20.1159 54.8671 20.0926Z" fill="#239371"/>
<path opacity="0.5" d="M54.3188 24.8933L36.5396 24.3554C35.7601 24.332 35.2091 23.7219 35.3085 22.9928C35.4078 22.2638 36.1205 21.6922 36.9001 21.7155L54.6792 22.2535C55.4588 22.2768 56.0097 22.887 55.9104 23.616C55.8111 24.3451 55.0983 24.9167 54.3188 24.8933Z" fill="#729EB1"/>
<path d="M54.0869 24.6375L36.3077 24.0995C35.5282 24.0762 34.9772 23.466 35.0765 22.737C35.1759 22.0079 35.8886 21.4363 36.6681 21.4597L54.4473 21.9976C55.2268 22.021 55.7778 22.6311 55.6785 23.3602C55.5791 24.0892 54.8664 24.6608 54.0869 24.6375Z" fill="#239371"/>
<path d="M51.6928 29.3297L36.8183 28.8797C36.2082 28.8612 35.7766 28.3835 35.8542 27.813C35.9324 27.2424 36.4905 26.7946 37.1006 26.8131L51.975 27.2631C52.5852 27.2815 53.0167 27.7592 52.9391 28.3298C52.8609 28.9003 52.3029 29.3481 51.6928 29.3297Z" fill="url(#paint7_linear_3512_20971)"/>
<path d="M51.2396 33.3531L36.3652 32.9031C35.7551 32.8846 35.3235 32.4069 35.4011 31.8364C35.4793 31.2659 36.0373 30.818 36.6475 30.8365L51.5219 31.2865C52.1321 31.305 52.5636 31.7827 52.486 32.3532C52.4078 32.9237 51.8498 33.3716 51.2396 33.3531Z" fill="url(#paint8_linear_3512_20971)"/>
<path d="M50.8441 37.2887L35.9697 36.8386C35.3595 36.8202 34.928 36.3425 35.0056 35.7719C35.0838 35.2014 35.6418 34.7536 36.252 34.772L51.1264 35.222C51.7366 35.2405 52.1681 35.7182 52.0905 36.2887C52.0123 36.8593 51.4543 37.3071 50.8441 37.2887Z" fill="url(#paint9_linear_3512_20971)"/>
<path opacity="0.5" d="M50.9843 41.4762L36.1098 41.0261C35.4997 41.0077 35.0681 40.53 35.1457 39.9594C35.2239 39.3889 35.782 38.9411 36.3921 38.9595L51.2665 39.4095C51.8767 39.428 52.3083 39.9057 52.2306 40.4762C52.1525 41.0468 51.5944 41.4946 50.9843 41.4762Z" fill="#9EC9D8"/>
<path d="M50.7045 41.1656L35.83 40.7156C35.2199 40.6971 34.7883 40.2194 34.866 39.6489C34.9441 39.0784 35.5022 38.6305 36.1123 38.649L50.9867 39.099C51.5969 39.1175 52.0285 39.5952 51.9508 40.1657C51.8727 40.7362 51.3146 41.1841 50.7045 41.1656Z" fill="url(#paint10_linear_3512_20971)"/>
<defs>
<linearGradient id="paint0_linear_3512_20971" x1="40.2652" y1="37.7841" x2="66.0996" y2="39.4327" gradientUnits="userSpaceOnUse">
<stop offset="0.69" stop-color="#729EB1"/>
<stop offset="0.84" stop-color="#91BCCC"/>
<stop offset="1" stop-color="#B7DFED"/>
</linearGradient>
<linearGradient id="paint1_linear_3512_20971" x1="47.3881" y1="6.86541" x2="42.9145" y2="68.9723" gradientUnits="userSpaceOnUse">
<stop offset="0.03" stop-color="#CFEBFE"/>
<stop offset="0.2" stop-color="#B4D8E9"/>
<stop offset="0.37" stop-color="#9EC9D8"/>
<stop offset="0.54" stop-color="#94BECC"/>
<stop offset="0.67" stop-color="#8AB3C1"/>
</linearGradient>
<linearGradient id="paint2_linear_3512_20971" x1="91.1226" y1="13.2066" x2="45.8149" y2="66.9961" gradientUnits="userSpaceOnUse">
<stop stop-color="#F3F8FB"/>
<stop offset="0.03" stop-color="#E6F3FC"/>
<stop offset="0.09" stop-color="#D8EEFD"/>
<stop offset="0.16" stop-color="#D1EBFD"/>
<stop offset="0.3" stop-color="#CFEBFE"/>
<stop offset="0.45" stop-color="#BBDBEC"/>
<stop offset="0.76" stop-color="#8AB3C1"/>
</linearGradient>
<radialGradient id="paint3_radial_3512_20971" cx="0" cy="0" r="1" gradientUnits="userSpaceOnUse" gradientTransform="translate(-92.7574 17.3609) rotate(4.12) scale(172.211 172.211)">
<stop offset="0.63" stop-color="#C0E3EF"/>
<stop offset="0.65" stop-color="#D7ECF4"/>
<stop offset="0.67" stop-color="#E6F2F8"/>
<stop offset="0.7" stop-color="#F0F6FA"/>
<stop offset="0.73" stop-color="#F3F8FB"/>
<stop offset="0.82" stop-color="#F3F8FB"/>
<stop offset="0.85" stop-color="#EAF4F8"/>
<stop offset="0.88" stop-color="#D1EAF3"/>
<stop offset="0.92" stop-color="#B7DFED"/>
<stop offset="0.95" stop-color="#B1D9E8"/>
<stop offset="0.99" stop-color="#A0CBD9"/>
<stop offset="1" stop-color="#9EC9D8"/>
</radialGradient>
<linearGradient id="paint4_linear_3512_20971" x1="41.0494" y1="-1.85251" x2="36.5757" y2="60.2538" gradientUnits="userSpaceOnUse">
<stop stop-color="#B7DFED"/>
<stop offset="0.21" stop-color="#F3F8FB"/>
<stop offset="0.82" stop-color="#9EC9D8"/>
<stop offset="0.93" stop-color="#91BBC9"/>
<stop offset="0.99" stop-color="#8AB3C1"/>
</linearGradient>
<linearGradient id="paint5_linear_3512_20971" x1="84.7824" y1="4.49259" x2="39.4873" y2="58.2666" gradientUnits="userSpaceOnUse">
<stop stop-color="#F3F8FB"/>
<stop offset="0.03" stop-color="#E6F3FC"/>
<stop offset="0.09" stop-color="#D8EEFD"/>
<stop offset="0.16" stop-color="#D1EBFD"/>
<stop offset="0.3" stop-color="#CFEBFE"/>
<stop offset="0.45" stop-color="#BBDBEC"/>
<stop offset="0.76" stop-color="#8AB3C1"/>
</linearGradient>
<linearGradient id="paint6_linear_3512_20971" x1="25.4371" y1="11.0886" x2="32.4926" y2="27.1738" gradientUnits="userSpaceOnUse">
<stop offset="0.01" stop-color="#3EC7CF"/>
<stop offset="0.51" stop-color="#27A0A9"/>
<stop offset="0.7" stop-color="#2298A2"/>
<stop offset="0.99" stop-color="#15848E"/>
<stop offset="1" stop-color="#15838E"/>
</linearGradient>
<linearGradient id="paint7_linear_3512_20971" x1="44.4447" y1="26.851" x2="44.3524" y2="29.1923" gradientUnits="userSpaceOnUse">
<stop stop-color="#9EC9D8"/>
<stop offset="0.08" stop-color="#AAD3E2"/>
<stop offset="0.19" stop-color="#B3DCEA"/>
<stop offset="0.33" stop-color="#B7DFED"/>
<stop offset="0.49" stop-color="#ABD4E3"/>
<stop offset="0.78" stop-color="#8DB7C8"/>
<stop offset="1" stop-color="#729EB1"/>
</linearGradient>
<linearGradient id="paint8_linear_3512_20971" x1="43.9775" y1="30.9043" x2="43.9134" y2="33.1599" gradientUnits="userSpaceOnUse">
<stop stop-color="#9EC9D8"/>
<stop offset="0.08" stop-color="#AAD3E2"/>
<stop offset="0.19" stop-color="#B3DCEA"/>
<stop offset="0.33" stop-color="#B7DFED"/>
<stop offset="0.49" stop-color="#ABD4E3"/>
<stop offset="0.78" stop-color="#8DB7C8"/>
<stop offset="1" stop-color="#729EB1"/>
</linearGradient>
<linearGradient id="paint9_linear_3512_20971" x1="43.5928" y1="34.8003" x2="43.5005" y2="37.3266" gradientUnits="userSpaceOnUse">
<stop stop-color="#9EC9D8"/>
<stop offset="0.08" stop-color="#AAD3E2"/>
<stop offset="0.19" stop-color="#B3DCEA"/>
<stop offset="0.33" stop-color="#B7DFED"/>
<stop offset="0.49" stop-color="#ABD4E3"/>
<stop offset="0.78" stop-color="#8DB7C8"/>
<stop offset="1" stop-color="#729EB1"/>
</linearGradient>
<linearGradient id="paint10_linear_3512_20971" x1="43.4532" y1="38.6778" x2="43.3609" y2="41.2041" gradientUnits="userSpaceOnUse">
<stop stop-color="#9EC9D8"/>
<stop offset="0.08" stop-color="#AAD3E2"/>
<stop offset="0.19" stop-color="#B3DCEA"/>
<stop offset="0.33" stop-color="#B7DFED"/>
<stop offset="0.49" stop-color="#ABD4E3"/>
<stop offset="0.78" stop-color="#8DB7C8"/>
<stop offset="1" stop-color="#729EB1"/>
</linearGradient>
</defs>
</svg>
