<svg width="193" height="188" viewBox="0 0 193 188" fill="none" xmlns="http://www.w3.org/2000/svg">
<path d="M59.7529 0.477539C58.2273 0.816574 55.8542 1.53699 54.4557 2.13028C52.591 2.89308 50.8112 3.23212 47.6752 3.40163C41.6999 3.69827 39.3267 4.54582 36.4027 7.46991C33.2667 10.5635 32.7582 12.2162 32.4191 20.6071C32.2072 25.9043 32.292 27.8113 32.8429 30.5659C33.6905 34.6342 35.3008 38.2787 37.6316 41.3299L39.3691 43.6183L36.3179 45.7372C31.5292 49.1274 29.1984 51.6701 26.9948 56.1198C22.9265 64.2564 17.8835 82.4789 16.7393 93.1581C16.485 95.2347 16.2731 95.7008 15.0018 96.6755C12.7134 98.413 11.8658 100.532 11.5692 105.321C11.3997 107.99 11.4844 109.982 11.8235 110.914C12.2472 112.271 11.6963 115.025 6.1448 139.181C2.75457 153.886 0 166.43 0 167.023C0 168.633 1.39847 169.777 3.43261 169.777C4.36493 169.777 5.04298 169.905 4.91584 170.117C4.83109 170.286 4.66158 174.1 4.6192 178.634C4.49206 186.263 4.53444 186.856 5.29725 187.407C5.93291 187.873 8.51797 188 18.0954 188C29.1984 188 30.1307 187.958 30.8935 187.195C31.5716 186.517 31.6987 185.5 31.8682 178.507C31.9954 174.142 32.1649 170.54 32.2496 170.498C32.3344 170.413 33.7329 170.456 35.3432 170.54L38.2673 170.71L37.9707 176.897C37.8011 180.33 37.5892 183.805 37.4621 184.652C37.2502 185.881 37.3774 186.39 38.0978 187.11C38.9453 187.958 39.3691 188 48.6923 188C56.7441 188 58.524 187.873 59.0325 187.364C60.6005 185.839 60.77 171.684 59.3715 157.488C58.863 152.233 58.3121 145.198 58.1426 141.808C57.8035 135.282 58.0578 128.883 58.6087 130.79C58.7782 131.383 60.7276 144.054 62.9736 158.971C65.4316 175.287 67.2538 186.474 67.6352 187.025C68.2285 188 68.3557 188 77.3398 188C85.9001 188 86.4934 187.958 87.2986 187.152C87.7648 186.686 88.1462 186.135 88.1462 185.966C88.1462 185.161 86.451 168.591 86.2392 167.32L85.9849 165.963H88.2733H90.6041L92.2144 176.219C93.4434 183.847 94.0791 186.686 94.5876 187.237C95.2657 187.915 96.3251 188 103.826 188C111.751 188 112.344 187.958 113.149 187.152C113.615 186.686 113.997 186.051 113.997 185.712C113.997 185.373 113.446 180.669 112.725 175.244C112.047 169.82 111.539 165.328 111.666 165.201C111.751 165.116 112.683 164.904 113.742 164.819C115.946 164.565 116.667 163.887 116.624 162.234C116.624 161.599 113.615 145.283 109.971 126.001L103.36 90.9121L104.631 87.649C106.199 83.5383 106.92 79.7243 106.538 77.3088C106.157 75.0204 104.038 72.732 102.258 72.732C101.071 72.732 101.071 72.6896 100.351 68.7908C98.1897 57.1369 93.0196 48.1104 85.1797 42.3046C83.3998 40.9909 81.3233 39.5924 80.6029 39.1686L79.2892 38.4906L80.4334 35.3546C81.4081 32.6424 81.5352 31.6253 81.5352 26.9638C81.5352 21.158 81.1114 19.0391 78.6535 13.4028C77.8907 11.6653 76.916 9.29216 76.4922 8.14795C75.5175 5.47815 72.8901 2.63882 70.2203 1.24034C67.5928 -0.0733643 63.5246 -0.37001 59.7529 0.477539ZM45.2597 9.9702C44.7935 10.9025 44.3273 12.6824 44.2002 13.9537L43.9459 16.2421L41.3609 16.4964C39.92 16.6236 38.3944 16.8778 37.9707 17.0473C37.2078 17.344 37.1655 17.2168 37.4621 15.5217C38.013 12.1739 40.1319 9.71594 43.2255 8.826C46.0225 8.02081 46.192 8.10558 45.2597 9.9702ZM75.1361 17.7254C77.1279 23.065 77.3822 28.6589 75.8989 33.3205C74.5852 37.4311 74.7123 37.3464 70.3898 37.4735L66.5758 37.643L64.4145 39.9314L62.2108 42.2622L59.8801 40.1009C58.5663 38.9144 56.4051 37.1768 55.0913 36.2869C52.8877 34.8037 52.6334 34.4223 51.9978 32.1763C51.6164 30.7778 51.235 28.4894 51.1926 27.0061L51.0654 24.3787L55.049 22.0903C60.77 18.7848 68.7794 16.115 73.1444 15.9879C74.3309 15.9455 74.5428 16.1574 75.1361 17.7254ZM45.6834 22.5988C45.9377 23.4888 46.2344 25.6501 46.3615 27.3875C46.4462 29.125 46.87 31.8372 47.2514 33.4052L47.9719 36.2022L46.531 38.1516C44.5392 40.8637 43.7764 40.9909 42.0389 38.9991C39.3691 35.9055 37.6316 31.4982 37.0807 26.2433C36.6993 22.7684 37.1231 22.0479 39.92 21.5394C41.149 21.3275 42.8441 21.1156 43.6917 21.0732C45.0901 21.0309 45.2597 21.158 45.6834 22.5988ZM79.3739 44.3387C85.3916 48.1951 89.2904 52.6448 92.1721 58.9167C94.63 64.214 97.0879 74.8509 95.8166 74.8509C95.3504 74.8509 95.2657 74.5966 94.5452 70.274C94.0367 67.0109 93.5705 66.3753 91.7059 66.3753C89.7141 66.3753 89.1632 67.6042 89.7989 70.5707C90.4769 73.749 90.3922 80.6143 89.6294 83.5383C85.9849 97.6926 71.0255 109.601 52.4215 113.118L49.1584 113.754L48.3109 111.804C47.8447 110.745 46.9548 109.219 46.3615 108.457C45.7682 107.651 45.3868 106.761 45.5139 106.422C45.6411 106.083 46.7005 105.278 47.9295 104.643C57.2102 99.5996 65.3044 91.8444 69.0337 84.3435C72.4239 77.4359 73.1444 70.3588 70.9831 64.0445C69.8389 60.5695 68.2709 57.6878 65.9825 54.8061C64.7959 53.2805 64.7535 53.0262 64.9654 50.2716C65.2197 47.1781 65.813 45.6948 67.6352 43.5336C68.6947 42.2622 68.8218 42.2198 72.3816 42.2198H76.0684L79.3739 44.3387ZM101.622 80.021C101.114 85.9539 96.3251 93.9209 91.833 96.2094C90.5193 96.8874 89.3327 97.3536 89.2056 97.2264C89.0785 97.0993 89.6718 95.8279 90.5193 94.3871C92.1297 91.6749 94.5029 85.4453 94.5029 83.8774C94.5029 83.3688 95.0961 82.267 95.7742 81.4618C97.0879 79.9786 100.648 77.3935 101.41 77.3935C101.665 77.3935 101.749 78.4954 101.622 80.021ZM105.479 128.459C108.742 145.664 111.327 159.861 111.242 159.946C111.2 160.031 102.809 160.497 92.6806 161.005C78.823 161.726 74.119 162.065 73.6105 162.531C73.1867 162.87 72.8901 163.717 72.8901 164.523C72.8901 166.43 73.9495 166.811 78.145 166.514C80.1791 166.345 81.3657 166.43 81.3657 166.684C81.3657 167.362 82.5946 179.567 82.8489 181.304L83.0608 182.915H77.3398C71.7883 182.915 71.6188 182.872 71.4069 181.94C70.6441 178.592 61.4904 116.169 61.7447 115.957C61.9566 115.788 63.2279 115.237 64.6264 114.686C71.2797 112.101 77.7636 108.202 82.5946 103.837L84.8831 101.803L88.5276 101.761C92.6806 101.761 94.2486 101.125 97.4693 98.2435C98.5288 97.3112 99.4187 96.6755 99.4611 96.8026C99.5458 96.9722 102.258 111.211 105.479 128.459ZM21.528 100.913C21.189 101.634 21.189 102.269 21.4856 102.905C21.8246 103.625 21.7399 104.134 21.2737 104.854C20.8076 105.575 20.7652 106.041 21.0618 106.761C21.4009 107.482 21.3585 107.948 20.8923 108.541C20.5533 109.05 20.3838 109.855 20.5109 110.533C20.6804 111.338 20.5533 111.635 20.2143 111.508C19.9176 111.423 19.1972 111.254 18.5615 111.126C16.7393 110.703 16.0189 108.88 16.3579 105.448C16.6545 102.524 17.375 100.532 18.3073 100.15C18.6039 100.023 19.5786 99.8962 20.4262 99.8962C21.9518 99.8539 21.9942 99.8962 21.528 100.913ZM37.4197 106.804C39.1996 107.524 42.6322 111.254 43.6493 113.542C44.624 115.618 44.4969 115.788 40.8524 117.483C33.1819 121.085 23.6045 120.916 21.2737 117.186C20.8076 116.466 20.8923 116.381 22.2908 116.381C24.6216 116.381 26.2743 114.517 26.2743 111.804C26.2743 109.558 26.6981 108.965 29.2408 107.694C32.292 106.126 35.1313 105.829 37.4197 106.804ZM107.471 172.532C107.979 176.473 108.53 180.541 108.657 181.516L108.911 183.338H103.656H98.4016L98.1474 182.152C98.0202 181.516 97.4269 177.872 96.8336 174.015C96.198 170.159 95.6471 166.684 95.5199 166.302C95.308 165.667 95.7742 165.54 99.4611 165.413C101.749 165.328 104.292 165.285 105.097 165.285L106.581 165.328L107.471 172.532Z" fill="white"/>
<path d="M145.228 4.92237C129.845 7.67693 117.258 19.2461 113.063 34.5022C111.707 39.3757 111.707 49.8854 113.063 54.8436C114.207 59.1238 115.987 63.1497 118.233 66.6247C119.165 68.0231 119.928 69.5488 119.928 70.0149C119.928 71.7524 118.106 77.2615 116.623 80.1432C115.775 81.7536 113.953 84.4234 112.639 86.0338C110.605 88.4069 110.181 89.2121 110.181 90.4835C110.181 92.0938 111.198 93.4923 112.851 94.0432C114.546 94.6789 124.166 90.6106 129.251 87.1356C130.523 86.2457 132.557 84.6777 133.786 83.5759L135.947 81.6265L137.812 82.3893C142.049 84.2115 145.694 84.8048 152.559 84.7624C158.407 84.7201 159.551 84.5929 162.899 83.5759C170.019 81.4146 175.528 78.1939 180.529 73.1509C185.826 67.896 189.386 61.6665 191.377 54.2927C192.564 49.843 192.479 39.079 191.208 34.3751C190.064 30.1796 187.436 24.6705 185.021 21.2803C182.859 18.2714 177.816 13.3132 174.935 11.3214C171.841 9.24493 166.29 6.70224 162.518 5.72755C158.746 4.71048 148.872 4.24432 145.228 4.92237ZM161.077 10.3891C170.739 12.8894 179.215 19.7547 183.749 28.6964C189.131 39.4604 188.835 51.5805 182.944 62.1326C180.529 66.4975 173.875 73.1509 169.51 75.5664C160.441 80.6518 150.144 81.5841 140.693 78.1515C134.845 76.075 134.76 76.075 131.752 78.8295C128.616 81.7536 125.352 83.9996 121.327 86.0338C119.631 86.8813 118.148 87.5594 118.063 87.5594C117.936 87.5594 118.402 86.7118 119.123 85.6524C122.047 81.3298 124.971 72.8119 125.013 68.6164C125.013 68.0655 124.124 66.3704 123.064 64.8024C118.869 58.7424 116.834 52.1738 116.834 44.7577C116.834 42.2997 117.046 39.1638 117.343 37.7653C120.352 23.6958 131.794 12.4657 145.821 9.79584C149.889 8.99066 156.839 9.2873 161.077 10.3891Z" fill="white"/>
<path d="M163.452 22.3881C163.113 22.939 162.393 24.2103 161.842 25.2698C160.825 27.1344 160.74 27.1768 158.028 27.6429C156.502 27.8972 155.019 28.2362 154.765 28.4057C153.79 28.999 154.256 30.1432 156.418 32.3045L158.579 34.5082L158.113 37.2204C157.519 40.7801 157.519 40.8649 158.494 41.3734C159.13 41.7124 159.893 41.5429 162.096 40.4411L164.851 39.085L167.605 40.4411C171.631 42.4328 172.182 41.9667 171.504 37.4746L171.08 34.5929L173.242 32.3045C174.471 31.0332 175.445 29.8042 175.445 29.5499C175.445 28.6176 174.089 27.8972 171.716 27.6429C168.877 27.3039 168.707 27.1768 167.054 23.9561C165.741 21.3286 164.427 20.7777 163.452 22.3881Z" fill="white"/>
<path d="M141.583 31.8806C136.328 33.279 131.963 37.0083 129.548 42.0937C127.725 45.9924 127.429 51.6711 128.785 56.1208C131.497 65.1049 141.117 70.7412 150.61 68.9613C159 67.3933 164.806 60.9095 165.866 51.9253C166.12 50.0607 166.035 49.4674 165.484 49.0013C164.891 48.5351 164.552 48.747 162.772 50.7388C158.789 55.2308 153.618 56.4174 148.66 53.9595C144.041 51.7135 141.668 47.4757 142.092 42.3903C142.346 39.1272 143.66 36.6269 146.457 34.2537C148.999 32.0925 148.83 31.2025 145.906 31.2449C144.804 31.2449 142.854 31.5415 141.583 31.8806Z" fill="white"/>
</svg>
