<svg width="178" height="190" viewBox="0 0 178 190" fill="none" xmlns="http://www.w3.org/2000/svg">
<path d="M52.6502 2.21323C24.9064 16.9011 6.91749 43.6063 3.98734 74.5399C3.46807 80.1406 3.76479 91.0081 4.58078 96.2379C5.73059 103.582 8.28984 112.669 10.8862 118.529L11.8505 120.681L19.7879 112.743L27.7624 104.769V94.1979C27.7624 80.6969 27.7995 80.6598 32.9551 85.8525L36.1078 89.0052L39.2605 85.8525C44.4532 80.6969 44.4532 80.6969 44.4532 94.1608V104.732L59.4378 119.79C75.4609 135.851 75.6093 136.036 74.8304 138.781C74.6078 139.671 71.5664 142.972 63.7403 150.761C57.8429 156.658 52.984 161.703 52.984 161.888C52.984 162.741 55.8771 165.041 58.1767 166.117C73.7547 173.127 93.932 175.315 111.661 171.866C137.254 166.895 159.211 151.392 172.453 129.026C175.123 124.501 178.091 118.455 177.905 117.899C177.831 117.75 176.459 118.604 174.827 119.827C163.44 128.395 150.236 133.811 135.511 135.962C129.576 136.815 118.931 136.815 112.885 135.962C84.919 131.919 61.2181 114.857 48.7557 89.7099C45.9368 84.0351 43.155 76.2831 41.8939 70.6083C39.3718 59.2215 39.3718 45.3496 41.8939 33.9628C44.2306 23.3549 49.4975 11.7455 55.84 3.0663C56.9156 1.58269 57.8058 0.284515 57.8058 0.173233C57.8058 -0.308945 56.5447 0.173233 52.6502 2.21323Z" fill="white"/>
<path d="M107.136 8.51774C105.875 10.8174 105.837 15.3795 107.024 17.6049C108.063 19.6078 110.733 22.0187 112.551 22.6493C114.925 23.4652 118.226 23.3169 120.414 22.2783C121.49 21.7591 122.343 21.2769 122.343 21.1656C122.343 21.0544 121.193 20.9431 119.821 20.9431C117.744 20.9431 116.89 20.7205 114.85 19.7191C110.696 17.6791 108.656 14.5635 108.285 9.63045L108.063 6.84866L107.136 8.51774Z" fill="white"/>
<path d="M107.322 33.2158C95.3051 42.9706 90.9655 47.3844 88.1095 52.6513C84.0296 60.0694 85.1052 68.9711 90.8171 75.3507L92.7458 77.502H114.555H136.364L138.108 75.5362C140.444 72.8656 142.559 68.5631 143.115 65.225C144.636 56.3232 140.222 48.5342 128.019 38.4456C119.674 31.5838 114.555 27.4296 114.444 27.4667C114.407 27.4667 111.217 30.0631 107.322 33.2158Z" fill="white"/>
<path d="M58.8453 31.1812C54.1719 35.0015 52.577 37.5608 53.3188 40.3055C53.5413 41.1215 54.0606 42.2342 54.5057 42.7905L55.2475 43.7549H61.4787C67.4503 43.7549 67.7099 43.7178 68.4888 42.9018C70.2321 41.0473 70.4917 38.4509 69.1936 36.1513C68.3405 34.6306 62.4431 29.2896 61.6271 29.2896C61.4045 29.2896 60.1435 30.1426 58.8453 31.1812Z" fill="white"/>
<path d="M165.554 30.4764C160.88 34.1855 159.063 36.5222 159.063 38.8218C159.063 40.6022 159.471 41.6036 160.658 42.9018C161.4 43.7178 161.659 43.7549 167.408 43.7549C173.714 43.7549 173.936 43.6807 175.16 41.9004C175.902 40.7876 175.939 37.7833 175.234 36.4109C174.381 34.816 168.373 29.2896 167.483 29.2896C167.223 29.2896 166.37 29.8088 165.554 30.4764Z" fill="white"/>
<path d="M52.9854 47.0901C52.9854 47.8319 53.1337 47.8319 61.6275 47.7577C68.9714 47.6464 70.2325 47.5722 70.2325 47.0901C70.2325 46.6079 68.9714 46.5337 61.6275 46.4224C53.1337 46.3483 52.9854 46.3483 52.9854 47.0901Z" fill="white"/>
<path d="M158.876 46.7203C158.283 47.6846 159.433 47.833 167.63 47.833C175.864 47.833 176.123 47.7959 176.123 47.0912C176.123 46.3865 175.864 46.3494 167.63 46.3494C162.326 46.3494 159.025 46.4977 158.876 46.7203Z" fill="white"/>
<path d="M55.2109 61.1842V71.9404H61.5163H67.8217V61.1842V50.4279H61.5163H55.2109V61.1842Z" fill="white"/>
<path d="M161.29 61.1842V71.9404H167.409H173.529V61.1842V50.4279H167.409H161.29V61.1842Z" fill="white"/>
<path d="M51.9832 75.1297C51.872 75.4635 51.9832 75.8715 52.28 76.057C52.5767 76.2424 56.8792 76.3537 61.8864 76.2795C70.714 76.2053 70.9736 76.1682 70.9736 75.4635C70.9736 74.7588 70.6769 74.7217 61.5897 74.6104C53.2443 74.5362 52.2058 74.5733 51.9832 75.1297Z" fill="white"/>
<path d="M157.839 75.0573C157.357 76.2442 158.395 76.3926 167.408 76.3926C172.304 76.3926 176.533 76.2442 176.829 76.0588C177.126 75.8733 177.237 75.4653 177.126 75.1315C176.904 74.6122 175.754 74.538 167.446 74.538C159.805 74.538 157.987 74.6493 157.839 75.0573Z" fill="white"/>
<path d="M53.7266 79.3586C53.7266 79.5811 56.5825 79.7295 61.5156 79.7295C66.4486 79.7295 69.3046 79.5811 69.3046 79.3586C69.3046 79.136 66.4486 78.9877 61.5156 78.9877C56.5825 78.9877 53.7266 79.136 53.7266 79.3586Z" fill="white"/>
<path d="M159.62 79.3586C159.471 79.6182 162.142 79.7295 167.372 79.7295C172.453 79.7295 175.383 79.5811 175.383 79.3586C175.383 79.136 172.564 78.9877 167.631 78.9877C162.847 78.9877 159.768 79.136 159.62 79.3586Z" fill="white"/>
<path d="M80.2831 81.066C79.9492 81.3627 79.6896 82.2158 79.6896 82.8834C79.6896 85.4427 77.6125 85.2943 114.629 85.2943C147.454 85.2943 147.936 85.2943 148.678 84.5525C149.605 83.6252 149.642 81.882 148.752 81.1031C148.122 80.5096 145.192 80.4725 114.443 80.4725C84.4001 80.4725 80.8023 80.5467 80.2831 81.066Z" fill="white"/>
<path d="M55.2087 89.2629C55.2087 96.7552 54.9862 96.0876 59.0291 101.392C61.8109 105.063 67.0035 110.887 67.4857 110.887C67.6712 110.887 67.8195 105.323 67.8195 96.7923V82.6979H61.5141H55.2087V89.2629Z" fill="white"/>
<path d="M161.29 103.837C161.29 115.483 161.438 124.979 161.586 124.979C162.068 124.979 168.633 121.01 171.193 119.192L173.529 117.523V100.091V82.6952H167.409H161.29V103.837Z" fill="white"/>
<path d="M30.731 94.5671V101.763L31.9549 100.613C34.8851 97.8311 37.296 97.9053 40.4858 100.798L41.4872 101.763V94.5671V87.3715L38.9651 89.8566C37.5927 91.229 36.2945 92.3417 36.1091 92.3417C35.9236 92.3417 34.6255 91.229 33.2531 89.8566L30.731 87.3715V94.5671Z" fill="white"/>
<path d="M87.8501 106.655V125.386L90.9286 126.833C92.5977 127.612 95.1569 128.65 96.6406 129.169L99.274 130.134L99.4224 122.419L99.5336 114.741L100.98 111.774C102.241 109.178 103.057 108.176 108.102 103.169C111.254 100.09 114.11 97.5311 114.444 97.5311C115.408 97.5311 124.273 106.062 126.276 108.881C129.354 113.183 129.503 113.851 129.688 124.496L129.837 133.843L131.58 133.657C132.507 133.546 135.066 133.212 137.292 132.878L141.261 132.322V110.105V87.8875H114.555H87.8501V106.655Z" fill="white"/>
<path d="M70.416 103.432V113.78L72.9382 115.783C76.7585 118.899 84.2137 123.869 85.0297 123.869C85.141 123.869 85.2523 116.933 85.2523 108.477V93.084H77.8341H70.416V103.432Z" fill="white"/>
<path d="M143.856 112.405C143.856 128.094 143.93 131.692 144.338 131.544C144.598 131.432 146.156 130.987 147.75 130.542C149.382 130.097 152.424 129.058 154.538 128.242L158.321 126.722V109.92V93.0806H151.089H143.856V112.405Z" fill="white"/>
<path d="M31.8064 104.469C29.989 106.249 28.5054 107.881 28.5054 108.066C28.5054 108.586 35.6268 115.707 36.1089 115.707C36.6282 115.707 43.7125 108.586 43.7125 108.066C43.7125 107.844 42.2289 106.249 40.4115 104.469C37.8893 101.984 36.8878 101.242 36.1089 101.242C35.33 101.242 34.3286 101.984 31.8064 104.469Z" fill="white"/>
<path d="M108.582 106.363C106.468 108.552 104.243 111.259 103.612 112.372L102.5 114.412V122.72V131.066L103.612 131.362C105.207 131.807 111.958 133.143 112.551 133.143C112.996 133.143 113.07 130.658 113.07 117.75C113.07 109.293 112.922 102.357 112.737 102.357C112.588 102.357 110.697 104.138 108.582 106.363ZM111.513 123.202C111.772 123.462 111.958 124.686 111.958 126.17C111.958 128.358 111.846 128.729 111.142 129.1C110.474 129.471 110.251 129.396 109.658 128.692C108.916 127.764 108.731 124.686 109.361 123.462C109.806 122.683 110.845 122.535 111.513 123.202Z" fill="white"/>
<path d="M116.038 117.861V133.402L117.448 133.661C118.189 133.773 120.6 133.884 122.826 133.884H126.794V125.056C126.794 115.227 126.609 114.04 124.569 111.036C123.197 108.996 118.634 104.174 117.077 103.024L116.038 102.32V117.861ZM119.562 125.872C119.562 128.209 119.45 128.877 118.931 129.173C117.781 129.915 117.151 128.877 117.151 126.28C117.151 123.239 117.373 122.682 118.597 122.831C119.562 122.942 119.562 122.979 119.562 125.872Z" fill="white"/>
<path d="M22.1992 114.036L18.3047 117.931L22.3105 121.937L26.2792 125.905L30.2479 121.937L34.2536 117.931L30.3591 114.036C28.2079 111.885 26.3904 110.142 26.2792 110.142C26.1679 110.142 24.3505 111.885 22.1992 114.036Z" fill="white"/>
<path d="M41.8569 114.036L37.9624 117.931L41.9682 121.937L45.9369 125.905L49.9056 121.937L53.9114 117.931L50.0168 114.036C47.8656 111.885 46.0482 110.142 45.9369 110.142C45.8256 110.142 44.0082 111.885 41.8569 114.036Z" fill="white"/>
<path d="M12.3707 123.866L8.66162 127.575L12.6674 131.544L16.6361 135.55L20.5306 131.655L24.4251 127.761L20.6419 123.978C18.5277 121.863 16.6732 120.157 16.4506 120.157C16.2281 120.157 14.4107 121.826 12.3707 123.866Z" fill="white"/>
<path d="M32.1032 123.793C30.1374 125.759 28.5054 127.576 28.5054 127.762C28.5054 128.244 35.6268 135.365 36.1089 135.365C36.5911 135.365 43.7125 128.244 43.7125 127.762C43.7125 127.279 36.5911 120.158 36.1089 120.158C35.8864 120.158 34.1061 121.79 32.1032 123.793Z" fill="white"/>
<path d="M51.5752 123.978L47.792 127.761L51.6865 131.655L55.581 135.55L59.5497 131.544L63.5555 127.575L59.8464 123.866C57.8065 121.826 55.989 120.157 55.7665 120.157C55.5439 120.157 53.6894 121.863 51.5752 123.978Z" fill="white"/>
<path d="M3.17178 133.103C-1.09364 137.442 -1.09364 137.48 3.39432 141.968L6.80665 145.38L10.7012 141.485L14.5957 137.591L10.7012 133.696C8.54991 131.545 6.73247 129.802 6.58411 129.802C6.47284 129.802 4.95212 131.285 3.17178 133.103Z" fill="white"/>
<path d="M22.272 133.622L18.4888 137.405L22.4946 141.411L26.4632 145.38L30.3578 141.485L34.2523 137.591L30.3578 133.696C28.2065 131.545 26.3891 129.802 26.2778 129.802C26.1665 129.802 24.3862 131.508 22.272 133.622Z" fill="white"/>
<path d="M41.8569 133.696L37.9624 137.591L41.8569 141.485L45.7514 145.38L49.7201 141.411L53.7259 137.405L49.9427 133.622C47.8285 131.508 46.0482 129.802 45.9369 129.802C45.8256 129.802 44.0082 131.545 41.8569 133.696Z" fill="white"/>
<path d="M61.4035 133.437C59.4377 135.403 57.8057 137.22 57.8057 137.405C57.8057 137.628 59.5118 139.482 61.626 141.597L65.4092 145.38L68.8587 141.93C73.3095 137.48 73.3095 137.442 69.0441 133.103C67.2638 131.285 65.6318 129.802 65.4463 129.802C65.2238 129.802 63.4063 131.434 61.4035 133.437Z" fill="white"/>
<path d="M12.5561 143.341L8.66162 147.235L12.6674 151.241L16.6361 155.21L20.5306 151.315L24.4251 147.421L20.4193 143.415L16.4506 139.446L12.5561 143.341Z" fill="white"/>
<path d="M32.2134 143.342L28.3188 147.236L32.2134 151.131L36.1079 155.025L40.0024 151.131L43.8969 147.236L40.0024 143.342L36.1079 139.447L32.2134 143.342Z" fill="white"/>
<path d="M51.5019 143.341L47.6074 147.235L51.6132 151.241L55.5819 155.21L59.5506 151.241L63.5564 147.235L59.6619 143.341C57.5106 141.19 55.6932 139.446 55.5819 139.446C55.4706 139.446 53.6532 141.19 51.5019 143.341Z" fill="white"/>
<path d="M22.272 153.278L18.4888 157.062L22.3833 160.956L26.2778 164.851L30.1723 160.956L34.0668 157.062L30.2836 153.278C28.1694 151.164 26.3891 149.458 26.2778 149.458C26.1665 149.458 24.3862 151.164 22.272 153.278Z" fill="white"/>
<path d="M41.6715 153.167L37.9624 156.876L41.9682 160.845L45.9369 164.851L49.8314 160.956L53.7259 157.062L49.9427 153.278C47.8285 151.164 45.974 149.458 45.7514 149.458C45.5289 149.458 43.7114 151.127 41.6715 153.167Z" fill="white"/>
<path d="M32.1032 162.737C30.1374 164.703 28.5054 166.52 28.5054 166.706C28.5054 166.928 29.9519 168.56 31.7693 170.341C36.0719 174.643 36.1831 174.643 40.5598 170.229L43.898 166.891L40.0035 162.997C37.8522 160.845 36.0348 159.102 35.9235 159.102C35.8122 159.102 34.1061 160.734 32.1032 162.737Z" fill="white"/>
<path d="M47.4955 167.002C44.6766 169.858 44.4541 170.155 44.4541 171.601C44.4541 173.085 44.6025 173.307 50.574 179.168C53.9122 182.469 57.0278 185.436 57.4729 185.733L58.2518 186.289L57.9922 182.951C57.6584 178.537 57.8067 178.389 62.3689 178.389L65.7812 178.352L58.3631 171.156C54.2831 167.187 50.8708 163.923 50.7595 163.923C50.6482 163.923 49.2017 165.296 47.4955 167.002Z" fill="white"/>
<path d="M30.731 181.543V190L33.1048 187.737C34.4029 186.476 35.7011 185.438 35.9978 185.438C36.2575 185.438 37.4814 186.439 38.7054 187.663C39.9294 188.887 41.0421 189.889 41.1905 189.889C41.3389 189.889 41.4872 186.105 41.4872 181.506V173.087L39.8552 174.607C37.1476 177.092 34.848 177.018 32.1404 174.385L30.731 173.05V181.543Z" fill="white"/>
</svg>
