<svg width="25" height="23" viewBox="0 0 25 23" fill="none" xmlns="http://www.w3.org/2000/svg">
<path fill-rule="evenodd" clip-rule="evenodd" d="M5.2 0C4.85522 0 4.52456 0.136964 4.28076 0.380761C4.03696 0.624558 3.9 0.955218 3.9 1.3V2.6H2.6C1.91044 2.6 1.24912 2.87393 0.761522 3.36152C0.273928 3.84912 0 4.51044 0 5.2V18.2C0 18.8896 0.273928 19.5509 0.761522 20.0385C1.24912 20.5261 1.91044 20.8 2.6 20.8H18.2C18.8896 20.8 19.5509 20.5261 20.0385 20.0385C20.5261 19.5509 20.8 18.8896 20.8 18.2V5.2C20.8 4.51044 20.5261 3.84912 20.0385 3.36152C19.5509 2.87393 18.8896 2.6 18.2 2.6H16.9V1.3C16.9 0.955218 16.763 0.624558 16.5192 0.380761C16.2754 0.136964 15.9448 0 15.6 0C15.2552 0 14.9246 0.136964 14.6808 0.380761C14.437 0.624558 14.3 0.955218 14.3 1.3V2.6H6.5V1.3C6.5 0.955218 6.36304 0.624558 6.11924 0.380761C5.87544 0.136964 5.54478 0 5.2 0ZM5.2 6.5C4.85522 6.5 4.52456 6.63696 4.28076 6.88076C4.03696 7.12456 3.9 7.45522 3.9 7.8C3.9 8.14478 4.03696 8.47544 4.28076 8.71924C4.52456 8.96304 4.85522 9.1 5.2 9.1H15.6C15.9448 9.1 16.2754 8.96304 16.5192 8.71924C16.763 8.47544 16.9 8.14478 16.9 7.8C16.9 7.45522 16.763 7.12456 16.5192 6.88076C16.2754 6.63696 15.9448 6.5 15.6 6.5H5.2Z" fill="#239571"/>
<circle cx="21" cy="19" r="4" fill="white"/>
</svg>
