<svg width="20" height="20" viewBox="0 0 20 20" fill="none" xmlns="http://www.w3.org/2000/svg">
<circle cx="10" cy="10" r="9.5" stroke="black"/>
<circle cx="6.36364" cy="7.36364" r="1.36364" fill="black"/>
<circle cx="13.6366" cy="7.36364" r="1.36364" fill="black"/>
<path d="M15.4984 11C15.7754 11 16.0022 11.225 15.9791 11.5011C15.8611 12.9088 15.2492 14.2361 14.2426 15.2426C13.1174 16.3679 11.5913 17 10 17C8.4087 17 6.88258 16.3679 5.75736 15.2426C4.75085 14.2361 4.13887 12.9088 4.02094 11.5011C3.99782 11.225 4.22457 11 4.5016 11C4.77863 11 5.00059 11.2251 5.02834 11.5008C5.14327 12.6421 5.64843 13.715 6.46673 14.5333C7.40381 15.4704 8.67477 15.9968 10 15.9968C11.3252 15.9968 12.5962 15.4704 13.5333 14.5333C14.3516 13.715 14.8567 12.6421 14.9717 11.5008C14.9994 11.2251 15.2214 11 15.4984 11Z" fill="black"/>
</svg>
