<svg width="29" height="29" viewBox="0 0 29 29" fill="none" xmlns="http://www.w3.org/2000/svg">
<path d="M0.176351 0.107735C-0.0653153 0.368996 0.117568 0.68251 0.548649 0.754356C0.705405 0.780483 0.783784 0.826202 0.783784 0.89805C0.783784 0.956833 0.607432 1.79287 0.391892 2.76607C0.176351 3.73273 0 4.58183 0 4.64062C0 4.79737 0.182883 4.95413 0.365766 4.95413C0.450676 4.95413 0.868694 4.78431 1.29324 4.56877L2.05743 4.18341L2.64527 4.84962C3.08288 5.33296 3.28536 5.51584 3.41599 5.5289L3.59234 5.5485V9.08859V12.6287L3.2723 12.805C3.0241 12.9422 2.91959 13.0532 2.78243 13.321C2.48851 13.9154 2.57995 14.4183 3.07635 14.8951L3.38986 15.2021L3.20045 15.3393C3.09595 15.4111 2.88694 15.5156 2.73018 15.5744C1.80923 15.8944 1.05811 16.6586 0.783784 17.5469C0.672748 17.8996 0.653153 17.9192 0.418018 17.9584C0.0195946 18.0237 -0.124099 18.3503 0.130631 18.605C0.202477 18.6769 0.346171 18.7357 0.457207 18.7357H0.653153V21.7728V24.81H0.437613C0.189414 24.81 0 24.9733 0 25.1888C0 25.3848 0.176351 25.5285 0.42455 25.5285C0.633559 25.5285 0.653153 25.5481 0.725 25.8028C0.947072 26.6453 1.60023 27.4161 2.41014 27.7884C3.30496 28.1999 3.35068 28.2325 3.52703 28.5917C3.77523 29.1012 4.13446 29.1339 4.34347 28.6701C4.50676 28.3044 4.72883 28.1149 5.29054 27.8863C6.21149 27.5075 6.8973 26.789 7.15856 25.9269C7.26959 25.5481 7.28266 25.5285 7.48514 25.5285C7.73333 25.5285 7.90315 25.3848 7.90315 25.1692C7.90315 24.9602 7.73986 24.81 7.50473 24.81H7.31532V21.7728V18.7357H7.46554C7.70068 18.7357 7.90315 18.5593 7.90315 18.3438C7.90315 18.1217 7.70068 17.9519 7.43941 17.9519C7.29572 17.9519 7.25653 17.9062 7.19122 17.6776C6.94302 16.8481 6.2964 16.0969 5.50608 15.7312C4.50023 15.2609 4.43491 15.2021 4.76802 14.98C4.87905 14.9082 5.04234 14.6926 5.14032 14.5032C5.46689 13.8435 5.21869 13.0663 4.58513 12.7593L4.31081 12.6287L4.31734 7.5994C4.31734 3.77192 4.33694 2.45909 4.40225 2.09332C4.44797 1.83206 4.50676 1.60345 4.52635 1.57733C4.57207 1.53161 5.41464 1.65571 5.47342 1.72102C5.49302 1.74062 5.40158 2.54399 5.27095 3.50413C4.98356 5.5485 4.97703 5.70526 5.16644 5.80323C5.36239 5.90773 5.49302 5.86201 6.30293 5.38521L7.01486 4.96066L7.65495 5.58116C8.35383 6.24737 8.55631 6.35188 8.75878 6.15593C8.86329 6.0449 8.90901 5.76404 9.05923 4.07891L9.23559 2.13251L9.70586 2.15864C9.96712 2.1717 10.1957 2.19782 10.2218 2.21742C10.2414 2.24355 10.2153 2.96201 10.1565 3.81764C10.0128 6.03183 10.0128 6.19512 10.1631 6.30616C10.359 6.44985 10.47 6.41066 11.1101 5.96652C11.4498 5.73138 11.7764 5.50931 11.8417 5.47665C11.9462 5.41134 11.9527 5.55503 11.9527 8.12192V10.8325L11.7437 10.9174C11.2995 11.1003 10.9077 11.7077 10.9077 12.2041C10.9077 12.7005 11.2995 13.308 11.7437 13.4908C11.9396 13.5692 11.9527 13.5953 11.9527 13.8958V14.2158L11.6653 14.255C10.8032 14.3857 9.73851 15.2282 9.31396 16.1165C8.37996 18.076 9.39887 20.362 11.489 20.9825C11.9527 21.1197 12.8671 21.1197 13.3309 20.9825C13.8273 20.8388 14.3563 20.5449 14.7155 20.2118C14.9833 19.9701 15.0225 19.8983 15.0225 19.6697C15.0225 19.3039 14.8462 19.1602 14.4477 19.1863C13.664 19.2517 13.3309 19.1667 12.9194 18.8075C12.5536 18.4875 12.3903 18.076 12.423 17.5535C12.4556 16.9917 12.6973 16.5737 13.161 16.2863C13.455 16.1035 13.5203 16.0904 14.1146 16.0904C14.8658 16.0904 15.0225 16.0055 15.0225 15.594C15.0225 15.385 14.9768 15.3131 14.6829 15.0453C14.2583 14.6665 13.6901 14.3726 13.1676 14.2681L12.7691 14.1832L12.7495 13.8827C12.73 13.5953 12.743 13.5692 12.9128 13.5039C13.1414 13.419 13.5007 13.0859 13.6378 12.8246C13.7032 12.7005 13.7423 12.4654 13.7423 12.2041C13.7423 11.9429 13.7032 11.7077 13.6378 11.5836C13.5007 11.3289 13.1414 10.9893 12.9128 10.9044L12.7365 10.8325V8.41584C12.7365 6.49557 12.7561 5.99917 12.8214 6.03836C12.8606 6.06449 13.0043 6.16899 13.1284 6.26697C13.4484 6.51517 13.6052 6.54782 13.775 6.41066C13.9187 6.29309 13.9252 6.2539 13.9579 4.31404L13.9971 2.34152H14.5131H15.0225V3.4976C15.0225 4.13769 15.0421 5.03904 15.0682 5.49625C15.1074 6.28656 15.1205 6.34535 15.2642 6.43679C15.4732 6.57395 15.5712 6.5217 16.355 5.87508L16.9885 5.35255L17.2171 5.49625L17.4392 5.63994V10.8194V15.9924L17.2106 16.4496C16.9624 16.946 16.995 16.9264 16.2309 17.0309C15.8912 17.0832 15.741 17.1354 15.6561 17.2399C15.4928 17.4424 15.5581 17.5926 16.048 18.089L16.4725 18.5267L16.3745 19.1014C16.2243 20.0028 16.4007 20.2053 17.0342 19.8852C17.2171 19.7938 17.3869 19.7154 17.4065 19.7154C17.4261 19.7154 17.4392 19.9701 17.4392 20.2836C17.4392 20.8519 17.4327 20.8715 17.0669 21.6487L16.6881 22.439L15.741 22.5827C14.291 22.7983 14.2518 22.9028 15.3034 23.9478L15.9827 24.6206L15.8128 25.6068L15.643 26.5866L15.7998 26.7172C16.0023 26.8805 16.0545 26.8609 17.0277 26.358L17.8245 25.9399L18.6736 26.3906C19.3399 26.7433 19.5619 26.8282 19.6926 26.7956C19.98 26.7237 19.9995 26.5343 19.8167 25.5285L19.6534 24.6075L20.3457 23.9544C20.9401 23.3796 21.0315 23.2685 21.0315 23.0791C21.0315 22.9616 20.9923 22.8309 20.9401 22.7917C20.8878 22.7526 20.4241 22.6546 19.9081 22.5762L18.961 22.439L18.5887 21.6944L18.223 20.9564V20.3359C18.223 19.9962 18.236 19.7154 18.2556 19.7154C18.2687 19.7154 18.445 19.7938 18.641 19.8917C18.9806 20.055 19.0002 20.0616 19.1635 19.9505C19.3595 19.8264 19.3725 19.6762 19.2419 18.9512L19.157 18.4809L19.6077 18.0433C19.9473 17.7167 20.0518 17.5665 20.0518 17.4294C20.0518 17.1681 19.9342 17.1028 19.268 17.0048C18.9349 16.9526 18.6606 16.9068 18.6475 16.8938C18.641 16.8807 18.5234 16.6586 18.3928 16.4039L18.1577 15.9271V11.0611C18.1577 8.38318 18.1707 6.19512 18.1903 6.19512C18.2099 6.19512 18.3014 6.24084 18.3863 6.29963C18.6018 6.43679 18.85 6.37147 18.9218 6.15593C18.9545 6.05796 18.9284 5.23499 18.8565 4.12463C18.7651 2.61584 18.7586 2.24355 18.8239 2.19782C18.8696 2.1717 19.1047 2.14557 19.3399 2.14557H19.7644L19.9408 4.07891C20.0387 5.15661 20.1498 6.05796 20.189 6.10368C20.2282 6.15593 20.3588 6.19512 20.4698 6.19512C20.6331 6.19512 20.7899 6.07755 21.3255 5.58116L21.9851 4.96719L22.782 5.43093C23.4874 5.83589 23.6115 5.88161 23.7617 5.82936C23.8989 5.78363 23.9446 5.71832 23.9577 5.54197C23.9707 5.41787 23.8727 4.50998 23.7356 3.53679C23.5984 2.55706 23.507 1.74062 23.5266 1.72102C23.5854 1.65571 24.4279 1.53161 24.4736 1.57733C24.4932 1.60345 24.552 1.83206 24.5977 2.09332C24.6631 2.46562 24.6827 4.09197 24.6827 9.39557L24.6892 16.221L24.4149 16.3517C24.2516 16.43 24.0556 16.6064 23.9381 16.7697C23.7617 17.0179 23.7421 17.1028 23.7421 17.5273C23.7421 17.9192 23.7682 18.0433 23.8858 18.2001L24.0295 18.3895L23.8336 18.5397C23.5919 18.7161 23.2718 19.2059 23.1804 19.5325C23.1347 19.7154 23.0824 19.7807 22.9845 19.7807C22.6187 19.7807 21.9721 20.3294 21.8088 20.7866C21.7304 20.9956 21.6977 21.0217 21.4887 21.0217C21.2079 21.0217 21.0968 21.1131 21.0968 21.3483C21.0968 21.5769 21.2863 21.7402 21.541 21.7402C21.7043 21.7402 21.7565 21.7728 21.7827 21.8904C21.8349 22.0994 22.6644 26.6519 22.6644 26.7172C22.6644 26.7433 22.5926 26.7694 22.5077 26.7694C22.1811 26.7694 22.0178 27.1613 22.2595 27.3769C22.3509 27.4618 22.5011 27.4879 22.8408 27.4879H23.298L23.3698 27.7361C23.4874 28.1345 23.8597 28.5656 24.245 28.755C24.6369 28.951 25.3227 28.9902 25.7016 28.8334C26.0608 28.6832 26.4919 28.2325 26.6552 27.8406L26.8054 27.4879H27.2822C27.7198 27.4879 27.7655 27.4749 27.87 27.3181C27.968 27.1613 27.968 27.1287 27.8831 26.9719C27.8243 26.8674 27.7133 26.789 27.5892 26.7694L27.3998 26.7368L27.857 24.2417L28.3142 21.7402H28.5493C28.9151 21.7402 29.098 21.4593 28.9347 21.1458C28.8824 21.0544 28.7975 21.0217 28.6081 21.0217C28.373 21.0217 28.3534 21.0021 28.275 20.78C28.1574 20.4208 27.6349 19.9309 27.2626 19.833C27.0993 19.7872 26.9426 19.7023 26.9295 19.6501C26.825 19.2974 26.5899 18.9055 26.3547 18.6703L26.0739 18.396L26.198 18.1805C26.2698 18.0629 26.3417 17.8212 26.3678 17.6449C26.4266 17.1093 26.0869 16.5215 25.6036 16.319L25.4077 16.2406V10.8913V5.54197H25.5644C25.682 5.54197 25.8779 5.36562 26.3286 4.86269L26.9295 4.18341L27.7068 4.56877C28.1313 4.77778 28.5493 4.95413 28.6342 4.95413C28.8171 4.95413 29 4.79737 29 4.64062C29 4.58183 28.8236 3.73273 28.6081 2.76607C28.3926 1.79287 28.2162 0.956833 28.2162 0.89805C28.2162 0.826202 28.2946 0.780483 28.4514 0.754356C28.902 0.68251 29.0784 0.336338 28.7975 0.0816078C28.6669 -0.0359592 28.6473 -0.0359592 27.8047 0.146923C25.5709 0.617193 23.6637 0.937239 21.7827 1.15931C14.9899 1.96269 8.16441 1.64264 1.54797 0.212238C0.346171 -0.0490227 0.313514 -0.0490227 0.176351 0.107735ZM2.62568 1.1985C3.10248 1.28994 3.55315 1.37485 3.63153 1.39445C3.76869 1.4271 3.76869 1.4271 3.5205 2.87057C3.38333 3.66742 3.25923 4.3271 3.2527 4.34017C3.23964 4.3467 3.04369 4.13769 2.81509 3.8699C2.2991 3.28206 2.20113 3.26246 1.43694 3.64782C1.14955 3.79152 0.914414 3.90255 0.914414 3.88949C0.914414 3.8503 1.50878 1.1985 1.54144 1.08093C1.56104 1.00909 1.61982 0.976429 1.67207 0.996023C1.71779 1.01562 2.14887 1.10706 2.62568 1.1985ZM27.4912 1.21156C27.5239 1.34873 27.661 1.95616 27.7917 2.57012C27.9223 3.17755 28.0464 3.73273 28.0595 3.79152C28.0856 3.88296 27.968 3.8503 27.5043 3.6217C27.1189 3.43228 26.8642 3.34737 26.7597 3.36697C26.6617 3.38656 26.42 3.59557 26.1653 3.88296L25.7408 4.36629L25.7016 4.15728C25.4273 2.62237 25.2378 1.4271 25.2705 1.42057C25.2966 1.41404 26.9818 1.06787 27.3802 0.98296C27.4063 0.976429 27.4586 1.08093 27.4912 1.21156ZM7.44595 1.9235C8.00113 1.98882 8.46486 2.04107 8.47793 2.0476C8.48446 2.05413 8.43221 2.68769 8.36036 3.45841C8.28851 4.22913 8.22973 4.89535 8.22973 4.9476C8.22973 4.99332 8.00766 4.8235 7.73986 4.56877C7.43288 4.27485 7.19775 4.10503 7.09977 4.10503C7.0214 4.10503 6.71441 4.24872 6.4205 4.43161C5.97635 4.69287 5.87838 4.73206 5.87838 4.63408C5.87838 4.49692 6.19189 2.17823 6.23761 1.96269C6.2768 1.78634 6.20496 1.79287 7.44595 1.9235ZM22.7559 1.99535C22.8408 2.43949 23.1282 4.58183 23.1086 4.66021C23.0955 4.72553 22.9322 4.65368 22.5664 4.43161C22.2791 4.25526 21.9851 4.10503 21.9068 4.10503C21.8284 4.10503 21.5606 4.30098 21.2732 4.56877C20.9989 4.8235 20.7703 4.99332 20.7703 4.94107C20.7703 4.89535 20.7115 4.24219 20.6396 3.49107C20.5678 2.73341 20.5286 2.10638 20.5482 2.08679C20.5809 2.0476 22.168 1.84512 22.5468 1.82553C22.684 1.819 22.7232 1.85165 22.7559 1.99535ZM13.2068 2.33499C13.2525 2.34152 13.2002 5.22192 13.1545 5.27418C13.148 5.28071 12.9259 5.11742 12.6646 4.89535C12.3707 4.64715 12.1291 4.49692 12.0311 4.49692C11.9462 4.49692 11.6392 4.66021 11.3583 4.86269L10.8423 5.22192V5.00638C10.8423 4.88881 10.875 4.21607 10.9207 3.51719L10.9926 2.24355L12.0768 2.28273C12.6712 2.30886 13.1806 2.32845 13.2068 2.33499ZM18.0858 3.58251C18.125 4.28138 18.1577 4.94107 18.1577 5.03904V5.22845L17.6351 4.86269C17.3477 4.66021 17.0473 4.49692 16.9624 4.49692C16.8709 4.49692 16.6227 4.65368 16.3354 4.89535C16.0741 5.11742 15.852 5.28071 15.8455 5.27418C15.8324 5.26111 15.7998 4.5949 15.7736 3.79152C15.7345 2.59625 15.741 2.34152 15.8128 2.33499C16.1917 2.2958 17.9356 2.25008 17.9682 2.2762C17.9878 2.2958 18.0401 2.88363 18.0858 3.58251ZM12.8083 11.7404C13.2264 12.1649 12.939 12.8573 12.3446 12.8573C12.1291 12.8573 12.0311 12.8181 11.8809 12.6679C11.4628 12.2433 11.7502 11.551 12.3446 11.551C12.5601 11.551 12.6581 11.5902 12.8083 11.7404ZM4.35653 13.5235C4.43491 13.5953 4.51329 13.726 4.53288 13.8109C4.58513 14.0003 4.42838 14.3269 4.25203 14.4249C3.86667 14.6273 3.3964 14.3661 3.3964 13.9546C3.3964 13.4059 3.95811 13.1512 4.35653 13.5235ZM13.3439 15.078C13.7097 15.2152 13.7815 15.3393 13.5007 15.3393C13.2329 15.3393 12.5797 15.705 12.2923 16.0185C11.8417 16.5084 11.6653 16.9591 11.6653 17.6253C11.6653 18.0956 11.6914 18.2393 11.8417 18.5724C11.9462 18.7879 12.1486 19.0949 12.2989 19.2517C12.5797 19.5456 13.2459 19.9113 13.5007 19.9113C14.0232 19.9113 13.2786 20.2771 12.6124 20.3424C11.5804 20.4535 10.457 19.7742 9.97365 18.7487C9.7777 18.3438 9.76464 18.2589 9.76464 17.6253C9.76464 16.9591 9.77117 16.9134 10.0063 16.4366C10.6399 15.1629 12.0441 14.5881 13.3439 15.078ZM4.69617 16.1949C5.53221 16.4692 6.28333 17.142 6.43356 17.769L6.47928 17.9519H3.95158H1.43041L1.47613 17.8017C1.67207 17.155 2.26644 16.5737 3.01104 16.2863C3.2527 16.1949 3.55968 16.0185 3.69685 15.901L3.95158 15.6854L4.20631 15.901C4.34347 16.0185 4.56554 16.1557 4.69617 16.1949ZM25.2444 16.9983C25.8191 17.2399 25.6754 18.0825 25.055 18.0825C24.3169 18.0825 24.2712 17.0767 25.0027 16.9134C25.0092 16.9068 25.1203 16.946 25.2444 16.9983ZM18.0597 17.3902C18.1707 17.5535 18.2622 17.6057 18.5365 17.658L18.8827 17.7233L18.6802 17.9192C18.3863 18.1935 18.3601 18.2719 18.4189 18.605C18.4516 18.7683 18.4646 18.9055 18.4516 18.9185C18.4385 18.9316 18.3144 18.8794 18.1642 18.8075C17.8376 18.6377 17.7592 18.6377 17.4327 18.8075L17.1649 18.9381L17.2106 18.5724C17.2563 18.2066 17.2563 18.2001 17.0146 17.9519L16.773 17.7037L17.0538 17.658C17.4588 17.5926 17.5306 17.5404 17.6678 17.2269C17.7788 16.9917 17.805 16.9721 17.8637 17.0701C17.8964 17.1354 17.9878 17.2726 18.0597 17.3902ZM6.53153 21.7728V24.81H5.94369H5.35586V22.8962C5.35586 21.7663 5.32973 20.8911 5.28401 20.7408C5.14032 20.2053 4.56554 19.7807 3.98423 19.7807C3.40946 19.7807 2.99144 20.0289 2.72365 20.5318C2.58649 20.78 2.57995 20.8911 2.56036 22.7983L2.53423 24.81H1.95293H1.37162V21.7728V18.7357H3.95158H6.53153V21.7728ZM25.5122 18.9708C25.8453 19.1341 26.1131 19.4868 26.198 19.9048C26.3025 20.3881 26.407 20.4992 26.7401 20.4992C27.0275 20.4992 27.3083 20.6494 27.4716 20.8845L27.5696 21.0217H25.0484H22.5273L22.5991 20.8845C22.7101 20.6821 23.0628 20.4992 23.3437 20.4992C23.6311 20.4992 23.8401 20.3555 23.8401 20.1465C23.8401 19.6893 24.1993 19.1276 24.5912 18.9577C24.859 18.8402 25.2444 18.8467 25.5122 18.9708ZM4.29122 20.6298C4.42838 20.7147 4.51982 20.8323 4.56554 21.0021C4.61126 21.1458 4.63739 21.9818 4.63739 23.0269V24.81H3.98423H3.33108V22.8767V20.9433L3.55315 20.7212C3.80788 20.4665 3.99077 20.4404 4.29122 20.6298ZM27.5239 21.9492C27.4977 22.0667 27.4651 22.2692 27.439 22.3933L27.3932 22.6219L26.6682 22.6546C26.0086 22.6872 25.9236 22.7003 25.7734 22.844C25.682 22.9354 25.5775 23.1118 25.5383 23.2359C25.5056 23.3665 25.473 24.2156 25.473 25.117V26.7694H25.0484H24.6239V25.1496C24.6239 24.2613 24.5912 23.4188 24.5586 23.2751C24.5259 23.1183 24.4214 22.942 24.2973 22.8309C24.1079 22.6611 24.0687 22.6546 23.3894 22.6546H22.684L22.6448 22.3607C22.6187 22.1974 22.586 21.9949 22.5599 21.9035L22.5207 21.7402H25.0419H27.5631L27.5239 21.9492ZM18.125 22.4586C18.3144 22.8375 18.4777 23.0726 18.5691 23.1118C18.6475 23.1444 18.9741 23.2032 19.2941 23.249L19.8689 23.3208L19.366 23.8303L18.8565 24.3397L18.9349 24.8557C18.9806 25.1366 19.0329 25.4501 19.0525 25.5481L19.0917 25.7375L18.4973 25.437C18.1642 25.2737 17.8507 25.1366 17.7919 25.1366C17.7266 25.1366 17.4327 25.2672 17.1322 25.4305C16.8383 25.5938 16.5836 25.7244 16.5705 25.7244C16.5574 25.7244 16.5836 25.4958 16.6358 25.2149C16.7926 24.3071 16.7991 24.3397 16.257 23.7911C15.9957 23.5233 15.8063 23.3077 15.839 23.3077C15.9892 23.3012 17.1126 23.1183 17.1583 23.0922C17.1845 23.0726 17.3412 22.7917 17.5045 22.4652C17.6613 22.1386 17.7984 21.8708 17.8115 21.8708C17.8245 21.8708 17.9617 22.1386 18.125 22.4586ZM23.8401 25.0712V26.7694H23.6507C23.4678 26.7694 23.4547 26.7499 23.3894 26.4233C23.2 25.4762 22.8604 23.5821 22.8604 23.4841C22.8604 23.3926 22.9322 23.3731 23.3502 23.3731H23.8401V25.0712ZM27.2365 23.4253C27.2365 23.458 27.1059 24.196 26.9426 25.0712C26.7793 25.9465 26.6486 26.6845 26.6486 26.7172C26.6486 26.7433 26.5637 26.7694 26.4527 26.7694H26.2568V25.0712V23.3731H26.7466C27.0144 23.3731 27.2365 23.3992 27.2365 23.4253ZM6.46622 25.6395C6.46622 25.842 6.10045 26.4037 5.78694 26.6911C5.61712 26.8478 5.21216 27.1026 4.87905 27.2593C4.55248 27.4161 4.20631 27.599 4.11486 27.6708L3.95811 27.8014L3.7491 27.6185C3.63153 27.5206 3.36374 27.3703 3.15473 27.292C2.63874 27.1026 2.2991 26.8935 2.01171 26.5931C1.78311 26.358 1.43694 25.7571 1.43694 25.6003C1.43694 25.5481 2.16194 25.5285 3.95158 25.5285C6.30293 25.5285 6.46622 25.535 6.46622 25.6395ZM25.8975 27.6839C25.6689 28.128 25.055 28.3305 24.6304 28.1084C24.4345 28.0104 24.1014 27.6512 24.1014 27.5467C24.1014 27.514 24.5128 27.4879 25.0484 27.4879H26.002L25.8975 27.6839Z" fill="white"/>
</svg>
