<svg width="26" height="26" viewBox="0 0 26 26" fill="none" xmlns="http://www.w3.org/2000/svg">
<path d="M12.4001 0.195141C11.6416 0.466015 11.1147 1.06194 10.9521 1.82531C10.9127 2.00754 10.898 3.39146 10.898 6.3169V10.5524H6.56889C3.83552 10.5524 2.14625 10.5721 1.9788 10.6016C1.29915 10.7297 0.713075 11.1828 0.402801 11.8083C0.240277 12.1432 0.235352 12.1678 0.235352 12.744C0.235352 13.3202 0.240277 13.3449 0.402801 13.6798C0.713075 14.3052 1.29915 14.7583 1.9788 14.8864C2.14625 14.9159 3.83552 14.9356 6.56889 14.9356H10.898V19.0825C10.898 21.5154 10.9177 23.3524 10.9472 23.5248C11.0605 24.2143 11.5136 24.8201 12.1538 25.1353C12.4887 25.2978 12.5133 25.3027 13.0896 25.3027C13.6806 25.3027 13.6904 25.3027 14.0598 25.1156C14.6606 24.8201 15.0891 24.2685 15.227 23.6135C15.2664 23.4312 15.2812 22.0522 15.2812 19.1465V14.9356H19.3345C22.058 14.9356 23.4862 14.9159 23.6832 14.8815C23.8408 14.8519 24.0969 14.7731 24.2447 14.6992C24.5993 14.5318 25.0721 14.059 25.2592 13.6798C25.3922 13.399 25.402 13.3498 25.402 12.7686C25.402 12.1776 25.3971 12.1382 25.2444 11.8181C24.9539 11.2025 24.3382 10.7297 23.6586 10.6016C23.4911 10.5721 21.8905 10.5524 19.3394 10.5524H15.2812V6.376C15.2812 3.93321 15.2615 2.08634 15.2319 1.91396C15.1187 1.22446 14.6656 0.61869 14.0253 0.303492C13.7101 0.150816 13.6412 0.136042 13.1634 0.121267C12.7645 0.111416 12.5921 0.131117 12.4001 0.195141Z" fill="#239571"/>
</svg>
