<svg width="30" height="31" viewBox="0 0 30 31" fill="none" xmlns="http://www.w3.org/2000/svg">
<path d="M14.501 0.0909576C13.5969 0.413855 12.9687 1.12423 12.775 2.03421C12.728 2.25143 12.7104 3.90113 12.7104 7.38841V12.4373H7.5499C4.29158 12.4373 2.27789 12.4608 2.07828 12.496C1.2681 12.6487 0.569472 13.1888 0.199609 13.9344C0.00587084 14.3336 0 14.363 0 15.0499C0 15.7368 0.00587084 15.7661 0.199609 16.1653C0.569472 16.9109 1.2681 17.451 2.07828 17.6037C2.27789 17.6389 4.29158 17.6624 7.5499 17.6624H12.7104V22.6056C12.7104 25.5058 12.7339 27.6957 12.7691 27.9011C12.9041 28.7231 13.4442 29.4452 14.2074 29.8209C14.6067 30.0146 14.636 30.0205 15.3229 30.0205C16.0274 30.0205 16.0391 30.0205 16.4795 29.7974C17.1957 29.4452 17.7065 28.7876 17.8708 28.0068C17.9178 27.7896 17.9354 26.1458 17.9354 22.682V17.6624H22.7671C26.0137 17.6624 27.7162 17.6389 27.9511 17.5978C28.1389 17.5626 28.4442 17.4686 28.6204 17.3806C29.0431 17.181 29.6067 16.6174 29.8297 16.1653C29.9883 15.8307 30 15.772 30 15.0792C30 14.3747 29.9941 14.3277 29.8121 13.9461C29.4658 13.2123 28.7319 12.6487 27.9217 12.496C27.7221 12.4608 25.8141 12.4373 22.773 12.4373H17.9354V7.45886C17.9354 4.54693 17.9119 2.34536 17.8767 2.13988C17.7417 1.31796 17.2016 0.59585 16.4384 0.220118C16.0626 0.0381203 15.9804 0.0205078 15.411 0.00289536C14.9354 -0.00884628 14.7299 0.014637 14.501 0.0909576Z" fill="white"/>
</svg>
