<svg width="25" height="19" viewBox="0 0 25 19" fill="none" xmlns="http://www.w3.org/2000/svg">
<path d="M0.412787 17.5025L5.13004 16.6258C5.96495 17.4607 7.05033 18.0869 8.21921 18.3791C11.8511 19.381 15.6499 17.085 16.4431 13.3279C17.1945 9.94654 15.1907 6.48166 11.8511 5.47977C8.51143 4.43613 5.04655 6.14769 3.71069 9.19512C3.58545 9.4456 0.913735 15.1647 0.0370775 17.0433C-0.0881592 17.2938 0.120568 17.586 0.412787 17.5025Z" fill="#346652"/>
<path d="M11.0153 3.93611C12.1841 2.47502 14.0209 1.55661 16.0247 1.68185C17.6111 1.76534 19.0304 2.47502 20.0741 3.68564C21.1177 4.85451 21.6186 6.3991 21.5352 7.94369C21.4517 8.98733 21.1177 10.031 20.5333 10.9076L20.2828 11.2416L21.8691 15.2074C20.7002 14.9152 19.0304 14.4977 17.6111 14.122C17.4441 14.6647 17.2354 15.1657 16.9849 15.6666C18.446 16.0423 22.4118 17.0442 23.9564 17.4199C24.2069 17.5034 24.4573 17.2112 24.3321 16.9607L22.1196 11.4086C22.7458 10.3649 23.0797 9.2378 23.1632 8.02718C23.2885 6.02339 22.6205 4.06135 21.2847 2.55851C19.9488 1.05567 18.112 0.137265 16.1082 0.0120284C13.1025 -0.154954 10.4308 1.43138 9.05322 3.85262C9.72115 3.85262 10.3473 3.85262 11.0153 3.93611Z" fill="#239571"/>
</svg>
