<svg width="38" height="38" viewBox="0 0 38 38" fill="none" xmlns="http://www.w3.org/2000/svg">
<circle cx="19" cy="19" r="19" fill="white"/>
<path d="M14.6491 7.06107C14.4538 7.10447 14.15 7.19669 13.971 7.27264C13.7323 7.37029 13.5044 7.41368 13.103 7.43538C12.3381 7.47336 12.0343 7.58185 11.66 7.95617C11.2585 8.35219 11.1934 8.56376 11.15 9.63788C11.1229 10.316 11.1338 10.5601 11.2043 10.9127C11.3128 11.4335 11.5189 11.9001 11.8173 12.2907L12.0397 12.5836L11.6491 12.8548C11.0361 13.2888 10.7377 13.6143 10.4556 14.1839C9.93486 15.2255 9.2893 17.5582 9.14283 18.9253C9.11028 19.1911 9.08315 19.2508 8.92041 19.3755C8.62746 19.598 8.51897 19.8692 8.48099 20.4822C8.45929 20.824 8.47014 21.079 8.51354 21.1983C8.56779 21.3719 8.49727 21.7245 7.78661 24.8167C7.35262 26.6991 7 28.3049 7 28.3808C7 28.587 7.17902 28.7335 7.43942 28.7335C7.55876 28.7335 7.64556 28.7497 7.62929 28.7769C7.61844 28.7986 7.59674 29.2868 7.59131 29.8673C7.57504 30.8437 7.58046 30.9197 7.67811 30.9902C7.75948 31.0499 8.0904 31.0662 9.31642 31.0662C10.7377 31.0662 10.8571 31.0607 10.9547 30.9631C11.0415 30.8763 11.0578 30.7461 11.0795 29.851C11.0958 29.2922 11.1175 28.8311 11.1283 28.8257C11.1392 28.8148 11.3182 28.8203 11.5244 28.8311L11.8987 28.8528L11.8607 29.6448C11.839 30.0843 11.8119 30.5291 11.7956 30.6376C11.7685 30.7949 11.7847 30.86 11.877 30.9522C11.9855 31.0607 12.0397 31.0662 13.2332 31.0662C14.2639 31.0662 14.4918 31.0499 14.5569 30.9848C14.7576 30.7895 14.7793 28.9776 14.6003 27.1602C14.5352 26.4876 14.4646 25.587 14.4429 25.153C14.3995 24.3176 14.4321 23.4985 14.5026 23.7426C14.5243 23.8185 14.7739 25.4406 15.0614 27.3501C15.376 29.4387 15.6093 30.8709 15.6581 30.9414C15.7341 31.0662 15.7503 31.0662 16.9004 31.0662C17.9962 31.0662 18.0722 31.0607 18.1753 30.9577C18.2349 30.898 18.2838 30.8275 18.2838 30.8058C18.2838 30.7027 18.0668 28.5816 18.0396 28.4188L18.0071 28.2452H18.3H18.5984L18.8045 29.558C18.9619 30.5345 19.0432 30.898 19.1083 30.9685C19.1951 31.0553 19.3308 31.0662 20.291 31.0662C21.3054 31.0662 21.3814 31.0607 21.4844 30.9577C21.5441 30.898 21.5929 30.8166 21.5929 30.7732C21.5929 30.7298 21.5224 30.1277 21.4302 29.4333C21.3434 28.7389 21.2783 28.1639 21.2946 28.1476C21.3054 28.1367 21.4248 28.1096 21.5604 28.0988C21.8425 28.0662 21.9347 27.9794 21.9293 27.7678C21.9293 27.6865 21.5441 25.5979 21.0776 23.1296L20.2313 18.6378L20.394 18.22C20.5948 17.6938 20.687 17.2056 20.6381 16.8964C20.5893 16.6034 20.3181 16.3105 20.0902 16.3105C19.9383 16.3105 19.9383 16.3051 19.8461 15.806C19.5694 14.3141 18.9076 13.1586 17.904 12.4154C17.6762 12.2473 17.4103 12.0682 17.3181 12.014L17.15 11.9272L17.2964 11.5257C17.4212 11.1786 17.4375 11.0484 17.4375 10.4516C17.4375 9.70841 17.3832 9.43716 17.0686 8.71565C16.9709 8.49323 16.8462 8.18944 16.7919 8.04297C16.6671 7.7012 16.3308 7.33773 15.989 7.15871C15.6527 6.99054 15.1319 6.95257 14.6491 7.06107ZM12.7938 8.27624C12.7341 8.39559 12.6744 8.62343 12.6582 8.78618L12.6256 9.07912L12.2947 9.11167C12.1102 9.12794 11.9149 9.1605 11.8607 9.18219C11.763 9.22017 11.7576 9.20389 11.7956 8.9869C11.8661 8.55833 12.1374 8.24369 12.5334 8.12977C12.8914 8.0267 12.9131 8.03754 12.7938 8.27624ZM16.6183 9.26899C16.8733 9.95253 16.9058 10.6686 16.716 11.2653C16.5478 11.7916 16.5641 11.7807 16.0107 11.797L15.5225 11.8187L15.2458 12.1116L14.9637 12.41L14.6654 12.1333C14.4972 11.9814 14.2205 11.759 14.0523 11.6451C13.7703 11.4552 13.7377 11.4064 13.6563 11.1189C13.6075 10.9399 13.5587 10.6469 13.5533 10.457L13.537 10.1207L14.0469 9.82775C14.7793 9.40462 15.8046 9.06285 16.3633 9.04657C16.5152 9.04115 16.5424 9.06827 16.6183 9.26899ZM12.848 9.89285C12.8806 10.0068 12.9185 10.2834 12.9348 10.5059C12.9457 10.7283 12.9999 11.0755 13.0487 11.2762L13.141 11.6342L12.9565 11.8838C12.7015 12.231 12.6039 12.2473 12.3815 11.9923C12.0397 11.5963 11.8173 11.0321 11.7468 10.3594C11.6979 9.91455 11.7522 9.82233 12.1102 9.75723C12.2676 9.73011 12.4846 9.70298 12.5931 9.69756C12.7721 9.69213 12.7938 9.70841 12.848 9.89285ZM17.1608 12.6758C17.9311 13.1695 18.4302 13.7391 18.7991 14.542C19.1138 15.2201 19.4284 16.5817 19.2657 16.5817C19.206 16.5817 19.1951 16.5492 19.1029 15.9958C19.0378 15.5781 18.9781 15.4968 18.7394 15.4968C18.4845 15.4968 18.4139 15.6541 18.4953 16.0338C18.5821 16.4407 18.5713 17.3195 18.4736 17.6938C18.0071 19.5057 16.0921 21.0301 13.7106 21.4804L13.2929 21.5618L13.1844 21.3122C13.1247 21.1766 13.0108 20.9813 12.9348 20.8837C12.8589 20.7806 12.81 20.6667 12.8263 20.6233C12.8426 20.5799 12.9782 20.4768 13.1355 20.3954C14.3236 19.7499 15.3597 18.7571 15.8371 17.7969C16.2711 16.9126 16.3633 16.0067 16.0867 15.1984C15.9402 14.7535 15.7395 14.3847 15.4465 14.0158C15.2946 13.8205 15.2892 13.7879 15.3163 13.4353C15.3489 13.0393 15.4248 12.8494 15.6581 12.5727C15.7937 12.41 15.81 12.4046 16.2657 12.4046H16.7377L17.1608 12.6758ZM20.0089 17.2436C19.9438 18.003 19.3308 19.0229 18.7557 19.3159C18.5875 19.4027 18.4356 19.4623 18.4194 19.4461C18.4031 19.4298 18.479 19.267 18.5875 19.0826C18.7937 18.7354 19.0975 17.938 19.0975 17.7372C19.0975 17.6721 19.1734 17.5311 19.2602 17.428C19.4284 17.2381 19.8841 16.9072 19.9817 16.9072C20.0143 16.9072 20.0251 17.0483 20.0089 17.2436ZM20.5025 23.4442C20.9202 25.6467 21.2512 27.464 21.2403 27.4749C21.2349 27.4857 20.1608 27.5454 18.8642 27.6105C17.0903 27.7027 16.4881 27.7461 16.423 27.8058C16.3688 27.8492 16.3308 27.9577 16.3308 28.0608C16.3308 28.3049 16.4664 28.3537 17.0035 28.3157C17.2639 28.294 17.4158 28.3049 17.4158 28.3374C17.4158 28.4242 17.5731 29.9866 17.6056 30.209L17.6328 30.4152H16.9004C16.1897 30.4152 16.168 30.4098 16.1409 30.2904C16.0433 29.8618 14.8715 21.871 14.9041 21.8439C14.9312 21.8222 15.0939 21.7516 15.2729 21.6811C16.1246 21.3502 16.9547 20.8511 17.5731 20.2923L17.866 20.032L18.3326 20.0265C18.8642 20.0265 19.0649 19.9452 19.4772 19.5763C19.6128 19.4569 19.7268 19.3755 19.7322 19.3918C19.743 19.4135 20.0902 21.2363 20.5025 23.4442ZM9.75584 19.918C9.71244 20.0103 9.71244 20.0916 9.75041 20.173C9.79381 20.2652 9.78296 20.3303 9.72329 20.4225C9.66362 20.5148 9.65819 20.5744 9.69617 20.6667C9.73956 20.7589 9.73414 20.8186 9.67447 20.8945C9.63107 20.9596 9.60937 21.0627 9.62564 21.1495C9.64734 21.2526 9.63107 21.2905 9.58767 21.2743C9.54969 21.2634 9.45747 21.2417 9.3761 21.2254C9.14283 21.1712 9.0506 20.9379 9.094 20.4985C9.13198 20.1242 9.2242 19.8692 9.34355 19.8204C9.38152 19.8041 9.50629 19.7878 9.61479 19.7878C9.81009 19.7824 9.81551 19.7878 9.75584 19.918ZM11.7902 20.6721C12.018 20.7643 12.4574 21.2417 12.5876 21.5346C12.7124 21.8005 12.6961 21.8222 12.2296 22.0392C11.2477 22.5003 10.0217 22.4786 9.72329 22.0012C9.66362 21.909 9.67447 21.8981 9.85349 21.8981C10.1519 21.8981 10.3634 21.6594 10.3634 21.3122C10.3634 21.0247 10.4177 20.9488 10.7432 20.786C11.1338 20.5853 11.4972 20.5473 11.7902 20.6721ZM20.7575 29.0861C20.8226 29.5906 20.8931 30.1114 20.9094 30.2362L20.9419 30.4694H20.2693H19.5966L19.564 30.3175C19.5477 30.2362 19.4718 29.7696 19.3959 29.276C19.3145 28.7823 19.244 28.3374 19.2277 28.2886C19.2006 28.2073 19.2602 28.191 19.7322 28.1747C20.0251 28.1639 20.3506 28.1584 20.4537 28.1584L20.6436 28.1639L20.7575 29.0861Z" fill="black"/>
<path d="M25.5909 7.63013C23.6216 7.98274 22.0104 9.46374 21.4734 11.4167C21.2998 12.0406 21.2998 13.3859 21.4734 14.0206C21.6199 14.5685 21.8477 15.0839 22.1352 15.5288C22.2546 15.7078 22.3522 15.9031 22.3522 15.9627C22.3522 16.1852 22.1189 16.8904 21.9291 17.2593C21.8206 17.4654 21.5873 17.8072 21.4191 18.0133C21.1587 18.3171 21.1045 18.4202 21.1045 18.583C21.1045 18.7891 21.2347 18.9681 21.4463 19.0386C21.6633 19.12 22.8947 18.5992 23.5457 18.1544C23.7084 18.0405 23.9688 17.8398 24.1262 17.6987L24.4028 17.4492L24.6415 17.5468C25.184 17.7801 25.6505 17.856 26.5294 17.8506C27.278 17.8452 27.4245 17.8289 27.853 17.6987C28.7644 17.422 29.4697 17.0097 30.1098 16.3642C30.7879 15.6915 31.2436 14.894 31.4986 13.9501C31.6505 13.3805 31.6396 12.0026 31.4769 11.4004C31.3304 10.8634 30.994 10.1581 30.6848 9.72413C30.4082 9.33896 29.7626 8.70425 29.3937 8.44928C28.9977 8.18346 28.287 7.85797 27.8042 7.7332C27.3214 7.603 26.0574 7.54333 25.5909 7.63013ZM27.6198 8.32994C28.8566 8.65 29.9416 9.52883 30.5221 10.6735C31.211 12.0514 31.1731 13.6029 30.419 14.9537C30.1098 15.5125 29.2581 16.3642 28.6993 16.6734C27.5384 17.3244 26.2202 17.4437 25.0104 17.0043C24.2618 16.7385 24.2509 16.7385 23.8658 17.0911C23.4643 17.4654 23.0466 17.753 22.5312 18.0133C22.3142 18.1218 22.1244 18.2086 22.1135 18.2086C22.0972 18.2086 22.1569 18.1001 22.2491 17.9645C22.6235 17.4112 22.9978 16.3208 23.0032 15.7837C23.0032 15.7132 22.8893 15.4962 22.7537 15.2955C22.2166 14.5197 21.9562 13.6789 21.9562 12.7295C21.9562 12.4149 21.9833 12.0134 22.0213 11.8344C22.4065 10.0333 23.8712 8.59576 25.6668 8.25399C26.1876 8.15092 27.0773 8.18889 27.6198 8.32994Z" fill="black"/>
<path d="M27.9242 9.86563C27.8808 9.93616 27.7886 10.0989 27.7181 10.2345C27.5879 10.4732 27.577 10.4786 27.2298 10.5383C27.0345 10.5709 26.8446 10.6143 26.8121 10.636C26.6873 10.7119 26.747 10.8584 27.0237 11.1351L27.3003 11.4171L27.2407 11.7643C27.1647 12.22 27.1647 12.2309 27.2895 12.296C27.3709 12.3394 27.4685 12.3177 27.7506 12.1766L28.1032 12.003L28.4558 12.1766C28.9712 12.4316 29.0417 12.3719 28.9549 11.7969L28.9007 11.428L29.1773 11.1351C29.3347 10.9723 29.4594 10.815 29.4594 10.7824C29.4594 10.6631 29.2858 10.5709 28.982 10.5383C28.6186 10.4949 28.5969 10.4786 28.3853 10.0664C28.2171 9.73001 28.049 9.65949 27.9242 9.86563Z" fill="black"/>
<path d="M25.1242 11.0811C24.4515 11.2602 23.8928 11.7376 23.5836 12.3885C23.3503 12.8876 23.3123 13.6146 23.4859 14.1842C23.8331 15.3342 25.0645 16.0558 26.2797 15.8279C27.3538 15.6272 28.0971 14.7972 28.2327 13.6471C28.2652 13.4084 28.2544 13.3325 28.1839 13.2728C28.1079 13.2131 28.0645 13.2402 27.8367 13.4952C27.3267 14.0703 26.6649 14.2221 26.0302 13.9075C25.4389 13.62 25.1351 13.0775 25.1893 12.4265C25.2219 12.0088 25.39 11.6887 25.7481 11.3849C26.0736 11.1083 26.0519 10.9943 25.6776 10.9998C25.5365 10.9998 25.287 11.0377 25.1242 11.0811Z" fill="black"/>
</svg>
