<svg width="26" height="26" viewBox="0 0 26 26" fill="none" xmlns="http://www.w3.org/2000/svg">
<path d="M13 0C20.189 0 26 5.824 26 13C26 20.189 20.189 26 13 26C5.824 26 0 20.189 0 13C0 5.824 5.824 0 13 0ZM12.545 6.409C12.012 6.409 11.57 6.838 11.57 7.384V13.949C11.57 14.287 11.752 14.599 12.051 14.781L17.147 17.823C17.303 17.914 17.472 17.966 17.654 17.966C17.979 17.966 18.304 17.797 18.486 17.485C18.759 17.03 18.616 16.432 18.148 16.146L13.52 13.39V7.384C13.52 6.838 13.078 6.409 12.545 6.409Z" fill="white"/>
</svg>
