<svg xmlns="http://www.w3.org/2000/svg" width="29" height="21" viewBox="0 0 29 21" fill="none">
<path d="M5.1141 14.9021C4.8219 14.9021 4.8219 13.5872 4.8219 13.0028C4.8219 8.03543 8.91267 3.79857 13.88 3.79857C18.8474 3.79857 22.9382 7.88934 22.9382 13.0028C22.9382 13.5872 22.9382 14.9021 22.646 14.9021H26.2984C26.2984 14.9021 26.5906 13.5872 26.5906 13.0028C26.5906 5.84395 20.7467 0 13.88 0C7.01339 0 1.16943 5.84395 1.16943 13.0028C1.16943 13.5872 1.16943 14.9021 1.46163 14.9021H5.1141Z" fill="white"/>
<path d="M28.4893 16.6552H0V20.3077H28.4893V16.6552Z" fill="white"/>
</svg>
