<svg width="34" height="43" viewBox="0 0 34 43" fill="none" xmlns="http://www.w3.org/2000/svg">
<path d="M2.73996 42.9649C2.10907 42.964 1.50436 42.7126 1.05886 42.2658C0.613372 41.8191 0.36359 41.2137 0.364466 40.5828L0.0560413 5.70912C0.0283799 5.00102 0.140984 4.29444 0.387378 3.63001C0.633772 2.96558 1.00909 2.35642 1.49176 1.83757C1.97442 1.31871 2.5549 0.9004 3.19981 0.606689C3.84472 0.312978 4.54133 0.149665 5.24958 0.126143L28.0624 0.0388613C28.7716 0.0522314 29.4711 0.205173 30.1211 0.488951C30.7711 0.772729 31.3589 1.18178 31.8508 1.69275C32.3427 2.20371 32.7291 2.80658 32.988 3.46692C33.2469 4.12725 33.3731 4.83211 33.3595 5.54125L33.6441 40.4149C33.6477 40.8317 33.5416 41.2422 33.3365 41.6051C33.1314 41.9681 32.8346 42.2707 32.4757 42.4828C32.1138 42.6911 31.7034 42.8005 31.2858 42.7999C30.8683 42.7993 30.4582 42.6888 30.0969 42.4795L16.5482 34.9437L3.95364 42.6098C3.58072 42.8174 3.16599 42.9387 2.73996 42.9649ZM16.4602 29.7816C16.8735 29.7829 17.2808 29.8812 17.6492 30.0687L28.8447 36.2929L28.602 5.48707C28.6026 5.01131 28.2939 4.67785 28.1035 4.70137L5.26676 4.88377C5.07646 4.88351 4.81436 5.19239 4.8137 5.66815L5.05657 36.355L15.2465 30.1129C15.6166 29.9017 16.0341 29.7877 16.4602 29.7816Z" fill="#239571"/>
</svg>
