<svg width="215" height="215" viewBox="0 0 215 215" fill="none" xmlns="http://www.w3.org/2000/svg">
<rect width="215" height="215" fill="white"/>
<path d="M32.7374 31.41V37.695C32.7374 38.635 32.9424 39.335 33.3524 39.795C33.7724 40.255 34.3574 40.485 35.1074 40.485C35.8474 40.485 36.4224 40.255 36.8324 39.795C37.2524 39.335 37.4624 38.635 37.4624 37.695V31.41H39.1724V37.695C39.1724 39.145 38.7974 40.245 38.0474 40.995C37.2974 41.735 36.3074 42.105 35.0774 42.105C33.8574 42.105 32.8774 41.735 32.1374 40.995C31.3974 40.245 31.0274 39.145 31.0274 37.695V31.41H32.7374ZM45.9059 33.63C46.6259 33.63 47.2659 33.8 47.8259 34.14C48.3959 34.48 48.8409 34.97 49.1609 35.61C49.4809 36.25 49.6409 37 49.6409 37.86C49.6409 38.73 49.4809 39.485 49.1609 40.125C48.8409 40.765 48.3959 41.255 47.8259 41.595C47.2659 41.935 46.6259 42.105 45.9059 42.105C45.1559 42.105 44.5159 41.92 43.9859 41.55C43.4559 41.18 43.0859 40.69 42.8759 40.08V45.93H41.1659V33.735H42.8759V35.655C43.0859 35.045 43.4559 34.555 43.9859 34.185C44.5159 33.815 45.1559 33.63 45.9059 33.63ZM45.3809 35.13C44.9009 35.13 44.4709 35.245 44.0909 35.475C43.7109 35.695 43.4109 36.015 43.1909 36.435C42.9709 36.845 42.8609 37.32 42.8609 37.86C42.8609 38.41 42.9709 38.89 43.1909 39.3C43.4109 39.71 43.7109 40.03 44.0909 40.26C44.4709 40.48 44.9009 40.59 45.3809 40.59C46.1409 40.59 46.7509 40.35 47.2109 39.87C47.6709 39.38 47.9009 38.71 47.9009 37.86C47.9009 37.02 47.6709 36.355 47.2109 35.865C46.7509 35.375 46.1409 35.13 45.3809 35.13ZM52.9979 30.9V42H51.2879V30.9H52.9979ZM58.8472 33.63C59.6472 33.63 60.3672 33.8 61.0072 34.14C61.6472 34.48 62.1472 34.97 62.5072 35.61C62.8672 36.25 63.0472 37 63.0472 37.86C63.0472 38.73 62.8672 39.485 62.5072 40.125C62.1472 40.765 61.6472 41.255 61.0072 41.595C60.3672 41.935 59.6472 42.105 58.8472 42.105C58.0472 42.105 57.3272 41.935 56.6872 41.595C56.0572 41.255 55.5572 40.765 55.1872 40.125C54.8272 39.475 54.6472 38.72 54.6472 37.86C54.6472 37 54.8272 36.25 55.1872 35.61C55.5572 34.97 56.0572 34.48 56.6872 34.14C57.3272 33.8 58.0472 33.63 58.8472 33.63ZM58.8472 35.115C58.4072 35.115 58.0022 35.215 57.6322 35.415C57.2622 35.615 56.9622 35.925 56.7322 36.345C56.5122 36.755 56.4022 37.26 56.4022 37.86C56.4022 38.47 56.5122 38.98 56.7322 39.39C56.9622 39.8 57.2622 40.105 57.6322 40.305C58.0022 40.505 58.4072 40.605 58.8472 40.605C59.2872 40.605 59.6922 40.505 60.0622 40.305C60.4322 40.105 60.7272 39.8 60.9472 39.39C61.1772 38.98 61.2922 38.47 61.2922 37.86C61.2922 37.26 61.1772 36.755 60.9472 36.345C60.7272 35.925 60.4322 35.615 60.0622 35.415C59.6922 35.215 59.2872 35.115 58.8472 35.115ZM68.0063 33.63C68.7563 33.63 69.3963 33.815 69.9263 34.185C70.4563 34.555 70.8313 35.045 71.0513 35.655V33.735H72.7613V42H71.0513V40.08C70.8313 40.69 70.4563 41.18 69.9263 41.55C69.3963 41.92 68.7563 42.105 68.0063 42.105C67.2863 42.105 66.6413 41.935 66.0713 41.595C65.5113 41.255 65.0713 40.765 64.7513 40.125C64.4313 39.485 64.2713 38.73 64.2713 37.86C64.2713 37 64.4313 36.25 64.7513 35.61C65.0713 34.97 65.5113 34.48 66.0713 34.14C66.6413 33.8 67.2863 33.63 68.0063 33.63ZM68.5313 35.13C67.7713 35.13 67.1613 35.375 66.7013 35.865C66.2513 36.345 66.0263 37.01 66.0263 37.86C66.0263 38.71 66.2513 39.38 66.7013 39.87C67.1613 40.35 67.7713 40.59 68.5313 40.59C69.0113 40.59 69.4413 40.48 69.8213 40.26C70.2013 40.03 70.5013 39.71 70.7213 39.3C70.9413 38.89 71.0513 38.41 71.0513 37.86C71.0513 37.32 70.9413 36.845 70.7213 36.435C70.5013 36.015 70.2013 35.695 69.8213 35.475C69.4413 35.245 69.0113 35.13 68.5313 35.13ZM78.1283 33.63C78.8783 33.63 79.5183 33.815 80.0483 34.185C80.5783 34.555 80.9483 35.045 81.1583 35.655V30.9H82.8833V42H81.1583V40.08C80.9483 40.69 80.5783 41.18 80.0483 41.55C79.5183 41.92 78.8783 42.105 78.1283 42.105C77.4083 42.105 76.7633 41.935 76.1933 41.595C75.6333 41.255 75.1933 40.765 74.8733 40.125C74.5533 39.485 74.3933 38.73 74.3933 37.86C74.3933 37 74.5533 36.25 74.8733 35.61C75.1933 34.97 75.6333 34.48 76.1933 34.14C76.7633 33.8 77.4083 33.63 78.1283 33.63ZM78.6533 35.13C77.8933 35.13 77.2833 35.375 76.8233 35.865C76.3733 36.345 76.1483 37.01 76.1483 37.86C76.1483 38.71 76.3733 39.38 76.8233 39.87C77.2833 40.35 77.8933 40.59 78.6533 40.59C79.1333 40.59 79.5633 40.48 79.9433 40.26C80.3233 40.03 80.6233 39.71 80.8433 39.3C81.0633 38.89 81.1733 38.41 81.1733 37.86C81.1733 37.32 81.0633 36.845 80.8433 36.435C80.6233 36.015 80.3233 35.695 79.9433 35.475C79.5633 35.245 79.1333 35.13 78.6533 35.13ZM95.411 39.18C95.411 39.7 95.286 40.185 95.036 40.635C94.786 41.075 94.406 41.43 93.896 41.7C93.386 41.97 92.761 42.105 92.021 42.105C91.301 42.105 90.656 41.98 90.086 41.73C89.516 41.47 89.061 41.11 88.721 40.65C88.381 40.19 88.186 39.66 88.136 39.06H89.966C90.016 39.52 90.211 39.915 90.551 40.245C90.901 40.575 91.366 40.74 91.946 40.74C92.466 40.74 92.866 40.6 93.146 40.32C93.436 40.04 93.581 39.68 93.581 39.24C93.581 38.86 93.476 38.55 93.266 38.31C93.056 38.06 92.796 37.865 92.486 37.725C92.176 37.585 91.751 37.425 91.211 37.245C90.551 37.035 90.011 36.825 89.591 36.615C89.181 36.405 88.831 36.1 88.541 35.7C88.251 35.3 88.106 34.775 88.106 34.125C88.106 33.555 88.246 33.055 88.526 32.625C88.806 32.195 89.206 31.865 89.726 31.635C90.246 31.395 90.846 31.275 91.526 31.275C92.606 31.275 93.461 31.535 94.091 32.055C94.731 32.575 95.096 33.255 95.186 34.095H93.341C93.271 33.695 93.081 33.355 92.771 33.075C92.471 32.785 92.056 32.64 91.526 32.64C91.046 32.64 90.661 32.765 90.371 33.015C90.081 33.255 89.936 33.605 89.936 34.065C89.936 34.425 90.036 34.725 90.236 34.965C90.436 35.195 90.686 35.38 90.986 35.52C91.296 35.65 91.716 35.805 92.246 35.985C92.916 36.195 93.461 36.41 93.881 36.63C94.311 36.84 94.671 37.15 94.961 37.56C95.261 37.97 95.411 38.51 95.411 39.18ZM100.798 33.63C101.868 33.63 102.753 33.915 103.453 34.485C104.153 35.045 104.588 35.81 104.758 36.78H102.943C102.843 36.26 102.598 35.855 102.208 35.565C101.828 35.265 101.348 35.115 100.768 35.115C100.108 35.115 99.5579 35.35 99.1179 35.82C98.6779 36.28 98.4579 36.96 98.4579 37.86C98.4579 38.76 98.6779 39.445 99.1179 39.915C99.5579 40.385 100.108 40.62 100.768 40.62C101.348 40.62 101.828 40.47 102.208 40.17C102.598 39.87 102.843 39.46 102.943 38.94H104.758C104.588 39.91 104.153 40.68 103.453 41.25C102.753 41.82 101.868 42.105 100.798 42.105C99.9979 42.105 99.2879 41.935 98.6679 41.595C98.0579 41.255 97.5779 40.765 97.2279 40.125C96.8779 39.485 96.7029 38.73 96.7029 37.86C96.7029 37 96.8779 36.25 97.2279 35.61C97.5779 34.97 98.0579 34.48 98.6679 34.14C99.2879 33.8 99.9979 33.63 100.798 33.63ZM108.12 35.355C108.4 34.815 108.8 34.39 109.32 34.08C109.84 33.76 110.44 33.6 111.12 33.6V35.46H110.61C109.86 35.46 109.255 35.645 108.795 36.015C108.345 36.375 108.12 36.975 108.12 37.815V42H106.41V33.735H108.12V35.355ZM120.081 37.47C120.081 37.75 120.061 37.995 120.021 38.205H113.661C113.691 39.055 113.926 39.685 114.366 40.095C114.806 40.505 115.351 40.71 116.001 40.71C116.571 40.71 117.051 40.565 117.441 40.275C117.841 39.985 118.086 39.6 118.176 39.12H120.006C119.896 39.7 119.666 40.215 119.316 40.665C118.966 41.115 118.511 41.47 117.951 41.73C117.391 41.98 116.766 42.105 116.076 42.105C115.276 42.105 114.566 41.935 113.946 41.595C113.336 41.255 112.856 40.765 112.506 40.125C112.156 39.485 111.981 38.73 111.981 37.86C111.981 37 112.156 36.25 112.506 35.61C112.856 34.97 113.336 34.48 113.946 34.14C114.566 33.8 115.276 33.63 116.076 33.63C116.886 33.63 117.591 33.8 118.191 34.14C118.801 34.47 119.266 34.93 119.586 35.52C119.916 36.1 120.081 36.75 120.081 37.47ZM118.356 37.425C118.376 36.885 118.281 36.435 118.071 36.075C117.871 35.705 117.591 35.435 117.231 35.265C116.881 35.085 116.496 34.995 116.076 34.995C115.406 34.995 114.846 35.2 114.396 35.61C113.946 36.02 113.701 36.625 113.661 37.425H118.356ZM129.412 37.47C129.412 37.75 129.392 37.995 129.352 38.205H122.992C123.022 39.055 123.257 39.685 123.697 40.095C124.137 40.505 124.682 40.71 125.332 40.71C125.902 40.71 126.382 40.565 126.772 40.275C127.172 39.985 127.417 39.6 127.507 39.12H129.337C129.227 39.7 128.997 40.215 128.647 40.665C128.297 41.115 127.842 41.47 127.282 41.73C126.722 41.98 126.097 42.105 125.407 42.105C124.607 42.105 123.897 41.935 123.277 41.595C122.667 41.255 122.187 40.765 121.837 40.125C121.487 39.485 121.312 38.73 121.312 37.86C121.312 37 121.487 36.25 121.837 35.61C122.187 34.97 122.667 34.48 123.277 34.14C123.897 33.8 124.607 33.63 125.407 33.63C126.217 33.63 126.922 33.8 127.522 34.14C128.132 34.47 128.597 34.93 128.917 35.52C129.247 36.1 129.412 36.75 129.412 37.47ZM127.687 37.425C127.707 36.885 127.612 36.435 127.402 36.075C127.202 35.705 126.922 35.435 126.562 35.265C126.212 35.085 125.827 34.995 125.407 34.995C124.737 34.995 124.177 35.2 123.727 35.61C123.277 36.02 123.032 36.625 122.992 37.425H127.687ZM135.683 33.6C136.643 33.6 137.413 33.91 137.993 34.53C138.573 35.15 138.863 36.035 138.863 37.185V42H137.153V37.365C137.153 36.625 136.963 36.055 136.583 35.655C136.203 35.245 135.683 35.04 135.023 35.04C134.343 35.04 133.798 35.26 133.388 35.7C132.978 36.13 132.773 36.765 132.773 37.605V42H131.063V33.735H132.773V35.55C132.993 34.93 133.363 34.45 133.883 34.11C134.403 33.77 135.003 33.6 135.683 33.6ZM143.578 33.63C144.548 33.63 145.323 33.88 145.903 34.38C146.493 34.87 146.853 35.53 146.983 36.36H145.363C145.293 35.91 145.098 35.55 144.778 35.28C144.468 35 144.053 34.86 143.533 34.86C143.103 34.86 142.768 34.965 142.528 35.175C142.298 35.375 142.183 35.65 142.183 36C142.183 36.26 142.268 36.47 142.438 36.63C142.608 36.79 142.818 36.915 143.068 37.005C143.328 37.095 143.693 37.195 144.163 37.305C144.783 37.445 145.283 37.59 145.663 37.74C146.053 37.89 146.383 38.13 146.653 38.46C146.933 38.78 147.073 39.22 147.073 39.78C147.073 40.47 146.808 41.03 146.278 41.46C145.758 41.89 145.053 42.105 144.163 42.105C143.133 42.105 142.298 41.865 141.658 41.385C141.028 40.905 140.648 40.235 140.518 39.375H142.183C142.233 39.825 142.433 40.19 142.783 40.47C143.133 40.75 143.593 40.89 144.163 40.89C144.573 40.89 144.893 40.785 145.123 40.575C145.363 40.355 145.483 40.08 145.483 39.75C145.483 39.46 145.393 39.23 145.213 39.06C145.033 38.89 144.808 38.76 144.538 38.67C144.268 38.57 143.898 38.47 143.428 38.37C142.828 38.23 142.338 38.09 141.958 37.95C141.588 37.81 141.268 37.585 140.998 37.275C140.738 36.955 140.608 36.525 140.608 35.985C140.608 35.285 140.868 34.72 141.388 34.29C141.918 33.85 142.648 33.63 143.578 33.63ZM153.408 33.6C154.368 33.6 155.138 33.91 155.718 34.53C156.298 35.15 156.588 36.035 156.588 37.185V42H154.878V37.365C154.878 36.625 154.688 36.055 154.308 35.655C153.928 35.245 153.408 35.04 152.748 35.04C152.068 35.04 151.523 35.26 151.113 35.7C150.703 36.13 150.498 36.765 150.498 37.605V42H148.788V30.9H150.498V35.55C150.718 34.93 151.088 34.45 151.608 34.11C152.128 33.77 152.728 33.6 153.408 33.6ZM162.368 33.63C163.168 33.63 163.888 33.8 164.528 34.14C165.168 34.48 165.668 34.97 166.028 35.61C166.388 36.25 166.568 37 166.568 37.86C166.568 38.73 166.388 39.485 166.028 40.125C165.668 40.765 165.168 41.255 164.528 41.595C163.888 41.935 163.168 42.105 162.368 42.105C161.568 42.105 160.848 41.935 160.208 41.595C159.578 41.255 159.078 40.765 158.708 40.125C158.348 39.475 158.168 38.72 158.168 37.86C158.168 37 158.348 36.25 158.708 35.61C159.078 34.97 159.578 34.48 160.208 34.14C160.848 33.8 161.568 33.63 162.368 33.63ZM162.368 35.115C161.928 35.115 161.523 35.215 161.153 35.415C160.783 35.615 160.483 35.925 160.253 36.345C160.033 36.755 159.923 37.26 159.923 37.86C159.923 38.47 160.033 38.98 160.253 39.39C160.483 39.8 160.783 40.105 161.153 40.305C161.523 40.505 161.928 40.605 162.368 40.605C162.808 40.605 163.213 40.505 163.583 40.305C163.953 40.105 164.248 39.8 164.468 39.39C164.698 38.98 164.813 38.47 164.813 37.86C164.813 37.26 164.698 36.755 164.468 36.345C164.248 35.925 163.953 35.615 163.583 35.415C163.213 35.215 162.808 35.115 162.368 35.115ZM172.367 40.515V42H171.317C170.437 42 169.767 41.79 169.307 41.37C168.857 40.94 168.632 40.23 168.632 39.24V35.19H167.447V33.735H168.632V31.68H170.357V33.735H172.352V35.19H170.357V39.27C170.357 39.74 170.442 40.065 170.612 40.245C170.792 40.425 171.102 40.515 171.542 40.515H172.367ZM63.7868 57.955C63.7868 56.035 64.1518 54.32 64.8818 52.81C65.6218 51.3 66.5918 50.08 67.7918 49.15H69.4568V49.33C66.7868 51.51 65.4518 54.385 65.4518 57.955C65.4518 61.525 66.7868 64.41 69.4568 66.61V66.775H67.7918C66.5918 65.835 65.6218 64.615 64.8818 63.115C64.1518 61.605 63.7868 59.885 63.7868 57.955ZM75.0162 53.275C75.9962 53.275 76.8812 53.505 77.6712 53.965C78.4712 54.425 79.0962 55.07 79.5462 55.9C80.0062 56.72 80.2362 57.65 80.2362 58.69C80.2362 59.73 80.0062 60.665 79.5462 61.495C79.0962 62.315 78.4712 62.96 77.6712 63.43C76.8812 63.89 75.9962 64.12 75.0162 64.12C74.0262 64.12 73.1312 63.89 72.3312 63.43C71.5412 62.96 70.9162 62.315 70.4562 61.495C69.9962 60.665 69.7662 59.73 69.7662 58.69C69.7662 57.65 69.9962 56.72 70.4562 55.9C70.9162 55.07 71.5412 54.425 72.3312 53.965C73.1312 53.505 74.0262 53.275 75.0162 53.275ZM75.0162 54.865C74.3362 54.865 73.7312 55.02 73.2012 55.33C72.6712 55.64 72.2562 56.085 71.9562 56.665C71.6662 57.245 71.5212 57.92 71.5212 58.69C71.5212 59.46 71.6662 60.135 71.9562 60.715C72.2562 61.295 72.6712 61.74 73.2012 62.05C73.7312 62.36 74.3362 62.515 75.0162 62.515C75.6862 62.515 76.2812 62.36 76.8012 62.05C77.3312 61.74 77.7412 61.295 78.0312 60.715C78.3312 60.135 78.4812 59.46 78.4812 58.69C78.4812 57.92 78.3312 57.245 78.0312 56.665C77.7412 56.085 77.3312 55.64 76.8012 55.33C76.2812 55.02 75.6862 54.865 75.0162 54.865ZM86.7018 55.63C87.4218 55.63 88.0618 55.8 88.6218 56.14C89.1918 56.48 89.6368 56.97 89.9568 57.61C90.2768 58.25 90.4368 59 90.4368 59.86C90.4368 60.73 90.2768 61.485 89.9568 62.125C89.6368 62.765 89.1918 63.255 88.6218 63.595C88.0618 63.935 87.4218 64.105 86.7018 64.105C85.9518 64.105 85.3118 63.92 84.7818 63.55C84.2518 63.18 83.8818 62.69 83.6718 62.08V67.93H81.9618V55.735H83.6718V57.655C83.8818 57.045 84.2518 56.555 84.7818 56.185C85.3118 55.815 85.9518 55.63 86.7018 55.63ZM86.1768 57.13C85.6968 57.13 85.2668 57.245 84.8868 57.475C84.5068 57.695 84.2068 58.015 83.9868 58.435C83.7668 58.845 83.6568 59.32 83.6568 59.86C83.6568 60.41 83.7668 60.89 83.9868 61.3C84.2068 61.71 84.5068 62.03 84.8868 62.26C85.2668 62.48 85.6968 62.59 86.1768 62.59C86.9368 62.59 87.5468 62.35 88.0068 61.87C88.4668 61.38 88.6968 60.71 88.6968 59.86C88.6968 59.02 88.4668 58.355 88.0068 57.865C87.5468 57.375 86.9368 57.13 86.1768 57.13ZM96.2388 62.515V64H95.1888C94.3088 64 93.6388 63.79 93.1788 63.37C92.7288 62.94 92.5038 62.23 92.5038 61.24V57.19H91.3188V55.735H92.5038V53.68H94.2288V55.735H96.2238V57.19H94.2288V61.27C94.2288 61.74 94.3138 62.065 94.4838 62.245C94.6638 62.425 94.9738 62.515 95.4138 62.515H96.2388ZM97.6007 53.335C97.6007 53.045 97.7007 52.805 97.9007 52.615C98.1007 52.425 98.3657 52.33 98.6957 52.33C99.0257 52.33 99.2907 52.425 99.4907 52.615C99.7007 52.805 99.8057 53.045 99.8057 53.335C99.8057 53.625 99.7007 53.86 99.4907 54.04C99.2907 54.22 99.0257 54.31 98.6957 54.31C98.3657 54.31 98.1007 54.22 97.9007 54.04C97.7007 53.86 97.6007 53.625 97.6007 53.335ZM99.5507 55.735V64H97.8407V55.735H99.5507ZM105.4 55.63C106.2 55.63 106.92 55.8 107.56 56.14C108.2 56.48 108.7 56.97 109.06 57.61C109.42 58.25 109.6 59 109.6 59.86C109.6 60.73 109.42 61.485 109.06 62.125C108.7 62.765 108.2 63.255 107.56 63.595C106.92 63.935 106.2 64.105 105.4 64.105C104.6 64.105 103.88 63.935 103.24 63.595C102.61 63.255 102.11 62.765 101.74 62.125C101.38 61.475 101.2 60.72 101.2 59.86C101.2 59 101.38 58.25 101.74 57.61C102.11 56.97 102.61 56.48 103.24 56.14C103.88 55.8 104.6 55.63 105.4 55.63ZM105.4 57.115C104.96 57.115 104.555 57.215 104.185 57.415C103.815 57.615 103.515 57.925 103.285 58.345C103.065 58.755 102.955 59.26 102.955 59.86C102.955 60.47 103.065 60.98 103.285 61.39C103.515 61.8 103.815 62.105 104.185 62.305C104.555 62.505 104.96 62.605 105.4 62.605C105.84 62.605 106.245 62.505 106.615 62.305C106.985 62.105 107.28 61.8 107.5 61.39C107.73 60.98 107.845 60.47 107.845 59.86C107.845 59.26 107.73 58.755 107.5 58.345C107.28 57.925 106.985 57.615 106.615 57.415C106.245 57.215 105.84 57.115 105.4 57.115ZM115.864 55.6C116.824 55.6 117.594 55.91 118.174 56.53C118.754 57.15 119.044 58.035 119.044 59.185V64H117.334V59.365C117.334 58.625 117.144 58.055 116.764 57.655C116.384 57.245 115.864 57.04 115.204 57.04C114.524 57.04 113.979 57.26 113.569 57.7C113.159 58.13 112.954 58.765 112.954 59.605V64H111.244V55.735H112.954V57.55C113.174 56.93 113.544 56.45 114.064 56.11C114.584 55.77 115.184 55.6 115.864 55.6ZM124.359 55.63C125.109 55.63 125.749 55.815 126.279 56.185C126.809 56.555 127.184 57.045 127.404 57.655V55.735H129.114V64H127.404V62.08C127.184 62.69 126.809 63.18 126.279 63.55C125.749 63.92 125.109 64.105 124.359 64.105C123.639 64.105 122.994 63.935 122.424 63.595C121.864 63.255 121.424 62.765 121.104 62.125C120.784 61.485 120.624 60.73 120.624 59.86C120.624 59 120.784 58.25 121.104 57.61C121.424 56.97 121.864 56.48 122.424 56.14C122.994 55.8 123.639 55.63 124.359 55.63ZM124.884 57.13C124.124 57.13 123.514 57.375 123.054 57.865C122.604 58.345 122.379 59.01 122.379 59.86C122.379 60.71 122.604 61.38 123.054 61.87C123.514 62.35 124.124 62.59 124.884 62.59C125.364 62.59 125.794 62.48 126.174 62.26C126.554 62.03 126.854 61.71 127.074 61.3C127.294 60.89 127.404 60.41 127.404 59.86C127.404 59.32 127.294 58.845 127.074 58.435C126.854 58.015 126.554 57.695 126.174 57.475C125.794 57.245 125.364 57.13 124.884 57.13ZM132.876 52.9V64H131.166V52.9H132.876ZM139.22 57.955C139.22 59.875 138.85 61.595 138.11 63.115C137.38 64.625 136.415 65.845 135.215 66.775H133.55V66.61C136.22 64.42 137.555 61.535 137.555 57.955C137.555 54.375 136.22 51.5 133.55 49.33V49.15H135.215C136.415 50.07 137.38 51.29 138.11 52.81C138.85 54.32 139.22 56.035 139.22 57.955Z" fill="black"/>
<path d="M74.6624 99.2314C66.6922 100.693 60.449 106.556 58.4185 114.489C58.02 116.045 58.001 116.481 58.001 124.508V132.877L58.5703 133.712C59.9935 135.723 62.7641 136.122 64.6238 134.585C66.0281 133.427 66.0091 133.522 66.1229 125.04C66.1799 118.701 66.2558 117.259 66.5214 116.329C67.9257 111.376 71.9867 107.885 77.0155 107.296C77.9263 107.202 81.5698 107.107 85.0995 107.107C91.0961 107.107 91.5515 107.088 92.2347 106.727C95.0052 105.323 95.233 101.433 92.6711 99.611L91.8362 99.0417L83.9419 99.0037C78.0782 98.9847 75.6681 99.0417 74.6624 99.2314Z" fill="#239571"/>
<path d="M113.128 99.1555C110.453 100.256 109.637 103.995 111.667 105.911C112.939 107.126 112.863 107.107 119.903 107.107C123.433 107.107 127.076 107.202 127.987 107.296C133.016 107.885 137.058 111.357 138.462 116.31C138.747 117.278 138.804 118.644 138.879 125.04C138.993 133.522 138.974 133.427 140.379 134.585C142.238 136.122 145.009 135.723 146.432 133.712L147.001 132.877V124.508C147.001 116.481 146.982 116.045 146.584 114.489C145.616 110.731 143.87 107.657 141.138 104.905C138.424 102.192 135.369 100.446 131.649 99.4781C130.207 99.0986 129.581 99.0606 121.857 99.0227C116.544 98.9847 113.432 99.0227 113.128 99.1555Z" fill="#239571"/>
<path d="M98.9517 123.502C94.5871 124.337 91.1714 126.159 88.0782 129.29C85.3645 132.022 83.7515 134.85 82.7458 138.721C82.3473 140.182 82.2903 140.828 82.3093 143.636C82.3093 146.502 82.3662 147.071 82.8217 148.684C83.7705 152.138 85.3645 155.003 87.7746 157.527C90.1656 160.051 92.7085 161.664 96.0483 162.783C98.5912 163.637 100.849 163.922 103.639 163.789C108.801 163.524 113.127 161.588 116.847 157.887C119.598 155.117 121.249 152.214 122.255 148.38C122.881 145.97 122.9 141.207 122.293 138.778C120.452 131.472 114.892 125.798 107.7 123.882C105.385 123.274 101.172 123.085 98.9517 123.502ZM106.827 132.345C110.376 133.711 113.203 136.918 114.171 140.695C114.645 142.554 114.494 145.648 113.829 147.526C112.615 150.923 109.806 153.713 106.296 154.946C105.252 155.326 104.683 155.402 102.595 155.402C100.489 155.402 99.9195 155.326 98.724 154.946C95.2893 153.808 92.3669 150.904 91.0765 147.337C90.6969 146.274 90.64 145.743 90.64 143.541C90.64 141.34 90.6969 140.809 91.0765 139.746C93.4296 133.218 100.489 129.897 106.827 132.345Z" fill="black"/>
<path d="M60.7146 151.779C59.633 152.158 59.1016 152.576 58.5133 153.449L58.001 154.246V162.595C58.001 170.604 58.02 171.04 58.4185 172.596C59.3863 176.353 61.1321 179.428 63.8647 182.179C66.6163 184.931 69.5197 186.582 73.372 187.588C75.0419 188.043 75.2507 188.043 83.4675 188.043H91.8362L92.6711 187.474C95.233 185.652 95.0052 181.762 92.2347 180.357C91.5515 179.997 91.0961 179.978 85.0995 179.978C81.5698 179.978 77.9263 179.883 77.0155 179.788C72.0057 179.2 67.9067 175.689 66.5214 170.774C66.2558 169.825 66.1799 168.402 66.1229 162.045C66.0281 155.214 65.9901 154.398 65.6865 153.79C64.7376 151.95 62.6123 151.096 60.7146 151.779Z" fill="#239571"/>
<path d="M141.498 151.798C140.587 152.158 139.79 152.898 139.316 153.79C139.012 154.398 138.974 155.214 138.879 162.045C138.803 168.421 138.746 169.825 138.462 170.774C137.247 175.063 134.04 178.289 129.733 179.522C128.765 179.788 127.417 179.845 121.003 179.921C114.115 180.016 113.356 180.054 112.73 180.357C109.978 181.762 109.769 185.652 112.331 187.474L113.166 188.043H121.535C129.562 188.043 129.998 188.024 131.554 187.625C135.312 186.658 138.386 184.912 141.137 182.179C143.889 179.428 145.54 176.524 146.546 172.672C147.001 171.002 147.001 170.793 147.001 162.576V154.208L146.432 153.373C145.35 151.855 143.187 151.172 141.498 151.798Z" fill="#239571"/>
</svg>
