<svg xmlns="http://www.w3.org/2000/svg" width="12" height="171" viewBox="0 0 12 171" fill="none">
<path d="M6 0.666667C3.05448 0.666667 0.666667 3.05448 0.666667 6C0.666667 8.94552 3.05448 11.3333 6 11.3333C8.94552 11.3333 11.3333 8.94552 11.3333 6C11.3333 3.05448 8.94552 0.666667 6 0.666667ZM5.00001 202C5.00001 202.552 5.44772 203 6.00001 203C6.55229 203 7.00001 202.552 7.00001 202L5.00001 202ZM5 6L5 10.9L7 10.9L7 6L5 6ZM5 20.7L5 30.5L7 30.5L7 20.7L5 20.7ZM5 40.3L5 50.1L7 50.1L7 40.3L5 40.3ZM5 59.9L5 69.7L7 69.7L7 59.9L5 59.9ZM5 79.5L5 89.3L7 89.3L7 79.5L5 79.5ZM5 99.1L5 108.9L7 108.9L7 99.1L5 99.1ZM5 118.7L5.00001 128.5L7.00001 128.5L7 118.7L5 118.7ZM5.00001 138.3L5.00001 148.1L7.00001 148.1L7.00001 138.3L5.00001 138.3ZM5.00001 157.9L5.00001 167.7L7.00001 167.7L7.00001 157.9L5.00001 157.9ZM5.00001 177.5L5.00001 187.3L7.00001 187.3L7.00001 177.5L5.00001 177.5ZM5.00001 197.1L5.00001 202L7.00001 202L7.00001 197.1L5.00001 197.1Z" fill="#3D7761"/>
</svg>