<svg width="32" height="32" viewBox="0 0 32 32" fill="none" xmlns="http://www.w3.org/2000/svg">
<path d="M17.5 1.4875V2.98125L18.0437 3.05625C21.6062 3.55 25.0938 5.83125 27.05 8.95C28.0562 10.5375 28.7125 12.2812 28.9437 13.95L29.0187 14.5H30.5125H32V16V17.5H30.5125H29.0187L28.9437 18.05C28.45 21.6062 26.1687 25.0938 23.05 27.05C21.4625 28.0562 19.7188 28.7125 18.0437 28.9437L17.5 29.0187V30.5125V32H16H14.5V30.5125V29.0187L13.95 28.9437C10.3937 28.45 6.90625 26.1687 4.95 23.05C3.94375 21.4625 3.2875 19.7188 3.05625 18.0437L2.98125 17.5H1.4875H0V16V14.5H1.4875H2.98125L3.05625 13.95C3.2875 12.2812 3.94375 10.5375 4.95 8.95C6.90625 5.83125 10.3937 3.55 13.95 3.05625L14.5 2.98125V1.4875V0H16H17.5V1.4875ZM14.5125 5.975C12.2875 6.325 10.4062 7.28125 8.84375 8.84375C6.9125 10.775 5.875 13.2687 5.875 16C5.875 18.7312 6.9125 21.225 8.84375 23.1562C10.775 25.0875 13.2687 26.125 16 26.125C18.7312 26.125 21.225 25.0875 23.1562 23.1562C25.0875 21.225 26.125 18.7312 26.125 16C26.125 13.2687 25.0875 10.775 23.1562 8.84375C21.5813 7.2625 19.7188 6.33125 17.375 5.94375C16.8 5.85 15.1812 5.86875 14.5125 5.975Z" fill="#386641"/>
<path d="M16.5813 10.2116C18.1563 10.3553 19.675 11.1991 20.625 12.4553C21 12.9491 21.5063 13.9678 21.6438 14.5053C21.8687 15.3991 21.8687 16.6366 21.6438 17.5303C21.5063 18.0678 21 19.0866 20.625 19.5803C20.0563 20.3366 19.35 20.8928 18.4063 21.3303C17.5 21.7553 16.4875 21.9241 15.425 21.8241C14.6938 21.7553 14.2 21.6241 13.5688 21.3303C12.2313 20.7053 11.375 19.8616 10.7375 18.5491C10.3813 17.8241 10.2563 17.3616 10.1813 16.5803C10.0813 15.5178 10.25 14.5053 10.675 13.5991C11.3625 12.1241 12.4375 11.1241 13.9688 10.5241C14.65 10.2553 15.7188 10.1303 16.5813 10.2116Z" fill="#386641"/>
</svg>
