<svg width="57" height="54" viewBox="0 0 57 54" fill="none" xmlns="http://www.w3.org/2000/svg">
<rect width="57" height="54" rx="15" fill="#239571"/>
<path d="M21.3189 14.0907C20.4664 14.2429 19.4567 14.6691 18.7565 15.1664C17.356 16.1609 16.3818 17.6983 16.0875 19.3677C15.9708 20.0273 15.9708 33.9708 16.0875 34.6304C16.2448 35.5387 16.6457 36.5129 17.1632 37.2435C17.493 37.7103 18.2288 38.4512 18.6905 38.786C19.4415 39.329 20.4512 39.7501 21.3594 39.9125C22.0292 40.0292 35.9625 40.0292 36.6323 39.9125C37.9718 39.6791 39.149 39.06 40.1232 38.0757C41.0873 37.0964 41.686 35.9497 41.9144 34.6253C42.0311 33.9708 42.026 20.0223 41.9144 19.3677C41.6759 18.0129 41.0467 16.8256 40.0471 15.8514C39.2759 15.1004 38.4843 14.6184 37.5405 14.314C36.5562 13.9994 36.886 14.0095 28.9553 14.0146C22.9223 14.0197 21.6537 14.0298 21.3189 14.0907ZM36.6272 16.3588C38.1596 16.8358 39.1642 17.8404 39.6412 19.3728L39.7833 19.8193V26.9991V34.1788L39.6412 34.6253C39.1642 36.1577 38.1596 37.1623 36.6272 37.6393L36.1807 37.7814H29.0009H21.8212L21.3747 37.6393C19.8423 37.1623 18.8377 36.1577 18.3607 34.6253L18.2186 34.1788V26.9991V19.8193L18.3607 19.3728C18.8935 17.6679 20.2279 16.4907 21.9125 16.2421C22.0597 16.2218 25.3273 16.2066 29.1785 16.2117L36.1807 16.2167L36.6272 16.3588Z" fill="white"/>
<path d="M28.4937 20.6061C28.24 20.738 28.0522 20.9511 27.9609 21.2099C27.895 21.4027 27.8848 22.1182 27.8848 26.9994C27.8848 33.0933 27.8747 32.8345 28.1791 33.1542C28.4024 33.3876 28.6561 33.4941 29.0011 33.4941C29.5085 33.4941 29.9195 33.1998 30.0616 32.7381C30.1428 32.4641 30.1428 21.5346 30.0616 21.2606C29.9855 21.0069 29.747 20.7279 29.5034 20.6061C29.2446 20.4742 28.7423 20.4742 28.4937 20.6061Z" fill="white"/>
<path d="M23.0798 24.9443C22.9174 25.0255 22.7703 25.1524 22.6789 25.2843L22.5318 25.4923L22.5166 29.1152C22.5064 32.6315 22.5064 32.7381 22.6028 32.9309C22.8109 33.3368 23.1711 33.5195 23.6988 33.4839C24.1098 33.4586 24.3787 33.2861 24.5614 32.9207L24.6883 32.662V29.1609C24.6883 25.8577 24.6781 25.6446 24.5919 25.4517C24.328 24.8784 23.6633 24.6551 23.0798 24.9443Z" fill="white"/>
<path d="M33.9478 24.9139C33.8361 24.9647 33.6839 25.0712 33.6078 25.1524C33.3034 25.4771 33.3135 25.3554 33.3135 29.171V32.662L33.4404 32.9208C33.5216 33.0831 33.6484 33.2303 33.7803 33.3216C33.9681 33.4535 34.029 33.4688 34.4095 33.4688C34.7951 33.4688 34.8459 33.4586 35.0488 33.3165C35.1655 33.2303 35.3178 33.0679 35.3786 32.9613L35.4954 32.7584L35.4801 29.1254L35.47 25.4924L35.3228 25.2843C35.0387 24.8683 34.4095 24.7008 33.9478 24.9139Z" fill="white"/>
</svg>
