<svg width="102" height="104" viewBox="0 0 102 104" fill="none" xmlns="http://www.w3.org/2000/svg">
<path d="M79.7616 15.9168C64.9944 16.6755 60.9433 3.75955 48.5019 0.735636C35.2524 -2.48617 29.2723 5.52956 27.8563 12.0834C26.7648 17.1355 24.4705 19.3284 18.4237 20.7332C14.1139 21.522 10.295 23.7563 11.2952 29.8848C12.2956 36.0134 10.268 39.6727 7.24981 41.865C4.23159 44.0577 1.4157 47.1705 0.425314 51.2257C-1.25216 58.09 2.15792 65.28 8.44285 68.4677C15.5054 71.9737 19.2984 75.8117 18.8024 83.7718C18.6784 85.7613 19.5106 96.346 29.6084 93.1464C32.1588 92.3386 42.709 86.8892 49.1113 97.0031C50.7055 99.5214 54.653 101.999 58.2601 102.878C67.9335 105.229 77.8233 98.1153 78.8054 88.3203C79.8707 81.0727 81.1924 77.6742 89.0462 80.2056C96.8174 82.7104 101.468 71.9204 97.1195 66.385C91.0847 60.1464 98.2858 48.9267 100.573 39.5648C103.698 26.7682 92.6517 14.5231 79.7616 15.9168Z" fill="black" fill-opacity="0.1"/>
<path d="M49.7591 19.3873L49.0509 20.0955L48.2153 19.4298C47.3938 18.7782 47.3796 18.7782 47.153 19.0473C47.0255 19.2031 46.7281 19.5714 46.4873 19.8688L46.034 20.4071L45.1559 19.8122C44.6743 19.4864 44.2636 19.2456 44.2494 19.274C44.2211 19.2881 43.9945 19.6281 43.7253 20.0246C43.4562 20.4071 43.2013 20.7753 43.1588 20.8461C43.1163 20.917 42.6772 20.7753 42.2098 20.5345C41.7283 20.2938 41.2892 20.0955 41.2325 20.0955C41.1759 20.0955 40.9068 20.4779 40.6518 20.9453C40.3969 21.4127 40.1278 21.7951 40.0711 21.7951C40.0003 21.7951 39.5895 21.6393 39.1505 21.441C38.7114 21.2427 38.3148 21.0869 38.2723 21.0869C38.2298 21.0869 38.0174 21.4977 37.7907 22.0076C37.5641 22.5175 37.2808 22.9282 37.1817 22.9282C37.0684 22.9282 36.7001 22.8291 36.3744 22.7158C35.3687 22.3617 35.2979 22.4042 35.0005 23.3815C34.703 24.3729 34.6747 24.3871 33.23 24.1605L32.5785 24.0471L32.4793 24.5146C32.4227 24.7695 32.3235 25.2227 32.2385 25.5343L32.1111 26.0867L31.0629 25.9876L30.029 25.8884L29.9015 26.9224L29.7882 27.9563L28.6976 27.9988L27.5928 28.0413V29.0753V30.1234L26.5305 30.2225L25.4683 30.3217L25.5674 31.3556C25.6524 32.4887 25.709 32.4321 24.6184 32.6304C23.4853 32.8428 23.542 32.7012 23.8536 34.4858C23.9386 34.9249 23.9386 34.9391 22.933 35.2365C22.3806 35.4065 21.9273 35.5764 21.9273 35.6048C21.9273 35.6473 22.0406 36.1147 22.1964 36.6387L22.4655 37.6019L21.6582 37.9135C20.426 38.395 20.4543 38.3384 20.8509 39.3865C21.2475 40.4488 21.2758 40.3921 20.1285 40.9728C19.7178 41.1711 19.3778 41.3694 19.3778 41.3836C19.3778 41.4119 19.5761 41.8227 19.8028 42.3042C20.0435 42.7858 20.2277 43.2249 20.2277 43.2532C20.2277 43.2957 19.8594 43.5648 19.4062 43.8481C18.9671 44.1314 18.5705 44.3721 18.5564 44.4005C18.528 44.4146 18.7263 44.7687 18.9813 45.1936C19.2504 45.6044 19.5053 46.0151 19.5478 46.1001C19.6045 46.1709 19.2929 46.525 18.868 46.865C18.443 47.1907 18.1031 47.5307 18.1031 47.6015C18.1031 47.6723 18.3722 48.083 18.698 48.5221L19.307 49.3153L18.5422 49.981L17.7773 50.6608L18.0748 51.0574C18.2306 51.284 18.5564 51.6523 18.7971 51.8789L19.222 52.2897L18.5988 53.0262C18.2447 53.4369 17.9615 53.8335 17.9615 53.9185C17.9615 53.9893 18.2872 54.3434 18.6838 54.6975L19.4203 55.3207L18.8255 56.1989C18.4855 56.6804 18.2447 57.1054 18.2731 57.1195C18.2872 57.1478 18.6697 57.417 19.1229 57.7427L19.9161 58.3234L19.4203 59.2582C19.1512 59.7823 18.9529 60.2214 18.9671 60.2355C18.9954 60.2639 19.392 60.4763 19.8453 60.7313C20.2843 60.9862 20.6526 61.2553 20.6526 61.312C20.6526 61.3828 20.4968 61.8077 20.2985 62.2468C20.1002 62.6859 19.9444 63.0966 19.9444 63.1533C19.9444 63.2099 20.341 63.4366 20.8367 63.649C21.3183 63.8615 21.7432 64.0598 21.7715 64.0881C21.7857 64.1023 21.6724 64.5413 21.5024 65.0512C21.2191 65.9294 21.2191 66.2693 21.5024 66.2693C21.5732 66.2693 21.984 66.3968 22.3947 66.5526L23.1596 66.8359L22.9754 67.6574C22.678 68.9321 22.6638 68.9038 23.7686 69.1729L24.7742 69.4137L24.6893 70.0794C24.6326 70.4335 24.5618 70.9009 24.5335 71.1133C24.4485 71.5241 24.491 71.5382 25.9215 71.7365L26.6014 71.8215V72.8555V73.8894L27.6636 73.9886L28.7259 74.0877V74.9659C28.7259 76.1839 28.7826 76.2264 29.9582 76.1131L30.9355 76.014L31.0913 77.0338C31.1763 77.5861 31.2754 78.0677 31.3037 78.1102C31.3321 78.1385 31.7995 78.096 32.3235 78.0111C33.4425 77.8269 33.4141 77.8128 33.6832 78.96C33.7966 79.3849 33.924 79.7674 33.9807 79.8099C34.0515 79.8523 34.4764 79.7815 34.9438 79.6541C35.3971 79.5407 35.8361 79.4416 35.907 79.4416C35.9778 79.4416 36.1902 79.8523 36.3602 80.3622C36.5443 80.8863 36.7709 81.2829 36.8843 81.2829C36.9976 81.2829 37.4083 81.1554 37.8191 80.9996C38.2298 80.8438 38.6122 80.7163 38.6689 80.7163C38.7255 80.7163 38.9805 81.1129 39.2213 81.6087C39.4621 82.0902 39.6887 82.501 39.7028 82.5293C39.7312 82.5576 40.1419 82.3735 40.6093 82.1327C41.0909 81.8919 41.5441 81.7361 41.6149 81.7786C41.6858 81.8211 41.9407 82.2035 42.1815 82.6284C42.4223 83.0534 42.6914 83.4075 42.7622 83.4075C42.833 83.4075 43.1305 83.2517 43.4279 83.0817C44.5893 82.3452 44.5044 82.331 45.1984 83.2658L45.8216 84.1015L46.6714 83.4783L47.5354 82.8551L48.2719 83.6341L48.9943 84.3989L49.7874 83.7049L50.5806 82.9967L51.3738 83.7191L52.1528 84.4414L52.8751 83.6341L53.5833 82.8267L53.9374 83.0817C54.1357 83.2375 54.5181 83.5208 54.8014 83.7332L55.3113 84.1156L55.9203 83.3083C56.2603 82.8551 56.5435 82.4726 56.5577 82.4443C56.5719 82.4302 56.9826 82.6426 57.45 82.9259C57.9316 83.195 58.3707 83.3933 58.4415 83.3508C58.5123 83.3083 58.7814 82.9259 59.0505 82.4868C59.3055 82.0619 59.5888 81.7361 59.6737 81.7645C59.7446 81.7928 60.1836 81.9911 60.6227 82.1894L61.4442 82.5576L61.8833 81.6653C62.1241 81.1837 62.3507 80.7588 62.379 80.7305C62.3932 80.7163 62.8323 80.8296 63.3422 80.9996C63.852 81.1696 64.3195 81.2687 64.3903 81.2262C64.4611 81.1837 64.6311 80.7872 64.7869 80.3481C64.9285 79.909 65.1268 79.5266 65.2118 79.4841C65.2967 79.4558 65.7642 79.5266 66.2316 79.6399C66.699 79.7674 67.1097 79.8665 67.1522 79.8665C67.1805 79.8665 67.3363 79.4133 67.478 78.8609L67.7329 77.8694L68.5261 77.9544C68.951 77.9969 69.4326 78.0536 69.5884 78.0677C69.815 78.096 69.8716 77.9686 69.9708 77.3879C70.2116 75.8865 70.0983 75.9998 71.288 76.1131L72.3503 76.2123V75.6599C72.3503 75.3624 72.3928 74.8809 72.4353 74.5976L72.5203 74.0735L73.5826 73.9744L74.6448 73.8752L74.5882 72.8555L74.5457 71.8215L75.5088 71.6799C76.047 71.5949 76.5144 71.4957 76.5569 71.4532C76.5994 71.4249 76.5711 70.9433 76.5003 70.391L76.3728 69.3995L77.3643 69.1587C77.9167 69.0312 78.3841 68.9038 78.4124 68.8896C78.4266 68.8754 78.3416 68.4222 78.2283 67.8981C78.1008 67.3741 78.0583 66.8925 78.115 66.8359C78.1716 66.7792 78.6248 66.5951 79.1064 66.4251L79.9704 66.0993L79.7013 65.3203C79.3047 64.1447 79.3189 64.1023 80.3387 63.6207L81.2451 63.2099L80.8344 62.2326C80.6078 61.7086 80.4378 61.2553 80.452 61.2412C80.4803 61.227 80.8627 61.0004 81.316 60.7313C81.755 60.4763 82.1233 60.1931 82.1233 60.1222C82.1233 60.0514 81.9392 59.6548 81.6984 59.2299C81.4718 58.8192 81.2735 58.4226 81.2735 58.3659C81.2735 58.2951 81.6276 57.9977 82.0525 57.7002C82.4774 57.417 82.8315 57.1195 82.8315 57.0487C82.8315 56.992 82.5765 56.5813 82.2791 56.1422L81.7267 55.3491L82.4491 54.6834C82.8598 54.3151 83.2139 54.0035 83.2422 53.9893C83.2706 53.9752 83.1148 53.7202 82.8881 53.4369C82.6615 53.1678 82.3499 52.7712 82.1941 52.5871L81.925 52.2472L82.5907 51.5673C82.959 51.1991 83.2564 50.8308 83.2564 50.7458C83.2564 50.675 82.9448 50.2926 82.5624 49.9243L81.8542 49.2303L82.5057 48.3946L83.1572 47.5731L82.7465 47.2615C82.5199 47.0774 82.1516 46.7658 81.925 46.5675L81.5143 46.1993L82.0525 45.3211C82.3924 44.7829 82.5482 44.4005 82.4632 44.3438C82.3782 44.2872 81.9817 44.0322 81.5851 43.7631C81.1743 43.5081 80.8486 43.2674 80.8486 43.239C80.8486 43.1965 81.0468 42.8 81.2735 42.3326C81.5143 41.8652 81.6984 41.4544 81.6984 41.4261C81.6984 41.3836 81.316 41.1428 80.8486 40.8879C80.3812 40.6329 79.9987 40.3496 79.9987 40.2505C79.9987 40.1513 80.1262 39.7406 80.282 39.344C80.452 38.9333 80.5511 38.5367 80.5086 38.4375C80.4803 38.3384 80.0554 38.1259 79.588 37.9418C79.1064 37.7718 78.724 37.6019 78.724 37.5594C78.724 37.531 78.8231 37.092 78.9506 36.5821C79.0923 36.058 79.1347 35.6048 79.0639 35.5481C78.9931 35.4915 78.554 35.3215 78.0725 35.194L77.2085 34.9391L77.3218 34.2734C77.3926 33.9193 77.4776 33.4519 77.5059 33.2394C77.5767 32.8712 77.5484 32.857 76.7694 32.7012C75.3813 32.4179 75.4805 32.5312 75.5655 31.3698L75.6505 30.3217L74.5598 30.2225L73.4834 30.1234V29.0753V28.0272H72.4353H71.373L71.288 27.2057C71.1322 25.8176 71.1889 25.8743 70.0274 25.9876L68.9935 26.0726L68.7952 25.1094C68.5544 24.0188 68.6252 24.0471 67.1664 24.2738L66.4582 24.3729L66.1891 23.4948C66.0474 23.0132 65.8491 22.5883 65.75 22.5458C65.6508 22.5033 65.2259 22.5741 64.7869 22.7016C64.3619 22.8291 63.9654 22.9282 63.8804 22.9282C63.8096 22.9282 63.5829 22.5175 63.3563 22.0076C63.1439 21.4977 62.9456 21.0869 62.9172 21.0869C62.8889 21.0869 62.4498 21.2569 61.9399 21.4552C61.43 21.6676 60.991 21.8093 60.9626 21.7809C60.9343 21.7526 60.7077 21.356 60.4527 20.9028C60.212 20.4637 59.9287 20.0955 59.8437 20.0955C59.7446 20.0955 59.3621 20.2938 58.9655 20.5204C58.5831 20.747 58.2149 20.9453 58.1582 20.9453C58.1016 20.9453 57.79 20.5629 57.4784 20.0813L56.8835 19.2315L56.5152 19.4723C56.3028 19.5997 55.9062 19.8688 55.6371 20.053L55.1413 20.3929L54.4331 19.5856L53.7108 18.7924L52.8893 19.4581L52.0678 20.1379L51.3313 19.4014C50.9347 19.0049 50.5664 18.6791 50.5381 18.6791C50.4956 18.6791 50.1415 18.9907 49.7591 19.3873ZM54.1782 23.2823C67.1805 24.982 77.2368 35.1657 78.8656 48.2813C79.1631 50.7742 79.0214 54.3009 78.4974 56.992C76.3303 68.1389 67.5063 77.0621 56.3736 79.3708C51.0055 80.4897 45.425 80.0365 40.3544 78.0819C26.7997 72.8413 19.3354 58.2101 23.0746 44.188C25.5249 34.9674 32.5501 27.5031 41.5866 24.5146C43.2155 23.9622 45.7083 23.4098 47.2096 23.2398C49.0509 23.0274 52.3652 23.0557 54.1782 23.2823Z" fill="#239371"/>
<path d="M48.6967 25.4916C41.8556 26.2564 35.7794 29.0467 31.8277 33.225C28.3718 36.8934 25.8931 41.7091 24.9016 46.6664C24.4626 48.8476 24.3634 52.5727 24.675 54.7964C25.1283 57.8699 25.8081 60.1078 27.097 62.8272C31.2612 71.5521 39.2637 77.0193 48.7392 77.5859C54.5322 77.9258 59.8578 76.6227 64.4893 73.7333C67.9453 71.5804 71.203 68.1953 73.2567 64.6119C76.8543 58.3373 77.69 50.2923 75.4521 43.4795C73.6391 37.9557 69.6733 32.7717 64.7726 29.5424C59.8861 26.3272 54.164 24.8825 48.6967 25.4916ZM55.5662 27.177C58.6539 27.8286 61.9823 29.2874 64.5602 31.1004C66.3165 32.3468 69.5883 35.6186 70.8347 37.375C71.982 39.0179 73.625 42.2331 74.1773 43.9753C75.9761 49.5841 75.5937 56.1561 73.1151 61.7791C71.4579 65.5467 68.4552 69.2009 64.9851 71.6937C63.4554 72.7702 60.5518 74.2715 58.7388 74.8947C54.8296 76.2403 50.1414 76.6511 46.2181 75.9712C36.3459 74.2857 28.5276 66.4956 26.318 56.1419C26.0914 55.0796 25.9922 54.0174 25.9356 51.9636C25.8648 49.5416 25.9073 48.9751 26.1764 47.3604C26.9554 42.7572 28.8816 38.8338 32.2243 35.0521C36.3318 30.4205 41.3882 27.8852 48.4843 26.9079C50.1131 26.6813 53.9373 26.823 55.5662 27.177Z" fill="#239371"/>
<path d="M47.9886 28.7345C44.0794 29.2727 40.4818 30.5899 37.4933 32.5729C35.822 33.6918 33.1167 36.3829 31.8136 38.2242C30.0148 40.7453 28.6834 43.833 27.9894 47.0482C27.7203 48.2805 27.6778 48.932 27.6778 51.4673C27.6636 54.0026 27.7203 54.6683 27.9752 55.9289C29.7315 64.243 35.3404 70.7017 43.0313 73.2653C45.9066 74.2285 47.0963 74.3984 50.7506 74.3984C53.6258 74.3984 54.1782 74.3701 55.4954 74.0868C60.3111 73.0246 64.5461 70.5884 67.7187 67.005C71.1039 63.1949 73.0443 58.5634 73.5117 53.2095C74.0783 46.5525 71.7554 40.2071 66.9681 35.3914C63.7529 32.1479 60.0561 30.08 55.7079 29.0744C54.249 28.7486 53.64 28.692 51.4587 28.6495C50.0565 28.6353 48.4985 28.6637 47.9886 28.7345ZM49.4192 32.4879C48.9943 33.3944 49.0367 34.6266 49.4758 34.0176C49.8299 33.5218 50.3398 34.145 50.099 34.7966C50.014 35.009 49.8582 35.1082 49.6316 35.1082C48.6118 35.1082 48.4985 32.9269 49.4475 31.723C49.7449 31.3689 49.7166 31.8363 49.4192 32.4879ZM56.1753 33.2244C57.0676 35.5614 57.7191 39.6264 57.5917 42.0484C57.5208 43.1249 57.45 43.4081 56.9826 44.3004C56.6852 44.8528 56.4727 45.3486 56.5152 45.3769C56.586 45.4477 59.093 45.7168 59.7304 45.731H60.0703L59.9712 44.2721C59.9287 43.479 59.7445 42.0342 59.5887 41.0711C59.4329 40.0938 59.3338 39.1165 59.3763 38.8899C59.4471 38.55 60.6794 36.6662 60.8352 36.6662C60.9626 36.6662 61.2034 37.601 61.5858 39.4848C61.8125 40.6179 62.0957 41.836 62.209 42.1759C62.3648 42.6008 62.4357 43.309 62.4357 44.4138C62.4357 46.255 62.3507 46.1417 64.022 46.4392C65.056 46.6233 65.835 46.8783 65.835 47.0341C65.835 47.3457 65.1834 48.4221 64.9143 48.5354C64.7302 48.6204 64.192 48.762 63.6962 48.8612C62.2799 49.1161 62.1524 49.2436 62.1524 50.3484C62.1524 51.2407 62.1665 51.269 62.4782 51.1699C62.6481 51.1132 63.4838 50.8583 64.3194 50.6033C65.7217 50.1784 65.835 50.1642 65.5942 50.4334C65.2401 50.8299 64.5319 51.1557 63.243 51.5381L62.1382 51.8639L62.1807 53.1528L62.2232 54.4417L63.3563 55.0507C65.4525 56.1697 65.9766 57.0053 65.9766 59.1724C65.9624 61.127 65.2826 62.7558 63.6113 64.7954C62.0957 66.6225 59.6596 68.3505 57.9033 68.8179C56.1328 69.2995 53.8666 69.2287 52.3086 68.648C51.6995 68.4213 51.2321 68.1097 50.6514 67.529C50.1982 67.0758 49.8299 66.6084 49.8299 66.4809C49.8299 66.2968 49.7449 66.2543 49.5183 66.3109C49.3342 66.3534 48.3994 66.5517 47.4221 66.75C41.5583 67.9398 38.159 67.3024 36.8701 64.7812C36.1336 63.3507 36.3177 61.3253 37.2808 60.1072C37.4791 59.8381 37.4933 59.9089 37.5074 61.0987C37.5216 63.0108 38.0173 63.9597 39.3912 64.6538C40.3827 65.1637 41.9832 65.3336 43.8386 65.1353C45.17 64.9937 47.932 64.5405 48.5552 64.3563C48.7251 64.2997 48.7676 63.9031 48.7818 61.991C48.796 59.5123 48.8243 59.3282 49.8724 56.5946L50.2407 55.6456L49.4617 55.0507C48.7676 54.5267 48.5693 54.2717 47.8328 52.7987C47.3796 51.8781 46.9405 51.0991 46.8697 51.0566C46.7989 51.0141 46.7139 51.1132 46.6572 51.2973C46.289 52.8129 43.0313 55.9572 40.1136 57.6285C36.0061 59.9797 33.5274 59.8664 32.7626 57.3169C32.196 55.4048 32.9467 52.5013 34.5897 50.2209C35.2554 49.2861 36.4735 48.0397 36.0627 48.7054C34.3773 51.4673 33.7824 52.8979 33.7682 54.3001C33.7257 57.1895 36.0344 57.5436 39.9861 55.2632C42.9463 53.5494 45.595 51.354 46.2182 50.0651C47.0821 48.2946 46.813 46.5383 44.8018 40.9153C44.2777 39.4706 44.2636 38.0117 44.7593 36.9353L45.0992 36.1846L45.8641 38.0117C47.592 42.2184 48.1019 44.4138 48.2719 48.4221C48.3852 51.1982 48.5268 52.2322 48.9093 52.9545C49.1784 53.4644 50.3681 54.5125 50.6939 54.5125C50.8355 54.5125 51.3029 54.0734 51.7845 53.4786C53.4133 51.4956 54.7306 50.5325 57.8466 49.0453C58.8806 48.5637 59.7445 48.1105 59.8012 48.0255C59.9145 47.8414 59.3621 47.7564 57.0959 47.5723C55.2405 47.4306 53.3567 47.5156 51.3171 47.8556C49.8158 48.1105 49.7449 48.0822 49.49 47.3315C49.3625 46.9632 49.2634 46.5667 49.2634 46.425C49.2634 46.1276 50.0282 45.8585 51.8128 45.5185C54.2773 45.0511 55.0139 44.6404 55.4388 43.5214C55.7504 42.6858 55.6371 40.7453 55.1413 38.5925C54.6456 36.4254 54.5889 35.8447 54.7872 34.8815C54.9997 33.7768 55.5237 32.1338 55.6512 32.1338C55.7079 32.1338 55.9487 32.6295 56.1753 33.2244ZM50.7931 35.703C50.8355 36.1563 50.8072 36.2129 50.5664 36.1421C50.2407 36.0713 50.1132 36.4112 50.1132 37.3319C50.1132 37.9409 49.9291 38.1392 49.7733 37.7143C49.7308 37.5868 49.6883 37.346 49.6883 37.1619C49.6883 36.9919 49.5608 36.6945 49.405 36.5104L49.1359 36.1705L49.1217 36.4821C49.1217 36.6662 49.0651 36.8078 49.0084 36.8078C48.7818 36.8078 48.5552 36.4537 48.5552 36.0996C48.5552 35.4481 49.1642 35.1507 49.5466 35.6039C49.7591 35.8588 49.9716 35.873 49.9716 35.6322C49.9716 35.3631 50.2832 35.094 50.5381 35.1365C50.6656 35.1648 50.7647 35.3773 50.7931 35.703ZM55.3538 40.4762C55.3538 40.6604 55.1555 40.8445 54.7589 41.0286C53.8099 41.4819 48.2577 43.3373 48.1161 43.2382C47.8895 43.1107 47.9886 42.8416 48.3569 42.5725C48.7676 42.275 54.5606 40.2213 55.0422 40.2213C55.2546 40.2071 55.3538 40.2921 55.3538 40.4762ZM31.9411 44.4138C31.8986 44.5554 31.7286 44.9803 31.5587 45.3769C31.2896 45.9859 31.2754 46.1417 31.4312 46.51C31.5728 46.8499 31.6153 46.8783 31.6578 46.68C31.7711 46.255 32.3235 46.425 32.3802 46.9066C32.4793 47.7139 31.757 47.9972 31.3179 47.3315C30.9496 46.7791 30.9921 45.5327 31.3887 44.7679C31.7003 44.1871 32.0827 43.9322 31.9411 44.4138ZM40.3544 45.5044C40.0144 45.9151 39.7736 46.8641 39.9294 47.2465C40.0569 47.5864 40.0852 47.5864 40.241 47.374C40.5527 46.9632 40.9351 47.2323 40.8784 47.8414C40.8501 48.2521 40.7793 48.3654 40.5102 48.3938C39.462 48.5496 39.2071 46.6941 40.0852 45.3061C40.326 44.9095 40.411 44.867 40.4535 45.0653C40.4818 45.2069 40.4393 45.4052 40.3544 45.5044ZM33.0883 48.238C33.1308 48.6062 33.0742 48.6912 32.8051 48.7337C32.5076 48.7762 32.4793 48.8612 32.4368 49.5835C32.4085 50.1926 32.3377 50.405 32.196 50.405C32.0544 50.405 31.9836 50.2492 31.9836 49.9235C31.9836 49.6544 31.8561 49.3003 31.7003 49.1161L31.4312 48.7762L31.417 49.0878C31.417 49.2719 31.3604 49.4136 31.2896 49.4136C31.0346 49.4136 30.8363 48.9887 30.8788 48.5354C30.9071 48.1672 30.9921 48.0538 31.2471 48.0255C31.4312 47.9972 31.7003 48.0822 31.8561 48.2238C32.1111 48.4504 32.1252 48.4363 32.2669 48.0822C32.4793 47.5156 33.0317 47.6148 33.0883 48.238ZM68.951 52.303C68.951 52.3313 68.7952 52.7137 68.5969 53.1528C68.1861 54.0734 68.1578 54.3567 68.4553 54.7391C68.6394 54.9941 68.6536 54.9941 68.6677 54.7533C68.6677 54.5692 68.7527 54.5125 68.9935 54.5408C69.6025 54.6258 69.4326 55.7873 68.8094 55.7873C68.4128 55.7873 68.1012 55.3057 68.002 54.555C67.9454 53.9743 67.9879 53.691 68.2853 53.0395C68.4836 52.6004 68.7244 52.2463 68.7952 52.2463C68.8802 52.2463 68.951 52.2746 68.951 52.303ZM47.5354 53.6769C47.5495 53.8043 47.4362 54.0593 47.2804 54.2717C46.9405 54.6966 38.7114 60.4613 38.4423 60.4613C38.3431 60.4613 38.2298 60.4188 38.1731 60.3763C38.0457 60.2488 38.4139 59.5973 38.8105 59.2432C39.462 58.6342 47.1955 53.3794 47.3371 53.4219C47.4221 53.4502 47.5071 53.5635 47.5354 53.6769ZM69.9991 56.0139C70.1832 56.4813 70.0983 56.8212 69.815 56.7362C69.4751 56.6512 69.3759 56.8779 69.3759 57.7843C69.3759 58.6767 69.0218 58.7616 68.9085 57.8977C68.8235 57.2178 68.3844 56.6229 68.3844 57.1753C68.3844 57.3453 68.3278 57.4869 68.257 57.4869C68.002 57.4869 67.8037 57.062 67.8462 56.6088C67.8745 56.2405 67.9595 56.1272 68.2145 56.0989C68.3986 56.0705 68.6677 56.1555 68.7952 56.2688C69.0218 56.4813 69.0643 56.4671 69.2059 56.1414C69.3901 55.7448 69.8716 55.6598 69.9991 56.0139ZM44.1078 58.4925C44.3627 58.6483 44.6601 58.9174 44.7876 59.1016C44.9859 59.4273 44.9859 59.4982 44.6177 60.2913L44.2352 61.127L43.5979 60.9429C43.2438 60.8437 42.748 60.5746 42.4789 60.348L41.9974 59.9514L42.5497 59.0024C43.1588 57.9826 43.2154 57.9543 44.1078 58.4925ZM46.1898 60.7446C47.2804 61.4386 47.2946 61.4669 47.2096 61.9202C47.0963 62.4867 46.4873 63.4357 46.2465 63.4357C46.1473 63.4357 45.7366 63.2091 45.34 62.94C44.9293 62.6708 44.5043 62.4442 44.3769 62.4442C44.2352 62.4442 44.0228 62.7133 43.8528 63.0958C43.5837 63.719 43.5412 63.7473 43.1305 63.6623C42.6064 63.549 41.6858 63.1099 41.19 62.7417L40.8359 62.4584L41.1759 61.4669C41.5724 60.3055 41.6716 60.263 42.6489 60.8862C43.003 61.1128 43.4987 61.3961 43.7395 61.5236L44.1786 61.7502L44.5468 60.9004C44.7593 60.4188 44.9576 60.0364 45.0001 60.0364C45.0426 60.0364 45.5808 60.3622 46.1898 60.7446ZM46.3456 69.1012C46.8414 69.4836 47.3088 69.8094 47.3937 69.8094C47.4646 69.8094 47.762 69.5261 48.0453 69.172C48.3427 68.8179 48.626 68.5346 48.6968 68.5346C48.8951 68.5346 50.5523 69.8094 50.6372 70.036C50.7081 70.2343 50.2265 71.509 49.9574 71.8348C49.8441 71.9906 49.0934 71.6082 48.3994 71.07C48.1161 70.8433 47.8187 70.6592 47.7337 70.6592C47.6487 70.6592 47.3513 70.9708 47.068 71.3674C46.7847 71.7498 46.5156 72.0756 46.4731 72.0756C46.4448 72.0756 45.9349 71.6932 45.3542 71.2116L44.306 70.3618L44.8443 69.3845C45.1275 68.8462 45.3825 68.393 45.4108 68.393C45.425 68.393 45.8499 68.7046 46.3456 69.1012Z" fill="#239371"/>
<path d="M59.4617 50.1802C58.2719 50.6192 55.425 52.2622 54.1219 53.2679C53.4704 53.7636 52.8047 54.5709 52.8047 54.8542C52.8047 54.9675 54.7734 54.9675 57.8611 54.84L60.2973 54.7551L60.3398 53.7069C60.3681 53.0554 60.3256 52.673 60.2407 52.673C60.1557 52.673 59.3908 52.9563 58.541 53.2962C57.677 53.6361 56.9547 53.8911 56.9122 53.8486C56.7422 53.6928 57.8045 52.9704 58.8384 52.5455C59.4475 52.2906 59.9999 52.0356 60.0565 51.979C60.099 51.9365 60.184 51.4691 60.2407 50.9308C60.354 49.8827 60.3398 49.8544 59.4617 50.1802Z" fill="#239371"/>
<path d="M50.5517 57.7418C49.6169 59.7956 49.4328 60.7587 49.6594 62.3309C49.7444 62.9683 49.886 63.549 49.9427 63.6056C50.0985 63.7614 51.2741 63.4782 52.0248 63.1099C52.9596 62.6567 53.4553 62.2034 54.0643 61.2828C54.4184 60.7446 54.6592 60.4896 54.7017 60.6171C54.73 60.7304 54.8717 61.1553 54.9992 61.5661C55.1266 61.9768 55.3816 62.4725 55.5515 62.6708C55.9056 63.0816 56.7696 63.3224 57.5061 63.1949C58.0019 63.1241 58.0302 63.0957 57.9594 62.6708C57.9027 62.4301 57.6903 61.8493 57.4778 61.3819L57.0671 60.5321L57.7328 59.8522L58.3985 59.1724L58.6676 59.7814C58.8234 60.1355 58.965 60.8437 59.0075 61.4528C59.1916 64.5971 56.8829 65.801 54.1352 64.0022C53.8519 63.8323 53.7952 63.8606 53.3703 64.328C53.1154 64.6113 52.8463 64.8521 52.7471 64.8521C52.5205 64.8521 51.529 65.5461 51.529 65.7019C51.529 65.9143 53.1862 66.665 54.0502 66.8491C54.5176 66.9341 55.4666 66.9766 56.3447 66.9483C57.5911 66.8916 58.0302 66.8067 59.1066 66.3959C62.1802 65.2203 64.6022 62.8125 64.9138 60.5746C65.1121 59.229 64.3331 57.7418 63.1858 57.2603C62.3501 56.9062 62.3501 56.892 62.2368 58.9033C62.1377 61.127 62.0102 61.7502 61.4153 62.9683C61.0187 63.7756 59.7865 65.3761 59.659 65.2486C59.6449 65.2203 59.8007 64.498 60.0414 63.6481C60.4664 62.0618 60.7355 59.8381 60.7355 57.8976V56.8212L58.2285 56.7362C56.0331 56.6512 52.4638 56.3396 51.5857 56.1413C51.3449 56.0847 51.2033 56.3113 50.5517 57.7418Z" fill="#239371"/>
</svg>
