<svg width="36" height="26" viewBox="0 0 36 26" fill="none" xmlns="http://www.w3.org/2000/svg">
<path d="M9.7096 0.841629C9.30312 0.970346 8.8831 1.33617 8.70018 1.72233C8.57147 1.99331 8.55792 2.14235 8.55792 3.20596V4.39152L8.23951 4.24248C8.00917 4.14086 7.78561 4.10021 7.47398 4.10021C6.79652 4.10021 6.27488 4.42539 5.90905 5.07575C5.83453 5.21124 5.80743 5.97677 5.78033 9.23535L5.74646 13.2256L4.97416 12.0604C4.05959 10.6851 3.60569 10.2177 3.02985 10.0483C2.39981 9.86539 1.7088 10.089 1.22103 10.6241C0.909399 10.9697 0.875526 11.1119 0.922948 11.8368C0.997468 13.1172 1.88494 14.9938 4.95383 20.4202C6.44424 23.0623 8.12434 24.4646 10.3871 24.9456C11.3355 25.1489 13.2459 25.1421 14.0115 24.9389C14.8922 24.695 15.5019 24.363 16.0438 23.8143C17.0397 22.8049 17.4936 21.4432 17.5952 19.1669C17.6156 18.6995 17.6088 15.529 17.5817 12.1213L17.5343 5.92257L17.3378 5.56352C16.9855 4.93349 16.3893 4.62185 15.6645 4.6896C15.4409 4.70992 15.1631 4.78444 15.0344 4.85896L14.8109 4.99446L14.7702 4.40507C14.7296 3.66664 14.5873 3.32113 14.1808 2.9553C13.5982 2.43366 13.0021 2.36591 12.1349 2.73174C12.0401 2.77239 12.0197 2.72497 11.9791 2.38624C11.891 1.60716 11.4439 1.03809 10.7664 0.841629C10.36 0.719687 10.1093 0.719687 9.7096 0.841629ZM10.6106 1.51231C10.9155 1.64103 11.2 1.96621 11.2745 2.27107C11.3016 2.42011 11.3355 4.43217 11.3355 6.75585C11.3355 9.53344 11.3626 11.0238 11.4032 11.1119C11.4845 11.261 11.8233 11.2881 11.9384 11.1526C11.9859 11.0916 12.013 9.93991 12.0265 7.44008L12.0468 3.82245L12.2094 3.61244C12.6633 3.00273 13.5982 3.07725 13.964 3.74116C14.0657 3.93762 14.0792 4.30345 14.1131 7.51461C14.1334 9.47246 14.1741 11.1119 14.2012 11.1526C14.2689 11.261 14.6009 11.2677 14.7092 11.1593C14.7702 11.0984 14.7905 10.4345 14.7905 8.59177C14.7905 6.12581 14.7905 6.11226 14.9464 5.88193C15.2038 5.50255 15.5154 5.32641 15.8948 5.36706C16.2945 5.40093 16.5384 5.5703 16.7281 5.93612C16.8703 6.20711 16.8703 6.29518 16.911 12.5685C16.9313 16.3622 16.9245 19.2279 16.8839 19.675C16.6129 22.8862 15.3935 24.2682 12.6904 24.424C11.3287 24.5053 10.1974 24.2885 9.06601 23.7398C7.51463 22.981 6.50521 21.8429 5.08255 19.2347C4.77092 18.6588 4.20863 17.6494 3.84957 16.999C2.44046 14.4857 1.58686 12.5007 1.56653 11.6878C1.55299 11.2135 1.67493 11.0306 2.14915 10.8003C2.46756 10.6445 2.54885 10.6309 2.77241 10.6919C3.24663 10.8206 3.51762 11.139 4.74382 12.9749C5.5771 14.2282 5.9768 14.777 6.07841 14.7905C6.8304 14.926 7.04041 14.9802 7.38591 15.1496C7.62302 15.2647 7.95498 15.5154 8.23274 15.7932C8.70018 16.2674 8.86955 16.3351 9.05924 16.1454C9.26248 15.9422 9.18118 15.7661 8.66631 15.258C8.11079 14.716 7.46721 14.3569 6.82362 14.2215L6.45779 14.1469V9.86539C6.45779 5.92257 6.46457 5.56352 6.57973 5.34674C6.71523 5.06898 7.05396 4.82509 7.37914 4.76412C7.73142 4.69637 8.19886 4.96058 8.4021 5.33996C8.55792 5.63804 8.55792 5.64482 8.55792 8.3682V11.1051L8.71373 11.2C8.83568 11.2813 9.05924 11.2881 9.18118 11.2135C9.19473 11.2135 9.21505 9.14051 9.23538 6.62036L9.26925 2.03396L9.47249 1.81717C9.83154 1.43779 10.2041 1.33617 10.6106 1.51231Z" fill="white"/>
<path d="M25.7111 0.841385C25.054 1.04462 24.6407 1.55272 24.5323 2.29792C24.4713 2.7044 24.4442 2.77214 24.3494 2.7315C23.4958 2.36567 22.8929 2.43341 22.3102 2.95506C21.9038 3.32089 21.7615 3.66639 21.7209 4.40482L21.6802 4.99421L21.4566 4.85872C21.3279 4.7842 21.0502 4.70968 20.8266 4.68936C20.1017 4.62161 19.5056 4.93324 19.1533 5.56328L18.9568 5.92233L18.9094 12.155C18.8823 15.5829 18.8755 18.7534 18.8959 19.2005C18.9975 21.4497 19.4581 22.8114 20.4472 23.814C20.9892 24.3628 21.5989 24.6947 22.4796 24.9386C23.2451 25.1419 25.1556 25.1486 26.104 24.9454C28.3667 24.4644 30.0468 23.0621 31.5372 20.42C34.6061 14.9935 35.4936 13.117 35.5681 11.8366C35.6156 11.1117 35.5817 10.9694 35.27 10.6239C34.7823 10.0887 34.0913 9.86515 33.4612 10.0481C32.8854 10.2174 32.4315 10.6849 31.5169 12.0601L30.7446 13.2253L30.7107 9.23511C30.6836 5.97653 30.6565 5.211 30.582 5.07551C30.372 4.7029 30.1552 4.47934 29.8165 4.29643C29.3558 4.04577 28.7461 4.02544 28.2583 4.24901L27.9332 4.39127V3.22604C27.9332 2.14211 27.9196 2.03371 27.7706 1.71531C27.5741 1.29528 27.2015 0.970102 26.7544 0.841385C26.3479 0.719442 26.0972 0.719442 25.7111 0.841385ZM26.5986 1.51207C26.7205 1.55949 26.9102 1.70176 27.0186 1.81693L27.2218 2.03371L27.2557 6.62012C27.276 9.14026 27.2963 11.2133 27.3099 11.2133C27.4318 11.2878 27.6554 11.281 27.7773 11.1997L27.9332 11.1049V8.36796C27.9332 5.64457 27.9332 5.6378 28.089 5.33972C28.2922 4.96034 28.7597 4.69613 29.1119 4.76388C29.4371 4.82485 29.7759 5.06873 29.9113 5.34649C30.0265 5.56328 30.0333 5.92233 30.0333 9.85837V14.1331L29.6675 14.2144C29.0103 14.3635 28.3735 14.7225 27.8248 15.2577C27.3099 15.7658 27.2286 15.942 27.4318 16.1452C27.6215 16.3349 27.7909 16.2671 28.2583 15.7929C28.5361 15.5152 28.8681 15.2645 29.1052 15.1493C29.4507 14.98 29.6742 14.919 30.4127 14.7903C30.5075 14.7767 30.9275 14.2009 31.7473 12.9747C32.9735 11.1388 33.2512 10.8204 33.7187 10.6916C33.9422 10.6307 34.0235 10.6442 34.3419 10.8C34.5452 10.9017 34.762 11.0575 34.8229 11.1523C35.1075 11.5859 34.7891 12.7714 33.9016 14.6074C33.3732 15.6913 31.544 19.0515 30.7649 20.359C29.7217 22.1136 28.6987 23.1434 27.3573 23.7802C26.2734 24.295 25.1217 24.4983 23.8007 24.4238C21.4973 24.2883 20.2237 23.1976 19.7765 20.9619C19.5598 19.8916 19.5394 18.9634 19.5801 12.5682C19.6207 6.29494 19.6207 6.20687 19.763 5.93588C19.9527 5.57005 20.1966 5.40069 20.5963 5.36682C20.9757 5.32617 21.2873 5.50231 21.5447 5.88168C21.7005 6.11202 21.7005 6.12557 21.7005 8.59152C21.7005 10.4342 21.7209 11.0981 21.7818 11.1591C21.8902 11.2675 22.2222 11.2607 22.2899 11.1523C22.317 11.1117 22.3577 9.47222 22.378 7.51436C22.4119 4.3032 22.4254 3.93737 22.527 3.74091C22.8929 3.077 23.8278 3.00248 24.2817 3.61219L24.4442 3.82221L24.4646 7.43984C24.4781 9.93967 24.5052 11.0913 24.5526 11.1523C24.6678 11.2878 25.0065 11.2607 25.0878 11.1117C25.1285 11.0236 25.1556 9.53319 25.1556 6.75561C25.1556 4.43192 25.1894 2.41986 25.2165 2.27082C25.3182 1.84402 25.8059 1.424 26.226 1.41722C26.3073 1.41722 26.4766 1.45787 26.5986 1.51207Z" fill="white"/>
</svg>
