<svg width="45" height="45" viewBox="0 0 45 45" fill="none" xmlns="http://www.w3.org/2000/svg">
<rect x="0.0644531" width="44.5319" height="44.5319" rx="9" fill="#239571"/>
<path d="M20.9713 13.3565L21.5 13.882L22.0287 13.3565L22.4559 12.9318C25.3827 10.0227 30.1299 10.0227 33.0568 12.9318C35.9811 15.8384 35.9811 20.5491 33.0568 23.4557L21.5 34.9425L9.94323 23.4557C7.01892 20.5491 7.01892 15.8384 9.94323 12.9318C12.8701 10.0227 17.6173 10.0227 20.5441 12.9318L20.9713 13.3565Z" stroke="white" stroke-width="1.5" stroke-linecap="round"/>
<path d="M20.9713 13.3565L21.5 13.882L22.0287 13.3565L22.4559 12.9318C25.3827 10.0227 30.1299 10.0227 33.0568 12.9318C35.9811 15.8384 35.9811 20.5491 33.0568 23.4557L21.5 34.9425L9.94323 23.4557C7.01892 20.5491 7.01892 15.8384 9.94323 12.9318C12.8701 10.0227 17.6173 10.0227 20.5441 12.9318L20.9713 13.3565Z" stroke="white" stroke-width="1.5" stroke-linecap="round"/>
</svg>
