<svg width="26" height="26" viewBox="0 0 26 26" fill="none" xmlns="http://www.w3.org/2000/svg">
<path d="M11.5781 0.0339642C8.67611 0.356955 6.11703 1.5545 4.05486 3.55208C1.17776 6.34967 -0.188742 10.2703 0.328043 14.2406C0.442332 15.1102 0.392641 15.0804 0.874642 14.5884L1.29205 14.1611L1.2672 13.6642C1.25229 13.3958 1.23242 13.0381 1.21751 12.8741C1.18769 12.4915 1.27217 11.3188 1.37155 10.7125C2.33555 4.94839 7.4885 0.739574 13.2675 0.997967C13.7197 1.01784 14.157 1.03772 14.2365 1.04766C14.3657 1.0576 14.4452 1.00294 14.798 0.660069C15.0216 0.43646 15.2055 0.242666 15.2055 0.22279C15.2055 0.207882 15.1757 0.192975 15.1459 0.188006C15.1111 0.188006 14.8825 0.148253 14.634 0.103532C14.0924 0.00911903 12.1843 -0.0356026 11.5781 0.0339642Z" fill="#346652"/>
<path d="M11.6777 3.70106C11.5783 3.75572 11.3945 3.85013 11.1609 3.97436C10.9622 4.08368 10.3858 4.66506 10.3858 4.75451C10.3858 4.78432 10.341 4.87377 10.2814 4.95327C10.2268 5.03278 10.1721 5.12719 10.1671 5.16197C10.1622 5.19676 10.1423 5.25639 10.1174 5.29614C10.0926 5.33589 10.4504 4.99799 10.9125 4.54581C11.3746 4.08865 11.787 3.70603 11.8268 3.69112C11.8914 3.66628 11.8914 3.66628 11.8268 3.66131C11.787 3.66131 11.7175 3.68119 11.6777 3.70106Z" fill="#346652"/>
<path d="M14.8183 0.630155C14.3463 1.12209 14.3264 1.0575 14.9823 1.17179C15.8916 1.32583 16.9948 1.70348 18.0035 2.20039C19.3551 2.87121 20.5079 3.75571 21.6309 4.99301L21.9241 5.31104L22.262 4.97314C22.4608 4.77934 22.59 4.61039 22.5751 4.57064C22.5602 4.53089 22.5303 4.51598 22.5055 4.53089C22.4807 4.5458 22.4608 4.52095 22.4608 4.47623C22.4608 4.36691 21.2533 3.16936 20.7216 2.74202C19.6085 1.86249 18.3066 1.137 17.0445 0.694753C16.4879 0.500959 15.3997 0.212752 15.3649 0.252505C15.35 0.267412 15.3152 0.257474 15.2854 0.237597C15.2506 0.217721 15.0668 0.371763 14.8183 0.630155Z" fill="#346652"/>
<path d="M12.0852 3.59177C12.0256 3.60171 11.9163 3.64643 11.8418 3.68121C11.7672 3.72097 11.6877 3.73587 11.6629 3.72097C11.633 3.70606 11.6281 3.71103 11.643 3.74084C11.6827 3.80047 10.2169 5.26138 10.1672 5.21169C10.1473 5.19182 10.1324 5.19679 10.1423 5.22163C10.1473 5.24648 10.1423 5.30611 10.1274 5.34586C10.0131 5.67879 9.98828 5.82786 9.98828 6.19557C9.98828 8.13849 11.9908 9.3907 13.7449 8.55092C14.6741 8.1037 15.2257 7.21424 15.2257 6.16576C15.2257 5.42536 14.9872 4.86883 14.4406 4.32223C14.0629 3.94955 13.7399 3.76072 13.243 3.63152C12.9697 3.56196 12.3536 3.54208 12.0852 3.59177ZM13.2728 4.68994C13.8592 4.97815 14.217 5.51481 14.2269 6.12601C14.2319 6.59807 14.1126 6.92603 13.8095 7.25896C13.0045 8.13849 11.6678 7.94966 11.1361 6.87634C10.9423 6.48875 10.9225 6.00178 11.0864 5.56947C11.2504 5.12722 11.7175 4.71479 12.1995 4.58559C12.443 4.52099 13.0443 4.57565 13.2728 4.68994Z" fill="#346652"/>
<path d="M8.9788 9.76856C8.75022 9.83813 8.51667 10.0468 8.40238 10.2853C8.29803 10.494 8.29306 10.5636 8.30797 11.7164L8.32288 12.9339L8.46201 13.1376C8.53655 13.2519 8.69059 13.396 8.80985 13.4556C8.99867 13.56 9.09805 13.5699 9.97758 13.5848L10.9316 13.6047L10.9366 14.7774C10.9416 15.4283 10.9565 16.0197 10.9764 16.0942C11.0062 16.2284 11.0112 16.2284 11.4534 15.7812L11.9006 15.3339L11.9205 14.1861C11.9354 12.9786 11.9155 12.8196 11.7068 12.6755C11.6273 12.6158 11.3838 12.6009 10.4496 12.6009H9.29185V11.6568V10.7127H12H14.7082V11.3934C14.7082 11.7711 14.7231 12.1637 14.7429 12.268L14.7728 12.4618L15.2349 11.9997L15.702 11.5326V10.9959C15.702 10.4195 15.6374 10.2108 15.3939 9.98223C15.1106 9.7139 15.1405 9.71887 12.0149 9.72384C10.4198 9.72384 9.05333 9.74868 8.9788 9.76856Z" fill="#346652"/>
<path d="M0.879528 14.5837C0.561507 14.9017 0.447218 15.0557 0.467094 15.1203C0.482001 15.17 0.54163 15.4234 0.601259 15.6818C0.964003 17.262 1.87335 19.1105 2.93673 20.4223C3.11065 20.636 3.29947 20.8696 3.34916 20.9342L3.44358 21.0584L1.7193 22.7827L0 24.5069V24.7206C0 24.8896 0.0298145 24.9641 0.149073 25.0833L0.303114 25.2324L1.1727 25.2125L2.04229 25.1927L2.5243 24.7107L3.0063 24.2287H2.33547H1.66464L3.14543 22.7479C4.61131 21.277 4.62125 21.2721 4.62125 21.0634C4.62125 20.8745 4.58647 20.8099 4.31317 20.4969C3.39886 19.4534 2.92679 18.7527 2.40504 17.6943C1.89322 16.6458 1.47085 15.334 1.35159 14.4147L1.31681 14.1365L0.879528 14.5837Z" fill="#346652"/>
<path d="M22.4453 5.22641L22.1074 5.57922L22.2217 5.72332C22.2863 5.80283 22.3658 5.91215 22.3956 5.96681C22.4304 6.02147 22.5695 6.24508 22.7037 6.46372C23.6429 7.98923 24.2093 9.64393 24.3982 11.3931C24.4578 11.9397 24.4429 13.818 24.3783 14.0913C24.3634 14.1608 24.3385 14.3248 24.3236 14.4639L24.2988 14.7124L24.8355 14.1757C25.1286 13.8826 25.3821 13.654 25.397 13.6689C25.4516 13.7186 25.4466 11.726 25.392 11.234C25.228 9.76319 24.8205 8.37185 24.1447 7.00535C23.8267 6.36434 23.0565 5.12703 22.8627 4.94815C22.7932 4.87858 22.7484 4.90839 22.4453 5.22641Z" fill="#346652"/>
<path d="M15.2302 12.4518C14.8625 12.8245 14.778 12.8841 14.7482 12.8145C14.7184 12.7499 14.7134 12.7648 14.7134 12.8742C14.7184 12.9537 14.7184 14.6829 14.7134 16.7103L14.7085 20.4023H13.3171H11.9258L11.9208 18.4246C11.9158 17.3414 11.9009 16.3128 11.881 16.1389L11.8512 15.8258L11.404 16.278L10.9568 16.7252L10.9419 18.7029C10.922 20.6359 10.922 20.6856 11.0264 20.8893C11.1705 21.1676 11.409 21.3365 11.7518 21.4011C11.9307 21.4309 12.6065 21.4458 13.5109 21.4359C14.9172 21.421 14.9917 21.416 15.1905 21.3117C15.4339 21.1775 15.583 20.9986 15.6526 20.7551C15.6874 20.6359 15.7023 19.1601 15.6923 16.2879L15.6774 12.0046L15.2302 12.4518Z" fill="#346652"/>
<path d="M14.8925 24.0595C14.8776 24.0744 14.7434 24.0992 14.5993 24.1092C14.4552 24.1191 14.1173 24.1489 13.844 24.1787C13.5508 24.2086 11.3843 24.2284 8.40284 24.2284H3.45363L2.98654 24.6955L2.52441 25.1626L3.08592 25.1974C3.39897 25.2123 5.93818 25.2222 8.7308 25.2123L13.8142 25.1974L14.3956 24.611C14.7186 24.293 14.967 24.0297 14.9521 24.0297C14.9372 24.0297 14.9123 24.0446 14.8925 24.0595Z" fill="#346652"/>
<path d="M24.8355 14.1563C24.5175 14.4843 24.2591 14.7874 24.2591 14.8321C24.2591 14.9712 23.9709 15.98 23.7572 16.5663C22.9423 18.8471 21.3124 20.9093 19.2155 22.3106C18.3012 22.9168 17.0738 23.4783 15.926 23.8063C15.6825 23.8758 15.4141 23.9553 15.3297 23.9802C15.2502 24.005 15.111 24.0299 15.0216 24.0398C14.9321 24.0448 14.8725 24.0597 14.8874 24.0746C14.8974 24.0895 14.6688 24.3429 14.3756 24.6361C13.7644 25.2473 13.7445 25.2125 14.634 25.0883C17.2328 24.7255 19.6478 23.5479 21.5708 21.7093C22.2814 21.0236 22.8081 20.3975 23.3647 19.5577C24.443 17.9328 25.2032 15.8607 25.3672 14.0818C25.3821 13.9128 25.407 13.719 25.4219 13.6544C25.4318 13.5948 25.4368 13.5501 25.4318 13.555C25.4219 13.555 25.1536 13.8283 24.8355 14.1563Z" fill="#346652"/>
</svg>
