<svg width="22" height="24" viewBox="0 0 22 24" fill="none" xmlns="http://www.w3.org/2000/svg">
<path d="M9.84874 0.0726843C9.34796 0.165965 8.68027 0.386894 8.15986 0.642189C7.03067 1.19696 5.96531 2.25251 5.37616 3.41116C4.91958 4.29978 4.71338 5.19822 4.71338 6.27832C4.71338 8.03101 5.30252 9.47932 6.52008 10.7116C7.03067 11.2271 7.52653 11.5904 8.12549 11.8948C9.06321 12.3661 9.91256 12.5625 10.9976 12.5625C12.7208 12.5625 14.1544 11.9881 15.3719 10.8098C16.3637 9.84754 16.9774 8.70362 17.2081 7.37805C17.3014 6.82818 17.3014 5.72845 17.2081 5.17858C17.0461 4.26541 16.6582 3.33751 16.1231 2.59127C15.7942 2.13959 15.0774 1.42771 14.6257 1.10859C13.9187 0.607822 12.9761 0.21997 12.0973 0.0677748C11.5622 -0.025506 10.3741 -0.0205965 9.84874 0.0726843Z" fill="#239371"/>
<path d="M4.67877 11.9299C2.56277 13.0002 0.947537 14.9787 0.299481 17.2911C0.0490952 18.1797 0 18.6756 0 20.2417C0 21.5378 0.00981904 21.6753 0.1031 21.9551C0.343666 22.6817 0.883713 23.2169 1.60541 23.4574C1.9098 23.5605 1.97854 23.5605 6.99606 23.5605H12.0774L11.5914 23.0794C10.958 22.451 10.5653 21.9109 10.1823 21.1303C9.67175 20.0895 9.47046 19.196 9.47046 18.0177C9.47537 17.2911 9.54901 16.756 9.74539 16.0735C9.87795 15.612 10.2609 14.7627 10.5113 14.3748C10.5898 14.2521 10.6537 14.1343 10.6537 14.1195C10.6537 14.0999 10.5653 14.0852 10.4622 14.0852C10.3591 14.0852 10.0154 14.041 9.70612 13.987C8.23817 13.7366 6.9126 13.0935 5.73432 12.0526L5.25809 11.6353L4.67877 11.9299Z" fill="#239371"/>
<path d="M15.367 12.656C13.1528 13.147 11.5523 14.7671 11.0859 16.9813C10.9534 17.6195 10.9828 18.8175 11.1448 19.436C11.6947 21.5079 13.2903 23.0249 15.3916 23.4668C15.9954 23.5944 16.997 23.5944 17.6009 23.4668C19.1572 23.1378 20.414 22.2492 21.2388 20.8844C22.0783 19.5048 22.2354 17.6834 21.6512 16.0878C21.0572 14.4578 19.6187 13.1715 17.8709 12.71C17.2719 12.5529 15.966 12.5234 15.367 12.656ZM16.889 15.8668C17.1639 16.0485 17.2474 16.2449 17.2719 16.7849L17.2965 17.2611L17.7727 17.2857C18.1311 17.3053 18.2931 17.3348 18.4158 17.4035C18.9362 17.7079 18.9362 18.4149 18.4158 18.7193C18.2931 18.788 18.1311 18.8175 17.7727 18.8371L17.2965 18.8616L17.2719 19.3379C17.2523 19.6963 17.2228 19.8583 17.1541 19.981C16.8497 20.5014 16.1427 20.5014 15.8383 19.981C15.7696 19.8583 15.7401 19.6963 15.7205 19.3379L15.696 18.8616L15.2197 18.8371C14.8613 18.8175 14.6993 18.788 14.5766 18.7193C14.0562 18.4149 14.0562 17.7079 14.5766 17.4035C14.6993 17.3348 14.8613 17.3053 15.2197 17.2857L15.696 17.2611L15.7205 16.7849C15.7451 16.2449 15.8285 16.0485 16.1034 15.8668C16.3244 15.7146 16.668 15.7146 16.889 15.8668Z" fill="#239371"/>
</svg>
