<svg width="37" height="34" viewBox="0 0 37 34" fill="none" xmlns="http://www.w3.org/2000/svg">
<path d="M15.9925 0.177151C15.5582 0.836092 15.1239 2.20639 15.1239 2.8878C15.1239 4.03346 15.8352 5.18661 17.0183 5.97284C17.3104 6.17502 17.565 6.33975 17.565 6.33975C17.5725 6.33975 17.6024 6.44458 17.6249 6.57188L17.6773 6.8115L17.3179 6.63927C16.7113 6.35473 16.2246 6.27985 15.356 6.32478C14.9217 6.34724 14.3976 6.41463 14.1879 6.47454L13.821 6.57188L13.5364 6.15255C13.1695 5.59844 12.563 5.02936 12.3384 5.02936C12.1212 5.02936 11.8067 5.29893 11.335 5.89048C10.8483 6.50449 10.5038 7.26826 10.3915 7.97213L10.3016 8.54871L10.1294 8.38397C9.99462 8.25667 9.95718 8.14435 9.95718 7.8673C9.95718 6.87889 9.47795 5.6284 8.87143 5.01438C8.18253 4.33298 7.29895 3.99602 6.01851 3.92863C5.20981 3.8837 5.18735 3.89119 5.06754 4.06341C4.78299 4.46776 4.99266 6.00279 5.4644 6.95377C6.04097 8.12938 7.11924 8.75837 8.78906 8.89315C9.24583 8.93808 9.38061 8.97552 9.51539 9.11779L9.68013 9.2975H9.3881C8.96877 9.2975 8.30983 9.4847 7.80065 9.73929C7.21659 10.0313 6.34049 10.7352 6.17576 11.0422C6.05595 11.2743 6.05595 11.3043 6.16827 11.5289C6.23566 11.6637 6.54267 11.9707 6.84968 12.2178C8.59437 13.6031 10.1743 13.6181 11.964 12.2702L12.3608 11.9707L12.9 12.5024L13.4391 13.0415H12.9898C12.1287 13.049 11.1253 13.5282 10.2417 14.3743C9.66515 14.921 9.65767 15.1007 10.1968 15.6099C11.2975 16.6432 12.533 17.1149 13.6413 16.9352C14.1954 16.8529 15.1613 16.3961 15.6855 15.9768L16.0599 15.6773L16.5241 16.1265C17.0183 16.6133 17.2505 16.6881 17.52 16.4485C17.7447 16.2463 17.6997 15.9992 17.3927 15.6473C17.1981 15.4302 17.1531 15.3553 17.258 15.3927C17.7447 15.5949 18.3437 15.6773 19.0176 15.6323C19.407 15.6099 19.8188 15.5724 19.9237 15.5425C20.1109 15.505 20.1259 15.52 20.2906 16.1116C20.3879 16.4485 20.5152 16.7705 20.5676 16.8304C20.8073 17.07 21.3389 16.8678 21.3389 16.5384C21.3389 16.4635 21.2715 16.164 21.1891 15.8719C21.1068 15.5724 21.0394 15.3103 21.0394 15.2804C21.0394 15.2579 21.2341 15.1606 21.4737 15.0707C22.3573 14.7562 23.3008 13.9775 23.6527 13.2811C23.8698 12.8543 24.0346 12.1205 24.0346 11.5664C24.0346 11.0347 23.8698 10.1137 23.7051 9.72432C23.6003 9.46973 23.5628 9.44726 23.3008 9.44726C22.7541 9.44726 21.6834 9.90403 20.987 10.4357C20.7698 10.6004 20.4553 10.9374 20.2981 11.177C20.0734 11.5139 19.9911 11.5888 19.9611 11.4915C19.7515 10.7801 19.6242 10.2335 19.6766 10.1886C19.7065 10.1661 19.8413 10.1062 19.9836 10.0538C20.4853 9.88905 21.2341 9.41731 21.6459 9.00547C22.3648 8.27914 22.6718 7.36561 22.5894 6.16753C22.537 5.37381 22.3573 4.66994 22.1626 4.46776C22.0278 4.33298 21.9829 4.33298 21.586 4.41534C21.3539 4.46027 20.8522 4.65496 20.4628 4.84216C19.699 5.21656 19.0101 5.8156 18.7331 6.33975L18.5833 6.63927L18.5309 6.35473C18.486 6.1226 18.5159 5.97284 18.7031 5.56849C19.07 4.77477 19.1899 4.20568 19.1524 3.382C19.13 2.74553 19.0925 2.59577 18.8754 2.15398C18.5609 1.5175 17.9469 0.858557 17.2355 0.386814C16.5766 -0.0474892 16.1797 -0.11488 15.9925 0.177151ZM17.5874 1.93682C18.3587 2.79794 18.4635 3.65157 17.9543 4.93201C17.872 5.14917 17.7746 5.32888 17.7447 5.32888C17.6398 5.32888 16.9734 4.77477 16.7038 4.46776C16 3.65906 15.8951 2.62572 16.4118 1.42015L16.5616 1.06822L16.8836 1.28537C17.0633 1.40518 17.3778 1.69721 17.5874 1.93682ZM21.616 5.68081C21.7208 6.18251 21.6759 7.06609 21.5261 7.50039C21.3314 8.07696 20.7324 8.66103 19.9686 9.03542C19.6466 9.18518 19.3621 9.29001 19.3321 9.26006C19.3022 9.23011 19.2797 8.78083 19.2797 8.26416C19.2797 7.38058 19.2947 7.28324 19.4819 6.93879C19.744 6.42961 20.2606 5.97284 20.9121 5.65835C21.2041 5.51608 21.4737 5.40376 21.5036 5.40376C21.5336 5.40376 21.586 5.53105 21.616 5.68081ZM16.8611 7.45546C17.1157 7.57527 17.4152 7.79991 17.5949 8.00208C17.9843 8.44387 18.4785 9.41731 18.3662 9.52963C18.3213 9.57456 18.0367 9.62697 17.7297 9.64944L17.1756 9.69437L16.7338 9.23011C16.2621 8.7359 15.985 8.64605 15.7079 8.90064C15.5807 9.01296 15.5582 9.01296 15.341 8.8033C15.0715 8.54122 14.5623 7.5528 14.6222 7.39556C14.6746 7.25329 15.0041 7.20836 15.7978 7.23831C16.307 7.25329 16.5241 7.29821 16.8611 7.45546ZM14.6372 9.4248L14.9142 9.74678L14.6896 10.1062C14.3826 10.6004 14.1579 11.2668 14.0905 11.8284L14.0381 12.3002L13.5364 11.791L13.0347 11.2818L13.3792 10.8325C13.7611 10.3383 14.128 9.61949 14.1954 9.2376C14.2253 9.09533 14.2703 9.01296 14.3002 9.0504C14.3302 9.08035 14.4799 9.25257 14.6372 9.4248ZM18.8978 11.1246C19.0027 11.4915 19.0775 11.806 19.07 11.821C19.0551 11.8284 18.9128 11.776 18.7556 11.6937C18.5983 11.6113 18.3587 11.5289 18.2314 11.499C18.0292 11.4615 17.9843 11.4016 17.8495 11.0272L17.6997 10.5929L18.1865 10.5255C18.456 10.4881 18.6882 10.4581 18.6957 10.4581C18.6957 10.4581 18.793 10.7577 18.8978 11.1246ZM23.0761 11.5065C23.0836 12.3825 22.9039 12.8768 22.3797 13.4009C22.0503 13.7304 21.0619 14.3144 20.8372 14.3144C20.7249 14.3144 20.6575 13.8801 20.6575 13.1987C20.6575 12.0231 21.1517 11.2968 22.3348 10.7202L22.9488 10.4207L23.0087 10.6304C23.0462 10.7427 23.0761 11.1321 23.0761 11.5065ZM18.4036 12.5847C18.8229 12.8019 19.2947 13.356 19.5942 13.985C19.744 14.292 19.8413 14.5615 19.8263 14.584C19.7365 14.6739 18.8005 14.7712 18.456 14.7263C18.0442 14.6814 17.3927 14.4867 17.3328 14.3968C17.3179 14.3669 17.4302 14.0748 17.5949 13.7603C17.7522 13.4384 17.9094 13.0415 17.9319 12.8693C18.0142 12.3751 18.0068 12.3825 18.4036 12.5847Z" fill="#239571"/>
<path d="M1.18859 17.1149C0.821684 17.2422 0.529653 17.4818 0.28255 17.8487C0.0354465 18.2156 -0.0319452 18.5151 0.0129826 19.1067C0.0653984 19.8779 0.162742 19.9678 3.21784 22.0794C8.22729 25.5538 7.86787 25.2767 11.0428 28.0173C13.3715 30.0316 13.4913 30.1215 14.3674 30.5633C15.3034 31.035 16.2319 31.2522 17.3701 31.2596C18.4409 31.2671 18.8078 31.1997 20.238 30.743C20.7996 30.5633 21.5634 30.3611 21.9228 30.2937C22.6491 30.1589 25.0977 30.0691 25.854 30.1439L26.3257 30.1963L26.2209 30.6232C26.0112 31.4244 26.3257 32.263 26.9547 32.585C27.1269 32.6674 28.1079 33.0268 29.1412 33.3787C30.9084 33.9853 31.0506 34.0227 31.5299 33.9928C31.9492 33.9703 32.099 33.9254 32.361 33.7382C32.5407 33.6184 32.7579 33.3787 32.8403 33.2215C33.1023 32.7423 36.09 21.4729 36.09 20.9861C36.09 20.462 35.8654 19.9828 35.4835 19.7132C35.1316 19.4586 31.4924 18.2006 30.9458 18.1557C30.6463 18.1257 30.4816 18.1557 30.1521 18.3054C29.5905 18.56 29.3434 18.912 29.1262 19.7656C29.0663 19.9977 29.0139 20.0801 28.939 20.0501C28.2951 19.803 24.5136 18.7098 24.0045 18.6199C23.0235 18.4552 21.818 18.4777 20.4477 18.6873C18.074 19.0617 18.074 19.0617 14.2252 18.1707C11.0128 17.4294 10.8406 17.4144 10.0019 17.8262C9.58261 18.0359 9.08841 18.4627 8.87126 18.8296C8.80386 18.9344 8.43695 18.8521 5.40432 17.9835C3.53982 17.4443 1.88498 17.01 1.73522 17.01C1.58546 17.0175 1.33835 17.0624 1.18859 17.1149ZM5.16471 18.8745L8.49686 19.833L8.54179 20.3646C8.63164 21.3156 9.14082 22.1018 9.93455 22.4987C10.1592 22.611 11.3198 22.9105 13.0271 23.2924C16.4042 24.0487 16.5988 24.1311 17.7745 25.2468C18.2088 25.6586 18.6131 25.9956 18.6805 25.9956C18.8303 25.9956 19.1672 25.6661 19.1672 25.5164C19.1672 25.3666 18.4409 24.5205 17.9766 24.1311C17.4974 23.7267 16.8459 23.3374 16.3368 23.1502C16.1121 23.0603 14.7343 22.7234 13.2742 22.3939C11.814 22.0644 10.4812 21.7274 10.3239 21.6451C9.97948 21.4729 9.61257 21.0011 9.50025 20.5743C9.30556 19.8629 9.70991 19.0093 10.4063 18.6574C10.9604 18.3803 11.0652 18.3878 13.9855 19.0692C15.5131 19.4212 17.0182 19.7431 17.3476 19.7881C18.1039 19.8929 19.332 19.8255 20.4776 19.6158C21.6308 19.4062 23.353 19.3837 24.1467 19.5784C24.7458 19.7282 28.6021 20.8963 28.7219 20.9712C28.7668 21.0011 28.4149 22.4538 27.7035 25.097L26.6028 29.178L24.4388 29.2229C22.0052 29.2678 21.511 29.3427 19.8636 29.8819C18.673 30.2787 18.1114 30.3686 17.153 30.3162C15.9399 30.2488 14.8991 29.8968 13.9706 29.2379C13.7684 29.0881 12.5329 28.0548 11.2375 26.9391C8.54179 24.6253 8.27971 24.4231 5.16471 22.2816C1.38328 19.6757 1.17362 19.526 1.03135 19.2939C0.851636 18.9943 0.859124 18.6574 1.06879 18.3504C1.20357 18.1407 1.57048 17.9236 1.79512 17.9161C1.81758 17.9161 3.33016 18.3429 5.16471 18.8745ZM32.7579 21.4579C32.8702 21.6301 32.8702 21.6825 32.7279 22.1618C32.5407 22.7758 32.4209 22.9031 32.1364 22.8057C31.8818 22.7159 31.8444 22.4837 32.0091 21.9221C32.1963 21.2782 32.5108 21.0835 32.7579 21.4579Z" fill="#239571"/>
</svg>
