<svg xmlns="http://www.w3.org/2000/svg" width="12" height="15" viewBox="0 0 12 15" fill="none">
<path d="M5.29757 0.756955C3.36983 0.933032 1.8064 2.3295 1.38139 4.25723C1.30246 4.61849 1.28424 5.43209 1.35103 5.79638C1.62729 7.33857 2.93268 9.64881 4.91809 12.1199C5.32792 12.63 5.419 12.715 5.58293 12.7423C5.86526 12.7878 5.96544 12.7119 6.4876 12.0592C8.4548 9.59417 9.72983 7.32339 10.0031 5.79638C10.0698 5.43209 10.0516 4.61849 9.97269 4.25723C9.59929 2.55415 8.33033 1.24572 6.67885 0.860172C6.23563 0.756955 5.72258 0.71749 5.29757 0.756955ZM6.06562 3.41328C6.33884 3.46489 6.69707 3.66525 6.92172 3.89294C7.46816 4.44849 7.58959 5.24994 7.23441 5.93906C6.946 6.49462 6.29027 6.89838 5.67704 6.89838C5.06381 6.89838 4.40808 6.49462 4.11968 5.93906C3.76449 5.24994 3.88896 4.43634 4.43236 3.89294C4.87255 3.44971 5.42203 3.28881 6.06562 3.41328Z" fill="black"/>
<path d="M2.06434 10.3258C0.701269 10.7963 0 11.4551 0 12.2565C0 13.0975 0.810558 13.7957 2.30721 14.242C4.44137 14.8795 7.37395 14.8339 9.38972 14.1327C10.8773 13.6166 11.5755 12.7848 11.2932 11.868C11.105 11.2608 10.4948 10.772 9.42615 10.3744C9.04972 10.2347 8.83114 10.2104 8.68238 10.2924C8.47291 10.4077 8.3697 10.6567 8.43952 10.8844C8.4972 11.0756 8.60042 11.1546 8.96168 11.279C9.75706 11.5522 10.3521 11.9651 10.3521 12.2414C10.3521 12.4842 9.94831 12.8212 9.34722 13.0762C7.35574 13.9323 3.64903 13.8837 1.8063 12.9821C1.32968 12.7483 1.00181 12.4478 1.00181 12.2444C1.00181 11.9681 1.5604 11.5765 2.34667 11.2942C2.76258 11.1485 2.81419 11.1151 2.88704 10.9572C2.95687 10.7963 2.9599 10.681 2.88704 10.5231C2.75954 10.2408 2.49239 10.177 2.06434 10.3258Z" fill="black"/>
</svg>
