<svg width="27" height="32" viewBox="0 0 27 32" fill="none" xmlns="http://www.w3.org/2000/svg">
<path d="M12.1526 0.0351486C7.73018 0.439083 4.14353 3.64269 3.16851 8.06507C2.98744 8.89383 2.94565 10.7603 3.09887 11.596C3.73263 15.1339 6.72731 20.4338 11.282 26.1028C12.2222 27.2728 12.4311 27.4678 12.8072 27.5305C13.4549 27.6349 13.6847 27.4608 14.8826 25.9635C19.3955 20.3084 22.3205 15.0991 22.9473 11.596C23.1005 10.7603 23.0588 8.89383 22.8777 8.06507C22.0211 4.15806 19.11 1.15641 15.3213 0.271938C14.3045 0.0351486 13.1276 -0.0553875 12.1526 0.0351486ZM13.9145 6.12897C14.5413 6.24737 15.3631 6.70702 15.8785 7.22934C17.1321 8.50382 17.4107 10.3424 16.5958 11.9233C15.9342 13.1978 14.4299 14.1241 13.0231 14.1241C11.6163 14.1241 10.112 13.1978 9.45038 11.9233C8.63554 10.3424 8.92108 8.47597 10.1677 7.22934C11.1775 6.21255 12.4381 5.84343 13.9145 6.12897Z" fill="#346652"/>
<path d="M4.73577 21.9872C1.60877 23.0667 0 24.5779 0 26.4165C0 28.3457 1.85949 29.9475 5.29292 30.9712C10.1889 32.4338 16.9165 32.3293 21.5408 30.7205C24.9533 29.5366 26.5551 27.6283 25.9075 25.5251C25.4757 24.1322 24.0758 23.011 21.6244 22.0986C20.7608 21.7783 20.2594 21.7226 19.9181 21.9106C19.4376 22.1752 19.2008 22.7463 19.361 23.2686C19.4933 23.7074 19.7301 23.8885 20.5588 24.174C22.3835 24.8008 23.7485 25.748 23.7485 26.3817C23.7485 26.9389 22.8222 27.7119 21.4433 28.2969C16.8747 30.2609 8.37117 30.1494 4.1438 28.081C3.05039 27.5448 2.29824 26.8553 2.29824 26.3887C2.29824 25.7549 3.57969 24.8565 5.38346 24.2088C6.33758 23.8745 6.45597 23.7979 6.62312 23.4358C6.7833 23.0667 6.79026 22.802 6.62312 22.4399C6.33061 21.7922 5.71775 21.6459 4.73577 21.9872Z" fill="#346652"/>
</svg>
