<svg width="19" height="23" viewBox="0 0 19 23" fill="none" xmlns="http://www.w3.org/2000/svg">
<path d="M8.42029 0.0236511C5.3561 0.30353 2.87098 2.52326 2.19541 5.58744C2.06995 6.16168 2.04099 7.45491 2.14715 8.03397C2.58627 10.4853 4.66123 14.1575 7.8171 18.0855C8.46854 18.8961 8.61331 19.0313 8.87389 19.0747C9.32266 19.1471 9.4819 19.0264 10.3119 17.989C13.4388 14.0707 15.4655 10.4612 15.8998 8.03397C16.006 7.45491 15.977 6.16168 15.8515 5.58744C15.258 2.88034 13.241 0.800556 10.6159 0.187719C9.91137 0.0236511 9.09586 -0.0390797 8.42029 0.0236511ZM9.64114 4.24596C10.0754 4.32799 10.6448 4.64647 11.0019 5.00838C11.8705 5.89145 12.0635 7.16538 11.499 8.26076C11.0405 9.14383 9.99823 9.78562 9.02348 9.78562C8.04873 9.78562 7.00642 9.14383 6.548 8.26076C5.98342 7.16538 6.18126 5.87215 7.04503 5.00838C7.74472 4.30386 8.61813 4.04811 9.64114 4.24596Z" fill="#239571"/>
<path d="M3.28133 15.2341C1.11469 15.9821 0 17.0292 0 18.3032C0 19.6398 1.28841 20.7497 3.66737 21.459C7.05969 22.4724 11.7211 22.4 14.9252 21.2853C17.2897 20.465 18.3996 19.1428 17.9508 17.6855C17.6516 16.7204 16.6817 15.9435 14.9831 15.3114C14.3848 15.0894 14.0374 15.0508 13.8009 15.1811C13.4679 15.3644 13.3039 15.7601 13.4149 16.122C13.5065 16.426 13.6706 16.5515 14.2448 16.7493C15.5091 17.1836 16.4549 17.8399 16.4549 18.279C16.4549 18.6651 15.8131 19.2007 14.8577 19.606C11.6922 20.9668 5.80024 20.8896 2.87117 19.4564C2.11356 19.0849 1.59241 18.6072 1.59241 18.2839C1.59241 17.8447 2.4803 17.2222 3.7301 16.7735C4.3912 16.5419 4.47323 16.4888 4.58904 16.2378C4.70003 15.9821 4.70485 15.7987 4.58904 15.5478C4.38637 15.099 3.96173 14.9977 3.28133 15.2341Z" fill="#239571"/>
</svg>
