<svg width="38" height="38" viewBox="0 0 38 38" fill="none" xmlns="http://www.w3.org/2000/svg">
<circle cx="19" cy="19" r="19" fill="white"/>
<path d="M18.0192 6.01054C17.5101 6.07163 16.721 6.204 16.3391 6.29055C14.0176 6.82511 11.8539 8.0266 10.179 9.70666C7.20577 12.69 5.88209 16.88 6.61012 21.0292C7.48069 26.0083 11.1615 29.9793 16.0591 31.2317C17.2454 31.5372 17.8563 31.6084 19.2156 31.6135C20.4476 31.6135 20.9262 31.5677 21.9393 31.3539C23.8943 30.9415 25.7984 30.0302 27.3715 28.7676C27.9061 28.3349 28.7664 27.4745 29.1992 26.9399C29.5963 26.4461 30.416 25.2344 30.3803 25.1937C30.365 25.1784 30.1919 25.2701 30.0036 25.3922C28.9548 26.0694 27.6617 26.553 26.2922 26.7821C25.6202 26.8941 24.1896 26.8992 23.4921 26.7872C21.9851 26.5428 20.7633 26.0643 19.4905 25.2191C18.9967 24.8882 18.7014 24.6388 18.121 24.0584C17.2708 23.2082 16.8533 22.6431 16.3646 21.7012C15.9828 20.9681 15.7231 20.2808 15.5449 19.5477C14.4096 14.8741 16.9297 10.0834 21.4455 8.33716C22.199 8.04697 23.0339 7.85351 24.0674 7.73641L24.3321 7.70587V8.59171V9.48265L24.1794 9.54374C23.9859 9.6252 23.6957 9.94085 23.5939 10.1852C23.4208 10.6027 23.543 11.2594 23.8536 11.5853L23.9808 11.7176L23.7721 11.8856C23.5583 12.0536 23.263 12.5017 23.263 12.6595C23.263 12.746 23.3699 12.7511 24.8158 12.7511C25.8493 12.7511 26.3686 12.7358 26.3686 12.7002C26.3686 12.5577 26.0936 12.13 25.8747 11.9365L25.6304 11.7176L25.7627 11.5751C26.3227 10.9743 26.1802 9.97648 25.4776 9.56411L25.2485 9.43174V8.57644V7.71605L25.4929 7.70078L25.7322 7.6855L24.9431 7.29349C23.7925 6.7182 22.647 6.34655 21.3539 6.12254C20.8702 6.04109 20.4782 6.01563 19.4702 6.00545C18.7727 5.99527 18.1159 6.00036 18.0192 6.01054ZM25.0907 10.4398C25.2332 10.618 25.2231 10.7911 25.0703 10.9438C24.8005 11.2187 24.3983 11.0049 24.4289 10.5976C24.4492 10.3125 24.9023 10.2056 25.0907 10.4398Z" fill="black"/>
<path d="M30.0997 6.46367C29.8401 6.64695 29.8197 7.41061 30.0692 7.60916C30.2525 7.75171 30.5172 7.74153 30.6699 7.58371C30.7819 7.47171 30.7972 7.42079 30.7972 7.04915C30.7972 6.6775 30.7819 6.62659 30.6699 6.51458C30.5274 6.36694 30.2677 6.34658 30.0997 6.46367Z" fill="black"/>
<path d="M28.8628 7.72132C28.5777 7.87406 28.5471 8.27625 28.8017 8.47989C28.9188 8.57153 28.9952 8.58171 29.3363 8.56644C29.6825 8.55117 29.7537 8.53589 29.8352 8.42898C29.9625 8.27625 29.9625 7.9606 29.8352 7.80787C29.7537 7.70605 29.6875 7.68569 29.3668 7.67041C29.1224 7.66023 28.9442 7.6806 28.8628 7.72132Z" fill="black"/>
<path d="M31.001 7.72132C30.7159 7.87406 30.6853 8.27625 30.9399 8.47989C31.057 8.57153 31.1333 8.58171 31.4744 8.56644C31.8206 8.55117 31.8919 8.53589 31.9734 8.42898C32.1006 8.27625 32.1006 7.9606 31.9734 7.80787C31.8919 7.70605 31.8257 7.68569 31.505 7.67041C31.2606 7.66023 31.0824 7.6806 31.001 7.72132Z" fill="black"/>
<path d="M30.0997 8.60161C29.8401 8.78489 29.8197 9.54855 30.0692 9.7471C30.2525 9.88965 30.5172 9.87947 30.6699 9.72165C30.7819 9.60964 30.7972 9.55873 30.7972 9.18709C30.7972 8.81544 30.7819 8.76453 30.6699 8.65252C30.5274 8.50488 30.2677 8.48452 30.0997 8.60161Z" fill="black"/>
<path d="M31.3321 12.929C30.996 13.2599 31.3524 13.8352 31.7902 13.6672C31.9888 13.5908 32.0652 13.4737 32.0703 13.2446C32.0703 12.8475 31.607 12.649 31.3321 12.929Z" fill="black"/>
<path d="M21.8167 14.2019C21.3788 14.5531 21.0225 14.8535 21.0225 14.8637C21.0225 14.879 21.4756 14.8892 22.0356 14.8892H23.0436L23.3185 14.2731C23.4713 13.932 23.6036 13.6317 23.6087 13.6113C23.6189 13.5858 23.4 13.5655 23.12 13.5655H22.6109L21.8167 14.2019Z" fill="black"/>
<path d="M24.4385 13.6778C24.4131 13.744 24.2858 14.0342 24.1585 14.3244C24.0312 14.6146 23.9243 14.859 23.9243 14.8692C23.9243 14.9099 25.6553 14.8895 25.6553 14.8488C25.6553 14.8284 25.5382 14.5331 25.3905 14.187L25.1258 13.5658H24.8051C24.5149 13.5658 24.4792 13.576 24.4385 13.6778Z" fill="black"/>
<path d="M26.0112 13.6013C26.0112 13.6267 26.1334 13.9169 26.2811 14.2529L26.5509 14.8638L27.5589 14.8791C28.1698 14.8842 28.5568 14.874 28.5466 14.8435C28.5415 14.818 28.1851 14.5177 27.7626 14.1816L26.9887 13.5656H26.5C26.2301 13.5656 26.0112 13.5809 26.0112 13.6013Z" fill="black"/>
<path d="M21.4908 18.4888C21.9642 20.0263 22.3817 21.4009 22.4275 21.5434L22.5039 21.8132H23.0639H23.6188L23.5934 21.6198C23.5679 21.4569 22.957 15.7854 22.957 15.7243C22.957 15.7141 22.4326 15.704 21.7911 15.704H20.6304L21.4908 18.4888Z" fill="black"/>
<path d="M23.7766 15.8155C23.7766 15.8817 23.9191 17.2511 24.0922 18.8599L24.413 21.7873L24.805 21.8026C25.0188 21.8127 25.197 21.8077 25.197 21.7924C25.197 21.7364 25.8079 16.07 25.8334 15.8918L25.8588 15.7035H24.8152H23.7715L23.7766 15.8155Z" fill="black"/>
<path d="M26.6476 15.815C26.6222 15.9321 26.0112 21.629 26.0112 21.7512C26.0112 21.8021 26.1436 21.8123 26.556 21.8021L27.1058 21.7868L28.0069 18.8595C28.5008 17.2507 28.9182 15.8812 28.9386 15.815L28.9641 15.703H27.8186H26.6731L26.6476 15.815Z" fill="black"/>
<path d="M17.6781 18.0192C17.5253 18.1261 17.4795 18.396 17.5813 18.5945C17.6679 18.7625 17.7544 18.8083 17.9682 18.8083C18.1821 18.8083 18.2686 18.7625 18.3552 18.5945C18.457 18.396 18.4112 18.1261 18.2584 18.0192C18.1973 17.9785 18.0701 17.9429 17.9682 17.9429C17.8664 17.9429 17.7391 17.9785 17.6781 18.0192Z" fill="black"/>
<path d="M22.1018 23.2636C21.9287 23.6149 21.7861 23.9102 21.7861 23.9255C21.7861 23.9407 23.1404 23.9509 24.7899 23.9509C26.7907 23.9509 27.7936 23.9357 27.7936 23.9C27.7936 23.8695 27.6561 23.5742 27.4881 23.2382L27.1827 22.6272H24.8H22.4225L22.1018 23.2636Z" fill="black"/>
<path d="M7.58232 28.6201C7.54159 28.6354 7.45504 28.6965 7.39395 28.7525C7.29213 28.8441 7.27686 28.9052 7.27686 29.2718C7.27686 29.6434 7.28704 29.6994 7.39904 29.8012C7.57214 29.9641 7.85724 29.9591 8.02524 29.7961C8.17288 29.6434 8.22889 29.2616 8.14234 28.951C8.09652 28.7728 8.0507 28.7168 7.91324 28.6557C7.72487 28.5794 7.69941 28.5794 7.58232 28.6201Z" fill="black"/>
<path d="M6.11585 30.0253C5.95803 30.1933 5.96312 30.514 6.12094 30.6617C6.22277 30.7584 6.29913 30.7737 6.65041 30.7737C7.04752 30.7737 7.06788 30.7686 7.19516 30.6159C7.34789 30.4377 7.35807 30.3206 7.25116 30.1169C7.15443 29.9286 7.09334 29.9082 6.61987 29.9082C6.27368 29.9082 6.21258 29.9235 6.11585 30.0253Z" fill="black"/>
<path d="M8.25404 30.0253C8.09621 30.1933 8.1013 30.514 8.25913 30.6617C8.36095 30.7584 8.43731 30.7737 8.78351 30.7737C9.14497 30.7737 9.20607 30.7584 9.3028 30.6566C9.45553 30.4937 9.48607 30.3053 9.39444 30.122C9.29261 29.9286 9.23661 29.9082 8.75805 29.9082C8.41186 29.9082 8.35077 29.9235 8.25404 30.0253Z" fill="black"/>
<path d="M7.58232 30.7581C7.54159 30.7734 7.45504 30.8345 7.39395 30.8905C7.29213 30.9821 7.27686 31.0432 7.27686 31.3843C7.27686 31.8934 7.37868 32.0461 7.70451 32.0461C7.98961 32.0461 8.13725 31.8985 8.17288 31.5574C8.23907 30.9974 7.96415 30.6206 7.58232 30.7581Z" fill="black"/>
</svg>
