<svg xmlns="http://www.w3.org/2000/svg" width="36" height="49" viewBox="0 0 36 49" fill="none">
<path d="M16.029 0.112175C12.3436 0.530521 8.82748 2.09434 6.00863 4.56456C3.17982 7.04475 1.04825 10.77 0.291241 14.5949C-0.0175377 16.1288 -0.0972226 18.7385 0.131871 19.9736C0.918759 24.1969 3.64796 29.7151 8.66811 37.2055C10.8893 40.5323 13.6086 44.2675 15.9294 47.1959C16.8258 48.3315 17.2243 48.6104 18.0211 48.6104C19.0471 48.6104 19.2363 48.4211 22.354 44.2775C29.7945 34.3866 34.6254 25.8902 35.751 20.7406C35.9602 19.7744 35.9402 19.5652 35.6315 19.4656C35.3127 19.366 35.2032 19.5852 34.8745 20.89C33.46 26.458 28.3303 35.1735 20.322 45.5823C18.6187 47.8035 18.2801 48.0526 17.5231 47.6641C16.8856 47.3354 12.1643 40.9905 8.97689 36.1895C4.76355 29.8247 2.24352 24.924 1.16777 20.9398C0.858995 19.8142 0.849035 19.7146 0.849035 17.7823C0.849035 16.089 0.878916 15.6308 1.07813 14.7443C2.23356 9.36558 5.58032 5.01279 10.4013 2.61229C16.6665 -0.505383 24.1568 0.490677 29.436 5.1622C32.8325 8.16034 35.0139 12.6028 35.2231 16.9356C35.2928 18.2604 35.3526 18.4496 35.7311 18.4098L36 18.3799L35.99 17.085C35.9602 12.6924 33.6593 7.82168 30.1232 4.66417C26.2585 1.20784 21.079 -0.465538 16.029 0.112175Z" fill="#3D7761"/>
<path d="M15.7798 2.93107C12.4729 3.4789 9.78355 4.8435 7.45277 7.17429C5.72958 8.89747 4.52435 10.8398 3.79723 13.1008C3.42868 14.2264 3.15975 15.6109 3.19959 16.1089C3.22947 16.4376 3.26931 16.4874 3.49841 16.5173C3.83707 16.5572 3.87691 16.4675 4.16577 14.9535C5.29132 9.07676 10.2218 4.49488 16.2978 3.67811C17.6026 3.50878 19.8139 3.61835 21.1486 3.92713C26.597 5.20209 30.7008 9.42538 31.926 15.0432C32.0754 15.7006 32.1152 16.3082 32.1152 17.7325C32.1152 19.7446 32.0056 20.4717 31.4479 22.165C30.412 25.3424 28.1011 28.2011 25.1528 29.9343C24.6448 30.2331 24.1069 30.5219 23.9674 30.5717L23.6985 30.6813V27.1154V23.5595L24.0571 23.3603C24.6348 23.0515 25.4615 22.1451 25.7902 21.4877C26.368 20.2924 26.368 18.9876 25.8002 17.7724C25.2524 16.597 24.6647 16.1587 21.0988 14.2563C20.4414 13.8977 19.8438 13.4793 19.3856 13.0411L18.6684 12.3837L18.9672 12.2243C20.0729 11.6566 20.3517 10.1027 19.5051 9.20625C19.3158 9.00704 19.3158 9.00704 19.7442 8.55881C20.3617 7.90141 20.6008 6.98503 20.2023 6.77586C20.033 6.67626 19.9234 6.70614 19.6047 6.91531C19.3955 7.05476 19.0868 7.17429 18.9174 7.17429C17.9214 7.17429 17.4034 6.09854 18.011 5.31165C18.4792 4.72398 18.1305 4.38532 17.2938 4.62437C15.9193 5.02279 15.242 6.58661 15.8695 7.92133C15.999 8.20023 16.248 8.54885 16.4173 8.69826C16.7261 8.94727 16.736 8.97715 16.5667 9.13652C16.2978 9.40546 16.0288 10.0728 16.0288 10.4912C16.0288 11.1984 16.4572 11.9056 17.0747 12.2243L17.3735 12.3837L16.6663 13.0411C16.2081 13.4694 15.6005 13.8977 14.9232 14.2662C11.2577 16.2484 10.7896 16.597 10.2417 17.7624C9.66402 19.0075 9.66402 20.2725 10.2517 21.4877C10.5804 22.1451 11.4071 23.0515 11.9848 23.3603L12.3434 23.5595V27.1154V30.6813L12.0745 30.5717C11.935 30.5219 11.3972 30.2331 10.8892 29.9343C6.80533 27.5238 4.18569 23.2706 3.89683 18.5493C3.83707 17.7126 3.79723 17.4835 3.65778 17.3939C3.52829 17.3142 3.42868 17.3142 3.30916 17.3939C3.14979 17.4935 3.12987 17.6628 3.13983 18.5891C3.15975 20.4717 3.69762 22.5435 4.68372 24.4759C5.4208 25.9301 6.19773 27.0058 7.36312 28.2011C9.45485 30.3227 11.8255 31.6475 14.7937 32.3348C15.8794 32.5937 16.1484 32.6137 17.9712 32.6137C19.5151 32.6236 20.1525 32.5838 20.8099 32.4443C25.083 31.5479 28.619 29.0976 30.7805 25.5317C31.7068 24.0077 32.2845 22.5535 32.683 20.7506C32.9918 19.3262 33.0017 16.1289 32.683 14.7244C32.2347 12.6725 31.3781 10.7103 30.2526 9.1166C29.4458 7.97113 27.7824 6.30771 26.6369 5.5009C25.0631 4.38532 23.071 3.51874 21.0789 3.08048C19.8936 2.8215 16.9651 2.73186 15.7798 2.93107ZM17.2341 7.11452C17.5628 7.59263 18.0409 7.88149 18.6385 7.96117L19.1664 8.0309L18.8178 8.25003C18.1206 8.6883 17.2241 8.46916 16.6862 7.74204C16.3974 7.35358 16.3974 6.44716 16.6763 6.02882L16.8755 5.73996L16.9353 6.25791C16.9751 6.54677 17.1046 6.93523 17.2341 7.11452ZM18.3995 9.37558C18.4891 9.38554 18.3895 9.42538 18.1704 9.47519C17.7022 9.58475 17.254 9.97322 17.0548 10.4513C16.9751 10.6306 16.8855 10.7601 16.8556 10.7302C16.756 10.6207 16.9253 9.98318 17.1345 9.7242C17.3337 9.46522 17.8616 9.24609 18.1007 9.32578C18.1803 9.3457 18.3098 9.36562 18.3995 9.37558ZM18.4792 13.3499C19.1664 14.077 19.6545 14.4057 21.6566 15.4914C23.8479 16.6767 24.1965 16.9158 24.6846 17.5333C25.8699 19.0274 25.5711 21.1889 24.0073 22.3742L23.569 22.7128H18.021H12.4729L12.0346 22.3742C10.4708 21.1889 10.172 19.0374 11.3573 17.5333C11.8454 16.9158 12.194 16.6767 14.3853 15.4914C16.3376 14.4356 16.9651 14.0172 17.5727 13.32C17.7919 13.071 17.9811 12.8618 17.9911 12.8618C18.001 12.8518 18.2202 13.0809 18.4792 13.3499ZM15.6802 27.0955C15.6802 28.9183 15.6703 29.0378 15.491 29.0677C15.3914 29.0876 15.2718 29.0478 15.222 28.9681C15.1722 28.8984 15.1324 28.0517 15.1324 27.0855C15.1324 25.3026 15.1822 25.0635 15.5308 25.1233C15.6603 25.1532 15.6802 25.442 15.6802 27.0955ZM20.79 25.2229C20.9295 25.3623 20.9593 28.7589 20.8199 28.9681C20.7701 29.0478 20.6506 29.0876 20.551 29.0677C20.3717 29.0378 20.3617 28.9083 20.3318 27.1951C20.3219 26.1891 20.3318 25.3026 20.3517 25.2329C20.4215 25.0735 20.6306 25.0635 20.79 25.2229Z" fill="#3D7761"/>
</svg>