<svg xmlns="http://www.w3.org/2000/svg" width="15" height="14" viewBox="0 0 15 14" fill="none">
<path d="M7.5 7.4375C8.66032 7.4375 9.77312 7.89844 10.5936 8.71891C11.4141 9.53938 11.875 10.6522 11.875 11.8125H3.125C3.125 10.6522 3.58594 9.53938 4.40641 8.71891C5.22688 7.89844 6.33968 7.4375 7.5 7.4375ZM7.5 7.4375V5.6875M7.5 2.1875C7.15388 2.1875 6.81554 2.29014 6.52775 2.48243C6.23997 2.67472 6.01567 2.94803 5.88321 3.2678C5.75076 3.58757 5.7161 3.93944 5.78363 4.27891C5.85115 4.61837 6.01782 4.9302 6.26256 5.17494C6.50731 5.41968 6.81913 5.58635 7.15859 5.65387C7.49806 5.7214 7.84993 5.68674 8.1697 5.55429C8.48947 5.42184 8.76278 5.19753 8.95507 4.90975C9.14737 4.62196 9.25 4.28362 9.25 3.9375" stroke="#828282" stroke-linecap="round" stroke-linejoin="round"/>
</svg>
