<svg width="93" height="93" viewBox="0 0 93 93" fill="none" xmlns="http://www.w3.org/2000/svg">
<path d="M23.25 0C10.4094 0 0 10.4094 0 23.25C0 36.0908 10.4094 46.5 23.25 46.5C10.4094 46.5 0 56.9092 0 69.75C0 82.5908 10.4094 93 23.25 93C36.0908 93 46.5 82.5908 46.5 69.75C46.5 82.5908 56.9092 93 69.75 93C82.5908 93 93 82.5908 93 69.75C93 56.9092 82.5908 46.5 69.75 46.5C82.5908 46.5 93 36.0908 93 23.25C93 10.4094 82.5908 0 69.75 0C56.9092 0 46.5 10.4094 46.5 23.25C46.5 10.4094 36.0908 0 23.25 0Z" fill="black" fill-opacity="0.1"/>
<path d="M55.0249 24.7152C53.2417 25.2161 51.9794 26.6487 51.6889 28.472C51.3984 30.3654 52.4302 32.349 54.1433 33.1805C56.7981 34.4729 59.8437 33.0703 60.585 30.2152C61.2061 27.8509 59.7435 25.3463 57.3792 24.7352C56.6779 24.5449 55.6561 24.5449 55.0249 24.7152Z" fill="#239371"/>
<path d="M40.6286 33.2278C40.0075 33.4281 39.4064 33.8188 38.9355 34.3097C38.3645 34.9008 23.6979 55.8287 23.3173 56.57C23.0568 57.081 23.0067 57.3114 22.9867 58.1028C22.9165 59.9462 23.718 61.2986 25.361 62.08L26.0222 62.3906L41.5503 62.4206C53.1914 62.4407 57.2187 62.4206 57.6294 62.3305C58.8717 62.07 59.9035 61.2385 60.4645 60.0564C60.7651 59.4252 60.7851 59.315 60.7851 58.2831C60.7751 57.3615 60.745 57.101 60.5647 56.7003C60.2642 56.0591 45.3972 34.8707 44.8162 34.2596C44.5557 33.9891 44.0648 33.6385 43.7142 33.4582C43.1331 33.1777 42.9628 33.1376 42.0612 33.1176C41.41 33.0975 40.8991 33.1376 40.6286 33.2278Z" fill="#239371"/>
<path d="M59.8936 43.5588C59.6832 43.6289 59.3526 43.8192 59.1523 43.9795C58.8217 44.25 56.3271 47.6662 56.3271 47.8465C56.3271 47.8866 57.4893 49.5797 58.9018 51.5933C60.3144 53.617 61.5967 55.4904 61.747 55.7809C62.328 56.8328 62.5083 58.4557 62.1878 59.6679C62.0074 60.3592 61.5366 61.3109 61.1559 61.7617C60.5147 62.5231 59.9738 62.453 65.9045 62.4229C71.154 62.3929 71.2041 62.3929 71.6148 62.1725C72.1558 61.882 72.787 61.1606 72.9372 60.6597C73.1276 60.0186 73.0875 59.147 72.827 58.616C72.7068 58.3656 70.4026 55.0095 67.6977 51.1726C63.981 45.873 62.6987 44.1198 62.3881 43.9094C61.6668 43.4185 60.685 43.2783 59.8936 43.5588Z" fill="#239371"/>
</svg>
