<svg width="32" height="17" viewBox="0 0 32 17" fill="none" xmlns="http://www.w3.org/2000/svg">
<path d="M15.2107 0.157969C14.9266 0.306154 14.6303 0.639572 12.0926 3.76382L9.2956 7.20913L8.85722 7.17826C8.35709 7.14739 8.05454 7.22766 7.78287 7.44993C7.68408 7.53638 6.17135 9.45044 4.41782 11.7041L1.23183 15.7977L0.744056 15.8162C0.379767 15.8348 0.231581 15.8718 0.132791 15.9583C-0.0400923 16.1188 -0.0462666 16.5016 0.126616 16.6745C0.250104 16.798 0.330371 16.798 15.8096 16.798C31.2888 16.798 31.3691 16.798 31.4926 16.6745C31.5728 16.5942 31.616 16.4707 31.616 16.3164C31.616 15.9583 31.4617 15.8533 30.8875 15.8101L30.4182 15.7792L26.9791 10.0494C25.0897 6.89424 23.4782 4.2516 23.4041 4.17133C23.33 4.09106 23.1262 3.96757 22.9534 3.89348C22.4841 3.68973 22.0396 3.73912 21.3727 4.07871L20.8541 4.33804L18.7795 2.26344C17.3841 0.868025 16.6308 0.164145 16.4764 0.0962257C16.1121 -0.05196 15.5811 -0.0272617 15.2107 0.157969ZM18.1373 3.04141L20.1934 5.09749L20.0699 5.5297C19.897 6.12861 20.0144 6.42498 20.4219 6.42498C20.7738 6.42498 20.8541 6.33854 21.027 5.78902L21.1875 5.27655L21.7123 5.01722C22.2865 4.7332 22.4656 4.70233 22.6508 4.86286C22.7187 4.92461 24.2315 7.41289 26.0159 10.3889L29.2636 15.8101H27.8188H26.3802L23.0769 12.939L19.7736 10.0679L20.0514 9.15407C20.4219 7.93154 20.4404 7.77718 20.2366 7.57342C20.0452 7.38202 19.7736 7.36349 19.5821 7.51785C19.4957 7.59195 19.3722 7.89449 19.2117 8.45019C19.0758 8.90709 18.9585 9.28373 18.9462 9.30225C18.9338 9.3146 18.1867 8.68481 17.2914 7.90684C16.39 7.12269 15.5564 6.43733 15.4391 6.37559C15.1489 6.23358 14.4327 6.23358 14.1548 6.38176C14.0437 6.44351 13.4633 6.90041 12.8582 7.40671L11.7592 8.32052L11.0553 8.01798C10.6663 7.85127 10.3267 7.69691 10.302 7.67221C10.2588 7.62899 15.4885 1.1397 15.6429 1.04091C15.6861 1.01621 15.7972 0.991513 15.9022 0.991513C16.0566 0.991513 16.3591 1.26319 18.1373 3.04141ZM15.0687 7.33262C15.1798 7.41289 24.4167 15.4149 24.7933 15.7545C24.8242 15.7854 22.8731 15.8039 20.2305 15.7977L15.6182 15.7792L14.0437 12.4142C12.7965 9.74681 12.4939 9.03675 12.5495 8.98118C13.0373 8.51811 14.6735 7.22766 14.7846 7.22766C14.8587 7.22766 14.9822 7.27705 15.0687 7.33262ZM10.16 8.71569L11.4752 9.27756L12.9941 12.5315L14.5068 15.7792L10.4255 15.7977C8.17803 15.8039 6.33189 15.8039 6.31954 15.7915C6.30719 15.7792 6.75175 14.9518 7.31362 13.9516C7.86931 12.9513 8.34474 12.0684 8.36944 11.9881C8.46205 11.6979 8.18421 11.3645 7.84461 11.3645C7.78287 11.3645 7.65938 11.4262 7.57911 11.5003C7.49267 11.5806 6.91845 12.5562 6.30101 13.6799C5.68358 14.7975 5.15875 15.736 5.13405 15.7668C5.10936 15.7915 4.51044 15.8039 3.80656 15.7977L2.52228 15.7792L5.37486 12.1054C6.94315 10.0864 8.28917 8.36992 8.35709 8.28965C8.43118 8.20938 8.55467 8.15382 8.65963 8.15382C8.75842 8.15382 9.43143 8.40697 10.16 8.71569Z" fill="black"/>
</svg>
