<svg width="19" height="21" viewBox="0 0 19 21" fill="none" xmlns="http://www.w3.org/2000/svg">
<path d="M6.95203 1.77041C7.29087 0.742202 8.25919 0 9.40086 0C10.5425 0 11.5109 0.742202 11.8497 1.77041C14.1943 2.73434 15.8452 5.04096 15.8452 7.73315V12.8886L18.6116 15.655C19.0176 16.061 18.73 16.7552 18.1558 16.7552H0.645726C0.0716035 16.7552 -0.215928 16.061 0.190037 15.655L2.95657 12.8886V7.73315C2.95657 5.04096 4.60745 2.73434 6.95203 1.77041Z" fill="#239371"/>
<path d="M6.82324 18.0439C6.82324 19.4676 7.97729 20.6217 9.40096 20.6217C10.8246 20.6217 11.9787 19.4676 11.9787 18.0439H6.82324Z" fill="#239371"/>
</svg>
