<svg width="28" height="28" viewBox="0 0 28 28" fill="none" xmlns="http://www.w3.org/2000/svg">
<rect x="0.5" y="0.5" width="27" height="27" rx="13.5" stroke="#346652"/>
<path d="M6.74138 7.05247C6.34031 7.17588 6.09658 7.46589 6.01636 7.91633C5.97625 8.13229 6.01328 8.93753 6.09041 9.61011C6.62415 14.204 9.30519 18.1839 13.3252 20.3466C14.5161 20.9852 15.8736 21.4727 17.191 21.7319C18.3788 21.9663 19.8566 22.0712 20.2669 21.9478C20.5878 21.8522 20.8006 21.6578 20.921 21.3493C21.0135 21.1087 21.0567 19.89 21.0197 18.7022L20.9888 17.8353L20.8839 17.6285C20.6865 17.2398 20.4119 17.1071 19.6067 16.9992C18.9403 16.9097 18.6132 16.8572 17.7525 16.6999C16.5801 16.487 16.4351 16.5117 15.8921 16.9961C15.744 17.1257 15.4355 17.3817 15.2072 17.5638C14.9789 17.7427 14.7074 17.9679 14.6056 18.0605L14.4205 18.2271L14.2199 18.1191C13.9299 17.9587 13.0105 17.3478 12.7236 17.1195C11.4525 16.1199 10.4837 14.9845 9.61371 13.4759L9.53041 13.3309L9.62913 13.2167C9.68467 13.155 9.90989 12.9637 10.132 12.794C10.9928 12.1276 11.2273 11.9024 11.3538 11.6124C11.4648 11.3687 11.4648 11.1095 11.3538 10.4894C11.3013 10.1932 11.1902 9.48978 11.1039 8.93136C11.0175 8.36985 10.9249 7.8392 10.8972 7.74664C10.7923 7.40727 10.5393 7.14194 10.2338 7.04939C9.99936 6.98151 6.96969 6.9846 6.74138 7.05247Z" fill="#346652"/>
</svg>
