<svg width="25" height="25" viewBox="0 0 25 25" fill="none" xmlns="http://www.w3.org/2000/svg">
<path fill-rule="evenodd" clip-rule="evenodd" d="M18.8195 12.9061L7.03927 20.2822C6.9463 20.3403 6.83923 20.3727 6.72925 20.376C6.61927 20.3794 6.51039 20.3535 6.41397 20.3012C6.31756 20.2488 6.23713 20.1719 6.18109 20.0784C6.12504 19.9849 6.09543 19.8783 6.09534 19.7697L6.11586 4.98248C6.11603 4.87375 6.14578 4.76707 6.202 4.67357C6.25821 4.58007 6.33883 4.50319 6.43543 4.45097C6.53203 4.39874 6.64107 4.37308 6.75115 4.37667C6.86123 4.38026 6.96831 4.41297 7.06121 4.47138L18.8221 11.8825C18.9091 11.9375 18.9807 12.0133 19.0303 12.1028C19.0798 12.1923 19.1057 12.2927 19.1056 12.3947C19.1054 12.4967 19.0793 12.5971 19.0295 12.6865C18.9797 12.7758 18.9079 12.8514 18.8207 12.9062L18.8195 12.9061Z" stroke="#346652" stroke-width="2" stroke-linecap="round"/>
</svg>
