<svg xmlns="http://www.w3.org/2000/svg" width="53" height="53" viewBox="0 0 53 53" fill="none">
  <path d="M17.3194 11.1988L11.0288 17.6097L9.90021 10.2105L17.3194 11.1988Z" fill="black"/>
  <path d="M41.8946 35.3129L35.604 41.7238L43.0232 42.7121L41.8946 35.3129Z" fill="black"/>
  <path d="M9.20542 22.1335L9.29043 31.1145L3.26074 26.6807L9.20542 22.1335Z" fill="black"/>
  <path d="M43.634 21.8078L43.7191 30.7888L49.6637 26.2416L43.634 21.8078Z" fill="black"/>
  <path d="M11.1991 35.6035L17.61 41.8941L10.2108 43.0227L11.1991 35.6035Z" fill="black"/>
  <path d="M35.3135 11.0284L41.7244 17.3191L42.7127 9.89984L35.3135 11.0284Z" fill="black"/>
  <path d="M22.1343 43.718L31.1154 43.633L26.6815 49.6627L22.1343 43.718Z" fill="black"/>
  <path d="M39.8175 39.5671C47.0555 32.1907 46.9433 20.3435 39.567 13.1055C32.1907 5.86756 20.3435 5.97971 13.1055 13.356C5.86754 20.7323 5.97969 32.5796 13.356 39.8175C20.7323 47.0555 32.5795 46.9434 39.8175 39.5671Z" fill="#239371"/>
  <path d="M27.9586 9.24629C24.3484 9.24694 20.8154 10.292 17.7857 12.2553C14.7561 14.2187 12.359 17.0166 10.8837 20.3116C9.4084 23.6067 8.91778 27.2582 9.47103 30.8257C10.0243 34.3933 11.5978 37.7247 14.0017 40.4182C17.5689 43.5879 22.2123 45.2751 26.9822 45.1345C31.7521 44.994 36.2881 43.0364 39.6624 39.6621C43.0367 36.2878 44.9944 31.7518 45.1349 26.9818C45.2755 22.2119 43.5883 17.5685 40.4185 14.0014C36.9939 10.9337 32.5563 9.24017 27.9586 9.24629Z" fill="#239371"/>
  <path d="M36.0424 38.9222C42.9242 33.6309 44.2136 23.7627 38.9224 16.8809C33.6311 9.99908 23.7628 8.7097 16.881 14.001C9.99922 19.2922 8.70983 29.1605 14.0011 36.0423C19.2924 42.9241 29.1606 44.2135 36.0424 38.9222Z" fill="#EAEAF0"/>
  <path d="M18.9803 14.2751C16.5861 16.1129 14.7722 18.6018 13.7559 21.4438C12.7396 24.2859 12.5639 27.3606 13.2499 30.2999C13.9358 33.2392 15.4544 35.9185 17.6238 38.017C19.7931 40.1156 22.5213 41.5444 25.4818 42.1325C29.4552 42.3812 33.3748 41.1113 36.4474 38.5796C39.52 36.0479 41.5162 32.4436 42.032 28.4959C42.5478 24.5482 41.5447 20.552 39.2258 17.3158C36.9068 14.0797 33.4451 11.8453 29.5411 11.0647C25.7476 10.8156 21.9933 11.9569 18.9803 14.2751Z" fill="#F7F7FF"/>
  <path d="M17.4795 20.1048L17.4795 32.0805L26.4612 34.3259L26.4612 17.8594L17.4795 20.1048Z" fill="#494949"/>
  <path d="M26.4614 17.8593L26.4614 34.3258L35.4432 32.0804L35.4432 20.1047L26.4614 17.8593Z" fill="black"/>
  <path d="M26.4612 20.9624L26.4612 24.0656L17.4795 26.311L17.4795 23.2078L26.4612 20.9624Z" fill="#258064"/>
  <path d="M26.4614 20.9625L35.4432 23.208L35.4432 26.3112L26.4614 24.0657L26.4614 20.9625Z" fill="#239371"/>
  <path d="M26.2417 3.26002L21.1162 15.2845L26.3338 12.9894L31.5939 15.1853L26.2417 3.26002Z" fill="#9C9C9C"/>
  <path d="M26.3341 12.9895L31.5942 15.1854L26.242 3.26014L23.5268 14.2239L26.3341 12.9895Z" fill="black"/>
  <path d="M36.549 18.7056C36.67 18.863 36.8486 18.9658 37.0454 18.9916C37.2422 19.0173 37.4412 18.9637 37.5986 18.8427L39.349 17.4969C39.2055 17.2919 39.0767 17.0813 38.9224 16.8807C38.7682 16.6802 38.5978 16.5015 38.4366 16.3102L36.6861 17.656C36.5288 17.777 36.4259 17.9556 36.4002 18.1524C36.3745 18.3492 36.428 18.5482 36.549 18.7056Z" fill="#5B5555"/>
  <path d="M14.487 36.6128L16.2375 35.267C16.3948 35.146 16.4977 34.9674 16.5234 34.7706C16.5491 34.5737 16.4956 34.3748 16.3746 34.2174C16.2536 34.06 16.075 33.9572 15.8782 33.9314C15.6814 33.9057 15.4824 33.9592 15.325 34.0802L13.5746 35.4261C13.7181 35.6311 13.8469 35.8417 14.0011 36.0423C14.1553 36.2428 14.3258 36.4215 14.487 36.6128Z" fill="#5B5555"/>
  <path d="M16.881 14.0009C16.6804 14.1551 16.5017 14.3255 16.3104 14.4868L17.6563 16.2372C17.7773 16.3946 17.9558 16.4974 18.1527 16.5231C18.3495 16.5488 18.5485 16.4953 18.7059 16.3743C18.8632 16.2533 18.9661 16.0748 18.9918 15.8779C19.0175 15.6811 18.964 15.4821 18.843 15.3247L17.4971 13.5743C17.2921 13.7178 17.0815 13.8467 16.881 14.0009Z" fill="#5B5555"/>
  <path d="M34.2174 36.5487C34.06 36.6697 33.9572 36.8482 33.9314 37.045C33.9057 37.2419 33.9592 37.4409 34.0802 37.5982L35.4261 39.3487C35.6311 39.2052 35.8417 39.0763 36.0423 38.9221C36.2428 38.7679 36.4215 38.5975 36.6128 38.4362L35.267 36.6858C35.146 36.5284 34.9674 36.4256 34.7706 36.3999C34.5737 36.3741 34.3748 36.4277 34.2174 36.5487Z" fill="#5B5555"/>
</svg>