<svg xmlns="http://www.w3.org/2000/svg" width="38" height="39" viewBox="0 0 38 39" fill="none">
  <path d="M7.12891 12.1173L30.5662 12.2049L30.5486 16.9289L7.11126 16.8413L7.12891 12.1173Z" fill="#F2BE22"/>
  <path d="M18.8154 20.6351L12.2529 20.6106C11.7373 20.6086 11.3139 21.0289 11.3119 21.5445L11.2845 28.8758C11.5772 29.2123 19.1501 29.0105 19.7214 29.076L19.7494 21.5761C19.7513 21.0605 19.331 20.637 18.8154 20.6351Z" fill="#0E5952"/>
  <path d="M18.8895 0.947727C8.54894 0.909099 0.108235 9.28698 0.0696074 19.6276C1.00395 44.5061 36.453 44.6313 37.5694 19.7675C37.608 9.42706 29.2301 0.986354 18.8895 0.947727ZM30.0449 26.3021C30.0352 28.8896 27.9274 30.9817 25.3399 30.972L12.215 30.923C9.62751 30.9133 7.53537 28.8055 7.54504 26.218L7.59407 13.0931C7.60374 10.5056 9.71156 8.41349 12.299 8.42316L25.424 8.47219C28.0114 8.48185 30.1036 10.5897 30.0939 13.1772L30.0449 26.3021Z" fill="#0E5952"/>
</svg>