<svg width="85" height="49" viewBox="0 0 85 49" fill="none" xmlns="http://www.w3.org/2000/svg">
<path d="M2.92612 26.3145V29.3105H2.20258V22.1261H4.35281C5.16127 22.1261 5.76252 22.3129 6.15656 22.6866C6.5574 23.0603 6.75781 23.5732 6.75781 24.2254C6.75781 24.8912 6.5506 25.4075 6.13618 25.7744C5.72855 26.1345 5.1341 26.3145 4.35281 26.3145H2.92612ZM4.29167 25.703C4.9099 25.703 5.3549 25.5774 5.62665 25.326C5.8984 25.0678 6.03427 24.701 6.03427 24.2254C6.03427 23.7362 5.8984 23.366 5.62665 23.1146C5.3549 22.8565 4.9099 22.7274 4.29167 22.7274H2.92612V25.703H4.29167ZM10.4022 23.6751C10.9321 23.6751 11.4043 23.7906 11.8187 24.0216C12.2399 24.2458 12.5694 24.5753 12.8072 25.0101C13.045 25.4381 13.1638 25.9442 13.1638 26.5285C13.1638 27.1128 13.045 27.6189 12.8072 28.0469C12.5694 28.4749 12.2399 28.8044 11.8187 29.0354C11.4043 29.2664 10.9321 29.3819 10.4022 29.3819C9.87226 29.3819 9.39669 29.2664 8.97548 29.0354C8.55426 28.8044 8.22137 28.4749 7.97679 28.0469C7.73901 27.6121 7.62012 27.106 7.62012 26.5285C7.62012 25.9442 7.73901 25.4381 7.97679 25.0101C8.22137 24.5753 8.55426 24.2458 8.97548 24.0216C9.39669 23.7906 9.87226 23.6751 10.4022 23.6751ZM10.4022 24.2967C10.0353 24.2967 9.69562 24.3783 9.38311 24.5413C9.07059 24.7044 8.81922 24.9557 8.629 25.2954C8.43877 25.6283 8.34366 26.0393 8.34366 26.5285C8.34366 27.0176 8.43877 27.4287 8.629 27.7616C8.81922 28.0945 9.07059 28.3424 9.38311 28.5055C9.69562 28.6685 10.0353 28.7501 10.4022 28.7501C10.7622 28.7501 11.0951 28.6685 11.4009 28.5055C11.7134 28.3424 11.9647 28.0945 12.155 27.7616C12.3452 27.4287 12.4403 27.0176 12.4403 26.5285C12.4403 26.0393 12.3452 25.6283 12.155 25.2954C11.9647 24.9557 11.7134 24.7044 11.4009 24.5413C11.0951 24.3783 10.7622 24.2967 10.4022 24.2967ZM21.9641 23.7464L20.3234 29.3105H19.5692L17.898 24.5821L16.2063 29.3105H15.4624L13.8217 23.7464H14.5452L15.87 28.5666L17.5413 23.7464H18.275L19.9565 28.5666L21.2711 23.7464H21.9641ZM25.3079 28.7908C25.8106 28.7908 26.2318 28.6651 26.5715 28.4138C26.9112 28.1624 27.115 27.8227 27.183 27.3947H27.9371C27.8352 27.9858 27.5532 28.4647 27.0912 28.8316C26.6293 29.1984 26.045 29.3819 25.3384 29.3819C24.8085 29.3819 24.3364 29.2698 23.9219 29.0456C23.5143 28.8146 23.195 28.4851 22.964 28.0571C22.733 27.6223 22.6175 27.1128 22.6175 26.5285C22.6175 25.9442 22.733 25.4381 22.964 25.0101C23.195 24.5753 23.5143 24.2458 23.9219 24.0216C24.3364 23.7906 24.8085 23.6751 25.3384 23.6751C25.8819 23.6751 26.3507 23.7906 26.7448 24.0216C27.1456 24.2458 27.4479 24.5481 27.6517 24.9286C27.8623 25.309 27.9676 25.7234 27.9676 26.1718C27.9676 26.362 27.9541 26.5353 27.9269 26.6915H23.3207C23.3275 27.1603 23.4226 27.5544 23.606 27.8737C23.7963 28.1862 24.0408 28.4172 24.3398 28.5666C24.6387 28.7161 24.9614 28.7908 25.3079 28.7908ZM25.3384 24.256C24.9784 24.256 24.6489 24.3307 24.3499 24.4802C24.051 24.6296 23.8064 24.8606 23.6162 25.1731C23.4328 25.4789 23.3343 25.8627 23.3207 26.3247H27.2543C27.2815 25.8695 27.2067 25.4856 27.0301 25.1731C26.8535 24.8606 26.6157 24.6296 26.3168 24.4802C26.0178 24.3307 25.6917 24.256 25.3384 24.256ZM29.9752 24.898C30.1383 24.4971 30.3998 24.188 30.7599 23.9706C31.12 23.7532 31.5582 23.6445 32.0745 23.6445V24.419H31.8401C31.3034 24.419 30.8584 24.5651 30.5051 24.8572C30.1518 25.1426 29.9752 25.6113 29.9752 26.2635V29.3105H29.2517V23.7464H29.9752V24.898ZM35.4488 28.7908C35.9515 28.7908 36.3727 28.6651 36.7124 28.4138C37.0521 28.1624 37.2559 27.8227 37.3239 27.3947H38.078C37.9761 27.9858 37.6941 28.4647 37.2322 28.8316C36.7702 29.1984 36.1859 29.3819 35.4794 29.3819C34.9494 29.3819 34.4773 29.2698 34.0629 29.0456C33.6552 28.8146 33.3359 28.4851 33.1049 28.0571C32.8739 27.6223 32.7585 27.1128 32.7585 26.5285C32.7585 25.9442 32.8739 25.4381 33.1049 25.0101C33.3359 24.5753 33.6552 24.2458 34.0629 24.0216C34.4773 23.7906 34.9494 23.6751 35.4794 23.6751C36.0229 23.6751 36.4916 23.7906 36.8857 24.0216C37.2865 24.2458 37.5888 24.5481 37.7926 24.9286C38.0033 25.309 38.1086 25.7234 38.1086 26.1718C38.1086 26.362 38.095 26.5353 38.0678 26.6915H33.4616C33.4684 27.1603 33.5635 27.5544 33.7469 27.8737C33.9372 28.1862 34.1817 28.4172 34.4807 28.5666C34.7796 28.7161 35.1023 28.7908 35.4488 28.7908ZM35.4794 24.256C35.1193 24.256 34.7898 24.3307 34.4909 24.4802C34.1919 24.6296 33.9474 24.8606 33.7571 25.1731C33.5737 25.4789 33.4752 25.8627 33.4616 26.3247H37.3952C37.4224 25.8695 37.3477 25.4856 37.171 25.1731C36.9944 24.8606 36.7566 24.6296 36.4577 24.4802C36.1587 24.3307 35.8326 24.256 35.4794 24.256ZM41.7364 23.6751C42.3003 23.6751 42.7793 23.8212 43.1733 24.1133C43.5742 24.4054 43.8459 24.7927 43.9886 25.275V21.7694H44.7019V29.3105H43.9886V27.7819C43.8459 28.2643 43.5742 28.6515 43.1733 28.9437C42.7793 29.2358 42.3003 29.3819 41.7364 29.3819C41.2337 29.3819 40.7819 29.2664 40.3811 29.0354C39.987 28.8044 39.6779 28.4749 39.4537 28.0469C39.2363 27.6121 39.1276 27.106 39.1276 26.5285C39.1276 25.9442 39.2363 25.4381 39.4537 25.0101C39.6779 24.5753 39.987 24.2458 40.3811 24.0216C40.7751 23.7906 41.2269 23.6751 41.7364 23.6751ZM41.9199 24.3069C41.2948 24.3069 40.7921 24.5073 40.4117 24.9082C40.038 25.3022 39.8512 25.8423 39.8512 26.5285C39.8512 27.2147 40.038 27.7582 40.4117 28.159C40.7921 28.553 41.2948 28.7501 41.9199 28.7501C42.3139 28.7501 42.6672 28.6583 42.9797 28.4749C43.299 28.2915 43.547 28.0333 43.7236 27.7004C43.9071 27.3607 43.9988 26.9701 43.9988 26.5285C43.9988 26.0869 43.9071 25.6996 43.7236 25.3668C43.547 25.0271 43.299 24.7655 42.9797 24.5821C42.6672 24.3986 42.3139 24.3069 41.9199 24.3069ZM52.1882 25.5909C52.6366 25.6793 53 25.8865 53.2786 26.2126C53.5571 26.5387 53.6964 26.9259 53.6964 27.3743C53.6964 27.9518 53.4994 28.4206 53.1053 28.7806C52.7113 29.1339 52.1406 29.3105 51.3933 29.3105H48.8966V22.1261H51.3627C52.0829 22.1261 52.623 22.2892 52.983 22.6153C53.3499 22.9346 53.5333 23.366 53.5333 23.9095C53.5333 24.3783 53.4077 24.7553 53.1563 25.0407C52.9049 25.3192 52.5822 25.5026 52.1882 25.5909ZM49.6201 25.3362H51.271C51.7738 25.3362 52.1542 25.2207 52.4124 24.9897C52.6773 24.7519 52.8098 24.4292 52.8098 24.0216C52.8098 23.6208 52.6807 23.3048 52.4226 23.0739C52.1644 22.8429 51.767 22.7274 51.2303 22.7274H49.6201V25.3362ZM51.271 28.6991C51.8077 28.6991 52.2255 28.5768 52.5245 28.3322C52.8234 28.0809 52.9729 27.7344 52.9729 27.2928C52.9729 26.858 52.82 26.5149 52.5143 26.2635C52.2086 26.0054 51.7873 25.8763 51.2506 25.8763H49.6201V28.6991H51.271ZM55.0703 23.7464L57.0065 28.3832L58.7899 23.7464H59.5848L56.3136 31.9397H55.4983L56.6193 29.2494L54.2754 23.7464H55.0703Z" fill="black"/>
<path d="M68.1593 0.115413L68.0241 0.231267L68.0097 2.27803L68 4.31996L69.9357 6.13019C70.9977 7.12461 71.8908 7.95007 71.9149 7.9549C71.9439 7.96938 71.9584 7.11013 71.9487 5.66195L71.9342 3.35451L71.8039 3.08418C71.6929 2.86213 71.4418 2.60146 70.2399 1.46705C69.4482 0.728476 68.7579 0.0961041 68.7048 0.0623131C68.5407 -0.0342321 68.3089 -0.0100961 68.1593 0.115413Z" fill="#239371"/>
<path d="M82.7361 1.5061C81.1044 3.14255 81.032 3.23427 80.9355 3.84733C80.9065 4.01628 80.8872 7.24573 80.8872 12.0151V19.9077L81.5437 20.9359C81.9058 21.5007 82.2195 21.9786 82.2437 21.993C82.2678 22.0075 82.2871 18.5802 82.2871 13.806V5.59963L82.8809 5.21345L83.4698 4.83209L83.4939 14.3997L83.5181 23.9674L84.1697 24.9666C84.527 25.5169 84.8359 25.9707 84.86 25.9707C84.8794 25.9707 84.8938 20.1925 84.8938 13.1253V0.279978L84.7538 0.139988C84.6476 0.0337868 84.5656 -3.8147e-06 84.4256 -3.8147e-06C84.247 -3.8147e-06 84.1891 0.0530968 82.7361 1.5061ZM83.7256 1.83436C83.7498 2.12882 83.6629 2.29295 83.3539 2.53431C83.2043 2.64534 82.9967 2.82878 82.8954 2.9398C82.7216 3.11358 82.7023 3.16669 82.683 3.43218C82.6685 3.59148 82.6781 3.74113 82.7023 3.76527C82.7264 3.7894 82.9485 3.6301 83.2043 3.40322C83.6967 2.96877 83.7256 2.96877 83.7305 3.33564C83.7353 3.59148 83.5567 3.86664 83.1802 4.18041C82.9967 4.33006 82.6926 4.59556 82.514 4.76451C82.3354 4.93347 82.1664 5.05898 82.1471 5.04932C82.0747 5.00587 82.0458 4.64383 82.0989 4.50384C82.123 4.43143 82.2292 4.28661 82.3257 4.18524L82.5043 4.0018V3.38874C82.5043 2.81912 82.514 2.76119 82.6347 2.53431C82.8229 2.18192 83.5132 1.5592 83.6629 1.60748C83.687 1.61713 83.716 1.7185 83.7256 1.83436Z" fill="#239371"/>
<path d="M68 7.53151V9.70861L69.6316 11.3113C70.5247 12.1947 71.4177 13.0636 71.6108 13.247L71.9584 13.5801V11.3064V9.03279L70.0226 7.20808C68.9606 6.20401 68.0724 5.37372 68.0434 5.36889C68.0193 5.35924 68 6.17988 68 7.53151Z" fill="#239371"/>
<path d="M68 17.9765V25.005H68.9655H69.9357L69.9213 24.3148L69.9068 23.6293L69.6558 23.6148L69.3999 23.6003V18.4979V13.3955L69.9792 13.9747L70.5585 14.554V19.7868V25.0195L72.9238 24.9954C74.594 24.9761 75.3085 24.9519 75.3568 24.9133C75.3954 24.8795 76.0181 23.9334 76.7422 22.799C77.4711 21.6694 78.0938 20.7329 78.1228 20.7233C78.3159 20.6509 78.4124 20.7667 79.1896 21.9832C79.6385 22.688 79.9716 23.2624 79.9716 23.3252C79.9716 23.3879 79.9475 23.4652 79.9137 23.4989C79.8365 23.5762 79.1462 23.5762 79.0448 23.4941C79.0062 23.4652 78.8469 23.2576 78.6924 23.0355C78.4221 22.6445 78.3062 22.5625 78.1035 22.6011C77.9973 22.6204 77.558 23.2479 77.558 23.3831C77.558 23.5183 78.369 24.8506 78.5041 24.9423C78.5959 25.0002 78.8951 25.0099 80.4399 24.9954C81.4439 24.9857 82.3032 24.9616 82.3515 24.9375C82.4577 24.8844 82.5108 24.6816 82.448 24.5271C82.4239 24.4596 81.5115 23.0162 80.4302 21.3218C79.0255 19.1254 78.4221 18.2227 78.34 18.1938C78.2628 18.1648 78.1855 18.1696 78.1035 18.2083C78.0214 18.2517 77.418 19.1351 76.2981 20.8488C75.3761 22.2632 74.5844 23.4603 74.5409 23.5038C74.4782 23.5714 74.3044 23.581 73.3197 23.5858C72.6921 23.5907 72.137 23.5858 72.0935 23.5714C72.0115 23.552 72.0066 23.3734 72.0066 20.7377C72.0066 19.1882 71.9922 17.2042 71.9728 16.3304L71.9439 14.7326L70.013 12.8548C68.951 11.8266 68.0628 10.9722 68.0386 10.9674C68.0193 10.9577 68 14.1099 68 17.9765Z" fill="#239371"/>
<path d="M68.029 26.3907C68.1786 27.694 68.7241 29.1567 69.4482 30.2187C70.6888 32.0241 72.6438 33.3178 74.7823 33.7426C75.4581 33.8778 76.8098 33.9261 77.4952 33.8392C79.9668 33.535 82.1246 32.1931 83.5245 30.098C84.0024 29.3836 84.5575 28.1623 84.5575 27.8389C84.5575 27.723 83.5969 26.2072 83.5052 26.1735C83.4714 26.1638 83.4473 26.2072 83.4473 26.2941C83.4473 26.3665 83.3942 26.661 83.3314 26.941C82.7183 29.6346 80.5943 31.7055 77.8331 32.3041C77.1718 32.4441 75.7767 32.4586 75.1299 32.3282C72.2287 31.7393 70.0564 29.5767 69.4916 26.7045L69.3854 26.1638H68.6903H68L68.029 26.3907Z" fill="#239371"/>
</svg>
