<svg width="38" height="38" viewBox="0 0 38 38" fill="none" xmlns="http://www.w3.org/2000/svg">
<circle cx="19" cy="19" r="19" fill="white"/>
<path d="M8.59421 7.18969C8.50994 7.58298 7.58291 8.51001 7.19664 8.59429C7.08428 8.61535 7 8.65749 7 8.68558C7 8.71368 7.08428 8.75581 7.19664 8.77688C7.58291 8.86116 8.50994 9.78819 8.59421 10.1745C8.61528 10.2868 8.65742 10.3711 8.68551 10.3711C8.7136 10.3711 8.75574 10.2868 8.77681 10.1745C8.86108 9.78819 9.78811 8.86116 10.1814 8.77688C10.2867 8.75581 10.371 8.71368 10.371 8.68558C10.371 8.65749 10.2867 8.61535 10.1814 8.59429C9.78811 8.51001 8.86108 7.58298 8.77681 7.18969C8.75574 7.08435 8.7136 7.00007 8.68551 7.00007C8.65742 7.00007 8.61528 7.08435 8.59421 7.18969Z" fill="black"/>
<path d="M27.2966 7.13383C26.7418 7.3094 26.3134 7.5833 25.9131 8.00467C25.2389 8.71399 24.979 9.38117 24.979 10.3855C24.979 11.4178 25.3231 12.2114 26.0676 12.8856C26.7137 13.4826 27.423 13.7424 28.3641 13.7424C29.5439 13.7424 30.5061 13.2368 31.1733 12.2746C31.4401 11.8954 31.721 11.1299 31.721 10.7717V10.4978L31.3699 10.8209C30.9064 11.2282 30.3867 11.4249 29.7546 11.4249C29.0313 11.4249 28.5537 11.2212 28.027 10.6945C27.4441 10.1116 27.2685 9.65507 27.3106 8.82636C27.3457 8.13811 27.5283 7.70269 27.9708 7.26024L28.2306 7.00039L27.9567 7.00741C27.8093 7.00741 27.5073 7.0636 27.2966 7.13383Z" fill="black"/>
<path d="M16.2209 7.91357C15.624 8.62991 15.1745 8.95297 12.8148 10.3435C10.8062 11.5304 10.1039 12.008 9.37352 12.6822C7.72312 14.2061 7.23854 15.8214 7.76526 17.9915C8.5097 21.0465 8.53779 22.1421 7.94084 26.0679C7.75824 27.2829 7.60373 28.5681 7.58267 29.1018L7.54053 30.0359H8.41137L9.28222 30.0289L9.52802 29.6707C10.118 28.7998 10.5042 28.5049 11.2276 28.3855L11.4804 28.3434L11.5085 24.9934C11.5366 21.8261 11.5436 21.6224 11.6841 21.208C11.7613 20.9692 11.9088 20.6321 12.0071 20.4706C12.1757 20.1757 12.878 19.4523 13.1308 19.3189C13.2361 19.2556 13.2151 19.2135 12.9342 18.9045C12.5058 18.448 12.2108 17.8089 12.1265 17.1698C12.0422 16.5097 12.0422 15.4703 12.1265 14.7961C12.26 13.7496 12.892 12.8718 13.8471 12.4012C14.3177 12.1695 14.3668 12.1625 15.1464 12.1625C15.9259 12.1625 15.9751 12.1695 16.4456 12.4012C17.4289 12.8858 18.0328 13.7637 18.1803 14.9155C18.2716 15.681 18.2084 17.233 18.0609 17.7176C17.9205 18.2022 17.4499 18.8905 17.0777 19.1784L16.7687 19.4102L17.1198 19.7543C17.6044 20.2318 17.8643 20.6462 18.0399 21.2221C18.1171 21.4889 18.1944 21.7207 18.2014 21.7348C18.2084 21.7488 18.8054 21.3274 19.5287 20.8077C20.2451 20.288 20.9544 19.8245 21.1019 19.7753C22.1413 19.4312 23.2228 20.2248 23.2228 21.3274C23.2228 21.805 23.0472 22.1912 22.689 22.5283C22.5345 22.6688 21.5232 23.4203 20.4277 24.2068C19.3391 24.9934 18.4683 25.6606 18.4963 25.6887C18.5315 25.7168 19.7464 26.2716 21.2072 26.9177C23.2649 27.8307 23.9391 28.1608 24.1849 28.3785C24.5572 28.7085 24.9083 29.3828 24.9083 29.769V30.0359H25.2314H25.5614L25.5193 29.1018C25.4982 28.5962 25.3999 27.6551 25.3016 27.016C24.8943 24.3122 24.8381 23.9189 24.7678 23.027C24.6555 21.5241 24.81 20.1335 25.3367 17.9915C25.6738 16.615 25.5966 15.4703 25.119 14.5011C24.4729 13.2019 23.3773 12.1835 21.3055 10.9475C20.7999 10.6455 19.8869 10.1047 19.2899 9.74656C18.096 9.03724 17.2954 8.43327 16.8811 7.92762C16.7266 7.74502 16.5861 7.59051 16.565 7.58349C16.5369 7.56944 16.3824 7.72395 16.2209 7.91357ZM21.8884 13.8831C21.9657 13.9252 22.064 14.0868 22.1132 14.2553C22.2326 14.6556 22.9278 15.3509 23.3633 15.4984C23.595 15.5756 23.6933 15.6529 23.7425 15.7933C23.8549 16.1234 23.7284 16.3622 23.3633 16.4816C23.1526 16.5518 22.9068 16.7274 22.6258 17.0083C22.3449 17.2892 22.1694 17.535 22.0991 17.7457C22.0219 17.9775 21.9446 18.0758 21.8042 18.125C21.4741 18.2373 21.2353 18.1109 21.1159 17.7457C20.9754 17.3173 20.2802 16.622 19.8518 16.4816C19.62 16.4043 19.5217 16.3271 19.4725 16.1796C19.3602 15.8565 19.4866 15.6178 19.8518 15.4984C20.2661 15.3579 21.0035 14.6416 21.0808 14.3115C21.1721 13.8831 21.5373 13.6935 21.8884 13.8831Z" fill="black"/>
<path d="M21.3262 15.7438L21.0874 15.9896L21.3473 16.2565L21.6071 16.5164L21.867 16.2565L22.1268 15.9896L21.888 15.7438C21.7546 15.6104 21.6282 15.498 21.6071 15.498C21.586 15.498 21.4596 15.6104 21.3262 15.7438Z" fill="black"/>
<path d="M14.3322 13.3138C13.9178 13.5035 13.5667 13.8406 13.363 14.2479C13.033 14.9081 12.9065 14.8659 15.1469 14.8659C17.3872 14.8659 17.2608 14.9081 16.9307 14.2479C16.727 13.8406 16.3759 13.5035 15.9615 13.3138C15.5682 13.1383 14.7255 13.1383 14.3322 13.3138Z" fill="black"/>
<path d="M13.1802 16.6709C13.1802 17.4364 13.2785 17.7454 13.6648 18.1808C14.03 18.5952 14.5145 18.7988 15.1396 18.7988C15.9823 18.7918 16.5793 18.4407 16.9304 17.7313C17.092 17.4153 17.113 17.2748 17.113 16.6779V15.9896H15.1466H13.1802V16.6709Z" fill="black"/>
<path d="M28.2583 18.9885C28.174 19.3818 27.247 20.3088 26.8607 20.3931C26.7483 20.4142 26.6641 20.4563 26.6641 20.4844C26.6641 20.5125 26.7483 20.5546 26.8607 20.5757C27.247 20.66 28.174 21.587 28.2583 21.9733C28.2793 22.0856 28.3215 22.1699 28.3496 22.1699C28.3777 22.1699 28.4198 22.0856 28.4409 21.9733C28.5251 21.587 29.4522 20.66 29.8455 20.5757C29.9508 20.5546 30.0351 20.5125 30.0351 20.4844C30.0351 20.4563 29.9508 20.4142 29.8455 20.3931C29.4522 20.3088 28.5251 19.3818 28.4409 18.9885C28.4198 18.8832 28.3777 18.7989 28.3496 18.7989C28.3215 18.7989 28.2793 18.8832 28.2583 18.9885Z" fill="black"/>
<path d="M13.9666 20.0702C13.4679 20.2668 12.9553 20.7795 12.7656 21.2922C12.6252 21.6714 12.6182 21.8119 12.6182 25.0143V28.3502H14.5495C16.6774 28.3502 16.9232 28.3854 17.0145 28.7295C17.0918 29.0385 16.9864 29.2632 16.7266 29.3756C16.537 29.4528 16.0735 29.4739 14.5495 29.4739H12.6182V30.3167V31.1594H17.8713C22.9841 31.1594 23.1245 31.1524 23.3492 31.019C23.6863 30.8153 23.8549 30.4922 23.8549 30.0498C23.8549 29.6425 23.7496 29.3826 23.4897 29.1438C23.4054 29.0666 22.1132 28.4556 20.6314 27.7954C19.1495 27.1353 17.8643 26.5313 17.773 26.447L17.6115 26.2925L17.2463 26.454C16.6142 26.7209 15.926 26.6156 15.4765 26.1872C15.1956 25.9273 13.7559 23.9117 13.6365 23.6097C13.5803 23.4763 13.5311 23.2024 13.5311 22.9987C13.5382 21.84 14.7391 21.0534 15.7996 21.5239C16.0735 21.6433 16.3544 21.9172 16.8179 22.5142C17.0145 22.767 17.1129 22.6476 17.1129 22.1349C17.1129 21.2009 16.5651 20.3792 15.7434 20.0702C15.2237 19.8735 14.4792 19.8735 13.9666 20.0702Z" fill="black"/>
<path d="M20.9545 21.0541C20.7298 21.2086 20.5542 21.3491 20.5542 21.3631C20.5542 21.3842 20.786 21.5527 21.0739 21.7424L21.5936 22.0935L21.8254 21.925C22.1273 21.7002 22.1695 21.623 22.1695 21.3069C22.1695 20.703 21.6076 20.5836 20.9545 21.0541Z" fill="black"/>
<path d="M18.2785 22.9779C17.5552 23.4976 16.902 23.926 16.8318 23.926C16.579 23.926 16.4736 23.8347 16.0804 23.2728C15.5326 22.5003 15.4764 22.4512 15.1463 22.4512C14.7741 22.4512 14.5845 22.6408 14.5845 23.006C14.5845 23.2307 14.6898 23.4273 15.3289 24.3193C15.7362 24.8951 16.1225 25.4078 16.1857 25.45C16.2489 25.4991 16.4104 25.5413 16.5509 25.5413C16.7756 25.5413 17.0706 25.3516 18.714 24.1648C19.7674 23.4063 20.6242 22.7672 20.6242 22.7391C20.6242 22.704 19.8868 22.1913 19.6691 22.0789C19.627 22.0579 19.0019 22.4582 18.2785 22.9779Z" fill="black"/>
<path d="M29.9438 25.7302C29.8595 26.1235 28.9325 27.0505 28.5463 27.1348C28.4339 27.1559 28.3496 27.198 28.3496 27.2261C28.3496 27.2542 28.4339 27.2963 28.5463 27.3174C28.9325 27.4017 29.8595 28.3287 29.9438 28.715C29.9649 28.8273 30.007 28.9116 30.0351 28.9116C30.0632 28.9116 30.1053 28.8273 30.1264 28.715C30.2107 28.3287 31.1377 27.4017 31.531 27.3174C31.6364 27.2963 31.7206 27.2542 31.7206 27.2261C31.7206 27.198 31.6364 27.1559 31.531 27.1348C31.1377 27.0505 30.2107 26.1235 30.1264 25.7302C30.1053 25.6249 30.0632 25.5406 30.0351 25.5406C30.007 25.5406 29.9649 25.6249 29.9438 25.7302Z" fill="black"/>
<path d="M10.9188 29.5582C10.8275 29.6354 10.3991 30.2043 9.88644 30.9277L9.73193 31.1594H10.6098H11.4947V30.3167V29.4739H11.2629C11.1365 29.4739 10.982 29.5161 10.9188 29.5582Z" fill="black"/>
</svg>
