<svg xmlns="http://www.w3.org/2000/svg" width="41" height="47" viewBox="0 0 41 47" fill="none">
<path d="M30.4667 0.020237C28.4826 0.264721 26.7054 1.08281 25.2855 2.38986L24.5426 3.0857V1.91029C24.5426 0.612644 24.4768 0.433979 23.9879 0.433979C23.4425 0.433979 23.3672 0.584435 23.339 1.88208L23.3014 3.0669H22.4175H21.5336V1.90089C21.5336 0.612644 21.4678 0.433979 20.9788 0.433979C20.4334 0.433979 20.3582 0.584435 20.33 1.88208L20.2924 3.0669H19.4085H18.5246V1.91029C18.5246 0.904144 18.5057 0.725483 18.3553 0.593838C18.1202 0.37756 17.7159 0.396366 17.4902 0.622047C17.3209 0.791306 17.3021 0.932354 17.3021 1.9385V3.0669H16.4088H15.5155V1.91029C15.5155 0.603241 15.4403 0.433979 14.8761 0.433979C14.3871 0.433979 14.2931 0.68787 14.2931 1.95731V3.0669H13.3998H12.5065V1.91029C12.5065 0.603241 12.4312 0.433979 11.867 0.433979C11.3781 0.433979 11.284 0.68787 11.284 1.95731V3.0669H10.3907H9.49741V1.91029C9.49741 0.603241 9.42218 0.433979 8.85799 0.433979C8.36902 0.433979 8.27498 0.68787 8.27498 1.95731V3.0669H7.38167H6.48836V1.91029C6.48836 0.603241 6.41314 0.433979 5.84894 0.433979C5.35997 0.433979 5.26594 0.68787 5.26594 1.95731V3.0669H4.37263H3.47932V1.95731C3.47932 0.669064 3.38528 0.433979 2.87751 0.433979C2.33212 0.433979 2.25689 0.622047 2.25689 1.94791V3.11391L1.80553 3.27377C1.18492 3.49945 0.62072 4.00723 0.310412 4.64665C0.0753306 5.12621 0.0471208 5.29547 0.018911 6.42387C-0.0187021 7.64629 -0.0187021 7.6651 0.21638 7.90018C0.507881 8.19168 0.780576 8.21049 1.03446 7.9566C1.20372 7.78734 1.22253 7.64629 1.22253 6.73417C1.22253 5.32368 1.42 4.85352 2.18166 4.46798C2.52018 4.29873 2.91512 4.28932 13.1177 4.28932C18.9477 4.28932 23.6964 4.31753 23.6775 4.35514C23.3484 5.02278 23.0099 5.82206 22.8595 6.31103C22.4175 7.73092 22.3799 9.56456 22.756 10.975C22.8595 11.3606 22.9441 11.7085 22.9441 11.7461C22.9441 11.9436 22.3987 11.4734 21.0634 10.1664C20.2077 9.32007 19.4273 8.64304 19.1828 8.51139C18.5434 8.19168 17.603 8.16347 16.879 8.43616C16.39 8.61483 16.1267 8.84051 14.7068 10.2322C13.8229 11.0973 13.0801 11.8213 13.0613 11.8307C13.0424 11.8307 11.9611 11.8684 10.6634 11.8966L8.30319 11.953L7.7578 12.2351C7.15599 12.5454 6.6106 13.1566 6.39433 13.7678C6.3097 14.0029 6.26268 14.8116 6.23447 16.2315C6.21567 17.3975 6.17805 18.4507 6.14984 18.5729C6.12163 18.7045 5.4352 19.485 4.5983 20.3313C2.83989 22.1273 2.60481 22.5129 2.60481 23.613C2.60481 24.6662 2.78347 24.9577 4.55129 26.7631C5.80192 28.0232 6.10283 28.3899 6.14984 28.6532C6.17805 28.8319 6.21567 29.9038 6.23447 31.0416C6.26268 33.4019 6.33791 33.6934 7.07137 34.4456C7.80482 35.1885 8.08692 35.2637 10.7669 35.3295C12.0645 35.3577 13.1365 35.3953 13.1553 35.3953C13.1647 35.4048 13.8887 36.11 14.7632 36.9657C16.4182 38.6019 16.7473 38.8181 17.6312 38.931C18.186 39.0062 19.0605 38.7993 19.5025 38.4984C19.6623 38.3856 20.4522 37.6521 21.2515 36.8623C22.079 36.0442 22.8124 35.4048 22.9441 35.3765C23.0757 35.3483 24.1289 35.3107 25.2949 35.2919C26.7148 35.2637 27.5235 35.2167 27.7586 35.1321C28.3228 34.9346 28.9716 34.3704 29.2819 33.8156L29.5734 33.2984L29.6204 30.9946C29.658 29.2926 29.705 28.6344 29.7991 28.4557C29.8649 28.3241 30.589 27.5436 31.407 26.7161C33.0432 25.0517 33.2877 24.6474 33.2877 23.6224C33.2877 22.5411 33.1184 22.2684 31.3976 20.5006C29.7615 18.8362 29.6204 18.6199 29.6204 17.8394C29.6204 17.5667 29.6486 17.5291 29.8367 17.5761C30.7864 17.8206 32.6859 17.7172 33.8707 17.3505C34.1998 17.2564 34.4913 17.1718 34.5383 17.1718C34.5759 17.1718 34.6041 22.6727 34.6041 29.3961C34.6041 39.514 34.5853 41.6767 34.4725 41.9306C34.3126 42.3256 33.8519 42.7111 33.4005 42.8427C32.8928 42.9838 3.05617 42.9744 2.49197 42.8333C1.9936 42.7111 1.44821 42.1939 1.31656 41.7238C1.26014 41.5075 1.22253 36.0912 1.22253 26.5093C1.22253 10.0159 1.27895 11.3418 0.611317 11.3418C-0.0469119 11.3418 -0.0092988 10.1194 0.018911 26.8666L0.0471208 41.9494L0.272799 42.4384C0.545494 43.0402 1.22253 43.6984 1.81494 43.9241L2.25689 44.0934V45.25C2.25689 46.3125 2.2757 46.4348 2.45436 46.6135C2.60481 46.7639 2.71765 46.8015 2.95273 46.7545C3.4229 46.6605 3.47932 46.5006 3.47932 45.2688V44.1592H4.37263H5.26594V45.2876C5.26594 46.2937 5.28474 46.4348 5.454 46.604C5.69849 46.8485 6.05581 46.8485 6.3003 46.604C6.46956 46.4348 6.48836 46.2937 6.48836 45.2876V44.1592H7.38167H8.27498V45.2594C8.27498 45.8706 8.3126 46.416 8.35021 46.4724C8.44424 46.6135 8.79216 46.7921 8.97083 46.7921C9.05546 46.7921 9.20591 46.7075 9.30934 46.604C9.4786 46.4348 9.49741 46.2937 9.49741 45.2876V44.1592H10.3907H11.284V45.2782C11.284 46.3784 11.2934 46.4066 11.5285 46.5946C11.8388 46.8391 12.0739 46.8485 12.3184 46.604C12.4877 46.4348 12.5065 46.2937 12.5065 45.2876V44.1592H13.3998H14.2931V45.2406C14.2931 46.2749 14.3025 46.3408 14.5282 46.557C14.8009 46.8391 15.0736 46.8579 15.3274 46.604C15.4967 46.4348 15.5155 46.2937 15.5155 45.2876V44.1592H16.4088H17.3021V45.2406C17.3021 46.2749 17.3115 46.3408 17.5372 46.557C17.8005 46.8297 18.0168 46.8485 18.3177 46.6417C18.5151 46.51 18.5246 46.4348 18.5246 45.3252V44.1592H19.4179H20.3112V45.2406C20.3112 46.2749 20.3206 46.3408 20.5463 46.557C20.8095 46.8297 21.0258 46.8485 21.3267 46.6417C21.5242 46.51 21.5336 46.4348 21.5336 45.3252V44.1592H22.4269H23.3202V45.1653C23.3202 46.2937 23.4237 46.5946 23.8092 46.7357C23.9973 46.8015 24.1195 46.7827 24.2982 46.6605C24.5426 46.51 24.5426 46.4912 24.5426 45.3346V44.1592H25.483H26.4139L26.4421 45.3534C26.4703 46.5476 26.4703 46.5476 26.7336 46.6981C26.9593 46.8203 27.0157 46.8203 27.2508 46.6981C27.5047 46.5476 27.5047 46.5476 27.5329 45.3534L27.5611 44.1592H28.492H29.4323V45.3346C29.4323 46.4912 29.4323 46.51 29.6768 46.6605C29.8555 46.7827 29.9777 46.8015 30.1658 46.7357C30.5513 46.5946 30.6548 46.2937 30.6548 45.1653V44.1592H31.5481H32.4414V45.3252C32.4414 46.4348 32.4508 46.51 32.6483 46.6417C32.9304 46.8391 33.1278 46.8297 33.3911 46.6135C33.598 46.4442 33.6168 46.3502 33.6638 45.2312L33.7108 44.037L34.0964 43.9053C34.6606 43.7172 35.206 43.2001 35.5351 42.5418L35.8266 41.9682V29.255V16.5418L36.3249 16.2033C38.0457 15.0655 39.3904 13.1566 39.9358 11.0879C40.1333 10.3074 40.1803 9.9595 40.1803 8.84991C40.1803 7.73092 40.1427 7.40181 39.9358 6.62133C39.0801 3.39601 36.5318 0.932354 33.3253 0.208302C32.6295 0.0578499 31.0497 -0.0455856 30.4667 0.020237ZM32.573 1.32729C34.2562 1.61879 35.5445 2.29583 36.7669 3.53706C38.0363 4.81591 38.7134 6.2358 38.9391 8.06004C39.3152 11.1067 37.5662 14.2756 34.7264 15.7049C34.4631 15.8365 33.8707 16.0622 33.4099 16.1939C32.2721 16.5324 30.5984 16.5606 29.4982 16.2503C27.9936 15.8271 26.837 15.1407 25.8497 14.1063C24.9 13.1002 24.364 12.1317 23.9596 10.7118C23.6493 9.61158 23.6775 7.93779 24.0161 6.8C24.4486 5.34249 25.1068 4.27992 26.1788 3.28317C27.2508 2.27702 28.6049 1.59999 30.0718 1.3367C31.0403 1.15803 31.5951 1.15803 32.573 1.32729ZM18.4963 9.56456C18.6374 9.62098 19.4367 10.3262 20.2642 11.1443C21.8627 12.7147 22.2671 12.9968 23.1133 13.1002C23.5741 13.1472 23.6023 13.166 23.9408 13.7208C24.7213 14.9902 26.4797 16.476 27.815 16.9931L28.3792 17.2094L28.4168 17.9711C28.4826 19.1935 28.7083 19.5696 30.4103 21.2998C31.2096 22.1085 31.9054 22.889 31.9618 23.03C32.0935 23.3686 32.0935 23.8575 31.9618 24.1866C31.9148 24.3371 31.1908 25.1364 30.3727 25.9639C28.3698 27.9856 28.4638 27.7693 28.398 30.7219L28.351 33.0351L28.0877 33.3736C27.5987 34.0225 27.4859 34.0413 24.9188 34.0977C22.7278 34.1447 22.5962 34.1541 22.1918 34.3704C21.9567 34.4926 21.101 35.2449 20.2642 36.0724C17.9886 38.3198 17.9321 38.3198 15.6566 36.0724C14.8291 35.2637 13.964 34.4926 13.7289 34.3704C13.3245 34.1541 13.2023 34.1447 11.0019 34.0977C8.53828 34.0413 8.38782 34.0131 7.93647 33.5147C7.49451 33.0351 7.47571 32.9317 7.42869 30.5245C7.38167 28.3335 7.37227 28.2018 7.15599 27.7975C7.03375 27.5624 6.27209 26.7067 5.454 25.8698C3.79903 24.1961 3.67678 23.9892 3.87425 23.1993C3.96829 22.8232 4.18456 22.5599 5.54804 21.1682C7.51332 19.1653 7.42869 19.3722 7.42869 16.617C7.43809 14.5013 7.49451 14.0781 7.87064 13.6738C8.28439 13.213 8.46305 13.1754 10.9079 13.1284C13.0895 13.0814 13.2305 13.0626 13.6349 12.8557C13.8699 12.7335 14.6974 12.0094 15.5155 11.1913C16.3242 10.4015 17.1235 9.6868 17.3021 9.61158C17.6971 9.44231 18.1296 9.42351 18.4963 9.56456Z" fill="#3D7761"/>
<path d="M30.9085 1.54358C30.6734 1.80687 30.6828 3.07631 30.9179 3.28318C31.153 3.49006 31.6231 3.48065 31.8112 3.27378C32.0463 3.01049 32.0369 1.74105 31.8018 1.53417C31.5667 1.3273 31.0966 1.33671 30.9085 1.54358Z" fill="#3D7761"/>
<path d="M30.3345 4.49621C30.2029 4.67487 30.1841 5.13563 30.1841 7.6463C30.1841 10.4673 30.1935 10.5989 30.3721 10.7776C30.7859 11.1913 30.9646 11.0785 32.7418 9.30128C34.1899 7.85317 34.4156 7.58988 34.4156 7.33599C34.4156 7.17614 34.3403 6.97867 34.2463 6.89404C33.889 6.56493 33.6727 6.68717 32.5161 7.83437L31.4065 8.94395V6.76239C31.4065 4.33635 31.3971 4.28933 30.7953 4.28933C30.5696 4.28933 30.4286 4.35516 30.3345 4.49621Z" fill="#3D7761"/>
<path d="M24.0446 8.40797C23.8377 8.64305 23.8471 9.11322 24.054 9.30128C24.3173 9.53636 25.5867 9.52696 25.7936 9.29188C26.0005 9.0568 25.9911 8.58663 25.7842 8.39857C25.5209 8.16349 24.2514 8.17289 24.0446 8.40797Z" fill="#3D7761"/>
<path d="M36.9269 8.40797C36.72 8.64305 36.7294 9.11322 36.9363 9.30128C37.1996 9.53636 38.469 9.52696 38.6759 9.29188C38.8828 9.0568 38.8734 8.58663 38.6665 8.39857C38.4032 8.16349 37.1338 8.17289 36.9269 8.40797Z" fill="#3D7761"/>
<path d="M30.9085 14.4261C30.6734 14.6894 30.6828 15.9588 30.9179 16.1657C31.153 16.3726 31.6231 16.3632 31.8112 16.1563C32.0463 15.893 32.0369 14.6236 31.8018 14.4167C31.5667 14.2098 31.0966 14.2192 30.9085 14.4261Z" fill="#3D7761"/>
<path d="M12.9108 16.1469C12.751 16.1939 12.4124 16.4572 12.1586 16.7393C9.61027 19.5226 9.17772 23.6131 11.0678 26.9042C11.6602 27.9292 13.1271 29.3773 14.1332 29.9509C18.0732 32.17 23.0758 31.0228 25.5112 27.3556C26.1036 26.4622 26.1318 25.9263 25.6334 25.3715C25.3419 25.0612 25.2667 25.0235 24.853 25.033C24.6085 25.033 24.0631 25.127 23.6494 25.2492C22.7654 25.5031 21.3267 25.5501 20.4522 25.3621C19.7376 25.2022 19.6906 25.174 19.9257 25.0141C20.0291 24.9389 20.236 24.6098 20.3958 24.2713L20.6873 23.6601L21.3644 23.7165C22.2389 23.7823 22.615 23.6037 22.9253 22.9736C23.2638 22.3154 23.1604 21.8735 22.5116 21.2246L22.0038 20.7169L22.2389 20.1244C22.521 19.4192 22.5304 19.2217 22.2859 18.7234C21.9098 17.9429 21.0447 17.7642 20.1137 18.2814L19.6059 18.5729L19.2768 18.2908C18.3083 17.4539 17.6125 17.4163 16.926 18.1592C16.7285 18.366 16.6909 18.4977 16.6909 18.9866C16.6909 19.3064 16.7097 19.7107 16.738 19.8894C16.785 20.1997 16.7662 20.2279 16.2396 20.5382C15.8258 20.7733 15.6472 20.9519 15.5155 21.234L15.3557 21.6008L15.1018 21.0084C14.688 19.9928 14.5564 19.3628 14.5376 18.1027C14.5188 17.1624 14.4812 16.8615 14.3589 16.664C14.0486 16.1939 13.4656 15.987 12.9108 16.1469ZM13.287 17.8018C13.2117 18.4789 13.4186 19.9364 13.7383 20.8767C14.6692 23.6601 16.879 25.7194 19.7376 26.4528C20.4428 26.6315 20.8848 26.6785 21.7687 26.6785C22.7843 26.6785 23.1604 26.6315 24.5333 26.3212L24.7589 26.2648L24.5427 26.5845C23.5083 28.0702 22.173 29.0481 20.4052 29.6029C19.8128 29.7816 19.5025 29.8192 18.4305 29.8192C16.973 29.8192 16.2772 29.65 15.0454 29.0105C11.3311 27.0829 9.9958 22.3624 12.168 18.7892C12.4595 18.3096 13.2117 17.3599 13.3058 17.3599C13.3246 17.3599 13.3246 17.5574 13.287 17.8018ZM18.4493 19.2405C19.1922 19.8894 19.6154 19.9552 20.4616 19.5226C20.96 19.2687 21.2515 19.1747 21.2515 19.2781C21.2515 19.297 21.1481 19.5508 21.0164 19.8423C20.7626 20.4159 20.7155 20.9143 20.8848 21.2434C20.9412 21.3563 21.2045 21.676 21.4678 21.9393C21.7311 22.212 21.9098 22.4471 21.8627 22.4565C21.8063 22.4659 21.4208 22.4753 20.9976 22.4753C20.0385 22.4847 19.8222 22.6257 19.3897 23.519C19.211 23.8858 19.0418 24.1208 18.9947 24.0738C18.9571 24.0268 18.8537 23.7165 18.7691 23.378C18.534 22.4471 18.045 22.0615 17.1047 22.0615C16.9166 22.0615 16.7097 22.0051 16.6533 21.9299C16.5687 21.8264 16.6533 21.7418 17.0765 21.4879C17.9886 20.9425 18.1484 20.5382 17.9228 19.3064C17.8757 19.0337 17.8757 18.8644 17.9322 18.8644C17.9886 18.8644 18.2237 19.0337 18.4493 19.2405ZM17.4526 23.4156C17.5748 23.5378 17.7065 24.1302 17.6031 24.1302C17.5654 24.1302 17.3021 23.9234 17.02 23.6695L16.5029 23.2087L16.926 23.2557C17.1611 23.2839 17.3962 23.3592 17.4526 23.4156Z" fill="#3D7761"/>
<path d="M0.150452 8.91573C0.0470164 9.05678 0 9.33888 0 9.72441C0 10.2322 0.0376131 10.345 0.244485 10.5519C0.423147 10.74 0.535987 10.7776 0.733455 10.7306C1.12839 10.6365 1.22243 10.4297 1.22243 9.6962C1.22243 9.16022 1.18481 8.99096 1.05317 8.86872C0.799278 8.63363 0.319711 8.66184 0.150452 8.91573Z" fill="#3D7761"/>
</svg>