<svg width="72" height="61" viewBox="0 0 72 61" fill="none" xmlns="http://www.w3.org/2000/svg">
<rect x="0.202637" y="11.7871" width="71.2299" height="48.6738" rx="10" fill="#386641"/>
<path d="M21.8634 38.636V36.998L26.5954 30.628H28.7094V36.928H29.9974V38.636H28.7094V40.624H26.7214V38.636H21.8634ZM26.8754 32.938L23.8794 36.928H26.8754V32.938ZM38.1782 32.28H33.4882V34.772C33.7029 34.52 33.9969 34.3194 34.3702 34.17C34.7529 34.0114 35.1729 33.932 35.6302 33.932C36.3115 33.932 36.8762 34.0814 37.3242 34.38C37.7815 34.6694 38.1175 35.0614 38.3322 35.556C38.5562 36.0414 38.6682 36.5827 38.6682 37.18C38.6682 38.2347 38.3695 39.0794 37.7722 39.714C37.1842 40.3487 36.3395 40.666 35.2382 40.666C34.5195 40.666 33.8942 40.54 33.3622 40.288C32.8302 40.0267 32.4149 39.6674 32.1162 39.21C31.8175 38.7434 31.6542 38.202 31.6262 37.586H33.5442C33.6189 38.006 33.7915 38.342 34.0622 38.594C34.3329 38.8367 34.6922 38.958 35.1402 38.958C35.6815 38.958 36.0829 38.7947 36.3442 38.468C36.6149 38.132 36.7502 37.6887 36.7502 37.138C36.7502 36.6154 36.6102 36.2094 36.3302 35.92C36.0502 35.6307 35.6535 35.486 35.1402 35.486C34.7669 35.486 34.4495 35.57 34.1882 35.738C33.9269 35.8967 33.7355 36.1114 33.6142 36.382H31.6962V30.544H38.1782V32.28ZM41.9276 30.586C42.5809 30.586 43.1129 30.7867 43.5236 31.188C43.9436 31.58 44.1536 32.126 44.1536 32.826C44.1536 33.526 43.9436 34.0767 43.5236 34.478C43.1129 34.87 42.5809 35.066 41.9276 35.066C41.2742 35.066 40.7376 34.87 40.3176 34.478C39.9069 34.0767 39.7016 33.526 39.7016 32.826C39.7016 32.126 39.9069 31.58 40.3176 31.188C40.7376 30.7867 41.2742 30.586 41.9276 30.586ZM48.2556 30.712L42.7536 40.624H40.8496L46.3516 30.712H48.2556ZM41.0316 32.826C41.0316 33.1434 41.1109 33.4 41.2696 33.596C41.4282 33.7827 41.6429 33.876 41.9136 33.876C42.1842 33.876 42.4036 33.7827 42.5716 33.596C42.7396 33.4 42.8236 33.1434 42.8236 32.826C42.8236 32.5087 42.7396 32.2567 42.5716 32.07C42.4036 31.874 42.1842 31.776 41.9136 31.776C41.6429 31.776 41.4282 31.874 41.2696 32.07C41.1109 32.2567 41.0316 32.5087 41.0316 32.826ZM47.1916 36.27C47.8449 36.27 48.3769 36.4707 48.7876 36.872C49.1982 37.264 49.4036 37.81 49.4036 38.51C49.4036 39.21 49.1982 39.7607 48.7876 40.162C48.3769 40.554 47.8449 40.75 47.1916 40.75C46.5382 40.75 46.0016 40.554 45.5816 40.162C45.1709 39.7607 44.9656 39.21 44.9656 38.51C44.9656 37.81 45.1709 37.264 45.5816 36.872C46.0016 36.4707 46.5382 36.27 47.1916 36.27ZM46.2956 38.51C46.2956 38.8367 46.3749 39.098 46.5336 39.294C46.6922 39.4807 46.9069 39.574 47.1776 39.574C47.4482 39.574 47.6676 39.4807 47.8356 39.294C48.0036 39.098 48.0876 38.8367 48.0876 38.51C48.0876 38.1927 48.0036 37.936 47.8356 37.74C47.6676 37.544 47.4482 37.446 47.1776 37.446C46.9069 37.446 46.6922 37.544 46.5336 37.74C46.3749 37.9267 46.2956 38.1834 46.2956 38.51Z" fill="white"/>
<path d="M33.1773 4.3579C34.7748 2.16343 38.0476 2.16343 39.645 4.3579L46.6933 14.04C48.6178 16.6837 46.7294 20.3941 43.4594 20.3941L29.363 20.3941C26.093 20.3941 24.2046 16.6837 26.1291 14.04L33.1773 4.3579Z" fill="#386641"/>
</svg>
