<svg width="31" height="31" viewBox="0 0 31 31" fill="none" xmlns="http://www.w3.org/2000/svg">
<path d="M6.66262 0.176847C6.30348 0.557969 6.55268 1.10767 7.07306 1.10767C7.43219 1.10767 7.63008 0.909775 7.63008 0.543311C7.63008 0.0522487 6.99977 -0.189618 6.66262 0.176847Z" fill="#239371"/>
<path d="M22.8824 1.25427C22.6918 1.46682 22.7138 1.90657 22.919 2.07515C23.1536 2.26571 23.52 2.24372 23.7106 2.0385C23.9158 1.81862 23.9231 1.45216 23.7252 1.25427C23.5273 1.05638 23.0656 1.05638 22.8824 1.25427Z" fill="#239371"/>
<path d="M14.1973 2.91803C11.6834 3.1599 9.55789 3.96612 7.62296 5.40266C6.81674 6.00366 5.52678 7.32293 4.94777 8.14381C1.88413 12.4754 1.83282 18.2289 4.82317 22.5825C6.35499 24.8179 8.73701 26.599 11.2729 27.4052C12.7901 27.8889 13.3325 27.9695 15.2234 27.9622C17.1657 27.9622 17.6568 27.8889 19.2545 27.3539C23.5348 25.9247 26.7524 22.1794 27.5733 17.6865C27.7419 16.7924 27.8005 14.9234 27.6905 14.0366C27.2508 10.4232 25.3892 7.28629 22.4428 5.17545C21.6439 4.60377 20.1267 3.82686 19.2032 3.52636C17.6421 3.01331 15.6705 2.77145 14.1973 2.91803ZM14.7837 4.17867V4.67706L14.2193 4.72837C11.6687 4.95557 9.43329 6.00366 7.59364 7.84331C5.76865 9.67564 4.66193 11.999 4.4787 14.403L4.42739 15.0333H3.91434H3.40129L3.4526 14.425C3.86304 9.53638 7.49836 5.2634 12.2917 4.03941C12.9074 3.8855 14.0801 3.69494 14.5491 3.68028L14.7837 3.67295V4.17867ZM16.6893 3.77556C19.8482 4.20066 22.7433 5.90105 24.6562 8.47363C25.9022 10.1447 26.7524 12.3728 26.921 14.425L26.9723 15.0333H26.4592H25.9462L25.8949 14.3884C25.8069 13.2157 25.4918 12.0577 24.9274 10.8557C23.293 7.40356 19.9655 5.07284 16.1543 4.72837L15.5899 4.67706V4.17867C15.5899 3.585 15.5019 3.62164 16.6893 3.77556ZM16.8066 5.61521C22.5381 6.60466 26.2833 12.2775 24.8688 17.8331C23.9013 21.6444 20.8816 24.4955 17.0044 25.2724C16.1176 25.4483 14.256 25.4483 13.3691 25.2724C9.26472 24.4515 6.09114 21.2413 5.35821 17.1588C5.19697 16.228 5.18964 14.6962 5.35821 13.7874C5.60008 12.4241 6.18642 10.9802 6.96332 9.82955C7.45439 9.10395 8.62707 7.90928 9.36733 7.37424C10.5473 6.52404 12.0718 5.87906 13.501 5.62254C14.2999 5.48328 15.993 5.47595 16.8066 5.61521ZM4.44938 16.184C4.44938 16.3819 4.50068 16.8364 4.55932 17.1955C5.19697 21.124 7.97477 24.3928 11.742 25.6535C12.6142 25.9467 13.6843 26.1739 14.19 26.1739C14.747 26.1739 14.7837 26.2105 14.7837 26.7455V27.222L14.1094 27.178C12.8561 27.09 11.4855 26.7089 10.1662 26.0859C6.39164 24.3122 3.79707 20.5743 3.4526 16.4406L3.40129 15.8396H3.929H4.44938V16.184ZM26.9283 16.4552C26.6131 20.5376 23.9746 24.3122 20.1927 26.1006C18.8881 26.7089 17.5102 27.09 16.2715 27.178L15.5899 27.222V26.7382V26.2545L15.8318 26.2178C15.9564 26.1959 16.2788 26.1592 16.5427 26.1372C17.195 26.0786 18.375 25.7781 19.1299 25.4849C21.8418 24.4222 24.0699 22.2307 25.1619 19.5482C25.5211 18.6613 25.8509 17.3347 25.9022 16.5139L25.9462 15.8396H26.4592H26.9723L26.9283 16.4552Z" fill="#239371"/>
<path d="M14.1608 6.89789C11.2437 7.27901 8.72245 9.07468 7.45448 11.6912C5.52688 15.6564 6.8828 20.3911 10.6061 22.7438C11.9253 23.572 13.208 23.9678 14.7911 24.0264C17.349 24.129 19.4965 23.3008 21.2775 21.5271C23.9161 18.9033 24.5464 14.8868 22.8533 11.5373C21.688 9.2286 19.4672 7.53553 16.8946 7.01515C16.191 6.86857 14.8351 6.80993 14.1608 6.89789ZM16.3229 7.74075C19.6577 8.24647 22.3036 10.8264 22.8826 14.1466C23.6082 18.2949 20.7791 22.3407 16.5941 23.1323C15.8465 23.2715 14.5272 23.2715 13.7797 23.1323C10.7453 22.5606 8.34865 20.2738 7.57908 17.2395C7.44715 16.7191 7.42516 16.404 7.42516 15.4365C7.43249 14.4104 7.45448 14.1759 7.62305 13.5529C8.23139 11.2661 9.70457 9.47047 11.8154 8.43704C13.2519 7.73342 14.7545 7.49889 16.3229 7.74075Z" fill="#239371"/>
<path d="M14.6371 8.35639C14.3586 8.50297 14.0508 9.00869 14.0508 9.3092C14.0581 9.63168 14.322 10.1081 14.5785 10.2693C14.8717 10.4452 15.4287 10.4672 15.7365 10.306C16.2569 10.0348 16.4475 9.35317 16.1616 8.8108C15.8758 8.25378 15.1942 8.05589 14.6371 8.35639ZM15.4727 9.1846C15.6486 9.47044 15.1502 9.76361 14.9303 9.49976C14.7764 9.31652 14.9523 9.00869 15.2015 9.03801C15.3041 9.05267 15.4287 9.11863 15.4727 9.1846Z" fill="#239371"/>
<path d="M12.9511 11.8231C11.5145 12.0576 11.2067 12.1309 11.1041 12.2629C10.9795 12.3948 10.9722 12.6586 10.9722 15.3265C10.9722 17.9944 10.9795 18.2582 11.1041 18.3975C11.1994 18.5147 11.6245 18.6393 13.149 18.9912C14.2044 19.233 15.1279 19.4309 15.2012 19.4309C15.2745 19.4309 16.1906 19.233 17.2387 18.9912C18.7632 18.6393 19.1736 18.5221 19.2763 18.3975C19.3935 18.2582 19.4008 17.9944 19.4008 15.3265C19.4008 12.6586 19.3935 12.3948 19.2763 12.2555C19.1663 12.1236 18.8731 12.0576 17.3267 11.8084C16.3299 11.6472 15.3184 11.5226 15.0912 11.5226C14.864 11.5299 13.8966 11.6619 12.9511 11.8231ZM16.3665 12.4901C16.3885 12.5047 16.11 12.556 15.7582 12.6073C15.2378 12.6733 14.9959 12.6733 14.5269 12.5927L13.9405 12.4974L14.4902 12.4021C14.7907 12.3508 15.0692 12.2995 15.1132 12.2922C15.2012 12.2702 16.3225 12.4461 16.3665 12.4901ZM13.3688 13.2083L14.7834 13.4429V13.6628C14.7834 13.8606 14.7687 13.8753 14.5855 13.8387C14.4682 13.8167 13.7939 13.7067 13.083 13.5895L11.7784 13.3842V13.179C11.7784 13.0691 11.8224 12.9811 11.8663 12.9811C11.9176 12.9811 12.5919 13.0837 13.3688 13.2083ZM18.5946 13.1864V13.3916L17.2973 13.5968C16.5791 13.7067 15.9048 13.8167 15.7948 13.8387C15.6116 13.8753 15.5896 13.8606 15.5896 13.6628V13.4429L16.9309 13.223C18.6679 12.9298 18.5946 12.9372 18.5946 13.1864ZM13.3542 14.447C14.1018 14.5643 14.7321 14.6669 14.7468 14.6669C14.7687 14.6669 14.7834 14.8281 14.7834 15.0333C14.7834 15.2752 14.7541 15.3998 14.6954 15.3998C14.6441 15.3998 13.9698 15.2972 13.1929 15.1726L11.7784 14.9381V14.5862C11.7784 14.3151 11.8077 14.2271 11.8883 14.2271C11.947 14.2271 12.6066 14.3224 13.3542 14.447ZM18.5946 14.5423V14.8574L17.2973 15.0993C16.5791 15.2312 15.9048 15.3558 15.7948 15.3778C15.5896 15.4145 15.5896 15.4145 15.5896 15.048V14.6742L15.9414 14.6229C16.132 14.5936 16.7183 14.4983 17.2387 14.4103C18.6313 14.1685 18.5946 14.1612 18.5946 14.5423ZM18.5946 16.7777V17.8624L17.1874 18.1776C16.4178 18.3535 15.7362 18.5074 15.6849 18.5294C15.6116 18.5587 15.5896 18.3315 15.5896 17.4007V16.2353L16.9309 15.9715C17.6638 15.8249 18.3381 15.7076 18.4334 15.7003C18.5946 15.693 18.5946 15.7003 18.5946 16.7777ZM13.3395 16.0008L14.7834 16.2353V17.386V18.5367L14.219 18.4048C13.9039 18.3388 13.2296 18.1849 12.7165 18.0677L11.7784 17.8551V16.8144C11.7784 16.2353 11.8004 15.7663 11.837 15.7663C11.8663 15.7663 12.5406 15.8689 13.3395 16.0008Z" fill="#239371"/>
<path d="M8.45112 14.5057C7.7475 14.9894 7.80614 16.0668 8.55373 16.4406C9.03746 16.6898 9.66045 16.5432 9.96828 16.1181C10.1588 15.8543 10.2175 15.268 10.0709 14.9894C9.85101 14.5717 9.61647 14.4178 9.11808 14.3884C8.75895 14.3738 8.61969 14.3958 8.45112 14.5057ZM9.24268 15.224C9.38926 15.3632 9.38926 15.5758 9.25001 15.6931C9.11075 15.8103 8.92019 15.759 8.79559 15.5685C8.70031 15.4292 8.70764 15.3926 8.83957 15.2606C9.0228 15.0774 9.09609 15.0701 9.24268 15.224Z" fill="#239371"/>
<path d="M20.7131 14.5423C20.3686 14.7695 20.1927 15.136 20.2294 15.5537C20.3466 16.9683 22.4062 16.8583 22.4062 15.4438C22.4062 15.026 22.2523 14.7329 21.9224 14.513C21.6146 14.3151 21.0356 14.3224 20.7131 14.5423ZM21.446 15.1799C21.6513 15.2826 21.6952 15.4731 21.556 15.627C21.4094 15.7883 21.2262 15.8029 21.1016 15.6783C20.977 15.5537 20.9916 15.3998 21.1382 15.2386C21.2775 15.0847 21.2775 15.0847 21.446 15.1799Z" fill="#239371"/>
<path d="M14.7469 20.5596C14.0139 20.8821 13.8454 21.8935 14.4464 22.4212C15.4651 23.3154 16.9237 21.9302 16.0515 20.8894C15.707 20.4863 15.2013 20.3617 14.7469 20.5596ZM15.3992 21.3805C15.4651 21.4391 15.5164 21.5417 15.5164 21.593C15.5164 21.7103 15.3185 21.9228 15.2086 21.9228C15.0913 21.9228 14.8568 21.6956 14.8568 21.5857C14.8568 21.4611 15.062 21.2632 15.1866 21.2632C15.2379 21.2632 15.3405 21.3145 15.3992 21.3805Z" fill="#239371"/>
<path d="M28.0128 2.93267C27.3239 3.1159 26.6789 3.70225 26.4664 4.34722C26.3051 4.84561 26.3564 5.64451 26.5763 6.07693C26.9794 6.86117 27.771 7.30093 28.6725 7.24962C29.5153 7.19099 30.1603 6.77322 30.5195 6.03296C30.7906 5.4686 30.8053 4.69903 30.5414 4.14933C30.3216 3.69492 29.8891 3.26249 29.4714 3.07926C29.1122 2.91801 28.35 2.84472 28.0128 2.93267ZM29.1489 3.83417C29.8305 4.18598 30.131 5.00686 29.7939 5.64451C29.5373 6.15023 29.1635 6.40675 28.6432 6.4434C27.7783 6.50936 27.17 5.93035 27.17 5.04351C27.17 4.62574 27.3532 4.25194 27.705 3.95877C28.0715 3.65094 28.6798 3.59964 29.1489 3.83417Z" fill="#239371"/>
<path d="M1.03391 6.54588C0.858012 6.6265 0.711426 6.89769 0.711426 7.12489C0.711426 7.3521 1.03391 7.63062 1.29777 7.63062C1.56162 7.63062 1.88411 7.3521 1.88411 7.12489C1.88411 6.88303 1.7302 6.6265 1.53964 6.53855C1.32709 6.44327 1.23913 6.44327 1.03391 6.54588Z" fill="#239371"/>
<path d="M29.1491 11.6106C28.8925 11.7425 28.7899 12.1749 28.9585 12.4241C29.0904 12.6367 29.3543 12.7246 29.6255 12.6587C30.0799 12.5414 30.1532 11.8451 29.7354 11.6252C29.4789 11.4933 29.3836 11.4933 29.1491 11.6106Z" fill="#239371"/>
<path d="M0.865215 20.0614C0.667324 20.3106 0.667324 20.5305 0.865215 20.7797C0.982484 20.9262 1.07776 20.9702 1.29764 20.9702C1.51752 20.9702 1.6128 20.9262 1.73007 20.7797C1.81802 20.6697 1.88399 20.5085 1.88399 20.4205C1.88399 20.3326 1.81802 20.1713 1.73007 20.0614C1.6128 19.9148 1.51752 19.8708 1.29764 19.8708C1.07776 19.8708 0.982484 19.9148 0.865215 20.0614Z" fill="#239371"/>
<path d="M28.3063 23.6454C28.0865 23.8652 28.0718 24.1144 28.277 24.371C28.5995 24.7814 29.2958 24.5322 29.2958 24.0118C29.2958 23.5134 28.6655 23.2789 28.3063 23.6454Z" fill="#239371"/>
<path d="M2.45572 24.9352C0.887251 25.1551 -0.24146 26.7236 0.0443825 28.2847C0.220285 29.2375 0.813958 30.0364 1.65683 30.4469C2.10391 30.6594 2.19186 30.6814 2.91013 30.6814C3.6284 30.6814 3.70903 30.6667 4.15611 30.4469C4.955 30.0584 5.4534 29.4794 5.70259 28.6512C6.0544 27.4932 5.67328 26.2545 4.73513 25.5142C4.10481 25.0159 3.31324 24.818 2.45572 24.9352ZM3.84095 25.9247C4.91836 26.4451 5.34346 27.757 4.77177 28.8124C4.52991 29.2668 4.25872 29.5087 3.72368 29.7506C3.39387 29.9045 3.25461 29.9265 2.80752 29.8972C2.15522 29.8532 1.79608 29.6773 1.34167 29.1789C0.821287 28.5925 0.674701 27.9622 0.89458 27.222C1.2757 25.9467 2.63895 25.3457 3.84095 25.9247Z" fill="#239371"/>
<path d="M8.83947 28.6585C8.7222 28.7538 8.6709 28.8711 8.6709 29.0543C8.6709 29.4208 8.86879 29.6187 9.22792 29.6187C9.58706 29.6187 9.79961 29.4134 9.79961 29.069C9.79961 28.5779 9.23525 28.336 8.83947 28.6585Z" fill="#239371"/>
<path d="M20.7203 29.3988C20.3831 29.7359 20.6543 30.3516 21.138 30.3516C21.6364 30.3516 21.9003 29.7652 21.5631 29.3988C21.3799 29.2009 20.9182 29.2009 20.7203 29.3988Z" fill="#239371"/>
</svg>
