<svg width="50" height="50" viewBox="0 0 50 50" fill="none" xmlns="http://www.w3.org/2000/svg">
<path d="M27.5768 0.0657539C30.7456 0.449699 33.3443 1.19566 36.0307 2.51204C43.5636 6.2089 48.75 13.449 49.8355 21.7423C50.0548 23.4207 50.0548 26.58 49.8355 28.2584C48.761 36.5517 43.5636 43.7918 36.0307 47.4887C33.7939 48.5857 31.864 49.211 29.2763 49.7046C27.5658 50.0227 23.7719 50.0995 21.8421 49.8582C19.0461 49.4962 16.5241 48.7392 13.9693 47.4887C6.44737 43.7918 1.23904 36.5407 0.164474 28.2584C-0.0548248 26.58 -0.0548248 23.4207 0.164474 21.7423C0.51535 19.0327 1.29386 16.4658 2.52193 13.9646C6.22807 6.40636 13.4211 1.2505 21.7544 0.153511C22.9167 -6.48499e-05 26.6009 -0.0549164 27.5768 0.0657539ZM22.2588 1.09692C17.9496 1.5796 13.4868 3.44448 10.0329 6.18696C8.9364 7.05359 7.22588 8.76489 6.30482 9.91673C3.50877 13.3832 1.74342 17.5189 1.14035 21.9288C0.822369 24.3422 0.986843 27.7977 1.53509 30.2659C2.10526 32.8219 3.50877 36.1129 4.92324 38.2191C6.22807 40.1717 8.25658 42.3877 9.97807 43.7699C13.3662 46.4794 17.511 48.2456 21.9298 48.8709C23.2785 49.0574 26.5241 49.0793 27.7961 48.9148C31.5789 48.4102 35.1645 47.0938 38.1579 45.0972C39.682 44.088 40.5154 43.4188 41.8202 42.1354C45.7566 38.274 48.2346 33.2278 48.9035 27.7428C49.0461 26.5471 49.0461 23.4536 48.9035 22.2579C48.5746 19.5264 47.7632 16.8387 46.5351 14.3815C44.1338 9.54375 40.4496 5.85787 35.636 3.45546C31.4364 1.37117 26.9298 0.57037 22.2588 1.09692Z" fill="#3D7761"/>
<path d="M27.248 3.18122C34.748 3.96008 41.3489 8.57841 44.6822 15.3798C47.6647 21.4571 47.6647 28.5327 44.6932 34.599C41.305 41.4991 34.748 46.0516 27.0945 46.8305C20.8225 47.4558 14.4958 45.2618 9.89053 40.8629C2.94974 34.2261 1.10764 23.9802 5.31816 15.3798C7.47825 10.9699 10.9761 7.47046 15.384 5.30938C19.0462 3.51032 23.2239 2.76436 27.248 3.18122ZM25.5484 4.92544C25.5484 5.72624 25.5265 5.814 25.2853 5.96758C25.0769 6.11019 24.9673 6.12115 24.7918 6.02243C24.5835 5.91273 24.5616 5.80303 24.5616 4.96931V4.0259L23.6515 4.10269C19.9344 4.39888 16.5462 5.55072 13.5418 7.52531C12.555 8.17253 10.6361 9.71929 10.6361 9.85093C10.6361 9.89481 10.8664 10.1471 11.1405 10.4104C11.7765 11.0466 11.8861 11.2331 11.7326 11.5074C11.5243 11.9023 11.0857 11.7816 10.4388 11.1454L9.85764 10.5749L9.52869 10.9589C7.25895 13.6246 5.88834 16.0489 5.00018 18.9998C4.59448 20.3382 4.19974 22.5212 4.14492 23.7608L4.10106 24.5506L5.03307 24.5835C5.76772 24.6055 5.97606 24.6603 6.07474 24.8029C6.16246 24.9455 6.16246 25.0552 6.07474 25.1869C5.97606 25.3514 5.76772 25.3953 5.00018 25.4172L4.04623 25.4501L4.11202 26.2948C4.4958 30.9132 6.09667 34.9281 8.98044 38.4056C9.41904 38.9431 9.80281 39.371 9.84667 39.371C9.89053 39.371 10.1756 39.1187 10.4717 38.8225C11.0747 38.2191 11.5243 38.0984 11.7326 38.4934C11.8861 38.7676 11.7765 38.9541 11.1405 39.5904C10.8664 39.8536 10.6361 40.1059 10.6361 40.1498C10.6361 40.2047 11.0638 40.5886 11.5901 41.0274C15.0879 43.9125 19.1011 45.536 23.6515 45.8981L24.5616 45.9748V45.0314C24.5616 44.2087 24.5835 44.0771 24.7809 43.9783C25.0331 43.8467 25.373 43.9783 25.4826 44.2635C25.5155 44.3513 25.5484 44.7791 25.5484 45.207V45.9748L26.3927 45.8981C31.1515 45.5031 35.5484 43.6383 38.9256 40.5996L39.419 40.1608L38.8379 39.5574C38.3554 39.0748 38.2568 38.8993 38.2897 38.6469C38.3116 38.3837 38.3774 38.3178 38.6405 38.2959C38.8927 38.263 39.0682 38.3617 39.5506 38.8444L40.1537 39.4258L40.5923 38.9322C43.498 35.707 45.3401 31.5275 45.8225 27.0627C46.0199 25.2856 46.0967 25.4392 45.0111 25.4392C44.1997 25.4392 44.0682 25.4172 43.9695 25.2198C43.8818 25.0662 43.8818 24.9346 43.9695 24.781C44.0682 24.5835 44.1997 24.5616 45.0111 24.5616C46.0967 24.5616 46.0199 24.7152 45.8225 22.938C45.3401 18.4733 43.498 14.3047 40.5923 11.0686L40.1537 10.5749L39.5506 11.1563C39.0682 11.639 38.8927 11.7378 38.6405 11.7048C38.3774 11.6829 38.3116 11.6171 38.2897 11.3538C38.2568 11.1015 38.3554 10.926 38.8379 10.4433L39.419 9.83996L38.8708 9.35728C37.4782 8.10671 35.4607 6.76838 33.7831 6.00049C31.4695 4.93641 28.2677 4.14657 25.9541 4.05881L25.5484 4.04784V4.92544Z" fill="#3D7761"/>
<path d="M25.91 9.11595C26.239 9.67541 27.478 11.8255 28.6622 13.8879C30.9758 17.9028 31.1074 18.21 30.4495 18.2868C30.274 18.3087 29.0789 17.9467 27.5767 17.4202L24.9999 16.5206L22.5657 17.3763C21.217 17.848 19.989 18.2649 19.8245 18.3087C19.4846 18.4075 19.0789 18.1771 19.0789 17.8919C19.0898 17.7931 20.3289 15.5553 21.853 12.9335C24.5065 8.33708 24.6271 8.16156 24.967 8.12865C25.296 8.09574 25.3398 8.13962 25.91 9.11595ZM22.8837 13.2187C21.7543 15.1933 20.8442 16.8168 20.8662 16.8388C20.8881 16.8607 21.8311 16.5645 22.9605 16.1696L25.0109 15.4566L27.0504 16.1696C28.1688 16.5645 29.1118 16.8607 29.1447 16.8388C29.1995 16.7839 25.0986 9.6425 25.0109 9.6425C24.978 9.6425 24.0131 11.2551 22.8837 13.2187Z" fill="#3D7761"/>
<path d="M30.1205 20.9305C32.8507 21.9507 35.1533 22.8393 35.252 22.9161C35.3946 23.0367 35.4165 23.8485 35.4165 29.3335C35.4165 34.226 35.3836 35.6412 35.274 35.718C35.0985 35.8606 25.1533 39.9194 24.9998 39.9194C24.8354 39.9194 14.9012 35.8606 14.7148 35.718C14.6161 35.6412 14.5832 34.226 14.5832 29.3225V23.0258L14.8244 22.8722C15.1095 22.6857 24.8463 19.0766 25.0437 19.0876C25.1095 19.0876 27.4012 19.9213 30.1205 20.9305ZM20.7783 21.6655C18.5415 22.4882 16.6884 23.1903 16.6446 23.2342C16.5898 23.2781 18.4538 24.0899 20.7783 25.0442L24.9998 26.7665L29.2104 25.0442C31.5349 24.0899 33.4099 23.2781 33.377 23.2452C33.2674 23.1355 25.274 20.1955 25.0547 20.1846C24.9341 20.1736 23.0042 20.8428 20.7783 21.6655ZM29.8354 25.8779L25.4384 27.677V28.763C25.4384 29.3554 25.4823 29.8271 25.5262 29.8052C25.581 29.7832 27.6095 28.9605 30.0218 27.9622L34.4297 26.1522V25.0771C34.4297 24.4738 34.3858 24.0131 34.331 24.035C34.2762 24.046 32.2476 24.8797 29.8354 25.8779ZM15.57 25.0771V26.1522L19.9669 27.9622C22.3902 28.9605 24.4077 29.7832 24.4626 29.8052C24.5174 29.8271 24.5612 29.3554 24.5612 28.763V27.688L20.1424 25.856C17.7191 24.8577 15.7016 24.035 15.6468 24.024C15.6029 24.0131 15.57 24.4957 15.57 25.0771ZM29.9012 29.1031C27.4889 30.1014 25.5042 30.9241 25.4823 30.957C25.4604 30.979 25.4494 32.7341 25.4604 34.8513L25.4933 38.7018L29.956 36.8698L34.4297 35.0378V31.1654C34.4297 29.0483 34.3968 27.304 34.3419 27.304C34.2981 27.304 32.3025 28.1158 29.9012 29.1031ZM15.57 31.1654V35.0378L19.5941 36.6833C21.7981 37.5828 23.8266 38.4166 24.0898 38.5153L24.5612 38.7127L24.5393 34.8075L24.5064 30.9131L20.1753 29.125C17.7959 28.1377 15.7784 27.315 15.7016 27.315C15.6029 27.304 15.57 28.1487 15.57 31.1654Z" fill="#3D7761"/>
</svg>
