<svg width="51" height="29" viewBox="0 0 51 29" fill="none" xmlns="http://www.w3.org/2000/svg">
<g clip-path="url(#clip0_3526_21836)">
<path d="M25.5 21.2819V23.6957L0 13.1067V8.87109L25.5 21.2819Z" fill="#209371"/>
<path d="M25.5 21.1624V13.0548L12.3144 1.47358C11.8094 1.03052 11.2448 0.655884 10.6265 0.395008C8.68906 -0.423544 6.99008 0.0229383 5.54148 1.80117L0 8.76528L25.5 21.1624Z" fill="white"/>
<path d="M25.5 23.8029V24.5325L2.02941 16.5044C0.750276 16.0143 -0.103897 15.3839 0.011071 14.4362L0 13.1797L25.5 23.8029Z" fill="#0F6D70"/>
<path d="M7.20901 18.4629L5.8873 24.9848C5.8098 25.3654 5.75956 25.752 5.7536 26.1403C5.72464 28.04 6.63758 28.9929 8.4941 28.9997C8.9906 29.0014 9.48539 28.9236 9.964 28.7919L25.3664 24.57L7.20986 18.4629H7.20901Z" fill="#209371"/>
<path d="M25.5 21.2819V23.6957L51 13.1067V8.87109L25.5 21.2819Z" fill="#209371"/>
<path d="M25.5 21.1623V13.0546L38.6848 1.4734C39.1898 1.03034 39.7544 0.655704 40.3727 0.394828C42.3109 -0.423724 44.0099 0.0236144 45.4585 1.80099L51 8.76595L25.5 21.1631V21.1623Z" fill="white"/>
<path d="M25.4999 23.804V24.5336L48.9705 16.5055C50.2496 16.0154 51.1038 15.385 50.9888 14.4373L50.999 13.1816L25.499 23.8049L25.4999 23.804Z" fill="#0F6D70"/>
<path d="M43.7902 18.4629L45.1119 24.9848C45.1894 25.3654 45.2396 25.752 45.2456 26.1403C45.2745 28.04 44.3616 28.9929 42.5051 28.9997C42.0086 29.0014 41.5138 28.9236 41.0352 28.7919L25.6328 24.57L43.7893 18.4629H43.7902Z" fill="#209371"/>
</g>
<defs>
<clipPath id="clip0_3526_21836">
<rect width="51" height="29" fill="white"/>
</clipPath>
</defs>
</svg>
