<svg xmlns="http://www.w3.org/2000/svg" width="54" height="52" viewBox="0 0 54 52" fill="none">
  <path d="M11.4254 2.19478C7.49407 4.18469 5.50416 5.64072 6.03804 6.12607C6.37778 6.46581 16.2303 1.12703 16.4244 0.544614C16.7156 -0.377538 15.9876 -0.134867 11.4254 2.19478Z" fill="#346652"/>
  <path d="M25.0152 0.204937C24.7725 0.253471 23.5592 0.641747 22.3458 0.981487C19.8706 1.7095 11.7653 5.68932 10.7946 6.61147C10.4549 6.95121 9.92103 7.24242 9.67836 7.24242C9.04741 7.24242 7.78552 10.2516 7.78552 11.7561C7.78552 12.7753 8.80474 13.8916 12.008 16.2213C12.4934 16.6096 11.8139 17.4346 8.90181 19.8614C5.11613 23.0161 3.46596 23.8897 2.15553 23.4044C0.893637 22.919 1.47605 21.9969 3.6601 20.9291C4.87346 20.3467 5.84414 19.6672 5.84414 19.376C5.84414 19.1333 6.28095 18.8907 6.81483 18.8907C7.63991 18.8907 7.78552 18.5509 7.78552 16.7066C7.78552 14.9109 7.63991 14.5226 6.86336 14.5226C5.84414 14.5226 5.3588 15.4447 5.3588 17.3376C5.3588 18.3568 4.87346 18.9392 3.17475 19.9584C1.96139 20.6864 0.990705 21.1232 0.990705 20.8806C0.990705 20.6379 1.33045 19.3275 1.81579 17.9685C2.34967 16.2698 2.83501 15.4933 3.41742 15.4933C4.48518 15.4933 5.16466 14.6682 5.65 12.8239C5.98975 11.3678 5.98975 11.3678 4.97052 12.2415C2.73794 14.2314 2.3982 11.2222 4.43665 7.04828C5.40733 5.00984 5.3588 4.28183 4.29104 5.34958C2.78648 6.90268 1.42751 10.7369 1.52458 13.2121C1.57312 14.6682 1.28191 16.561 0.796568 17.6288C-0.416791 20.4923 -0.222654 23.55 1.23338 24.9575C1.86432 25.6369 2.64087 26.1708 2.93208 26.1708C3.22329 26.1708 3.07768 26.7532 2.54381 27.4813C-0.222654 31.4125 -0.805066 36.266 1.23338 38.4986C1.86432 39.178 2.68941 39.7604 3.07768 39.7604C3.56303 39.7604 3.85423 40.4885 3.99984 41.896C4.33958 44.9051 5.65 46.4097 8.56207 47.2833C10.7946 47.9628 11.3285 47.9628 14.3377 47.2833C16.1334 46.8465 18.4631 46.0699 19.5308 45.536L21.3751 44.6139V46.9435C21.3751 49.8071 22.637 51.4087 24.8211 51.4087C26.083 51.4087 27.0051 50.7292 30.0628 47.5745C32.3924 45.0992 34.8192 43.1578 36.6149 42.1872L39.527 40.6826L40.1579 41.896C40.886 43.3035 43.5553 44.0315 45.0599 43.2064C46.3703 42.4784 46.9528 42.5269 46.2247 43.2549C45.885 43.5947 45.6423 44.5653 45.6423 45.4875C45.6423 46.7494 45.8365 47.0891 46.4674 46.9435C46.9528 46.8465 47.3896 46.3611 47.4866 45.8758C47.6322 45.3419 47.4866 45.0992 47.1469 45.2934C46.4189 45.7787 46.5159 43.8373 47.341 41.4591C48.3602 38.6442 48.1176 26.0738 46.8071 14.1343C46.5159 11.6105 46.613 11.1252 47.244 11.1252C47.8264 11.1252 47.8749 10.7854 47.5837 9.52354C47.0498 7.19389 45.7394 4.33036 45.2541 4.33036C44.429 4.33036 44.2834 6.12613 44.7202 11.7076C44.9628 14.7167 45.3511 20.1526 45.6423 23.7441C45.885 27.3356 46.2247 32.2862 46.4189 34.7129C46.7586 39.081 46.7101 39.178 45.4967 39.9546C44.7202 40.4885 43.8466 40.6826 43.0215 40.4399C41.8081 40.1487 41.8081 40.1002 42.4876 38.7412C43.2156 37.3823 43.4583 33.6936 42.9244 32.2862C42.3905 30.8301 40.8374 30.3448 39.7697 31.3155C39.0416 31.9464 38.8475 32.82 38.8475 35.1497V38.1588L35.6928 39.809C33.4117 40.9738 31.5188 42.4784 29.0436 45.2448C25.9859 48.5452 25.355 49.0305 24.0445 48.8849C22.7341 48.7393 22.5885 48.5452 22.4429 46.7979C22.3458 45.2934 22.637 44.3712 23.5592 42.9152C25.2094 40.537 25.5491 38.5471 24.7725 35.3924C24.3357 33.5966 24.3357 32.7715 24.6755 32.5288C25.0152 32.3347 24.7725 31.4611 23.9475 30.0536L22.6856 27.9181L21.9576 29.4712C21.3751 30.636 21.3266 31.2669 21.7149 32.092C23.1224 35.0526 23.9475 38.4986 23.5592 39.7604C22.7341 42.4298 13.2699 45.5846 9.43569 44.5653C7.68845 44.0315 6.08681 42.4298 5.69854 40.6826C5.40733 39.6148 5.79561 39.0324 8.12526 36.8484C10.649 34.4702 16.3761 31.0243 17.8807 31.0243C19.3367 31.0243 21.0839 28.6461 21.3266 26.3164L21.6178 23.9868L22.7341 25.7825C23.365 26.8018 24.4813 27.9666 25.2579 28.4519C26.5683 29.2285 26.6654 29.4226 26.9566 34.2761C27.1507 37.0425 27.1993 40.3914 27.1022 41.7018C26.9566 43.0608 27.0051 44.1285 27.1993 44.1285C28.17 44.1285 28.6553 41.1194 28.6553 35.3924C28.6553 29.1314 28.6553 29.0829 29.7716 29.0829C30.4025 29.0829 31.5188 28.4519 32.2468 27.6754L33.6058 26.2194L33.3146 19.7643C33.1205 16.2213 32.8778 11.9017 32.7322 10.203C32.538 8.01897 32.5866 7.24242 32.9749 7.43656C33.7514 7.9219 33.6543 5.93199 32.7322 3.35967C32.2954 2.14631 31.8586 0.884418 31.7615 0.496143C31.5674 -0.037735 31.3732 0.0593338 30.7908 0.835884C30.1599 1.80657 30.1599 2.72873 30.8879 10.0089C31.3247 14.5226 31.7615 19.8128 31.9071 21.8513L32.1498 25.5399L30.5967 26.1708C29.7231 26.5106 28.898 26.6076 28.6553 26.365C28.4612 26.1223 28.1214 23.8412 27.9273 21.3174C27.6361 17.0464 27.6361 16.7552 28.4126 17.4832C28.8494 17.92 29.4804 19.0848 29.8201 20.104C30.4511 21.8027 30.4996 21.8998 30.8393 20.8806C31.3247 19.2304 29.7231 15.833 28.6068 16.1242C27.8787 16.3183 27.6846 15.9786 27.4419 14.0858C27.2963 12.8724 27.0537 11.1737 26.9566 10.3972C26.7625 9.03819 26.7625 8.98966 27.4419 9.86328C28.6068 11.3678 28.8494 10.3972 27.9273 8.01897C27.1022 5.88346 27.1022 5.78639 28.1214 4.5245C28.7038 3.79648 29.1406 2.53459 29.1406 1.61243C29.1406 0.0107994 29.0921 -0.037735 27.3449 0.0107994C26.3256 0.0107994 25.3064 0.107868 25.0152 0.204937ZM27.5875 3.21407C27.4905 3.69941 27.1022 4.08769 26.7139 4.08769C25.452 4.13622 24.7725 4.8157 24.7725 6.17466C24.7725 6.90268 24.4328 7.9219 24.0445 8.40725C23.6563 8.94112 23.3165 9.81474 23.3165 10.3486C23.365 11.3193 23.4136 11.2708 23.996 10.203L24.6269 9.03819L24.9667 10.3486C25.2579 11.6105 26.18 22.191 26.2286 24.7148V25.9282L24.8696 24.4721C24.1416 23.647 22.9282 22.1425 22.1032 21.0747C21.3266 20.007 20.3559 18.8421 19.9191 18.5024C19.2882 17.92 19.3367 17.8714 20.4045 18.0656C21.0839 18.1627 21.9576 18.4539 22.3944 18.5995C23.5107 19.0848 24.0445 16.4154 22.9768 15.7359C20.9869 14.474 19.8706 13.1636 19.6279 11.7076C19.3852 10.4942 19.4823 10.1545 20.1132 10.1545C21.1325 10.1545 21.0839 9.71767 19.9191 8.21311C19.3852 7.53363 18.9484 6.75708 18.9484 6.41734C18.9484 6.12613 18.6572 5.78639 18.366 5.64079C17.4439 5.34958 17.8321 5.15544 22.1032 3.74795C26.811 2.19485 27.8302 2.09778 27.5875 3.21407ZM16.91 6.66001C16.6673 7.58216 17.2012 12.3385 17.6865 13.5519C18.1233 14.6196 16.2305 15.7359 15.3569 14.9109C14.095 13.6975 12.8816 12.8239 11.0373 11.659C8.80474 10.3001 8.95034 10.0574 13.6096 7.53363C17.2983 5.49518 17.2012 5.54372 16.91 6.66001ZM15.9393 19.7158C17.4924 21.2203 19.7735 24.4236 20.1132 25.4913C20.5501 26.8503 20.0162 27.19 14.7745 29.3256C11.1829 30.7331 9.87249 31.5581 7.97965 33.548C5.55294 36.1204 4.77639 36.0718 5.98975 33.3539C6.37802 32.4803 6.86336 31.1699 7.00897 30.3933C7.2031 29.6653 7.63991 29.0829 8.02819 29.0829C8.41646 29.0829 8.7562 28.7431 8.7562 28.3549C8.7562 27.0444 6.96043 27.5298 6.57216 28.9373C6.23242 30.2962 6.23242 30.2962 5.79561 29.18C5.40733 28.2093 4.82492 27.8695 3.75716 28.0637C3.56303 28.1122 3.75716 27.5783 4.19397 26.8988C4.63078 26.2194 5.16466 25.6855 5.40733 25.6855C5.60147 25.6855 6.96043 24.7633 8.36793 23.5985C10.7946 21.6086 14.6289 18.8907 14.9686 18.8907C15.0171 18.8907 15.5025 19.2789 15.9393 19.7158ZM4.38811 30.0536C5.65 30.0536 5.89268 31.7523 4.97052 34.3246C3.85423 37.4793 3.12622 37.9647 1.71872 36.5086C1.08777 35.9262 0.942171 35.1982 1.13631 33.7422C1.47605 31.2669 3.07768 27.9666 3.32036 29.18C3.41742 29.6653 3.90277 30.0536 4.38811 30.0536ZM41.5654 34.2761C42.4391 35.4894 42.3905 36.7028 41.4198 37.0425C40.4977 37.4308 39.8182 36.6057 39.8182 35.1011C39.8182 33.3539 40.5947 33.0142 41.5654 34.2761Z" fill="#346652"/>
  <path d="M13.9497 8.06735C13.4158 8.55269 13.5614 12.0957 14.0953 12.0957C14.338 12.0957 14.7748 11.6104 15.1145 11.0279C15.5999 10.1543 15.5513 10.0573 14.8233 10.2999C14.1438 10.5911 14.0468 10.397 14.338 9.18364C14.6777 7.72761 14.5321 7.4364 13.9497 8.06735Z" fill="#346652"/>
  <path d="M9.82347 24.3266C8.94986 25.2002 9.09546 26.1709 10.3088 27.1902C11.5707 28.3064 11.959 28.355 12.5414 27.3358C12.9297 26.6563 13.1238 26.6563 13.9974 27.1902C15.8903 28.4035 17.4919 25.7827 15.6961 24.4237C14.6284 23.6471 13.1238 23.5501 13.1238 24.2781C13.1238 24.5693 12.7841 24.6664 12.3958 24.5208C12.0075 24.3752 11.3766 24.1325 11.0368 23.9869C10.6971 23.8413 10.1632 23.9869 9.82347 24.3266Z" fill="#346652"/>
  <path d="M36.663 1.36964C36.3718 2.38886 36.7601 15.6387 37.1484 17.7257C37.3425 18.5023 36.9542 18.9876 35.6924 19.6671C34.7702 20.1524 33.9937 20.7349 33.9937 20.929C33.9937 21.4629 34.1878 21.4143 35.7409 20.5893C37.0999 19.9098 37.1484 19.9098 37.4396 21.2202C37.6337 21.9482 37.7793 24.7147 37.8279 27.3355C37.8279 30.0049 38.0705 31.9948 38.2647 31.7036C39.3324 30.5388 39.8663 26.8502 39.5751 23.0645C39.2354 19.2303 39.2839 19.0362 40.4973 17.5316C41.3223 16.5609 42.0989 16.1241 42.5842 16.3182C43.2152 16.5609 43.2637 16.3182 42.9725 14.4739C42.7784 13.3091 42.5357 12.1928 42.4386 11.9987C42.1474 11.5619 40.6429 12.0957 40.2061 12.7752C39.6236 13.6488 39.7692 15.4931 40.4002 15.4931C40.7885 15.4931 40.6914 15.7844 40.1575 16.3182C39.7207 16.755 39.2839 17.0462 39.1868 16.9006C39.0898 16.8036 38.8471 14.4739 38.653 11.7075C38.4588 8.31006 38.5073 6.75696 38.8956 6.75696C39.5751 6.75696 39.0898 4.47584 37.9249 2.04912C37.0999 0.398956 37.0028 0.350422 36.663 1.36964Z" fill="#346652"/>
  <path d="M41.8562 3.02016C41.0311 5.34981 41.1282 5.78662 42.4386 5.78662C43.8946 5.78662 44.38 4.57326 43.6034 2.82603C42.8269 1.03025 42.5842 1.07879 41.8562 3.02016Z" fill="#346652"/>
  <path d="M50.5443 8.40731C49.8648 9.23239 49.8163 8.74705 51.4664 24.5692C51.7577 26.996 51.9518 31.8009 51.9518 35.2468C52.0003 41.2651 52.0003 41.4107 52.6798 39.5178C53.5534 37.0911 53.6505 27.5298 52.8254 20.1526C52.3401 15.9787 52.3401 14.8138 52.8254 14.6197C53.5049 14.4256 53.602 12.7754 52.9225 12.3386C52.6798 12.193 52.4371 11.6591 52.4371 11.2223C52.3886 10.7855 52.1459 9.76627 51.8062 8.98972C51.2723 7.72783 51.1267 7.67929 50.5443 8.40731Z" fill="#346652"/>
  <path d="M34.4799 10.3487C33.4606 13.0181 33.4121 13.8432 34.2372 14.5227C34.9652 15.1051 35.1593 15.1051 35.7418 14.28C36.5183 13.2123 36.6154 12.5813 35.9359 12.5813C35.6932 12.5813 35.4506 12.824 35.4506 13.1637C35.4506 13.552 35.3049 13.6005 34.9652 13.2608C34.6255 12.9211 34.6255 12.2416 35.0137 11.1738C35.6932 9.28098 35.2079 8.50443 34.4799 10.3487Z" fill="#346652"/>
  <path d="M40.8859 20.4436C39.9637 21.3657 40.2064 22.5791 41.3712 23.3556C42.3904 24.0351 42.3904 24.1322 41.6139 24.9087C40.5461 25.9765 40.5947 26.3162 41.7109 27.3355C43.7009 29.1312 45.7878 26.753 43.9435 24.7146C43.264 23.9866 43.264 23.6954 43.7979 22.7732C44.3318 21.8511 44.2833 21.6084 43.264 20.7833C41.9536 19.7156 41.6624 19.667 40.8859 20.4436Z" fill="#346652"/>
  <path d="M48.9911 23.1133C48.1174 25.4429 48.2145 27.627 49.2823 27.627C49.9132 27.627 50.981 26.268 50.981 25.4429C50.981 25.2973 50.4956 25.2973 49.9132 25.4429C49.0881 25.7341 48.9425 25.637 49.2337 24.9576C49.8161 23.4045 50.1073 21.8028 49.8161 21.8028C49.622 21.8028 49.2823 22.3852 48.9911 23.1133Z" fill="#346652"/>
  <path d="M34.2368 27.6753C32.6351 28.1121 30.5967 29.7623 30.5967 30.5874C30.5967 30.8786 31.1791 30.6845 31.9556 30.1506C32.6837 29.6652 33.9941 28.9372 34.8677 28.5489C35.6928 28.1607 36.4208 27.7239 36.4208 27.5297C36.4208 27.0929 36.1781 27.0929 34.2368 27.6753Z" fill="#346652"/>
  <path d="M32.4405 31.607C30.9359 33.3542 30.6932 34.8103 31.8095 35.1986C32.3919 35.4412 32.4405 35.6839 32.0037 36.1692C31.7125 36.5575 31.1786 36.8487 30.8874 36.8487C30.2079 36.8487 29.1401 39.5181 29.1401 41.1197C29.1401 41.7022 29.4313 42.1875 29.8196 42.1875C30.8388 42.1875 31.7125 40.8285 31.4698 39.5666C31.2756 38.5474 31.6639 38.1106 34.5275 36.2663C37.6822 34.2764 38.8955 32.4806 37.1483 32.4806C36.76 32.4806 36.4203 32.6748 36.4203 32.9174C36.4203 33.4513 34.576 33.9367 33.7024 33.5969C32.5375 33.1601 32.9744 32.335 34.2362 32.6262C35.1099 32.7718 35.6437 32.5777 35.9835 31.8982C37.1968 29.6171 34.3333 29.3744 32.4405 31.607Z" fill="#346652"/>
  <path d="M13.6094 34.179C13.2697 34.6158 13.1241 35.4894 13.2697 36.363C13.6094 37.9647 12.7358 38.9839 9.09572 41.3135C8.80451 41.5077 8.65891 41.7989 8.85305 41.9445C9.24132 42.3813 12.4931 40.4399 13.9492 38.8868L15.211 37.5764L14.9198 39.2751C14.7257 40.1973 14.7742 41.265 15.0169 41.6533C15.6479 42.624 17.0068 41.9445 17.0068 40.6341C17.0068 39.809 16.8612 39.7119 16.57 40.1973C15.9391 41.1679 15.4052 40.0031 15.7449 38.4015C16.0847 36.7999 15.4537 33.8393 14.7742 33.5966C14.483 33.4995 13.9492 33.7422 13.6094 34.179Z" fill="#346652"/>
  <path d="M18.5118 35.4412C17.9779 36.3633 18.0264 36.606 19.1427 37.6252C20.6958 39.0813 20.7929 39.0813 21.4238 37.4796C21.8606 36.3148 21.7636 36.0236 20.8899 35.2956C19.531 34.1793 19.3368 34.1793 18.5118 35.4412Z" fill="#346652"/>
  <path d="M9.96955 36.4115C9.72688 36.7028 8.70766 37.5278 7.7855 38.3044C6.86335 39.0809 6.28094 39.8575 6.42654 40.0516C6.81482 40.4399 11.6683 36.994 11.6683 36.3145C11.6683 35.7321 10.6005 35.7806 9.96955 36.4115Z" fill="#346652"/>
  <path d="M40.4488 45.0987C40.1576 46.2635 39.5266 46.3606 38.9442 45.2443C38.3618 44.2736 36.9058 44.7104 36.9058 45.8752C36.9058 46.312 37.3426 46.7488 37.8279 46.8945C38.3618 47.0401 38.8471 47.7195 39.0413 48.5932C39.3325 50.0977 40.3032 50.0492 40.3032 48.4961C40.3032 47.0886 40.837 46.0694 41.5651 46.0694C41.9533 46.0694 42.2445 45.6326 42.2445 45.0987C42.2445 44.5163 41.9048 44.128 41.468 44.128C41.0312 44.128 40.5944 44.5648 40.4488 45.0987Z" fill="#346652"/>
  <path d="M33.12 47.1859C32.7803 48.0595 32.5376 49.1758 32.5376 49.6611C32.5376 50.7289 33.9451 51.2628 34.5275 50.3891C35.1099 49.4185 35.0614 48.9816 34.3819 49.0787C33.7024 49.2243 33.6539 47.8168 34.2363 46.4093C34.4304 45.9725 34.3819 45.5842 34.1392 45.5842C33.8966 45.5842 33.4598 46.3123 33.12 47.1859Z" fill="#346652"/>
  <path d="M18.5116 47.1862C18.2204 47.5745 17.8321 48.5452 17.6865 49.3702C17.4439 50.5836 17.5409 50.9233 18.1233 50.9233C18.997 50.9233 20.2103 49.5644 19.725 49.1276C19.5308 48.9334 19.1911 49.079 18.9484 49.4673C18.5602 50.0983 18.4631 50.0983 18.4631 49.4673C18.4631 49.0305 18.8028 48.2054 19.2396 47.623C20.0162 46.4582 19.4338 46.1184 18.5116 47.1862Z" fill="#346652"/>
</svg>