<svg xmlns="http://www.w3.org/2000/svg" width="50" height="27" viewBox="0 0 50 27" fill="none">
<path d="M4.74392 0.0595055C4.58096 0.110136 4.33651 0.251905 4.2041 0.383547C3.69483 0.859484 3.66428 1.01138 3.66428 3.40118V5.62897H3.14483C2.47259 5.62897 2.01425 5.90238 1.73925 6.47958C1.61702 6.71249 1.52536 6.95552 1.52536 7.01628C1.52536 7.07703 1.38276 7.15804 1.2198 7.19855C0.842938 7.27956 0.343856 7.68461 0.150334 8.06941C-0.0431872 8.43396 -0.0533726 9.87189 0.140149 10.3276C0.211446 10.5098 0.394783 10.7428 0.527192 10.8541C0.669787 10.9554 4.72355 12.6668 9.55141 14.6414C14.3691 16.616 18.2802 18.2666 18.2497 18.297C18.2089 18.3375 15.4487 19.8564 12.1181 21.6792C8.78751 23.5019 5.97635 25.0917 5.88468 25.2132C5.61986 25.5272 5.64023 26.2866 5.91524 26.5803C6.02728 26.7018 6.24117 26.8436 6.38376 26.9043C6.78099 27.0562 12.0774 27.0157 12.6783 26.8638C12.9635 26.7929 15.7441 25.4056 18.8608 23.7753L24.5442 20.8285L30.2175 23.7753C33.3444 25.4056 36.125 26.7929 36.4102 26.8638C36.7666 26.955 37.7139 26.9955 39.7 26.9955C42.7353 26.9955 43.0306 26.9448 43.2751 26.4284C43.438 26.0638 43.4075 25.4563 43.2038 25.2132C43.1121 25.0917 40.2602 23.4715 36.8787 21.6184C33.4971 19.7653 30.7878 18.2261 30.8591 18.2058C31.7045 17.9223 48.4594 10.9554 48.602 10.8238C48.9483 10.52 49.0909 10.044 49.0909 9.16305C49.0909 8.1403 48.8566 7.65423 48.2252 7.35044C47.9909 7.23905 47.7566 7.14792 47.7057 7.14792C47.6548 7.14792 47.5326 6.92514 47.4307 6.6416C47.1862 5.96314 46.7075 5.62897 45.964 5.62897H45.4242V3.36068C45.4242 1.18353 45.414 1.09239 45.2001 0.768347C44.5381 -0.183527 43.8862 -0.224031 42.0732 0.606325C38.9769 2.03413 37.1129 2.66196 34.3935 3.19866C33.2629 3.43156 31.7962 3.79611 31.1341 4.00876C28.3739 4.93026 26.2859 6.36819 25.0229 8.23143C24.7887 8.57573 24.5748 8.85926 24.5442 8.85926C24.5137 8.85926 24.2998 8.57573 24.0655 8.23143C23.1692 6.91501 21.8146 5.77074 20.1849 4.93026C18.5349 4.0999 16.9663 3.62396 14.0024 3.05689C12.1283 2.70247 9.49029 1.77085 6.67914 0.474684C5.70135 0.0189991 5.20226 -0.0822639 4.74392 0.0595055ZM6.79118 1.7911C9.75511 3.09739 11.7718 3.79611 13.4117 4.11003C16.4265 4.68723 17.9136 5.11253 19.4006 5.85175C21.5294 6.91501 22.8025 8.1403 23.7701 10.0542C24.3405 11.1883 24.7479 11.1883 25.3183 10.0542C26.2859 8.1403 27.5591 6.91501 29.6878 5.85175C31.1647 5.12266 32.5499 4.70748 35.412 4.16066C37.337 3.79611 39.2111 3.14803 42.3278 1.78098C43.0816 1.44681 43.7843 1.1734 43.8862 1.1734C44.2732 1.1734 44.3038 1.33542 44.3038 3.74548V6.08465L34.424 9.96303L24.5442 13.8515L14.6644 9.96303L4.78467 6.08465V3.74548C4.78467 1.33542 4.81522 1.1734 5.21245 1.1734C5.30412 1.1734 6.01709 1.44681 6.79118 1.7911ZM13.9718 10.925C19.7266 13.1933 24.4831 15.0464 24.5544 15.0464C24.6155 15.0464 29.423 13.1731 35.2388 10.8946C41.0445 8.6061 45.8723 6.74286 45.964 6.74286C46.1473 6.74286 46.4835 7.1783 46.4223 7.35044C46.402 7.4112 41.4723 9.48709 35.4731 11.9478L24.5544 16.4337L13.6255 11.9478C7.61619 9.48709 2.68648 7.42133 2.66611 7.35044C2.64574 7.28968 2.70686 7.12766 2.79852 6.9859C2.93093 6.78337 3.03279 6.73274 3.23649 6.76312C3.38927 6.7935 8.21713 8.66686 13.9718 10.925ZM13.0246 12.9604C19.2173 15.5021 24.4016 17.578 24.5544 17.578C24.697 17.578 29.9221 15.4819 36.1657 12.9199C46.9316 8.49471 47.5122 8.27194 47.7363 8.4137C47.94 8.54535 47.9705 8.65674 47.9705 9.15293C47.9705 9.46684 47.9298 9.79088 47.8789 9.86176C47.8076 9.98328 25.247 19.3197 24.6868 19.4615C24.4424 19.5223 1.34202 10.0845 1.20961 9.86176C1.15868 9.79088 1.11794 9.46684 1.11794 9.15293C1.11794 8.66686 1.15868 8.55547 1.34202 8.4137C1.47443 8.3327 1.61702 8.28206 1.67814 8.30231C1.72906 8.32257 6.8421 10.4187 13.0246 12.9604ZM39.2824 25.7601L36.6342 25.7803L31.3073 23.026C28.3841 21.507 26.0109 20.2412 26.0313 20.221C26.0618 20.1906 26.8156 19.8666 27.7221 19.502L29.3517 18.8235L35.6463 22.2766L41.9306 25.7297L39.2824 25.7601ZM21.4377 19.5223C22.2729 19.8666 22.9961 20.1703 23.0368 20.2007C23.0775 20.2412 20.7145 21.507 17.7812 23.026L12.4644 25.7803L9.80604 25.7601L7.15785 25.7297L13.3811 22.3171C16.8034 20.4336 19.6756 18.8944 19.7571 18.8944C19.8386 18.8944 20.5923 19.178 21.4377 19.5223Z" fill="#3D7761"/>
</svg>