<svg width="333" height="342" viewBox="0 0 333 342" fill="none" xmlns="http://www.w3.org/2000/svg">
<path d="M53.517 2.37753C53.517 2.37753 53.3553 4.79087 51.0393 5.0921C53.3609 5.34738 53.5703 7.75705 53.5703 7.75705C53.5703 7.75705 53.7319 5.3437 56.0479 5.04247C53.7273 4.87995 53.517 2.37753 53.517 2.37753Z" fill="#346652"/>
<path d="M178.179 39.1739C178.179 39.1739 178.017 41.5873 175.701 41.8885C178.023 42.1438 178.232 44.5534 178.232 44.5534C178.232 44.5534 178.394 42.1401 180.71 41.8389C178.389 41.6763 178.179 39.1739 178.179 39.1739Z" fill="#346652"/>
<path d="M87.1918 30.7999C87.1918 30.7999 87.0302 33.2132 84.7142 33.5145C87.0357 33.7697 87.2451 36.1794 87.2451 36.1794C87.2451 36.1794 87.4067 33.7661 89.7227 33.4648C87.4021 33.3023 87.1918 30.7999 87.1918 30.7999Z" fill="#346652"/>
<path d="M291.876 92.775C291.876 92.775 291.715 95.1883 289.399 95.4896C291.72 95.7448 291.93 98.1545 291.93 98.1545C291.93 98.1545 292.091 95.7412 294.407 95.4399C291.994 95.2783 291.876 92.775 291.876 92.775Z" fill="#346652"/>
<path d="M184.463 149.124C184.463 149.124 184.301 151.538 181.985 151.839C184.307 152.094 184.516 154.504 184.516 154.504C184.516 154.504 184.678 152.091 186.994 151.789C184.58 151.628 184.463 149.124 184.463 149.124Z" fill="#346652"/>
<path d="M142.644 66.4269C142.644 66.4269 142.244 72.9241 136.128 73.5412C142.256 74.1298 142.784 80.525 142.784 80.525C142.784 80.525 143.183 74.0279 149.299 73.4107C143.172 72.9149 142.644 66.4269 142.644 66.4269Z" fill="#346652"/>
<path d="M27.5296 57.0849C27.5296 57.0849 27.1302 63.582 21.0142 64.1992C27.1421 64.7878 27.6693 71.1829 27.6693 71.1829C27.6693 71.1829 28.0687 64.6858 34.1847 64.0687C28.0577 63.5728 27.5296 57.0849 27.5296 57.0849Z" fill="#346652"/>
<path d="M135.601 1.56427C135.601 1.56427 135.277 6.29821 130.829 6.80608C135.286 7.22572 135.704 11.9523 135.704 11.9523C135.704 11.9523 136.028 7.21836 140.475 6.7105C136.018 6.19811 135.601 1.56427 135.601 1.56427Z" fill="#346652"/>
<path d="M68.2094 90.3537C68.2094 90.3537 67.9725 94.5302 63.9888 95.0335C67.9808 95.365 68.3013 99.6288 68.3013 99.6288C68.3013 99.6288 68.5382 95.4522 72.5219 94.949C68.6218 94.5238 68.2094 90.3537 68.2094 90.3537Z" fill="#346652"/>
<path d="M107.062 182.635C107.062 182.635 106.825 186.811 102.841 187.315C106.833 187.646 107.154 191.91 107.154 191.91C107.154 191.91 107.391 187.733 111.374 187.23C107.382 186.806 107.062 182.635 107.062 182.635Z" fill="#346652"/>
<path opacity="0.25" d="M163.718 339.673C228.209 339.034 280.37 326.349 280.221 311.34C280.072 296.331 227.671 284.682 163.179 285.321C98.6872 285.96 46.5268 298.645 46.6755 313.654C46.8243 328.663 99.2257 340.312 163.718 339.673Z" fill="#042030"/>
<path d="M253.6 180.442L162.458 212.605L70.6038 182.255L27.4562 246.315L163.238 291.257L298.009 243.635L253.6 180.442Z" fill="#346652"/>
<path opacity="0.45" d="M43.3836 243.56L156.037 285.392L117.074 247.561C117.074 247.561 53.5741 232.885 43.3836 243.56Z" fill="#346652"/>
<path opacity="0.45" d="M282.123 241.195L170.32 285.25L208.526 246.655C208.433 246.656 271.63 230.724 282.123 241.195Z" fill="#346652"/>
<path d="M163.237 291.257L27.4561 246.315L27.5158 252.344L163.297 297.286L298.069 249.663L298.009 243.635L163.237 291.257Z" fill="#28493C"/>
<path d="M91.4467 319.796L106.714 278.552L157.341 295.304L91.4467 319.796Z" fill="#346652"/>
<path opacity="0.45" d="M95.6884 307.881L157.342 295.304L106.714 278.552L95.6884 307.881Z" fill="#346652"/>
<path d="M163.256 293.112L91.4468 319.796L96.8824 325.401L163.335 300.996L230.165 324.08L235.581 318.368L163.256 293.112Z" fill="#28493C"/>
<path d="M235.581 318.368L219.406 277.436L169.121 295.187L235.581 318.368Z" fill="#346652"/>
<path opacity="0.45" d="M231.011 306.54L169.121 295.187L219.406 277.436L231.011 306.54Z" fill="#346652"/>
<path d="M163.334 300.996C166.049 300.969 168.228 298.746 168.202 296.031C168.175 293.316 165.952 291.137 163.237 291.164C160.522 291.191 158.343 293.414 158.37 296.129C158.397 298.844 160.62 301.023 163.334 300.996Z" fill="white" fill-opacity="0.5"/>
<path d="M249.705 180.48L162.58 224.941L74.5921 182.215C70.6562 187.542 39.0949 241.377 39.0949 241.377C39.4659 241.373 39.7451 241.463 40.1161 241.459C120.703 248.731 143.307 273.83 150.788 279.878C158.269 286.019 163.271 285.32 163.271 285.32C163.271 285.32 168.286 285.92 175.645 279.632C183.004 273.437 205.106 247.895 285.533 239.028C285.904 239.024 286.182 238.928 286.553 238.925C286.367 238.927 253.654 185.821 249.705 180.48Z" fill="#346652"/>
<path d="M286.368 238.926C285.997 238.93 285.719 239.026 285.348 239.029C204.921 247.896 182.819 273.439 175.46 279.634C168.101 285.922 163.086 285.322 163.086 285.322C163.086 285.322 158.084 286.021 150.603 279.88C143.122 273.832 120.518 248.733 39.9308 241.461C39.5598 241.465 39.2807 241.375 38.9097 241.378C38.2705 242.405 38.9271 243.141 38.9271 243.141C120.347 250.219 142.21 275.418 149.692 281.559C157.172 287.607 163.011 287.085 163.011 287.085C163.011 287.085 168.859 287.491 176.218 281.296C183.578 275.101 204.937 249.473 286.2 240.691C286.385 240.689 287.027 239.94 286.368 238.926Z" fill="#28493C"/>
<path d="M246.315 175.412C201.41 165.097 162.263 202.31 162.263 202.31C162.263 202.31 122.387 165.88 77.6951 177.083C77.6951 177.083 65.1813 196.687 47.9796 229.972C47.9796 229.972 136.284 239.022 162.991 275.769C188.966 238.5 277.073 227.702 277.073 227.702C259.215 194.764 246.315 175.412 246.315 175.412Z" fill="#F5EFFB"/>
<path d="M277.073 227.702C277.073 227.702 188.966 238.5 162.991 275.769C136.376 239.021 48.0725 229.971 48.0725 229.971C48.0725 229.971 48.1019 232.939 43.244 238.831C43.244 238.831 123.345 243.788 152.797 276.704C159.738 284.428 163.068 283.467 163.068 283.467C163.068 283.467 166.509 284.36 173.202 276.502C201.904 243.01 281.983 236.465 281.983 236.465C277.102 230.577 277.073 227.702 277.073 227.702Z" fill="#239371"/>
<path d="M241.346 179.357C241.346 179.357 207.778 171.156 162.312 207.133C116.235 172.156 82.7425 180.929 82.7425 180.929L60.5471 225.117C129.415 229.165 162.871 263.618 162.871 263.618C162.871 263.618 195.638 228.509 264.412 223.097L241.346 179.357ZM162.923 259.444C162.923 259.444 131.63 228.03 65.9009 222.466L84.5232 182.766C84.5232 182.766 117.386 176.04 162.424 209.173C206.797 175.154 239.787 181.228 239.787 181.228L259.193 220.551C193.587 227.416 162.923 259.444 162.923 259.444Z" fill="#346652"/>
<path opacity="0.2" d="M171.172 240.155C183.448 230.912 221.894 210.346 247.892 212.871" stroke="#346652" stroke-width="3" stroke-linecap="round"/>
<path opacity="0.2" d="M170.919 214.562C181.809 205.859 210.178 188.739 236.533 189.876" stroke="#346652" stroke-width="3" stroke-linecap="round"/>
<path opacity="0.2" d="M171.047 227.547C182.859 218.174 213.627 199.734 242.209 200.957" stroke="#346652" stroke-width="3" stroke-linecap="round"/>
<path opacity="0.2" d="M155.405 240.311C142.947 231.313 104.101 211.513 78.159 214.553" stroke="#346652" stroke-width="3" stroke-linecap="round"/>
<path opacity="0.2" d="M155.151 214.718C144.09 206.233 115.387 189.678 89.0602 191.337" stroke="#346652" stroke-width="3" stroke-linecap="round"/>
<path opacity="0.2" d="M155.28 227.703C143.285 218.566 112.158 200.74 83.6056 202.529" stroke="#346652" stroke-width="3" stroke-linecap="round"/>
<path d="M162.356 202.309C162.356 202.309 163.251 199.054 165.023 199.964C165.023 199.964 164.431 252.564 166.489 273.044C167.003 278.141 171.524 285.053 173.312 287.632L170.994 287.655L170.365 289.795C170.365 289.795 163.387 278.269 163.064 273.727C161.47 253.336 161.756 207.232 162.356 202.309Z" fill="#28493C"/>
<g style="mix-blend-mode:darken">
<g style="mix-blend-mode:darken" opacity="0.5">
<path d="M0.59756 147.986L99.1912 147.009C99.1912 147.009 91.928 125.468 80.0872 128.739C68.2455 131.918 68.7359 134.603 68.7359 134.603C68.7359 134.603 65.0285 116.18 49.1939 118.935C33.3594 121.689 29.9617 134.523 29.9617 134.523C29.9617 134.523 19.8124 130.635 15.3999 134.667C11.0801 138.699 11.936 140.824 11.936 140.824C11.936 140.824 2.24677 136.56 0.59756 147.986Z" fill="#CFCFD3"/>
</g>
<g style="mix-blend-mode:darken" opacity="0.8">
<path d="M260.832 105.656C259.688 102.514 257.129 97.0664 253.221 95.8065C247.638 94.0066 239.444 100.21 239.444 100.21C239.444 100.21 235.313 85.8731 221.951 85.449C208.59 85.0248 211.152 100.212 211.152 100.212C211.152 100.212 207.71 99.2257 200.733 97.1614C193.755 95.0971 191.407 101.521 191.407 101.521C187.032 99.9872 185.311 104.178 184.777 106.41L260.832 105.656Z" fill="#CFCFD3"/>
</g>
</g>
<g style="mix-blend-mode:darken" opacity="0.5">
<path d="M234.377 169.258L332.971 168.281C332.971 168.281 325.708 146.74 313.867 150.011C302.025 153.19 302.516 155.875 302.516 155.875C302.516 155.875 298.808 137.452 282.974 140.207C267.139 142.961 263.741 155.795 263.741 155.795C263.741 155.795 253.592 151.907 249.18 155.939C244.86 159.971 245.716 162.096 245.716 162.096C245.716 162.096 236.027 157.832 234.377 169.258Z" fill="#CFCFD3"/>
</g>
</svg>
