<svg width="33" height="35" viewBox="0 0 33 35" fill="none" xmlns="http://www.w3.org/2000/svg">
<path d="M15.5739 0.787834C14.6198 1.02807 13.9472 1.76935 13.7618 2.77146C13.6726 3.22447 13.7687 3.8628 13.9746 4.27463C14.0433 4.4119 14.105 4.54918 14.105 4.56977C14.105 4.59723 13.4049 4.60409 12.547 4.59036L10.982 4.56977L9.17685 3.71866C8.08552 3.21074 7.255 2.86069 7.08341 2.8401C6.20484 2.73714 5.46356 3.40979 5.45669 4.31581C5.45669 4.75509 5.66947 5.23556 5.95088 5.4346C6.1568 5.58561 7.44032 6.2308 9.23176 7.08877C10.5427 7.72024 10.7349 7.76142 12.094 7.76142H13.2127V8.22129C13.2127 8.48211 13.1647 9.87546 13.1098 11.3306C12.8764 17.3776 12.595 25.1405 12.5813 25.7788C12.5744 26.3554 12.595 26.5064 12.7117 26.7397C13 27.282 13.453 27.5565 14.0707 27.5565C14.7365 27.5497 15.2925 27.1447 15.4709 26.527C15.4984 26.4171 15.6768 24.914 15.8622 23.1912C16.0406 21.4684 16.2053 20.0613 16.2191 20.075C16.2259 20.0887 16.3907 21.5301 16.576 23.2804C16.8162 25.4768 16.9535 26.5475 17.0359 26.726C17.18 27.0623 17.5987 27.433 17.9213 27.5222C18.0654 27.5634 20.557 27.9546 23.4603 28.3939C28.7454 29.1901 28.7454 29.1901 28.9239 29.0528C29.1367 28.895 29.2053 28.6616 29.1161 28.4008C29.0337 28.1605 28.9376 28.1125 28.313 28.0164C27.3521 27.8654 27.4207 27.8928 27.5237 27.6389C27.8806 26.7809 27.6335 25.7788 26.851 24.9414C25.7391 23.754 23.5427 22.8342 20.6805 22.3469C20.152 22.2577 19.7127 22.1753 19.699 22.1616C19.6853 22.1547 19.6647 21.8733 19.6578 21.537L19.6304 20.9398H19.8363C20.1657 20.9398 22.1013 21.2556 22.9593 21.4546C25.3479 21.99 27.4276 22.8274 28.9239 23.8432C29.5897 24.2962 30.5575 25.2572 30.832 25.7445C31.841 27.5428 31.134 29.3205 28.7935 30.8854C23.8035 34.2212 13.4736 34.9076 6.5549 32.3543C2.49155 30.8649 0.411826 28.4694 1.2698 26.2936C2.14149 24.0766 5.73124 22.0998 10.4329 21.2487C11.737 21.0153 11.689 21.0291 11.8057 20.8026C11.9361 20.5417 11.8812 20.2947 11.6409 20.1093C11.4213 19.9377 11.2909 19.9446 9.60927 20.2878C6.08816 21.0016 3.15047 22.3401 1.55807 23.953C0.453008 25.0718 0 26.0465 0 27.3231C0 28.1605 0.151003 28.7165 0.58342 29.4509C1.93558 31.764 5.53219 33.6241 10.2956 34.4889C13.8305 35.1341 18.0105 35.1684 21.5179 34.5919C27.4757 33.6104 31.6008 31.1737 32.294 28.2223C32.4107 27.7212 32.397 26.8221 32.2597 26.2936C31.4704 23.2461 26.7961 20.7065 20.557 19.9171L19.6304 19.8005L19.5823 19.2857C19.548 19.0111 19.4519 16.5402 19.3558 13.8015C19.2597 11.0629 19.1705 8.59193 19.143 8.29679L19.1087 7.77515L20.4334 7.74769C21.9915 7.71337 21.6346 7.83006 24.4007 6.4779C25.9313 5.72975 26.4049 5.46892 26.5765 5.26987C27.4551 4.2609 26.5971 2.66164 25.2724 2.8401C25.1077 2.86069 24.387 3.15583 23.6731 3.49216C22.9593 3.82848 22.1425 4.20599 21.8611 4.3364L21.3463 4.56977L19.7882 4.59036L18.2302 4.61095L18.4086 4.21285C18.8959 3.17643 18.5733 1.86545 17.6742 1.20652C17.077 0.767242 16.274 0.609379 15.5739 0.787834ZM16.7613 1.95467C17.7909 2.43514 17.7909 3.9383 16.7476 4.40504C15.9994 4.74823 15.1209 4.32954 14.8875 3.53334C14.6953 2.85383 15.0591 2.14 15.718 1.89977C16.1093 1.75563 16.3564 1.76935 16.7613 1.95467ZM7.81783 4.30895C8.2777 4.52172 8.9984 4.85805 9.42395 5.0571C10.8447 5.72975 10.179 5.66797 16.02 5.68856C20.4472 5.70229 21.2502 5.68856 21.5934 5.59933C21.8199 5.54442 22.774 5.13946 23.7143 4.70018C25.2381 3.98635 25.4508 3.90398 25.6018 3.97262C25.8283 4.07558 25.897 4.37072 25.7323 4.53545C25.6568 4.60409 24.689 5.10514 23.577 5.64738L21.5522 6.6289L19.9324 6.64949C18.3263 6.67008 18.3057 6.67694 18.1547 6.83481L18.0037 6.99954L18.2508 13.6437C18.388 17.2952 18.5528 21.6262 18.6145 23.2667L18.7243 26.2455L18.5733 26.3691C18.3743 26.5338 18.2713 26.5338 18.1272 26.3691C18.0242 26.2524 17.9007 25.2846 17.3859 20.4113C16.727 14.2065 16.7407 14.3026 16.3632 14.2065C16.1504 14.1584 15.8347 14.2614 15.7523 14.4193C15.6906 14.536 15.4709 16.4509 14.7159 23.5481C14.4482 26.1014 14.4345 26.1975 14.2698 26.3416C14.0639 26.5338 14.0227 26.5338 13.8305 26.3759C13.6383 26.2249 13.6383 26.575 13.8648 20.4594C13.9609 17.9472 14.0982 14.2271 14.1737 12.1885C14.2492 10.15 14.3247 8.15952 14.3453 7.76142C14.3865 7.08877 14.3796 7.02013 14.2423 6.84854L14.0982 6.66322H12.6087C11.7714 6.66322 11.0026 6.6289 10.8585 6.58772C10.5084 6.49162 6.67844 4.62468 6.60981 4.51486C6.47253 4.30208 6.65099 3.91771 6.88436 3.91771C6.94613 3.91771 7.36482 4.08931 7.81783 4.30895ZM20.9139 23.5138C22.5886 23.8432 24.1399 24.3717 25.0665 24.9346C26.0549 25.5317 26.6589 26.3348 26.5696 26.9388C26.5216 27.2614 26.3019 27.6663 26.1715 27.6663C26.1235 27.6663 25.3204 27.5565 24.387 27.4192C22.7602 27.1721 22.6985 27.1584 22.7671 27.028C22.8014 26.9525 22.822 26.7123 22.8083 26.4926C22.7465 25.6072 21.8611 24.9277 20.1657 24.4678L19.7333 24.3511V23.8432C19.7333 23.2392 19.6647 23.2598 20.9139 23.5138ZM20.3717 25.6827C21.0924 25.9229 21.7238 26.3348 21.7238 26.5681C21.7238 26.6299 21.6552 26.7466 21.5728 26.829L21.4149 26.9731L20.605 26.8495C20.1657 26.7809 19.7882 26.7123 19.7814 26.6985C19.7265 26.6299 19.8226 25.5386 19.8775 25.5386C19.9118 25.5386 20.1383 25.6003 20.3717 25.6827Z" fill="#239571"/>
<path d="M10.0896 22.6902C7.35093 23.3971 5.59381 24.4404 4.96921 25.7239C4.75643 26.1495 4.73584 26.2456 4.73584 26.8084C4.73584 27.3507 4.76329 27.4742 4.92803 27.8174C5.53204 29.046 7.17248 30.0824 9.56793 30.762C10.4739 31.0159 10.6867 31.0159 10.872 30.7825C11.1672 30.405 10.9819 30.0001 10.4465 29.8628C9.71893 29.6775 8.59328 29.2862 8.02358 29.0117C5.11335 27.6252 5.0653 26.0191 7.89317 24.6395C8.69623 24.2482 9.93857 23.8296 10.9132 23.6236C11.6888 23.452 11.8673 23.3354 11.8673 22.9716C11.8673 22.3882 11.4761 22.3264 10.0896 22.6902Z" fill="#239571"/>
<path d="M10.5016 24.9479C9.38279 25.497 8.98469 25.9981 9.0396 26.7943C9.06019 27.1375 9.10824 27.2816 9.2867 27.5425C9.99367 28.572 12.3823 29.3202 15.3268 29.43C16.3564 29.4712 16.377 29.4712 16.5417 29.3133C16.7819 29.0868 16.7819 28.6887 16.5348 28.4965C16.3838 28.373 16.2534 28.3524 15.7524 28.3524C15.0248 28.3524 13.9335 28.2494 13.1647 28.1053C11.5037 27.8033 10.1241 27.1649 10.1241 26.6913C10.1241 26.4786 10.4947 26.1766 11.133 25.8746C11.6959 25.6069 11.84 25.4627 11.84 25.1539C11.84 24.9891 11.4556 24.6459 11.2772 24.6459C11.188 24.6459 10.8448 24.7832 10.5016 24.9479Z" fill="#239571"/>
<path d="M12.2244 30.4187C12.0665 30.5422 12.0391 30.6108 12.0597 30.8442C12.0871 31.208 12.2999 31.3727 12.7941 31.3933C13.103 31.407 13.1785 31.3796 13.2883 31.2423C13.4324 31.0707 13.4599 30.755 13.3501 30.5491C13.2746 30.4118 12.8971 30.2745 12.5882 30.2745C12.4852 30.2745 12.3274 30.3432 12.2244 30.4187Z" fill="#239571"/>
</svg>
