<svg width="178" height="178" viewBox="0 0 178 178" fill="none" xmlns="http://www.w3.org/2000/svg">
<path d="M82.0617 0.0729828C78.5856 0.490112 73.1977 1.39389 70.5906 1.98483C54.7397 5.6347 39.9664 13.8382 28.5301 25.3093C8.22985 45.6791 -0.807946 74.2872 4.16284 102.617C10.1069 136.613 35.2389 163.727 68.6788 172.278C76.778 174.363 80.9493 174.85 90.2304 174.885C98.6425 174.885 101.91 174.572 108.827 173.112C122.176 170.296 135.176 164.074 145.917 155.454C149.567 152.499 155.442 146.624 158.396 142.974C161.108 139.603 166.704 131.33 166.461 131.051C166.356 130.947 165.175 131.573 163.888 132.407C156.728 137.03 147.898 140.333 138.548 141.897C133.959 142.662 124.192 142.696 119.429 141.932C109.14 140.263 100.798 136.996 92.1075 131.225C88.7357 128.966 86.7196 127.263 82.7569 123.3C76.9518 117.495 74.1014 113.636 70.7644 107.206C68.1574 102.2 66.3846 97.5073 65.1679 92.5018C57.4163 60.5914 74.6229 27.8816 105.456 15.9586C110.6 13.9773 116.301 12.6564 123.357 11.8569L125.165 11.6483V17.6967V23.7798L124.122 24.1969C122.801 24.7531 120.82 26.9083 120.125 28.5768C118.943 31.4272 119.777 35.9113 121.897 38.136L122.766 39.0398L121.341 40.1869C119.881 41.334 117.865 44.3929 117.865 45.4705C117.865 46.0614 118.595 46.0962 128.467 46.0962C135.524 46.0962 139.069 45.9919 139.069 45.7486C139.069 44.7753 137.192 41.8554 135.697 40.5345L134.029 39.0398L134.933 38.0665C138.756 33.9647 137.783 27.1516 132.986 24.336L131.422 23.4322V17.5924V11.7178L133.09 11.6136L134.724 11.5093L129.336 8.83269C121.48 4.90472 113.659 2.3672 104.83 0.837723C101.528 0.281555 98.8511 0.107742 91.9685 0.0382233C87.2062 -0.0312958 82.7221 0.00346375 82.0617 0.0729828ZM130.344 30.3148C131.318 31.5315 131.248 32.7133 130.205 33.7561C128.363 35.6332 125.617 34.1733 125.825 31.3924C125.964 29.4458 129.058 28.7158 130.344 30.3148Z" fill="white"/>
<path d="M164.548 3.16582C162.775 4.41721 162.636 9.63132 164.34 10.987C165.591 11.9603 167.399 11.8908 168.441 10.8132C169.206 10.0484 169.31 9.70084 169.31 7.16331C169.31 4.62577 169.206 4.27817 168.441 3.51343C167.468 2.50537 165.695 2.36633 164.548 3.16582Z" fill="white"/>
<path d="M156.102 11.7505C154.155 12.7933 153.947 15.5394 155.685 16.9298C156.484 17.5555 157.005 17.6251 159.334 17.5208C161.698 17.4165 162.185 17.3122 162.741 16.5822C163.61 15.5394 163.61 13.3843 162.741 12.3414C162.185 11.6462 161.733 11.5072 159.543 11.4029C157.875 11.3334 156.658 11.4724 156.102 11.7505Z" fill="white"/>
<path d="M170.701 11.7505C168.755 12.7933 168.546 15.5394 170.284 16.9298C171.084 17.5555 171.605 17.6251 173.934 17.5208C176.298 17.4165 176.784 17.3122 177.341 16.5822C178.21 15.5394 178.21 13.3843 177.341 12.3414C176.784 11.6462 176.333 11.5072 174.143 11.4029C172.474 11.3334 171.257 11.4724 170.701 11.7505Z" fill="white"/>
<path d="M164.548 17.7645C162.775 19.0158 162.636 24.23 164.34 25.5856C165.591 26.5589 167.399 26.4894 168.441 25.4118C169.206 24.6471 169.31 24.2995 169.31 21.7619C169.31 19.2244 169.206 18.8768 168.441 18.1121C167.468 17.104 165.695 16.965 164.548 17.7645Z" fill="white"/>
<path d="M172.96 47.3089C170.665 49.5683 173.099 53.4963 176.088 52.3492C177.444 51.8278 177.965 51.0283 178 49.4641C178 46.7527 174.837 45.3971 172.96 47.3089Z" fill="white"/>
<path d="M107.993 56.0007C105.004 58.3992 102.571 60.45 102.571 60.5196C102.571 60.6238 105.665 60.6934 109.488 60.6934H116.371L118.248 56.4873C119.291 54.1583 120.194 52.1075 120.229 51.9684C120.299 51.7946 118.804 51.6556 116.892 51.6556H113.416L107.993 56.0007Z" fill="white"/>
<path d="M125.895 52.4224C125.721 52.8743 124.852 54.8557 123.983 56.837C123.114 58.8184 122.384 60.4869 122.384 60.5564C122.384 60.8345 134.203 60.6955 134.203 60.4174C134.203 60.2783 133.403 58.2622 132.395 55.8985L130.588 51.6577H128.398C126.417 51.6577 126.173 51.7272 125.895 52.4224Z" fill="white"/>
<path d="M136.634 51.8984C136.634 52.0722 137.469 54.0535 138.477 56.3477L140.319 60.519L147.202 60.6233C151.373 60.6581 154.015 60.5885 153.945 60.38C153.91 60.2062 151.477 58.1553 148.592 55.8611L143.308 51.655H139.971C138.129 51.655 136.634 51.7593 136.634 51.8984Z" fill="white"/>
<path d="M105.769 85.271C109.001 95.7687 111.852 105.154 112.165 106.127L112.686 107.97H116.51H120.299L120.125 106.649C119.951 105.536 115.78 66.813 115.78 66.3959C115.78 66.3264 112.199 66.2568 107.819 66.2568H99.894L105.769 85.271Z" fill="white"/>
<path d="M121.376 67.0188C121.376 67.4707 122.349 76.8213 123.531 87.8057L125.721 107.793L128.397 107.897C129.857 107.967 131.074 107.932 131.074 107.828C131.074 107.446 135.245 68.7568 135.419 67.5402L135.593 66.2541H128.467H121.341L121.376 67.0188Z" fill="white"/>
<path d="M140.979 67.0161C140.806 67.8156 136.634 106.713 136.634 107.547C136.634 107.895 137.538 107.964 140.354 107.895L144.108 107.79L150.26 87.803C153.632 76.8186 156.483 67.468 156.622 67.0161L156.796 66.2514H148.974H141.153L140.979 67.0161Z" fill="white"/>
<path d="M79.7325 82.0652C78.6897 82.7952 78.3769 84.6375 79.0721 85.9932C79.663 87.1403 80.254 87.4531 81.7139 87.4531C83.1739 87.4531 83.7648 87.1403 84.3557 85.9932C85.0509 84.6375 84.7381 82.7952 83.6953 82.0652C83.2781 81.7871 82.4091 81.5438 81.7139 81.5438C81.0187 81.5438 80.1497 81.7871 79.7325 82.0652Z" fill="white"/>
<path d="M109.94 117.875C108.758 120.273 107.785 122.289 107.785 122.394C107.785 122.498 117.031 122.567 128.294 122.567C141.954 122.567 148.802 122.463 148.802 122.22C148.802 122.011 147.864 119.995 146.717 117.701L144.631 113.53H128.363H112.13L109.94 117.875Z" fill="white"/>
<path d="M10.8024 154.445C10.5244 154.549 9.93342 154.966 9.51629 155.348C8.82108 155.974 8.7168 156.391 8.7168 158.894C8.7168 161.432 8.78632 161.814 9.55105 162.509C10.7329 163.621 12.6795 163.587 13.8266 162.474C14.8347 161.432 15.2171 158.824 14.6261 156.704C14.3133 155.487 14.0004 155.105 13.0619 154.688C11.7757 154.167 11.6019 154.167 10.8024 154.445Z" fill="white"/>
<path d="M0.791017 164.04C-0.286566 165.187 -0.251805 167.377 0.825778 168.385C1.52099 169.045 2.0424 169.149 4.4409 169.149C7.15223 169.149 7.29128 169.115 8.16029 168.072C9.20312 166.855 9.27264 166.056 8.54266 164.665C7.88221 163.379 7.46508 163.24 4.23233 163.24C1.8686 163.24 1.45147 163.344 0.791017 164.04Z" fill="white"/>
<path d="M15.3906 164.04C14.313 165.187 14.3478 167.377 15.4254 168.385C16.1206 169.045 16.642 169.149 19.0057 169.149C21.4738 169.149 21.8909 169.045 22.5513 168.35C23.5942 167.238 23.8027 165.951 23.177 164.7C22.4818 163.379 22.0995 163.24 18.8319 163.24C16.4682 163.24 16.0511 163.344 15.3906 164.04Z" fill="white"/>
<path d="M10.8024 169.043C10.5244 169.148 9.93342 169.565 9.51629 169.947C8.82108 170.573 8.7168 170.99 8.7168 173.319C8.7168 176.795 9.41201 177.838 11.6367 177.838C13.5833 177.838 14.5914 176.83 14.8347 174.501C15.2866 170.677 13.4095 168.105 10.8024 169.043Z" fill="white"/>
</svg>
