<svg width="31" height="33" viewBox="0 0 31 33" fill="none" xmlns="http://www.w3.org/2000/svg">
<path d="M16.249 1.32508C15.6421 1.83204 15.128 2.3033 15.0994 2.36756C14.9637 2.73171 15.0494 2.88166 16.0062 4.0241C16.9273 5.1237 16.9559 5.15226 17.2486 5.17368C17.4985 5.1951 17.5914 5.1594 17.7342 5.01659C18.0626 4.68814 17.9912 4.48107 17.27 3.60996L17.0273 3.31007L17.4842 3.36005C23.2179 3.9884 28.1161 8.62956 29.3799 14.6274C29.5227 15.32 29.5656 15.7912 29.6013 16.8623C29.6441 18.4831 29.537 19.4256 29.1514 20.7609C28.8158 21.9104 28.7873 22.1746 28.9586 22.3817C29.03 22.4745 29.2014 22.5602 29.3442 22.5816C29.7583 22.653 29.944 22.4245 30.1939 21.5748C30.8222 19.447 30.9865 17.1407 30.658 14.963C29.6798 8.41535 24.5817 3.28151 18.0198 2.22475C17.6271 2.16049 17.2986 2.09623 17.2915 2.08909C17.2772 2.07481 17.4628 1.91772 17.6913 1.73208C18.1554 1.36078 18.1983 1.28938 18.1983 0.946648C18.1983 0.632477 17.9484 0.40399 17.6128 0.40399C17.3843 0.40399 17.2129 0.518234 16.249 1.32508Z" fill="white"/>
<path d="M12.2362 2.41048C9.39441 2.98884 6.3241 4.80247 4.34625 7.07307C1.45445 10.4147 0.0763788 14.5632 0.497654 18.6903C0.633318 20.0326 1.11172 21.9105 1.60439 23.0244C1.75434 23.36 1.76148 23.4028 1.64723 23.36C1.20454 23.1815 0.726142 23.0387 0.561916 23.0387C0.283446 23.0387 0.0620983 23.2457 0.0192568 23.5456C-0.0521458 23.9812 0.140641 24.1169 1.58297 24.6452C3.13955 25.2093 3.31805 25.2307 3.52512 24.8166C3.73933 24.4167 4.48906 22.239 4.48906 22.0462C4.48906 21.7606 4.28913 21.5392 3.98924 21.4964C3.6108 21.4321 3.40374 21.6392 3.16097 22.3246C3.04672 22.6388 2.93248 22.8959 2.91106 22.8959C2.88964 22.8959 2.74683 22.5817 2.59689 22.1961C1.59725 19.5971 1.41875 16.5339 2.10421 13.792C2.58261 11.907 3.60366 9.88633 4.84607 8.36545C5.34589 7.75853 6.50975 6.62323 7.09525 6.18054C8.67324 4.97383 10.5868 4.05988 12.4861 3.61719C13.2359 3.44582 13.4858 3.26731 13.4858 2.9103C13.4858 2.66039 13.2573 2.3605 13.0359 2.31766C12.9431 2.29624 12.579 2.33908 12.2362 2.41048Z" fill="white"/>
<path d="M13.7073 7.37299C12.5006 7.57292 11.0225 8.17984 9.94436 8.90814C7.77372 10.3719 6.25285 12.7353 5.81729 15.3201C5.66735 16.1983 5.66735 17.7478 5.81729 18.6189C6.33853 21.6464 8.35922 24.3525 11.0939 25.6877C12.6148 26.4232 13.6144 26.6445 15.4138 26.6445C17.2488 26.6445 18.2628 26.4089 19.805 25.6449C22.4327 24.3311 24.3248 21.8534 24.9603 18.8974C25.1245 18.1334 25.1388 15.9127 24.9889 15.1487C24.4891 12.5997 22.9967 10.3291 20.8761 8.901C19.7979 8.1727 18.3556 7.5872 17.0918 7.37299C16.292 7.23018 14.5427 7.23733 13.7073 7.37299ZM20.6048 12.9138C21.4759 13.7778 21.6258 13.9634 21.6258 14.1491C21.6258 14.3419 21.1831 14.806 17.7844 18.2048C15.678 20.3111 13.9072 22.0391 13.8572 22.0391C13.6216 22.0391 13.2432 21.6963 11.2939 19.7399C9.366 17.812 9.20177 17.6193 9.20177 17.3979C9.20177 17.1766 9.30174 17.048 10.1871 16.1698C11.4938 14.8631 11.3438 14.856 12.7005 16.2198C13.2717 16.791 13.7644 17.2551 13.8072 17.2551C13.8429 17.2551 15.0853 16.0484 16.5562 14.5775C18.5912 12.5497 19.2767 11.8999 19.4123 11.8999C19.5337 11.8999 19.8622 12.1784 20.6048 12.9138Z" fill="white"/>
<path d="M16.7346 15.8341C15.278 17.2908 14.0213 18.5117 13.9285 18.5474C13.8214 18.5903 13.7071 18.5831 13.6072 18.5332C13.5215 18.4903 12.9931 17.9976 12.429 17.4478L11.4151 16.4339L10.9367 16.9195L10.4512 17.3979L12.0934 19.0401C12.9931 19.9469 13.7642 20.6824 13.8071 20.6824C13.8499 20.6824 15.3422 19.2186 17.1273 17.4336L20.3761 14.1847L19.8763 13.6849L19.3765 13.1851L16.7346 15.8341Z" fill="white"/>
<path d="M26.7666 24.1524C25.567 24.3666 25.4313 24.4094 25.2742 24.5808C25.1457 24.7379 25.1172 24.8307 25.1529 25.0306C25.2243 25.509 25.5313 25.6161 26.3667 25.459C26.588 25.4233 26.8094 25.3948 26.8522 25.409C26.8951 25.4233 26.7309 25.6732 26.5024 25.966C23.9033 29.2219 19.8405 31.1712 15.6492 31.1784C12.586 31.1784 9.57996 30.1573 7.09515 28.258C6.85953 28.0795 6.25974 27.5368 5.76707 27.0584C4.78171 26.1017 4.63177 26.0302 4.24619 26.3301C4.09625 26.4444 4.06055 26.5372 4.06055 26.7871C4.06055 27.0941 4.08911 27.1298 4.83169 27.8724C7.29508 30.3572 10.5082 31.9138 14.0069 32.328C14.9352 32.4351 17.32 32.3779 18.1625 32.2208C21.9255 31.5282 25.0743 29.6932 27.402 26.83L27.9447 26.1588L28.0518 26.7371C28.1875 27.4654 28.316 27.6225 28.7515 27.594C29.0015 27.5797 29.1014 27.5297 29.2157 27.3798L29.3656 27.1798L29.1014 25.7018C28.8658 24.3594 28.8229 24.2023 28.6587 24.0524C28.4231 23.8525 28.3731 23.8596 26.7666 24.1524Z" fill="white"/>
</svg>
