<svg xmlns="http://www.w3.org/2000/svg" width="27" height="23" viewBox="0 0 27 23" fill="none">
<path d="M16.2936 4.00738C16.2936 5.48951 15.019 6.7545 13.3663 6.7545C11.7136 6.7545 10.439 5.48951 10.439 4.00738C10.439 2.52525 11.7136 1.26025 13.3663 1.26025C15.019 1.26025 16.2936 2.52525 16.2936 4.00738Z" stroke="white" stroke-width="1.5"/>
<path d="M6.3669 12.2231C6.71553 10.468 8.26402 9.14502 10.1215 9.14502H16.3433C18.2008 9.14502 19.7493 10.468 20.0979 12.2231H6.3669Z" stroke="white" stroke-width="1.5"/>
<path d="M18.7151 15.961V18.7587H22.6599L25 13.0361H2L4.5407 18.7587H8.75291M18.7151 15.961H8.75291V18.7587M18.7151 15.961V22.5102M8.75291 18.7587V22.5102" stroke="white" stroke-width="1.5"/>
<path d="M20.3198 7.63184C22.9829 9.17258 23.5892 10.3671 23.3954 12.9729" stroke="white" stroke-width="1.5"/>
<ellipse cx="19.9184" cy="7.44107" rx="1.00291" ry="0.953761" fill="white"/>
</svg>