<svg width="29" height="29" viewBox="0 0 29 29" fill="none" xmlns="http://www.w3.org/2000/svg">
<path d="M3.85773 0.95582C3.74517 1.02461 3.60133 1.16844 3.53254 1.28101C3.40747 1.48112 3.40747 1.61245 3.40747 7.73473V13.9758L3.57632 13.9321C3.78894 13.882 5.02716 13.882 5.23978 13.9321L5.40863 13.9758V7.73473C5.40863 1.61245 5.40863 1.48112 5.28355 1.28101C5.09594 0.980835 4.81453 0.830748 4.40805 0.830748C4.17666 0.830748 3.99531 0.86827 3.85773 0.95582Z" fill="white"/>
<path d="M13.8636 0.955732C13.4446 1.21213 13.4133 1.34346 13.4133 2.73176V3.96997L13.5822 3.9262C13.6697 3.90743 14.0449 3.88867 14.4139 3.88867C14.7829 3.88867 15.1581 3.90743 15.2456 3.9262L15.4145 3.96997V2.73176C15.4145 1.59985 15.402 1.46853 15.2894 1.28092C15.1018 0.980747 14.8204 0.83066 14.4139 0.83066C14.1825 0.83066 14.0012 0.868181 13.8636 0.955732Z" fill="white"/>
<path d="M23.8692 0.955688C23.7566 1.02448 23.6128 1.16831 23.544 1.28088C23.4252 1.48099 23.4189 1.60606 23.4189 5.73344V9.97339L23.5878 9.92961C23.8004 9.87958 25.0386 9.87958 25.2513 9.92961L25.4201 9.97339V5.73344C25.4201 1.60606 25.4138 1.48099 25.295 1.28088C25.1074 0.980702 24.826 0.830616 24.4195 0.830616C24.1881 0.830616 24.0068 0.868137 23.8692 0.955688Z" fill="white"/>
<path d="M13.3195 5.94613C11.9186 6.36513 10.868 7.44075 10.5116 8.81654C10.3803 9.31683 10.3803 10.3549 10.5116 10.8615C10.868 12.2373 12.0625 13.4254 13.4195 13.7444C13.9323 13.8632 14.8954 13.8632 15.4019 13.7444C16.7902 13.4192 17.9534 12.2623 18.3161 10.8552C18.4474 10.3549 18.4474 9.31683 18.3161 8.81029C18.1785 8.28498 17.7845 7.54706 17.4156 7.12807C17.0153 6.68406 16.3462 6.24005 15.7709 6.03368C15.1705 5.81481 13.9073 5.77103 13.3195 5.94613Z" fill="white"/>
<path d="M23.3253 11.9498C21.9245 12.3688 20.8739 13.4444 20.5174 14.8202C20.3861 15.3205 20.3861 16.3586 20.5174 16.8651C20.8739 18.2409 22.0683 19.4291 23.4254 19.748C23.9382 19.8669 24.9012 19.8669 25.4078 19.748C26.7961 19.4229 27.9592 18.2659 28.3219 16.8589C28.4533 16.3586 28.4533 15.3205 28.3219 14.8139C28.1844 14.2886 27.7904 13.5507 27.4214 13.1317C27.0212 12.6877 26.3521 12.2437 25.7767 12.0373C25.1764 11.8185 23.9131 11.7747 23.3253 11.9498Z" fill="white"/>
<path d="M13.4133 21.9429C13.4133 28.0652 13.4133 28.1965 13.5384 28.3967C13.726 28.6968 14.0074 28.8469 14.4139 28.8469C14.8204 28.8469 15.1018 28.6968 15.2894 28.3967C15.4145 28.1965 15.4145 28.0652 15.4145 21.9429V15.7018L15.2456 15.7456C15.1581 15.7644 14.7829 15.7831 14.4139 15.7831C14.0449 15.7831 13.6697 15.7644 13.5822 15.7456L13.4133 15.7018V21.9429Z" fill="white"/>
<path d="M3.31359 15.952C1.91278 16.371 0.862177 17.4466 0.505721 18.8224C0.374395 19.3227 0.374395 20.3608 0.505721 20.8673C0.862177 22.2431 2.05662 23.4313 3.41365 23.7502C3.92644 23.8691 4.8895 23.8691 5.39604 23.7502C6.78434 23.4251 7.94751 22.2681 8.31022 20.8611C8.44155 20.3608 8.44155 19.3227 8.31022 18.8161C8.17264 18.2908 7.77867 17.5529 7.4097 17.1339C7.00947 16.6899 6.34034 16.2459 5.765 16.0395C5.16466 15.8207 3.90143 15.7769 3.31359 15.952Z" fill="white"/>
<path d="M23.4189 24.9447C23.4189 28.0715 23.4252 28.1965 23.544 28.3967C23.7316 28.6968 24.013 28.8469 24.4195 28.8469C24.826 28.8469 25.1074 28.6968 25.295 28.3967C25.4138 28.1965 25.4201 28.0715 25.4201 24.9447V21.7053L25.2513 21.7491C25.1637 21.7678 24.7885 21.7866 24.4195 21.7866C24.0506 21.7866 23.6753 21.7678 23.5878 21.7491L23.4189 21.7053V24.9447Z" fill="white"/>
<path d="M3.40747 26.946C3.40747 28.3343 3.43874 28.4656 3.85773 28.722C4.13914 28.8908 4.67695 28.8908 4.95837 28.722C5.37736 28.4656 5.40863 28.3343 5.40863 26.946V25.7078L5.23978 25.7515C5.15223 25.7703 4.77701 25.7891 4.40805 25.7891C4.03909 25.7891 3.66387 25.7703 3.57632 25.7515L3.40747 25.7078V26.946Z" fill="white"/>
</svg>
