<svg width="20" height="20" viewBox="0 0 20 20" fill="none" xmlns="http://www.w3.org/2000/svg">
<path d="M15.4868 0.0818224C15.2685 0.181881 15.1275 0.32742 15.0319 0.550279C14.9501 0.750396 14.9455 0.8641 15.0138 1.1097C15.0547 1.25979 15.2503 1.4781 16.0689 2.30131L17.0741 3.31554L9.9335 3.32463C1.90152 3.34283 2.64286 3.30644 1.83784 3.70213C1.01008 4.10691 0.377896 4.87554 0.109556 5.81246C0.0504308 6.00348 0.0276902 6.34459 0.0140459 7.19509C-0.0132429 8.53678 0.000401496 8.67323 0.195971 8.89609C0.373348 9.10075 0.568917 9.18262 0.859997 9.18262C1.12379 9.18262 1.30116 9.12349 1.4467 8.98705C1.6923 8.75964 1.7014 8.70052 1.72869 7.43159L1.75143 6.24908L1.87878 5.98983C2.04251 5.65327 2.33814 5.35765 2.6747 5.19391L2.93394 5.06657L10.0063 5.05292L17.0741 5.04382L16.0689 6.05351C15.2503 6.88127 15.0547 7.09958 15.0138 7.24966C14.9455 7.50436 14.9546 7.63171 15.0501 7.84092C15.2548 8.28664 15.7415 8.47766 16.169 8.27754C16.4237 8.15929 19.8484 4.72091 19.9439 4.48895C20.0303 4.27519 20.0303 4.08417 19.9439 3.87041C19.8484 3.63845 16.4237 0.200073 16.169 0.0818224C15.937 -0.0273333 15.7187 -0.0273333 15.4868 0.0818224Z" fill="#239371"/>
<path d="M18.7837 10.8697C18.6337 10.9288 18.4745 11.0834 18.3835 11.2517C18.3198 11.3654 18.3016 11.5928 18.2835 12.5707L18.2607 13.7532L18.1334 14.0124C17.9696 14.349 17.674 14.6446 17.3374 14.8083L17.0782 14.9357L10.0059 14.9493L2.93809 14.9584L3.94322 13.9487C4.76188 13.121 4.95745 12.9027 4.99839 12.7526C5.05751 12.5297 5.06206 12.4797 5.00294 12.2659C4.90742 11.9203 4.53903 11.6383 4.18427 11.6383C3.85681 11.6383 3.70217 11.7702 1.90112 13.5758C0.118251 15.3678 0 15.5042 0 15.8226C0 16.1409 0.118251 16.2774 1.90112 18.0693C3.70217 19.8749 3.85681 20.0068 4.18427 20.0068C4.53903 20.0068 4.90742 19.7249 5.00294 19.3792C5.06206 19.1654 5.05751 19.1154 4.99839 18.8925C4.95745 18.7425 4.76188 18.5241 3.94322 17.7009L2.93809 16.6867L10.0786 16.6776C18.1106 16.6594 17.3693 16.6958 18.1698 16.3047C18.8247 15.9817 19.3204 15.4815 19.6615 14.7992C19.9435 14.2353 19.9754 14.0579 19.9981 12.8072C20.0117 12.1841 20.0072 11.5837 19.989 11.4746C19.9572 11.2381 19.7479 10.9743 19.5251 10.8833C19.3568 10.8105 18.952 10.806 18.7837 10.8697Z" fill="#239371"/>
</svg>
