<svg width="57" height="54" viewBox="0 0 57 54" fill="none" xmlns="http://www.w3.org/2000/svg">
<rect width="57" height="54" rx="15" fill="#239571"/>
<path d="M25.0952 13.0635C22.9797 13.2688 20.8268 14.0341 19.0161 15.235C15.7495 17.4003 13.6028 20.8288 13.0864 24.7177C12.9495 25.7132 12.9806 27.8288 13.1424 28.7061C13.2295 29.1728 13.5468 30.5417 13.5779 30.5852C13.5904 30.5977 15.9984 29.8572 16.0233 29.8261C16.0357 29.8199 15.9984 29.6768 15.9486 29.5026C15.6935 28.6439 15.5939 27.947 15.5628 26.8083C15.5255 25.5888 15.5939 24.923 15.8615 23.8528C16.6268 20.7728 18.7486 18.147 21.6232 16.7097C23.7886 15.627 26.2712 15.3035 28.6792 15.795C30.2161 16.1123 31.8215 16.8466 33.1219 17.8421C34.4037 18.819 35.7041 20.4368 36.3575 21.8617C37.1228 23.5354 37.3841 24.8234 37.3841 26.9701V28.3141L35.8161 26.7772L34.2543 25.2403L33.3459 26.1488L32.4375 27.0572L35.5672 30.1808L38.6908 33.3105L41.7708 30.2305C43.4632 28.5381 44.8508 27.1194 44.8508 27.0883C44.8508 27.051 44.4588 26.6341 43.9797 26.155L43.1086 25.2839L41.5281 26.8643L39.9477 28.4448L39.9166 26.6154C39.8917 25.1283 39.8606 24.6617 39.761 24.1017C38.9832 19.9514 36.4259 16.4732 32.7175 14.5319C30.4152 13.3186 27.7708 12.8083 25.0952 13.0635Z" fill="white"/>
<path d="M15.7621 32.4404C15.1398 32.7888 14.7043 33.0688 14.7105 33.1186C14.7354 33.4048 16.2474 35.4084 16.9443 36.0804L17.2305 36.3604L18.0954 35.4581C18.5745 34.9604 18.9603 34.531 18.9665 34.4999C18.9665 34.475 18.7176 34.1826 18.4065 33.859C18.1016 33.5355 17.6412 32.9506 17.3798 32.5586C17.1185 32.1666 16.8883 31.8492 16.8634 31.8492C16.8385 31.8492 16.347 32.1168 15.7621 32.4404Z" fill="white"/>
<path d="M34.161 34.2571C33.8437 34.5807 33.5886 34.8731 33.601 34.898C33.6508 35.0349 35.1566 36.7646 35.2312 36.7646C35.3059 36.7646 36.6499 35.458 36.6872 35.346C36.7059 35.29 34.8392 33.6473 34.777 33.6598C34.7584 33.666 34.4784 33.9335 34.161 34.2571Z" fill="white"/>
<path d="M20.329 36.4092C20.1361 36.7203 19.8499 37.1994 19.6819 37.4607C19.4455 37.8403 19.4019 37.9647 19.4579 38.0332C19.4952 38.0767 19.9308 38.3132 20.4161 38.5558C21.281 38.9914 23.129 39.6634 23.2099 39.5763C23.2846 39.4954 23.8197 37.1745 23.7761 37.1372C23.745 37.1123 23.4526 37.0065 23.1104 36.8945C22.4321 36.683 21.7166 36.3718 21.1379 36.0421C20.9264 35.9238 20.7397 35.8305 20.721 35.8305C20.6961 35.8305 20.5219 36.0918 20.329 36.4092Z" fill="white"/>
<path d="M31.473 36.2349C31.3174 36.3158 30.9752 36.4713 30.7138 36.5833C30.4463 36.6891 30.2285 36.8135 30.2285 36.8571C30.2285 36.9504 31.0063 39.1158 31.0561 39.1718C31.1245 39.2402 32.9663 38.4127 32.9663 38.3131C32.9663 38.2633 31.8587 36.21 31.7903 36.1291C31.7716 36.1104 31.6285 36.154 31.473 36.2349Z" fill="white"/>
<path d="M27.4597 37.3867C27.2544 37.4116 26.8437 37.4364 26.545 37.4427L26.0099 37.4489L25.9726 37.8969C25.9539 38.1458 25.9228 38.7244 25.9042 39.1724L25.873 40H26.489C27.0615 40 28.3619 39.8942 28.4117 39.8444C28.4242 39.832 28.3557 39.2596 28.2624 38.5751C28.1006 37.3991 28.0819 37.3244 27.9637 37.3307C27.889 37.3369 27.665 37.3618 27.4597 37.3867Z" fill="white"/>
</svg>
