<svg width="44" height="36" viewBox="0 0 44 36" fill="none" xmlns="http://www.w3.org/2000/svg">
<path d="M37.9908 0.164547C36.7183 0.577015 35.6301 1.69156 35.2527 2.97283C34.5945 5.21946 36.183 9.21249 38.14 10.2305L38.6226 10.485V17.6286V24.7634L38.3418 25.0793C37.6661 25.8516 37.0956 27.7121 36.7007 30.4063C36.3672 32.6792 36.4901 33.4866 37.3063 34.3115C38.7104 35.7069 41.273 35.2067 41.9487 33.3901C42.1857 32.7582 42.1857 32.0298 41.9487 30.3712C41.5977 27.9315 40.957 25.8428 40.3339 25.1144L40.0268 24.7634V17.6198V10.485L40.5095 10.2305C42.4665 9.21249 44.0549 5.21946 43.3967 2.97283C43.0194 1.674 41.9224 0.568241 40.6323 0.164547C39.9215 -0.0548477 38.6841 -0.0548477 37.9908 0.164547ZM40.6236 1.79686C42.1593 2.63057 42.4577 4.34187 41.466 6.69381C41.3432 6.98342 41.0974 7.44854 40.9307 7.71181C39.7723 9.55475 38.7631 9.48454 37.5871 7.49242C36.8236 6.18481 36.4199 4.41208 36.6832 3.44673C36.8938 2.6569 37.71 1.81441 38.4822 1.57747C38.6314 1.53359 39.0702 1.50726 39.4564 1.51604C40.0356 1.54236 40.2374 1.58624 40.6236 1.79686ZM39.5792 26.8082C40.0443 28.0368 40.6411 31.0381 40.6411 32.1088C40.6411 33.0478 40.1497 33.6095 39.3247 33.6095C38.4998 33.6095 38.0083 33.0478 38.0083 32.1176C38.0083 30.6959 39 26.3255 39.3247 26.3255C39.3686 26.3255 39.4827 26.5449 39.5792 26.8082Z" fill="url(#paint0_linear_144_195)"/>
<path d="M0.0263277 4.00839L0.0526553 7.32567L0.289604 7.80835C0.737175 8.72104 1.54456 9.44066 2.40459 9.69517L2.77318 9.80048L2.79951 17.2863L2.81706 24.7634L2.53623 25.0793C1.86049 25.8516 1.29006 27.7121 0.895141 30.4063C0.561657 32.6792 0.684519 33.4866 1.50068 34.3115C2.90482 35.7069 5.46738 35.2067 6.14312 33.3901C6.38007 32.7582 6.38007 32.0298 6.14312 30.3712C5.79209 27.9315 5.15145 25.8428 4.52836 25.1144L4.2212 24.7634L4.23875 17.2775L4.26508 9.80048L4.63367 9.69517C5.49371 9.44066 6.30109 8.72104 6.74866 7.80835L6.98561 7.32567L7.01194 4.00839L7.03826 0.699879H6.33619H5.63412L5.60779 3.70123C5.58147 6.3691 5.56391 6.75524 5.4235 7.0624C5.23921 7.46609 4.80919 7.93999 4.46693 8.12428L4.2212 8.25592V4.47351V0.699879H3.51913H2.81706V4.47351V8.25592L2.58011 8.12428C2.22908 7.93999 1.79906 7.46609 1.61476 7.0624C1.47435 6.75524 1.4568 6.3691 1.43047 3.70123L1.40414 0.699879H0.702071H0L0.0263277 4.00839ZM3.77363 26.8082C4.23875 28.0368 4.83552 31.0381 4.83552 32.1088C4.83552 33.0478 4.34407 33.6095 3.51913 33.6095C2.6942 33.6095 2.20275 33.0478 2.20275 32.1176C2.20275 30.6959 3.19442 26.3255 3.51913 26.3255C3.56301 26.3255 3.6771 26.5449 3.77363 26.8082Z" fill="url(#paint1_linear_144_195)"/>
<path d="M19.3948 1.53359C12.6988 2.57792 7.43327 7.88733 6.45037 14.5833C6.2573 15.9173 6.31873 18.708 6.57323 19.884C7.92472 26.1324 12.497 30.7046 18.7454 32.0386C19.6054 32.2229 19.9389 32.2492 21.7731 32.2492C24.0636 32.2492 24.8446 32.1351 26.6437 31.5471C31.4617 29.9675 35.2353 26.0447 36.6482 21.1477C37.0607 19.7085 37.2186 18.5325 37.2186 16.8475C37.2186 15.1625 37.0607 13.9866 36.6482 12.5561C35.9286 10.055 34.7526 8.01897 32.9185 6.1146C30.549 3.64858 27.4511 2.03382 24.125 1.54236C22.9929 1.36685 20.4655 1.36685 19.3948 1.53359ZM23.6599 2.99039C24.5463 3.10447 25.9328 3.45551 26.7578 3.78022C31.2774 5.56172 34.4016 9.2476 35.481 14.0568C35.6565 14.8466 35.6829 15.1977 35.6829 16.8475C35.6829 18.4974 35.6565 18.8484 35.481 19.6383C34.2787 25.0179 30.4437 29.0285 25.1957 30.3975C24.0548 30.6959 23.0807 30.8187 21.7643 30.81C18.9297 30.81 16.4022 30.0465 14.0064 28.4492C10.9524 26.422 8.90762 23.3943 8.05636 19.6119C7.88962 18.8484 7.86329 18.4798 7.86329 16.8475C7.86329 15.1977 7.88962 14.8466 8.06513 14.0568C8.68822 11.2836 9.97828 8.89656 11.9002 6.97464C14.9981 3.88553 19.2983 2.42873 23.6599 2.99039Z" fill="url(#paint2_linear_144_195)"/>
<path d="M19.5878 6.50076C15.4456 7.38713 12.2599 10.5903 11.4262 14.715C11.1717 15.9436 11.1717 17.7515 11.4262 18.9801C12.2775 23.1925 15.6738 26.5098 19.8774 27.247C21.0183 27.44 22.8086 27.4225 23.9055 27.1943C28.0478 26.3518 31.2773 23.1223 32.1198 18.9801C32.3743 17.7515 32.3743 15.9436 32.1198 14.715C31.3212 10.7658 28.3637 7.65918 24.4058 6.5973C23.6949 6.413 23.3439 6.3779 21.9924 6.35157C20.6585 6.32524 20.2811 6.35157 19.5878 6.50076ZM24.1776 8.11552C27.3018 9.01944 29.5572 11.2661 30.5226 14.4342C30.742 15.1713 30.7595 15.3293 30.7595 16.8475C30.7595 18.3658 30.742 18.5237 30.5226 19.2521C29.5397 22.4378 27.3632 24.6142 24.1776 25.5971C23.4492 25.8165 23.2912 25.834 21.773 25.834C20.2548 25.834 20.0968 25.8165 19.3596 25.5971C16.2003 24.6317 14.0063 22.4378 13.0234 19.2521C12.804 18.5237 12.7865 18.3658 12.7865 16.8475C12.7865 15.3293 12.804 15.1713 13.0234 14.4342C13.9888 11.2836 16.2705 9.00189 19.3596 8.11552C20.8252 7.69428 22.7208 7.69428 24.1776 8.11552Z" fill="url(#paint3_linear_144_195)"/>
<path d="M17.5606 14.8466C17.5606 16.0928 17.5168 17.2073 17.4729 17.3916C17.3413 17.8392 16.9376 18.1639 16.49 18.1639C15.9898 18.1639 15.5422 17.7164 15.5422 17.2161C15.5422 16.8037 15.823 16.4087 16.2443 16.2332C16.3847 16.1718 16.5075 16.1104 16.5075 16.0928C16.5075 16.0753 16.3584 15.7681 16.1828 15.4083L15.8581 14.7589L15.4544 14.9607C14.4628 15.4609 14.0503 16.1191 14.0503 17.1986C14.0503 17.7427 14.0942 17.9533 14.2785 18.3219C14.7173 19.2083 15.4632 19.6558 16.5075 19.6558C17.5519 19.6558 18.2978 19.2083 18.7366 18.3219L18.9648 17.8655V15.2503V12.6351H18.2627H17.5606V14.8466Z" fill="url(#paint4_linear_144_195)"/>
<path d="M23.3529 12.8106C23.2037 12.9598 23.1773 13.1002 23.1773 13.7496C23.1686 15.4785 22.8877 16.3561 22.0891 17.1635C21.5275 17.7251 20.843 18.0674 20.1497 18.1376L19.667 18.1902V18.9186V19.6558H20.1146C20.6674 19.6558 21.7381 19.3048 22.3261 18.9186C23.1422 18.4009 23.897 17.5057 24.2305 16.6896L24.3445 16.3912L24.7219 17.181C25.0027 17.7602 25.2046 18.0586 25.4766 18.278C26.205 18.866 26.3367 18.9011 27.8022 18.9362C29.5048 18.9801 29.496 18.9801 29.496 17.769C29.496 16.6896 29.2941 16.1279 28.7062 15.5312C28.241 15.0748 27.5214 14.7413 26.9949 14.7413H26.6877V15.4873C26.6877 16.1981 26.6965 16.2332 26.8896 16.2332C27.3547 16.2332 28.0041 16.8914 28.0041 17.3653C28.0041 17.5672 27.9865 17.5759 27.5126 17.5145C26.9598 17.4531 26.6438 17.3127 26.3718 17.0055C26.2665 16.9002 25.7926 15.8997 25.3274 14.8028C24.8184 13.618 24.406 12.7667 24.3094 12.7229C24.0374 12.5737 23.5459 12.6176 23.3529 12.8106Z" fill="url(#paint5_linear_144_195)"/>
<path d="M19.6316 13.3284L19.1226 13.8374L19.456 14.2674C19.9124 14.873 20.202 15.5663 20.2722 16.2332L20.3249 16.8037L21.0533 16.83L21.7729 16.8563V16.3473C21.7729 15.733 21.5886 14.9958 21.2814 14.3376C21.0533 13.855 20.3161 12.8106 20.202 12.8106C20.1757 12.8106 19.9124 13.0388 19.6316 13.3284Z" fill="url(#paint6_linear_144_195)"/>
<defs>
<linearGradient id="paint0_linear_144_195" x1="35.3569" y1="2.01846" x2="47.5425" y2="3.92679" gradientUnits="userSpaceOnUse">
<stop offset="0.585" stop-color="#386641"/>
<stop offset="1" stop-color="#6A994E"/>
</linearGradient>
<linearGradient id="paint1_linear_144_195" x1="0.212756" y1="2.67811" x2="10.4348" y2="4.03919" gradientUnits="userSpaceOnUse">
<stop offset="0.585" stop-color="#386641"/>
<stop offset="1" stop-color="#6A994E"/>
</linearGradient>
<linearGradient id="paint2_linear_144_195" x1="7.27042" y1="3.18239" x2="39.3023" y2="24.0652" gradientUnits="userSpaceOnUse">
<stop offset="0.585" stop-color="#386641"/>
<stop offset="1" stop-color="#6A994E"/>
</linearGradient>
<linearGradient id="paint3_linear_144_195" x1="11.8724" y1="7.55188" x2="33.7268" y2="21.806" gradientUnits="userSpaceOnUse">
<stop offset="0.585" stop-color="#386641"/>
<stop offset="1" stop-color="#6A994E"/>
</linearGradient>
<linearGradient id="paint4_linear_144_195" x1="14.1989" y1="13.0387" x2="20.2137" y2="15.7799" gradientUnits="userSpaceOnUse">
<stop offset="0.585" stop-color="#386641"/>
<stop offset="1" stop-color="#6A994E"/>
</linearGradient>
<linearGradient id="paint5_linear_144_195" x1="19.9641" y1="13.0374" x2="27.9011" y2="20.2702" gradientUnits="userSpaceOnUse">
<stop offset="0.585" stop-color="#386641"/>
<stop offset="1" stop-color="#6A994E"/>
</linearGradient>
<linearGradient id="paint6_linear_144_195" x1="19.2027" y1="13.0432" x2="22.5172" y2="14.4568" gradientUnits="userSpaceOnUse">
<stop offset="0.585" stop-color="#386641"/>
<stop offset="1" stop-color="#6A994E"/>
</linearGradient>
</defs>
</svg>
