<svg xmlns="http://www.w3.org/2000/svg" width="67" height="56" viewBox="0 0 67 56" fill="none">
  <path d="M18.9752 0.328953C18.8993 0.506198 18.8486 0.873348 18.8486 1.13922C18.8486 1.56967 18.9626 1.74691 19.7728 2.63314C21.3174 4.31697 21.7352 5.44374 22.0264 8.72277C22.1023 9.6723 22.2163 10.4952 22.2669 10.5585C22.4822 10.7864 22.71 9.1279 22.71 7.40609C22.6974 5.31713 22.4568 4.241 21.5959 2.60782C21.0515 1.55701 19.6716 -0.000216484 19.2917 -0.000216484C19.1778 -0.000216484 19.0385 0.151708 18.9752 0.328953Z" fill="#346652"/>
  <path d="M30.4458 0.493736C30.3065 0.64566 30.1293 1.26602 29.9647 2.17757C29.6735 3.83607 29.6988 4.26653 30.2432 8.10262C30.5977 10.584 30.9648 14.2682 31.2434 18.2309C31.5092 21.8138 31.6612 29.6632 31.5092 30.9799C31.1041 34.3475 29.5216 37.386 27.0781 39.4876C26.4704 40.0194 26.3565 40.0827 26.6223 39.7535C26.9262 39.3864 26.9768 39.2344 26.9262 38.728C26.8376 37.8418 26.0653 36.3226 25.3057 35.5629C23.7358 33.993 22.3178 33.7272 13.5948 33.36C8.36611 33.1448 6.80888 33.0182 4.7579 32.6637C3.04875 32.3599 2.71958 32.3472 2.51702 32.6004C2.21317 32.9676 2.69426 33.3347 4.93515 34.4615C8.63197 36.3099 9.82205 36.6137 14.0379 36.8416C19.33 37.1202 20.9378 37.2847 22.2165 37.6646C23.1407 37.9304 24.3308 38.7533 24.8879 39.5003C25.3563 40.1333 25.7614 40.3739 26.0906 40.1966C26.1792 40.146 26.1159 40.2346 25.9387 40.3739C25.7614 40.5131 23.7738 41.7412 21.5076 43.0958C19.2414 44.4505 17.2917 45.6659 17.1651 45.8052C16.6333 46.4002 17.6208 46.3496 20.6467 45.6279C23.3307 44.9949 24.5967 44.6024 25.5969 44.1087L26.2552 43.7795L25.6728 44.3366C25.3563 44.6278 24.7613 45.2988 24.3561 45.8052C21.3556 49.578 16.0889 52.1607 11.3793 52.1607C8.35344 52.1607 5.44156 51.1605 3.87168 49.578C2.54234 48.2486 1.90932 46.4762 1.79538 43.7415C1.68144 41.0322 2.20051 38.8166 3.60581 36.0693C4.06158 35.1831 4.27681 34.6007 4.22617 34.4488C4.13754 34.1703 3.25132 33.7652 2.97279 33.8791C2.52968 34.0437 1.18768 37.6139 0.731908 39.8548C0.364758 41.6272 0.276135 45.3241 0.542003 47.0839C1.2763 51.8442 3.40324 54.5028 7.39126 55.6043C8.29014 55.8448 8.70793 55.8828 11.0628 55.8828C13.5442 55.8828 13.8101 55.8575 14.9622 55.541C19.254 54.3889 23.5206 50.8693 25.6855 46.7167C25.9767 46.1343 26.3312 45.3114 26.4578 44.8936C26.6603 44.2226 26.673 44.1087 26.5084 43.9314C26.3312 43.7415 26.3818 43.6782 26.9768 43.2984C27.8884 42.7034 29.281 41.3614 29.9394 40.4372C30.7623 39.2851 31.1927 38.2469 31.7245 36.1706L32.1929 34.3096L32.5854 35.7908C33.0918 37.6899 33.3197 38.1456 34.1046 38.9433C34.9655 39.8042 35.8264 40.1333 37.257 40.1333C39.2447 40.1333 40.65 39.4497 42.701 37.4746L43.9924 36.2213L44.3342 36.9429C44.7646 37.8924 45.309 38.5001 46.3852 39.2344C47.36 39.8928 47.322 39.7915 47.1448 41.2854C47.0688 42.0071 47.0815 42.1337 47.2587 42.197C47.436 42.2603 47.5752 42.083 47.9297 41.3361C48.1703 40.8043 48.4235 40.3612 48.4615 40.3232C48.5121 40.2979 49.1831 40.3865 49.9427 40.5258C53.3863 41.1715 56.9692 40.6651 60.3116 39.0572C61.5143 38.4875 63.7172 37.0822 64.6794 36.2846C66.0087 35.1705 66.9836 32.9043 67.0089 30.8913C67.0216 29.41 66.6671 28.6757 65.1985 27.2198C62.9956 25.0295 60.6661 24.3712 58.1593 25.2194C55.5133 26.1056 53.0952 28.739 49.6895 34.4615C49.2971 35.1325 48.8539 35.7782 48.7273 35.8921C48.4994 36.0947 48.4488 36.082 47.7525 35.6895C46.8536 35.1705 45.9927 34.3349 45.7268 33.7019C45.6129 33.4487 45.4863 32.8916 45.4483 32.4738C45.3217 31.2711 45.1065 31.3344 43.296 33.0688C42.4731 33.8664 41.4729 34.7274 41.0552 35.0059C39.7005 35.9048 38.08 36.4112 36.9279 36.3099C35.7505 36.196 34.6997 35.1198 34.4338 33.7525C34.1173 32.2333 33.7628 27.9034 33.6615 24.4978C33.4969 19.307 33.1045 13.1288 32.6993 9.35599C32.4208 6.69732 31.1421 0.797585 30.7496 0.341812C30.699 0.291172 30.5724 0.354473 30.4458 0.493736ZM61.4257 28.9542C62.4132 29.4227 62.9069 29.7772 64.4009 31.1318C65.477 32.1067 65.7175 32.5118 65.4264 32.8663C65.1858 33.1575 63.6412 34.183 62.5271 34.7907C60.4128 35.9427 57.3111 36.9303 54.8929 37.2214C53.8295 37.348 53.4117 37.3354 52.0064 37.1455C51.0948 37.0189 50.2719 36.8543 50.1706 36.7783C50.006 36.6644 50.1073 36.4492 50.715 35.4743C51.9684 33.4993 52.5381 32.7777 54.0447 31.2711C56.2476 29.0808 57.463 28.4605 59.4253 28.5111C60.4128 28.5491 60.6787 28.5997 61.4257 28.9542Z" fill="#346652"/>
  <path d="M37.5104 3.01279C37.3711 3.10141 36.3203 4.94983 36.3203 5.10175C36.3203 5.15239 36.852 5.19037 37.4977 5.19037C38.6245 5.19037 39.612 5.35496 39.612 5.54486C39.612 5.59551 38.9283 5.97532 38.0928 6.39311C37.2572 6.8109 36.5735 7.17805 36.5735 7.22869C36.5735 7.36796 37.0926 7.46924 37.8396 7.46924C38.7384 7.46924 39.6373 7.05145 40.321 6.31715C41.1819 5.36762 41.8276 3.75975 41.5364 3.30398C41.4731 3.21536 41.1692 3.08875 40.8654 3.02545C40.1817 2.89885 37.7003 2.88619 37.5104 3.01279Z" fill="#346652"/>
  <path d="M7.27724 4.63337C7.23926 4.74731 7.20128 5.4563 7.20128 6.21592C7.20128 7.77314 7.34055 8.25423 7.93558 8.76065C8.15081 8.93789 8.72053 9.6722 9.21428 10.4065C10.417 12.1663 11.6957 13.7615 13.6074 15.8631C15.1646 17.5596 15.6078 17.9141 16.38 18.1167C16.6206 18.18 16.4433 18.1926 15.9369 18.1546C15.4812 18.1167 12.7339 18.0154 9.82198 17.9141C5.12498 17.7495 4.42866 17.7495 3.70702 17.9141C1.59274 18.4078 0.212765 19.8258 0.0228595 21.6995C-0.141725 23.2821 0.529274 24.2063 3.78299 26.9156C5.11232 28.0171 6.18845 28.9919 6.18845 29.1058C6.18845 29.2198 5.74534 29.8148 5.22627 30.4478C4.37802 31.4607 3.90959 32.1317 3.90959 32.3469C3.90959 32.3849 4.09949 32.4102 4.34004 32.4102C4.56793 32.4102 4.92242 32.4735 5.13764 32.5368C5.68204 32.7267 6.04919 32.5495 7.08734 31.5746L7.98622 30.739L8.34071 31.1568C8.54328 31.3974 8.70787 31.6253 8.72053 31.6759C8.72053 31.8658 9.20162 31.7772 9.27758 31.5746C9.31556 31.4607 9.39152 31.0682 9.42951 30.6884C9.48015 30.3086 9.61941 29.8655 9.74601 29.7009C10.1005 29.2451 17.4815 25.5736 21.5961 23.7885C22.1278 23.5606 22.1278 23.5606 21.9886 23.8012C21.862 24.0037 21.9633 24.1683 22.8495 25.1305C26.6476 29.2958 27.7997 31.2834 28.4707 34.879C28.6226 35.6386 28.7619 36.3729 28.7999 36.4868C28.9011 36.8287 29.2176 36.7527 29.3063 36.3602C29.3442 36.1703 29.4076 35.9298 29.4329 35.8158C29.4582 35.7146 29.5342 35.0562 29.6101 34.3472C29.7367 32.9419 29.6101 31.3214 29.2809 30.1313C28.8758 28.7007 27.5212 26.3839 25.9386 24.4342C24.4447 22.5604 24.394 22.5351 23.1533 23.1681C22.1532 23.6746 22.0012 23.6492 22.9634 23.1302C23.875 22.6364 24.1788 22.2059 24.6093 20.826C24.9891 19.5853 25.0017 19.2941 24.7106 19.1421C24.4953 19.0282 21.4948 18.6357 18.8488 18.3699L17.7727 18.2686L18.6969 18.2433C19.2919 18.2306 19.6084 18.18 19.6084 18.0913C19.6084 17.8381 18.8868 17.0405 15.2406 13.2298C13.3162 11.2041 11.683 9.46963 11.6197 9.35569C11.5311 9.17844 11.6197 9.15312 12.4047 9.21642C13.5061 9.29239 13.7087 9.1278 13.177 8.55808C12.6073 7.95039 7.84696 4.43081 7.59375 4.43081C7.45449 4.43081 7.31523 4.51943 7.27724 4.63337ZM11.835 21.3957C14.2531 21.535 17.0257 21.8261 17.6461 22.0034C18.0132 22.1173 17.9626 22.1426 16.6332 22.7757C13.9113 24.067 12.4807 24.852 9.77134 26.5611L8.73319 27.2068L5.46681 24.5481C3.66904 23.0795 2.1498 21.8261 2.0865 21.7755C2.0232 21.7122 2.25108 21.5856 2.59291 21.4716C3.35253 21.2438 8.39136 21.2058 11.835 21.3957Z" fill="#346652"/>
  <path d="M52.0189 8.4446C51.3605 8.71047 51.0061 9.16625 50.4996 10.4703C50.2085 11.2046 49.8793 12.2047 49.7527 12.6858L49.5248 13.5594L49.1197 12.4959C48.436 10.6728 46.8914 8.78644 46.1698 8.88772C45.9546 8.91304 45.828 9.06496 45.7014 9.43211C45.4355 10.1917 45.6001 10.7361 46.3344 11.673C46.6889 12.1034 47.056 12.5845 47.1573 12.7111C47.2966 12.9137 47.3599 12.9264 47.5245 12.7871C47.689 12.6478 47.7523 12.6605 47.9169 12.8631C48.2967 13.3442 48.474 13.8126 48.8538 15.2052C49.069 15.9902 49.2716 16.6738 49.3096 16.7371C49.5375 17.0916 49.702 16.6865 50.0312 15.066C50.4363 13.0403 50.9301 11.2046 51.2086 10.7994C51.4998 10.3437 51.9303 10.3057 52.5759 10.6855C52.8925 10.8627 53.1963 11.0147 53.2596 11.0147C53.4115 11.0147 53.7913 9.95119 53.7913 9.55872C53.7913 9.15359 52.8292 8.34332 52.3734 8.36864C52.2848 8.36864 52.1202 8.40662 52.0189 8.4446Z" fill="#346652"/>
  <path d="M5.32746 11.926C5.1882 12.2931 4.94765 13.1034 4.79573 13.7237C4.35261 15.5088 4.60582 16.3444 5.59333 16.3697C6.16305 16.3824 6.51754 16.0785 6.7201 15.4202C6.91001 14.7872 6.75808 14.6353 6.20103 14.8252C5.8592 14.9391 5.75791 14.9391 5.66929 14.7999C5.41608 14.4074 5.39076 13.9389 5.59333 12.9641C5.83388 11.7993 5.8592 11.2676 5.69461 11.2676C5.63131 11.2676 5.46673 11.5715 5.32746 11.926Z" fill="#346652"/>
  <path d="M26.002 11.5339C23.3813 12.5974 20.634 13.9014 20.2795 14.2559C19.887 14.6357 19.6971 15.3193 19.9883 15.3193C20.1149 15.3193 25.6981 12.9139 26.3312 12.5847C26.711 12.3948 27.2047 11.7365 27.2047 11.4199C27.2047 11.2047 26.7363 11.2427 26.002 11.5339Z" fill="#346652"/>
  <path d="M38.7509 12.3693C38.4344 12.8377 37.6241 14.9394 37.3203 16.1041C37.0417 17.1929 37.0037 18.6995 37.257 19.2945C37.6241 20.1934 38.3204 20.4719 39.1054 20.0668C39.3079 19.9655 39.5485 19.7503 39.6244 19.5984C39.8776 19.1173 40.4853 17.2182 40.3714 17.2182C40.3208 17.2182 39.9916 17.4461 39.6624 17.7246C38.599 18.5982 38.2824 18.3703 38.2824 16.7245C38.2951 15.9395 38.3964 15.2052 38.6876 14.0531C38.9028 13.1796 39.1307 12.3693 39.1687 12.2427C39.3079 11.9009 39.0294 11.9895 38.7509 12.3693Z" fill="#346652"/>
  <path d="M58.729 17.4209C52.1076 19.3453 40.0676 24.1815 38.4724 25.5488C37.9534 25.9919 36.776 28.0429 36.8772 28.3215C36.9659 28.524 36.9532 28.524 39.5486 27.3086C44.9039 24.8019 50.2086 22.6116 56.0577 20.5227C57.0578 20.1555 58.1213 19.6997 58.4252 19.4845C58.9442 19.13 60.5015 17.4082 60.5015 17.193C60.5015 17.0158 59.8305 17.0917 58.729 17.4209Z" fill="#346652"/>
  <path d="M26.7745 18.4837C26.5213 19.256 26.4453 19.7371 26.4453 20.5727C26.4453 21.5602 26.4706 21.6868 26.7618 21.9653C27.4581 22.6743 28.319 22.1172 28.5343 20.7879C28.6356 20.1928 28.5723 20.1549 28.0279 20.5094C27.5341 20.8385 27.5214 20.8259 27.3315 20.3827C27.2049 20.0789 27.2049 19.8004 27.3189 19.1167C27.5088 17.9393 27.4961 17.4709 27.2809 17.4709C27.1796 17.4709 26.977 17.876 26.7745 18.4837Z" fill="#346652"/>
  <path d="M46.1953 28.777C46.1953 30.1444 46.246 30.2583 46.7777 30.2583C47.0942 30.2583 47.2588 30.1697 47.4107 29.9418C47.6892 29.5113 47.6006 29.1822 47.1828 29.1822C46.727 29.1695 46.7017 29.1315 46.6004 28.4099C46.5498 28.0807 46.4359 27.7895 46.3472 27.7515C46.2333 27.7136 46.1953 27.9794 46.1953 28.777Z" fill="#346652"/>
  <path d="M19.8616 28.4475C19.7856 28.7134 19.6844 29.3084 19.6464 29.7642C19.5704 30.7137 19.7477 31.0176 20.368 31.0176C20.6466 31.0176 20.7858 30.929 20.9377 30.6378C21.2289 30.0681 21.1783 29.9035 20.7225 29.8528L20.3047 29.8148L20.2667 28.8906C20.2288 27.8905 20.0768 27.7259 19.8616 28.4475Z" fill="#346652"/>
  <path d="M8.18891 38.7151C7.89772 38.8797 7.45461 39.538 7.45461 39.7913C7.45461 39.8166 7.70781 39.7913 8.01166 39.7153C8.31551 39.652 8.67 39.6267 8.7966 39.6773C8.97385 39.7406 8.84725 39.8799 8.20157 40.323C6.73297 41.3485 6.41646 42.2853 7.2647 43.0323C7.85974 43.5514 8.56872 43.716 9.86007 43.6527C11.6832 43.5387 15.304 42.1967 16.8106 41.0446C17.4563 40.5509 18.2919 39.6646 18.2033 39.576C18.1779 39.5507 17.5829 39.8672 16.8992 40.2723C13.6962 42.1714 9.97402 42.9943 8.34083 42.1587C7.61919 41.7916 7.68249 41.4751 8.6067 40.9307C9.50558 40.3989 10.2019 39.7786 10.3032 39.4114C10.3665 39.1962 10.2905 39.0443 10.0373 38.8037C9.61953 38.4239 8.72064 38.3733 8.18891 38.7151Z" fill="#346652"/>
  <path d="M55.0067 42.9439L53.8799 43.5895L53.1583 43.4503C52.1708 43.273 51.5504 43.425 50.3097 44.1719C49.069 44.9315 47.8916 45.5139 46.3597 46.1469C45.1569 46.6407 44.9797 46.8433 45.7646 46.8433C47.0813 46.8433 49.0943 46.1723 50.6895 45.2227C51.7403 44.5771 52.462 44.3492 52.7278 44.5771C52.8291 44.653 52.8797 44.8303 52.8418 44.9442C52.7785 45.1468 52.9051 45.1721 54.1331 45.1721C55.8296 45.1974 56.374 45.0582 56.9817 44.4378C57.3995 44.0327 57.4628 43.8807 57.4628 43.3996C57.4628 42.9692 57.3868 42.7666 57.1716 42.5641C56.7158 42.1336 56.2474 42.2222 55.0067 42.9439ZM56.3867 43.6655C56.4246 43.7415 56.3487 43.8554 56.2094 43.9187C55.9182 44.0833 54.9307 44.1086 54.9307 43.9567C54.9307 43.6529 56.2221 43.4123 56.3867 43.6655Z" fill="#346652"/>
  <path d="M34.421 42.7542C34.0792 42.9821 33.8006 43.2986 33.788 43.4506C33.788 43.5139 33.9146 43.5518 34.0792 43.5518C34.5223 43.5518 34.8514 43.843 34.7502 44.1469C34.6995 44.2861 34.307 44.8179 33.8639 45.337C33.4082 45.856 33.0663 46.2865 33.0917 46.3118C33.117 46.3371 33.2942 46.2738 33.4968 46.1725C35.13 45.3116 36.2694 43.6405 35.7503 42.8429C35.5098 42.4757 34.8894 42.4377 34.421 42.7542Z" fill="#346652"/>
</svg>