<svg width="57" height="54" viewBox="0 0 57 54" fill="none" xmlns="http://www.w3.org/2000/svg">
<rect width="57" height="54" rx="15" fill="#239571"/>
<path d="M19.3519 13.062C17.3429 13.4671 15.6569 15.0491 15.1259 17.0307L15 17.496V26.9934V36.4909L15.1259 36.9562C15.6733 39.0035 17.4688 40.6293 19.5216 40.9523C19.8172 40.9961 22.3626 41.007 29.2325 40.9961L38.5384 40.9796L38.9763 40.8537C40.7006 40.3611 42.1622 38.9871 42.726 37.3394C43.0052 36.5073 42.9997 36.7646 42.9997 28.1485C42.9997 19.3188 43.0216 19.8827 42.6604 19.1272C42.5016 18.7824 42.2772 18.5415 39.8576 16.122C37.4819 13.7463 37.1918 13.4725 36.8688 13.3193C36.1134 12.958 36.6827 12.9799 27.7819 12.9854C21.3663 12.9908 19.6365 13.0073 19.3519 13.062ZM21.5415 17.0635C21.5415 19.1765 21.5579 19.3134 21.9082 20.0086C22.1655 20.5176 22.7403 21.0979 23.2658 21.3661C24.0103 21.7493 23.8023 21.7384 28.9862 21.7384C34.1646 21.7384 33.9457 21.7548 34.7011 21.3716C35.2266 21.1088 35.8014 20.5341 36.0641 20.0086C36.4035 19.3353 36.4309 19.1437 36.4309 17.4084V15.8538L38.4891 17.9065C39.6168 19.0342 40.5966 20.0578 40.6623 20.1783L40.7828 20.3972V28.1704C40.7828 35.4454 40.7773 35.9654 40.6842 36.2938C40.3777 37.4106 39.5675 38.27 38.4837 38.6422L38.0457 38.79H28.9862H19.9266L19.4613 38.6203C18.3939 38.2426 17.6494 37.4708 17.3155 36.4088L17.1896 35.9982V26.9934V17.9886L17.3155 17.5781C17.633 16.5599 18.3665 15.7771 19.3354 15.4104C19.7624 15.2461 20.1894 15.1859 20.9831 15.175L21.5415 15.1695V17.0635ZM29.862 15.8921C29.862 16.5599 29.873 16.6256 29.9989 16.8446C30.2014 17.1894 30.5189 17.3591 30.9568 17.3591C31.3948 17.3591 31.7123 17.1894 31.9148 16.8446C32.0407 16.6256 32.0517 16.5599 32.0517 15.8921V15.1695H33.1519H34.2467L34.2303 16.9321C34.2139 18.6182 34.2084 18.7112 34.0989 18.9192C33.9621 19.171 33.8526 19.275 33.5844 19.4174C33.4037 19.5159 33.1848 19.5214 28.9862 19.5214C24.5851 19.5214 24.5796 19.5214 24.3606 19.4064C24.1088 19.2696 24.0048 19.1601 23.8625 18.8919C23.7694 18.7167 23.7585 18.536 23.7421 16.9321L23.7256 15.1695H26.7911H29.862V15.8921Z" fill="white"/>
<path d="M23.9232 25.7839C22.801 26.1123 21.9142 27.0155 21.6241 28.1268C21.5529 28.3895 21.542 29.0464 21.542 32.1611V35.878L21.6788 36.1134C22.0784 36.7922 23.1623 36.8141 23.5783 36.1517L23.7042 35.9437L23.7316 32.3308C23.759 28.9369 23.7645 28.707 23.863 28.5264C24.0053 28.2581 24.1093 28.1487 24.3611 28.0118C24.5801 27.8969 24.5856 27.8969 28.9867 27.8969C33.1853 27.8969 33.4042 27.9023 33.5849 28.0009C33.8531 28.1432 33.9626 28.2472 34.0995 28.499C34.2144 28.7125 34.2144 28.7672 34.2418 32.3308L34.2691 35.9437L34.3951 36.1517C34.5921 36.4637 34.9151 36.628 35.3366 36.628C35.7745 36.628 36.092 36.4583 36.2945 36.1134L36.4314 35.878V32.1721C36.4314 28.0501 36.4369 28.1541 36.0646 27.4097C35.8019 26.8842 35.2271 26.3094 34.7016 26.0466C33.9462 25.6634 34.1706 25.6799 28.9538 25.6853C24.6458 25.6853 24.2243 25.6963 23.9232 25.7839Z" fill="white"/>
<path d="M26.43 30.2008C26.0906 30.4033 25.9209 30.7208 25.9209 31.1532C25.9209 31.5912 26.0906 31.9087 26.4355 32.1112L26.6708 32.248H28.9864H31.3019L31.5373 32.1112C31.8821 31.9087 32.0518 31.5912 32.0518 31.1532C32.0518 30.7153 31.8821 30.3978 31.5373 30.1953L31.3019 30.0584H28.9809H26.6599L26.43 30.2008Z" fill="white"/>
<path d="M26.43 34.5806C26.0906 34.7832 25.9209 35.1007 25.9209 35.5331C25.9209 35.971 26.0906 36.2885 26.4355 36.4911L26.6708 36.6279H28.9864H31.3019L31.5373 36.4911C31.8821 36.2885 32.0518 35.971 32.0518 35.5331C32.0518 35.0952 31.8821 34.7777 31.5373 34.5752L31.3019 34.4383H28.9809H26.6599L26.43 34.5806Z" fill="white"/>
</svg>
