<svg xmlns="http://www.w3.org/2000/svg" width="50" height="50" viewBox="0 0 50 50" fill="none">
<rect width="50" height="50" rx="10" fill="#F2F2F5"/>
<path d="M20.3378 10.1096C17.6921 10.5175 15.3693 11.6959 13.4827 13.5938C11.5395 15.5427 10.3895 17.8824 10.0552 20.5905C9.98159 21.208 9.98159 22.8056 10.0552 23.4231C10.2705 25.1454 10.8824 26.896 11.7718 28.2953C12.7519 29.8532 14.2419 31.3206 15.7829 32.2497C17.3125 33.1674 19.0008 33.7453 20.7627 33.9606C21.4878 34.0456 23.0968 34.0286 23.8333 33.9266C25.9464 33.632 27.8613 32.8672 29.4986 31.6605C29.6912 31.5245 29.8668 31.4169 29.8895 31.4225C29.9121 31.4339 31.6174 33.0938 33.6796 35.122C35.7417 37.1445 37.5037 38.8497 37.6056 38.9007C37.9909 39.116 38.6027 38.9857 38.8463 38.6458C38.9936 38.4362 39.0503 37.9433 38.9483 37.6997C38.8973 37.5694 33.6116 32.3007 31.5041 30.2725L31.2831 30.0572L31.6344 29.6436C32.4389 28.7032 33.317 27.1792 33.7306 26.0065C34.7956 22.9869 34.62 19.684 33.2547 16.8627C32.6258 15.5653 31.9177 14.5739 30.8582 13.5202C28.9377 11.6053 26.4053 10.3872 23.652 10.053C22.8758 9.96235 21.1196 9.99067 20.3378 10.1096ZM23.0458 11.9225C27.4194 12.2851 31.0509 15.3047 32.1669 19.5141C32.3935 20.3752 32.4615 20.9417 32.4615 22.0068C32.4615 23.0719 32.3935 23.6384 32.1669 24.4995C31.691 26.2841 30.8243 27.7967 29.5099 29.1111C26.7452 31.8814 22.6096 32.8389 18.8761 31.5755C15.9302 30.5784 13.5564 28.2783 12.531 25.4343C11.4829 22.528 11.8002 19.3611 13.3978 16.7834C15.2673 13.7751 18.4739 11.9622 22.094 11.8772C22.2526 11.8716 22.6775 11.8942 23.0458 11.9225Z" fill="#386641"/>
</svg>