<svg xmlns="http://www.w3.org/2000/svg" width="29" height="29" viewBox="0 0 29 29" fill="none">
<path d="M10.3354 0.110292C7.69034 0.518103 5.36809 1.69622 3.48196 3.59367C1.5392 5.5421 0.389402 7.88134 0.0552243 10.5888C-0.0184081 11.2061 -0.0184081 12.8034 0.0552243 13.4208C0.270458 15.1426 0.882173 16.8928 1.77143 18.2918C2.7513 19.8494 4.24094 21.3164 5.78156 22.2453C7.31085 23.1629 8.99873 23.7406 10.7602 23.9559C11.4852 24.0408 13.0938 24.0238 13.8301 23.9219C15.9428 23.6274 17.8573 22.8627 19.4942 21.6563C19.6868 21.5203 19.8623 21.4127 19.885 21.4184C19.9077 21.4297 21.6125 23.0893 23.6742 25.117C25.7359 27.1391 27.4975 28.8439 27.5994 28.8949C27.9846 29.1101 28.5963 28.9799 28.8398 28.64C28.9871 28.4305 29.0437 27.9377 28.9418 27.6941C28.8908 27.5639 23.6063 22.2963 21.4992 20.2686L21.2784 20.0533L21.6295 19.6399C22.4338 18.6996 23.3117 17.176 23.7252 16.0036C24.7901 12.9846 24.6145 9.6825 23.2494 6.86182C22.6207 5.56475 21.9127 4.57355 20.8535 3.52004C18.9334 1.6056 16.4016 0.387829 13.6489 0.0536518C12.8729 -0.036972 11.1171 -0.00865173 10.3354 0.110292ZM13.0428 1.92278C17.4155 2.28528 21.0461 5.30421 22.1619 9.51258C22.3885 10.3735 22.4565 10.9399 22.4565 12.0048C22.4565 13.0696 22.3885 13.636 22.1619 14.4969C21.6862 16.2811 20.8196 17.7934 19.5055 19.1075C16.7415 21.8772 12.6067 22.8344 8.87412 21.5713C5.92882 20.5744 3.5556 18.2748 2.53041 15.4315C1.48256 12.5258 1.79975 9.35966 3.397 6.78252C5.26613 3.77492 8.47198 1.96243 12.0913 1.87747C12.2499 1.87181 12.6747 1.89446 13.0428 1.92278Z" fill="#386641"/>
</svg>