<svg xmlns="http://www.w3.org/2000/svg" width="42" height="43" viewBox="0 0 42 43" fill="none">
<path d="M16.03 0.0959435C15.1864 0.360592 14.4173 1.04702 14.0534 1.83269C13.9293 2.09733 13.7639 2.82511 13.5985 3.75137C13.4579 4.56185 13.2843 5.3806 13.2016 5.57082C12.8377 6.38956 12.052 6.92713 11.1257 6.99329C10.6213 7.02637 10.5055 6.99329 9.09955 6.464C7.64399 5.91816 7.59437 5.90162 6.82524 5.90162C5.73358 5.90162 5.2291 6.10838 4.50959 6.83615C4.04646 7.30756 3.72392 7.81204 2.21047 10.4668C1.23459 12.1622 0.374489 13.6839 0.291786 13.8576C-0.121723 14.7094 -0.0886427 15.8589 0.374489 16.7604C0.672216 17.3476 0.878971 17.5543 2.17739 18.6295C3.55852 19.7707 3.8397 20.1925 3.8397 21.1519C3.8397 22.1112 3.55852 22.533 2.17739 23.6743C0.878971 24.7494 0.672216 24.9644 0.374489 25.5433C0.0436805 26.1884 -0.0721023 26.9079 0.0436805 27.5861C0.159463 28.2808 0.126383 28.2146 2.21047 31.837C3.72392 34.4917 4.04646 34.9962 4.50959 35.4676C5.2291 36.1954 5.73358 36.4021 6.82524 36.4021C7.59437 36.4021 7.64399 36.3856 9.09955 35.8397C10.5055 35.3104 10.6213 35.2774 11.1257 35.3104C12.052 35.3766 12.8377 35.9142 13.2016 36.7329C13.2843 36.9231 13.4579 37.7419 13.5985 38.5524C13.7639 39.4952 13.9293 40.2064 14.0617 40.4793C14.3263 41.0582 15.0458 41.7777 15.6495 42.0589L16.1292 42.2822H20.5538H24.9783L25.458 42.0589C26.0617 41.7777 26.7812 41.0582 27.0459 40.4793C27.1782 40.2064 27.3436 39.4952 27.509 38.5524C27.6496 37.7419 27.8233 36.9231 27.906 36.7329C28.2699 35.9142 29.0555 35.3766 29.9818 35.3104C30.4863 35.2774 30.6021 35.3104 32.008 35.8397C33.4636 36.3856 33.5132 36.4021 34.2823 36.4021C35.374 36.4021 35.8785 36.1954 36.598 35.4676C37.0611 34.9962 37.3836 34.4917 38.8971 31.8535C39.8647 30.1664 40.7248 28.6364 40.8075 28.4545C41.221 27.6109 41.1879 26.4365 40.7331 25.5516C40.4353 24.9562 40.2286 24.7494 38.9302 23.6743C37.549 22.533 37.2678 22.1112 37.2678 21.1519C37.2678 20.2339 37.5656 19.7459 38.7069 18.8197C40.485 17.3641 40.8902 16.8348 41.0639 15.7349C41.1631 15.1064 41.0639 14.3786 40.8075 13.8493C40.7248 13.6673 39.8647 12.1374 38.8971 10.4502C37.3836 7.81204 37.0611 7.30756 36.598 6.83615C35.8785 6.10838 35.374 5.90162 34.2823 5.90162C33.5132 5.90162 33.4636 5.91816 32.008 6.464C30.6021 6.99329 30.4863 7.02637 29.9818 6.99329C29.0555 6.92713 28.2699 6.38956 27.906 5.57082C27.8233 5.3806 27.6496 4.56185 27.509 3.7431C27.3105 2.61008 27.1947 2.13041 27.0045 1.74171C26.7068 1.13799 26.0948 0.550804 25.4332 0.236538L24.9783 0.0215111L20.6778 0.00497055C17.287 -0.01157 16.3029 0.0132408 16.03 0.0959435ZM24.1844 4.50396C24.4077 5.90989 24.6558 6.76999 25.0362 7.44815C26.0617 9.26759 28.0052 10.4006 30.1059 10.4006C31.0073 10.4006 31.6607 10.2435 33.1741 9.6811L34.2575 9.26759L35.9777 12.2449C37.4002 14.7094 37.6731 15.2304 37.5821 15.3131C37.516 15.371 37.0446 15.7597 36.5401 16.1815C35.3409 17.1656 34.9357 17.6288 34.4808 18.5468C34.0507 19.4151 33.8688 20.176 33.8688 21.1519C33.8688 22.1278 34.0507 22.8886 34.4808 23.757C34.9357 24.675 35.3409 25.1381 36.5401 26.1223C37.0446 26.544 37.516 26.9327 37.5821 26.9906C37.6731 27.0733 37.4002 27.5944 35.9777 30.0589L34.2575 33.0361L33.1741 32.6226C31.6607 32.0603 31.0073 31.9031 30.1059 31.9031C27.5504 31.9031 25.3422 33.5158 24.5731 35.9555C24.4656 36.2946 24.2919 37.1216 24.1844 37.7915L23.9942 39.0155H20.5538H17.1134L16.9232 37.7998C16.8156 37.1216 16.642 36.2946 16.5345 35.9555C15.7653 33.5158 13.5572 31.9031 11.0017 31.9031C10.1002 31.9031 9.4469 32.0603 7.93345 32.6226L6.85005 33.0361L5.12985 30.0589C3.71565 27.6026 3.43446 27.0733 3.52543 26.9906C3.5916 26.9327 4.063 26.544 4.56748 26.1223C5.76666 25.1381 6.1719 24.675 6.62676 23.757C7.05681 22.8886 7.23875 22.1278 7.23875 21.1519C7.23875 20.176 7.05681 19.4151 6.62676 18.5468C6.1719 17.6288 5.76666 17.1656 4.56748 16.1815C4.063 15.7597 3.5916 15.371 3.52543 15.3131C3.43446 15.2304 3.71565 14.7011 5.12985 12.2449L6.85005 9.27586L8.03269 9.71418C9.695 10.3344 10.1499 10.4254 11.2498 10.3758C12.8542 10.3096 14.1444 9.72245 15.2608 8.53155C16.2036 7.53085 16.5923 6.58805 16.9232 4.50396L17.1134 3.28824H20.5538H23.9942L24.1844 4.50396Z" fill="#346652"/>
<path d="M18.8997 13.1296C15.0375 13.9566 12.3662 17.2399 12.3662 21.1517C12.3662 25.1462 15.2029 28.5287 19.123 29.2151C24.1595 30.0918 28.7412 26.2544 28.7412 21.1517C28.7412 17.182 25.9624 13.8326 22.0423 13.0965C21.1409 12.9228 19.7846 12.9394 18.8997 13.1296ZM21.7942 16.5287C22.6378 16.7602 23.134 17.0414 23.8039 17.6699C25.7722 19.5225 25.8714 22.4501 24.0355 24.4019C22.1747 26.3702 19.2553 26.4694 17.3035 24.6334C15.236 22.6817 15.236 19.6134 17.3035 17.6699C18.544 16.5038 20.1981 16.0821 21.7942 16.5287Z" fill="#346652"/>
</svg>