<svg width="34" height="34" viewBox="0 0 34 34" fill="none" xmlns="http://www.w3.org/2000/svg">
<path d="M9.92097 21.2352C12.265 21.2384 14.1679 19.3408 14.1711 16.9968C14.1744 14.6527 12.2768 12.7499 9.93275 12.7466C7.5887 12.7434 5.68584 14.6409 5.68259 16.985C5.67933 19.329 7.57692 21.2319 9.92097 21.2352Z" stroke="white" stroke-width="2" stroke-linecap="round"/>
<path d="M24.0801 12.7662C26.4242 12.7694 28.3271 10.8718 28.3303 8.52778C28.3336 6.18373 26.436 4.28087 24.0919 4.27762C21.7479 4.27437 19.845 6.17195 19.8418 8.516C19.8385 10.86 21.7361 12.7629 24.0801 12.7662Z" stroke="white" stroke-width="2" stroke-linecap="round"/>
<path d="M24.0567 29.7432C26.4008 29.7465 28.3036 27.8489 28.3069 25.5048C28.3101 23.1608 26.4125 21.2579 24.0685 21.2547C21.7244 21.2514 19.8216 23.149 19.8183 25.4931C19.8151 27.8371 21.7127 29.74 24.0567 29.7432Z" stroke="white" stroke-width="2" stroke-linecap="round"/>
<path d="M13.4663 14.8737L20.546 10.6392" stroke="white" stroke-width="2"/>
<path d="M20.5283 23.372L13.4604 19.1179" stroke="white" stroke-width="2"/>
</svg>
