<svg xmlns="http://www.w3.org/2000/svg" width="16" height="19" viewBox="0 0 16 19" fill="none">
<mask id="path-1-inside-1_444_303" fill="white">
<path d="M12.3835 0.0367107C11.4936 0.212542 10.6898 0.83333 10.2699 1.66583C10.0618 2.08208 10.0044 2.33686 9.98644 2.90382C9.97209 3.36672 9.97927 3.46002 10.0546 3.75785L10.1407 4.09157L9.92544 4.22793C8.98887 4.81642 5.2785 7.10222 5.26055 7.10222C5.24979 7.10222 5.12061 7.00533 4.97707 6.8905C4.36346 6.38813 3.76061 6.16924 2.9927 6.16924C1.76907 6.16924 0.685379 6.8905 0.218891 8.01725C0.057414 8.4048 0 8.70263 0 9.18347C0 9.66073 0.057414 9.96215 0.215302 10.3461C0.688968 11.48 1.7583 12.1941 2.98553 12.1977C3.75703 12.1977 4.35987 11.9788 4.97707 11.4764C5.12061 11.3616 5.24979 11.2647 5.26055 11.2647C5.2785 11.2647 8.98887 13.5505 9.92544 14.139L10.1407 14.2754L10.0546 14.6091C9.97927 14.9069 9.97209 15.0002 9.98644 15.4631C9.99721 15.8722 10.0187 16.0373 10.0833 16.2346C10.3991 17.2178 11.1275 17.9463 12.1108 18.2621C12.4947 18.3841 13.2555 18.4056 13.6896 18.3015C14.7482 18.0503 15.5915 17.2358 15.9037 16.1593C16.0113 15.7861 16.0185 14.9679 15.918 14.6019C15.6238 13.5362 14.7913 12.7073 13.7255 12.4274C13.381 12.3341 12.5701 12.3341 12.2364 12.4274C11.7412 12.5637 11.2926 12.8077 10.9266 13.1414L10.7436 13.3029L8.30708 11.7958C6.96503 10.9633 5.8634 10.2815 5.85623 10.2779C5.85264 10.2743 5.88493 10.1416 5.92799 9.98727C5.99617 9.75044 6.01052 9.61767 6.01052 9.18347C6.01052 8.74928 5.99617 8.61651 5.92799 8.37968C5.88493 8.22538 5.85264 8.09261 5.85623 8.08902C5.8634 8.08543 6.96503 7.40364 8.30708 6.57114L10.7472 5.06043L10.8728 5.17885C11.2208 5.50898 11.716 5.78887 12.1897 5.92523C12.5665 6.03288 13.3487 6.04006 13.7255 5.93958C14.619 5.70275 15.3511 5.08914 15.7386 4.25305C15.9073 3.88345 15.9683 3.6215 15.9934 3.15501C16.0077 2.83923 16.0006 2.67058 15.9539 2.43733C15.7135 1.25676 14.8487 0.345312 13.7076 0.069006C13.381 -0.00634956 12.6957 -0.024292 12.3835 0.0367107ZM13.5999 1.22446C13.8906 1.33211 14.2064 1.53665 14.375 1.73401C15.0604 2.52345 15.0173 3.65738 14.2781 4.36429C13.5246 5.07837 12.3763 5.06043 11.6443 4.31764C11.3787 4.0521 11.2137 3.73632 11.1347 3.34519C11.0522 2.95047 11.1024 2.58446 11.289 2.19332C11.533 1.68377 12.0749 1.25676 12.6131 1.14911C12.8858 1.09528 13.3344 1.12758 13.5999 1.22446ZM3.38384 7.33546C4.25222 7.51847 4.88736 8.29714 4.88736 9.18347C4.88736 10.12 4.18404 10.9238 3.24748 11.0566C2.26426 11.1965 1.29899 10.4645 1.1411 9.45978C0.993979 8.49809 1.65424 7.54717 2.61951 7.33905C2.92094 7.27087 3.086 7.27087 3.38384 7.33546ZM13.5282 13.5613C13.9408 13.6833 14.314 13.9668 14.5724 14.3651C15.1142 15.1904 14.8702 16.371 14.0413 16.92C13.2698 17.4296 12.3081 17.3363 11.6586 16.6868C11.2029 16.231 11.0091 15.6174 11.1347 15.0218C11.2424 14.4979 11.5079 14.0888 11.9134 13.8161C12.4194 13.4788 12.954 13.3962 13.5282 13.5613Z"/>
</mask>
<path d="M12.3835 0.0367107C11.4936 0.212542 10.6898 0.83333 10.2699 1.66583C10.0618 2.08208 10.0044 2.33686 9.98644 2.90382C9.97209 3.36672 9.97927 3.46002 10.0546 3.75785L10.1407 4.09157L9.92544 4.22793C8.98887 4.81642 5.2785 7.10222 5.26055 7.10222C5.24979 7.10222 5.12061 7.00533 4.97707 6.8905C4.36346 6.38813 3.76061 6.16924 2.9927 6.16924C1.76907 6.16924 0.685379 6.8905 0.218891 8.01725C0.057414 8.4048 0 8.70263 0 9.18347C0 9.66073 0.057414 9.96215 0.215302 10.3461C0.688968 11.48 1.7583 12.1941 2.98553 12.1977C3.75703 12.1977 4.35987 11.9788 4.97707 11.4764C5.12061 11.3616 5.24979 11.2647 5.26055 11.2647C5.2785 11.2647 8.98887 13.5505 9.92544 14.139L10.1407 14.2754L10.0546 14.6091C9.97927 14.9069 9.97209 15.0002 9.98644 15.4631C9.99721 15.8722 10.0187 16.0373 10.0833 16.2346C10.3991 17.2178 11.1275 17.9463 12.1108 18.2621C12.4947 18.3841 13.2555 18.4056 13.6896 18.3015C14.7482 18.0503 15.5915 17.2358 15.9037 16.1593C16.0113 15.7861 16.0185 14.9679 15.918 14.6019C15.6238 13.5362 14.7913 12.7073 13.7255 12.4274C13.381 12.3341 12.5701 12.3341 12.2364 12.4274C11.7412 12.5637 11.2926 12.8077 10.9266 13.1414L10.7436 13.3029L8.30708 11.7958C6.96503 10.9633 5.8634 10.2815 5.85623 10.2779C5.85264 10.2743 5.88493 10.1416 5.92799 9.98727C5.99617 9.75044 6.01052 9.61767 6.01052 9.18347C6.01052 8.74928 5.99617 8.61651 5.92799 8.37968C5.88493 8.22538 5.85264 8.09261 5.85623 8.08902C5.8634 8.08543 6.96503 7.40364 8.30708 6.57114L10.7472 5.06043L10.8728 5.17885C11.2208 5.50898 11.716 5.78887 12.1897 5.92523C12.5665 6.03288 13.3487 6.04006 13.7255 5.93958C14.619 5.70275 15.3511 5.08914 15.7386 4.25305C15.9073 3.88345 15.9683 3.6215 15.9934 3.15501C16.0077 2.83923 16.0006 2.67058 15.9539 2.43733C15.7135 1.25676 14.8487 0.345312 13.7076 0.069006C13.381 -0.00634956 12.6957 -0.024292 12.3835 0.0367107ZM13.5999 1.22446C13.8906 1.33211 14.2064 1.53665 14.375 1.73401C15.0604 2.52345 15.0173 3.65738 14.2781 4.36429C13.5246 5.07837 12.3763 5.06043 11.6443 4.31764C11.3787 4.0521 11.2137 3.73632 11.1347 3.34519C11.0522 2.95047 11.1024 2.58446 11.289 2.19332C11.533 1.68377 12.0749 1.25676 12.6131 1.14911C12.8858 1.09528 13.3344 1.12758 13.5999 1.22446ZM3.38384 7.33546C4.25222 7.51847 4.88736 8.29714 4.88736 9.18347C4.88736 10.12 4.18404 10.9238 3.24748 11.0566C2.26426 11.1965 1.29899 10.4645 1.1411 9.45978C0.993979 8.49809 1.65424 7.54717 2.61951 7.33905C2.92094 7.27087 3.086 7.27087 3.38384 7.33546ZM13.5282 13.5613C13.9408 13.6833 14.314 13.9668 14.5724 14.3651C15.1142 15.1904 14.8702 16.371 14.0413 16.92C13.2698 17.4296 12.3081 17.3363 11.6586 16.6868C11.2029 16.231 11.0091 15.6174 11.1347 15.0218C11.2424 14.4979 11.5079 14.0888 11.9134 13.8161C12.4194 13.4788 12.954 13.3962 13.5282 13.5613Z" fill="black"/>
<path d="M12.3835 0.0367107L8.11914 -21.546L8.14177 -21.5505L8.16442 -21.5549L12.3835 0.0367107ZM10.2699 1.66583L-9.40747 -8.17287L-9.39054 -8.20674L-9.37349 -8.24055L10.2699 1.66583ZM9.98644 2.90382L-12.003 2.22198L-12.0026 2.20797L9.98644 2.90382ZM10.0546 3.75785L-11.2475 9.25517L-11.2605 9.20465L-11.2733 9.15408L10.0546 3.75785ZM10.1407 4.09157L31.4428 -1.40574L35.4459 14.1061L21.9119 22.6776L10.1407 4.09157ZM9.92544 4.22793L21.6966 22.8139L21.6635 22.8349L21.6303 22.8558L9.92544 4.22793ZM4.97707 6.8905L-8.76622 24.0696L-8.86334 23.9919L-8.95958 23.9131L4.97707 6.8905ZM0.218891 8.01725L20.5457 16.4328L20.5362 16.4558L20.5266 16.4788L0.218891 8.01725ZM0.215302 10.3461L-20.0848 18.8259L-20.1083 18.7695L-20.1316 18.713L0.215302 10.3461ZM2.98553 12.1977V34.1977H2.95336L2.9212 34.1976L2.98553 12.1977ZM4.97707 11.4764L-8.9109 -5.58592L-8.8388 -5.6446L-8.76622 -5.70267L4.97707 11.4764ZM9.92544 14.139L21.6303 -4.48883L21.6635 -4.46797L21.6966 -4.447L9.92544 14.139ZM10.1407 14.2754L21.9119 -4.31065L35.4459 4.26089L31.4428 19.7727L10.1407 14.2754ZM10.0546 14.6091L-11.2733 9.21287L-11.2605 9.16229L-11.2475 9.11178L10.0546 14.6091ZM9.98644 15.4631L31.9759 14.7813L31.9775 14.8328L31.9788 14.8844L9.98644 15.4631ZM10.0833 16.2346L30.9921 9.39177L31.011 9.44952L31.0295 9.50737L10.0833 16.2346ZM12.1108 18.2621L5.44837 39.229L5.41592 39.2187L5.38351 39.2083L12.1108 18.2621ZM13.6896 18.3015L8.56213 -3.0926L8.58623 -3.09837L8.61034 -3.1041L13.6896 18.3015ZM15.9037 16.1593L37.0418 22.2568L37.0375 22.2718L37.0331 22.2868L15.9037 16.1593ZM15.918 14.6019L37.1246 8.7469L37.1289 8.76252L37.1332 8.77814L15.918 14.6019ZM13.7255 12.4274L8.13725 33.7058L8.05574 33.6844L7.97439 33.6623L13.7255 12.4274ZM12.2364 12.4274L18.1598 33.6149L18.1184 33.6265L18.0769 33.6379L12.2364 12.4274ZM10.9266 13.1414L25.7492 29.3985L25.6167 29.5193L25.4823 29.6379L10.9266 13.1414ZM10.7436 13.3029L25.2993 29.7994L13.0562 40.602L-0.829571 32.0129L10.7436 13.3029ZM8.30708 11.7958L-3.26608 30.5058L-3.278 30.4984L-3.28992 30.491L8.30708 11.7958ZM5.85623 10.2779L-3.98247 29.9553L-7.17568 28.3587L-9.70012 25.8343L5.85623 10.2779ZM5.92799 9.98727L-15.2623 4.07369L-15.2382 3.9873L-15.2134 3.90111L5.92799 9.98727ZM5.92799 8.37968L-15.2134 14.4658L-15.2382 14.3796L-15.2623 14.2933L5.92799 8.37968ZM5.85623 8.08902L-9.70012 -7.46733L-7.17568 -9.99178L-3.98247 -11.5884L5.85623 8.08902ZM8.30708 6.57114L-3.28992 -12.124L-3.28179 -12.1291L-3.27366 -12.1341L8.30708 6.57114ZM10.7472 5.06043L-0.833571 -13.6448L13.5396 -22.5435L25.8395 -10.9465L10.7472 5.06043ZM10.8728 5.17885L25.9651 -10.8281L25.9887 -10.8058L26.0123 -10.7835L10.8728 5.17885ZM12.1897 5.92523L6.14584 27.0788L6.12469 27.0727L6.10354 27.0666L12.1897 5.92523ZM13.7255 5.93958L8.05695 -15.3176L8.0729 -15.3218L8.08885 -15.3261L13.7255 5.93958ZM15.7386 4.25305L35.7533 13.386L35.7262 13.4455L35.6986 13.5049L15.7386 4.25305ZM15.9934 3.15501L37.9707 4.15398L37.9665 4.24596L37.9616 4.33791L15.9934 3.15501ZM15.9539 2.43733L37.5114 -1.9528L37.5191 -1.91503L37.5267 -1.87722L15.9539 2.43733ZM13.7076 0.069006L18.6545 -21.3676L18.7699 -21.341L18.885 -21.3131L13.7076 0.069006ZM13.5999 1.22446L21.1407 -19.4428L21.1908 -19.4245L21.2408 -19.406L13.5999 1.22446ZM14.375 1.73401L-2.23767 16.1569L-2.29413 16.0918L-2.35007 16.0264L14.375 1.73401ZM14.2781 4.36429L29.4833 20.2641L29.447 20.2988L29.4106 20.3332L14.2781 4.36429ZM11.6443 4.31764L27.2006 -11.2387L27.2574 -11.1819L27.3138 -11.1248L11.6443 4.31764ZM11.1347 3.34519L32.669 -1.15744L32.6847 -1.08247L32.6999 -1.0074L11.1347 3.34519ZM11.289 2.19332L-8.56717 -7.27936L-8.56019 -7.29398L-8.5532 -7.30859L11.289 2.19332ZM12.6131 1.14911L8.29858 -20.4237L8.32588 -20.4291L8.3532 -20.4345L12.6131 1.14911ZM3.38384 7.33546L-1.15288 28.8626L-1.21591 28.8493L-1.27886 28.8357L3.38384 7.33546ZM3.24748 11.0566L0.147337 -10.7239L0.159578 -10.7256L3.24748 11.0566ZM1.1411 9.45978L-20.5922 12.875L-20.5991 12.8309L-20.6059 12.7867L1.1411 9.45978ZM2.61951 7.33905L7.47309 28.797L7.36489 28.8215L7.25645 28.8448L2.61951 7.33905ZM13.5282 13.5613L19.6069 -7.58224L19.6864 -7.5594L19.7656 -7.53597L13.5282 13.5613ZM14.5724 14.3651L-3.81838 26.439L-3.85171 26.3882L-3.88476 26.3373L14.5724 14.3651ZM14.0413 16.92L26.1897 35.2617L26.1777 35.2696L26.1658 35.2775L14.0413 16.92ZM11.1347 15.0218L32.6845 19.4498L32.6731 19.5052L32.6614 19.5605L11.1347 15.0218ZM11.9134 13.8161L-0.364466 -4.43918L-0.327286 -4.46419L-0.290005 -4.48904L11.9134 13.8161ZM16.6478 21.6195C22.6498 20.4336 27.392 16.5719 29.9133 11.5722L-9.37349 -8.24055C-6.01244 -14.9052 0.337348 -20.0085 8.11914 -21.546L16.6478 21.6195ZM29.9473 11.5045C30.3205 10.7582 31.0282 9.21285 31.5047 7.12626C31.9301 5.26345 31.9684 3.82124 31.9754 3.59968L-12.0026 2.20797C-11.9776 1.41944 -11.9016 -0.433641 -11.391 -2.66964C-10.8293 -5.12942 -9.98876 -7.0103 -9.40747 -8.17287L29.9473 11.5045ZM31.9759 3.58566C31.9733 3.66769 31.9798 3.49496 31.9804 3.23781C31.981 2.95095 31.9757 2.37892 31.9176 1.64824C31.7793 -0.0908432 31.4405 -1.40918 31.3826 -1.63837L-11.2733 9.15408C-11.4067 8.62705 -11.7867 7.11315 -11.9438 5.13723C-12.0642 3.62443 -12.0056 2.30523 -12.003 2.22198L31.9759 3.58566ZM31.3567 -1.73946L31.4428 -1.40574L-11.1614 9.58889L-11.2475 9.25517L31.3567 -1.73946ZM21.9119 22.6776L21.6966 22.8139L-1.84571 -14.3581L-1.6304 -14.4944L21.9119 22.6776ZM21.6303 22.8558C21.0653 23.2108 19.8192 23.9811 18.7885 24.6162C18.2562 24.9441 17.7424 25.26 17.3533 25.4982C17.1631 25.6147 16.9798 25.7266 16.8322 25.8161C16.7667 25.8558 16.6617 25.9193 16.5517 25.9848C16.5116 26.0086 16.3791 26.0874 16.2149 26.1815C16.1576 26.2144 15.9313 26.3443 15.6389 26.5006C15.5264 26.5608 15.1443 26.765 14.6432 27.0012C14.4229 27.1051 13.8504 27.3721 13.0967 27.6594C12.7029 27.8052 11.709 28.136 11.1063 28.3114C10.111 28.5609 7.19034 29.0174 5.26055 29.1022V-14.8978C3.33084 -14.813 0.410243 -14.3564 -0.584917 -14.107C-1.1875 -13.9316 -2.18125 -13.6009 -2.57488 -13.4551C-3.32819 -13.168 -3.90015 -12.9012 -4.11988 -12.7976C-4.61984 -12.5619 -5.00027 -12.3586 -5.11075 -12.2995C-5.39901 -12.1454 -5.61944 -12.0188 -5.66923 -11.9902C-5.81822 -11.9048 -5.92876 -11.8389 -5.94045 -11.832C-5.99372 -11.8003 -6.01618 -11.7865 -5.97674 -11.8104C-5.91431 -11.8482 -5.79747 -11.9195 -5.62268 -12.0265C-5.28181 -12.2352 -4.80606 -12.5276 -4.29148 -12.8447C-3.2284 -13.4996 -2.15101 -14.1664 -1.77941 -14.3999L21.6303 22.8558ZM5.26055 29.1022C1.74876 29.1022 -0.890219 28.2403 -1.65282 27.9879C-2.77202 27.6175 -3.63005 27.2324 -4.08577 27.0187C-5.01063 26.5848 -5.70226 26.1798 -5.97499 26.018C-6.59125 25.6524 -7.05615 25.3346 -7.20723 25.231C-7.58964 24.9689 -7.88945 24.7456 -8.00687 24.6578C-8.29952 24.4389 -8.56293 24.2322 -8.76622 24.0696L18.7204 -10.2886C18.6606 -10.3364 18.5336 -10.4373 18.3441 -10.5789C18.2782 -10.6282 18.0217 -10.8201 17.671 -11.0605C17.5358 -11.1531 17.0839 -11.4624 16.4773 -11.8224C16.2094 -11.9813 15.5218 -12.3841 14.6001 -12.8165C14.146 -13.0295 13.2893 -13.414 12.1712 -13.784C11.4098 -14.036 8.77168 -14.8978 5.26055 -14.8978V29.1022ZM-8.95958 23.9131C-7.70564 24.9397 -5.87859 26.1437 -3.47099 27.0186C-1.04247 27.9011 1.20704 28.1692 2.9927 28.1692V-15.8308C9.01229 -15.8308 14.5029 -13.7433 18.9137 -10.1321L-8.95958 23.9131ZM2.9927 28.1692C10.6135 28.1692 17.5868 23.5796 20.5457 16.4328L-20.1079 -0.3983C-16.2161 -9.79857 -7.07533 -15.8308 2.9927 -15.8308V28.1692ZM20.5266 16.4788C20.8888 15.6094 21.3561 14.2943 21.6673 12.6453C21.9647 11.069 22 9.81377 22 9.18347H-22C-22 6.13187 -21.489 2.91624 -20.0888 -0.444288L20.5266 16.4788ZM22 9.18347C22 8.5416 21.9633 7.31097 21.6764 5.77104C21.3766 4.1614 20.9261 2.86421 20.5622 1.97917L-20.1316 18.713C-21.5016 15.3814 -22 12.1958 -22 9.18347H22ZM20.5154 1.86632C17.5784 -5.16458 10.6757 -9.7799 3.04985 -9.8022L2.9212 34.1976C-7.1591 34.1681 -16.2005 28.1246 -20.0848 18.8259L20.5154 1.86632ZM2.98553 -9.80229C1.21032 -9.80229 -1.03223 -9.53673 -3.45621 -8.65833C-5.85741 -7.78819 -7.67377 -6.59289 -8.9109 -5.58592L18.865 28.5388C14.4717 32.1148 9.00357 34.1977 2.98553 34.1977V-9.80229ZM-8.76622 -5.70267C-8.56293 -5.8653 -8.29952 -6.07199 -8.00687 -6.29084C-7.88945 -6.37865 -7.58964 -6.60194 -7.20723 -6.86408C-7.05615 -6.96765 -6.59125 -7.28541 -5.97499 -7.65107C-5.70226 -7.81289 -5.01063 -8.21789 -4.08577 -8.65172C-3.63005 -8.86549 -2.77202 -9.25058 -1.65282 -9.62096C-0.890219 -9.87334 1.74876 -10.7353 5.26055 -10.7353V33.2647C8.77168 33.2647 11.4098 32.403 12.1712 32.151C13.2893 31.781 14.146 31.3964 14.6001 31.1834C15.5218 30.751 16.2094 30.3482 16.4773 30.1893C17.0839 29.8294 17.5358 29.5201 17.671 29.4274C18.0217 29.187 18.2782 28.9951 18.3441 28.9459C18.5336 28.8042 18.6606 28.7034 18.7204 28.6556L-8.76622 -5.70267ZM5.26055 -10.7353C7.19034 -10.6505 10.111 -10.1939 11.1063 -9.94441C11.709 -9.76901 12.7029 -9.43822 13.0967 -9.2924C13.8504 -9.00513 14.4229 -8.73815 14.6432 -8.63427C15.1443 -8.39801 15.5264 -8.19387 15.6389 -8.13369C15.9313 -7.97733 16.1576 -7.84746 16.2149 -7.81458C16.3791 -7.72047 16.5116 -7.64166 16.5517 -7.61782C16.6617 -7.55236 16.7667 -7.48888 16.8322 -7.44914C16.9798 -7.35968 17.1631 -7.24775 17.3533 -7.13128C17.7424 -6.89301 18.2562 -6.5772 18.7885 -6.24923C19.8192 -5.61418 21.0653 -4.84382 21.6303 -4.48883L-1.77941 32.7669C-2.15101 32.5334 -3.2284 31.8666 -4.29148 31.2116C-4.80606 30.8946 -5.28181 30.6021 -5.62268 30.3934C-5.79747 30.2864 -5.91431 30.2152 -5.97674 30.1773C-6.01618 30.1534 -5.99372 30.1672 -5.94045 30.1989C-5.92876 30.2059 -5.81822 30.2718 -5.66923 30.3572C-5.61944 30.3857 -5.39901 30.5123 -5.11075 30.6665C-5.00027 30.7255 -4.61984 30.9289 -4.11988 31.1646C-3.90015 31.2682 -3.32819 31.5349 -2.57488 31.8221C-2.18125 31.9678 -1.1875 32.2986 -0.584917 32.4739C0.410243 32.7234 3.33084 33.1799 5.26055 33.2647V-10.7353ZM21.6966 -4.447L21.9119 -4.31065L-1.6304 32.8614L-1.84571 32.725L21.6966 -4.447ZM31.4428 19.7727L31.3567 20.1064L-11.2475 9.11178L-11.1614 8.77806L31.4428 19.7727ZM31.3826 20.0053C31.4405 19.7761 31.7793 18.4578 31.9176 16.7187C31.9757 15.988 31.981 15.416 31.9804 15.1291C31.9798 14.872 31.9733 14.6993 31.9759 14.7813L-12.003 16.145C-12.0056 16.0617 -12.0642 14.7425 -11.9438 13.2297C-11.7867 11.2538 -11.4067 9.7399 -11.2733 9.21287L31.3826 20.0053ZM31.9788 14.8844C31.978 14.8512 31.9733 14.674 31.958 14.4176C31.9423 14.1559 31.9104 13.7178 31.8409 13.1686C31.768 12.5921 31.6592 11.9339 31.4961 11.2158C31.3328 10.4967 31.1521 9.88061 30.9921 9.39177L-10.8254 23.0775C-11.9068 19.7732 -11.9802 17.0214 -12.0059 16.0419L31.9788 14.8844ZM31.0295 9.50737C29.1758 3.7354 24.61 -0.830391 18.838 -2.68416L5.38351 39.2083C-2.35489 36.7229 -8.37756 30.7003 -10.8629 22.9619L31.0295 9.50737ZM18.7732 -2.70488C17.2287 -3.19563 15.985 -3.39045 15.3557 -3.47406C14.6249 -3.57114 13.9872 -3.61208 13.4548 -3.62596C12.9185 -3.63994 12.3046 -3.63126 11.6162 -3.57799C10.9951 -3.52992 9.91078 -3.41583 8.56213 -3.0926L18.8172 39.6957C16.0292 40.3638 13.6259 40.3935 12.3079 40.3591C11.1042 40.3277 8.47323 40.1902 5.44837 39.229L18.7732 -2.70488ZM8.61034 -3.1041C1.69711 -1.46367 -3.40603 3.75675 -5.22577 10.0317L37.0331 22.2868C34.589 30.7148 27.7993 37.5644 18.7689 39.7072L8.61034 -3.1041ZM-5.23445 10.0617C-5.7067 11.6989 -5.85907 12.9897 -5.91296 13.5003C-5.98257 14.1596 -6.00607 14.7223 -6.0102 15.1785C-6.01433 15.6337 -6.00117 16.2023 -5.94226 16.8728C-5.89757 17.3814 -5.76484 18.722 -5.29715 20.4257L37.1332 8.77814C38.0004 11.9371 37.9962 14.6685 37.988 15.5773C37.9794 16.5219 37.9277 19.1858 37.0418 22.2568L-5.23445 10.0617ZM-5.28855 20.4569C-3.5209 26.8593 1.53239 31.9712 8.13725 33.7058L19.3138 -8.85106C28.0502 -6.55666 34.7685 0.213076 37.1246 8.7469L-5.28855 20.4569ZM7.97439 33.6623C9.66431 34.12 10.9872 34.2472 11.424 34.2865C12.0434 34.3422 12.5645 34.3574 12.9769 34.3574C13.3877 34.3574 13.9175 34.3423 14.5523 34.2846C14.9833 34.2454 16.3805 34.1124 18.1598 33.6149L6.31294 -8.76021C9.49341 -9.64937 12.2645 -9.64261 12.9769 -9.64261C13.7464 -9.64261 16.4088 -9.63851 19.4767 -8.80762L7.97439 33.6623ZM18.0769 33.6379C20.7751 32.8949 23.4415 31.5026 25.7492 29.3985L-3.89599 -3.11558C-0.856232 -5.88712 2.70717 -7.76749 6.39577 -8.78319L18.0769 33.6379ZM25.4823 29.6379L25.2993 29.7994L-3.81209 -3.19351L-3.62908 -3.35499L25.4823 29.6379ZM-0.829571 32.0129L-3.26608 30.5058L19.8802 -6.91413L22.3167 -5.40702L-0.829571 32.0129ZM-3.28992 30.491C-3.95611 30.0777 -4.56194 29.7023 -5.00068 29.4306C-5.22053 29.2945 -5.39575 29.1861 -5.5145 29.1127C-5.57496 29.0753 -5.61519 29.0505 -5.63758 29.0367C-5.65075 29.0285 -5.64757 29.0305 -5.63586 29.0377C-5.63335 29.0392 -5.60733 29.0552 -5.57202 29.0767C-5.55915 29.0845 -5.50952 29.1147 -5.44518 29.1532C-5.41803 29.1695 -5.34079 29.2157 -5.24119 29.2739C-5.19401 29.3015 -5.09391 29.3597 -4.96602 29.432C-4.90351 29.4672 -4.75382 29.5504 -4.66656 29.5981C-4.53735 29.668 -4.19566 29.8473 -3.98247 29.9553L15.6949 -9.39947C16.2339 -9.12996 16.6525 -8.89085 16.6787 -8.87601C16.8068 -8.80368 16.907 -8.74531 16.9544 -8.71763C17.0544 -8.65922 17.1321 -8.61271 17.1599 -8.59607C17.2255 -8.55677 17.277 -8.52548 17.2922 -8.51624C17.3322 -8.49191 17.3649 -8.47181 17.3762 -8.46487C17.4055 -8.4469 17.4344 -8.42909 17.4547 -8.4166C17.4992 -8.38918 17.5567 -8.35367 17.6214 -8.31361C17.7532 -8.23216 17.9386 -8.11743 18.1628 -7.9786C18.6122 -7.70035 19.2282 -7.31862 19.9041 -6.89936L-3.28992 30.491ZM-9.70012 25.8343C-13.1773 22.3571 -14.5532 18.6552 -15.0639 17.0862C-15.6643 15.2414 -15.8917 13.7046 -15.991 12.8673C-16.19 11.189 -16.1458 9.86405 -16.1252 9.36653C-16.0781 8.2274 -15.9494 7.34434 -15.913 7.09453C-15.8158 6.42829 -15.7077 5.91008 -15.679 5.77198C-15.5971 5.37836 -15.5203 5.06348 -15.4896 4.93857C-15.4122 4.62349 -15.333 4.32702 -15.2623 4.07369L27.1183 15.9008C27.1459 15.8018 27.1875 15.6489 27.2389 15.4397C27.2566 15.3677 27.3233 15.0963 27.3987 14.7334C27.4243 14.6107 27.5301 14.1046 27.626 13.4469C27.6618 13.2014 27.7901 12.3217 27.8372 11.185C27.8577 10.6887 27.9019 9.36468 27.703 7.68711C27.6038 6.85018 27.3763 5.3137 26.776 3.46915C26.2655 1.90036 24.8896 -1.8014 21.4126 -5.27842L-9.70012 25.8343ZM-15.2134 3.90111C-15.2887 4.16252 -15.4306 4.67611 -15.5689 5.34042C-15.715 6.04277 -15.8197 6.73159 -15.8884 7.3956C-15.9524 8.01435 -15.9737 8.50287 -15.9821 8.77227C-15.9864 8.91071 -15.9881 9.01763 -15.9888 9.07963C-15.9895 9.14185 -15.9895 9.18053 -15.9895 9.18347H28.0105C28.0105 10.4345 27.971 12.9417 27.0694 16.0734L-15.2134 3.90111ZM-15.9895 9.18347C-15.9895 9.18642 -15.9895 9.2251 -15.9888 9.28731C-15.9881 9.34932 -15.9864 9.45623 -15.9821 9.59468C-15.9737 9.86407 -15.9524 10.3526 -15.8884 10.9713C-15.8197 11.6354 -15.715 12.3242 -15.5689 13.0265C-15.4306 13.6908 -15.2887 14.2044 -15.2134 14.4658L27.0694 2.29352C27.971 5.42528 28.0105 7.93248 28.0105 9.18347H-15.9895ZM-15.2623 14.2933C-15.333 14.0399 -15.4122 13.7435 -15.4896 13.4284C-15.5203 13.3035 -15.5971 12.9886 -15.679 12.595C-15.7077 12.4569 -15.8158 11.9387 -15.913 11.2724C-15.9494 11.0226 -16.0781 10.1395 -16.1252 9.00042C-16.1458 8.50289 -16.19 7.17792 -15.991 5.49962C-15.8917 4.66233 -15.6643 3.12556 -15.0639 1.28077C-14.5532 -0.28826 -13.1773 -3.9902 -9.70012 -7.46733L21.4126 23.6454C24.8896 20.1683 26.2655 16.4666 26.776 14.8978C27.3763 13.0532 27.6038 11.5168 27.703 10.6798C27.9019 9.00227 27.8577 7.67826 27.8372 7.18194C27.7901 6.04522 27.6618 5.16554 27.626 4.92C27.5301 4.26232 27.4243 3.75627 27.3987 3.63353C27.3233 3.27064 27.2566 2.99927 27.2389 2.92729C27.1875 2.71806 27.1459 2.56513 27.1183 2.4661L-15.2623 14.2933ZM-3.98247 -11.5884C-4.19566 -11.4803 -4.53735 -11.301 -4.66656 -11.2312C-4.75382 -11.1834 -4.90351 -11.1003 -4.96602 -11.0651C-5.09391 -10.9928 -5.19401 -10.9345 -5.24119 -10.907C-5.34079 -10.8488 -5.41803 -10.8026 -5.44518 -10.7863C-5.50952 -10.7478 -5.55915 -10.7176 -5.57202 -10.7098C-5.60733 -10.6883 -5.63335 -10.6723 -5.63586 -10.6708C-5.64757 -10.6636 -5.65075 -10.6616 -5.63758 -10.6697C-5.61519 -10.6835 -5.57496 -10.7084 -5.5145 -10.7457C-5.39575 -10.8192 -5.22053 -10.9276 -5.00068 -11.0637C-4.56194 -11.3354 -3.95611 -11.7108 -3.28992 -12.124L19.9041 25.2663C19.2282 25.6856 18.6122 26.0673 18.1628 26.3455C17.9386 26.4844 17.7532 26.5991 17.6214 26.6806C17.5567 26.7206 17.4992 26.7561 17.4547 26.7835C17.4344 26.796 17.4055 26.8138 17.3762 26.8318C17.3649 26.8388 17.3322 26.8589 17.2922 26.8832C17.277 26.8924 17.2255 26.9237 17.1599 26.963C17.1321 26.9797 17.0544 27.0262 16.9544 27.0846C16.907 27.1123 16.8068 27.1706 16.6787 27.243C16.6525 27.2578 16.2339 27.4969 15.6949 27.7664L-3.98247 -11.5884ZM-3.27366 -12.1341L-0.833571 -13.6448L22.3279 23.7657L19.8878 25.2764L-3.27366 -12.1341ZM25.8395 -10.9465L25.9651 -10.8281L-4.21951 21.1858L-4.34511 21.0674L25.8395 -10.9465ZM26.0123 -10.7835C24.7223 -12.0069 23.4433 -12.8855 22.3256 -13.5185C21.1999 -14.156 19.8539 -14.7619 18.2759 -15.2162L6.10354 27.0666C2.36719 25.991 -1.26574 23.9875 -4.26674 21.1412L26.0123 -10.7835ZM18.2336 -15.2283C16.6753 -15.6735 15.4407 -15.8273 14.8918 -15.8864C14.22 -15.9588 13.6402 -15.9842 13.1619 -15.9886C12.6839 -15.993 12.1028 -15.9785 11.428 -15.9184C10.8785 -15.8695 9.63333 -15.738 8.05695 -15.3176L19.3941 27.1968C16.38 28.0005 13.7872 28.0191 12.7533 28.0095C11.7133 27.9998 9.13225 27.932 6.14584 27.0788L18.2336 -15.2283ZM8.08885 -15.3261C2.67484 -13.891 -1.85127 -10.1122 -4.22143 -4.99881L35.6986 13.5049C32.5534 20.2905 26.5632 25.2965 19.3622 27.2052L8.08885 -15.3261ZM-4.27613 -4.87989C-4.62103 -4.12403 -5.13221 -2.86295 -5.5101 -1.23546C-5.8659 0.296917 -5.94941 1.50072 -5.9748 1.97211L37.9616 4.33791C37.8097 7.159 37.218 10.1762 35.7533 13.386L-4.27613 -4.87989ZM-5.98393 2.15604C-5.98936 2.27551 -6.0227 2.97863 -5.97307 3.92151C-5.91537 5.01786 -5.77308 5.98085 -5.61887 6.75189L37.5267 -1.87722C38.0456 0.717314 38.0316 2.81424 37.9707 4.15398L-5.98393 2.15604ZM-5.60361 6.82747C-4.19747 13.7323 1.10778 19.6539 8.53016 21.4511L18.885 -21.3131C28.5896 -18.9632 35.6244 -11.2187 37.5114 -1.9528L-5.60361 6.82747ZM8.76068 21.5056C9.94962 21.78 10.8708 21.8803 11.2516 21.9178C11.7334 21.9652 12.1472 21.9863 12.4903 21.9949C12.8304 22.0034 13.2653 22.0037 13.7856 21.9774C14.1752 21.9578 15.2327 21.896 16.6025 21.6284L8.16442 -21.5549C10.713 -22.0529 12.88 -22.0092 13.59 -21.9914C14.3911 -21.9714 16.3597 -21.8972 18.6545 -21.3676L8.76068 21.5056ZM21.2408 -19.406C24.1621 -18.3241 27.9442 -16.2514 31.1001 -12.5583L-2.35007 16.0264C-0.673153 17.9887 0.987895 19.2005 1.98396 19.8525C3.08588 20.5738 4.40358 21.2788 5.95902 21.8549L21.2408 -19.406ZM30.9877 -12.6888C39.1227 -3.31868 38.9753 11.1868 29.4833 20.2641L-0.927009 -11.5355C-8.94057 -3.87206 -9.00191 8.36559 -2.23767 16.1569L30.9877 -12.6888ZM29.4106 20.3332C19.9601 29.2887 5.11802 29.0377 -4.02521 19.76L27.3138 -11.1248C19.6346 -18.9169 7.08906 -19.132 -0.854354 -11.6047L29.4106 20.3332ZM-3.91208 19.874C-7.4498 16.3363 -9.55557 12.0322 -10.4304 7.69779L32.6999 -1.0074C31.9829 -4.55956 30.2073 -8.23206 27.2006 -11.2387L-3.91208 19.874ZM-10.3996 7.84782C-11.5578 2.30836 -10.6319 -2.95138 -8.56717 -7.27936L31.1452 11.666C31.8822 10.1213 32.5896 8.11215 32.9139 5.7059C33.2432 3.26186 33.1061 0.932817 32.669 -1.15744L-10.3996 7.84782ZM-8.5532 -7.30859C-5.41805 -13.8555 0.754483 -18.9148 8.29858 -20.4237L16.9277 22.7219C20.586 21.9902 23.4336 20.3959 25.4621 18.7964C27.506 17.1849 29.6135 14.8646 31.1312 11.6952L-8.5532 -7.30859ZM8.3532 -20.4345C11.0733 -20.9714 13.378 -20.9114 14.7546 -20.8081C16.124 -20.7054 18.4653 -20.419 21.1407 -19.4428L6.05917 21.8918C8.46901 22.771 10.4533 22.9929 11.4638 23.0687C12.4816 23.145 14.4257 23.2158 16.8731 22.7327L8.3532 -20.4345ZM7.92055 -14.1917C18.9006 -11.8777 26.8874 -2.17251 26.8874 9.18347H-17.1126C-17.1126 18.7668 -10.3962 26.9146 -1.15288 28.8626L7.92055 -14.1917ZM26.8874 9.18347C26.8874 21.2336 17.9652 31.1901 6.33538 32.8388L0.159578 -10.7256C-9.59716 -9.34247 -17.1126 -0.993567 -17.1126 9.18347H26.8874ZM6.34762 32.8371C-7.02565 34.7406 -18.6442 25.2711 -20.5922 12.875L22.8744 6.04455C21.2422 -4.34208 11.5542 -12.3475 0.147337 -10.7239L6.34762 32.8371ZM-20.6059 12.7867C-22.542 0.131041 -14.1611 -11.5484 -2.01742 -14.1667L7.25645 28.8448C17.4696 26.6427 24.53 16.8651 22.8881 6.13281L-20.6059 12.7867ZM-2.23407 -14.1189C-1.25709 -14.3399 0.584847 -14.7034 2.91808 -14.7124C5.25165 -14.7214 7.09254 -14.3716 8.04653 -14.1648L-1.27886 28.8357C-0.6227 28.978 0.986741 29.2954 3.08796 29.2873C5.18885 29.2792 6.79754 28.9498 7.47309 28.797L-2.23407 -14.1189ZM19.7656 -7.53597C25.5902 -5.81392 30.1401 -2.06162 33.0295 2.39288L-3.88476 26.3373C-1.51209 29.9952 2.29145 33.1805 7.29072 34.6585L19.7656 -7.53597ZM32.9631 2.29115C40.2033 13.3191 37.0446 28.072 26.1897 35.2617L1.89293 -1.42167C-7.30418 4.66992 -9.9748 17.0617 -3.81838 26.439L32.9631 2.29115ZM26.1658 35.2775C16.7848 41.4733 4.23605 40.3769 -3.89772 32.2431L27.215 1.13041C20.3802 -5.70437 9.75485 -6.61421 1.91683 -1.43748L26.1658 35.2775ZM-3.89772 32.2431C-9.22121 26.9196 -12.1626 18.8805 -10.392 10.483L32.6614 19.5605C34.1808 12.3543 31.627 5.54245 27.215 1.13041L-3.89772 32.2431ZM-10.415 10.5937C-9.25576 4.95185 -5.98168 -0.66124 -0.364466 -4.43918L24.1913 32.0713C28.9975 28.8388 31.7405 24.0439 32.6845 19.4498L-10.415 10.5937ZM-0.290005 -4.48904C5.55267 -8.38416 12.7671 -9.54868 19.6069 -7.58224L7.4494 34.7048C9.91132 35.4126 12.8806 35.7404 16.1059 35.2343C19.3262 34.7289 22.0278 33.5138 24.1168 32.1212L-0.290005 -4.48904Z" fill="black" mask="url(#path-1-inside-1_444_303)"/>
</svg>