<svg width="25" height="25" viewBox="0 0 25 25" fill="none" xmlns="http://www.w3.org/2000/svg">
<path d="M7.10105 15.3211C8.7579 15.3234 10.1029 13.9821 10.1052 12.3252C10.1075 10.6684 8.76622 9.32336 7.10937 9.32106C5.45252 9.31876 4.10751 10.66 4.10521 12.3169C4.10291 13.9737 5.44419 15.3188 7.10105 15.3211Z" stroke="#346652" stroke-width="2" stroke-linecap="round"/>
<path d="M17.1093 9.33521C18.7662 9.33751 20.1112 7.99623 20.1135 6.33938C20.1158 4.68253 18.7745 3.33752 17.1177 3.33522C15.4608 3.33292 14.1158 4.6742 14.1135 6.33105C14.1112 7.9879 15.4525 9.33291 17.1093 9.33521Z" stroke="#346652" stroke-width="2" stroke-linecap="round"/>
<path d="M17.0927 21.3352C18.7496 21.3375 20.0946 19.9962 20.0969 18.3394C20.0992 16.6825 18.7579 15.3375 17.1011 15.3352C15.4442 15.3329 14.0992 16.6742 14.0969 18.3311C14.0946 19.9879 15.4359 21.3329 17.0927 21.3352Z" stroke="#346652" stroke-width="2" stroke-linecap="round"/>
<path d="M9.60765 10.8247L14.6118 7.83165" stroke="#346652" stroke-width="2"/>
<path d="M14.5993 16.8316L9.60352 13.8247" stroke="#346652" stroke-width="2"/>
</svg>
