<svg width="22" height="25" viewBox="0 0 22 25" fill="none" xmlns="http://www.w3.org/2000/svg">
<path d="M6.81887 0.249147C5.31267 0.573267 4.10676 1.81731 3.81124 3.35687C3.76358 3.61426 3.74451 4.11473 3.74451 5.20148C3.74451 6.89357 3.75881 6.96984 4.0877 7.30825C4.52144 7.75153 5.20305 7.77537 5.67016 7.36545C6.05147 7.02703 6.05147 7.02703 6.08007 5.24915C6.1039 3.69529 6.1039 3.67146 6.22307 3.4379C6.39466 3.08518 6.76644 2.73247 7.10009 2.60854L7.37655 2.50844L12.9581 2.51798L18.5443 2.53228L18.7827 2.6562C19.2831 2.92312 19.5929 3.3664 19.6692 3.93838C19.6978 4.1195 19.7073 7.78967 19.7026 12.6133L19.6883 20.9784L19.5405 21.2882C19.3689 21.6505 19.1163 21.9126 18.7827 22.089L18.5443 22.2177L12.9581 22.232L7.37655 22.2415L7.10009 22.1414C6.76644 22.0175 6.39466 21.6648 6.22307 21.3121C6.1039 21.0738 6.1039 21.0642 6.08007 19.3102C6.05624 17.6038 6.05147 17.5418 5.95138 17.3512C5.67492 16.8364 5.10772 16.6028 4.53574 16.7696C4.27359 16.8459 3.87797 17.2415 3.80171 17.5037C3.71591 17.7992 3.72068 20.926 3.81124 21.3931C4.11153 22.9565 5.33174 24.2005 6.86654 24.5056C7.20495 24.5723 7.90086 24.5771 13.0629 24.5676L18.878 24.5533L19.2116 24.4389C20.632 23.9622 21.6092 22.9136 21.9237 21.5361C21.9905 21.231 22 20.3111 22 12.375C22 4.43885 21.9905 3.51893 21.9237 3.21388C21.6092 1.83161 20.6368 0.792522 19.2116 0.311111L18.878 0.196716L13.0153 0.187183C7.97712 0.182417 7.10486 0.187183 6.81887 0.249147Z" fill="#239371"/>
<path d="M11.0137 7.24583C10.885 7.30779 10.7277 7.40789 10.6705 7.46985C10.375 7.7892 10.2892 8.35164 10.4704 8.75202C10.5371 8.90455 10.8803 9.2811 11.6953 10.0962L12.825 11.2306H7.05758C1.5428 11.2306 1.28065 11.2353 1.09952 11.3211C0.689611 11.5118 0.456055 11.8931 0.456055 12.3745C0.456055 12.8559 0.689611 13.2372 1.09952 13.4279C1.28065 13.5137 1.5428 13.5185 7.05758 13.5185H12.8202L11.6477 14.6958C10.3798 15.9732 10.3703 15.9875 10.3703 16.4975C10.3703 16.9646 10.7087 17.4365 11.1281 17.5652C11.4046 17.6462 11.7954 17.6271 12.0147 17.5271C12.1386 17.4651 12.9632 16.6834 14.3836 15.2725C16.0662 13.609 16.5857 13.0657 16.662 12.8988C16.7907 12.6081 16.7859 12.1362 16.6572 11.8502C16.5237 11.5499 12.3388 7.36499 12.0338 7.22676C11.7382 7.0933 11.3188 7.10283 11.0137 7.24583Z" fill="#239371"/>
</svg>
