<svg width="26" height="26" viewBox="0 0 26 26" fill="none" xmlns="http://www.w3.org/2000/svg">
<circle cx="12.7756" cy="13.3259" r="11.8265" stroke="black" stroke-width="1.2449"/>
<circle cx="8.24886" cy="10.0443" r="1.69759" fill="black"/>
<circle cx="17.3031" cy="10.0443" r="1.69759" fill="black"/>
<path d="M19.621 14.571C19.9658 14.571 20.2481 14.8511 20.2193 15.1947C20.0725 16.9473 19.3107 18.5996 18.0577 19.8526C16.6569 21.2534 14.757 22.0403 12.776 22.0403C10.795 22.0403 8.89516 21.2534 7.49437 19.8526C6.24137 18.5996 5.47952 16.9473 5.33271 15.1947C5.30393 14.8511 5.58621 14.571 5.93108 14.571C6.27595 14.571 6.55227 14.8512 6.58682 15.1944C6.72989 16.6152 7.35877 17.9508 8.37747 18.9695C9.54404 20.1361 11.1262 20.7915 12.776 20.7915C14.4258 20.7915 16.008 20.1361 17.1746 18.9695C18.1933 17.9508 18.8222 16.6152 18.9652 15.1944C18.9998 14.8512 19.2761 14.571 19.621 14.571Z" fill="black"/>
</svg>
