<svg xmlns="http://www.w3.org/2000/svg" width="22" height="20" viewBox="0 0 22 20" fill="none">
  <path d="M11.8008 0.0418148C11.7465 0.0626945 10.1263 1.34049 8.20544 2.87718L6.13277 4.53582C5.21411 5.27097 4.07458 5.6752 2.898 5.68332C1.12747 5.69585 1.08153 5.70002 0.851863 5.79189C0.567909 5.90464 0.271427 6.18024 0.116922 6.47672C0.0401364 6.62207 0 6.78396 0 6.94834V9.97604V13.0037C0 13.1681 0.0401364 13.33 0.116922 13.4754C0.250548 13.7259 0.513623 13.9973 0.730765 14.1101C1.02725 14.2604 1.27779 14.2771 3.01493 14.2771C4.10973 14.2771 5.17199 14.6495 6.02719 15.333L8.20127 17.0707C10.1221 18.6032 11.734 19.881 11.7841 19.9103C11.9136 19.9771 12.281 19.9687 12.4188 19.8936C12.5817 19.81 12.7445 19.6054 12.7988 19.4217C12.8531 19.2213 12.8573 0.801811 12.7988 0.563791C12.7195 0.217199 12.4481 -0.00411797 12.114 5.72205e-05C11.9971 5.72205e-05 11.8551 0.020937 11.8008 0.0418148ZM11.3707 13.8387L11.3699 14.0799C11.3652 15.5424 9.67284 16.352 8.53116 15.438L8.19842 15.172C6.61932 13.9096 5.69996 11.9977 5.69996 9.97604C5.69996 7.95439 6.61932 6.04244 8.19842 4.78009L8.53116 4.5141C9.67284 3.60007 11.3652 4.4097 11.3699 5.87218L11.3707 6.11343C11.3749 8.23891 11.3749 11.7132 11.3707 13.8387ZM4.23843 9.97604V11.4167C4.23843 12.1893 3.61213 12.8156 2.83954 12.8156C2.06696 12.8156 1.44065 12.1893 1.44065 11.4167V9.97604V8.53539C1.44065 7.7628 2.06696 7.1365 2.83954 7.1365C3.61213 7.1365 4.23843 7.7628 4.23843 8.53539V9.97604Z" fill="#346652"/>
  <path d="M17.6222 2.76837C17.4217 2.85606 17.2338 3.09825 17.2046 3.31122C17.1628 3.58682 17.2422 3.76638 17.5679 4.1255C19.1129 5.80835 19.8938 7.77932 19.898 9.98414C19.898 12.1597 19.1088 14.1516 17.5679 15.8261C17.4092 16.0056 17.2547 16.2144 17.2255 16.3021C17.025 16.9076 17.689 17.4546 18.2652 17.1582C18.5241 17.0287 19.2215 16.2311 19.6767 15.5505C20.2362 14.7111 20.5536 14.0722 20.8584 13.1494C21.2259 12.0512 21.3595 11.1951 21.3595 9.97579C21.3595 8.75646 21.2259 7.90042 20.8584 6.80219C20.6162 6.06725 20.3657 5.52022 19.9815 4.88132C19.4595 4.01693 18.5951 2.96045 18.2652 2.79342C18.0815 2.69738 17.8059 2.68902 17.6222 2.76837Z" fill="#346652"/>
  <path d="M15.6387 4.76079C15.4675 4.8276 15.2629 5.05727 15.217 5.23265C15.1376 5.52078 15.2003 5.71704 15.455 6.01353C16.1273 6.80275 16.5115 7.4333 16.7578 8.15989C16.9708 8.79043 17.0334 9.20384 17.0334 9.97636C17.0334 10.7489 16.9708 11.1665 16.7578 11.7928C16.5073 12.5194 16.1273 13.1667 15.597 13.7555C15.4341 13.9392 15.2712 14.148 15.2378 14.2231C14.9706 14.8328 15.6387 15.4634 16.24 15.1585C16.62 14.9623 17.3675 13.9893 17.8059 13.1207C18.7497 11.2374 18.7497 8.71527 17.8059 6.83198C17.355 5.94254 16.5699 4.92782 16.2108 4.77749C16.0396 4.7065 15.7932 4.69815 15.6387 4.76079Z" fill="#346652"/>
</svg>