<svg width="24" height="24" viewBox="0 0 24 24" fill="none" xmlns="http://www.w3.org/2000/svg">
<path d="M12.0967 0.146088L11.9517 0.286421V6.00267V11.7189L12.0873 11.8546L12.223 11.9902H17.9392H23.6555L23.7958 11.8452L23.9408 11.7049L23.9128 10.9237C23.8753 9.76361 23.6368 8.5661 23.2392 7.50424C21.616 3.16794 17.5369 0.18351 13.0182 0.0291424L12.237 0.00107574L12.0967 0.146088ZM14.0192 1.16584C15.0063 1.3015 16.2365 1.70379 17.2142 2.20899C19.1554 3.21004 20.7319 4.78645 21.7329 6.72773C22.3644 7.94863 22.7059 9.13679 22.8743 10.6898L22.9024 10.9611H17.9439H12.9808V5.99799V1.03954L13.2521 1.06761C13.3971 1.08164 13.7433 1.12842 14.0192 1.16584Z" fill="white"/>
<path d="M9.37896 1.04826C5.99224 1.43652 3.01249 3.57426 1.32849 6.82065C0.682956 8.06026 0.290023 9.29987 0.0608112 10.8202C0.0233889 11.0681 0 11.6855 0 12.4808C0 13.8841 0.0421 14.2724 0.327445 15.3857C1.33785 19.3337 4.50938 22.538 8.4434 23.5858C9.44912 23.8525 10.0011 23.9273 11.2173 23.9507C13.1025 23.9928 14.2251 23.8291 15.4133 23.3473C16.1571 23.0432 17.1862 22.3977 17.7101 21.9065C17.9206 21.71 17.9393 21.6726 17.9393 21.4761C17.9393 21.2142 18.3837 21.8176 14.2485 16.5037L10.9694 12.2937V6.80194V1.3149L10.8104 1.15585L10.6513 0.996805L10.1929 1.00148C9.93561 1.00616 9.57074 1.02487 9.37896 1.04826ZM9.94029 7.38198V12.6866L13.3083 17.0229C15.8764 20.3207 16.6669 21.3686 16.6295 21.4153C16.536 21.5276 15.9138 21.9252 15.4414 22.1685C14.4777 22.6643 13.5188 22.8748 11.9985 22.9216C9.959 22.9824 8.38259 22.6409 6.69859 21.7802C4.76198 20.7885 3.15283 19.1793 2.15646 17.2381C1.32381 15.6102 0.954268 13.9356 1.01976 12.1299C1.08057 10.6284 1.34252 9.41214 1.8945 8.093C3.15283 5.07116 5.80513 2.79308 8.73342 2.21771C9.38363 2.09141 9.4117 2.08673 9.69704 2.07737L9.94029 2.0727V7.38198Z" fill="white"/>
<path d="M13.0932 13.13C12.8687 13.3545 12.8733 13.5837 13.1072 13.8924C13.4861 14.393 19.3661 21.6622 19.5205 21.8213C19.9227 22.2423 20.2081 22.0973 21.1577 20.9933C22.8277 19.052 23.8193 16.5541 23.9129 14.0796C23.9363 13.5042 23.9269 13.3171 23.8755 13.2235C23.7351 12.9569 23.9924 12.9709 18.4025 12.9709H13.2522L13.0932 13.13ZM22.8791 14.1731C22.8651 14.2713 22.8417 14.4865 22.823 14.6549C22.6639 16.2968 21.9295 18.196 20.9191 19.59C20.6852 19.9128 19.9882 20.7454 19.9742 20.722C19.9695 20.7173 18.7627 19.2251 17.2985 17.4101C15.8297 15.5952 14.6181 14.0842 14.5994 14.0515C14.576 14.0141 15.6192 14 18.7346 14H22.9072L22.8791 14.1731Z" fill="white"/>
</svg>
