<svg xmlns="http://www.w3.org/2000/svg" width="32" height="45" viewBox="0 0 32 45" fill="none">
<path d="M10.8526 0.171219C10.6954 0.267281 10.547 0.38081 10.5208 0.433208C10.4771 0.494339 10.3898 0.494339 10.2413 0.44194C10.119 0.389545 9.75225 0.35461 9.42913 0.35461C8.0493 0.35461 6.97514 1.38511 6.94021 2.73C6.93147 3.19286 6.91401 3.23652 6.68695 3.33258C6.33762 3.48105 5.94464 3.9701 5.87477 4.34562C5.83984 4.52901 5.85731 4.82594 5.9097 5.0268C5.99703 5.34119 5.9883 5.42852 5.76997 5.90884C5.57785 6.33676 5.48178 6.46775 5.25472 6.54635C5.09753 6.60748 4.86174 6.79961 4.73074 6.96554C4.52115 7.23626 4.48621 7.36726 4.48621 7.83884V8.38903L4.18056 8.48509C3.51684 8.69469 2.50381 9.306 1.94489 9.81252C0.713531 10.9391 0.084751 12.3276 0.00615341 14.0393C-0.054978 15.6025 0.33801 16.8863 1.24625 18.074C1.88376 18.9036 2.90553 19.6809 3.7439 19.9778L4.13689 20.1175L4.11069 20.659C4.07576 21.2528 4.25042 21.7244 4.60848 22.0475C4.76567 22.1873 4.79187 22.3183 4.79187 22.8597C4.79187 23.244 4.75694 23.4972 4.70454 23.4972C4.49495 23.4972 3.75264 24.3094 3.56924 24.7461C3.29852 25.3661 3.29852 26.1695 3.56924 26.7896L3.76137 27.2437L3.45571 27.6192C3.28979 27.8288 3.06273 28.1694 2.9492 28.3877C2.7396 28.772 2.7396 28.8069 2.7658 31.0339C2.80073 33.9944 2.69594 34.6144 1.6043 37.8194C1.08032 39.339 0.992989 40.2298 1.31611 40.7014C1.58684 41.0943 2.24182 41.4961 2.7134 41.5485C2.96666 41.5747 3.26359 41.531 3.61291 41.4087C4.34649 41.1467 4.63468 41.1729 5.21106 41.531C5.76997 41.8716 6.33762 41.9851 6.81794 41.8541C7.10613 41.7755 7.15853 41.793 7.34193 41.9851C7.70871 42.3868 8.1803 42.5615 8.87021 42.5702C9.33306 42.579 9.50773 42.6139 9.50773 42.6925C9.50773 42.9021 9.83958 43.4523 10.1365 43.7317C11.0011 44.5614 12.5294 44.5876 13.359 43.7929L13.5948 43.5658L13.9529 43.9588C14.4594 44.5002 14.9484 44.7186 15.682 44.7186C16.3719 44.7186 16.992 44.4653 17.4024 44.0374L17.6557 43.7579L18.0399 44.116C18.5464 44.5876 18.9045 44.7186 19.6119 44.7186C20.3629 44.7186 20.9655 44.4566 21.4109 43.9326L21.7253 43.5658L22.0746 43.8627C23.009 44.6574 24.5373 44.5177 25.3582 43.5571L25.6639 43.199L25.9084 43.4348C26.4499 43.9501 27.4018 44.1597 28.2139 43.9326C29.0087 43.7055 29.7248 42.8148 29.8296 41.924C29.8732 41.5747 29.9082 41.4873 30.0479 41.4873C30.5195 41.4873 31.2356 40.8848 31.4976 40.2647C31.6548 39.8892 31.6111 39.0246 31.4102 38.6316C31.2793 38.3784 31.2793 38.3434 31.4102 38.2386C31.4801 38.1775 31.6373 37.9242 31.7421 37.6885C32.1788 36.754 31.943 35.6012 31.1657 34.9026C30.7989 34.5707 30.7989 34.562 30.895 34.2389C31.2269 33.1385 30.7029 31.9246 29.6898 31.4443L29.2619 31.2347L29.4453 30.8854C29.716 30.3789 29.716 29.2785 29.4453 28.772C29.2095 28.3179 28.5371 27.7153 28.1877 27.6454C28.0393 27.6105 27.9432 27.5581 27.952 27.5319C28.5283 26.4665 28.4847 25.3923 27.8384 24.6063C27.5677 24.2745 26.9739 23.9251 26.511 23.8116L26.2665 23.7505L26.4848 23.4972C26.9564 22.9296 27.0786 21.7593 26.7293 21.0869C26.3887 20.4232 26.1355 20.2049 25.2447 19.7682C25.2272 19.7682 25.3058 19.5848 25.4106 19.3752C25.6552 18.9124 25.6814 17.9517 25.4718 17.4539C25.1661 16.7553 24.5723 16.2924 23.664 16.0217C23.568 15.9868 23.568 15.9519 23.6815 15.8296C24.1793 15.2794 24.3277 14.1005 23.9959 13.3669C23.7776 12.8866 23.3758 12.4499 22.913 12.2054C22.6423 12.0569 22.4065 12.0132 21.865 12.0132C21.1838 12.0132 20.983 12.0656 20.459 12.4062C20.2843 12.511 20.2407 12.4936 19.9437 12.1879C19.5769 11.8299 18.6512 11.2011 18.3718 11.1312C18.2233 11.0963 18.1971 11.0351 18.2233 10.712C18.267 10.1531 18.0923 9.63786 17.7168 9.2274L17.3762 8.86061L17.5509 8.49382L17.7343 8.12704L17.5509 5.62065C17.4461 4.23209 17.3675 2.6776 17.3675 2.16235C17.3675 1.13186 17.2802 0.852398 16.8784 0.538006C16.5204 0.258549 15.8741 0.284748 15.5248 0.599136L15.2541 0.843662L14.669 0.686466C14.3546 0.607872 13.7957 0.538006 13.4289 0.538006C12.9311 0.529274 12.7302 0.494339 12.6429 0.389545C12.311 -0.0121765 11.3504 -0.134441 10.8526 0.171219ZM12.0403 0.965927C12.3023 1.22792 12.3023 1.60344 12.0403 1.87416C11.8831 2.03136 11.8744 2.03136 11.7347 1.74317C11.6473 1.57724 11.4814 1.33271 11.3591 1.20172C11.167 0.992126 11.1495 0.94846 11.2543 0.878593C11.4727 0.738865 11.8569 0.782532 12.0403 0.965927ZM10.1889 1.30651C11.3941 1.92656 11.5163 3.58585 10.4072 4.28449C9.74352 4.71241 9.106 4.70368 8.45976 4.25829C7.38559 3.54218 7.56025 1.87416 8.75668 1.28032C9.1322 1.09692 9.79592 1.10566 10.1889 1.30651ZM16.4942 1.30651C16.5378 1.40258 16.5815 1.6995 16.5815 1.96149V2.45055H16.2322H15.8829V1.96149C15.8829 1.40258 15.9964 1.14059 16.2322 1.14059C16.3282 1.14059 16.4418 1.21918 16.4942 1.30651ZM14.6864 1.53357L15.0969 1.68204V2.49421C15.0969 2.9396 15.0183 4.36309 14.9222 5.65558C14.7563 7.99604 14.765 8.39776 15.0183 8.70342C15.0969 8.79948 15.0445 8.90428 14.765 9.21867C14.0751 10.0046 14.0664 11.1749 14.7563 11.9347C14.9222 12.1093 14.9222 12.118 14.5292 12.5198C13.5861 13.5153 13.7171 15.2445 14.8087 16.013L15.1755 16.275L14.8349 16.5195C14.1712 16.9998 13.8044 17.8644 13.9005 18.7028C13.9616 19.2093 14.3458 19.9603 14.6602 20.1961L14.8873 20.3621L14.5118 20.7463C13.9529 21.3314 13.7433 22.196 13.9703 23.0169C14.1013 23.471 14.5118 24.0561 14.8786 24.3094L15.1755 24.519L14.8087 24.7723C13.7258 25.5408 13.5773 27.2786 14.5118 28.2567L14.8873 28.641L14.6602 28.8069C14.3284 29.0515 13.9529 29.8112 13.9005 30.3352C13.8306 31.0251 14.0577 31.7063 14.5118 32.1779L14.8786 32.5709L14.5991 32.8329C14.1275 33.287 13.9267 33.7586 13.9092 34.4922C13.8917 35.1209 13.8917 35.1384 13.6297 35.2432C13.2717 35.4004 12.6953 35.9331 12.573 36.23C12.4682 36.4746 12.4508 36.4833 11.8395 36.4833C10.9749 36.4833 10.4596 36.7191 9.92691 37.3653C9.79592 37.5138 9.67365 37.6186 9.65619 37.5837C9.57759 37.4527 9.35053 36.2912 9.237 35.5052C9.16714 34.9463 9.14967 34.038 9.19334 32.3613C9.2632 29.2174 9.14967 28.5886 8.32003 27.6192L8.00564 27.2437L8.2065 26.7896C8.47722 26.1695 8.47722 25.3661 8.2065 24.7461C8.01437 24.3094 7.27206 23.4972 7.06247 23.4972C7.01007 23.4972 6.97514 23.244 6.97514 22.8597C6.97514 22.2921 7.00134 22.196 7.18473 22.0213C7.51659 21.7069 7.67378 21.2965 7.67378 20.7288V20.2049L8.0493 20.1001C9.11474 19.7857 9.73479 19.2268 9.3942 18.8949C9.27193 18.7726 9.1584 18.7639 8.52962 18.8512C6.21536 19.1744 4.09323 17.7771 3.42951 15.5065C3.25485 14.8952 3.23739 13.7686 3.39458 13.1922C3.73517 11.9172 4.69581 10.747 5.84857 10.1968C6.84414 9.71645 7.81351 9.60292 8.94881 9.83872C9.25447 9.89985 9.50773 9.71645 9.50773 9.42826C9.50773 9.2012 8.95754 8.85188 8.09297 8.55496L7.36813 8.31043L7.31573 7.78645C7.26333 7.22753 6.95767 6.70355 6.62581 6.59875C6.42495 6.53762 6.40749 6.42409 6.56468 6.14463C6.64328 6.0049 6.70441 5.96997 6.80048 6.0311C7.16726 6.2669 8.03184 6.04857 8.42483 5.62065C8.63442 5.39359 8.69555 5.37612 9.40293 5.37612C10.0055 5.36739 10.2413 5.33246 10.5208 5.18399C11.3417 4.74734 11.8307 4.10109 11.9268 3.32385C11.9704 2.9134 12.0054 2.861 12.3023 2.71254C12.6866 2.52041 12.9835 2.07502 13.0621 1.61217L13.1145 1.28905L13.6909 1.34145C14.0053 1.36765 14.4506 1.45498 14.6864 1.53357ZM16.6077 3.82164C16.6426 4.15349 16.6863 4.80847 16.7125 5.28879C16.7474 5.76911 16.7824 6.24943 16.8086 6.35423C16.8435 6.54635 16.826 6.55508 16.2497 6.55508H15.6645L15.7693 5.1316C15.8217 4.35435 15.8741 3.61205 15.8741 3.47231C15.8829 3.25399 15.9091 3.23652 16.2235 3.23652H16.5553L16.6077 3.82164ZM7.23713 4.10109C7.23713 4.13603 7.39432 4.35435 7.58645 4.57268L7.93577 4.96567L7.70871 5.14906C7.44672 5.35866 7.33319 5.37612 7.03627 5.23639C6.82668 5.14033 6.62581 4.82594 6.62581 4.59888C6.62581 4.42422 6.9664 4.0225 7.11487 4.0225C7.18473 4.0225 7.23713 4.05743 7.23713 4.10109ZM6.12803 7.26246C6.39876 7.38473 6.56468 7.68165 6.52102 7.96111C6.49482 8.16197 6.45989 8.1707 5.8835 8.1707H5.27219L5.25472 7.90871C5.22852 7.62925 5.34205 7.42839 5.62151 7.2712C5.83984 7.14893 5.87477 7.14893 6.12803 7.26246ZM16.8959 7.64672C16.992 8.1969 16.4767 8.70342 16.0226 8.49382C15.682 8.33663 15.5161 8.01351 15.5859 7.65545L15.6383 7.34106H16.2409H16.8348L16.8959 7.64672ZM6.08436 9.20994C5.29839 9.4894 4.81807 9.77758 4.18929 10.3627C1.95363 12.4324 1.88376 15.9693 4.04956 18.1264C4.64341 18.729 4.9316 18.9036 6.36382 19.5586C6.53848 19.6372 6.42495 19.6459 5.80491 19.611C3.80504 19.4888 2.10209 18.3185 1.26371 16.502C0.905659 15.7161 0.774663 15.131 0.774663 14.3013C0.783396 11.4107 3.13259 9.03527 6.0145 9.00908L6.66948 9.00034L6.08436 9.20994ZM16.7038 9.47193C17.8041 9.93478 17.5945 11.4543 16.3894 11.7513C16.2235 11.7949 16.0226 11.7513 15.7606 11.6203C14.8174 11.1661 14.8087 9.88238 15.7431 9.47193C16.0925 9.32347 16.3457 9.32347 16.7038 9.47193ZM18.3281 12.0132C18.5639 12.1355 18.9744 12.4324 19.2451 12.6857L19.7341 13.1485L19.5857 13.7249C19.4722 14.2052 19.4634 14.3799 19.542 14.7816C19.7341 15.6811 20.3717 16.3623 21.245 16.6068L21.5506 16.6942L21.2712 17.1396C21.0092 17.55 20.9917 17.6461 20.9917 18.336C20.9917 18.9036 21.0354 19.1744 21.1664 19.4364C21.3934 19.9079 21.9436 20.4232 22.3453 20.5367L22.6772 20.6415L22.4676 21.0869C22.1794 21.6982 22.1794 22.5017 22.4676 23.113C22.7034 23.6108 23.271 24.1435 23.7339 24.2832C23.9085 24.3443 24.1007 24.3967 24.1618 24.4229C24.2404 24.4404 24.188 24.5976 23.9959 24.9382C23.4457 25.9163 23.5854 27.0166 24.3539 27.7852C24.5723 28.0035 24.9041 28.2393 25.0788 28.3091C25.2622 28.3703 25.3932 28.4489 25.3757 28.4751C24.9478 29.2174 24.8692 30.2566 25.201 30.8854C25.463 31.3744 25.891 31.7849 26.3363 31.9858L26.7119 32.1517L26.5285 32.5097C26.0656 33.418 26.2577 34.5096 27.0175 35.2432L27.4629 35.6798L27.3406 36.0728C27.1485 36.7278 27.3494 37.6885 27.7773 38.1426C27.9607 38.3347 27.9607 38.3522 27.821 38.6491C27.7424 38.8238 27.6725 39.0333 27.6725 39.1207C27.6725 39.2429 27.5852 39.2866 27.2358 39.3303C26.6333 39.4001 26.2141 39.6185 25.7425 40.0988L25.3495 40.5005L25.0351 40.2123C24.6159 39.8368 23.8823 39.6185 23.271 39.6883C22.7121 39.7582 21.996 40.1599 21.7253 40.5442C21.6205 40.7014 21.5157 40.8498 21.507 40.8673C21.4895 40.8848 21.3323 40.7712 21.1576 40.614C20.6948 40.2123 20.2931 40.0638 19.6381 40.0638C18.9569 40.0551 18.4067 40.2734 17.9613 40.7276L17.6469 41.0332L17.3151 40.6926C16.4942 39.8543 14.9746 39.8368 14.1013 40.649C13.9703 40.78 13.8481 40.876 13.8393 40.8586C13.8306 40.8411 13.7607 40.745 13.6734 40.649C13.5249 40.4656 13.5249 40.4481 13.7433 40.1337C13.8655 39.9503 13.9616 39.7757 13.9616 39.7407C13.9616 39.7058 14.1799 39.6971 14.4419 39.7233C15.8654 39.8368 16.9832 38.7976 16.9658 37.3653C16.9658 36.7889 16.9745 36.7802 17.2278 36.6667C17.612 36.5095 18.136 36.0117 18.3543 35.6012C18.5028 35.3218 18.5464 35.0947 18.5464 34.5445C18.5464 33.9332 18.5115 33.7848 18.2845 33.3831C18.1447 33.1211 17.9351 32.8416 17.8216 32.7455L17.612 32.5796L17.9177 32.239C18.4416 31.6626 18.5464 31.3919 18.5464 30.6147C18.5464 30.0034 18.5115 29.8549 18.2845 29.4444C18.1447 29.1824 17.9264 28.903 17.8041 28.8069L17.5771 28.641L17.9439 28.2655C18.5202 27.6629 18.7473 26.6935 18.4853 25.9338C18.3369 25.4796 17.9264 24.9294 17.5858 24.7199L17.2802 24.5277L17.612 24.2832C18.7648 23.4448 18.922 21.7506 17.9439 20.7638L17.5858 20.397L17.9439 20.0389C18.9307 19.0521 18.7648 17.3491 17.612 16.5108L17.2802 16.2663L17.5858 16.0741C17.7517 15.9693 18.005 15.7161 18.1447 15.5239C18.8434 14.4934 18.7036 13.2184 17.8129 12.3713C17.5596 12.1268 17.5509 12.1006 17.6906 11.9521C17.8653 11.76 17.8129 11.7513 18.3281 12.0132ZM16.9221 12.7556C17.5509 13.07 17.8653 13.69 17.7605 14.3974C17.6819 14.9126 17.1579 15.4715 16.599 15.6375C15.9003 15.8558 15.0794 15.3929 14.7825 14.6332C14.3022 13.3581 15.6995 12.1268 16.9221 12.7556ZM22.4851 12.9215C23.5767 13.4193 23.699 14.9388 22.7034 15.6113C22.127 16.0043 21.4109 15.9606 20.8607 15.4977C20.1533 14.8952 20.1184 13.8385 20.7908 13.2184C21.2799 12.7643 21.8999 12.6508 22.4851 12.9215ZM23.6728 16.8601C24.3452 17.0522 24.8081 17.6461 24.8168 18.336C24.8343 19.7507 23.1138 20.4494 22.1532 19.4276C21.3498 18.563 21.7602 17.2182 22.9392 16.8601C23.2623 16.764 23.306 16.764 23.6728 16.8601ZM16.9134 17.0435C17.9875 17.5675 18.0836 19.0608 17.0793 19.7245C16.599 20.0389 15.8741 20.0564 15.4287 19.7507C14.9222 19.4014 14.7039 19.0084 14.7039 18.4321C14.7039 17.8033 15.0008 17.323 15.551 17.0435C16.0226 16.8077 16.4243 16.8077 16.9134 17.0435ZM6.87034 20.6677C6.88781 20.79 6.85287 21.0083 6.80048 21.1393L6.69568 21.3926L6.42495 21.2179C6.07563 21.0083 5.78744 21.0083 5.38572 21.2092L5.07133 21.3751L4.97527 21.1655C4.8792 20.9472 4.84427 20.5018 4.92287 20.4232C4.94907 20.4057 5.38572 20.397 5.90097 20.4145L6.84414 20.4407L6.87034 20.6677ZM25.4368 20.7987C26.2577 21.3576 26.3625 22.5453 25.6464 23.209C24.581 24.2046 22.9042 23.34 23.0702 21.8729C23.1226 21.41 23.4544 20.9384 23.9173 20.6852C24.3277 20.4581 25.0176 20.5105 25.4368 20.7987ZM17.0968 21.0782C18.0923 21.7419 17.9788 23.2265 16.8872 23.7592C16.1711 24.1085 15.4025 23.8727 14.9135 23.1654C14.6078 22.7113 14.6166 21.9864 14.9572 21.5061C15.4549 20.7812 16.3719 20.5978 17.0968 21.0782ZM6.18916 22.6239V23.2352H5.8835H5.57785V22.6239C5.57785 22.1436 5.60405 22.0039 5.72631 21.934C5.82237 21.8816 5.9359 21.8816 6.03197 21.934C6.16296 22.0039 6.18916 22.1349 6.18916 22.6239ZM6.52102 24.1522C7.18473 24.4317 7.58645 25.043 7.58645 25.7678C7.58645 26.1957 7.39432 26.7285 7.24586 26.7285C7.2022 26.7285 7.00134 26.6673 6.80048 26.5975C6.59962 26.5276 6.18043 26.4665 5.8835 26.4665C5.58658 26.4665 5.16739 26.5276 4.96653 26.5975C4.46002 26.7721 4.45128 26.7721 4.30282 26.4228C3.72644 25.0255 5.13246 23.5758 6.52102 24.1522ZM26.5197 24.6587C27.1136 24.8771 27.5852 25.532 27.5852 26.1346C27.5852 26.4752 27.3319 27.0603 27.0961 27.2699C26.8429 27.4882 26.3276 27.6891 25.9957 27.6891C25.3146 27.6891 24.6072 27.0778 24.4849 26.3617C24.3714 25.7329 24.7906 25.008 25.4456 24.7111C25.8473 24.5277 26.1093 24.5103 26.5197 24.6587ZM16.7387 25.1914C17.1317 25.3312 17.5945 25.8028 17.7255 26.1783C18.0312 27.1214 17.2452 28.2043 16.2409 28.2131C15.5335 28.2131 14.8349 27.6105 14.7039 26.8857C14.5904 26.2569 15.0096 25.532 15.6645 25.2351C16.0663 25.0517 16.3282 25.0342 16.7387 25.1914ZM6.78301 27.4795C7.37686 27.7764 8.0493 28.5187 8.25016 29.1039C8.38989 29.5143 8.40736 29.9335 8.41609 32.7543C8.42483 35.8283 8.43356 35.9768 8.64315 36.9112L8.86148 37.8893L8.55582 37.933C8.38116 37.9592 8.18903 37.9854 8.11917 38.0028C8.0231 38.029 7.96197 37.8718 7.87464 37.3828C7.48166 35.1297 7.176 31.1911 7.26333 29.4619C7.32446 28.4227 7.26333 28.2131 6.89654 28.2131C6.56468 28.2131 6.49482 28.4576 6.45989 29.689C6.40749 31.8111 6.66075 34.9899 7.0712 37.4265L7.24586 38.4832L6.94021 38.9897C6.59962 39.5573 6.46862 40.221 6.60835 40.7188C6.68695 40.9983 6.67821 41.0419 6.52975 41.0769C6.23283 41.1555 5.84857 40.9983 5.24599 40.5616C5.22852 40.5529 5.31586 40.0988 5.42939 39.5486C5.70011 38.3347 5.9883 36.4746 6.0669 35.4004C6.12803 34.5184 6.0669 34.3262 5.70884 34.3262C5.41192 34.3262 5.34205 34.4747 5.28092 35.2432C5.15866 36.7278 4.58228 40.0551 4.39888 40.3608C4.37268 40.387 4.18929 40.4394 3.98843 40.4656C3.77884 40.483 3.53431 40.5354 3.44698 40.5791C3.30725 40.6315 3.28979 40.614 3.32472 40.4743C4.47748 36.5794 4.853 34.562 5.0626 31.1561C5.17613 29.3571 5.15866 29.261 4.69581 29.261C4.56481 29.261 4.43382 29.296 4.40762 29.3396C4.38142 29.3746 4.32029 30.1169 4.26789 30.9727C4.08449 34.1516 3.61291 36.7802 2.73087 39.6447L2.42521 40.6315L2.15449 40.387C1.91869 40.1512 1.89249 40.0988 1.93616 39.6971C1.96236 39.4525 2.24182 38.457 2.56494 37.4701C3.52558 34.5358 3.52558 34.5184 3.52558 31.5753C3.52558 28.6847 3.52558 28.6847 4.31155 27.9598C5.115 27.2262 5.94464 27.0603 6.78301 27.4795ZM28.2401 28.5973C28.5982 28.8768 28.8951 29.427 28.8951 29.8287C28.8951 30.7719 27.8646 31.5928 26.9739 31.357C26.3189 31.1823 25.7512 30.4749 25.7512 29.8287C25.7512 29.5143 26.0132 28.9205 26.2403 28.7196C26.8079 28.2131 27.6725 28.1607 28.2401 28.5973ZM16.7998 29.165C18.0487 29.7326 18.1185 31.357 16.9221 31.9683C16.0139 32.4399 14.8611 31.8373 14.6864 30.8068C14.5904 30.1868 15.0183 29.4532 15.6645 29.165C16.1012 28.9641 16.3632 28.9641 16.7998 29.165ZM29.1397 32.0818C29.9431 32.3787 30.3797 33.2695 30.109 34.0555C30.0217 34.3088 29.9868 34.3262 29.5938 34.3262C29.1222 34.3262 28.5633 34.5009 28.1965 34.7629C27.952 34.9375 27.9258 34.9375 27.7249 34.7978C27.6026 34.7192 27.428 34.5358 27.3319 34.3786C26.8254 33.549 27.1485 32.5621 28.0655 32.1342C28.4672 31.9508 28.7292 31.9334 29.1397 32.0818ZM16.9396 33.156C17.5683 33.4791 17.9351 34.3262 17.7168 34.9725C17.5858 35.3742 17.123 35.872 16.8086 35.9506C16.6164 35.9942 16.5204 35.9593 16.2933 35.7235C15.9702 35.3917 15.5161 35.1471 15.0707 35.0685C14.7912 35.0161 14.7476 34.9637 14.6952 34.7105C14.6253 34.3262 14.8436 33.7411 15.1755 33.418C15.6645 32.9464 16.3457 32.8503 16.9396 33.156ZM30.2924 35.2869C30.7553 35.5227 31.0871 35.9855 31.1395 36.4571C31.1919 36.9199 31.1395 37.1557 30.9125 37.5313C30.7378 37.8107 30.7291 37.8107 30.4321 37.6885C30.0392 37.5225 29.2357 37.5225 28.8515 37.6797C28.5633 37.802 28.5458 37.802 28.3711 37.5837C28.2751 37.4527 28.1703 37.2518 28.1441 37.1295C28.1179 37.0073 28.0742 36.8501 28.0568 36.7802C27.9869 36.5619 28.2052 35.9855 28.4847 35.6624C28.9737 35.1035 29.6549 34.9637 30.2924 35.2869ZM15.1668 35.9418C15.813 36.2126 16.1623 36.7278 16.1623 37.3828C16.1623 37.8893 15.9877 38.2474 15.5597 38.5967C14.3196 39.6185 12.5206 38.1426 13.2542 36.7016C13.4551 36.3086 13.6559 36.1252 14.0489 35.9506C14.4419 35.7759 14.765 35.7759 15.1668 35.9418ZM12.3023 37.6186C12.311 38.0552 12.5905 38.6578 12.9573 39.0421L13.2542 39.3477L13.0708 39.6359C12.9573 39.8193 12.8438 39.9066 12.7564 39.8717C12.3722 39.7233 11.822 39.6359 11.56 39.6796C11.2718 39.7233 11.2543 39.7145 11.0797 39.3215C10.9749 39.0945 10.7566 38.7714 10.5906 38.5967L10.2937 38.291L10.4858 37.9941C10.8177 37.4963 11.2019 37.2955 11.7871 37.2955H12.3023V37.6186ZM30.3448 38.6142C30.633 38.8849 30.8164 39.2342 30.8164 39.5224C30.8164 40.0726 30.275 40.7014 29.8121 40.7014C29.7073 40.6926 29.5501 40.5529 29.4016 40.3258C29.2794 40.125 29.0087 39.863 28.8165 39.7407C28.4323 39.5049 28.3886 39.3477 28.5895 38.946C28.9126 38.3347 29.8558 38.1513 30.3448 38.6142ZM9.57759 38.8587C9.97931 39.0595 10.1627 39.2604 10.3374 39.6796L10.4771 40.0114L10.1802 40.2909C9.87451 40.5791 9.57759 41.0943 9.47279 41.5048C9.35053 42.0201 8.30256 41.8716 7.76985 41.2603C6.66948 40.0114 8.1017 38.1076 9.57759 38.8587ZM28.0655 40.256C29.2968 40.8149 29.3492 42.4829 28.1528 43.0593C27.3581 43.4435 26.5023 43.1466 26.0918 42.3432C25.6726 41.5223 26.1093 40.518 27.0175 40.1948C27.4018 40.0638 27.6725 40.0726 28.0655 40.256ZM12.1538 40.5354C12.8612 40.7276 13.4289 41.5572 13.3241 42.2384C13.2455 42.6925 12.8787 43.199 12.477 43.4086C11.298 44.0112 9.91818 42.8934 10.285 41.6445C10.4247 41.1904 10.8614 40.7276 11.298 40.5704C11.7259 40.4219 11.7434 40.4219 12.1538 40.5354ZM24.2753 40.6577C24.6159 40.8411 24.9478 41.269 25.0526 41.6707C25.236 42.3344 24.939 42.9982 24.3015 43.3737C23.0702 44.0985 21.5594 42.7624 22.1183 41.4611C22.4763 40.6315 23.4894 40.256 24.2753 40.6577ZM16.4156 41.0157C16.5466 41.0769 16.7474 41.2515 16.8697 41.3913C17.4723 42.1074 17.3587 43.0768 16.6077 43.6444C16.337 43.854 16.206 43.8889 15.7082 43.8889C15.2017 43.8889 15.0882 43.854 14.8 43.6357C14.4332 43.3562 14.1362 42.806 14.1362 42.4043C14.1362 42.0637 14.407 41.4961 14.6864 41.2428C15.1493 40.8149 15.8392 40.7276 16.4156 41.0157ZM20.3455 41.0157C20.4765 41.0769 20.6773 41.2515 20.8083 41.4C21.6903 42.4567 20.8694 44.0287 19.4896 43.9151C18.2146 43.8103 17.6207 42.3082 18.4853 41.3825C19.0093 40.8236 19.6992 40.6839 20.3455 41.0157Z" fill="#3D7761"/>
</svg>