<svg width="29" height="31" viewBox="0 0 29 31" fill="none" xmlns="http://www.w3.org/2000/svg">
<path d="M18.1316 0.667738C17.4484 0.79501 16.5374 1.09644 15.8274 1.44477C14.2867 2.2017 12.8331 3.64188 12.0293 5.22272C11.4063 6.43515 11.125 7.66098 11.125 9.13465C11.125 11.526 11.9288 13.5021 13.5901 15.1834C14.2867 15.8867 14.9632 16.3824 15.7805 16.7977C17.0599 17.4408 18.2187 17.7087 19.6991 17.7087C22.0503 17.7087 24.0062 16.925 25.6675 15.3174C27.0206 14.0045 27.8579 12.4437 28.1727 10.6351C28.3 9.88488 28.3 8.38442 28.1727 7.63418C27.9516 6.38826 27.4225 5.12224 26.6923 4.10407C26.2435 3.48781 25.2655 2.51653 24.6493 2.08112C23.6847 1.39787 22.3986 0.868692 21.1996 0.661039C20.4694 0.533768 18.8484 0.540466 18.1316 0.667738ZM20.8043 2.84475C23.0684 3.22657 25.0043 4.90119 25.7679 7.1385C26.1364 8.22365 26.1631 9.7978 25.8282 10.9098C25.2455 12.8791 23.6981 14.5069 21.7756 15.1767C20.6704 15.5585 19.3173 15.6188 18.1919 15.3308C16.3632 14.8686 14.8293 13.6494 14.0054 12.015C13.5231 11.0571 13.3355 10.2466 13.3355 9.13465C13.3355 7.29256 13.9987 5.7586 15.3384 4.49928C15.8876 3.9768 16.2226 3.73565 16.8522 3.42752C18.0981 2.80456 19.4178 2.6103 20.8043 2.84475Z" fill="white"/>
<path d="M19.1094 3.91001C18.7879 4.11097 18.6271 4.4124 18.6271 4.8478C18.6271 5.52435 18.9955 5.87937 19.7592 5.95306C21.5879 6.11382 22.8472 7.41333 22.8472 9.12815C22.8472 10.2334 22.3113 11.2114 21.3802 11.8142C20.3888 12.4439 19.0089 12.4506 18.031 11.8209C17.1334 11.2449 16.631 10.3741 16.5171 9.19513C16.4434 8.42481 16.0884 8.06309 15.4118 8.06309C14.9764 8.06309 14.675 8.22385 14.4741 8.54538C14.3669 8.71954 14.3401 8.887 14.3401 9.3425C14.3401 11.2114 15.5123 13.0602 17.2539 13.9243C18.0979 14.3463 18.7343 14.4937 19.6989 14.4937C20.6635 14.4937 21.2998 14.3463 22.1438 13.9243C23.5103 13.2477 24.5486 11.9482 24.9237 10.4478C25.1113 9.71762 25.1046 8.55208 24.9237 7.82194C24.4347 5.89277 22.941 4.399 21.0118 3.91001C20.2884 3.72915 19.4109 3.72915 19.1094 3.91001Z" fill="white"/>
<path d="M2.60465 4.97494C1.63337 5.28977 0.802752 6.14048 0.514716 7.11846C0.420937 7.44669 0.40754 8.53184 0.40754 17.2265C0.40754 27.9508 0.380746 27.2944 0.822847 28.192C1.23815 29.0494 1.88791 29.6991 2.76541 30.1412C3.65632 30.59 3.17402 30.5699 12.5988 30.5699C21.0054 30.5699 21.1461 30.5699 21.3605 30.436C21.481 30.3623 21.6351 30.2082 21.7088 30.0876C21.8361 29.8733 21.8428 29.7393 21.8428 24.1863C21.8428 21.0648 21.8227 18.5126 21.7959 18.5126C21.7624 18.5126 21.6083 18.5461 21.4409 18.5863C21.2734 18.6265 20.8246 18.6801 20.4361 18.7002L19.7327 18.7471L19.7126 20.3681L19.6992 21.9958H11.8754C3.41517 21.9958 3.64962 21.9891 2.88599 22.3576L2.55106 22.5183V15.3442C2.55106 11.2715 2.57786 8.04955 2.61805 7.90218C2.69173 7.57396 2.86589 7.33281 3.16063 7.15865C3.38168 7.03138 3.54244 7.02468 6.8649 6.99119L10.3347 6.9577L10.4955 6.40172C10.5826 6.10028 10.7433 5.65149 10.8572 5.40364C10.9644 5.16249 11.0582 4.93475 11.0582 4.90795C11.0582 4.87446 9.24287 4.84766 7.02566 4.85436C3.30129 4.85436 2.95967 4.86106 2.60465 4.97494ZM19.6992 26.2829V28.4264H12.284C7.49456 28.4264 4.70798 28.3996 4.43334 28.3594C3.69651 28.2389 3.18742 27.8905 2.8458 27.2743C2.67164 26.9527 2.65154 26.859 2.65154 26.2829C2.65154 25.7537 2.67833 25.5996 2.80561 25.3652C3.14053 24.7288 3.68981 24.3269 4.36636 24.213C4.56731 24.1796 8.09743 24.1528 12.217 24.1461L19.6992 24.1394V26.2829Z" fill="white"/>
<path d="M5.17687 9.2689C5.0563 9.34258 4.90223 9.49665 4.82855 9.61722C4.70128 9.83157 4.69458 9.96554 4.69458 14.4937C4.69458 19.0219 4.70128 19.1559 4.82855 19.3702C4.90223 19.4908 5.0563 19.6449 5.17687 19.7186C5.39122 19.8458 5.5252 19.8525 11.1251 19.8525C16.7251 19.8525 16.8591 19.8458 17.0734 19.7186C17.4016 19.5176 17.5624 19.2095 17.5423 18.821L17.5222 18.4994L16.9796 18.3387C16.6849 18.2583 16.1959 18.0774 15.9012 17.9502L15.3586 17.709H11.0984H6.8381V17.1731V16.6373H10.261H13.6773L13.0744 16.0679C12.7462 15.7531 12.3041 15.2708 12.0897 14.9961L11.7079 14.4937H9.27636H6.8381V12.8861V11.2785H8.57971C9.5376 11.2785 10.3213 11.2718 10.3213 11.2584C10.3213 11.2517 10.2744 11.0038 10.2208 10.7091C10.1673 10.4143 10.1271 9.93875 10.1204 9.65071V9.13493H7.7625C5.5185 9.13493 5.38453 9.14163 5.17687 9.2689Z" fill="white"/>
</svg>
