<svg width="21" height="13" viewBox="0 0 21 13" fill="none" xmlns="http://www.w3.org/2000/svg">
<path d="M1.87224 0.037899C1.00277 0.214255 0.293243 0.874564 0.0676714 1.71943C-0.0225571 2.05574 -0.0225571 10.324 0.0676714 10.6603C0.268635 11.419 0.842817 12.0137 1.64667 12.2844C1.86404 12.3582 2.09781 12.3623 7.08089 12.3623H12.2895L12.5766 12.2721C13.2575 12.0588 13.8152 11.5133 14.0859 10.7997L14.1761 10.5577L14.1884 6.30469C14.2007 1.56358 14.209 1.76455 13.9219 1.21497C13.7168 0.825349 13.3395 0.45213 12.954 0.263471C12.3921 -0.0113163 12.6258 -0.00311375 7.06039 0.000987053C4.29611 0.00508881 1.96247 0.0214939 1.87224 0.037899Z" fill="#239371"/>
<path d="M19.2861 1.27217C19.1794 1.29268 18.8144 1.47724 18.4043 1.71101C18.0188 1.93248 17.1616 2.42464 16.5013 2.80606L15.3037 3.49918L15.3119 6.18553L15.3242 8.86778L17.1698 9.93002C18.2074 10.5247 19.1138 11.0169 19.2369 11.0538C19.8767 11.2465 20.5575 10.943 20.8897 10.3237L20.984 10.1474L20.9963 6.24295C21.0045 2.42874 21.0045 2.33851 20.9225 2.12114C20.6805 1.47314 20.0161 1.12863 19.2861 1.27217Z" fill="#239371"/>
</svg>
