<svg width="32" height="21" viewBox="0 0 32 21" fill="none" xmlns="http://www.w3.org/2000/svg">
<path d="M15.4898 0.161308C15.305 0.339699 15.3177 0.256874 15.305 1.49924C15.305 2.02167 15.2731 2.49314 15.2477 2.53136C15.2158 2.5887 15.0183 2.61419 14.6743 2.62056C14.3876 2.62056 13.6676 2.70338 13.0687 2.79895C12.3169 2.92 11.9729 2.95185 11.941 2.90726C11.9156 2.86903 11.8455 2.55685 11.7881 2.21281C11.6543 1.46101 11.5333 1.2444 11.2084 1.1552C10.533 0.964067 10.2973 1.14883 10.2973 1.87514C10.2973 2.12361 10.3292 2.49951 10.361 2.70975C10.3992 2.92 10.4375 3.14299 10.4438 3.21307C10.4566 3.30864 10.361 3.35961 9.95326 3.48066C9.6793 3.56348 8.94025 3.83744 8.30951 4.08591C7.68514 4.34076 7.16271 4.53189 7.14997 4.51915C6.97795 4.28979 6.84415 4.03494 6.72947 3.71002C6.55745 3.23219 6.42366 3.12387 6.00954 3.12387C5.50622 3.12387 5.26412 3.30227 5.26412 3.67179C5.26412 3.88204 5.60816 4.75488 5.80566 5.04795L5.96494 5.27731L5.46799 5.58313C5.2004 5.75515 4.59515 6.20112 4.12369 6.57702C3.17439 7.33518 3.19987 7.33518 2.83035 6.87646C2.27606 6.18201 2.31429 6.21387 1.90654 6.22024C1.69629 6.22661 1.44782 6.26484 1.33951 6.3158C1.18023 6.39226 1.15475 6.44323 1.13563 6.6917C1.12289 6.92743 1.16112 7.04848 1.35862 7.37978C1.49242 7.60277 1.73452 7.9277 1.90017 8.10609C2.07219 8.27811 2.20598 8.44376 2.20598 8.46924C2.20598 8.49473 2.11679 8.59666 2.00848 8.70497C1.51153 9.17643 0.473038 10.5526 0.160853 11.1515C-0.234156 11.916 0.0652862 12.6551 1.4287 14.2733C1.91928 14.8531 2.64559 15.6431 3.0406 16.0254C5.6209 18.5229 9.20147 20.2431 13.0687 20.8483C14.2729 21.0394 16.9551 21.0522 18.2293 20.8738C22.4088 20.3004 25.7154 18.835 28.5123 16.3185C29.0029 15.8725 30.1497 14.56 30.9015 13.5789C31.5641 12.7188 31.8444 11.9351 31.7361 11.2789C31.6724 10.9221 30.8633 9.71161 30.1433 8.90248C29.5954 8.29085 29.589 8.27811 29.691 8.1252C29.7483 8.04238 29.9586 7.85761 30.1624 7.71745C30.3663 7.58366 30.5638 7.43075 30.602 7.38615C30.7231 7.22687 30.7486 6.95929 30.6785 6.63436C30.5957 6.24572 30.3663 6.02273 30.1115 6.08644C29.8885 6.13741 29.3979 6.48782 28.901 6.9338L28.4868 7.3097L28.0918 6.94017C27.8688 6.7363 27.512 6.4496 27.2954 6.30306C27.0724 6.15653 26.6583 5.86345 26.378 5.65321L25.8619 5.26457L26.0722 4.93964C26.3207 4.55738 26.5819 3.72913 26.5182 3.48703C26.4481 3.2067 26.3143 3.12387 25.9065 3.12387C25.416 3.12387 25.193 3.30227 25.0464 3.79921C24.9891 3.99035 24.868 4.23245 24.7725 4.34076L24.6005 4.53189L24.2819 4.3981C24.1035 4.32165 23.4027 4.04132 22.721 3.78647C22.0393 3.52526 21.4595 3.28952 21.4276 3.25767C21.4022 3.23219 21.4213 2.95823 21.4786 2.64604C21.6761 1.50561 21.5678 1.08512 21.0709 1.08512C20.472 1.08512 20.2554 1.30811 20.1662 1.98345C20.1088 2.45491 19.9049 2.93274 19.7648 2.93274C19.7202 2.93274 19.5227 2.90089 19.3379 2.86903C18.9939 2.80532 16.8914 2.55048 16.6875 2.55048C16.592 2.55048 16.5856 2.46128 16.6238 1.60755C16.6748 0.511719 16.6238 0.237761 16.3499 0.0975971C16.0568 -0.0553112 15.6745 -0.0234547 15.4898 0.161308ZM17.7069 4.64657C18.9684 4.97787 20.026 5.56401 20.9753 6.45597C21.7016 7.14405 22.1157 7.67922 22.5235 8.47561C23.2052 9.8008 23.3899 10.629 23.339 12.139C23.3007 13.3304 23.1478 13.9866 22.6955 14.9487C21.9373 16.5478 20.7714 17.7328 19.1977 18.5101C17.9172 19.1345 16.6748 19.3766 15.3623 19.2428C12.1513 18.9179 9.48179 16.465 8.85742 13.2731C8.71089 12.5213 8.71089 11.177 8.85742 10.4634C9.348 8.13794 10.7942 6.23935 12.8776 5.20723C14.0435 4.62746 14.8654 4.45544 16.2543 4.48729C16.9551 4.50641 17.3438 4.54463 17.7069 4.64657ZM22.2113 4.95238C24.8298 5.90805 27.1298 7.62188 29.3023 10.2404C29.7419 10.7756 30.1497 11.298 30.207 11.4C30.3599 11.6994 30.3281 11.9479 30.1178 12.1645C30.0095 12.2728 29.812 12.5531 29.6782 12.7889C29.3406 13.3686 27.3783 15.3883 26.5691 15.9935C25.2248 17.0065 23.8359 17.752 22.2877 18.2935L21.9501 18.4082L22.2814 18.045C23.9187 16.2611 24.7088 14.216 24.7088 11.7886C24.7088 9.25926 23.8487 7.18228 22.0711 5.39836C21.6251 4.94601 21.3767 4.65931 21.4595 4.6848C21.5423 4.71028 21.88 4.83134 22.2113 4.95238ZM10.3801 5.08618C8.85742 6.35403 7.74885 8.30996 7.39844 10.3487C7.27102 11.1069 7.27102 12.7315 7.40481 13.5152C7.69788 15.2354 8.50701 16.8154 9.80672 18.2043L10.189 18.6121L9.81309 18.4719C9.19509 18.2489 7.63417 17.478 6.95246 17.0639C5.92671 16.4395 4.99016 15.6941 3.84973 14.6174C3.09157 13.8974 2.69656 13.4769 2.49905 13.1584C2.34615 12.9099 2.11041 12.5468 1.98299 12.3429C1.77275 12.018 1.75363 11.9479 1.79186 11.7058C1.8492 11.3617 1.88743 11.3044 2.38437 10.6482C4.14917 8.30996 6.35358 6.52605 8.78097 5.47482C9.32252 5.23271 10.5776 4.78674 10.6987 4.78036C10.7242 4.78036 10.584 4.92053 10.3801 5.08618Z" fill="black"/>
<path d="M15.9099 7.11268C16.6171 7.87722 16.8974 9.02402 16.6362 10.037C16.3368 11.1775 15.2792 12.1204 14.0942 12.3051C13.2277 12.4389 12.2465 12.114 11.5266 11.445C11.3163 11.2475 11.1188 11.0883 11.0934 11.0883C11.0679 11.0883 11.0615 11.5088 11.0742 12.0248C11.0997 12.8212 11.1316 13.0442 11.2717 13.4774C11.7751 15.0001 13.0748 16.2297 14.6166 16.6439C15.3047 16.8286 16.5024 16.8223 17.1969 16.6375C18.8406 16.2043 20.1913 14.8281 20.6182 13.1525C20.7966 12.4772 20.8157 11.1137 20.6564 10.5149C20.134 8.50796 18.401 7.06808 16.3814 6.96615L15.7443 6.92792L15.9099 7.11268Z" fill="black"/>
</svg>
