<svg width="22" height="21" viewBox="0 0 22 21" fill="none" xmlns="http://www.w3.org/2000/svg">
<path d="M9.17343 0.0603752C6.79286 0.380522 4.76936 1.3779 3.07423 3.07304C1.3873 4.75586 0.352982 6.86144 0.0615667 9.18866C-0.0205222 9.84947 -0.0205222 11.1629 0.0615667 11.8032C0.361191 14.1509 1.37909 16.2319 3.05781 17.9147C3.65296 18.5099 4.0675 18.8546 4.69959 19.2733C6.0992 20.205 7.74919 20.8001 9.43201 20.9725C10.0354 21.0341 11.5745 20.9971 12.1286 20.9068C14.3532 20.5498 16.3234 19.5442 17.9159 17.9516C19.5413 16.3304 20.4976 14.4875 20.8957 12.2054C21.0189 11.5077 21.0517 9.95209 20.9573 9.2297C20.6371 6.79987 19.648 4.78459 17.9364 3.07304C16.2413 1.3738 14.1726 0.355896 11.8085 0.0562706C11.2051 -0.0217133 9.74806 -0.0176086 9.17343 0.0603752ZM9.89171 3.1346V4.92004H8.51672C7.62606 4.92004 7.14173 4.90362 7.14173 4.87899C7.14173 4.78459 7.58912 3.79952 7.80665 3.41781C8.23351 2.66259 8.73426 2.07155 9.25963 1.69394C9.45254 1.55439 9.76037 1.38611 9.8835 1.35328C9.88761 1.34917 9.89171 2.15364 9.89171 3.1346ZM11.6977 1.657C12.223 2.00588 12.7648 2.63797 13.1999 3.4055C13.4133 3.78311 13.873 4.78869 13.873 4.87899C13.873 4.90362 13.3928 4.92004 12.498 4.92004H11.123V3.13871V1.35328L11.279 1.41895C11.3611 1.45178 11.5499 1.5626 11.6977 1.657ZM7.06785 2.17416C6.59995 2.87192 6.24286 3.5943 5.92682 4.47676L5.76674 4.92004H4.46153C3.42721 4.92004 3.16042 4.90772 3.18505 4.86668C3.20147 4.84205 3.34102 4.66967 3.49288 4.48497C4.2522 3.58199 5.31936 2.75289 6.42346 2.2111C6.89136 1.98125 7.22793 1.8376 7.25666 1.86223C7.26487 1.87044 7.17867 2.00999 7.06785 2.17416ZM14.2794 2.05924C15.5025 2.61334 16.6928 3.504 17.5137 4.47676C17.6696 4.66556 17.8133 4.84205 17.8297 4.86668C17.8543 4.90772 17.5875 4.92004 16.5532 4.92004H15.248L15.129 4.57937C14.8294 3.72154 14.3984 2.84729 13.951 2.17827C13.7499 1.88275 13.7294 1.8417 13.7745 1.8417C13.7868 1.8417 14.0126 1.94021 14.2794 2.05924ZM5.41787 6.16779C5.41787 6.176 5.37272 6.40174 5.31526 6.67674C5.16339 7.41964 5.05257 8.3021 4.99511 9.1353L4.94996 9.88642H3.10706H1.26417L1.2929 9.62784C1.40372 8.57299 1.69514 7.51405 2.13021 6.58234L2.33543 6.15137H3.8746C4.72422 6.15137 5.41787 6.15958 5.41787 6.16779ZM9.89171 8.01889V9.88642H8.05702H6.22644L6.25517 9.38157C6.30443 8.46217 6.45629 7.37039 6.6533 6.52077L6.7395 6.15137H8.3156H9.89171V8.01889ZM14.3615 6.52077C14.5585 7.37039 14.7103 8.46217 14.7596 9.38157L14.7883 9.88642H12.9577H11.123V8.01889V6.15137H12.6992H14.2753L14.3615 6.52077ZM18.8845 6.58234C19.2704 7.40733 19.5248 8.27337 19.6644 9.20918C19.7054 9.5006 19.7424 9.77559 19.7424 9.81254C19.7424 9.88231 19.6275 9.88642 17.8954 9.88642H16.0484V9.64836C16.0484 8.90545 15.8103 7.07897 15.6092 6.24167L15.5887 6.15137H17.1361H18.6793L18.8845 6.58234ZM4.99921 11.8853C5.06078 12.8416 5.25779 14.2412 5.40145 14.7379C5.42197 14.8076 5.33167 14.8117 3.86639 14.8117H2.3108L2.14662 14.4506C1.69103 13.4573 1.40372 12.4312 1.2929 11.3722L1.26417 11.1177H3.10706H4.94996L4.99921 11.8853ZM9.89171 12.9647V14.8117H8.3156C6.84621 14.8117 6.73539 14.8076 6.71487 14.7379C6.53017 14.1222 6.30853 12.6241 6.25517 11.6185L6.22644 11.1177H8.05702H9.89171V12.9647ZM14.7596 11.6185C14.7062 12.6241 14.4846 14.1222 14.2999 14.7379C14.2794 14.8076 14.1685 14.8117 12.6992 14.8117H11.123V12.9647V11.1177H12.9577H14.7883L14.7596 11.6185ZM19.7424 11.1875C19.7424 11.2286 19.7054 11.5077 19.6603 11.8032C19.5289 12.7226 19.2704 13.5722 18.8681 14.4506L18.704 14.8117H17.1484C15.6831 14.8117 15.5928 14.8076 15.6133 14.7379C15.7775 14.1838 16.0484 12.0905 16.0484 11.3517V11.1177H17.8954C19.6275 11.1177 19.7424 11.1219 19.7424 11.1875ZM5.96786 16.6382C6.32495 17.5781 6.71487 18.3498 7.13352 18.9285C7.21151 19.0352 7.26897 19.1337 7.25666 19.1419C7.24845 19.1501 7.03912 19.0722 6.79286 18.9654C5.40555 18.3662 4.10855 17.3483 3.16453 16.1129C3.11117 16.0472 3.17274 16.0431 4.4287 16.0513L5.75033 16.0636L5.96786 16.6382ZM9.89171 17.8449V19.6509L9.73985 19.5852C9.29246 19.4046 8.66038 18.8464 8.24583 18.28C7.88053 17.7793 7.47419 16.9953 7.17046 16.2155L7.10069 16.0431H8.4962H9.89171V17.8449ZM13.8443 16.2155C13.5447 16.9994 13.0686 17.8942 12.7074 18.3621C12.2805 18.9121 11.6977 19.4128 11.279 19.5852L11.123 19.6509V17.8449V16.0431H12.5186H13.9141L13.8443 16.2155ZM17.8133 16.1662C17.6204 16.4371 16.9883 17.1061 16.623 17.4263C15.8965 18.0666 15.0182 18.6289 14.1973 18.9778C13.9633 19.0763 13.7663 19.1501 13.7581 19.146C13.7499 19.1378 13.8361 18.9942 13.9469 18.83C14.46 18.0584 14.895 17.139 15.248 16.0923C15.2603 16.0554 15.5641 16.0431 16.582 16.0431H17.8995L17.8133 16.1662Z" fill="#239371"/>
</svg>
