<svg xmlns="http://www.w3.org/2000/svg" width="47" height="94" viewBox="0 0 47 94" fill="none">
<path d="M0.439902 0.320257L0.0666517 0.640184L0.0266607 6.29225L0 11.931L5.34547 16.9299C8.27815 19.6759 10.7443 21.9554 10.8109 21.9687C10.8909 22.0087 10.9309 19.6359 10.9042 15.6368L10.8642 9.26492L10.5043 8.51842C10.1977 7.90522 9.50454 7.18539 6.18528 4.05275C3.9991 2.01321 2.09286 0.266935 1.94623 0.173624C1.493 -0.0929832 0.853142 -0.0263329 0.439902 0.320257Z" fill="#386641"/>
<path d="M40.6976 4.15908C36.1919 8.67807 35.992 8.93135 35.7253 10.6243C35.6454 11.0909 35.592 20.0089 35.592 33.1792V54.9744L37.405 57.8137C38.4047 59.3734 39.2712 60.6931 39.3379 60.7331C39.4045 60.7731 39.4578 51.3085 39.4578 38.1248V15.4632L41.0975 14.3968L42.7238 13.3437L42.7904 39.7644L42.8571 66.1852L44.6567 68.9446C45.6431 70.4642 46.4963 71.7173 46.5629 71.7173C46.6162 71.7173 46.6562 55.7609 46.6562 36.2452V0.77317L46.2696 0.386597C45.9764 0.0933228 45.7498 1.52588e-05 45.3632 1.52588e-05C44.87 1.52588e-05 44.71 0.146645 40.6976 4.15908ZM43.377 4.61231C43.6702 5.37215 43.2837 6.35859 42.4972 6.90514C42.1906 7.11842 41.604 7.63831 41.2308 8.03821C40.5243 8.78471 40.5243 8.78471 40.5243 9.65118C40.5243 10.1311 40.5643 10.531 40.6309 10.531C40.6842 10.531 41.2708 10.0511 41.924 9.46456C42.5905 8.87803 43.1637 8.39813 43.2037 8.39813C43.3903 8.39813 43.4569 9.34459 43.3236 9.85114C43.217 10.2644 42.9637 10.571 42.2972 11.1575C41.804 11.5841 40.8975 12.3972 40.2843 12.9571C39.6578 13.5303 39.0979 13.9569 39.0313 13.9169C38.9779 13.8769 38.9246 13.4903 38.9246 13.0371C38.9246 12.2639 38.938 12.2106 39.5245 11.6374L40.1244 11.0509L40.0977 9.42457C40.0577 7.89158 40.0844 7.75828 40.4176 7.0651C40.8175 6.26527 41.4707 5.55877 42.4705 4.86559C43.2303 4.34571 43.2703 4.33237 43.377 4.61231Z" fill="#386641"/>
<path d="M0 20.7957V26.8077L4.50566 31.2333C6.97177 33.6728 9.43789 36.0722 9.9711 36.5788L10.9309 37.4986V31.22V24.9414L5.58542 19.9025C2.65274 17.1298 0.199955 14.837 0.119973 14.8237C0.0533214 14.797 0 17.0632 0 20.7957Z" fill="#386641"/>
<path d="M0 49.6425V69.0515H2.66607H5.34547L5.30548 67.1453L5.26549 65.2524L4.57231 65.2124L3.8658 65.1724V51.0822V36.992L5.46544 38.5917L7.06508 40.1913V54.6414V69.0915L13.597 69.0248C18.2093 68.9715 20.1821 68.9049 20.3154 68.7982C20.4221 68.7049 22.1417 66.0922 24.1413 62.9595C26.1541 59.8402 27.8738 57.2541 27.9537 57.2275C28.4869 57.0275 28.7536 57.3475 30.8997 60.7067C32.1395 62.6529 33.0593 64.2392 33.0593 64.4125C33.0593 64.5858 32.9926 64.7991 32.8993 64.8924C32.686 65.1057 30.7798 65.1057 30.4998 64.8791C30.3932 64.7991 29.9533 64.2259 29.5267 63.6127C28.7802 62.533 28.4603 62.3063 27.9004 62.413C27.6071 62.4663 26.3941 64.1993 26.3941 64.5725C26.3941 64.9458 28.6336 68.6249 29.0068 68.8782C29.2601 69.0382 30.0866 69.0648 34.3523 69.0248C37.125 68.9982 39.4978 68.9315 39.6311 68.8649C39.9244 68.7182 40.071 68.1584 39.8977 67.7318C39.8311 67.5452 37.3116 63.5594 34.3256 58.8804C30.4465 52.8151 28.7802 50.3224 28.5536 50.2424C28.3403 50.1624 28.127 50.1757 27.9004 50.2824C27.6738 50.4023 26.0075 52.8418 22.9149 57.5741C20.3688 61.4799 18.1826 64.7858 18.0626 64.9058C17.8893 65.0924 17.4094 65.119 14.69 65.1324C12.9571 65.1457 11.4241 65.1324 11.3041 65.0924C11.0775 65.0391 11.0642 64.5458 11.0642 57.2675C11.0642 52.9884 11.0242 47.5097 10.9709 45.0969L10.8909 40.6845L5.55875 35.499C2.62608 32.6597 0.173294 30.3002 0.106643 30.2869C0.0533214 30.2602 0 38.9649 0 49.6425Z" fill="#386641"/>
<path d="M0.0799821 72.8772C0.493223 76.4764 1.99955 80.5155 3.9991 83.4482C7.425 88.4337 12.8238 92.0062 18.7291 93.1793C20.5954 93.5526 24.3279 93.6859 26.2208 93.4459C33.0459 92.6061 39.0046 88.9003 42.8704 83.1149C44.1901 81.142 45.7231 77.7694 45.7231 76.8763C45.7231 76.5564 43.0703 72.3706 42.8171 72.2773C42.7238 72.2507 42.6571 72.3706 42.6571 72.6106C42.6571 72.8105 42.5105 73.6237 42.3372 74.3969C40.6442 81.8352 34.7789 87.5539 27.1539 89.2069C25.3277 89.5934 21.4752 89.6334 19.6889 89.2735C11.6774 87.6472 5.67873 81.6752 4.11908 73.7437L3.82581 72.2507H1.90624H0L0.0799821 72.8772Z" fill="#386641"/>
</svg>
