<svg width="30" height="31" viewBox="0 0 30 31" fill="none" xmlns="http://www.w3.org/2000/svg">
<g clip-path="url(#clip0_3427_19747)">
<circle cx="15.3102" cy="15.4704" r="14.695" fill="#239571"/>
<path d="M6.21732 8.26587C5.68262 8.45573 5.2874 8.85869 5.10142 9.40889C5.02393 9.64137 5.02393 9.70337 5.02393 15.4185C5.02393 21.1258 5.02393 21.1956 5.10142 21.428C5.29128 21.9899 5.69811 22.3967 6.25606 22.5827L6.49242 22.6641H14.943H23.3936L23.63 22.5827C24.1879 22.3967 24.5948 21.9899 24.7846 21.428C24.8621 21.1956 24.8621 21.1258 24.8621 15.4223C24.8621 9.69562 24.8621 9.64525 24.7808 9.40502C24.6258 8.92456 24.2112 8.47898 23.7462 8.28525L23.5254 8.19225L15.0011 8.1845L6.47692 8.17288L6.21732 8.26587ZM23.413 9.47864C23.4789 9.52901 23.568 9.63362 23.6067 9.71112C23.6765 9.85448 23.6804 10.0598 23.6804 15.4185C23.6804 20.7771 23.6765 20.9825 23.6067 21.1258C23.568 21.2033 23.4789 21.3079 23.413 21.3583L23.2929 21.4435H14.943H6.59316L6.47304 21.3583C6.40717 21.3079 6.31806 21.2033 6.27931 21.1258C6.20957 20.9825 6.20569 20.7655 6.19407 15.5347C6.18632 11.8809 6.19794 10.0288 6.22507 9.90097C6.27544 9.66849 6.37618 9.52126 6.54279 9.43989C6.65903 9.38177 7.38359 9.3779 14.9818 9.38564L23.2929 9.39339L23.413 9.47864Z" fill="white"/>
<path d="M8.37183 10.494C8.15873 10.5831 8.1626 10.5599 8.1626 12.5437V14.3803L8.27497 14.4926C8.46482 14.6786 8.7748 14.6321 8.90653 14.3997C8.93753 14.3493 8.96465 14.1052 8.97628 13.7991L8.99565 13.2799L9.53423 13.8959C9.8287 14.233 10.1077 14.5275 10.1542 14.5546C10.4215 14.7096 10.7586 14.5043 10.7586 14.1865C10.7586 14.0509 10.7121 13.9851 10.2239 13.431C10.0031 13.1791 9.82483 12.9699 9.83258 12.966C9.84032 12.9622 9.95269 12.904 10.0806 12.8382C10.5339 12.6057 10.7896 12.1446 10.747 11.6332C10.7121 11.1643 10.4409 10.7924 9.98756 10.5792C9.78221 10.4863 9.73183 10.4785 9.11189 10.4708C8.75155 10.463 8.41445 10.4785 8.37183 10.494ZM9.65434 11.3271C9.80158 11.389 9.94494 11.5905 9.94494 11.73C9.94494 12.0167 9.66984 12.1989 9.23975 12.2027H8.97628V11.7378V11.2728H9.2475C9.39862 11.2728 9.58072 11.2961 9.65434 11.3271Z" fill="white"/>
<path d="M11.6264 10.5913L11.4946 10.7231V12.5093C11.4946 13.8073 11.5063 14.3187 11.5411 14.3924C11.6302 14.5861 11.7271 14.6055 12.6376 14.6055H13.4784L13.5908 14.4931C13.7845 14.2955 13.7303 13.9623 13.4823 13.8344C13.432 13.8112 13.1801 13.7918 12.8546 13.7918H12.3083V13.3656V12.9394H12.8275C13.4126 12.9394 13.5017 12.9045 13.5869 12.6488C13.6257 12.5325 13.6218 12.4899 13.5598 12.3698C13.4552 12.1567 13.3661 12.1257 12.8043 12.1257H12.3083V11.6995V11.2733H12.8508C13.4281 11.2733 13.5792 11.2384 13.6644 11.0834C13.7148 10.9865 13.7148 10.7463 13.6644 10.6495C13.5714 10.4828 13.4436 10.4596 12.5757 10.4596H11.7581L11.6264 10.5913Z" fill="white"/>
<path d="M15.9075 10.5487C15.7835 10.6301 15.7331 10.7502 15.1093 12.3775C14.3731 14.2916 14.3731 14.2994 14.594 14.497C14.6792 14.5745 14.7528 14.6055 14.8613 14.6055C15.0822 14.6055 15.1829 14.5009 15.3263 14.1211L15.4542 13.7918H16.1748H16.8994L17.0118 14.1018C17.1435 14.4737 17.2714 14.6055 17.5077 14.6055C17.717 14.6055 17.8874 14.4389 17.8874 14.2374C17.8874 14.1134 16.7483 10.9982 16.5894 10.6921C16.4693 10.4596 16.14 10.3899 15.9075 10.5487ZM16.3918 12.4589C16.4887 12.7185 16.5701 12.9394 16.5701 12.9549C16.5701 12.9665 16.388 12.9781 16.1671 12.9781H15.7641L15.9617 12.455C16.0702 12.1683 16.1748 11.9475 16.1865 11.963C16.202 11.9785 16.295 12.1993 16.3918 12.4589Z" fill="white"/>
<path d="M18.8216 10.5216C18.6318 10.6572 18.624 10.7192 18.624 12.5325C18.624 14.3459 18.6318 14.4079 18.8216 14.5435C18.8952 14.5938 19.0231 14.6055 19.5539 14.6055C20.4529 14.6016 20.6931 14.5319 21.1038 14.1521C21.5223 13.7647 21.7237 13.2377 21.7237 12.5132C21.7237 11.4631 21.251 10.7347 20.4257 10.5177C20.0886 10.4325 18.9495 10.4363 18.8216 10.5216ZM20.3715 11.3779C20.7551 11.5755 20.9333 11.9901 20.9023 12.6371C20.8829 13.0789 20.7822 13.3346 20.542 13.5554C20.3405 13.7414 20.1739 13.7918 19.7593 13.7918H19.4377V12.5325V11.2733H19.798C20.1158 11.2733 20.1855 11.2849 20.3715 11.3779Z" fill="white"/>
<path d="M8.09661 16.3087C8.03074 16.3474 7.95712 16.4133 7.93775 16.452C7.88351 16.5566 7.31006 19.7571 7.31006 19.9625C7.31006 20.1097 7.32943 20.1523 7.43017 20.2376C7.59678 20.377 7.80989 20.377 7.96875 20.2298C8.07724 20.1291 8.09274 20.0865 8.23997 19.234C8.32522 18.7419 8.41046 18.3119 8.42596 18.277C8.44533 18.2305 8.54607 18.525 8.72043 19.1294C8.86767 19.6331 9.0149 20.0942 9.04978 20.1523C9.16989 20.3654 9.47986 20.4352 9.70459 20.2996C9.86733 20.1988 9.89832 20.1252 10.185 19.1062C10.3168 18.6335 10.4369 18.246 10.4485 18.246C10.4601 18.246 10.5454 18.6412 10.6384 19.1255C10.7275 19.6137 10.8205 20.0555 10.8437 20.1136C10.898 20.2569 11.0375 20.3383 11.2235 20.3383C11.4327 20.3383 11.6109 20.1756 11.6109 19.9818C11.6109 19.7881 10.9987 16.6186 10.9329 16.4753C10.8554 16.3048 10.6771 16.2157 10.4524 16.2428C10.1502 16.2777 10.1153 16.3435 9.77046 17.5602C9.60385 18.1491 9.45274 18.6218 9.43724 18.6063C9.42174 18.587 9.2745 18.1143 9.11177 17.5486C8.94516 16.9829 8.79405 16.4908 8.77468 16.452C8.72043 16.3435 8.50732 16.2312 8.35621 16.2312C8.2826 16.2312 8.16636 16.266 8.09661 16.3087Z" fill="white"/>
<path d="M13.6718 16.2861C13.3386 16.3674 12.9744 16.5805 12.7109 16.8401C11.9864 17.5647 11.9089 18.7348 12.5249 19.5485C13.389 20.6915 15.1248 20.6334 15.9114 19.4361C16.6902 18.2466 16.0431 16.6154 14.6637 16.2899C14.3693 16.2202 13.9508 16.2202 13.6718 16.2861ZM14.7219 17.1772C15.3147 17.4639 15.5937 18.2118 15.3263 18.7891C15.1868 19.0874 15.028 19.2579 14.7412 19.4129C14.5243 19.5291 14.4661 19.5408 14.1872 19.5446C13.9508 19.5446 13.8346 19.5253 13.6951 19.4594C13.451 19.347 13.1759 19.0874 13.0519 18.8472C12.9628 18.6806 12.9473 18.607 12.9473 18.3047C12.9473 18.0025 12.9628 17.9289 13.0519 17.7623C13.2185 17.4407 13.513 17.1927 13.8578 17.0804C14.0516 17.0145 14.4971 17.0649 14.7219 17.1772Z" fill="white"/>
<path d="M17.1479 16.3407L17.0161 16.4569V18.3051V20.1533L17.144 20.2657C17.2951 20.4013 17.4617 20.4129 17.6438 20.3006C17.7988 20.2076 17.8104 20.1688 17.822 19.5334L17.8298 19.0142L18.3916 19.6535C18.6977 20.0061 18.9922 20.3122 19.0426 20.3355C19.3641 20.4827 19.7245 20.1611 19.6005 19.8356C19.5811 19.7814 19.3603 19.5063 19.1123 19.2234C18.8643 18.9445 18.6783 18.712 18.7016 18.712C18.8023 18.712 19.089 18.5415 19.244 18.3904C19.7361 17.9099 19.7477 17.1156 19.2712 16.6429C19.1588 16.5305 18.9844 16.3988 18.8759 16.3484C18.6977 16.2593 18.6318 16.2516 17.9809 16.2399L17.2757 16.2245L17.1479 16.3407ZM18.6125 17.1544C18.69 17.2086 18.7558 17.3016 18.783 17.3946C18.8217 17.5225 18.8178 17.5612 18.7558 17.6697C18.6241 17.8905 18.5079 17.9487 18.1398 17.968L17.8104 17.9874V17.5108V17.0381L18.1514 17.0536C18.4265 17.0614 18.5117 17.0807 18.6125 17.1544Z" fill="white"/>
<path d="M20.5922 16.295C20.5341 16.326 20.4682 16.3841 20.445 16.4268C20.4217 16.4733 20.4062 17.1513 20.4062 18.3176V20.1348L20.5031 20.2317C20.5574 20.2859 20.6542 20.3402 20.7201 20.3557C20.879 20.3867 22.1033 20.3867 22.2622 20.3557C22.5683 20.2937 22.6923 19.9023 22.4714 19.6737L22.3668 19.5652H21.7934H21.2199V19.1429V18.7206L21.743 18.7051C22.2545 18.6934 22.2661 18.6896 22.3707 18.5849C22.4559 18.4997 22.4792 18.4416 22.4792 18.3021C22.4792 18.151 22.4598 18.1084 22.3513 18.0115C22.2273 17.8991 22.2235 17.8991 21.7236 17.8991H21.2199V17.4729V17.0467H21.7856H22.3513L22.4637 16.9343C22.5528 16.8452 22.5761 16.7871 22.5761 16.6592C22.5761 16.2718 22.4753 16.233 21.4834 16.233C20.8635 16.2369 20.6736 16.2485 20.5922 16.295Z" fill="white"/>
</g>
<defs>
<clipPath id="clip0_3427_19747">
<rect width="29.3899" height="29.3899" fill="white" transform="translate(0.615234 0.775391)"/>
</clipPath>
</defs>
</svg>
