<svg width="30" height="31" viewBox="0 0 30 31" fill="none" xmlns="http://www.w3.org/2000/svg">
<g clip-path="url(#clip0_3427_19770)">
<circle cx="15.3102" cy="15.4704" r="14.695" fill="#239571"/>
<path d="M11.1091 5.28445C9.58496 5.59262 8.3273 6.76699 7.8942 8.28285L7.79842 8.616L7.78592 16.5201C7.77759 23.6205 7.78176 24.4492 7.84422 24.6782C8.0691 25.5528 8.76873 26.2524 9.65576 26.4814C10.0389 26.5814 10.7843 26.5522 11.13 26.419C11.5631 26.2524 11.8171 26.0567 13.3163 24.7116C14.1242 23.9911 14.8488 23.3664 14.9321 23.3206C15.1237 23.2207 15.4235 23.2207 15.6151 23.3206C15.6984 23.3664 16.423 23.9911 17.2267 24.7116C18.0346 25.432 18.7967 26.0942 18.9258 26.1774C19.2881 26.419 19.5963 26.5064 20.1252 26.5314C20.6665 26.5564 20.9622 26.4981 21.437 26.2649C21.8451 26.065 22.324 25.5986 22.5114 25.2113C22.7862 24.6449 22.7696 25.2321 22.7696 16.67C22.7696 8.31616 22.7779 8.65348 22.5614 8.01216C22.1324 6.75866 21.0163 5.70922 19.7087 5.33859L19.3756 5.2428L15.3777 5.23448C12.2002 5.23031 11.3257 5.23864 11.1091 5.28445ZM19.3339 7.02102C20.1585 7.3042 20.7748 7.95802 21.008 8.80756C21.0788 9.05743 21.083 9.52385 21.083 16.6534V24.2326L20.9872 24.4117C20.779 24.799 20.2459 24.9614 19.8878 24.7407C19.8045 24.6907 19.0924 24.0744 18.3053 23.3706C16.6603 21.9006 16.7436 21.9672 16.4146 21.8006C16.0024 21.5924 15.6984 21.5341 15.1487 21.5549C14.2117 21.5966 14.0201 21.7215 11.6505 23.8953C10.7177 24.749 10.5886 24.8365 10.2888 24.8365C9.94727 24.8365 9.71406 24.6949 9.55164 24.3992L9.46419 24.2326V16.6325V9.03244L9.55997 8.72011C9.68907 8.31616 9.85565 8.02465 10.1388 7.72065C10.5428 7.28338 11.0883 7.0002 11.6505 6.9294C11.8004 6.91275 13.5162 6.90025 15.461 6.90442L19.0008 6.90858L19.3339 7.02102Z" fill="white"/>
<path d="M14.8076 10.1724C14.6285 10.289 14.5869 10.3473 14.1705 11.1844C13.9248 11.6716 13.7207 12.0756 13.7124 12.0797C13.7082 12.0881 13.3043 12.1505 12.8129 12.2172C12.3214 12.288 11.8634 12.3629 11.7926 12.3879C11.4261 12.5045 11.1804 12.9834 11.2762 13.3957C11.322 13.5997 11.3678 13.6539 12.0466 14.3244L12.7712 15.0365L12.6255 15.8652C12.4256 17.0104 12.4339 17.2145 12.6838 17.4768C12.8545 17.6601 13.0752 17.7559 13.3168 17.7559C13.5041 17.7559 13.6291 17.7059 14.4037 17.3103L15.274 16.8605L16.1444 17.3103C16.919 17.7059 17.0439 17.7559 17.2313 17.7559C17.4729 17.7559 17.6936 17.6601 17.8643 17.4768C18.1142 17.2145 18.1225 17.0104 17.9226 15.8652L17.7769 15.0323L18.4557 14.3743C18.8513 13.9954 19.1678 13.6539 19.2094 13.5623C19.3011 13.3707 19.3052 12.9876 19.2178 12.8127C19.1261 12.6419 18.8471 12.3962 18.7055 12.3671C18.6389 12.3546 18.1933 12.2838 17.7102 12.2172C17.2313 12.1464 16.8357 12.0839 16.8315 12.0797C16.8274 12.0756 16.6233 11.6716 16.3776 11.1844C15.9612 10.3473 15.9195 10.289 15.7405 10.1724C15.578 10.0725 15.5072 10.0516 15.274 10.0516C15.0408 10.0516 14.97 10.0725 14.8076 10.1724ZM15.4448 13.1666C15.6405 13.5373 15.8196 13.6622 16.236 13.7247C16.4068 13.7497 16.5525 13.7747 16.5608 13.7871C16.5733 13.7955 16.4734 13.9079 16.3443 14.0412C16.2152 14.1703 16.0903 14.3327 16.0694 14.3952C16.0153 14.5326 16.0111 14.9115 16.0611 15.1614L16.0944 15.3363L15.8112 15.1906C15.578 15.0781 15.4781 15.049 15.274 15.049C15.07 15.049 14.97 15.0781 14.7368 15.1906L14.4536 15.3363L14.487 15.1614C14.5369 14.9115 14.5328 14.5326 14.4786 14.3952C14.4578 14.3327 14.3329 14.1703 14.2038 14.0412C14.0747 13.9079 13.9747 13.7955 13.9872 13.7871C13.9956 13.7788 14.1413 13.7497 14.3121 13.7247C14.7243 13.6664 14.9117 13.5331 15.1033 13.1666C15.1866 13.0126 15.2615 12.8835 15.274 12.8835C15.2865 12.8835 15.3615 13.0126 15.4448 13.1666Z" fill="white"/>
</g>
<defs>
<clipPath id="clip0_3427_19770">
<rect width="29.3899" height="29.3899" fill="white" transform="translate(0.615234 0.775391)"/>
</clipPath>
</defs>
</svg>
