<svg width="27" height="27" viewBox="0 0 27 27" fill="none" xmlns="http://www.w3.org/2000/svg">
<path d="M1.52707 0.0756493C0.905135 0.242238 0.366496 0.719794 0.127718 1.30841L0 1.62493V5.65084V9.67675L0.133271 10.0099C0.31652 10.4653 0.821841 10.9706 1.27718 11.1538L1.61036 11.2871H5.63627H9.66218L9.99536 11.1538C10.4507 10.9706 10.956 10.4653 11.1393 10.0099L11.2725 9.67675V5.65084V1.62493L11.1393 1.29175C10.956 0.836407 10.4507 0.331086 9.99536 0.147838L9.66218 0.0145664L5.74733 0.00345993C2.4322 -0.00764561 1.78806 0.00345993 1.52707 0.0756493Z" fill="black"/>
<path d="M15.7429 0.0756493C15.121 0.242238 14.5823 0.719794 14.3435 1.30841L14.2158 1.62493V5.65084V9.67675L14.3491 10.0099C14.5323 10.4653 15.0377 10.9706 15.493 11.1538L15.8262 11.2871H19.8521H23.878L24.2112 11.1538C24.4444 11.0594 24.6443 10.9206 24.8831 10.6818C25.1219 10.4431 25.2607 10.2431 25.3551 10.0099L25.4884 9.67675V5.65084V1.62493L25.3551 1.29175C25.1718 0.836407 24.6665 0.331086 24.2112 0.147838L23.878 0.0145664L19.9632 0.00345993C16.648 -0.00764561 16.0039 0.00345993 15.7429 0.0756493Z" fill="black"/>
<path d="M19.1468 13.7474C18.9857 13.8029 18.7636 13.914 18.647 13.9972C18.5304 14.075 17.4309 15.1523 16.2037 16.3795C13.5882 19.0005 13.6604 18.9005 13.6604 19.8667C13.6604 20.833 13.5771 20.7219 16.287 23.4318C18.9968 26.1416 18.8858 26.0583 19.852 26.0583C20.8182 26.0583 20.7072 26.1416 23.417 23.4318C26.1269 20.7219 26.0436 20.833 26.0436 19.8667C26.0436 18.9005 26.1269 19.0116 23.417 16.3017C20.7627 13.6419 20.8238 13.6918 19.9353 13.6641C19.5521 13.6474 19.3689 13.6696 19.1468 13.7474Z" fill="#239571"/>
<path d="M1.52707 14.2905C0.905135 14.4571 0.366496 14.9346 0.127718 15.5233L0 15.8398V19.8657V23.8916L0.133271 24.2248C0.31652 24.6801 0.821841 25.1854 1.27718 25.3687L1.61036 25.502H5.63627H9.66218L9.99536 25.3687C10.4507 25.1854 10.956 24.6801 11.1393 24.2248L11.2725 23.8916V19.8657V15.8398L11.1393 15.5066C10.956 15.0513 10.4507 14.5459 9.99536 14.3627L9.66218 14.2294L5.74733 14.2183C2.4322 14.2072 1.78806 14.2183 1.52707 14.2905Z" fill="black"/>
</svg>
