<svg width="43" height="43" viewBox="0 0 43 43" fill="none" xmlns="http://www.w3.org/2000/svg">
<circle cx="21.3062" cy="21.4698" r="20.753" fill="#239571"/>
<path fill-rule="evenodd" clip-rule="evenodd" d="M21.6774 10.5723C22.2752 10.5723 22.7599 11.0569 22.7599 11.6547V20.675H31.7802C32.378 20.675 32.8626 21.1597 32.8626 21.7575C32.8626 22.3553 32.378 22.8399 31.7802 22.8399H22.7599V31.8603C22.7599 32.4581 22.2752 32.9427 21.6774 32.9427C21.0796 32.9427 20.595 32.4581 20.595 31.8603V22.8399H11.5746C10.9768 22.8399 10.4922 22.3553 10.4922 21.7575C10.4922 21.1597 10.9768 20.675 11.5746 20.675H20.595V11.6547C20.595 11.0569 21.0796 10.5723 21.6774 10.5723Z" fill="white"/>
</svg>
