<svg width="28" height="28" viewBox="0 0 28 28" fill="none" xmlns="http://www.w3.org/2000/svg">
<path d="M13.2955 0.130619C13.1427 0.201601 12.9188 0.370867 12.7987 0.50737C12.3673 0.998785 12.3946 0.409086 12.3946 8.83411V16.3528L10.5545 14.5127C8.57797 12.5416 8.49061 12.4706 7.89545 12.4105C7.27299 12.345 6.61231 12.7272 6.32838 13.306C6.17004 13.6391 6.15912 14.2724 6.30108 14.6055C6.44305 14.9222 12.9188 21.4089 13.2955 21.6109C13.5194 21.7256 13.6395 21.7529 13.9781 21.7474C14.2402 21.7474 14.464 21.7146 14.606 21.6546C14.9227 21.5181 21.4639 14.9768 21.6332 14.6328C21.8025 14.2834 21.797 13.6664 21.6278 13.306C21.4476 12.9402 21.0271 12.5798 20.6504 12.4706C20.2791 12.3614 19.8095 12.3996 19.4764 12.5634C19.329 12.6344 18.5864 13.3387 17.407 14.5127L15.5615 16.3528V8.83411C15.5615 0.409086 15.5888 0.998785 15.1575 0.50737C14.8462 0.15246 14.4913 -0.000425339 13.9781 -0.000425339C13.6614 -0.000425339 13.503 0.0323353 13.2955 0.130619Z" fill="#239571"/>
<path d="M0.960988 18.7285C0.616998 18.865 0.294849 19.1708 0.131044 19.5203C0.00546016 19.7823 0 19.8369 0 21.1365C0 22.5834 0.0491414 23.0148 0.294849 23.741C0.977369 25.7448 2.54443 27.1972 4.68482 27.8088L5.10525 27.9289L13.705 27.9453C19.9187 27.9562 22.4249 27.9453 22.7416 27.9016C24.8164 27.6013 26.7275 26.0888 27.5192 24.1177C27.885 23.2059 27.9178 22.9929 27.9451 21.3549C27.9724 19.6404 27.956 19.553 27.5301 19.0998C26.9623 18.4937 25.9958 18.4555 25.3624 19.0125C24.9038 19.4165 24.8819 19.5039 24.8383 20.9672C24.811 21.9391 24.7782 22.3213 24.7072 22.5506C24.3796 23.6099 23.5934 24.3853 22.5177 24.7183C22.2119 24.8111 21.797 24.8166 13.978 24.8166C6.15906 24.8166 5.74409 24.8111 5.43832 24.7183C4.36267 24.3853 3.5764 23.6099 3.2488 22.5506C3.17781 22.3213 3.14505 21.9391 3.11775 20.9672C3.07407 19.5039 3.05223 19.4165 2.59358 19.0125C2.1513 18.6248 1.51246 18.5156 0.960988 18.7285Z" fill="black"/>
</svg>
