<svg width="25" height="27" viewBox="0 0 25 27" fill="none" xmlns="http://www.w3.org/2000/svg">
<path d="M0.570716 0.121431C0.417072 0.206202 0.28462 0.333355 0.178658 0.502893L0.0197161 0.757202L0.00382182 12.9481C-0.00677434 21.4939 0.00382182 25.1972 0.0462065 25.335C0.12038 25.5999 0.342899 25.8489 0.602505 25.9655C0.803832 26.0608 1.20119 26.0661 9.94302 26.0661C19.9458 26.0661 19.2676 26.0873 19.612 25.7588C19.8504 25.531 19.914 25.2025 19.914 24.2012C19.914 23.7138 19.9087 23.3111 19.8981 23.3111C19.8875 23.3111 19.7127 23.3694 19.5113 23.4383C17.9908 23.9681 16.4438 24.0582 14.8808 23.7138C13.2914 23.3588 11.7126 22.4687 10.6689 21.3455C8.24233 18.723 7.77081 14.8501 9.50328 11.7613C10.3351 10.2779 11.5642 9.10698 13.0795 8.34405C14.9974 7.3798 17.2438 7.23675 19.2517 7.9467C19.5166 8.04206 19.771 8.12683 19.8239 8.14272C19.9087 8.16922 19.914 7.97319 19.914 4.59301V1.01681L19.7445 0.688326C19.6279 0.471106 19.4902 0.301567 19.3418 0.190308L19.1087 0.0260658L9.95891 0.0101719L0.803832 -0.000423431L0.570716 0.121431ZM12.7881 4.18506C13.0053 4.29632 13.0795 4.37579 13.2013 4.60891C13.3868 4.97977 13.3868 5.24467 13.2013 5.61554C13.0795 5.84866 13.0053 5.92813 12.7881 6.03939L12.5285 6.17184H8.47015C4.4754 6.17184 4.41182 6.17184 4.2105 6.06058C4.09394 6.0023 3.9244 5.86455 3.83963 5.75329C3.69658 5.57845 3.67539 5.50428 3.6595 5.1758C3.6489 4.87911 3.66479 4.75195 3.74427 4.60891C3.89261 4.3387 4.17871 4.13208 4.4754 4.0791C4.61845 4.05791 6.48867 4.04201 8.62909 4.04201L12.5285 4.05261L12.7881 4.18506Z" fill="black"/>
<path d="M15.8874 9.6221C14.3086 9.86052 13.1483 10.4539 12.0993 11.5559C11.4318 12.2552 10.9761 13.0341 10.7271 13.903C10.5364 14.5599 10.4834 14.9255 10.4834 15.6725C10.4834 16.748 10.7536 17.797 11.2516 18.6765C12.645 21.1242 15.4795 22.2951 18.1497 21.5322C18.6371 21.3944 19.4478 21.0289 19.7921 20.8011L19.9935 20.6633L21.6623 22.3269C22.5789 23.2488 23.4001 24.0223 23.4796 24.0541C23.6915 24.1282 24.126 24.1229 24.3273 24.0329C24.6823 23.8845 24.9948 23.4236 25.0001 23.0527C25.0001 22.5759 24.9736 22.5335 23.2147 20.7693L21.5564 19.0951L21.7524 18.809C22.0385 18.3798 22.3405 17.7017 22.4994 17.1242C22.6266 16.658 22.6372 16.5202 22.6372 15.6301C22.6372 14.7295 22.6266 14.6076 22.4941 14.1202C21.8743 11.8367 19.8875 10.0565 17.5298 9.66979C17.0742 9.60091 16.2265 9.57442 15.8874 9.6221ZM17.6623 11.9745C18.9815 12.3877 19.9723 13.4155 20.3219 14.7295C20.465 15.2699 20.4544 16.2341 20.2954 16.7427C19.8504 18.1467 18.8597 19.1004 17.4716 19.45C17.1007 19.5454 16.9312 19.5613 16.3908 19.5348C15.3152 19.4871 14.6106 19.1798 13.8477 18.4116C13.0636 17.6328 12.7086 16.7957 12.7086 15.7361C12.7086 14.6129 13.196 13.5056 14.0172 12.7692C14.3934 12.4354 15.2358 12.0115 15.755 11.9003C16.2742 11.7837 17.1696 11.8208 17.6623 11.9745Z" fill="#239571"/>
</svg>
