<svg width="28" height="31" viewBox="0 0 28 31" fill="none" xmlns="http://www.w3.org/2000/svg">
<path d="M21.2 0.0819473C20.388 0.307117 19.6852 0.83251 19.2895 1.48755C19.1121 1.7946 17.8907 5.06978 17.1128 7.31465C16.9354 7.84004 16.915 7.86734 16.7376 7.84004C16.5124 7.80593 16.5056 7.81957 16.1985 8.80213C15.9665 9.5254 15.9665 9.54587 16.0893 9.6414C16.2599 9.76421 16.1985 9.8188 15.8574 9.83927C15.6936 9.85292 15.4548 9.94162 15.3047 10.0371C14.6701 10.4602 14.0833 11.6747 14.0833 12.5754C14.0833 12.9848 14.0424 13.0121 13.3327 13.0121C12.5958 13.0121 11.661 12.7119 11.122 12.3161C11.006 12.2206 11.006 12.2138 11.1425 11.9818C11.3335 11.6747 11.3199 11.4973 11.1083 11.2449C10.7399 10.8014 10.1463 11.0811 10.1735 11.6816L10.1804 11.9818L9.79826 11.8385C9.58674 11.7634 9.28652 11.6133 9.1364 11.5042C8.843 11.3063 8.37902 10.8491 8.42678 10.8082C8.44043 10.7945 8.56325 10.7127 8.69289 10.624C9.51851 10.0713 10.1599 9.3207 10.6034 8.40638C10.9787 7.63534 11.1493 6.87113 11.1493 5.94999C11.1493 4.33969 10.5829 3.01597 9.41616 1.91059C8.79524 1.31697 8.17432 0.941683 7.32823 0.648281C6.70048 0.43676 6.63907 0.423113 5.58829 0.423113C4.63302 0.423113 4.43515 0.443583 3.98481 0.58005C2.08111 1.1805 0.695977 2.59975 0.150113 4.51709C0.0272932 4.96061 0 5.23354 0 5.94999C0 7.05536 0.115996 7.54664 0.586804 8.50873C0.900676 9.14329 1.01667 9.30023 1.62395 9.91433C2.23804 10.5284 2.38816 10.6376 3.02955 10.9446C3.84834 11.3472 4.42832 11.5042 5.26759 11.5587C5.97721 11.5997 6.9393 11.4496 7.57387 11.1971L8.01056 11.0265L8.41313 11.4223C8.87712 11.8863 9.47757 12.207 10.1258 12.3434C10.4192 12.4048 10.6989 12.5208 10.965 12.6982C11.6815 13.1759 12.8756 13.4761 13.6875 13.3874L14.0765 13.3396L14.3903 13.6671L14.7042 13.9947L14.6223 14.3768C14.5063 14.9022 14.5268 15.9052 14.6565 16.4306C14.7179 16.6694 14.9294 17.2016 15.1341 17.6178C15.407 18.1637 15.6731 18.9006 16.103 20.313C16.4305 21.3843 16.758 22.3873 16.8263 22.5374C17.1401 23.2266 17.7474 23.6633 18.5662 23.7997L19.0438 23.8748L19.0848 25.219C19.1052 26.1811 19.0984 26.57 19.037 26.6041C18.9961 26.6314 18.7777 26.6587 18.5526 26.6587C18.0067 26.6587 16.4305 26.8293 15.755 26.9658C14.9908 27.109 14.3972 27.3206 14.1856 27.5184C14.0082 27.6822 14.0014 27.6959 14.0287 28.4328C14.056 29.4221 14.0492 29.4153 15.291 29.6678C16.9559 30.0158 17.9453 30.0977 20.0878 30.0977C22.4146 30.0977 23.8747 29.9544 26.2629 29.4836C27.0749 29.3198 27.1158 29.2652 27.1158 28.3304C27.1158 27.6276 27.1022 27.5594 26.9589 27.4229C26.5495 27.0408 24.9119 26.7338 22.6329 26.6178L21.6572 26.57V25.8126C21.6572 25.3964 21.6367 24.8096 21.6162 24.5025L21.5685 23.9499L22.0734 23.9157C22.667 23.8748 23.1174 23.6769 23.5199 23.2675C23.8202 22.9741 24.0794 22.5033 24.1477 22.1485C24.1681 22.0257 24.2159 20.3744 24.2432 18.4912L24.2978 15.0659L24.6935 13.8377C25.0074 12.8756 25.1166 12.6027 25.2121 12.6027C25.294 12.6027 25.3895 12.4185 25.5737 11.9136C25.8671 11.1016 25.874 11.0061 25.6556 10.8082L25.4919 10.6581L26.4744 7.65581C27.5184 4.46251 27.6003 4.10087 27.4638 3.35713C27.3751 2.85903 27.068 2.22446 26.7405 1.84236C26.2834 1.30332 25.8057 1.05768 24.2023 0.525463C22.9195 0.0955944 22.6397 0.0273609 22.1348 0.00689125C21.7595 -0.0135784 21.4252 0.0137138 21.2 0.0819473ZM6.4412 0.825687C8.74748 1.24191 10.4601 3.05691 10.7535 5.3973C10.9378 6.88478 10.3714 8.50873 9.27287 9.62775C6.7346 12.207 2.38816 11.4496 0.84609 8.16074C0.477631 7.36923 0.347988 6.68008 0.382105 5.74529C0.409398 5.06296 0.450338 4.82414 0.620921 4.32604C1.48066 1.85601 3.93705 0.375349 6.4412 0.825687ZM22.3463 2.48375C22.3122 2.55198 22.1894 2.87268 22.0734 3.2002L21.8687 3.80065H22.0939C22.435 3.80065 23.3221 4.04629 23.9361 4.3124C24.2432 4.44204 24.4957 4.53074 24.5093 4.49662C24.5434 4.38745 25.1507 3.34349 25.2735 3.18655C25.4032 3.01597 25.4032 3.02279 25.2803 3.39125C25.2121 3.59595 25.1029 3.9917 25.0279 4.27146L24.9051 4.76956L25.1029 4.94014C25.6283 5.37683 25.8399 5.57471 25.8057 5.60882C25.7853 5.62929 25.5669 5.54741 25.3076 5.43142C25.0552 5.31542 24.8232 5.24719 24.7959 5.2813C24.7618 5.3086 24.6253 5.75894 24.4888 6.28433L24.2432 7.23277L24.5025 7.49888L24.7618 7.77181L24.4752 7.62852L24.1886 7.48523L24.0794 7.87416C23.9225 8.44049 23.9225 8.44049 23.8406 8.44049C23.7997 8.44049 23.7724 8.21532 23.7724 7.87416V7.31465L23.247 7.13042C22.6534 6.92572 21.3979 6.5982 21.1932 6.5982C21.0772 6.5982 21.0431 6.69373 20.9407 7.32147C20.7906 8.17439 20.7155 8.11297 20.6541 7.10313L20.6132 6.47538L20.2311 6.44127C20.0196 6.42762 19.4532 6.4208 18.962 6.43444L18.0749 6.46173L18.5184 6.28433C19.1325 6.04552 19.6238 5.9227 20.2106 5.86811C20.6746 5.82717 20.7087 5.81352 20.7428 5.64976C20.7838 5.44506 21.0294 4.6058 21.084 4.44886C21.1181 4.36016 21.0226 4.34651 20.388 4.33969H19.6443L19.9513 4.20322C20.1219 4.12817 20.4972 4.00535 20.7838 3.93711C21.4115 3.787 21.4252 3.78018 21.5616 3.51407C21.6845 3.26843 22.3327 2.36775 22.3804 2.36775C22.4009 2.36775 22.3873 2.42234 22.3463 2.48375ZM26.6655 3.39807C26.6041 3.50042 26.5017 3.32984 26.5495 3.2002C26.5836 3.11832 26.5972 3.11832 26.6518 3.21384C26.6859 3.27525 26.6928 3.35713 26.6655 3.39807ZM18.3137 8.37908C19.1257 8.46779 20.1356 8.66566 20.9612 8.89766C21.4798 9.04094 21.5889 9.09553 21.548 9.18423C21.4252 9.46399 21.316 9.99621 21.3365 10.1668C21.3569 10.3169 21.3365 10.351 21.2546 10.3169C20.5791 10.0576 18.5457 9.59363 17.3244 9.42987C16.874 9.36846 16.4919 9.30705 16.4783 9.29341C16.4578 9.26611 16.7307 8.39955 16.7922 8.28356C16.8263 8.22897 17.0446 8.24262 18.3137 8.37908ZM23.9839 8.94542C24.4957 9.29341 24.6799 10.1804 24.3797 10.8082C24.2159 11.1493 23.9907 11.3472 23.6359 11.4496C23.0764 11.6202 22.4282 11.0333 22.3531 10.2896C22.3122 9.80515 22.4487 9.4094 22.783 9.07506C23.0423 8.80895 23.1037 8.78166 23.4039 8.78166C23.6496 8.78166 23.8065 8.82942 23.9839 8.94542ZM17.6314 9.87339C18.7163 10.0371 19.5692 10.2282 20.5996 10.5284L21.4252 10.7741L21.5889 11.0811C21.6776 11.2517 21.855 11.4632 21.9779 11.5587L22.203 11.7293V15.1V18.4639L21.9165 18.6959C20.9748 19.467 19.5419 19.7945 18.2865 19.5284C17.0924 19.2759 15.9461 18.3684 15.3865 17.2426C14.9499 16.3419 14.8202 15.5231 14.9772 14.6156C15.0795 14.022 15.0727 14.0288 15.5571 14.1448C15.9256 14.2403 16.0006 14.2403 16.219 14.1516C16.8126 13.8991 17.6314 12.1592 17.6314 11.1425C17.6314 10.7058 17.4745 10.5011 16.9559 10.2487C16.567 10.0644 16.451 9.91433 16.5875 9.78468C16.6489 9.71645 16.6693 9.72327 17.6314 9.87339ZM16.1917 10.392C16.3828 10.6376 16.4373 10.9924 16.3555 11.4905C16.2258 12.2479 15.7755 13.0667 15.3183 13.3806C14.8748 13.6876 14.636 13.5784 14.4927 13.0121C14.4313 12.7665 14.4381 12.6027 14.52 12.207C14.6974 11.3404 15.1068 10.6512 15.6185 10.3374C15.8983 10.1736 16.0279 10.1804 16.1917 10.392ZM25.1507 10.9378C25.294 11.0402 25.41 11.1425 25.41 11.1766C25.41 11.2108 25.3554 11.3813 25.2872 11.5587C25.2121 11.7361 25.1371 11.9408 25.1166 12.0023C25.0756 12.1114 25.0347 12.0978 24.7277 11.9067C24.5366 11.7907 24.366 11.6679 24.3455 11.6406C24.3319 11.6065 24.4206 11.4427 24.5571 11.2722C24.6867 11.0948 24.7959 10.9105 24.7959 10.8559C24.7959 10.7195 24.8573 10.7331 25.1507 10.9378ZM10.8559 11.5519C10.9036 11.6747 10.8081 11.8658 10.6853 11.9067C10.5966 11.934 10.5011 11.6202 10.5693 11.5178C10.6375 11.4018 10.8081 11.4291 10.8559 11.5519ZM23.9157 14.2403C23.902 15.5367 23.8747 17.8225 23.8474 19.3237C23.7997 21.9643 23.7997 22.0666 23.6496 22.3941C23.3835 22.9741 22.8854 23.3835 22.2713 23.5268C21.8823 23.6223 18.6822 23.4654 18.2865 23.3358C17.8975 23.2129 17.3585 22.749 17.1947 22.401C17.0719 22.1417 16.0484 18.8665 16.0825 18.8392C16.0962 18.8256 16.2395 18.9484 16.41 19.1053C16.6966 19.3714 16.7376 19.4533 16.9832 20.2789C17.1265 20.7634 17.3107 21.3092 17.3994 21.4798C17.6041 21.8824 18.1568 22.3873 18.573 22.5306C19.2758 22.7831 21.0294 22.7217 21.7322 22.4214C21.9028 22.3464 22.1553 22.1758 22.2781 22.0462L22.5101 21.8073L22.5305 16.8263L22.5442 11.8453L23.247 11.8658L23.943 11.8863L23.9157 14.2403ZM24.7277 12.4321C24.7277 12.4731 24.639 12.7665 24.5298 13.0803L24.3319 13.6603L24.3251 12.8961L24.3183 12.1319L24.523 12.2479C24.6321 12.3093 24.7277 12.398 24.7277 12.4321ZM22.087 21.5958C21.8482 22.0803 21.1932 22.2918 19.9104 22.2918C18.9824 22.2918 18.6208 22.2031 18.225 21.8756C17.8702 21.5822 17.6724 21.2069 17.3994 20.3199C17.2084 19.6853 17.1879 19.5625 17.2834 19.5966C18.1978 19.9787 18.9688 20.0947 19.8285 19.9787C20.5177 19.89 21.3092 19.6034 21.8277 19.2623L22.1689 19.0371L22.1894 20.197C22.203 21.1932 22.1894 21.3843 22.087 21.5958ZM21.2273 23.9499C21.2341 23.9567 21.2478 24.7687 21.2614 25.758L21.2819 27.5526L20.3949 27.5321L19.5078 27.5116L19.4874 25.6762L19.4737 23.8407L20.3403 23.8953C20.8247 23.9226 21.2205 23.9499 21.2273 23.9499ZM16.915 27.2046C16.8263 27.3001 16.7717 27.3206 16.7376 27.266C16.6693 27.15 16.5397 27.4229 16.5397 27.689V27.9074L16.3828 27.7641C16.1712 27.5662 16.1303 27.573 16.1303 27.8187C16.1303 28.1121 16.4032 28.2554 17.3721 28.4805C17.8088 28.5829 18.1636 28.6784 18.15 28.6852C18.109 28.7262 16.4919 28.501 15.8232 28.3577C15.1819 28.2212 14.6292 28.0097 14.6292 27.9006C14.636 27.6754 15.1819 27.4366 16.1644 27.2319C17.0992 27.0408 17.0651 27.0408 16.915 27.2046ZM26.7746 28.5624C26.7746 28.7466 26.7337 28.924 26.6928 28.965C26.6109 29.0264 25.3008 29.2789 24.1818 29.4563C22.4964 29.7156 19.4396 29.8111 17.802 29.661C16.9286 29.5791 15.5981 29.3676 14.9294 29.197L14.4586 29.081L14.4381 28.6921L14.4176 28.31L14.7725 28.4396C15.7823 28.8217 18.0272 29.0128 21.0362 28.9582C23.7314 28.9104 25.6215 28.6989 26.4335 28.3441C26.7746 28.194 26.7746 28.194 26.7746 28.5624Z" fill="black"/>
<path d="M6.23628 1.37843C6.13393 1.50125 6.14758 1.5149 6.3591 1.57631C6.53651 1.63772 6.65933 1.43984 6.50239 1.33749C6.37275 1.25561 6.33181 1.26244 6.23628 1.37843Z" fill="black"/>
<path d="M7.47831 1.6302C7.23949 1.86902 7.57383 2.18971 7.90818 2.0396C8.0037 1.99184 8.07876 1.90313 8.07876 1.82808C8.07876 1.58926 7.65571 1.45279 7.47831 1.6302Z" fill="black"/>
<path d="M0.846191 6.40647C0.853015 7.46408 1.58311 8.86968 2.49743 9.57248C2.90683 9.88635 3.16611 10.0365 3.16611 9.96141C3.16611 9.93412 2.95459 9.58613 2.68848 9.19038C2.4292 8.80145 2.2245 8.47393 2.23815 8.46028C2.24497 8.45346 2.35414 8.46711 2.47014 8.50122C2.78401 8.59675 2.73625 8.50805 2.3132 8.22147C2.11533 8.07818 1.88333 7.8803 1.80828 7.77113L1.67181 7.58008L1.87651 7.60737C1.98568 7.62102 2.07439 7.60737 2.07439 7.58008C2.07439 7.54596 1.91745 7.36173 1.7264 7.1775C1.53534 6.98645 1.27606 6.67258 1.14642 6.4747C1.01677 6.28365 0.893955 6.11989 0.873485 6.11989C0.859838 6.11989 0.846191 6.24953 0.846191 6.40647Z" fill="black"/>
<path d="M21.4938 4.97432C21.2072 5.95687 21.2072 5.90229 21.5347 5.98417C22.1215 6.13428 22.8652 6.41403 23.3361 6.6665L23.8273 6.92578L23.8683 6.59144C23.8956 6.40721 23.9911 5.99099 24.0866 5.66347C24.1821 5.34277 24.2299 5.0562 24.2026 5.0289C24.0866 4.91973 22.1352 4.41481 21.8281 4.41481C21.678 4.41481 21.6439 4.47622 21.4938 4.97432Z" fill="black"/>
<path d="M23.0355 9.07542C22.7079 9.47117 22.5715 10.4196 22.783 10.829C22.9058 11.0678 23.1992 11.3066 23.3766 11.3066C23.4994 11.3066 23.4926 11.2793 23.3016 11.0678C23.1856 10.9314 23.0901 10.8154 23.0832 10.8085C23.0832 10.8017 23.0696 10.5493 23.0491 10.249C23.0286 9.89422 23.0491 9.58035 23.1105 9.34153C23.206 8.99354 23.1788 8.89801 23.0355 9.07542Z" fill="black"/>
<path d="M21.125 12.1585C21.1386 12.2541 21.1796 12.3359 21.2137 12.3359C21.2546 12.3359 21.2888 12.2541 21.3024 12.1585C21.316 12.0357 21.2956 11.9879 21.2137 11.9879C21.1318 11.9879 21.1113 12.0357 21.125 12.1585Z" fill="black"/>
<path d="M21.521 12.8413C21.521 13.0323 21.5483 13.0801 21.6575 13.0801C21.7666 13.0801 21.7939 13.0323 21.7939 12.8413C21.7939 12.6502 21.7666 12.6024 21.6575 12.6024C21.5483 12.6024 21.521 12.6502 21.521 12.8413Z" fill="black"/>
<path d="M20.777 12.9305C20.6815 13.1147 20.7565 13.3535 20.9203 13.3535C21.0295 13.3535 21.0499 13.3126 21.0295 13.1011C21.009 12.8213 20.8793 12.7326 20.777 12.9305Z" fill="black"/>
<path d="M15.2432 15.1395C15.2432 15.699 15.4206 16.4086 15.6935 16.9682C16.1438 17.8825 17.2287 18.8036 18.0748 18.9879C18.2318 19.022 18.1704 18.9537 17.8019 18.7149C17.5426 18.5375 17.2356 18.3123 17.1264 18.21C16.8876 17.9848 16.3212 17.2343 16.3622 17.1933C16.3758 17.1729 16.485 17.2138 16.601 17.2684C16.7102 17.3298 16.8262 17.3776 16.8466 17.3776C16.8671 17.3776 16.7238 17.1797 16.5259 16.9409C15.9187 16.2039 15.8163 15.9447 16.2121 16.1562C16.4645 16.2927 16.4099 16.1698 16.0415 15.7877C15.8368 15.5762 15.598 15.2623 15.5093 15.0918C15.4206 14.9212 15.325 14.7847 15.2978 14.7847C15.2636 14.7847 15.2432 14.9485 15.2432 15.1395Z" fill="black"/>
<path d="M15.3595 10.7541C14.9228 11.2386 14.6294 12.0096 14.6294 12.6715C14.6294 13.1559 14.7386 13.2174 14.7932 12.767C14.8546 12.2348 15.1343 11.4228 15.4209 10.9384C15.5505 10.72 15.6461 10.529 15.6324 10.5085C15.6188 10.4949 15.496 10.604 15.3595 10.7541Z" fill="black"/>
<path d="M4.85366 2.56068C4.62581 2.84138 4.55691 3.21173 4.66709 3.55688C4.71567 3.71204 4.88222 3.96017 5.00695 4.0602L5.11289 4.14493L4.69842 4.97503L4.28131 5.80454L4.1628 5.78222C3.92051 5.73639 3.66046 5.79482 3.41954 5.94773C3.16084 6.11192 3.01267 6.32163 2.94505 6.61178C2.87786 6.90619 2.92411 7.1649 3.09035 7.42684C3.2566 7.68878 3.46895 7.83753 3.766 7.90531C4.05572 7.96867 4.31017 7.92286 4.56887 7.75867C4.80979 7.60577 4.96352 7.4084 5.03227 7.1629L5.06532 7.03986L5.99347 7.01557L6.92104 6.99393L6.9526 7.12587C6.99981 7.31819 7.15228 7.55485 7.31398 7.68812C7.5916 7.91112 7.91406 7.98319 8.26021 7.8996C8.47016 7.848 8.69653 7.70434 8.8326 7.53633C9.0556 7.2587 9.12767 6.93624 9.04407 6.5901C8.99248 6.38014 8.84881 6.15378 8.6808 6.01771C8.40318 5.7947 8.08072 5.72264 7.73457 5.80623C7.55401 5.85052 7.30898 5.99695 7.19499 6.12827C7.08865 6.2502 6.99842 6.4118 6.96462 6.54439L6.93437 6.66112L6.00621 6.68541L5.07865 6.70705L5.04708 6.57511C5.0218 6.47094 4.99132 6.40863 4.90615 6.27443C4.82097 6.14022 4.77756 6.08612 4.69407 6.01889L4.58813 5.93416L5.0026 5.10407L5.41971 4.27456L5.54409 4.29542C6.09874 4.39024 6.66649 3.97321 6.75898 3.40417C6.85131 2.84203 6.49035 2.309 5.93265 2.18436C5.62502 2.11422 5.38762 2.15829 5.11759 2.32966C4.98339 2.41484 4.93678 2.45576 4.85366 2.56068ZM5.61297 2.48478C5.78235 2.46575 5.96942 2.51033 6.11134 2.60172C6.20145 2.65793 6.2258 2.68557 6.32124 2.83595C6.41667 2.98632 6.43132 3.02012 6.44382 3.12559C6.52531 3.75433 5.84428 4.20017 5.30343 3.86977C5.19233 3.80192 5.17781 3.78619 5.07621 3.62611C4.98078 3.47574 4.96613 3.44194 4.95363 3.33647C4.927 3.12654 4.99043 2.90483 5.1237 2.74314C5.15753 2.70352 5.23486 2.6431 5.32584 2.58989C5.45563 2.51206 5.49207 2.498 5.61297 2.48478ZM3.81091 6.12123C4.01293 6.06786 4.23629 6.10529 4.4149 6.21875C4.50502 6.27497 4.52937 6.30261 4.6248 6.45298C4.72024 6.60336 4.73386 6.63554 4.74842 6.74425C4.76776 6.89982 4.71696 7.12712 4.63323 7.25965C4.57377 7.35182 4.54775 7.37514 4.39738 7.47058C4.2373 7.57217 4.21746 7.58023 4.08805 7.59432C3.91867 7.61335 3.7316 7.56877 3.58968 7.47738C3.49957 7.42117 3.47522 7.39352 3.37978 7.24315C3.28435 7.09278 3.2697 7.05898 3.2572 6.9535C3.2083 6.57626 3.44698 6.21611 3.81091 6.12123ZM7.80601 6.12607C8.00803 6.07271 8.23139 6.11014 8.41 6.2236C8.50012 6.27981 8.52447 6.30746 8.6199 6.45783C8.71534 6.6082 8.72896 6.64039 8.74351 6.74909C8.76286 6.90466 8.71206 7.13197 8.62832 7.2645C8.56887 7.35667 8.54285 7.37999 8.39247 7.47542C8.2324 7.57702 8.21256 7.58507 8.08314 7.59916C7.91377 7.6182 7.7267 7.57361 7.58478 7.48223C7.49466 7.42601 7.47032 7.39837 7.37488 7.248C7.27944 7.09762 7.2648 7.06382 7.25229 6.95835C7.2034 6.58111 7.44207 6.22095 7.80601 6.12607Z" fill="#239571"/>
</svg>
