<svg width="30" height="31" viewBox="0 0 30 31" fill="none" xmlns="http://www.w3.org/2000/svg">
<g clip-path="url(#clip0_3427_19759)">
<circle cx="15.3107" cy="15.4684" r="14.695" fill="#239571"/>
<path fill-rule="evenodd" clip-rule="evenodd" d="M16.8358 9.5446C17.1803 8.27533 18.3406 7.3418 19.7189 7.3418C21.3686 7.3418 22.706 8.67918 22.706 10.3289C22.706 11.9787 21.3686 13.316 19.7189 13.316C18.3395 13.316 17.1785 12.3811 16.835 11.1104L13.1062 11.1104C12.1415 11.1104 11.3248 11.7439 11.0494 12.6176C12.2683 12.994 13.1539 14.1297 13.1539 15.4722C13.1539 16.8144 12.2687 17.9498 11.0502 18.3265C11.3264 19.1988 12.1425 19.8311 13.1062 19.8311L16.8354 19.8311C17.1794 18.5611 18.34 17.6268 19.7189 17.6268C21.3686 17.6268 22.706 18.9642 22.706 20.614C22.706 22.2637 21.3686 23.6011 19.7189 23.6011C18.34 23.6011 17.1794 22.6668 16.8354 21.3968L13.1062 21.3968C11.2891 21.3968 9.77614 20.0947 9.44957 18.3726C8.14624 18.0514 7.17969 16.8747 7.17969 15.4722C7.17969 14.0699 8.14596 12.8933 9.449 12.5718C9.77437 10.8483 11.288 9.54461 13.1062 9.54461L16.8358 9.5446ZM18.2975 20.6126C18.2975 20.613 18.2975 20.6135 18.2975 20.614C18.2975 21.399 18.9339 22.0353 19.7189 22.0353C20.5039 22.0353 21.1403 21.399 21.1403 20.614C21.1403 19.829 20.5039 19.1926 19.7189 19.1926C18.9344 19.1926 18.2983 19.8282 18.2975 20.6126ZM11.5882 15.4722C11.5882 16.2442 10.9726 16.8725 10.2055 16.893C10.1928 16.8924 10.18 16.8921 10.1672 16.8921C10.1543 16.8921 10.1414 16.8924 10.1287 16.893C9.3613 16.8728 8.74544 16.2444 8.74544 15.4722C8.74544 14.6872 9.38181 14.0508 10.1668 14.0508C10.9518 14.0508 11.5882 14.6872 11.5882 15.4722ZM18.2975 10.3287L18.2975 10.3275V10.3273C18.2984 9.54303 18.9344 8.90755 19.7189 8.90755C20.5039 8.90755 21.1403 9.54392 21.1403 10.3289C21.1403 11.1139 20.5039 11.7503 19.7189 11.7503C18.9339 11.7503 18.2975 11.1139 18.2975 10.3289V10.3287Z" fill="white"/>
</g>
<defs>
<clipPath id="clip0_3427_19759">
<rect width="29.3899" height="29.3899" fill="white" transform="translate(0.615234 0.775391)"/>
</clipPath>
</defs>
</svg>
