<svg width="29" height="29" viewBox="0 0 29 29" fill="none" xmlns="http://www.w3.org/2000/svg">
<path d="M19.4055 0.117599C19.3052 0.184475 19.1715 0.334948 19.1157 0.451979C19.0098 0.652607 19.0043 0.791933 19.0043 2.70347V4.73761H18.5306C18.2686 4.73761 17.8116 4.76548 17.5107 4.79892C13.1526 5.27262 9.48002 8.07584 7.89172 12.1497C7.30655 13.6544 7.13379 14.73 7.13379 16.8923C7.13379 18.397 7.13936 18.436 7.26197 18.6144C7.43473 18.8763 7.69666 19.0156 8.0199 19.0156C8.49917 19.0156 8.70537 18.8373 9.1122 18.0794C9.76424 16.8533 11.0014 15.5214 12.2442 14.7077C13.9384 13.6042 15.7719 13.0971 18.0959 13.0971H19.0043V15.1424C19.0043 17.1598 19.0098 17.1988 19.1324 17.4106C19.1993 17.5276 19.3442 17.6725 19.4501 17.7283C19.7065 17.8676 20.1467 17.8676 20.3752 17.7283C20.5703 17.6112 28.3502 9.54711 28.4616 9.35205C28.5675 9.15142 28.5508 8.63871 28.4282 8.44365C28.2554 8.17058 20.4923 0.145466 20.3251 0.0674438C20.0799 -0.0384445 19.6173 -0.0161514 19.4055 0.117599Z" fill="#239571"/>
<path d="M2.74807 4.81975C1.76165 5.03709 0.814239 5.78944 0.362826 6.71456C-0.0217105 7.50035 0.00058146 6.83717 0.00058146 16.6512C0.00058146 26.5879 -0.0328565 25.8188 0.40741 26.6659C0.719498 27.2678 1.26565 27.8139 1.87311 28.1316C2.70906 28.5607 1.73378 28.5328 14.2674 28.5328C26.8011 28.5328 25.8258 28.5607 26.6618 28.1316C27.2692 27.8139 27.8154 27.2678 28.1275 26.6659C28.5566 25.8411 28.5343 26.1587 28.5343 20.3182C28.5343 15.6202 28.5232 15.0796 28.4451 14.918C28.2167 14.4722 27.8711 14.266 27.3473 14.266C26.8736 14.266 26.5615 14.4276 26.333 14.7954L26.1658 15.0629L26.1379 20.1678L26.1101 25.2726L25.954 25.5346C25.8537 25.7073 25.7088 25.8522 25.536 25.9525L25.2741 26.1086H14.2674H3.26078L2.99885 25.9525C2.82609 25.8522 2.68119 25.7073 2.58088 25.5346L2.42483 25.2726L2.40811 16.7571C2.40254 10.8553 2.41369 8.16911 2.4527 8.01307C2.52515 7.75114 2.82609 7.40561 3.11031 7.26629C3.29422 7.17155 3.51714 7.1604 5.43425 7.13254C7.77491 7.0991 7.72475 7.11024 8.0647 6.72571C8.52169 6.20185 8.40466 5.34918 7.81392 4.93121L7.56871 4.76402L5.33394 4.75287C3.61745 4.7473 3.01557 4.75844 2.74807 4.81975Z" fill="black"/>
</svg>
