<svg width="33" height="33" viewBox="0 0 33 33" fill="none" xmlns="http://www.w3.org/2000/svg">
<path d="M14.6262 0.0416183C8.60977 0.603411 3.42954 4.41183 1.17584 9.93174C0.352752 11.9568 0 13.7924 0 16.0396C0 18.2867 0.352752 20.1224 1.17584 22.1474C2.37781 25.087 4.52699 27.7 7.18569 29.4442C12.5423 32.9586 19.4536 32.9717 24.8298 29.4834C26.5871 28.3402 28.2724 26.6548 29.4417 24.8715C33.3155 18.9857 32.8843 11.1664 28.39 5.78364C25.8162 2.70033 22.2365 0.70793 18.2386 0.133074C17.3828 0.00895691 15.4754 -0.0433006 14.6262 0.0416183ZM18.0557 2.28878C21.0867 2.74605 23.8892 4.19625 26.0122 6.40422C31.3688 11.9633 31.199 20.7168 25.6333 26.0604C20.7275 30.7637 13.2217 31.2341 7.74748 27.1839C6.87867 26.5372 5.42846 25.087 4.84054 24.2639C2.65871 21.2394 1.7507 17.6139 2.27982 14.0407C3.2205 7.72378 8.27661 2.8963 14.6915 2.19733C15.4688 2.11241 17.1999 2.15813 18.0557 2.28878Z" fill="#239571"/>
<path d="M14.3975 3.56221C9.43939 4.24812 5.40234 7.69072 3.97174 12.4594C3.59285 13.7332 3.521 14.3146 3.521 16.0719C3.52753 17.5939 3.53406 17.7638 3.69737 18.5215C4.36368 21.6244 6.02292 24.257 8.47259 26.0861C10.0208 27.2423 11.7323 28.0001 13.679 28.3986C14.3453 28.5292 14.6066 28.5488 16.0633 28.5488C17.5854 28.5488 17.7487 28.5358 18.513 28.3725C23.5691 27.2881 27.2795 23.5776 28.3639 18.5215C28.5272 17.7572 28.5403 17.6004 28.5403 16.0392C28.5403 14.4714 28.5272 14.3212 28.3574 13.5503C27.8152 11.0223 26.6916 8.92535 24.9148 7.15506C23.151 5.38476 21.041 4.24812 18.5587 3.71899C17.8597 3.56874 17.5723 3.54261 16.2919 3.52955C15.4819 3.51649 14.6327 3.52955 14.3975 3.56221ZM16.6512 6.40383C18.3954 6.8611 19.2642 8.68365 18.4868 10.258C18.2059 10.8198 17.7225 11.3032 17.1542 11.571C16.6643 11.8127 15.7693 11.865 15.2402 11.6951C13.2478 11.0484 12.6338 8.58566 14.1101 7.13546C14.8091 6.44302 15.7563 6.17519 16.6512 6.40383ZM18.4411 13.387C18.5391 13.4393 18.6501 13.5569 18.6959 13.6548C18.7547 13.779 18.7743 15.2553 18.7743 19.5667V25.3153L18.5848 25.5243L18.3954 25.7399H16.0306H13.6659L13.4764 25.5243L13.287 25.3153V19.5471C13.2935 13.3674 13.2805 13.5765 13.6202 13.387C13.8553 13.2564 18.1863 13.2564 18.4411 13.387Z" fill="#239571"/>
<path d="M15.4101 7.78886C14.4237 8.30493 14.3322 9.61795 15.2337 10.2581C15.495 10.4345 15.5668 10.4541 16.0306 10.4541C16.4944 10.4541 16.5663 10.4345 16.8276 10.2581C17.7095 9.63101 17.6311 8.29186 16.6773 7.80846C16.3638 7.64515 15.6975 7.63862 15.4101 7.78886Z" fill="#239571"/>
<path d="M14.5938 19.502V24.4014H16.0309H17.468V19.502V14.6027H16.0309H14.5938V19.502Z" fill="#239571"/>
</svg>
