<svg width="24" height="24" viewBox="0 0 24 24" fill="none" xmlns="http://www.w3.org/2000/svg">
<path d="M10.2887 1.52869L8.76522 3.05217V3.59478V4.13739L8.37913 3.76696L7.99304 3.3913H5.79652C3.66783 3.3913 3.59478 3.39652 3.49565 3.49565C3.40174 3.58957 3.3913 3.66783 3.3913 4.45565V5.31652L3.53217 5.42609C3.6313 5.50435 3.71478 5.52522 3.8087 5.50435C4.03826 5.44696 4.06957 5.34783 4.06957 4.68522V4.06956H5.88522H7.69565L8.23304 4.60696L8.76522 5.13913V6.95478V8.76522H6.94957H5.13913L4.60174 8.22783L4.06957 7.69565V6.98609C4.06957 6.19304 4.03304 6.10435 3.71478 6.10435C3.42783 6.10435 3.3913 6.22435 3.3913 7.16348V7.99304L3.76696 8.37913L4.13739 8.76522H3.59478H3.05217L1.52348 10.2939C0.109565 11.713 0 11.833 0 12C0 12.1722 0.109565 12.2922 1.5287 13.7113L3.05217 15.2348H3.59478H4.13739L3.76696 15.6209L3.3913 16.007V18.2035C3.3913 20.3322 3.39652 20.4052 3.49565 20.5043C3.59478 20.6035 3.66783 20.6087 5.79652 20.6087H7.99304L8.37913 20.233L8.76522 19.8626V20.4052V20.9478L10.2939 22.4765C11.713 23.8904 11.833 24 12 24C12.1722 24 12.2922 23.8904 13.7113 22.4713L15.2348 20.9478V20.4052V19.8626L15.6209 20.233L16.007 20.6087H18.2035C20.3322 20.6087 20.4052 20.6035 20.5043 20.5043C20.5983 20.4104 20.6087 20.3322 20.6087 19.6017C20.6087 18.6887 20.5722 18.5739 20.2748 18.5739C19.9774 18.5739 19.9304 18.6835 19.9304 19.3461V19.9304H18.12H16.3043L15.7722 19.3983L15.2348 18.8609V17.0504V15.2348H17.0504H18.8609L19.3983 15.7722L19.9304 16.3043V17.04C19.9304 17.8591 19.967 17.9478 20.2852 17.9478C20.5722 17.9478 20.6087 17.8278 20.6087 16.8626V16.007L20.233 15.6209L19.8626 15.2348H20.4052H20.9478L22.4765 13.7061C23.8904 12.287 24 12.167 24 12C24 11.8278 23.8904 11.7078 22.4713 10.2887L20.9478 8.76522H20.4052H19.8626L20.233 8.37913L20.6087 7.99304V5.79652C20.6087 3.66783 20.6035 3.59478 20.5043 3.49565C20.4052 3.39652 20.3322 3.3913 18.2035 3.3913H16.007L15.6209 3.76696L15.2348 4.13739V3.59478V3.05217L13.7061 1.52348C12.287 0.109564 12.167 -1.90735e-06 12 -1.90735e-06C11.8278 -1.90735e-06 11.7078 0.109564 10.2887 1.52869ZM13.3148 2.12348L14.6087 3.41739V4.09565V4.77391L13.3043 6.07826L12 7.38261L10.6957 6.07826L9.3913 4.77391V4.09565V3.41739L10.68 2.12869C11.3948 1.41391 11.9843 0.834782 12 0.834782C12.0157 0.834782 12.6052 1.41391 13.3148 2.12348ZM19.9304 5.88V7.69565L19.3983 8.22783L18.8609 8.76522H17.0504H15.2348V6.95478V5.13913L15.767 4.60696L16.3043 4.06956H18.1148H19.9304V5.88ZM11.0609 8.32174L10.6174 8.76522H10.007H9.3913V7.26783V5.76522L10.4452 6.81913L11.5043 7.87826L11.0609 8.32174ZM14.6087 7.27826V8.76522H13.993H13.3826L12.9391 8.32174L12.4957 7.87826L13.5391 6.83478C14.113 6.26087 14.5878 5.7913 14.593 5.7913C14.6035 5.7913 14.6087 6.45913 14.6087 7.27826ZM12.5217 8.89565L13.0174 9.3913H13.8104H14.6087V10.1843V10.9826L15.1148 11.4887L15.6261 12L15.1148 12.5113L14.6087 13.0174V13.8157V14.6087H13.8157H13.0174L12.5113 15.1148L12 15.6261L11.4887 15.1148L10.9826 14.6087H10.1843H9.3913V13.8157V13.0174L8.88522 12.5113L8.37391 12L8.88522 11.4887L9.3913 10.9826V10.1843V9.3913H10.1896H10.9826L11.4783 8.89565C11.7496 8.62435 11.9843 8.4 12 8.4C12.0157 8.4 12.2504 8.62435 12.5217 8.89565ZM6.07826 10.6957L7.38261 12L6.07826 13.3043L4.77391 14.6087H4.09565H3.41739L2.11304 13.3043L0.808696 12L2.11304 10.6957L3.41739 9.3913H4.09565H4.77391L6.07826 10.6957ZM8.76522 10.007V10.6174L8.32174 11.0609L7.87826 11.5043L6.81913 10.4452L5.76522 9.3913H7.26783H8.76522V10.007ZM17.1809 10.4452L16.1217 11.5043L15.6783 11.0609L15.2348 10.6174V10.007V9.3913H16.7322H18.2348L17.1809 10.4452ZM21.887 10.6957L23.1913 12L21.887 13.3043L20.5826 14.6087H19.9043H19.2261L17.9217 13.3043L16.6174 12L17.9217 10.6957L19.2261 9.3913H19.9043H20.5826L21.887 10.6957ZM8.33217 12.9496L8.76522 13.3826V13.993V14.6087H7.26783H5.76522L6.8087 13.5652C7.38261 12.9913 7.86261 12.5217 7.87826 12.5217C7.8887 12.5217 8.09739 12.7148 8.33217 12.9496ZM17.1913 13.5652L18.2348 14.6087H16.7322H15.2348V13.9983V13.3826L15.6626 12.9548C15.9026 12.7148 16.1061 12.5217 16.1217 12.5217C16.1374 12.5217 16.6174 12.9913 17.1913 13.5652ZM8.76522 17.0452V18.8609L8.23304 19.393L7.69565 19.9304H5.88522H4.06957V18.12V16.3043L4.60174 15.7722L5.13913 15.2348H6.94957H8.76522V17.0452ZM11.0609 15.6783L11.5043 16.1217L10.4452 17.1809L9.3913 18.2348V16.7322V15.2348H10.007H10.6174L11.0609 15.6783ZM14.6087 16.7322V18.2348L13.5548 17.1809L12.4957 16.1217L12.9391 15.6783L13.3826 15.2348H13.993H14.6087V16.7322ZM13.3148 17.9322L14.6087 19.2261V19.9043V20.5826L13.3043 21.887L12 23.1913L10.6957 21.887L9.3913 20.5826V19.9043V19.2261L10.68 17.9374C11.3948 17.2226 11.9843 16.6435 12 16.6435C12.0157 16.6435 12.6052 17.2226 13.3148 17.9322Z" fill="black"/>
</svg>
