<svg width="21" height="21" viewBox="0 0 21 21" fill="none" xmlns="http://www.w3.org/2000/svg">
<path d="M10.1363 0.0449076C9.9881 0.0958509 8.91365 1.14714 5.04658 5.00958C2.3512 7.70496 0.11432 9.96963 0.0726387 10.0437C-0.0709293 10.317 0.00780156 10.7616 0.225469 10.9561C0.447768 11.1506 0.846054 11.2108 1.08225 11.0904C1.14245 11.058 3.26355 8.96928 5.78757 6.44526L10.3864 1.85109L15.0037 6.46842C19.1487 10.6087 19.6442 11.0904 19.8202 11.1367C20.3852 11.2803 20.9039 10.7616 20.7603 10.1966C20.714 10.0206 20.2046 9.49724 15.791 5.07905C13.0864 2.36978 10.8217 0.128269 10.7569 0.0912199C10.5624 -0.0106678 10.3308 -0.029192 10.1363 0.0449076Z" fill="#239371"/>
<path d="M2.5688 11.9704C2.48544 12.0213 2.37892 12.1278 2.32798 12.2112C2.23998 12.3594 2.23535 12.452 2.23535 15.0084C2.23535 17.4815 2.23998 17.6714 2.32798 17.9956C2.49933 18.6579 2.82352 19.2275 3.29127 19.6953C3.63398 20.038 3.90259 20.2232 4.37961 20.4455C5.11134 20.7836 4.85199 20.7697 10.4002 20.7697C15.212 20.7697 15.3788 20.7651 15.7493 20.6771C16.7959 20.427 17.662 19.7277 18.1714 18.732C18.5234 18.0373 18.5095 18.1901 18.5234 15.1196C18.5373 12.4242 18.5373 12.3594 18.4446 12.2112C18.3057 11.9889 18.0973 11.8777 17.7963 11.8777C17.4952 11.8777 17.2868 11.9889 17.1479 12.2112C17.0599 12.3594 17.0553 12.452 17.0553 14.7723C17.0553 17.4352 17.0414 17.5834 16.7728 18.0882C16.4532 18.681 15.8141 19.1395 15.1565 19.2414C14.7489 19.3016 6.0237 19.3016 5.61615 19.2414C4.95851 19.1395 4.3194 18.681 4.00448 18.0928C3.73124 17.5788 3.71734 17.4398 3.71734 14.7723C3.71734 12.452 3.71271 12.3594 3.62472 12.2112C3.57378 12.1278 3.46726 12.0213 3.3839 11.9704C3.17549 11.8453 2.77721 11.8453 2.5688 11.9704Z" fill="#239371"/>
</svg>
