<svg width="21" height="21" viewBox="0 0 21 21" fill="none" xmlns="http://www.w3.org/2000/svg">
<path d="M10.1363 0.0451517C9.9881 0.0960951 8.91365 1.14738 5.04658 5.00983C2.3512 7.7052 0.11432 9.96987 0.0726387 10.044C-0.0709293 10.3172 0.00780156 10.7618 0.225469 10.9563C0.447768 11.1508 0.846054 11.211 1.08225 11.0906C1.14245 11.0582 3.26355 8.96953 5.78757 6.44551L10.3864 1.85133L15.0037 6.46866C19.1487 10.609 19.6442 11.0906 19.8202 11.1369C20.3852 11.2805 20.9039 10.7618 20.7603 10.1968C20.714 10.0208 20.2046 9.49749 15.791 5.0793C13.0864 2.37003 10.8217 0.128513 10.7569 0.091464C10.5624 -0.0104237 10.3308 -0.0289478 10.1363 0.0451517Z" fill="black"/>
<path d="M2.5688 11.9706C2.48544 12.0216 2.37892 12.1281 2.32798 12.2114C2.23998 12.3596 2.23535 12.4523 2.23535 15.0087C2.23535 17.4818 2.23998 17.6716 2.32798 17.9958C2.49933 18.6581 2.82352 19.2277 3.29127 19.6955C3.63398 20.0382 3.90259 20.2235 4.37961 20.4458C5.11134 20.7838 4.85199 20.7699 10.4002 20.7699C15.212 20.7699 15.3788 20.7653 15.7493 20.6773C16.7959 20.4272 17.662 19.7279 18.1714 18.7322C18.5234 18.0375 18.5095 18.1903 18.5234 15.1198C18.5373 12.4245 18.5373 12.3596 18.4446 12.2114C18.3057 11.9891 18.0973 11.878 17.7963 11.878C17.4952 11.878 17.2868 11.9891 17.1479 12.2114C17.0599 12.3596 17.0553 12.4523 17.0553 14.7725C17.0553 17.4355 17.0414 17.5837 16.7728 18.0885C16.4532 18.6813 15.8141 19.1397 15.1565 19.2416C14.7489 19.3018 6.0237 19.3018 5.61615 19.2416C4.95851 19.1397 4.3194 18.6813 4.00448 18.0931C3.73124 17.579 3.71734 17.4401 3.71734 14.7725C3.71734 12.4523 3.71271 12.3596 3.62472 12.2114C3.57378 12.1281 3.46726 12.0216 3.3839 11.9706C3.17549 11.8456 2.77721 11.8456 2.5688 11.9706Z" fill="black"/>
</svg>
