<svg xmlns="http://www.w3.org/2000/svg" width="21" height="21" viewBox="0 0 21 21" fill="none">
<path d="M10.1363 0.0450907C9.9881 0.096034 8.91365 1.14732 5.04658 5.00977C2.3512 7.70514 0.11432 9.96981 0.0726387 10.0439C-0.0709293 10.3172 0.00780156 10.7617 0.225469 10.9563C0.447768 11.1508 0.846054 11.211 1.08225 11.0906C1.14245 11.0581 3.26355 8.96946 5.78757 6.44545L10.3864 1.85127L15.0037 6.4686C19.1487 10.6089 19.6442 11.0906 19.8202 11.1369C20.3852 11.2804 20.9039 10.7617 20.7603 10.1967C20.714 10.0208 20.2046 9.49742 15.791 5.07923C13.0864 2.36997 10.8217 0.128452 10.7569 0.091403C10.5624 -0.0104847 10.3308 -0.0290089 10.1363 0.0450907Z" fill="black"/>
<path d="M2.5688 11.9705C2.48544 12.0214 2.37892 12.1279 2.32798 12.2113C2.23998 12.3595 2.23535 12.4521 2.23535 15.0086C2.23535 17.4816 2.23998 17.6715 2.32798 17.9957C2.49933 18.658 2.82352 19.2276 3.29127 19.6954C3.63398 20.0381 3.90259 20.2233 4.37961 20.4456C5.11134 20.7837 4.85199 20.7698 10.4002 20.7698C15.212 20.7698 15.3788 20.7652 15.7493 20.6772C16.7959 20.4271 17.662 19.7278 18.1714 18.7321C18.5234 18.0374 18.5095 18.1902 18.5234 15.1197C18.5373 12.4243 18.5373 12.3595 18.4446 12.2113C18.3057 11.989 18.0973 11.8779 17.7963 11.8779C17.4952 11.8779 17.2868 11.989 17.1479 12.2113C17.0599 12.3595 17.0553 12.4521 17.0553 14.7724C17.0553 17.4353 17.0414 17.5835 16.7728 18.0883C16.4532 18.6811 15.8141 19.1396 15.1565 19.2415C14.7489 19.3017 6.0237 19.3017 5.61615 19.2415C4.95851 19.1396 4.3194 18.6811 4.00448 18.093C3.73124 17.5789 3.71734 17.44 3.71734 14.7724C3.71734 12.4521 3.71271 12.3595 3.62472 12.2113C3.57378 12.1279 3.46726 12.0214 3.3839 11.9705C3.17549 11.8454 2.77721 11.8454 2.5688 11.9705Z" fill="black"/>
</svg>