<svg width="17" height="25" viewBox="0 0 17 25" fill="none" xmlns="http://www.w3.org/2000/svg">
<path d="M1.75483 0.0925961C0.994579 0.336267 0.390274 0.930824 0.117363 1.70082L0.000400511 2.02247V11.4331C0.000400511 21.8232 -0.0239666 21.0337 0.307426 21.6526C0.477996 21.9791 0.88249 22.4031 1.19926 22.5883C1.6135 22.832 1.93515 22.9148 2.57357 22.9392L3.16813 22.9684V23.831C3.16813 24.6303 3.17787 24.7034 3.27047 24.8252C3.43616 25.0348 3.62135 25.0007 4.63015 24.5572C5.12724 24.3427 5.57072 24.1234 5.61946 24.065C5.68769 23.987 5.70231 23.87 5.70231 23.4607V22.9538L10.6878 22.9441C15.649 22.9295 15.6685 22.9295 15.8878 22.8271C16.1753 22.6907 16.4141 22.4519 16.5505 22.1497L16.6675 21.906V11.4525C16.6675 1.3938 16.6626 0.989305 16.5749 0.799242C16.4433 0.506836 16.185 0.243671 15.9121 0.116962L15.6685 0L8.84566 0.00487328C2.46635 0.00487328 2.00338 0.00974655 1.75483 0.0925961ZM15.4248 0.779749C15.5417 0.804115 15.6733 0.88209 15.7562 0.974686L15.8878 1.12089V9.50318V17.8855H9.38174H2.87572V11.1212C2.87572 4.48842 2.87572 4.35197 2.78313 4.26912C2.6418 4.14241 2.35914 4.14728 2.22756 4.27887L2.12034 4.39095L2.10572 11.1553L2.09597 17.9245L1.92053 17.9586C1.69148 17.9976 1.23825 18.1974 1.05306 18.3436C0.970212 18.402 0.872743 18.4703 0.838629 18.4898C0.789895 18.519 0.780148 16.9059 0.789895 10.2732L0.804515 2.02247L0.916604 1.79342C1.13591 1.35481 1.58914 0.945444 1.95952 0.85285L2.0911 0.818735L2.10572 1.84703C2.12034 2.83146 2.12521 2.87532 2.22756 2.98253C2.36401 3.11899 2.63692 3.12387 2.77825 2.99716C2.87085 2.91431 2.87572 2.85583 2.87572 1.81779V0.731014H9.05522C12.6518 0.731014 15.3127 0.750507 15.4248 0.779749ZM15.8878 19.3475V20.0298H14.416C12.9735 20.0298 12.9442 20.0298 12.8321 20.137C12.7152 20.2491 12.6859 20.4586 12.7688 20.6146C12.8614 20.7852 13.0807 20.8095 14.5037 20.8095H15.8878V21.292C15.8878 21.7062 15.8731 21.7891 15.7854 21.9012C15.5612 22.1887 15.839 22.1741 10.5514 22.1741H5.70231V21.4918V20.8095H8.47528C10.0689 20.8095 11.3019 20.79 11.3701 20.7657C11.6089 20.6731 11.6333 20.2003 11.4042 20.0785C11.3457 20.0493 9.65953 20.0298 6.82807 20.0298C2.403 20.0298 2.33964 20.0298 2.24218 20.1272C2.14471 20.2247 2.10572 20.5317 2.18369 20.6438C2.2568 20.7608 2.44686 20.8095 2.79775 20.8095H3.16813V21.4967V22.1887L2.63692 22.1643C2.13983 22.1448 2.07648 22.1302 1.73534 21.9596C1.14566 21.6721 0.833756 21.1994 0.789895 20.5366C0.750908 19.8982 1.01407 19.3329 1.51116 18.9966C2.01312 18.6555 1.57939 18.6701 9.10396 18.6701L15.8878 18.6652V19.3475ZM4.92256 22.1887V23.5679L4.47908 23.7579C4.23053 23.8652 4.01123 23.9626 3.99173 23.9675C3.96737 23.9772 3.94787 23.2706 3.94787 22.3983V20.8095H4.43522H4.92256V22.1887Z" fill="#239371"/>
<path d="M9.14809 1.51089C9.07499 1.56938 9.01651 1.65222 9.01651 1.70096C9.01651 1.9495 8.90442 2.10058 8.62663 2.24191C8.47068 2.31988 8.26113 2.47096 8.15879 2.56843C7.99309 2.739 7.74942 3.16786 7.74942 3.29944C7.74942 3.32868 7.6617 3.36767 7.54961 3.38716C7.21821 3.44564 6.71138 3.7283 6.44334 4.01096C6.18018 4.29362 5.92676 4.74685 5.87315 5.03438C5.84391 5.1952 5.81954 5.21957 5.63435 5.26343C5.06416 5.39989 4.45011 5.86773 4.18207 6.36482C3.91891 6.85217 3.89941 7.04223 3.89941 9.38147C3.89941 11.7207 3.91891 11.9108 4.18207 12.3981C4.45011 12.8952 5.06416 13.3631 5.63435 13.4995C5.81954 13.5434 5.84391 13.5677 5.87315 13.7286C5.92188 14.0064 6.1753 14.4645 6.42385 14.7276C6.69189 15.0151 6.97942 15.1955 7.40341 15.3319C7.70068 15.4294 7.7153 15.444 7.80303 15.6633C7.92486 15.9898 8.18315 16.2822 8.4853 16.4431C8.85081 16.638 8.9629 16.755 9.00189 16.9694C9.07986 17.4811 9.79626 17.4519 9.79626 16.9402C9.79626 16.755 9.91322 16.6331 10.2544 16.4674C10.5468 16.3212 10.8294 16.0142 10.9708 15.6682C11.0633 15.444 11.0975 15.405 11.2437 15.3758C11.9503 15.2442 12.6375 14.6155 12.8763 13.8845L12.9835 13.5482L13.271 13.4654C13.8509 13.3046 14.4114 12.8221 14.6746 12.2617C14.8792 11.8279 14.9134 11.4137 14.9134 9.38147C14.9134 7.34926 14.8792 6.93501 14.6746 6.50128C14.4114 5.94084 13.8509 5.45837 13.271 5.29754L12.9835 5.2147L12.8763 4.87843C12.6375 4.14742 11.9503 3.51875 11.2437 3.38716C11.0975 3.35792 11.0633 3.32381 10.9659 3.08014C10.8343 2.76336 10.498 2.40273 10.2105 2.27115C9.91809 2.13469 9.79626 2.00311 9.79626 1.82279C9.79626 1.48653 9.41613 1.30134 9.14809 1.51089ZM9.72803 2.91444C10.113 3.124 10.269 3.31894 10.3128 3.66007C10.3518 3.96223 10.4444 4.0402 10.8635 4.11818C11.614 4.26438 12.0527 4.67862 12.1842 5.3609C12.2135 5.5071 12.2476 5.67767 12.2622 5.74103C12.2866 5.86773 12.5351 5.99444 12.7544 5.99444C13.2223 5.99444 13.8412 6.47204 14.0166 6.96913C14.1044 7.21767 14.1092 7.39799 14.1092 9.38147C14.1092 11.8133 14.1044 11.8328 13.7291 12.2617C13.5049 12.52 13.0371 12.7685 12.7788 12.7685C12.54 12.7685 12.2914 12.8903 12.2622 13.0219C12.2476 13.0853 12.2135 13.2558 12.1842 13.402C12.0527 14.0843 11.614 14.4986 10.8635 14.6448C10.4444 14.7227 10.3518 14.8007 10.3128 15.1029C10.269 15.4245 10.113 15.6389 9.79138 15.8144C9.64031 15.8924 9.48436 15.9898 9.4405 16.0239C9.39176 16.0629 9.35765 16.0678 9.33815 16.0386C9.31866 16.0093 9.17246 15.9167 9.01163 15.8339C8.65587 15.6438 8.53891 15.4879 8.48043 15.1224C8.45606 14.9713 8.40246 14.8153 8.36347 14.7764C8.32936 14.7374 8.12955 14.6789 7.92486 14.6448C7.49113 14.5668 7.19385 14.4108 6.95018 14.1233C6.75037 13.8943 6.5798 13.48 6.5798 13.2315C6.5798 13.1438 6.56518 13.0317 6.55056 12.9878C6.5067 12.8757 6.27277 12.7685 6.07296 12.7685C5.60999 12.7685 5.09828 12.4176 4.83998 11.9303L4.70353 11.672V9.38147V7.09096L4.83511 6.83755C5.10315 6.33558 5.4784 6.07242 6.05347 5.99444C6.42872 5.94084 6.5798 5.80925 6.5798 5.55096C6.5798 5.2878 6.74549 4.87356 6.95018 4.63963C7.19872 4.3521 7.49113 4.19615 7.92973 4.11818C8.34885 4.04507 8.48043 3.94273 8.48043 3.69906C8.48043 3.49925 8.58765 3.26533 8.7436 3.11912C8.86056 3.01678 9.28455 2.74874 9.36252 2.73412C9.37714 2.72925 9.54284 2.8121 9.72803 2.91444Z" fill="#239371"/>
<path d="M8.74826 6.16489C7.58838 6.41831 6.72579 7.15907 6.36028 8.22147C6.02889 9.16692 6.14098 10.3122 6.63807 11.1455C6.8525 11.511 7.32522 11.974 7.70535 12.1982C8.44123 12.6319 9.43541 12.783 10.2249 12.5832C11.6772 12.2128 12.686 10.9993 12.7347 9.55679C12.7445 9.23514 12.7347 9.19616 12.6275 9.10844C12.4862 8.99147 12.2279 8.9866 12.0963 9.09869C12.0183 9.16692 11.9842 9.28388 11.9452 9.60552C11.8867 10.127 11.7405 10.4876 11.4286 10.9067C11.1557 11.2674 10.7464 11.5744 10.298 11.7498C10.0592 11.8473 9.92763 11.8619 9.4549 11.8619C8.96756 11.8619 8.8506 11.8424 8.56307 11.7303C7.72971 11.4038 7.17902 10.7557 6.9987 9.87844C6.90123 9.41546 6.90123 9.34723 6.9987 8.88426C7.22288 7.79261 8.08547 7.00312 9.16737 6.8959C9.60598 6.85204 9.73269 6.79356 9.79604 6.6035C9.84965 6.4378 9.82528 6.31596 9.70832 6.17463C9.6206 6.07229 9.19174 6.06742 8.74826 6.16489Z" fill="#239371"/>
<path d="M11.0633 6.53037C10.995 6.5986 10.9658 6.69119 10.9658 6.84714C10.9658 7.06644 10.9658 7.06644 10.8001 7.06644C10.42 7.06644 10.2299 7.29062 10.342 7.60252C10.4054 7.78284 10.5126 7.84619 10.766 7.84619H10.9658V8.0655C10.9658 8.33841 11.0876 8.47974 11.3264 8.47974C11.5701 8.47974 11.7017 8.34815 11.7309 8.07524C11.7602 7.84619 11.7602 7.84619 11.9405 7.84619C12.2085 7.84619 12.3547 7.70974 12.3547 7.45632C12.3547 7.2029 12.2085 7.06644 11.9405 7.06644C11.7602 7.06644 11.7602 7.06644 11.7309 6.83739C11.7163 6.68144 11.6724 6.5791 11.5993 6.52062C11.4531 6.40366 11.1851 6.40853 11.0633 6.53037Z" fill="#239371"/>
</svg>
