<svg width="28" height="42" viewBox="0 0 28 42" fill="none" xmlns="http://www.w3.org/2000/svg">
<path d="M2.94797 0.155663C1.67081 0.565006 0.655628 1.56381 0.197159 2.85735L0.000672825 3.39769V19.2067C0.000672825 36.6612 -0.0402619 35.3349 0.51645 36.3747C0.802993 36.9232 1.48251 37.6355 2.01466 37.9466C2.71055 38.3559 3.25089 38.4951 4.32338 38.536L5.32218 38.5851V40.0342C5.32218 41.3769 5.33856 41.4997 5.49411 41.7044C5.77246 42.0564 6.08357 41.9991 7.77826 41.2541C8.61333 40.8939 9.35834 40.5254 9.44021 40.4272C9.55483 40.2962 9.57939 40.0997 9.57939 39.412V38.5606L17.9546 38.5442C26.2889 38.5196 26.3217 38.5196 26.6901 38.3477C27.1731 38.1185 27.5743 37.7173 27.8035 37.2097L28 36.8004V19.2394C28 2.34158 27.9918 1.66206 27.8444 1.34277C27.6234 0.851551 27.1895 0.409454 26.731 0.196594L26.3217 0.000110626L14.86 0.00829697C4.14326 0.00829697 3.3655 0.0164833 2.94797 0.155663ZM25.9123 1.31002C26.1088 1.35095 26.3299 1.48195 26.469 1.6375L26.6901 1.88311V15.9646V30.0462H15.7605H4.83097V18.6827C4.83097 7.54028 4.83097 7.31104 4.67541 7.17186C4.43799 6.959 3.96315 6.96719 3.7421 7.18824L3.56199 7.37654L3.53743 18.74L3.52106 30.1117L3.22633 30.169C2.84154 30.2345 2.08015 30.5701 1.76905 30.8157C1.62987 30.914 1.46613 31.0286 1.40883 31.0613C1.32696 31.1105 1.31058 28.4006 1.32696 17.2582L1.35152 3.39769L1.53982 3.0129C1.90823 2.27608 2.66961 1.58838 3.29182 1.43282L3.51287 1.37551L3.53743 3.10296C3.56199 4.75672 3.57018 4.8304 3.7421 5.01051C3.97134 5.23975 4.42981 5.24794 4.66723 5.03508C4.82278 4.8959 4.83097 4.79765 4.83097 3.05384V1.22815H15.212C21.254 1.22815 25.724 1.2609 25.9123 1.31002ZM26.6901 32.5022V33.6484H24.2176C21.7943 33.6484 21.7452 33.6484 21.5569 33.8285C21.3604 34.0168 21.3113 34.3689 21.4504 34.6309C21.606 34.9174 21.9744 34.9583 24.365 34.9583H26.6901V35.7688C26.6901 36.4647 26.6655 36.6039 26.5182 36.7922C26.1416 37.2752 26.6082 37.2507 17.7254 37.2507H9.57939V36.1045V34.9583H14.2378C16.9149 34.9583 18.9862 34.9256 19.1008 34.8846C19.502 34.7291 19.5429 33.935 19.1581 33.7303C19.0599 33.6812 16.2272 33.6484 11.4706 33.6484C4.03683 33.6484 3.9304 33.6484 3.76666 33.8122C3.60293 33.9759 3.53743 34.4917 3.66842 34.68C3.79122 34.8765 4.11052 34.9583 4.69997 34.9583H5.32218V36.1127V37.2752L4.42981 37.2343C3.59474 37.2015 3.48831 37.177 2.91522 36.8904C1.9246 36.4074 1.40064 35.6133 1.32696 34.4999C1.26146 33.4274 1.70356 32.4777 2.53862 31.9128C3.38188 31.3397 2.65324 31.3643 15.2939 31.3643L26.6901 31.3561V32.5022ZM8.26948 37.2752V39.5921L7.52447 39.9114C7.10693 40.0915 6.73852 40.2553 6.70577 40.2635C6.66484 40.2798 6.63209 39.0927 6.63209 37.6273V34.9583H7.45079H8.26948V37.2752Z" fill="black"/>
<path d="M15.3676 2.53828C15.2448 2.63652 15.1466 2.7757 15.1466 2.85757C15.1466 3.27511 14.9583 3.5289 14.4916 3.76632C14.2296 3.89731 13.8776 4.15111 13.7057 4.31485C13.4273 4.60139 13.018 5.32184 13.018 5.54289C13.018 5.59201 12.8706 5.65751 12.6823 5.69025C12.1256 5.7885 11.2742 6.26334 10.8239 6.73818C10.3818 7.21302 9.95606 7.97441 9.866 8.45744C9.81688 8.72761 9.77595 8.76854 9.46484 8.84222C8.50697 9.07146 7.47542 9.8574 7.02514 10.6925C6.58304 11.5112 6.55029 11.8305 6.55029 15.7602C6.55029 19.6899 6.58304 20.0092 7.02514 20.8279C7.47542 21.663 8.50697 22.4489 9.46484 22.6781C9.77595 22.7518 9.81688 22.7928 9.866 23.0629C9.94787 23.5296 10.3736 24.2992 10.7911 24.7413C11.2414 25.2243 11.7244 25.5272 12.4367 25.7564C12.9361 25.9202 12.9607 25.9447 13.108 26.3131C13.3127 26.8617 13.7466 27.3529 14.2542 27.6231C14.8682 27.9505 15.0565 28.147 15.122 28.5072C15.253 29.3669 16.4565 29.3177 16.4565 28.4581C16.4565 28.147 16.653 27.9423 17.2261 27.664C17.7173 27.4184 18.1921 26.9026 18.4295 26.3213C18.5851 25.9447 18.6424 25.8792 18.888 25.8301C20.0751 25.6091 21.2295 24.553 21.6306 23.3249L21.8107 22.76L22.2938 22.6208C23.268 22.3507 24.2095 21.5402 24.6516 20.5987C24.9955 19.87 25.0528 19.1741 25.0528 15.7602C25.0528 12.3462 24.9955 11.6503 24.6516 10.9217C24.2095 9.98021 23.268 9.1697 22.2938 8.89953L21.8107 8.76035L21.6306 8.19545C21.2295 6.96741 20.0751 5.9113 18.888 5.69025C18.6424 5.64113 18.5851 5.58382 18.4214 5.17447C18.2003 4.64232 17.6354 4.03649 17.1524 3.81544C16.6612 3.58621 16.4565 3.36516 16.4565 3.06224C16.4565 2.49735 15.8179 2.18624 15.3676 2.53828ZM16.3419 4.89612C16.9886 5.24816 17.2506 5.57563 17.3243 6.14872C17.3898 6.65631 17.5454 6.7873 18.2494 6.91829C19.5102 7.1639 20.247 7.85979 20.4681 9.00596C20.5172 9.25157 20.5745 9.53811 20.5991 9.64454C20.64 9.8574 21.0575 10.0703 21.426 10.0703C22.2119 10.0703 23.2516 10.8726 23.5464 11.7076C23.6937 12.1252 23.7019 12.4281 23.7019 15.7602C23.7019 19.8455 23.6937 19.8782 23.0633 20.5987C22.6867 21.0326 21.9008 21.4501 21.4669 21.4501C21.0657 21.4501 20.6482 21.6548 20.5991 21.8758C20.5745 21.9823 20.5172 22.2688 20.4681 22.5144C20.247 23.6606 19.5102 24.3565 18.2494 24.6021C17.5454 24.7331 17.3898 24.8641 17.3243 25.3716C17.2506 25.912 16.9886 26.2722 16.4483 26.5669C16.1945 26.6979 15.9325 26.8617 15.8588 26.919C15.777 26.9845 15.7197 26.9927 15.6869 26.9435C15.6542 26.8944 15.4086 26.7389 15.1384 26.5997C14.5407 26.2804 14.3443 26.0184 14.246 25.4044C14.2051 25.1506 14.115 24.8886 14.0495 24.8231C13.9922 24.7576 13.6566 24.6594 13.3127 24.6021C12.5841 24.4711 12.0847 24.2091 11.6753 23.7261C11.3397 23.3413 11.0531 22.6454 11.0531 22.2279C11.0531 22.0805 11.0285 21.8922 11.004 21.8185C10.9303 21.6302 10.5373 21.4501 10.2017 21.4501C9.42391 21.4501 8.56428 20.8606 8.13037 20.042L7.90114 19.608V15.7602V11.9123L8.12218 11.4866C8.57247 10.6433 9.20286 10.2013 10.1689 10.0703C10.7993 9.98021 11.0531 9.75916 11.0531 9.32525C11.0531 8.88316 11.3315 8.18727 11.6753 7.79429C12.0928 7.31127 12.5841 7.04928 13.3209 6.91829C14.025 6.79549 14.246 6.62356 14.246 6.21422C14.246 5.87855 14.4261 5.48558 14.6881 5.23997C14.8846 5.06804 15.5969 4.61776 15.7278 4.5932C15.7524 4.58502 16.0308 4.72419 16.3419 4.89612Z" fill="black"/>
<path d="M14.6961 10.3564C12.7476 10.7821 11.2985 12.0265 10.6845 13.8112C10.1278 15.3995 10.3161 17.3234 11.1512 18.7234C11.5114 19.3374 12.3055 20.1152 12.9441 20.4918C14.1803 21.2204 15.8505 21.4742 17.1768 21.1385C19.6165 20.5163 21.3112 18.4778 21.393 16.0545C21.4094 15.5141 21.393 15.4486 21.2129 15.3013C20.9755 15.1048 20.5416 15.0966 20.3205 15.2849C20.1895 15.3995 20.1322 15.596 20.0667 16.1363C19.9685 17.0123 19.7229 17.6182 19.1989 18.3222C18.7405 18.9281 18.0528 19.4439 17.2996 19.7386C16.8984 19.9023 16.6774 19.9269 15.8832 19.9269C15.0645 19.9269 14.868 19.8941 14.385 19.7058C12.985 19.1573 12.0599 18.0684 11.757 16.5948C11.5933 15.817 11.5933 15.7024 11.757 14.9247C12.1336 13.0908 13.5827 11.7645 15.4002 11.5844C16.137 11.5107 16.3499 11.4125 16.4563 11.0932C16.5464 10.8148 16.5054 10.6101 16.3089 10.3727C16.1616 10.2008 15.4411 10.1926 14.6961 10.3564Z" fill="black"/>
<path d="M18.5856 10.9708C18.471 11.0854 18.4219 11.241 18.4219 11.503C18.4219 11.8714 18.4219 11.8714 18.1435 11.8714C17.505 11.8714 17.1857 12.248 17.374 12.772C17.4804 13.0749 17.6605 13.1813 18.0862 13.1813H18.4219V13.5497C18.4219 14.0082 18.6266 14.2456 19.0277 14.2456C19.4371 14.2456 19.6581 14.0246 19.7072 13.5661C19.7564 13.1813 19.7564 13.1813 20.0593 13.1813C20.5096 13.1813 20.7552 12.9521 20.7552 12.5263C20.7552 12.1006 20.5096 11.8714 20.0593 11.8714C19.7564 11.8714 19.7564 11.8714 19.7072 11.4866C19.6827 11.2246 19.609 11.0527 19.4862 10.9545C19.2406 10.758 18.7903 10.7662 18.5856 10.9708Z" fill="black"/>
</svg>
